M48
;GenerationSoftware,Autodesk,EAGLE,9.2.2*%
;CreationDate,2019-02-05T15:53:49Z*%
FMAT,2
ICI,OFF
METRIC,TZ,000.000
T2C0.350
T1C1.016
%
G90
M71
T1
X41953Y36276
X31834Y39411
X30564Y37211
X29294Y35011
X28024Y32812
X24554Y31882
X37803Y24008
X39073Y26208
X40343Y28407
X41613Y30607
X42883Y32807
X44153Y35006
X35603Y25278
X36873Y27478
X38143Y29677
X39413Y31877
X40683Y34077
X26754Y30612
X45423Y37206
X43223Y38476
X32174Y45080
X30904Y42880
X29634Y40681
X28364Y38481
X27094Y36281
X25824Y34082
X34374Y43810
X33104Y41610
T2
X46736Y29972
X47498Y39116
X32131Y47752
X22352Y39370
X21971Y30226
X36830Y21336
M30