M48
;GenerationSoftware,Autodesk,EAGLE,9.6.1*%
;CreationDate,2024-03-27T19:11:34Z*%
FMAT,2
ICI,OFF
METRIC,TZ,000.000
T2C0.350
T1C1.016
%
G90
M71
T1
X8244Y13312
X9514Y15512
X964Y5783
X2234Y7983
X4774Y12382
X6044Y14582
X3504Y10183
X7314Y16782
X10784Y17712
X8584Y18982
X-2370Y25490
X-3640Y23291
X-4910Y21091
X-6180Y18891
X-7450Y16692
X-8720Y14492
X-170Y24220
X-2710Y19821
X-3980Y17621
X-5250Y15422
X5704Y8913
X-6520Y13222
X-9990Y12292
X-7790Y11022
X3164Y4513
X4434Y6713
X-1440Y22021
X6974Y11112
T2
X2857Y26511
X476Y26511
X10795Y21273
X8890Y22066
X9684Y9525
X10795Y10636
X-2064Y4604
X-7461Y7937
X-8414Y8890
X-11271Y18891
X-10160Y20003
X-1746Y27305
X-3334Y28257
X-10160Y23019
X-10160Y21431
X-11747Y10160
X-13176Y10478
X3175Y1429
X1905Y2540
X11430Y19844
X9366Y7144
X10478Y8573
X13335Y19685
X-476Y4445
M30