G04 EAGLE Gerber RS-274X export*
G75*
%MOMM*%
%FSLAX34Y34*%
%LPD*%
%INBottom Copper*%
%IPPOS*%
%AMOC8*
5,1,8,0,0,1.08239X$1,22.5*%
G01*
%ADD10C,1.000000*%
%ADD11P,1.649562X8X82.500000*%
%ADD12P,1.649562X8X262.500000*%
%ADD13C,0.756400*%
%ADD14C,0.609600*%
%ADD15C,0.203200*%

G36*
X-67572Y319D02*
X-67572Y319D01*
X-67544Y316D01*
X-67476Y339D01*
X-67405Y353D01*
X-67382Y369D01*
X-67366Y374D01*
X-29786Y374D01*
X-29766Y377D01*
X-29747Y375D01*
X-29645Y397D01*
X-29543Y414D01*
X-29526Y423D01*
X-29506Y427D01*
X-29417Y481D01*
X-29326Y529D01*
X-29312Y543D01*
X-29295Y554D01*
X-29228Y632D01*
X-29156Y707D01*
X-29148Y725D01*
X-29135Y741D01*
X-29096Y837D01*
X-29053Y930D01*
X-29051Y950D01*
X-29043Y969D01*
X-29025Y1135D01*
X-29025Y1705D01*
X-29019Y1713D01*
X-29001Y1773D01*
X-28973Y1830D01*
X-28956Y1917D01*
X-28947Y1948D01*
X-28947Y1966D01*
X-28942Y1995D01*
X-28786Y4074D01*
X-28789Y4108D01*
X-28784Y4143D01*
X-28800Y4230D01*
X-28808Y4319D01*
X-28821Y4351D01*
X-28828Y4385D01*
X-28862Y4456D01*
X-28719Y5084D01*
X-28717Y5117D01*
X-28702Y5196D01*
X-28654Y5835D01*
X-28613Y5894D01*
X-28556Y5962D01*
X-28543Y5994D01*
X-28524Y6023D01*
X-28468Y6181D01*
X-27978Y8328D01*
X-27976Y8362D01*
X-27966Y8395D01*
X-27969Y8484D01*
X-27963Y8573D01*
X-27972Y8607D01*
X-27973Y8641D01*
X-27997Y8717D01*
X-27762Y9316D01*
X-27755Y9348D01*
X-27728Y9425D01*
X-27586Y10049D01*
X-27536Y10101D01*
X-27470Y10160D01*
X-27452Y10190D01*
X-27428Y10216D01*
X-27350Y10364D01*
X-26546Y12414D01*
X-26539Y12448D01*
X-26524Y12479D01*
X-26513Y12567D01*
X-26494Y12654D01*
X-26498Y12689D01*
X-26494Y12723D01*
X-26506Y12802D01*
X-26184Y13359D01*
X-26172Y13390D01*
X-26135Y13462D01*
X-25901Y14058D01*
X-25844Y14102D01*
X-25770Y14150D01*
X-25748Y14177D01*
X-25721Y14198D01*
X-25621Y14334D01*
X-24520Y16241D01*
X-24508Y16273D01*
X-24489Y16302D01*
X-24465Y16387D01*
X-24433Y16471D01*
X-24432Y16505D01*
X-24423Y16539D01*
X-24423Y16618D01*
X-24022Y17121D01*
X-24006Y17150D01*
X-23958Y17215D01*
X-23637Y17770D01*
X-23575Y17805D01*
X-23494Y17842D01*
X-23468Y17865D01*
X-23438Y17882D01*
X-23320Y18001D01*
X-21947Y19723D01*
X-21940Y19736D01*
X-21937Y19739D01*
X-21933Y19748D01*
X-21930Y19753D01*
X-21907Y19779D01*
X-21870Y19860D01*
X-21827Y19937D01*
X-21820Y19971D01*
X-21806Y20003D01*
X-21794Y20082D01*
X-21323Y20519D01*
X-21302Y20545D01*
X-21245Y20603D01*
X-20846Y21104D01*
X-20779Y21129D01*
X-20693Y21153D01*
X-20665Y21173D01*
X-20632Y21185D01*
X-20498Y21285D01*
X-18883Y22783D01*
X-18862Y22810D01*
X-18835Y22832D01*
X-18787Y22907D01*
X-18733Y22977D01*
X-18721Y23010D01*
X-18702Y23039D01*
X-18679Y23115D01*
X-18147Y23477D01*
X-18123Y23500D01*
X-18058Y23548D01*
X-17589Y23984D01*
X-17519Y23999D01*
X-17431Y24010D01*
X-17399Y24025D01*
X-17366Y24033D01*
X-17217Y24111D01*
X-15398Y25352D01*
X-15373Y25376D01*
X-15343Y25393D01*
X-15284Y25460D01*
X-15220Y25521D01*
X-15204Y25552D01*
X-15181Y25578D01*
X-15147Y25650D01*
X-14567Y25929D01*
X-14540Y25948D01*
X-14468Y25986D01*
X-13939Y26346D01*
X-13867Y26351D01*
X-13779Y26349D01*
X-13745Y26359D01*
X-13711Y26361D01*
X-13553Y26417D01*
X-11569Y27373D01*
X-11540Y27392D01*
X-11508Y27405D01*
X-11440Y27463D01*
X-11367Y27514D01*
X-11347Y27542D01*
X-11320Y27564D01*
X-11276Y27630D01*
X-10661Y27819D01*
X-10631Y27834D01*
X-10555Y27861D01*
X-9978Y28139D01*
X-9906Y28133D01*
X-9819Y28117D01*
X-9784Y28123D01*
X-9750Y28120D01*
X-9585Y28151D01*
X-7481Y28800D01*
X-7450Y28816D01*
X-7416Y28823D01*
X-7340Y28870D01*
X-7261Y28910D01*
X-7236Y28934D01*
X-7207Y28952D01*
X-7153Y29011D01*
X-6516Y29107D01*
X-6485Y29117D01*
X-6405Y29132D01*
X-5793Y29321D01*
X-5724Y29304D01*
X-5639Y29276D01*
X-5605Y29276D01*
X-5571Y29268D01*
X-5403Y29274D01*
X-3226Y29602D01*
X-3193Y29613D01*
X-3158Y29616D01*
X-3077Y29651D01*
X-2992Y29678D01*
X-2964Y29699D01*
X-2932Y29712D01*
X-2870Y29762D01*
X-2227Y29762D01*
X-2194Y29767D01*
X-2113Y29770D01*
X-1480Y29866D01*
X-1413Y29839D01*
X-1334Y29798D01*
X-1300Y29793D01*
X-1268Y29780D01*
X-1101Y29762D01*
X1101Y29762D01*
X1135Y29767D01*
X1170Y29765D01*
X1256Y29787D01*
X1344Y29801D01*
X1374Y29818D01*
X1408Y29826D01*
X1477Y29866D01*
X2113Y29770D01*
X2146Y29771D01*
X2227Y29762D01*
X2867Y29762D01*
X2929Y29725D01*
X3001Y29673D01*
X3034Y29663D01*
X3064Y29646D01*
X3226Y29602D01*
X5403Y29274D01*
X5438Y29275D01*
X5472Y29267D01*
X5560Y29276D01*
X5649Y29277D01*
X5682Y29289D01*
X5717Y29292D01*
X5790Y29322D01*
X6405Y29132D01*
X6438Y29127D01*
X6516Y29107D01*
X7150Y29011D01*
X7205Y28966D01*
X7269Y28904D01*
X7300Y28889D01*
X7327Y28867D01*
X7481Y28800D01*
X9585Y28151D01*
X9619Y28146D01*
X9652Y28134D01*
X9741Y28130D01*
X9829Y28118D01*
X9863Y28124D01*
X9897Y28122D01*
X9975Y28140D01*
X10555Y27861D01*
X10586Y27852D01*
X10661Y27819D01*
X11272Y27631D01*
X11321Y27578D01*
X11374Y27507D01*
X11403Y27487D01*
X11426Y27462D01*
X11569Y27373D01*
X13553Y26417D01*
X13586Y26407D01*
X13616Y26390D01*
X13703Y26373D01*
X13788Y26348D01*
X13823Y26349D01*
X13857Y26342D01*
X13936Y26348D01*
X14468Y25986D01*
X14498Y25972D01*
X14567Y25929D01*
X15144Y25651D01*
X15183Y25591D01*
X15226Y25513D01*
X15251Y25490D01*
X15271Y25461D01*
X15398Y25352D01*
X17217Y24111D01*
X17249Y24097D01*
X17276Y24075D01*
X17360Y24045D01*
X17440Y24007D01*
X17475Y24004D01*
X17507Y23992D01*
X17587Y23986D01*
X18058Y23548D01*
X18086Y23530D01*
X18147Y23477D01*
X18676Y23117D01*
X18707Y23052D01*
X18737Y22968D01*
X18759Y22941D01*
X18774Y22910D01*
X18883Y22783D01*
X20498Y21285D01*
X20526Y21266D01*
X20550Y21240D01*
X20628Y21198D01*
X20703Y21149D01*
X20736Y21140D01*
X20766Y21124D01*
X20844Y21106D01*
X21245Y20603D01*
X21270Y20581D01*
X21323Y20519D01*
X21798Y20078D01*
X21803Y20075D01*
X21807Y20070D01*
X21906Y20006D01*
X22003Y19942D01*
X22009Y19940D01*
X22013Y19937D01*
X22128Y19909D01*
X22241Y19878D01*
X22247Y19879D01*
X22252Y19877D01*
X22368Y19886D01*
X22486Y19894D01*
X22492Y19896D01*
X22497Y19897D01*
X22604Y19942D01*
X22714Y19987D01*
X22718Y19991D01*
X22724Y19993D01*
X22854Y20098D01*
X54386Y51629D01*
X54433Y51694D01*
X54449Y51711D01*
X54452Y51719D01*
X54499Y51773D01*
X54511Y51803D01*
X54530Y51829D01*
X54557Y51916D01*
X54591Y52001D01*
X54595Y52042D01*
X54602Y52064D01*
X54601Y52096D01*
X54609Y52168D01*
X54609Y63794D01*
X54602Y63842D01*
X54603Y63890D01*
X54582Y63962D01*
X54570Y64037D01*
X54547Y64079D01*
X54533Y64125D01*
X54490Y64188D01*
X54454Y64254D01*
X54420Y64287D01*
X54392Y64327D01*
X54331Y64372D01*
X54276Y64424D01*
X54233Y64444D01*
X54194Y64472D01*
X54122Y64495D01*
X54053Y64527D01*
X54005Y64533D01*
X53960Y64547D01*
X53884Y64546D01*
X53809Y64555D01*
X53762Y64544D01*
X53714Y64544D01*
X53642Y64518D01*
X53568Y64502D01*
X53527Y64478D01*
X53482Y64462D01*
X53422Y64415D01*
X53357Y64376D01*
X53326Y64340D01*
X53288Y64310D01*
X53212Y64206D01*
X53197Y64189D01*
X53195Y64183D01*
X53189Y64175D01*
X50362Y59278D01*
X43044Y57317D01*
X36483Y61105D01*
X34523Y68423D01*
X38310Y74984D01*
X45628Y76944D01*
X52189Y73157D01*
X53113Y69708D01*
X53123Y69686D01*
X53127Y69662D01*
X53173Y69575D01*
X53214Y69484D01*
X53230Y69466D01*
X53242Y69445D01*
X53314Y69377D01*
X53381Y69304D01*
X53402Y69292D01*
X53420Y69276D01*
X53510Y69234D01*
X53597Y69186D01*
X53621Y69182D01*
X53643Y69172D01*
X53742Y69161D01*
X53840Y69144D01*
X53864Y69148D01*
X53887Y69145D01*
X53985Y69166D01*
X54083Y69181D01*
X54104Y69192D01*
X54128Y69197D01*
X54213Y69248D01*
X54302Y69294D01*
X54318Y69311D01*
X54339Y69323D01*
X54404Y69399D01*
X54473Y69470D01*
X54483Y69492D01*
X54499Y69510D01*
X54536Y69603D01*
X54579Y69692D01*
X54582Y69716D01*
X54591Y69738D01*
X54609Y69905D01*
X54609Y79530D01*
X54598Y79597D01*
X54597Y79664D01*
X54579Y79717D01*
X54570Y79773D01*
X54538Y79833D01*
X54515Y79896D01*
X54481Y79941D01*
X54454Y79990D01*
X54406Y80037D01*
X54364Y80090D01*
X54300Y80137D01*
X54276Y80160D01*
X54257Y80168D01*
X54229Y80189D01*
X49183Y83102D01*
X47223Y90420D01*
X51010Y96981D01*
X58328Y98941D01*
X64889Y95154D01*
X66849Y87836D01*
X63062Y81275D01*
X60255Y80523D01*
X60215Y80505D01*
X60172Y80496D01*
X60104Y80455D01*
X60031Y80422D01*
X59999Y80392D01*
X59961Y80370D01*
X59909Y80309D01*
X59851Y80255D01*
X59830Y80216D01*
X59801Y80183D01*
X59771Y80109D01*
X59733Y80038D01*
X59726Y79995D01*
X59709Y79955D01*
X59693Y79810D01*
X59691Y79796D01*
X59691Y79793D01*
X59691Y79788D01*
X59691Y49748D01*
X57979Y48036D01*
X25542Y15599D01*
X25517Y15563D01*
X25484Y15534D01*
X25445Y15464D01*
X25399Y15399D01*
X25386Y15357D01*
X25364Y15319D01*
X25350Y15241D01*
X25326Y15164D01*
X25327Y15120D01*
X25319Y15077D01*
X25331Y14998D01*
X25333Y14918D01*
X25348Y14877D01*
X25354Y14834D01*
X25412Y14701D01*
X25417Y14687D01*
X25419Y14685D01*
X25421Y14680D01*
X25621Y14334D01*
X25643Y14307D01*
X25658Y14276D01*
X25721Y14212D01*
X25777Y14143D01*
X25806Y14125D01*
X25831Y14100D01*
X25900Y14061D01*
X26135Y13462D01*
X26151Y13433D01*
X26184Y13359D01*
X26504Y12804D01*
X26504Y12733D01*
X26495Y12644D01*
X26502Y12610D01*
X26502Y12576D01*
X26546Y12414D01*
X27350Y10364D01*
X27368Y10334D01*
X27378Y10301D01*
X27430Y10229D01*
X27476Y10153D01*
X27502Y10130D01*
X27523Y10102D01*
X27585Y10052D01*
X27728Y9425D01*
X27740Y9394D01*
X27762Y9316D01*
X27995Y8720D01*
X27984Y8649D01*
X27962Y8563D01*
X27965Y8529D01*
X27959Y8494D01*
X27978Y8328D01*
X28468Y6181D01*
X28481Y6149D01*
X28487Y6115D01*
X28528Y6035D01*
X28561Y5953D01*
X28584Y5927D01*
X28600Y5896D01*
X28654Y5838D01*
X28702Y5196D01*
X28710Y5164D01*
X28719Y5084D01*
X28861Y4459D01*
X28840Y4391D01*
X28805Y4309D01*
X28803Y4275D01*
X28792Y4241D01*
X28786Y4074D01*
X28942Y1995D01*
X28957Y1933D01*
X28962Y1870D01*
X28985Y1815D01*
X29000Y1756D01*
X29025Y1716D01*
X29025Y1135D01*
X29028Y1116D01*
X29026Y1096D01*
X29048Y995D01*
X29064Y893D01*
X29074Y875D01*
X29078Y856D01*
X29131Y767D01*
X29180Y675D01*
X29194Y662D01*
X29204Y644D01*
X29283Y577D01*
X29358Y506D01*
X29376Y498D01*
X29391Y485D01*
X29487Y446D01*
X29581Y402D01*
X29601Y400D01*
X29619Y393D01*
X29786Y374D01*
X67369Y374D01*
X67384Y362D01*
X67412Y355D01*
X67436Y341D01*
X67536Y324D01*
X67577Y314D01*
X67587Y315D01*
X67600Y313D01*
X86600Y313D01*
X86676Y329D01*
X86754Y337D01*
X86773Y348D01*
X86795Y353D01*
X86859Y397D01*
X86927Y435D01*
X86943Y454D01*
X86959Y465D01*
X86983Y503D01*
X87033Y563D01*
X96533Y17063D01*
X96542Y17091D01*
X96558Y17114D01*
X96573Y17184D01*
X96596Y17252D01*
X96593Y17281D01*
X96599Y17309D01*
X96586Y17379D01*
X96580Y17450D01*
X96567Y17476D01*
X96561Y17504D01*
X96554Y17515D01*
X115234Y49869D01*
X115241Y49887D01*
X115253Y49904D01*
X115284Y50002D01*
X115321Y50099D01*
X115321Y50119D01*
X115327Y50138D01*
X115326Y50241D01*
X115330Y50345D01*
X115324Y50364D01*
X115324Y50384D01*
X115289Y50481D01*
X115260Y50581D01*
X115248Y50597D01*
X115242Y50616D01*
X115178Y50697D01*
X115118Y50782D01*
X115102Y50794D01*
X115090Y50809D01*
X114955Y50909D01*
X114615Y51105D01*
X114611Y51114D01*
X114568Y51160D01*
X114533Y51212D01*
X114466Y51270D01*
X114444Y51294D01*
X114428Y51302D01*
X114406Y51321D01*
X112681Y52497D01*
X112649Y52511D01*
X112622Y52533D01*
X112539Y52563D01*
X112458Y52600D01*
X112423Y52604D01*
X112391Y52616D01*
X112312Y52622D01*
X111840Y53059D01*
X111812Y53077D01*
X111751Y53130D01*
X111221Y53491D01*
X111191Y53556D01*
X111160Y53639D01*
X111139Y53666D01*
X111124Y53698D01*
X111014Y53825D01*
X109398Y55323D01*
X109369Y55342D01*
X109345Y55368D01*
X109267Y55410D01*
X109193Y55459D01*
X109159Y55468D01*
X109129Y55485D01*
X109052Y55502D01*
X108650Y56005D01*
X108626Y56027D01*
X108573Y56089D01*
X108103Y56524D01*
X108083Y56593D01*
X108065Y56680D01*
X108048Y56710D01*
X108038Y56743D01*
X107948Y56885D01*
X106573Y58608D01*
X106548Y58631D01*
X106528Y58660D01*
X106457Y58713D01*
X106391Y58773D01*
X106359Y58787D01*
X106331Y58807D01*
X106257Y58836D01*
X105935Y59393D01*
X105914Y59419D01*
X105871Y59488D01*
X105472Y59988D01*
X105462Y60059D01*
X105457Y60148D01*
X105445Y60180D01*
X105440Y60214D01*
X105372Y60368D01*
X104270Y62277D01*
X104248Y62304D01*
X104232Y62335D01*
X104170Y62398D01*
X104114Y62467D01*
X104084Y62485D01*
X104060Y62510D01*
X103991Y62550D01*
X103756Y63149D01*
X103739Y63177D01*
X103707Y63251D01*
X103386Y63806D01*
X103387Y63877D01*
X103396Y63966D01*
X103388Y64000D01*
X103388Y64034D01*
X103344Y64196D01*
X102538Y66248D01*
X102521Y66278D01*
X102510Y66311D01*
X102458Y66383D01*
X102413Y66459D01*
X102386Y66482D01*
X102366Y66510D01*
X102304Y66559D01*
X102160Y67187D01*
X102148Y67217D01*
X102127Y67295D01*
X101893Y67891D01*
X101897Y67918D01*
X101898Y67920D01*
X101900Y67936D01*
X101904Y67962D01*
X101926Y68048D01*
X101923Y68083D01*
X101929Y68117D01*
X101924Y68157D01*
X101925Y68165D01*
X101921Y68183D01*
X101910Y68284D01*
X101419Y70433D01*
X101405Y70465D01*
X101400Y70499D01*
X101359Y70578D01*
X101326Y70660D01*
X101303Y70687D01*
X101287Y70718D01*
X101233Y70776D01*
X101185Y71417D01*
X101177Y71449D01*
X101168Y71530D01*
X101025Y72154D01*
X101047Y72222D01*
X101081Y72305D01*
X101084Y72339D01*
X101094Y72372D01*
X101100Y72540D01*
X100935Y74738D01*
X100927Y74771D01*
X100927Y74806D01*
X100898Y74890D01*
X100877Y74977D01*
X100858Y75006D01*
X100847Y75039D01*
X100802Y75104D01*
X100850Y75746D01*
X100847Y75779D01*
X100850Y75860D01*
X100835Y76068D01*
X100808Y76178D01*
X100784Y76290D01*
X100779Y76298D01*
X100777Y76307D01*
X100716Y76404D01*
X100657Y76501D01*
X100651Y76507D01*
X100646Y76515D01*
X100557Y76587D01*
X100470Y76661D01*
X100462Y76665D01*
X100455Y76670D01*
X100349Y76710D01*
X100242Y76753D01*
X100232Y76754D01*
X100225Y76757D01*
X100202Y76758D01*
X100076Y76772D01*
X91085Y76772D01*
X67195Y100662D01*
X67195Y101593D01*
X67184Y101660D01*
X67183Y101727D01*
X67165Y101780D01*
X67156Y101836D01*
X67124Y101895D01*
X67101Y101959D01*
X67067Y102004D01*
X67040Y102053D01*
X66992Y102100D01*
X66950Y102153D01*
X66886Y102200D01*
X66862Y102222D01*
X66843Y102231D01*
X66815Y102252D01*
X61883Y105099D01*
X59923Y112417D01*
X63710Y118978D01*
X71028Y120938D01*
X77589Y117151D01*
X79549Y109833D01*
X75762Y103272D01*
X73888Y102770D01*
X73801Y102731D01*
X73711Y102698D01*
X73689Y102681D01*
X73664Y102669D01*
X73594Y102604D01*
X73519Y102545D01*
X73504Y102521D01*
X73483Y102502D01*
X73438Y102418D01*
X73386Y102338D01*
X73379Y102310D01*
X73366Y102285D01*
X73350Y102191D01*
X73326Y102099D01*
X73328Y102071D01*
X73324Y102043D01*
X73338Y101949D01*
X73345Y101854D01*
X73356Y101828D01*
X73361Y101800D01*
X73404Y101715D01*
X73442Y101628D01*
X73464Y101600D01*
X73473Y101581D01*
X73497Y101558D01*
X73547Y101497D01*
X92967Y82076D01*
X93041Y82023D01*
X93110Y81964D01*
X93141Y81951D01*
X93167Y81933D01*
X93254Y81906D01*
X93339Y81872D01*
X93379Y81867D01*
X93402Y81860D01*
X93434Y81861D01*
X93505Y81853D01*
X100963Y81853D01*
X101020Y81863D01*
X101078Y81862D01*
X101141Y81882D01*
X101205Y81893D01*
X101257Y81920D01*
X101312Y81938D01*
X101365Y81977D01*
X101423Y82008D01*
X101463Y82050D01*
X101509Y82085D01*
X101547Y82139D01*
X101592Y82186D01*
X101617Y82239D01*
X101650Y82287D01*
X101682Y82381D01*
X101696Y82409D01*
X101697Y82424D01*
X101705Y82445D01*
X101905Y83323D01*
X101907Y83358D01*
X101917Y83391D01*
X101915Y83480D01*
X101920Y83569D01*
X101911Y83602D01*
X101910Y83637D01*
X101886Y83712D01*
X102121Y84312D01*
X102128Y84344D01*
X102155Y84421D01*
X102297Y85045D01*
X102346Y85097D01*
X102413Y85156D01*
X102430Y85186D01*
X102454Y85211D01*
X102532Y85360D01*
X103337Y87412D01*
X103344Y87446D01*
X103359Y87477D01*
X103370Y87565D01*
X103389Y87652D01*
X103385Y87687D01*
X103389Y87721D01*
X103377Y87800D01*
X103698Y88357D01*
X103710Y88388D01*
X103748Y88460D01*
X103982Y89056D01*
X104038Y89100D01*
X104113Y89148D01*
X104134Y89175D01*
X104162Y89197D01*
X104261Y89332D01*
X105362Y91241D01*
X105375Y91274D01*
X105394Y91302D01*
X105418Y91388D01*
X105449Y91471D01*
X105451Y91506D01*
X105460Y91539D01*
X105460Y91619D01*
X105861Y92122D01*
X105877Y92151D01*
X105925Y92216D01*
X106245Y92771D01*
X106307Y92806D01*
X106388Y92843D01*
X106414Y92866D01*
X106444Y92883D01*
X106562Y93002D01*
X107936Y94726D01*
X107953Y94756D01*
X107976Y94782D01*
X108013Y94863D01*
X108056Y94941D01*
X108063Y94975D01*
X108077Y95006D01*
X108088Y95085D01*
X108560Y95523D01*
X108580Y95549D01*
X108637Y95606D01*
X109037Y96107D01*
X109103Y96133D01*
X109189Y96157D01*
X109218Y96176D01*
X109250Y96189D01*
X109385Y96289D01*
X111000Y97788D01*
X111021Y97816D01*
X111048Y97837D01*
X111096Y97912D01*
X111151Y97983D01*
X111162Y98015D01*
X111181Y98045D01*
X111204Y98120D01*
X111736Y98483D01*
X111760Y98506D01*
X111825Y98554D01*
X112294Y98990D01*
X112364Y99005D01*
X112453Y99016D01*
X112484Y99031D01*
X112518Y99039D01*
X112666Y99117D01*
X114487Y100360D01*
X114512Y100384D01*
X114542Y100401D01*
X114600Y100468D01*
X114665Y100529D01*
X114681Y100560D01*
X114704Y100586D01*
X114738Y100658D01*
X115318Y100937D01*
X115345Y100956D01*
X115416Y100994D01*
X115945Y101355D01*
X116017Y101360D01*
X116106Y101358D01*
X116139Y101368D01*
X116174Y101370D01*
X116332Y101426D01*
X118317Y102383D01*
X118346Y102403D01*
X118378Y102415D01*
X118446Y102473D01*
X118519Y102524D01*
X118539Y102552D01*
X118566Y102574D01*
X118610Y102640D01*
X119225Y102830D01*
X119255Y102845D01*
X119331Y102871D01*
X119908Y103150D01*
X119980Y103144D01*
X120067Y103128D01*
X120101Y103133D01*
X120136Y103130D01*
X120301Y103162D01*
X122407Y103812D01*
X122438Y103828D01*
X122472Y103836D01*
X122548Y103882D01*
X122627Y103922D01*
X122651Y103946D01*
X122681Y103965D01*
X122735Y104023D01*
X123371Y104119D01*
X123403Y104129D01*
X123482Y104144D01*
X124094Y104333D01*
X124164Y104317D01*
X124248Y104289D01*
X124283Y104289D01*
X124317Y104281D01*
X124484Y104287D01*
X126664Y104616D01*
X126697Y104627D01*
X126731Y104630D01*
X126813Y104665D01*
X126898Y104692D01*
X126926Y104713D01*
X126958Y104726D01*
X127019Y104776D01*
X127663Y104776D01*
X127696Y104781D01*
X127777Y104784D01*
X128410Y104880D01*
X128476Y104853D01*
X128555Y104813D01*
X128590Y104808D01*
X128622Y104795D01*
X128789Y104776D01*
X130993Y104777D01*
X131027Y104783D01*
X131062Y104780D01*
X131148Y104802D01*
X131235Y104817D01*
X131266Y104833D01*
X131300Y104842D01*
X131368Y104882D01*
X132005Y104786D01*
X132038Y104786D01*
X132118Y104777D01*
X132759Y104778D01*
X132821Y104741D01*
X132893Y104689D01*
X132926Y104679D01*
X132956Y104662D01*
X133118Y104618D01*
X135298Y104291D01*
X135332Y104291D01*
X135366Y104284D01*
X135455Y104293D01*
X135543Y104294D01*
X135576Y104305D01*
X135611Y104309D01*
X135684Y104338D01*
X136300Y104149D01*
X136332Y104144D01*
X136411Y104123D01*
X137044Y104028D01*
X137100Y103983D01*
X137163Y103921D01*
X137194Y103906D01*
X137221Y103884D01*
X137375Y103817D01*
X139482Y103168D01*
X139501Y103165D01*
X139511Y103161D01*
X139525Y103160D01*
X139548Y103151D01*
X139637Y103147D01*
X139725Y103135D01*
X139759Y103141D01*
X139794Y103139D01*
X139871Y103157D01*
X140451Y102878D01*
X140483Y102869D01*
X140557Y102837D01*
X141169Y102648D01*
X141218Y102595D01*
X141271Y102524D01*
X141300Y102505D01*
X141323Y102479D01*
X141466Y102390D01*
X143346Y101485D01*
X143407Y101467D01*
X143464Y101440D01*
X143524Y101433D01*
X143582Y101416D01*
X143630Y101418D01*
X143995Y101207D01*
X144014Y101200D01*
X144030Y101188D01*
X144129Y101156D01*
X144225Y101120D01*
X144245Y101119D01*
X144264Y101113D01*
X144368Y101114D01*
X144471Y101111D01*
X144490Y101116D01*
X144510Y101117D01*
X144608Y101151D01*
X144707Y101181D01*
X144723Y101192D01*
X144742Y101199D01*
X144823Y101262D01*
X144908Y101322D01*
X144920Y101338D01*
X144936Y101350D01*
X145035Y101485D01*
X163704Y133821D01*
X163727Y133823D01*
X163798Y133823D01*
X163825Y133834D01*
X163854Y133837D01*
X163916Y133873D01*
X163981Y133900D01*
X164002Y133921D01*
X164027Y133935D01*
X164090Y134012D01*
X164120Y134043D01*
X164124Y134053D01*
X164133Y134063D01*
X173633Y150563D01*
X173643Y150595D01*
X173652Y150608D01*
X173656Y150633D01*
X173657Y150636D01*
X173688Y150707D01*
X173688Y150730D01*
X173696Y150752D01*
X173690Y150829D01*
X173691Y150906D01*
X173681Y150930D01*
X173680Y150950D01*
X173659Y150990D01*
X173633Y151062D01*
X173573Y151166D01*
X173572Y151169D01*
X173574Y151225D01*
X173555Y151290D01*
X173546Y151357D01*
X173514Y151430D01*
X173505Y151461D01*
X173493Y151478D01*
X173478Y151511D01*
X145310Y200298D01*
X145298Y200314D01*
X145290Y200332D01*
X145220Y200408D01*
X145154Y200489D01*
X145138Y200499D01*
X145124Y200514D01*
X145034Y200564D01*
X144946Y200619D01*
X144927Y200624D01*
X144909Y200634D01*
X144808Y200653D01*
X144707Y200677D01*
X144687Y200675D01*
X144668Y200679D01*
X144565Y200664D01*
X144462Y200655D01*
X144444Y200647D01*
X144424Y200644D01*
X144270Y200577D01*
X143639Y200213D01*
X143629Y200214D01*
X143568Y200200D01*
X143505Y200195D01*
X143421Y200166D01*
X143389Y200159D01*
X143374Y200150D01*
X143346Y200140D01*
X141466Y199235D01*
X141437Y199215D01*
X141405Y199202D01*
X141337Y199145D01*
X141264Y199094D01*
X141244Y199066D01*
X141217Y199043D01*
X141172Y198978D01*
X140557Y198788D01*
X140528Y198774D01*
X140451Y198747D01*
X139874Y198469D01*
X139803Y198475D01*
X139715Y198491D01*
X139681Y198485D01*
X139647Y198488D01*
X139482Y198457D01*
X137375Y197808D01*
X137344Y197792D01*
X137310Y197785D01*
X137235Y197738D01*
X137155Y197698D01*
X137130Y197674D01*
X137101Y197656D01*
X137047Y197597D01*
X136411Y197502D01*
X136379Y197492D01*
X136300Y197476D01*
X135688Y197288D01*
X135618Y197304D01*
X135534Y197333D01*
X135499Y197333D01*
X135465Y197341D01*
X135298Y197334D01*
X133118Y197007D01*
X133085Y196996D01*
X133050Y196993D01*
X132968Y196958D01*
X132884Y196931D01*
X132856Y196911D01*
X132824Y196897D01*
X132762Y196847D01*
X132118Y196848D01*
X132086Y196842D01*
X132005Y196839D01*
X131372Y196744D01*
X131305Y196771D01*
X131226Y196811D01*
X131192Y196816D01*
X131159Y196829D01*
X130993Y196848D01*
X128789Y196849D01*
X128754Y196843D01*
X128720Y196846D01*
X128634Y196823D01*
X128546Y196809D01*
X128515Y196793D01*
X128482Y196784D01*
X128413Y196744D01*
X127777Y196841D01*
X127744Y196840D01*
X127663Y196849D01*
X127202Y196849D01*
X127182Y196846D01*
X127163Y196848D01*
X127062Y196826D01*
X126959Y196810D01*
X126942Y196800D01*
X126922Y196796D01*
X126833Y196743D01*
X126742Y196695D01*
X126728Y196680D01*
X126711Y196670D01*
X126644Y196591D01*
X126573Y196516D01*
X126564Y196498D01*
X126551Y196483D01*
X126512Y196387D01*
X126469Y196293D01*
X126467Y196273D01*
X126459Y196255D01*
X126441Y196088D01*
X126441Y159360D01*
X97662Y130581D01*
X91968Y130581D01*
X91901Y130570D01*
X91834Y130569D01*
X91781Y130551D01*
X91725Y130542D01*
X91666Y130510D01*
X91602Y130487D01*
X91557Y130453D01*
X91508Y130426D01*
X91461Y130378D01*
X91408Y130336D01*
X91361Y130272D01*
X91339Y130248D01*
X91330Y130229D01*
X91309Y130201D01*
X88462Y125269D01*
X81144Y123309D01*
X74583Y127096D01*
X72623Y134414D01*
X76410Y140975D01*
X83728Y142936D01*
X90289Y139148D01*
X91071Y136227D01*
X91089Y136187D01*
X91099Y136144D01*
X91140Y136076D01*
X91173Y136003D01*
X91202Y135971D01*
X91225Y135933D01*
X91286Y135881D01*
X91340Y135823D01*
X91378Y135802D01*
X91412Y135773D01*
X91486Y135743D01*
X91556Y135705D01*
X91599Y135698D01*
X91640Y135681D01*
X91785Y135665D01*
X91798Y135663D01*
X91802Y135663D01*
X91807Y135663D01*
X95242Y135663D01*
X95332Y135678D01*
X95423Y135685D01*
X95453Y135697D01*
X95485Y135703D01*
X95565Y135745D01*
X95649Y135781D01*
X95681Y135807D01*
X95702Y135818D01*
X95724Y135841D01*
X95780Y135886D01*
X121136Y161242D01*
X121181Y161305D01*
X121206Y161331D01*
X121211Y161341D01*
X121249Y161385D01*
X121261Y161416D01*
X121280Y161442D01*
X121307Y161529D01*
X121341Y161614D01*
X121345Y161654D01*
X121352Y161677D01*
X121351Y161709D01*
X121359Y161780D01*
X121359Y197575D01*
X121355Y197604D01*
X121357Y197633D01*
X121335Y197725D01*
X121320Y197817D01*
X121306Y197843D01*
X121299Y197872D01*
X121248Y197952D01*
X121204Y198035D01*
X121183Y198055D01*
X121167Y198080D01*
X121094Y198139D01*
X121026Y198204D01*
X120999Y198216D01*
X120976Y198235D01*
X120823Y198302D01*
X120301Y198463D01*
X120266Y198468D01*
X120234Y198480D01*
X120145Y198485D01*
X120057Y198497D01*
X120023Y198490D01*
X119988Y198492D01*
X119911Y198474D01*
X119331Y198754D01*
X119300Y198763D01*
X119225Y198795D01*
X118613Y198984D01*
X118565Y199037D01*
X118511Y199108D01*
X118483Y199128D01*
X118459Y199153D01*
X118317Y199242D01*
X116332Y200199D01*
X116299Y200209D01*
X116268Y200226D01*
X116181Y200244D01*
X116096Y200269D01*
X116061Y200267D01*
X116027Y200274D01*
X115948Y200268D01*
X115416Y200631D01*
X115386Y200645D01*
X115318Y200688D01*
X114741Y200966D01*
X114701Y201026D01*
X114659Y201104D01*
X114633Y201127D01*
X114614Y201156D01*
X114487Y201265D01*
X112666Y202508D01*
X112634Y202522D01*
X112607Y202544D01*
X112524Y202574D01*
X112443Y202611D01*
X112408Y202615D01*
X112376Y202627D01*
X112297Y202633D01*
X111825Y203071D01*
X111798Y203089D01*
X111736Y203142D01*
X111207Y203503D01*
X111177Y203567D01*
X111146Y203651D01*
X111125Y203678D01*
X111110Y203710D01*
X111000Y203837D01*
X109385Y205336D01*
X109356Y205356D01*
X109332Y205381D01*
X109254Y205423D01*
X109180Y205472D01*
X109147Y205481D01*
X109116Y205498D01*
X109039Y205515D01*
X108637Y206019D01*
X108613Y206041D01*
X108560Y206102D01*
X108386Y206264D01*
X108338Y206296D01*
X108296Y206336D01*
X108236Y206364D01*
X108181Y206400D01*
X108125Y206415D01*
X108073Y206439D01*
X108007Y206447D01*
X107943Y206464D01*
X107886Y206460D01*
X107828Y206466D01*
X107764Y206452D01*
X107698Y206448D01*
X107644Y206426D01*
X107588Y206414D01*
X107531Y206380D01*
X107470Y206355D01*
X107426Y206318D01*
X107377Y206288D01*
X107334Y206238D01*
X107284Y206195D01*
X107254Y206145D01*
X107217Y206101D01*
X107192Y206040D01*
X107159Y205983D01*
X107147Y205927D01*
X107125Y205873D01*
X107114Y205773D01*
X107107Y205742D01*
X107109Y205728D01*
X107107Y205706D01*
X107107Y205126D01*
X107077Y205084D01*
X107017Y205014D01*
X107005Y204984D01*
X106986Y204958D01*
X106959Y204871D01*
X106925Y204786D01*
X106921Y204745D01*
X106914Y204723D01*
X106915Y204691D01*
X106907Y204619D01*
X106907Y202589D01*
X103798Y199481D01*
X99402Y199481D01*
X96293Y202589D01*
X96293Y206487D01*
X96279Y206577D01*
X96271Y206668D01*
X96259Y206698D01*
X96254Y206730D01*
X96211Y206811D01*
X96175Y206894D01*
X96149Y206927D01*
X96138Y206947D01*
X96115Y206969D01*
X96070Y207025D01*
X87963Y215133D01*
X87889Y215186D01*
X87819Y215245D01*
X87789Y215258D01*
X87763Y215276D01*
X87676Y215303D01*
X87591Y215337D01*
X87550Y215342D01*
X87528Y215349D01*
X87496Y215348D01*
X87425Y215356D01*
X86702Y215356D01*
X83593Y218464D01*
X83593Y222861D01*
X86702Y225969D01*
X91098Y225969D01*
X94207Y222861D01*
X94207Y222138D01*
X94221Y222048D01*
X94229Y221957D01*
X94241Y221927D01*
X94246Y221895D01*
X94289Y221814D01*
X94325Y221731D01*
X94351Y221698D01*
X94362Y221678D01*
X94385Y221656D01*
X94430Y221600D01*
X101740Y214289D01*
X101813Y214237D01*
X101882Y214178D01*
X101913Y214165D01*
X101940Y214146D01*
X102026Y214119D01*
X102110Y214085D01*
X102143Y214083D01*
X102175Y214073D01*
X102265Y214076D01*
X102355Y214070D01*
X102387Y214079D01*
X102421Y214080D01*
X102506Y214111D01*
X102593Y214134D01*
X102620Y214153D01*
X102652Y214164D01*
X102722Y214221D01*
X102797Y214270D01*
X102818Y214297D01*
X102844Y214318D01*
X102893Y214394D01*
X102948Y214465D01*
X102959Y214497D01*
X102977Y214525D01*
X102999Y214612D01*
X103028Y214697D01*
X103029Y214731D01*
X103037Y214763D01*
X103030Y214853D01*
X103031Y214943D01*
X103020Y214985D01*
X103018Y215008D01*
X103005Y215038D01*
X102987Y215105D01*
X102532Y216265D01*
X102515Y216295D01*
X102504Y216328D01*
X102452Y216400D01*
X102407Y216477D01*
X102380Y216500D01*
X102360Y216528D01*
X102298Y216577D01*
X102155Y217204D01*
X102143Y217235D01*
X102121Y217313D01*
X101888Y217909D01*
X101899Y217980D01*
X101921Y218066D01*
X101918Y218101D01*
X101924Y218135D01*
X101905Y218302D01*
X101415Y220451D01*
X101402Y220483D01*
X101397Y220517D01*
X101356Y220596D01*
X101322Y220679D01*
X101300Y220705D01*
X101284Y220736D01*
X101230Y220794D01*
X101182Y221436D01*
X101174Y221468D01*
X101165Y221548D01*
X101023Y222173D01*
X101044Y222241D01*
X101079Y222323D01*
X101082Y222358D01*
X101092Y222391D01*
X101098Y222558D01*
X100934Y224756D01*
X100926Y224790D01*
X100926Y224825D01*
X100897Y224909D01*
X100876Y224995D01*
X100858Y225025D01*
X100847Y225058D01*
X100802Y225123D01*
X100850Y225765D01*
X100847Y225798D01*
X100850Y225879D01*
X100803Y226517D01*
X100834Y226582D01*
X100881Y226658D01*
X100889Y226691D01*
X100904Y226722D01*
X100935Y226887D01*
X101100Y229085D01*
X101097Y229120D01*
X101102Y229154D01*
X101087Y229242D01*
X101079Y229330D01*
X101065Y229362D01*
X101059Y229396D01*
X101024Y229468D01*
X101168Y230095D01*
X101170Y230128D01*
X101185Y230208D01*
X101233Y230846D01*
X101274Y230905D01*
X101331Y230973D01*
X101344Y231005D01*
X101363Y231034D01*
X101419Y231192D01*
X101910Y233341D01*
X101912Y233376D01*
X101922Y233409D01*
X101919Y233498D01*
X101925Y233587D01*
X101916Y233620D01*
X101915Y233655D01*
X101892Y233731D01*
X102127Y234330D01*
X102134Y234362D01*
X102160Y234438D01*
X102303Y235063D01*
X102352Y235115D01*
X102419Y235174D01*
X102436Y235204D01*
X102460Y235229D01*
X102538Y235377D01*
X103344Y237429D01*
X103352Y237463D01*
X103367Y237494D01*
X103377Y237582D01*
X103396Y237669D01*
X103392Y237704D01*
X103396Y237738D01*
X103385Y237817D01*
X103707Y238374D01*
X103718Y238405D01*
X103756Y238476D01*
X103990Y239072D01*
X104047Y239117D01*
X104121Y239165D01*
X104143Y239192D01*
X104170Y239213D01*
X104270Y239348D01*
X105372Y241257D01*
X105385Y241289D01*
X105404Y241318D01*
X105428Y241404D01*
X105459Y241487D01*
X105461Y241522D01*
X105470Y241555D01*
X105470Y241634D01*
X105871Y242137D01*
X105887Y242166D01*
X105935Y242232D01*
X106256Y242786D01*
X106318Y242821D01*
X106399Y242858D01*
X106425Y242881D01*
X106455Y242898D01*
X106573Y243017D01*
X107948Y244740D01*
X107965Y244770D01*
X107989Y244796D01*
X108025Y244877D01*
X108068Y244955D01*
X108075Y244989D01*
X108089Y245020D01*
X108101Y245099D01*
X108573Y245536D01*
X108593Y245562D01*
X108650Y245620D01*
X109050Y246120D01*
X109116Y246146D01*
X109202Y246170D01*
X109231Y246190D01*
X109263Y246202D01*
X109398Y246302D01*
X111014Y247800D01*
X111035Y247828D01*
X111063Y247849D01*
X111111Y247924D01*
X111165Y247995D01*
X111177Y248027D01*
X111195Y248056D01*
X111219Y248132D01*
X111751Y248495D01*
X111775Y248518D01*
X111840Y248566D01*
X112309Y249001D01*
X112379Y249016D01*
X112467Y249027D01*
X112499Y249042D01*
X112533Y249050D01*
X112681Y249128D01*
X114406Y250304D01*
X114451Y250347D01*
X114503Y250383D01*
X114540Y250431D01*
X114584Y250473D01*
X114606Y250515D01*
X115230Y250875D01*
X115245Y250888D01*
X115264Y250896D01*
X115340Y250965D01*
X115420Y251031D01*
X115431Y251048D01*
X115446Y251061D01*
X115496Y251151D01*
X115551Y251239D01*
X115556Y251259D01*
X115565Y251276D01*
X115584Y251377D01*
X115609Y251478D01*
X115607Y251498D01*
X115610Y251518D01*
X115596Y251620D01*
X115587Y251723D01*
X115579Y251741D01*
X115576Y251761D01*
X115509Y251915D01*
X86877Y301505D01*
X86834Y301558D01*
X86800Y301616D01*
X86757Y301652D01*
X86721Y301696D01*
X86664Y301731D01*
X86613Y301775D01*
X86560Y301797D01*
X86513Y301826D01*
X86447Y301842D01*
X86384Y301867D01*
X86306Y301876D01*
X86274Y301884D01*
X86253Y301882D01*
X86218Y301886D01*
X29817Y301886D01*
X29704Y301867D01*
X29591Y301852D01*
X29583Y301848D01*
X29574Y301846D01*
X29473Y301793D01*
X29371Y301741D01*
X29365Y301735D01*
X29357Y301731D01*
X29278Y301648D01*
X29198Y301567D01*
X29194Y301559D01*
X29188Y301553D01*
X29139Y301449D01*
X29089Y301346D01*
X29087Y301336D01*
X29084Y301330D01*
X29081Y301307D01*
X29058Y301182D01*
X29027Y300765D01*
X29029Y300744D01*
X29025Y300708D01*
X29025Y299920D01*
X29019Y299912D01*
X29001Y299852D01*
X28973Y299795D01*
X28956Y299708D01*
X28947Y299677D01*
X28947Y299659D01*
X28942Y299630D01*
X28786Y297551D01*
X28789Y297517D01*
X28784Y297482D01*
X28800Y297395D01*
X28807Y297306D01*
X28821Y297274D01*
X28828Y297240D01*
X28862Y297169D01*
X28719Y296541D01*
X28717Y296508D01*
X28702Y296429D01*
X28654Y295790D01*
X28613Y295731D01*
X28556Y295663D01*
X28543Y295631D01*
X28524Y295603D01*
X28468Y295444D01*
X27978Y293297D01*
X27976Y293263D01*
X27966Y293230D01*
X27969Y293141D01*
X27963Y293052D01*
X27972Y293018D01*
X27973Y292984D01*
X27997Y292908D01*
X27762Y292309D01*
X27755Y292277D01*
X27728Y292200D01*
X27586Y291576D01*
X27536Y291524D01*
X27470Y291465D01*
X27452Y291435D01*
X27428Y291409D01*
X27350Y291261D01*
X26546Y289211D01*
X26539Y289177D01*
X26524Y289146D01*
X26513Y289058D01*
X26494Y288971D01*
X26498Y288936D01*
X26494Y288902D01*
X26506Y288823D01*
X26184Y288266D01*
X26172Y288235D01*
X26135Y288163D01*
X25901Y287567D01*
X25844Y287523D01*
X25770Y287475D01*
X25748Y287448D01*
X25721Y287427D01*
X25621Y287291D01*
X24520Y285384D01*
X24508Y285352D01*
X24489Y285323D01*
X24465Y285238D01*
X24433Y285154D01*
X24432Y285120D01*
X24423Y285086D01*
X24423Y285007D01*
X24022Y284504D01*
X24005Y284475D01*
X23957Y284410D01*
X23637Y283855D01*
X23575Y283820D01*
X23494Y283783D01*
X23469Y283760D01*
X23438Y283743D01*
X23320Y283624D01*
X21947Y281902D01*
X21930Y281872D01*
X21907Y281847D01*
X21870Y281765D01*
X21827Y281688D01*
X21820Y281654D01*
X21806Y281622D01*
X21794Y281543D01*
X21323Y281106D01*
X21302Y281080D01*
X21245Y281022D01*
X20846Y280521D01*
X20779Y280496D01*
X20693Y280472D01*
X20665Y280452D01*
X20632Y280440D01*
X20498Y280340D01*
X18883Y278842D01*
X18862Y278815D01*
X18835Y278793D01*
X18787Y278718D01*
X18733Y278648D01*
X18721Y278615D01*
X18702Y278586D01*
X18679Y278510D01*
X18147Y278148D01*
X18123Y278125D01*
X18058Y278077D01*
X17589Y277641D01*
X17519Y277626D01*
X17431Y277615D01*
X17399Y277600D01*
X17366Y277592D01*
X17217Y277514D01*
X15398Y276273D01*
X15373Y276249D01*
X15343Y276232D01*
X15284Y276165D01*
X15220Y276104D01*
X15204Y276073D01*
X15181Y276047D01*
X15147Y275975D01*
X14567Y275696D01*
X14540Y275677D01*
X14468Y275639D01*
X13939Y275279D01*
X13867Y275274D01*
X13779Y275276D01*
X13745Y275266D01*
X13711Y275264D01*
X13553Y275208D01*
X11569Y274252D01*
X11540Y274232D01*
X11508Y274220D01*
X11440Y274162D01*
X11367Y274111D01*
X11347Y274083D01*
X11320Y274061D01*
X11276Y273995D01*
X10661Y273806D01*
X10631Y273791D01*
X10555Y273764D01*
X9978Y273486D01*
X9906Y273492D01*
X9819Y273508D01*
X9784Y273502D01*
X9750Y273505D01*
X9585Y273474D01*
X7481Y272825D01*
X7450Y272809D01*
X7416Y272802D01*
X7340Y272755D01*
X7261Y272715D01*
X7236Y272691D01*
X7207Y272673D01*
X7153Y272614D01*
X6516Y272518D01*
X6485Y272508D01*
X6405Y272493D01*
X5793Y272304D01*
X5724Y272321D01*
X5639Y272349D01*
X5605Y272349D01*
X5571Y272357D01*
X5403Y272351D01*
X3226Y272023D01*
X3193Y272012D01*
X3158Y272009D01*
X3077Y271974D01*
X2992Y271947D01*
X2964Y271926D01*
X2932Y271913D01*
X2801Y271808D01*
X2712Y271719D01*
X2670Y271661D01*
X2668Y271659D01*
X2666Y271660D01*
X2663Y271664D01*
X2564Y271726D01*
X2463Y271791D01*
X2458Y271792D01*
X2454Y271795D01*
X2340Y271822D01*
X2225Y271851D01*
X2220Y271850D01*
X2215Y271851D01*
X2047Y271845D01*
X1480Y271759D01*
X1413Y271786D01*
X1334Y271827D01*
X1300Y271832D01*
X1268Y271845D01*
X1101Y271863D01*
X-1101Y271863D01*
X-1135Y271858D01*
X-1170Y271860D01*
X-1256Y271838D01*
X-1344Y271824D01*
X-1374Y271807D01*
X-1408Y271799D01*
X-1477Y271759D01*
X-2113Y271855D01*
X-2146Y271854D01*
X-2227Y271863D01*
X-2867Y271863D01*
X-2929Y271900D01*
X-3001Y271952D01*
X-3034Y271962D01*
X-3064Y271979D01*
X-3226Y272023D01*
X-5403Y272351D01*
X-5438Y272350D01*
X-5472Y272358D01*
X-5560Y272349D01*
X-5649Y272348D01*
X-5682Y272336D01*
X-5717Y272333D01*
X-5790Y272303D01*
X-6405Y272493D01*
X-6438Y272498D01*
X-6516Y272518D01*
X-7150Y272614D01*
X-7205Y272659D01*
X-7269Y272721D01*
X-7300Y272736D01*
X-7327Y272758D01*
X-7481Y272825D01*
X-9585Y273474D01*
X-9619Y273479D01*
X-9652Y273491D01*
X-9741Y273495D01*
X-9829Y273507D01*
X-9863Y273501D01*
X-9897Y273503D01*
X-9975Y273485D01*
X-10555Y273764D01*
X-10586Y273773D01*
X-10661Y273806D01*
X-11273Y273994D01*
X-11321Y274047D01*
X-11374Y274118D01*
X-11403Y274138D01*
X-11426Y274163D01*
X-11569Y274252D01*
X-13553Y275208D01*
X-13586Y275218D01*
X-13616Y275235D01*
X-13703Y275252D01*
X-13788Y275277D01*
X-13823Y275276D01*
X-13857Y275283D01*
X-13936Y275277D01*
X-14468Y275639D01*
X-14498Y275653D01*
X-14567Y275696D01*
X-15144Y275974D01*
X-15183Y276034D01*
X-15226Y276112D01*
X-15251Y276135D01*
X-15271Y276164D01*
X-15398Y276273D01*
X-17217Y277514D01*
X-17249Y277528D01*
X-17276Y277550D01*
X-17360Y277580D01*
X-17440Y277618D01*
X-17475Y277621D01*
X-17507Y277633D01*
X-17587Y277639D01*
X-18058Y278077D01*
X-18086Y278095D01*
X-18147Y278148D01*
X-18676Y278508D01*
X-18707Y278573D01*
X-18737Y278657D01*
X-18759Y278684D01*
X-18774Y278715D01*
X-18883Y278842D01*
X-19328Y279255D01*
X-19333Y279258D01*
X-19336Y279262D01*
X-19436Y279326D01*
X-19533Y279391D01*
X-19538Y279392D01*
X-19543Y279395D01*
X-19657Y279424D01*
X-19771Y279454D01*
X-19776Y279454D01*
X-19782Y279455D01*
X-19898Y279446D01*
X-20016Y279439D01*
X-20021Y279437D01*
X-20027Y279436D01*
X-20134Y279391D01*
X-20244Y279346D01*
X-20248Y279342D01*
X-20253Y279340D01*
X-20384Y279235D01*
X-46449Y253171D01*
X-46502Y253097D01*
X-46561Y253027D01*
X-46574Y252997D01*
X-46592Y252971D01*
X-46619Y252884D01*
X-46653Y252799D01*
X-46658Y252758D01*
X-46665Y252736D01*
X-46664Y252704D01*
X-46672Y252632D01*
X-46672Y236243D01*
X-46664Y236196D01*
X-46666Y236148D01*
X-46644Y236075D01*
X-46632Y236000D01*
X-46610Y235958D01*
X-46596Y235912D01*
X-46552Y235850D01*
X-46517Y235783D01*
X-46482Y235750D01*
X-46455Y235711D01*
X-46394Y235666D01*
X-46339Y235614D01*
X-46295Y235593D01*
X-46256Y235565D01*
X-46184Y235542D01*
X-46116Y235510D01*
X-46068Y235505D01*
X-46022Y235490D01*
X-45946Y235491D01*
X-45871Y235483D01*
X-45824Y235493D01*
X-45776Y235494D01*
X-45705Y235519D01*
X-45631Y235535D01*
X-45590Y235560D01*
X-45544Y235576D01*
X-45485Y235623D01*
X-45420Y235661D01*
X-45388Y235698D01*
X-45351Y235727D01*
X-45274Y235831D01*
X-45260Y235848D01*
X-45257Y235854D01*
X-45251Y235863D01*
X-42424Y240759D01*
X-35106Y242720D01*
X-28546Y238932D01*
X-26585Y231615D01*
X-30373Y225054D01*
X-37691Y223093D01*
X-44251Y226881D01*
X-45175Y230329D01*
X-45185Y230351D01*
X-45189Y230375D01*
X-45236Y230463D01*
X-45276Y230554D01*
X-45293Y230571D01*
X-45304Y230592D01*
X-45376Y230661D01*
X-45444Y230734D01*
X-45465Y230745D01*
X-45482Y230762D01*
X-45573Y230804D01*
X-45660Y230851D01*
X-45684Y230855D01*
X-45706Y230865D01*
X-45804Y230876D01*
X-45902Y230894D01*
X-45926Y230890D01*
X-45950Y230893D01*
X-46047Y230872D01*
X-46145Y230856D01*
X-46167Y230845D01*
X-46190Y230840D01*
X-46276Y230789D01*
X-46364Y230744D01*
X-46381Y230727D01*
X-46401Y230714D01*
X-46466Y230639D01*
X-46535Y230567D01*
X-46546Y230546D01*
X-46561Y230527D01*
X-46599Y230435D01*
X-46641Y230345D01*
X-46644Y230321D01*
X-46653Y230299D01*
X-46672Y230132D01*
X-46672Y220507D01*
X-46661Y220441D01*
X-46660Y220373D01*
X-46641Y220320D01*
X-46632Y220265D01*
X-46600Y220205D01*
X-46578Y220141D01*
X-46543Y220097D01*
X-46517Y220047D01*
X-46468Y220001D01*
X-46426Y219947D01*
X-46362Y219901D01*
X-46339Y219878D01*
X-46320Y219869D01*
X-46291Y219848D01*
X-41246Y216935D01*
X-39285Y209618D01*
X-43073Y203057D01*
X-50391Y201096D01*
X-56951Y204884D01*
X-58912Y212202D01*
X-55124Y218762D01*
X-52317Y219514D01*
X-52278Y219532D01*
X-52235Y219542D01*
X-52166Y219583D01*
X-52093Y219616D01*
X-52061Y219645D01*
X-52024Y219668D01*
X-51972Y219729D01*
X-51913Y219783D01*
X-51892Y219821D01*
X-51864Y219855D01*
X-51834Y219929D01*
X-51796Y219999D01*
X-51788Y220042D01*
X-51772Y220083D01*
X-51756Y220228D01*
X-51753Y220241D01*
X-51754Y220245D01*
X-51753Y220250D01*
X-51753Y255052D01*
X-50042Y256764D01*
X-23799Y283007D01*
X-23773Y283042D01*
X-23741Y283072D01*
X-23702Y283142D01*
X-23655Y283206D01*
X-23643Y283248D01*
X-23621Y283287D01*
X-23607Y283365D01*
X-23583Y283441D01*
X-23584Y283485D01*
X-23576Y283528D01*
X-23586Y283595D01*
X-23585Y283599D01*
X-23587Y283608D01*
X-23589Y283687D01*
X-23605Y283728D01*
X-23611Y283772D01*
X-23635Y283828D01*
X-23638Y283839D01*
X-23647Y283855D01*
X-23669Y283905D01*
X-23674Y283918D01*
X-23676Y283921D01*
X-23678Y283926D01*
X-23958Y284410D01*
X-23978Y284435D01*
X-24022Y284504D01*
X-24421Y285004D01*
X-24431Y285075D01*
X-24435Y285164D01*
X-24448Y285196D01*
X-24453Y285231D01*
X-24520Y285384D01*
X-25621Y287291D01*
X-25643Y287318D01*
X-25658Y287349D01*
X-25721Y287413D01*
X-25777Y287482D01*
X-25806Y287500D01*
X-25831Y287525D01*
X-25900Y287564D01*
X-26135Y288163D01*
X-26151Y288192D01*
X-26184Y288266D01*
X-26504Y288821D01*
X-26504Y288892D01*
X-26495Y288981D01*
X-26502Y289015D01*
X-26502Y289049D01*
X-26546Y289211D01*
X-27350Y291261D01*
X-27368Y291291D01*
X-27378Y291324D01*
X-27430Y291396D01*
X-27476Y291472D01*
X-27502Y291495D01*
X-27523Y291523D01*
X-27585Y291573D01*
X-27728Y292200D01*
X-27740Y292231D01*
X-27762Y292309D01*
X-27995Y292905D01*
X-27984Y292976D01*
X-27962Y293062D01*
X-27965Y293096D01*
X-27959Y293131D01*
X-27978Y293297D01*
X-28468Y295444D01*
X-28481Y295476D01*
X-28487Y295510D01*
X-28528Y295590D01*
X-28561Y295672D01*
X-28584Y295698D01*
X-28600Y295729D01*
X-28654Y295787D01*
X-28702Y296429D01*
X-28710Y296461D01*
X-28719Y296541D01*
X-28861Y297166D01*
X-28840Y297234D01*
X-28805Y297316D01*
X-28803Y297351D01*
X-28792Y297384D01*
X-28786Y297551D01*
X-28942Y299630D01*
X-28957Y299692D01*
X-28962Y299755D01*
X-28985Y299810D01*
X-29000Y299869D01*
X-29025Y299909D01*
X-29025Y300708D01*
X-29028Y300729D01*
X-29027Y300765D01*
X-29058Y301182D01*
X-29085Y301293D01*
X-29109Y301404D01*
X-29114Y301412D01*
X-29116Y301421D01*
X-29177Y301518D01*
X-29235Y301616D01*
X-29242Y301621D01*
X-29247Y301629D01*
X-29335Y301701D01*
X-29422Y301775D01*
X-29431Y301779D01*
X-29437Y301784D01*
X-29544Y301825D01*
X-29650Y301867D01*
X-29661Y301869D01*
X-29668Y301871D01*
X-29691Y301872D01*
X-29817Y301886D01*
X-86980Y301886D01*
X-87046Y301875D01*
X-87114Y301874D01*
X-87167Y301855D01*
X-87223Y301846D01*
X-87282Y301815D01*
X-87346Y301792D01*
X-87390Y301757D01*
X-87440Y301731D01*
X-87486Y301682D01*
X-87540Y301640D01*
X-87587Y301577D01*
X-87609Y301553D01*
X-87618Y301534D01*
X-87639Y301505D01*
X-116058Y252282D01*
X-116099Y252175D01*
X-116142Y252069D01*
X-116142Y252060D01*
X-116145Y252052D01*
X-116150Y251937D01*
X-116156Y251824D01*
X-116154Y251815D01*
X-116154Y251807D01*
X-116122Y251696D01*
X-116092Y251586D01*
X-116087Y251579D01*
X-116085Y251571D01*
X-116018Y251476D01*
X-115955Y251382D01*
X-115947Y251375D01*
X-115943Y251369D01*
X-115925Y251356D01*
X-115828Y251273D01*
X-115346Y250945D01*
X-115336Y250940D01*
X-115332Y250936D01*
X-115322Y250932D01*
X-115298Y250914D01*
X-114615Y250520D01*
X-114611Y250511D01*
X-114568Y250465D01*
X-114533Y250413D01*
X-114466Y250355D01*
X-114444Y250331D01*
X-114428Y250323D01*
X-114406Y250304D01*
X-112681Y249128D01*
X-112649Y249114D01*
X-112622Y249092D01*
X-112539Y249062D01*
X-112458Y249025D01*
X-112423Y249021D01*
X-112391Y249009D01*
X-112312Y249003D01*
X-111840Y248566D01*
X-111812Y248548D01*
X-111751Y248495D01*
X-111221Y248134D01*
X-111191Y248069D01*
X-111160Y247986D01*
X-111139Y247959D01*
X-111124Y247927D01*
X-111014Y247800D01*
X-109398Y246302D01*
X-109369Y246283D01*
X-109345Y246257D01*
X-109267Y246215D01*
X-109193Y246166D01*
X-109160Y246157D01*
X-109129Y246140D01*
X-109052Y246123D01*
X-108650Y245620D01*
X-108626Y245598D01*
X-108573Y245536D01*
X-108103Y245101D01*
X-108083Y245032D01*
X-108065Y244945D01*
X-108048Y244915D01*
X-108038Y244882D01*
X-107948Y244740D01*
X-106573Y243017D01*
X-106548Y242994D01*
X-106528Y242965D01*
X-106457Y242912D01*
X-106391Y242852D01*
X-106359Y242838D01*
X-106331Y242818D01*
X-106257Y242789D01*
X-105935Y242232D01*
X-105914Y242206D01*
X-105871Y242137D01*
X-105472Y241637D01*
X-105462Y241566D01*
X-105457Y241477D01*
X-105445Y241445D01*
X-105440Y241411D01*
X-105372Y241257D01*
X-104270Y239348D01*
X-104248Y239321D01*
X-104232Y239290D01*
X-104170Y239227D01*
X-104114Y239158D01*
X-104084Y239140D01*
X-104060Y239115D01*
X-103991Y239075D01*
X-103756Y238476D01*
X-103739Y238448D01*
X-103707Y238374D01*
X-103386Y237819D01*
X-103387Y237748D01*
X-103396Y237659D01*
X-103388Y237625D01*
X-103388Y237591D01*
X-103344Y237429D01*
X-102538Y235377D01*
X-102521Y235347D01*
X-102510Y235314D01*
X-102458Y235242D01*
X-102413Y235166D01*
X-102386Y235143D01*
X-102366Y235115D01*
X-102304Y235066D01*
X-102160Y234438D01*
X-102148Y234408D01*
X-102127Y234330D01*
X-101893Y233734D01*
X-101904Y233663D01*
X-101926Y233577D01*
X-101923Y233542D01*
X-101929Y233508D01*
X-101910Y233341D01*
X-101419Y231192D01*
X-101405Y231160D01*
X-101400Y231126D01*
X-101359Y231047D01*
X-101326Y230965D01*
X-101303Y230938D01*
X-101287Y230907D01*
X-101233Y230849D01*
X-101185Y230208D01*
X-101177Y230176D01*
X-101168Y230095D01*
X-101025Y229471D01*
X-101047Y229403D01*
X-101081Y229320D01*
X-101084Y229286D01*
X-101094Y229253D01*
X-101100Y229085D01*
X-100935Y226887D01*
X-100927Y226854D01*
X-100927Y226819D01*
X-100898Y226735D01*
X-100877Y226648D01*
X-100858Y226619D01*
X-100847Y226586D01*
X-100802Y226521D01*
X-100850Y225879D01*
X-100847Y225846D01*
X-100850Y225765D01*
X-100835Y225557D01*
X-100808Y225446D01*
X-100784Y225335D01*
X-100779Y225327D01*
X-100777Y225318D01*
X-100716Y225222D01*
X-100657Y225124D01*
X-100651Y225118D01*
X-100646Y225110D01*
X-100557Y225038D01*
X-100470Y224964D01*
X-100462Y224960D01*
X-100455Y224955D01*
X-100349Y224915D01*
X-100242Y224872D01*
X-100231Y224871D01*
X-100225Y224868D01*
X-100202Y224867D01*
X-100076Y224853D01*
X-94146Y224853D01*
X-66742Y197449D01*
X-66687Y197410D01*
X-66639Y197363D01*
X-66588Y197338D01*
X-66542Y197306D01*
X-66478Y197286D01*
X-66417Y197257D01*
X-66361Y197250D01*
X-66307Y197233D01*
X-66240Y197235D01*
X-66173Y197227D01*
X-66094Y197239D01*
X-66061Y197240D01*
X-66042Y197247D01*
X-66007Y197252D01*
X-60506Y198726D01*
X-53946Y194938D01*
X-51985Y187620D01*
X-55773Y181060D01*
X-63091Y179099D01*
X-69651Y182887D01*
X-71612Y190205D01*
X-70100Y192823D01*
X-70085Y192864D01*
X-70061Y192901D01*
X-70041Y192978D01*
X-70013Y193053D01*
X-70012Y193097D01*
X-70001Y193139D01*
X-70007Y193219D01*
X-70004Y193299D01*
X-70017Y193341D01*
X-70020Y193385D01*
X-70051Y193458D01*
X-70074Y193535D01*
X-70099Y193571D01*
X-70116Y193611D01*
X-70207Y193725D01*
X-70215Y193736D01*
X-70218Y193738D01*
X-70221Y193742D01*
X-96028Y219549D01*
X-96102Y219602D01*
X-96171Y219661D01*
X-96202Y219674D01*
X-96228Y219692D01*
X-96315Y219719D01*
X-96400Y219753D01*
X-96440Y219758D01*
X-96463Y219765D01*
X-96495Y219764D01*
X-96566Y219772D01*
X-100963Y219772D01*
X-101020Y219762D01*
X-101078Y219763D01*
X-101141Y219743D01*
X-101205Y219732D01*
X-101257Y219705D01*
X-101312Y219687D01*
X-101365Y219648D01*
X-101423Y219617D01*
X-101463Y219575D01*
X-101509Y219540D01*
X-101547Y219486D01*
X-101592Y219439D01*
X-101617Y219386D01*
X-101650Y219338D01*
X-101682Y219244D01*
X-101696Y219216D01*
X-101697Y219201D01*
X-101705Y219180D01*
X-101905Y218302D01*
X-101907Y218267D01*
X-101917Y218234D01*
X-101915Y218145D01*
X-101920Y218056D01*
X-101911Y218023D01*
X-101910Y217988D01*
X-101886Y217913D01*
X-102121Y217313D01*
X-102128Y217281D01*
X-102155Y217204D01*
X-102297Y216580D01*
X-102346Y216528D01*
X-102413Y216469D01*
X-102430Y216439D01*
X-102454Y216414D01*
X-102532Y216265D01*
X-103337Y214213D01*
X-103344Y214179D01*
X-103359Y214148D01*
X-103370Y214060D01*
X-103389Y213973D01*
X-103385Y213938D01*
X-103389Y213904D01*
X-103377Y213826D01*
X-103698Y213268D01*
X-103710Y213237D01*
X-103748Y213165D01*
X-103982Y212569D01*
X-104038Y212525D01*
X-104113Y212477D01*
X-104134Y212450D01*
X-104162Y212428D01*
X-104261Y212293D01*
X-105362Y210384D01*
X-105375Y210351D01*
X-105394Y210323D01*
X-105418Y210237D01*
X-105449Y210154D01*
X-105451Y210119D01*
X-105460Y210086D01*
X-105460Y210006D01*
X-105861Y209503D01*
X-105877Y209474D01*
X-105925Y209409D01*
X-106245Y208854D01*
X-106307Y208819D01*
X-106388Y208782D01*
X-106414Y208759D01*
X-106444Y208742D01*
X-106562Y208623D01*
X-107936Y206899D01*
X-107953Y206869D01*
X-107976Y206843D01*
X-108013Y206762D01*
X-108056Y206684D01*
X-108063Y206650D01*
X-108077Y206619D01*
X-108088Y206540D01*
X-108560Y206102D01*
X-108580Y206076D01*
X-108637Y206019D01*
X-109037Y205518D01*
X-109103Y205492D01*
X-109189Y205468D01*
X-109218Y205449D01*
X-109250Y205436D01*
X-109385Y205336D01*
X-111000Y203837D01*
X-111021Y203809D01*
X-111048Y203788D01*
X-111096Y203713D01*
X-111151Y203642D01*
X-111162Y203610D01*
X-111181Y203580D01*
X-111204Y203505D01*
X-111736Y203142D01*
X-111760Y203119D01*
X-111825Y203071D01*
X-112294Y202635D01*
X-112364Y202620D01*
X-112453Y202609D01*
X-112484Y202594D01*
X-112518Y202586D01*
X-112666Y202508D01*
X-114487Y201265D01*
X-114512Y201241D01*
X-114542Y201224D01*
X-114600Y201157D01*
X-114665Y201096D01*
X-114681Y201065D01*
X-114704Y201039D01*
X-114738Y200967D01*
X-115318Y200688D01*
X-115345Y200669D01*
X-115416Y200631D01*
X-115945Y200270D01*
X-116017Y200265D01*
X-116106Y200267D01*
X-116139Y200257D01*
X-116174Y200255D01*
X-116332Y200199D01*
X-118317Y199242D01*
X-118346Y199222D01*
X-118378Y199210D01*
X-118446Y199152D01*
X-118519Y199101D01*
X-118539Y199073D01*
X-118566Y199051D01*
X-118610Y198985D01*
X-119225Y198795D01*
X-119255Y198780D01*
X-119331Y198754D01*
X-119908Y198475D01*
X-119980Y198481D01*
X-120067Y198497D01*
X-120101Y198492D01*
X-120136Y198495D01*
X-120301Y198463D01*
X-122407Y197813D01*
X-122438Y197797D01*
X-122472Y197789D01*
X-122548Y197743D01*
X-122627Y197703D01*
X-122651Y197679D01*
X-122681Y197660D01*
X-122735Y197602D01*
X-123371Y197506D01*
X-123403Y197496D01*
X-123482Y197481D01*
X-124094Y197292D01*
X-124164Y197308D01*
X-124248Y197336D01*
X-124283Y197336D01*
X-124317Y197344D01*
X-124484Y197338D01*
X-126664Y197009D01*
X-126697Y196998D01*
X-126731Y196995D01*
X-126813Y196960D01*
X-126898Y196933D01*
X-126926Y196912D01*
X-126958Y196899D01*
X-127019Y196849D01*
X-127663Y196849D01*
X-127696Y196844D01*
X-127777Y196841D01*
X-128410Y196745D01*
X-128476Y196772D01*
X-128555Y196812D01*
X-128590Y196817D01*
X-128622Y196830D01*
X-128789Y196849D01*
X-130993Y196848D01*
X-131027Y196842D01*
X-131062Y196845D01*
X-131148Y196823D01*
X-131235Y196808D01*
X-131266Y196792D01*
X-131300Y196783D01*
X-131368Y196743D01*
X-132005Y196839D01*
X-132038Y196839D01*
X-132118Y196848D01*
X-132759Y196847D01*
X-132821Y196884D01*
X-132893Y196936D01*
X-132926Y196946D01*
X-132956Y196963D01*
X-133118Y197007D01*
X-135298Y197334D01*
X-135332Y197334D01*
X-135366Y197342D01*
X-135454Y197332D01*
X-135543Y197331D01*
X-135576Y197320D01*
X-135611Y197316D01*
X-135685Y197287D01*
X-136300Y197476D01*
X-136332Y197481D01*
X-136411Y197502D01*
X-137044Y197597D01*
X-137099Y197642D01*
X-137163Y197704D01*
X-137194Y197719D01*
X-137221Y197741D01*
X-137375Y197808D01*
X-139482Y198457D01*
X-139516Y198462D01*
X-139548Y198474D01*
X-139637Y198478D01*
X-139725Y198490D01*
X-139759Y198484D01*
X-139794Y198486D01*
X-139871Y198468D01*
X-140451Y198747D01*
X-140483Y198756D01*
X-140557Y198788D01*
X-141169Y198977D01*
X-141218Y199030D01*
X-141271Y199101D01*
X-141300Y199120D01*
X-141323Y199146D01*
X-141466Y199235D01*
X-143346Y200140D01*
X-143407Y200158D01*
X-143464Y200185D01*
X-143524Y200192D01*
X-143582Y200209D01*
X-143630Y200207D01*
X-144322Y200607D01*
X-144341Y200614D01*
X-144372Y200633D01*
X-144915Y200895D01*
X-145024Y200927D01*
X-145133Y200962D01*
X-145142Y200961D01*
X-145151Y200964D01*
X-145265Y200960D01*
X-145379Y200958D01*
X-145388Y200955D01*
X-145397Y200955D01*
X-145504Y200914D01*
X-145611Y200876D01*
X-145618Y200870D01*
X-145627Y200867D01*
X-145716Y200794D01*
X-145805Y200724D01*
X-145811Y200716D01*
X-145817Y200711D01*
X-145829Y200691D01*
X-145904Y200589D01*
X-174240Y151511D01*
X-174264Y151447D01*
X-174297Y151388D01*
X-174307Y151333D01*
X-174327Y151281D01*
X-174330Y151213D01*
X-174342Y151147D01*
X-174334Y151091D01*
X-174336Y151035D01*
X-174317Y150970D01*
X-174308Y150903D01*
X-174276Y150831D01*
X-174267Y150799D01*
X-174255Y150782D01*
X-174240Y150749D01*
X-145617Y101174D01*
X-145545Y101086D01*
X-145475Y100995D01*
X-145467Y100990D01*
X-145461Y100984D01*
X-145364Y100923D01*
X-145269Y100860D01*
X-145261Y100858D01*
X-145253Y100853D01*
X-145142Y100826D01*
X-145032Y100797D01*
X-145023Y100797D01*
X-145014Y100795D01*
X-144900Y100805D01*
X-144786Y100813D01*
X-144776Y100816D01*
X-144769Y100817D01*
X-144748Y100826D01*
X-144628Y100869D01*
X-144372Y100992D01*
X-144355Y101004D01*
X-144322Y101018D01*
X-143639Y101412D01*
X-143629Y101411D01*
X-143568Y101425D01*
X-143505Y101430D01*
X-143421Y101459D01*
X-143389Y101466D01*
X-143374Y101475D01*
X-143346Y101485D01*
X-141466Y102390D01*
X-141437Y102410D01*
X-141405Y102423D01*
X-141337Y102480D01*
X-141264Y102531D01*
X-141244Y102559D01*
X-141217Y102582D01*
X-141172Y102647D01*
X-140557Y102837D01*
X-140528Y102851D01*
X-140451Y102878D01*
X-139874Y103156D01*
X-139803Y103150D01*
X-139715Y103134D01*
X-139681Y103140D01*
X-139647Y103137D01*
X-139482Y103168D01*
X-137375Y103817D01*
X-137344Y103833D01*
X-137310Y103840D01*
X-137235Y103887D01*
X-137155Y103927D01*
X-137130Y103951D01*
X-137101Y103969D01*
X-137047Y104028D01*
X-136411Y104123D01*
X-136379Y104133D01*
X-136300Y104149D01*
X-135688Y104337D01*
X-135618Y104321D01*
X-135534Y104292D01*
X-135499Y104292D01*
X-135465Y104284D01*
X-135298Y104291D01*
X-133118Y104618D01*
X-133085Y104629D01*
X-133050Y104632D01*
X-132968Y104667D01*
X-132884Y104694D01*
X-132856Y104714D01*
X-132824Y104728D01*
X-132762Y104778D01*
X-132118Y104777D01*
X-132086Y104783D01*
X-132005Y104786D01*
X-131372Y104881D01*
X-131305Y104854D01*
X-131226Y104814D01*
X-131192Y104809D01*
X-131159Y104796D01*
X-130993Y104777D01*
X-128789Y104776D01*
X-128754Y104782D01*
X-128720Y104779D01*
X-128634Y104802D01*
X-128546Y104816D01*
X-128515Y104832D01*
X-128482Y104841D01*
X-128413Y104881D01*
X-127777Y104784D01*
X-127744Y104785D01*
X-127663Y104776D01*
X-127202Y104776D01*
X-127182Y104779D01*
X-127163Y104777D01*
X-127062Y104799D01*
X-126959Y104815D01*
X-126942Y104825D01*
X-126922Y104829D01*
X-126833Y104882D01*
X-126742Y104931D01*
X-126728Y104945D01*
X-126711Y104955D01*
X-126644Y105034D01*
X-126573Y105109D01*
X-126564Y105127D01*
X-126551Y105142D01*
X-126513Y105238D01*
X-126469Y105332D01*
X-126467Y105352D01*
X-126459Y105370D01*
X-126441Y105537D01*
X-126441Y124689D01*
X-92767Y158362D01*
X-86960Y158362D01*
X-86870Y158377D01*
X-86779Y158384D01*
X-86749Y158397D01*
X-86718Y158402D01*
X-86637Y158445D01*
X-86553Y158480D01*
X-86521Y158506D01*
X-86500Y158517D01*
X-86478Y158540D01*
X-86422Y158585D01*
X-83035Y161972D01*
X-82996Y162027D01*
X-82949Y162075D01*
X-82924Y162126D01*
X-82892Y162172D01*
X-82872Y162236D01*
X-82843Y162297D01*
X-82836Y162353D01*
X-82819Y162407D01*
X-82821Y162474D01*
X-82813Y162541D01*
X-82825Y162620D01*
X-82826Y162653D01*
X-82833Y162672D01*
X-82838Y162707D01*
X-84312Y168207D01*
X-80524Y174768D01*
X-73206Y176729D01*
X-66646Y172941D01*
X-64685Y165623D01*
X-68473Y159063D01*
X-75791Y157102D01*
X-78409Y158614D01*
X-78450Y158629D01*
X-78487Y158653D01*
X-78560Y158671D01*
X-78620Y158696D01*
X-78628Y158697D01*
X-78639Y158701D01*
X-78680Y158702D01*
X-78685Y158703D01*
X-78725Y158713D01*
X-78756Y158711D01*
X-78787Y158714D01*
X-78791Y158714D01*
X-78830Y158708D01*
X-78885Y158710D01*
X-78927Y158697D01*
X-78971Y158694D01*
X-79006Y158679D01*
X-79034Y158674D01*
X-79071Y158655D01*
X-79121Y158640D01*
X-79157Y158615D01*
X-79197Y158598D01*
X-79232Y158570D01*
X-79252Y158559D01*
X-79272Y158537D01*
X-79311Y158507D01*
X-79322Y158499D01*
X-79324Y158496D01*
X-79328Y158493D01*
X-83419Y154402D01*
X-83488Y154306D01*
X-83559Y154210D01*
X-83560Y154206D01*
X-83562Y154202D01*
X-83597Y154090D01*
X-83634Y153975D01*
X-83633Y153971D01*
X-83635Y153967D01*
X-83632Y153849D01*
X-83630Y153730D01*
X-83628Y153726D01*
X-83628Y153721D01*
X-83587Y153609D01*
X-83548Y153498D01*
X-83545Y153494D01*
X-83544Y153490D01*
X-83470Y153398D01*
X-83396Y153304D01*
X-83392Y153301D01*
X-83390Y153298D01*
X-83379Y153291D01*
X-83261Y153205D01*
X-79346Y150944D01*
X-77385Y143626D01*
X-81173Y137066D01*
X-88491Y135105D01*
X-95051Y138893D01*
X-96823Y145505D01*
X-96862Y145592D01*
X-96895Y145682D01*
X-96913Y145704D01*
X-96924Y145729D01*
X-96989Y145799D01*
X-97049Y145874D01*
X-97072Y145889D01*
X-97092Y145910D01*
X-97175Y145955D01*
X-97256Y146007D01*
X-97283Y146013D01*
X-97308Y146027D01*
X-97402Y146043D01*
X-97494Y146067D01*
X-97522Y146064D01*
X-97550Y146069D01*
X-97644Y146055D01*
X-97739Y146048D01*
X-97765Y146036D01*
X-97793Y146032D01*
X-97878Y145989D01*
X-97966Y145951D01*
X-97993Y145929D01*
X-98012Y145920D01*
X-98035Y145896D01*
X-98097Y145846D01*
X-121136Y122807D01*
X-121189Y122733D01*
X-121249Y122663D01*
X-121261Y122633D01*
X-121280Y122607D01*
X-121307Y122520D01*
X-121341Y122435D01*
X-121345Y122394D01*
X-121352Y122372D01*
X-121351Y122340D01*
X-121359Y122268D01*
X-121359Y104050D01*
X-121355Y104021D01*
X-121357Y103992D01*
X-121335Y103900D01*
X-121320Y103808D01*
X-121306Y103782D01*
X-121299Y103753D01*
X-121248Y103673D01*
X-121204Y103590D01*
X-121183Y103570D01*
X-121167Y103545D01*
X-121094Y103486D01*
X-121026Y103421D01*
X-120999Y103409D01*
X-120976Y103390D01*
X-120823Y103323D01*
X-120301Y103162D01*
X-120266Y103157D01*
X-120234Y103145D01*
X-120145Y103140D01*
X-120057Y103128D01*
X-120023Y103135D01*
X-119988Y103133D01*
X-119911Y103151D01*
X-119331Y102871D01*
X-119300Y102862D01*
X-119225Y102830D01*
X-118613Y102641D01*
X-118565Y102588D01*
X-118511Y102517D01*
X-118483Y102497D01*
X-118459Y102472D01*
X-118317Y102383D01*
X-116332Y101426D01*
X-116299Y101416D01*
X-116268Y101399D01*
X-116181Y101381D01*
X-116096Y101356D01*
X-116061Y101358D01*
X-116027Y101351D01*
X-115948Y101357D01*
X-115416Y100994D01*
X-115393Y100983D01*
X-115377Y100970D01*
X-115356Y100961D01*
X-115318Y100937D01*
X-114741Y100659D01*
X-114701Y100599D01*
X-114659Y100521D01*
X-114633Y100498D01*
X-114614Y100469D01*
X-114487Y100360D01*
X-112666Y99117D01*
X-112634Y99103D01*
X-112607Y99081D01*
X-112524Y99051D01*
X-112443Y99014D01*
X-112408Y99010D01*
X-112376Y98998D01*
X-112297Y98992D01*
X-111825Y98554D01*
X-111798Y98536D01*
X-111736Y98483D01*
X-111207Y98122D01*
X-111177Y98058D01*
X-111146Y97974D01*
X-111125Y97947D01*
X-111110Y97915D01*
X-111000Y97788D01*
X-109385Y96289D01*
X-109356Y96269D01*
X-109332Y96244D01*
X-109254Y96202D01*
X-109180Y96153D01*
X-109147Y96144D01*
X-109116Y96127D01*
X-109039Y96110D01*
X-108637Y95606D01*
X-108613Y95584D01*
X-108560Y95523D01*
X-108091Y95087D01*
X-108070Y95018D01*
X-108053Y94931D01*
X-108035Y94901D01*
X-108025Y94868D01*
X-107936Y94726D01*
X-106562Y93002D01*
X-106537Y92979D01*
X-106517Y92950D01*
X-106446Y92897D01*
X-106380Y92837D01*
X-106348Y92823D01*
X-106320Y92802D01*
X-106246Y92774D01*
X-105925Y92216D01*
X-105904Y92191D01*
X-105861Y92122D01*
X-105462Y91621D01*
X-105452Y91550D01*
X-105447Y91461D01*
X-105435Y91429D01*
X-105430Y91395D01*
X-105362Y91241D01*
X-104261Y89332D01*
X-104239Y89305D01*
X-104224Y89274D01*
X-104161Y89210D01*
X-104105Y89142D01*
X-104076Y89123D01*
X-104052Y89098D01*
X-103983Y89059D01*
X-103748Y88460D01*
X-103731Y88431D01*
X-103698Y88357D01*
X-103378Y87802D01*
X-103379Y87731D01*
X-103388Y87642D01*
X-103380Y87608D01*
X-103381Y87574D01*
X-103337Y87412D01*
X-102532Y85360D01*
X-102515Y85330D01*
X-102504Y85297D01*
X-102452Y85225D01*
X-102407Y85148D01*
X-102380Y85125D01*
X-102360Y85097D01*
X-102298Y85048D01*
X-102155Y84421D01*
X-102143Y84390D01*
X-102121Y84312D01*
X-101888Y83716D01*
X-101899Y83645D01*
X-101921Y83559D01*
X-101918Y83524D01*
X-101924Y83490D01*
X-101905Y83323D01*
X-101415Y81174D01*
X-101402Y81142D01*
X-101397Y81108D01*
X-101356Y81029D01*
X-101322Y80946D01*
X-101300Y80920D01*
X-101284Y80889D01*
X-101230Y80831D01*
X-101182Y80189D01*
X-101174Y80157D01*
X-101165Y80077D01*
X-101023Y79452D01*
X-101044Y79384D01*
X-101079Y79302D01*
X-101082Y79267D01*
X-101092Y79234D01*
X-101098Y79067D01*
X-100934Y76869D01*
X-100926Y76835D01*
X-100926Y76800D01*
X-100897Y76716D01*
X-100876Y76630D01*
X-100858Y76600D01*
X-100847Y76567D01*
X-100802Y76502D01*
X-100850Y75860D01*
X-100847Y75827D01*
X-100850Y75746D01*
X-100803Y75108D01*
X-100834Y75043D01*
X-100881Y74967D01*
X-100889Y74934D01*
X-100904Y74903D01*
X-100935Y74738D01*
X-101100Y72540D01*
X-101097Y72505D01*
X-101102Y72471D01*
X-101087Y72383D01*
X-101079Y72295D01*
X-101065Y72263D01*
X-101059Y72229D01*
X-101024Y72157D01*
X-101168Y71530D01*
X-101170Y71497D01*
X-101185Y71417D01*
X-101233Y70779D01*
X-101274Y70720D01*
X-101331Y70652D01*
X-101344Y70620D01*
X-101363Y70591D01*
X-101419Y70433D01*
X-101910Y68284D01*
X-101912Y68249D01*
X-101922Y68216D01*
X-101920Y68136D01*
X-101925Y68086D01*
X-101923Y68075D01*
X-101925Y68038D01*
X-101916Y68005D01*
X-101915Y67970D01*
X-101892Y67894D01*
X-102127Y67295D01*
X-102134Y67263D01*
X-102160Y67187D01*
X-102303Y66562D01*
X-102352Y66510D01*
X-102419Y66451D01*
X-102436Y66421D01*
X-102460Y66396D01*
X-102538Y66248D01*
X-103344Y64196D01*
X-103352Y64162D01*
X-103367Y64131D01*
X-103377Y64043D01*
X-103396Y63956D01*
X-103392Y63921D01*
X-103396Y63887D01*
X-103384Y63808D01*
X-103707Y63251D01*
X-103718Y63220D01*
X-103756Y63149D01*
X-103990Y62553D01*
X-104046Y62509D01*
X-104121Y62460D01*
X-104143Y62433D01*
X-104170Y62412D01*
X-104270Y62277D01*
X-105372Y60368D01*
X-105385Y60336D01*
X-105404Y60307D01*
X-105428Y60221D01*
X-105459Y60138D01*
X-105461Y60103D01*
X-105470Y60070D01*
X-105470Y59991D01*
X-105871Y59488D01*
X-105887Y59459D01*
X-105912Y59426D01*
X-105919Y59418D01*
X-105921Y59413D01*
X-105935Y59393D01*
X-106256Y58839D01*
X-106318Y58804D01*
X-106399Y58767D01*
X-106425Y58744D01*
X-106455Y58727D01*
X-106573Y58608D01*
X-107948Y56885D01*
X-107965Y56855D01*
X-107989Y56829D01*
X-108025Y56748D01*
X-108068Y56670D01*
X-108075Y56636D01*
X-108089Y56605D01*
X-108101Y56526D01*
X-108573Y56089D01*
X-108593Y56063D01*
X-108650Y56005D01*
X-109049Y55505D01*
X-109116Y55479D01*
X-109202Y55455D01*
X-109231Y55435D01*
X-109263Y55423D01*
X-109398Y55323D01*
X-111014Y53825D01*
X-111035Y53797D01*
X-111063Y53776D01*
X-111111Y53701D01*
X-111165Y53630D01*
X-111177Y53598D01*
X-111195Y53569D01*
X-111219Y53493D01*
X-111751Y53130D01*
X-111775Y53107D01*
X-111840Y53059D01*
X-112309Y52624D01*
X-112379Y52609D01*
X-112468Y52598D01*
X-112499Y52582D01*
X-112533Y52575D01*
X-112681Y52496D01*
X-114406Y51321D01*
X-114451Y51278D01*
X-114503Y51242D01*
X-114540Y51194D01*
X-114584Y51152D01*
X-114606Y51110D01*
X-115298Y50711D01*
X-115314Y50697D01*
X-115346Y50680D01*
X-115565Y50532D01*
X-115648Y50452D01*
X-115732Y50376D01*
X-115737Y50368D01*
X-115743Y50362D01*
X-115797Y50260D01*
X-115852Y50161D01*
X-115854Y50152D01*
X-115858Y50145D01*
X-115876Y50031D01*
X-115897Y49919D01*
X-115896Y49910D01*
X-115897Y49902D01*
X-115879Y49789D01*
X-115863Y49676D01*
X-115858Y49666D01*
X-115857Y49659D01*
X-115847Y49639D01*
X-115795Y49522D01*
X-87639Y755D01*
X-87596Y703D01*
X-87562Y644D01*
X-87519Y608D01*
X-87483Y564D01*
X-87426Y529D01*
X-87375Y485D01*
X-87322Y464D01*
X-87275Y434D01*
X-87209Y418D01*
X-87146Y393D01*
X-87068Y384D01*
X-87036Y376D01*
X-87015Y378D01*
X-86980Y374D01*
X-86820Y374D01*
X-86764Y341D01*
X-86740Y337D01*
X-86722Y328D01*
X-86677Y326D01*
X-86600Y313D01*
X-67600Y313D01*
X-67572Y319D01*
G37*
G36*
X131941Y198380D02*
X131941Y198380D01*
X131984Y198379D01*
X135977Y198979D01*
X136007Y198990D01*
X136050Y198996D01*
X139909Y200185D01*
X139937Y200200D01*
X139978Y200212D01*
X143616Y201963D01*
X143638Y201979D01*
X143664Y201989D01*
X143717Y202039D01*
X143775Y202083D01*
X143788Y202106D01*
X143808Y202125D01*
X143838Y202192D01*
X143874Y202255D01*
X143877Y202282D01*
X143888Y202307D01*
X143889Y202380D01*
X143898Y202453D01*
X143890Y202479D01*
X143890Y202506D01*
X143854Y202605D01*
X143842Y202644D01*
X143836Y202651D01*
X143832Y202662D01*
X116832Y249462D01*
X116814Y249482D01*
X116803Y249507D01*
X116749Y249556D01*
X116701Y249611D01*
X116676Y249623D01*
X116656Y249641D01*
X116587Y249665D01*
X116521Y249697D01*
X116494Y249698D01*
X116469Y249707D01*
X116396Y249702D01*
X116323Y249706D01*
X116297Y249696D01*
X116270Y249695D01*
X116174Y249651D01*
X116136Y249636D01*
X116129Y249630D01*
X116119Y249625D01*
X112782Y247352D01*
X112760Y247329D01*
X112724Y247305D01*
X109763Y244560D01*
X109744Y244534D01*
X109712Y244505D01*
X107194Y241349D01*
X107179Y241321D01*
X107152Y241288D01*
X105132Y237791D01*
X105122Y237761D01*
X105099Y237724D01*
X103623Y233966D01*
X103618Y233935D01*
X103601Y233895D01*
X102701Y229959D01*
X102701Y229927D01*
X102690Y229885D01*
X102387Y225859D01*
X102390Y225835D01*
X102387Y225815D01*
X102389Y225806D01*
X102387Y225784D01*
X102688Y221758D01*
X102696Y221727D01*
X102699Y221684D01*
X103596Y217747D01*
X103609Y217718D01*
X103618Y217676D01*
X105092Y213917D01*
X105109Y213890D01*
X105124Y213849D01*
X107142Y210352D01*
X107163Y210328D01*
X107184Y210290D01*
X109700Y207133D01*
X109725Y207112D01*
X109751Y207078D01*
X112710Y204331D01*
X112737Y204314D01*
X112768Y204284D01*
X116104Y202009D01*
X116133Y201996D01*
X116168Y201971D01*
X119806Y200218D01*
X119836Y200211D01*
X119875Y200191D01*
X123733Y199000D01*
X123765Y198997D01*
X123806Y198983D01*
X127798Y198380D01*
X127830Y198382D01*
X127872Y198374D01*
X131910Y198373D01*
X131941Y198380D01*
G37*
G36*
X-127872Y198374D02*
X-127872Y198374D01*
X-127841Y198381D01*
X-127798Y198380D01*
X-123806Y198983D01*
X-123776Y198994D01*
X-123733Y199000D01*
X-119875Y200191D01*
X-119847Y200206D01*
X-119806Y200218D01*
X-116168Y201971D01*
X-116143Y201991D01*
X-116104Y202009D01*
X-112768Y204284D01*
X-112746Y204307D01*
X-112710Y204331D01*
X-109751Y207078D01*
X-109732Y207104D01*
X-109700Y207133D01*
X-107184Y210290D01*
X-107169Y210319D01*
X-107142Y210352D01*
X-105124Y213849D01*
X-105114Y213880D01*
X-105092Y213917D01*
X-103618Y217676D01*
X-103612Y217707D01*
X-103596Y217747D01*
X-102699Y221684D01*
X-102698Y221716D01*
X-102688Y221758D01*
X-102387Y225784D01*
X-102391Y225816D01*
X-102390Y225832D01*
X-102387Y225848D01*
X-102388Y225852D01*
X-102387Y225859D01*
X-102690Y229885D01*
X-102699Y229916D01*
X-102701Y229959D01*
X-103601Y233895D01*
X-103614Y233924D01*
X-103623Y233966D01*
X-105099Y237724D01*
X-105117Y237751D01*
X-105132Y237791D01*
X-107152Y241288D01*
X-107173Y241311D01*
X-107194Y241349D01*
X-109712Y244505D01*
X-109737Y244526D01*
X-109763Y244560D01*
X-112724Y247305D01*
X-112751Y247322D01*
X-112782Y247352D01*
X-116119Y249625D01*
X-116144Y249636D01*
X-116165Y249653D01*
X-116235Y249674D01*
X-116302Y249702D01*
X-116330Y249702D01*
X-116356Y249710D01*
X-116428Y249702D01*
X-116501Y249701D01*
X-116526Y249691D01*
X-116553Y249688D01*
X-116617Y249652D01*
X-116684Y249623D01*
X-116703Y249604D01*
X-116726Y249590D01*
X-116794Y249509D01*
X-116822Y249480D01*
X-116825Y249471D01*
X-116832Y249462D01*
X-143832Y202662D01*
X-143841Y202636D01*
X-143857Y202614D01*
X-143872Y202543D01*
X-143896Y202473D01*
X-143893Y202446D01*
X-143899Y202420D01*
X-143886Y202348D01*
X-143880Y202275D01*
X-143867Y202251D01*
X-143862Y202224D01*
X-143822Y202164D01*
X-143788Y202099D01*
X-143767Y202081D01*
X-143752Y202059D01*
X-143666Y201998D01*
X-143635Y201972D01*
X-143626Y201969D01*
X-143616Y201963D01*
X-139978Y200212D01*
X-139947Y200204D01*
X-139909Y200185D01*
X-136050Y198996D01*
X-136018Y198993D01*
X-135977Y198979D01*
X-131984Y198379D01*
X-131953Y198380D01*
X-131910Y198373D01*
X-127872Y198374D01*
G37*
G36*
X116428Y51923D02*
X116428Y51923D01*
X116501Y51924D01*
X116526Y51934D01*
X116553Y51937D01*
X116617Y51973D01*
X116684Y52002D01*
X116703Y52021D01*
X116726Y52035D01*
X116794Y52116D01*
X116822Y52145D01*
X116825Y52154D01*
X116832Y52163D01*
X143832Y98963D01*
X143841Y98989D01*
X143857Y99011D01*
X143872Y99082D01*
X143896Y99152D01*
X143893Y99179D01*
X143899Y99205D01*
X143886Y99277D01*
X143880Y99350D01*
X143867Y99374D01*
X143862Y99401D01*
X143822Y99462D01*
X143788Y99526D01*
X143767Y99544D01*
X143752Y99566D01*
X143666Y99627D01*
X143635Y99653D01*
X143626Y99656D01*
X143616Y99662D01*
X139978Y101413D01*
X139947Y101421D01*
X139909Y101440D01*
X136050Y102629D01*
X136018Y102632D01*
X135977Y102646D01*
X131984Y103246D01*
X131953Y103245D01*
X131910Y103252D01*
X127872Y103251D01*
X127841Y103244D01*
X127798Y103245D01*
X123806Y102642D01*
X123776Y102631D01*
X123733Y102625D01*
X119875Y101434D01*
X119847Y101419D01*
X119806Y101407D01*
X116168Y99654D01*
X116143Y99634D01*
X116104Y99616D01*
X112768Y97341D01*
X112746Y97318D01*
X112710Y97294D01*
X109751Y94547D01*
X109732Y94521D01*
X109700Y94492D01*
X107184Y91335D01*
X107169Y91306D01*
X107142Y91273D01*
X105124Y87776D01*
X105114Y87745D01*
X105092Y87708D01*
X103618Y83949D01*
X103612Y83918D01*
X103596Y83878D01*
X102699Y79941D01*
X102698Y79909D01*
X102688Y79867D01*
X102387Y75841D01*
X102391Y75809D01*
X102387Y75766D01*
X102690Y71740D01*
X102699Y71709D01*
X102701Y71666D01*
X103601Y67730D01*
X103614Y67701D01*
X103623Y67659D01*
X105099Y63901D01*
X105117Y63874D01*
X105132Y63834D01*
X107152Y60338D01*
X107173Y60314D01*
X107194Y60276D01*
X109712Y57120D01*
X109737Y57100D01*
X109763Y57065D01*
X112724Y54320D01*
X112751Y54303D01*
X112782Y54273D01*
X116119Y52000D01*
X116144Y51989D01*
X116165Y51972D01*
X116235Y51951D01*
X116302Y51923D01*
X116330Y51923D01*
X116356Y51915D01*
X116428Y51923D01*
G37*
G36*
X-116396Y51923D02*
X-116396Y51923D01*
X-116323Y51919D01*
X-116297Y51929D01*
X-116270Y51930D01*
X-116174Y51974D01*
X-116136Y51989D01*
X-116129Y51995D01*
X-116119Y52000D01*
X-112782Y54273D01*
X-112760Y54296D01*
X-112724Y54320D01*
X-109763Y57065D01*
X-109744Y57091D01*
X-109712Y57120D01*
X-107194Y60276D01*
X-107179Y60304D01*
X-107152Y60338D01*
X-105132Y63834D01*
X-105122Y63864D01*
X-105099Y63901D01*
X-103623Y67659D01*
X-103618Y67690D01*
X-103601Y67730D01*
X-102701Y71666D01*
X-102701Y71698D01*
X-102690Y71740D01*
X-102387Y75766D01*
X-102391Y75798D01*
X-102387Y75841D01*
X-102688Y79867D01*
X-102696Y79898D01*
X-102699Y79941D01*
X-103596Y83878D01*
X-103609Y83907D01*
X-103618Y83949D01*
X-105092Y87708D01*
X-105109Y87735D01*
X-105124Y87776D01*
X-107142Y91273D01*
X-107163Y91297D01*
X-107184Y91335D01*
X-109700Y94492D01*
X-109725Y94513D01*
X-109751Y94547D01*
X-112710Y97294D01*
X-112737Y97311D01*
X-112768Y97341D01*
X-116104Y99616D01*
X-116133Y99629D01*
X-116168Y99654D01*
X-119806Y101407D01*
X-119836Y101414D01*
X-119875Y101434D01*
X-123733Y102625D01*
X-123765Y102628D01*
X-123806Y102642D01*
X-127798Y103245D01*
X-127830Y103243D01*
X-127872Y103251D01*
X-131910Y103252D01*
X-131941Y103246D01*
X-131984Y103246D01*
X-135977Y102646D01*
X-136007Y102635D01*
X-136050Y102629D01*
X-139909Y101440D01*
X-139937Y101425D01*
X-139978Y101413D01*
X-143616Y99662D01*
X-143638Y99646D01*
X-143664Y99636D01*
X-143717Y99586D01*
X-143775Y99542D01*
X-143788Y99519D01*
X-143808Y99500D01*
X-143838Y99433D01*
X-143874Y99370D01*
X-143877Y99343D01*
X-143888Y99318D01*
X-143889Y99245D01*
X-143898Y99172D01*
X-143890Y99146D01*
X-143890Y99119D01*
X-143854Y99020D01*
X-143842Y98981D01*
X-143836Y98974D01*
X-143832Y98963D01*
X-116832Y52163D01*
X-116814Y52143D01*
X-116803Y52118D01*
X-116749Y52069D01*
X-116701Y52014D01*
X-116676Y52002D01*
X-116656Y51984D01*
X-116587Y51960D01*
X-116521Y51928D01*
X-116494Y51927D01*
X-116469Y51918D01*
X-116396Y51923D01*
G37*
G36*
X2049Y273395D02*
X2049Y273395D01*
X2092Y273394D01*
X6082Y273996D01*
X6112Y274007D01*
X6155Y274012D01*
X10011Y275202D01*
X10039Y275217D01*
X10081Y275229D01*
X13717Y276980D01*
X13742Y276999D01*
X13781Y277017D01*
X17115Y279291D01*
X17138Y279313D01*
X17174Y279337D01*
X20132Y282082D01*
X20151Y282108D01*
X20183Y282137D01*
X22699Y285292D01*
X22713Y285320D01*
X22741Y285353D01*
X24759Y288848D01*
X24769Y288878D01*
X24791Y288915D01*
X26265Y292672D01*
X26266Y292678D01*
X26268Y292680D01*
X26272Y292706D01*
X26287Y292743D01*
X27185Y296677D01*
X27186Y296709D01*
X27196Y296751D01*
X27498Y300775D01*
X27494Y300802D01*
X27499Y300829D01*
X27482Y300900D01*
X27473Y300972D01*
X27459Y300996D01*
X27453Y301022D01*
X27410Y301081D01*
X27373Y301144D01*
X27351Y301161D01*
X27335Y301183D01*
X27272Y301220D01*
X27214Y301264D01*
X27187Y301270D01*
X27164Y301284D01*
X27060Y301302D01*
X27021Y301311D01*
X27011Y301310D01*
X27000Y301312D01*
X-27000Y301312D01*
X-27027Y301306D01*
X-27054Y301309D01*
X-27123Y301287D01*
X-27195Y301272D01*
X-27217Y301257D01*
X-27243Y301249D01*
X-27299Y301201D01*
X-27359Y301160D01*
X-27373Y301137D01*
X-27394Y301119D01*
X-27427Y301054D01*
X-27466Y300992D01*
X-27470Y300965D01*
X-27482Y300941D01*
X-27492Y300836D01*
X-27499Y300796D01*
X-27497Y300787D01*
X-27498Y300775D01*
X-27196Y296751D01*
X-27188Y296720D01*
X-27185Y296677D01*
X-26287Y292743D01*
X-26274Y292714D01*
X-26265Y292672D01*
X-24791Y288915D01*
X-24774Y288888D01*
X-24759Y288848D01*
X-22741Y285353D01*
X-22720Y285329D01*
X-22699Y285292D01*
X-20183Y282137D01*
X-20158Y282116D01*
X-20132Y282082D01*
X-17174Y279337D01*
X-17147Y279321D01*
X-17115Y279291D01*
X-13781Y277017D01*
X-13752Y277005D01*
X-13717Y276980D01*
X-10081Y275229D01*
X-10050Y275221D01*
X-10011Y275202D01*
X-6155Y274012D01*
X-6124Y274009D01*
X-6082Y273996D01*
X-2092Y273394D01*
X-2060Y273396D01*
X-2018Y273389D01*
X2018Y273389D01*
X2049Y273395D01*
G37*
G36*
X27027Y319D02*
X27027Y319D01*
X27054Y316D01*
X27123Y338D01*
X27195Y353D01*
X27217Y368D01*
X27243Y377D01*
X27299Y424D01*
X27359Y465D01*
X27373Y488D01*
X27394Y506D01*
X27427Y571D01*
X27466Y633D01*
X27470Y660D01*
X27482Y684D01*
X27492Y789D01*
X27499Y829D01*
X27497Y838D01*
X27498Y850D01*
X27196Y4874D01*
X27188Y4905D01*
X27185Y4948D01*
X26287Y8882D01*
X26274Y8911D01*
X26265Y8953D01*
X24791Y12710D01*
X24774Y12737D01*
X24759Y12777D01*
X22741Y16272D01*
X22720Y16296D01*
X22699Y16333D01*
X20183Y19488D01*
X20158Y19509D01*
X20132Y19543D01*
X17174Y22288D01*
X17147Y22304D01*
X17115Y22334D01*
X13781Y24608D01*
X13752Y24620D01*
X13717Y24645D01*
X10081Y26396D01*
X10050Y26404D01*
X10011Y26423D01*
X6155Y27613D01*
X6124Y27616D01*
X6082Y27629D01*
X2092Y28231D01*
X2060Y28229D01*
X2018Y28236D01*
X-2018Y28236D01*
X-2049Y28230D01*
X-2092Y28231D01*
X-6082Y27629D01*
X-6112Y27618D01*
X-6155Y27613D01*
X-10011Y26423D01*
X-10039Y26408D01*
X-10081Y26396D01*
X-13717Y24645D01*
X-13742Y24626D01*
X-13781Y24608D01*
X-17115Y22334D01*
X-17138Y22312D01*
X-17174Y22288D01*
X-20132Y19543D01*
X-20151Y19517D01*
X-20183Y19488D01*
X-22699Y16333D01*
X-22713Y16305D01*
X-22741Y16272D01*
X-24759Y12777D01*
X-24769Y12747D01*
X-24791Y12710D01*
X-26265Y8953D01*
X-26271Y8922D01*
X-26287Y8882D01*
X-27185Y4948D01*
X-27186Y4916D01*
X-27196Y4874D01*
X-27498Y850D01*
X-27494Y823D01*
X-27499Y796D01*
X-27482Y725D01*
X-27473Y653D01*
X-27459Y629D01*
X-27453Y603D01*
X-27410Y544D01*
X-27373Y481D01*
X-27351Y464D01*
X-27335Y442D01*
X-27272Y405D01*
X-27214Y361D01*
X-27187Y355D01*
X-27164Y341D01*
X-27060Y323D01*
X-27021Y314D01*
X-27011Y315D01*
X-27000Y313D01*
X27000Y313D01*
X27027Y319D01*
G37*
%LPC*%
G36*
X2564Y259806D02*
X2564Y259806D01*
X-544Y262914D01*
X-544Y267311D01*
X2699Y270554D01*
X2702Y270558D01*
X2706Y270561D01*
X2743Y270614D01*
X2801Y270576D01*
X2855Y270530D01*
X2904Y270510D01*
X2947Y270482D01*
X3017Y270465D01*
X3083Y270438D01*
X3155Y270430D01*
X3186Y270422D01*
X3209Y270424D01*
X3250Y270419D01*
X6961Y270419D01*
X7472Y269908D01*
X7546Y269855D01*
X7615Y269796D01*
X7645Y269784D01*
X7671Y269765D01*
X7758Y269738D01*
X7843Y269704D01*
X7884Y269699D01*
X7906Y269692D01*
X7939Y269693D01*
X8010Y269685D01*
X25328Y269685D01*
X25418Y269700D01*
X25509Y269707D01*
X25538Y269720D01*
X25570Y269725D01*
X25651Y269768D01*
X25735Y269803D01*
X25767Y269829D01*
X25788Y269840D01*
X25810Y269863D01*
X25866Y269908D01*
X26377Y270419D01*
X30773Y270419D01*
X33882Y267311D01*
X33882Y262914D01*
X30773Y259806D01*
X26377Y259806D01*
X25866Y260317D01*
X25792Y260370D01*
X25722Y260429D01*
X25692Y260441D01*
X25666Y260460D01*
X25579Y260487D01*
X25494Y260521D01*
X25453Y260526D01*
X25431Y260533D01*
X25399Y260532D01*
X25328Y260540D01*
X8010Y260540D01*
X7920Y260525D01*
X7829Y260518D01*
X7799Y260505D01*
X7767Y260500D01*
X7687Y260457D01*
X7603Y260422D01*
X7570Y260396D01*
X7550Y260385D01*
X7528Y260362D01*
X7472Y260317D01*
X6961Y259806D01*
X2564Y259806D01*
G37*
%LPD*%
%LPC*%
G36*
X-22254Y214181D02*
X-22254Y214181D01*
X-24215Y221499D01*
X-20427Y228059D01*
X-13109Y230020D01*
X-6549Y226232D01*
X-4588Y218915D01*
X-8376Y212354D01*
X-15693Y210393D01*
X-22254Y214181D01*
G37*
%LPD*%
%LPC*%
G36*
X-34954Y192184D02*
X-34954Y192184D01*
X-36915Y199502D01*
X-33127Y206062D01*
X-25809Y208023D01*
X-19249Y204235D01*
X-17288Y196918D01*
X-21076Y190357D01*
X-28393Y188396D01*
X-34954Y192184D01*
G37*
%LPD*%
%LPC*%
G36*
X-47654Y170187D02*
X-47654Y170187D01*
X-49615Y177505D01*
X-45827Y184065D01*
X-38509Y186026D01*
X-31949Y182238D01*
X-29988Y174920D01*
X-33776Y168360D01*
X-41093Y166399D01*
X-47654Y170187D01*
G37*
%LPD*%
%LPC*%
G36*
X65286Y161793D02*
X65286Y161793D01*
X63325Y169111D01*
X67113Y175672D01*
X74431Y177633D01*
X80992Y173845D01*
X82952Y166527D01*
X79165Y159966D01*
X71847Y158006D01*
X65286Y161793D01*
G37*
%LPD*%
%LPC*%
G36*
X87283Y149093D02*
X87283Y149093D01*
X85323Y156411D01*
X89110Y162972D01*
X96428Y164933D01*
X102989Y161145D01*
X104949Y153827D01*
X101162Y147266D01*
X93844Y145306D01*
X87283Y149093D01*
G37*
%LPD*%
%LPC*%
G36*
X-60354Y148190D02*
X-60354Y148190D01*
X-62315Y155507D01*
X-58527Y162068D01*
X-51209Y164029D01*
X-44649Y160241D01*
X-42688Y152923D01*
X-46476Y146363D01*
X-53793Y144402D01*
X-60354Y148190D01*
G37*
%LPD*%
%LPC*%
G36*
X52586Y139796D02*
X52586Y139796D01*
X50625Y147114D01*
X54413Y153675D01*
X61731Y155636D01*
X68292Y151848D01*
X70252Y144530D01*
X66465Y137969D01*
X59147Y136009D01*
X52586Y139796D01*
G37*
%LPD*%
%LPC*%
G36*
X-73054Y126193D02*
X-73054Y126193D01*
X-75015Y133510D01*
X-71227Y140071D01*
X-63909Y142032D01*
X-57349Y138244D01*
X-55388Y130926D01*
X-59176Y124366D01*
X-66493Y122405D01*
X-73054Y126193D01*
G37*
%LPD*%
%LPC*%
G36*
X39886Y117799D02*
X39886Y117799D01*
X37925Y125117D01*
X41713Y131678D01*
X49031Y133638D01*
X55592Y129851D01*
X57552Y122533D01*
X53765Y115972D01*
X46447Y114012D01*
X39886Y117799D01*
G37*
%LPD*%
%LPC*%
G36*
X27186Y95802D02*
X27186Y95802D01*
X25225Y103120D01*
X29013Y109681D01*
X36331Y111641D01*
X42892Y107854D01*
X44852Y100536D01*
X41065Y93975D01*
X33747Y92014D01*
X27186Y95802D01*
G37*
%LPD*%
%LPC*%
G36*
X14486Y73805D02*
X14486Y73805D01*
X12525Y81123D01*
X16313Y87684D01*
X23631Y89644D01*
X30192Y85857D01*
X32152Y78539D01*
X28365Y71978D01*
X21047Y70017D01*
X14486Y73805D01*
G37*
%LPD*%
%LPC*%
G36*
X-6961Y39143D02*
X-6961Y39143D01*
X-7803Y39986D01*
X-7846Y40017D01*
X-7884Y40056D01*
X-7946Y40088D01*
X-8003Y40129D01*
X-8054Y40145D01*
X-8101Y40170D01*
X-8210Y40193D01*
X-8238Y40201D01*
X-8249Y40201D01*
X-8265Y40205D01*
X-17634Y41142D01*
X-17640Y41141D01*
X-17645Y41143D01*
X-17762Y41134D01*
X-17879Y41126D01*
X-17885Y41124D01*
X-17891Y41124D01*
X-17998Y41078D01*
X-18107Y41033D01*
X-18111Y41030D01*
X-18117Y41027D01*
X-18248Y40922D01*
X-18439Y40731D01*
X-22836Y40731D01*
X-25944Y43839D01*
X-25944Y48236D01*
X-22836Y51344D01*
X-18439Y51344D01*
X-17597Y50502D01*
X-17554Y50471D01*
X-17516Y50432D01*
X-17454Y50399D01*
X-17397Y50358D01*
X-17346Y50343D01*
X-17299Y50318D01*
X-17190Y50295D01*
X-17162Y50286D01*
X-17151Y50286D01*
X-17135Y50283D01*
X-7766Y49346D01*
X-7760Y49346D01*
X-7755Y49345D01*
X-7638Y49354D01*
X-7521Y49361D01*
X-7515Y49364D01*
X-7509Y49364D01*
X-7402Y49410D01*
X-7293Y49454D01*
X-7289Y49458D01*
X-7283Y49460D01*
X-7152Y49565D01*
X-6961Y49757D01*
X-2564Y49757D01*
X544Y46648D01*
X544Y42252D01*
X-2564Y39143D01*
X-6961Y39143D01*
G37*
%LPD*%
%LPC*%
G36*
X-114911Y183606D02*
X-114911Y183606D01*
X-118019Y186714D01*
X-118019Y191111D01*
X-114911Y194219D01*
X-114188Y194219D01*
X-114098Y194234D01*
X-114007Y194241D01*
X-113977Y194254D01*
X-113945Y194259D01*
X-113864Y194302D01*
X-113781Y194337D01*
X-113748Y194363D01*
X-113728Y194374D01*
X-113706Y194397D01*
X-113650Y194442D01*
X-107130Y200962D01*
X-107077Y201036D01*
X-107017Y201106D01*
X-107005Y201136D01*
X-106986Y201162D01*
X-106959Y201249D01*
X-106925Y201334D01*
X-106921Y201375D01*
X-106914Y201397D01*
X-106915Y201429D01*
X-106907Y201500D01*
X-106907Y202223D01*
X-103798Y205332D01*
X-99402Y205332D01*
X-96293Y202223D01*
X-96293Y197827D01*
X-99402Y194718D01*
X-100125Y194718D01*
X-100215Y194704D01*
X-100306Y194696D01*
X-100335Y194684D01*
X-100367Y194679D01*
X-100448Y194636D01*
X-100532Y194600D01*
X-100564Y194574D01*
X-100585Y194563D01*
X-100607Y194540D01*
X-100663Y194495D01*
X-107183Y187975D01*
X-107236Y187901D01*
X-107295Y187832D01*
X-107308Y187802D01*
X-107326Y187776D01*
X-107353Y187689D01*
X-107387Y187604D01*
X-107392Y187563D01*
X-107399Y187541D01*
X-107398Y187508D01*
X-107406Y187437D01*
X-107406Y186714D01*
X-110514Y183606D01*
X-114911Y183606D01*
G37*
%LPD*%
%LPC*%
G36*
X94639Y89943D02*
X94639Y89943D01*
X91531Y93052D01*
X91531Y97448D01*
X94639Y100557D01*
X95362Y100557D01*
X95452Y100571D01*
X95543Y100579D01*
X95573Y100591D01*
X95605Y100596D01*
X95686Y100639D01*
X95769Y100675D01*
X95802Y100701D01*
X95822Y100712D01*
X95844Y100735D01*
X95900Y100780D01*
X102420Y107300D01*
X102473Y107374D01*
X102533Y107443D01*
X102545Y107473D01*
X102564Y107499D01*
X102591Y107586D01*
X102625Y107671D01*
X102629Y107712D01*
X102636Y107734D01*
X102635Y107767D01*
X102643Y107838D01*
X102643Y108561D01*
X105752Y111669D01*
X110148Y111669D01*
X113257Y108561D01*
X113257Y104164D01*
X110148Y101056D01*
X109425Y101056D01*
X109335Y101041D01*
X109244Y101034D01*
X109215Y101021D01*
X109183Y101016D01*
X109102Y100973D01*
X109018Y100938D01*
X108986Y100912D01*
X108965Y100901D01*
X108943Y100878D01*
X108887Y100833D01*
X102367Y94313D01*
X102314Y94239D01*
X102255Y94169D01*
X102242Y94139D01*
X102224Y94113D01*
X102197Y94026D01*
X102163Y93941D01*
X102158Y93900D01*
X102151Y93878D01*
X102152Y93846D01*
X102144Y93775D01*
X102144Y93052D01*
X99036Y89943D01*
X94639Y89943D01*
G37*
%LPD*%
%LPC*%
G36*
X-76811Y74068D02*
X-76811Y74068D01*
X-79919Y77177D01*
X-79919Y77900D01*
X-79934Y77990D01*
X-79941Y78081D01*
X-79954Y78110D01*
X-79959Y78142D01*
X-80002Y78223D01*
X-80037Y78307D01*
X-80063Y78339D01*
X-80074Y78360D01*
X-80097Y78382D01*
X-80142Y78438D01*
X-85075Y83370D01*
X-85149Y83423D01*
X-85218Y83483D01*
X-85248Y83495D01*
X-85274Y83514D01*
X-85361Y83541D01*
X-85446Y83575D01*
X-85487Y83579D01*
X-85509Y83586D01*
X-85542Y83585D01*
X-85613Y83593D01*
X-86336Y83593D01*
X-89444Y86702D01*
X-89444Y91098D01*
X-86336Y94207D01*
X-81939Y94207D01*
X-78831Y91098D01*
X-78831Y90375D01*
X-78816Y90285D01*
X-78809Y90194D01*
X-78796Y90165D01*
X-78791Y90133D01*
X-78748Y90052D01*
X-78713Y89968D01*
X-78687Y89936D01*
X-78676Y89915D01*
X-78653Y89893D01*
X-78608Y89837D01*
X-73675Y84905D01*
X-73601Y84852D01*
X-73532Y84792D01*
X-73502Y84780D01*
X-73476Y84761D01*
X-73389Y84734D01*
X-73304Y84700D01*
X-73263Y84696D01*
X-73241Y84689D01*
X-73208Y84690D01*
X-73137Y84682D01*
X-72414Y84682D01*
X-69306Y81573D01*
X-69306Y77177D01*
X-72414Y74068D01*
X-76811Y74068D01*
G37*
%LPD*%
D10*
X82600Y293913D03*
X165200Y150813D03*
X82600Y7713D03*
X-82600Y7713D03*
X-165200Y150813D03*
X-82600Y293913D03*
X123900Y222313D03*
X123900Y79313D03*
X0Y7713D03*
X-123900Y79313D03*
X-123900Y222313D03*
X0Y293913D03*
D11*
X31636Y45134D03*
X44336Y67131D03*
X57036Y89128D03*
X69736Y111125D03*
X82436Y133122D03*
X95136Y155119D03*
X9639Y57834D03*
X22339Y79831D03*
X35039Y101828D03*
X47739Y123825D03*
X60439Y145822D03*
X73139Y167819D03*
X107836Y177116D03*
X85839Y189816D03*
D12*
X-23699Y254904D03*
X-36399Y232907D03*
X-49099Y210910D03*
X-61799Y188913D03*
X-74499Y166915D03*
X-87199Y144918D03*
X-1701Y242204D03*
X-14401Y220207D03*
X-27101Y198210D03*
X-39801Y176213D03*
X-52501Y154215D03*
X-65201Y132218D03*
X-99899Y122921D03*
X-77901Y110221D03*
D13*
X28575Y265113D03*
X4763Y265113D03*
X101600Y204788D03*
X88900Y220663D03*
X96838Y95250D03*
X107950Y106363D03*
X-4763Y44450D03*
X-20638Y46038D03*
X-74613Y79375D03*
X-84138Y88900D03*
X-112713Y188913D03*
X-101600Y200025D03*
D14*
X4763Y265113D02*
X28575Y265113D01*
X-101600Y200025D02*
X-112713Y188913D01*
X88900Y220663D02*
X102534Y207029D01*
X101600Y204788D01*
X107950Y106363D02*
X96838Y95250D01*
X-4763Y44450D02*
X-20638Y46038D01*
X-74613Y79375D02*
X-84138Y88900D01*
D13*
X-17463Y273050D03*
X-33338Y282575D03*
X-96838Y230188D03*
X-98425Y212725D03*
X-115888Y107950D03*
X-131763Y111125D03*
X31750Y14288D03*
X20638Y26988D03*
X131763Y192088D03*
X115888Y195263D03*
X93663Y71438D03*
X96838Y85725D03*
D15*
X14063Y7713D02*
X0Y7713D01*
X14063Y7713D02*
X57150Y50800D01*
X57150Y89014D01*
X57036Y89128D01*
X92138Y79313D02*
X123900Y79313D01*
X69736Y101714D02*
X69736Y111125D01*
X69736Y101714D02*
X92138Y79313D01*
X123900Y160413D02*
X123900Y222313D01*
X96610Y133122D02*
X82436Y133122D01*
X96610Y133122D02*
X123900Y160413D01*
X0Y293913D02*
X-9300Y293913D01*
X-49213Y254000D01*
X-49213Y211024D01*
X-49099Y210910D01*
X-95199Y222313D02*
X-123900Y222313D01*
X-95199Y222313D02*
X-61799Y188913D01*
X-74499Y166915D02*
X-85593Y155821D01*
X-91715Y155821D01*
X-123900Y123636D02*
X-123900Y79313D01*
X-123900Y123636D02*
X-91715Y155821D01*
M02*
