G04 EAGLE Gerber RS-274X export*
G75*
%MOMM*%
%FSLAX34Y34*%
%LPD*%
%INSilkscreen Bottom*%
%IPPOS*%
%AMOC8*
5,1,8,0,0,1.08239X$1,22.5*%
G01*
%ADD10C,0.101600*%
%ADD11C,0.152400*%
%ADD12C,0.050800*%


D10*
X82321Y270508D02*
X80726Y271625D01*
X77003Y266308D01*
X80193Y264074D01*
X80276Y264019D01*
X80360Y263967D01*
X80447Y263918D01*
X80535Y263872D01*
X80625Y263830D01*
X80717Y263791D01*
X80810Y263756D01*
X80904Y263724D01*
X80999Y263696D01*
X81096Y263672D01*
X81193Y263651D01*
X81291Y263635D01*
X81390Y263621D01*
X81489Y263612D01*
X81588Y263607D01*
X81688Y263605D01*
X81787Y263607D01*
X81886Y263613D01*
X81985Y263623D01*
X82084Y263636D01*
X82182Y263654D01*
X82279Y263675D01*
X82375Y263699D01*
X82471Y263728D01*
X82565Y263760D01*
X82658Y263795D01*
X82749Y263834D01*
X82839Y263877D01*
X82927Y263923D01*
X83013Y263972D01*
X83098Y264025D01*
X83180Y264081D01*
X83260Y264140D01*
X83338Y264202D01*
X83413Y264267D01*
X83486Y264334D01*
X83556Y264405D01*
X83624Y264478D01*
X83688Y264554D01*
X83750Y264632D01*
X83809Y264712D01*
X87532Y270029D01*
X87587Y270112D01*
X87639Y270196D01*
X87688Y270283D01*
X87734Y270371D01*
X87776Y270461D01*
X87815Y270553D01*
X87850Y270646D01*
X87882Y270740D01*
X87910Y270835D01*
X87934Y270932D01*
X87955Y271029D01*
X87971Y271127D01*
X87985Y271226D01*
X87994Y271325D01*
X87999Y271424D01*
X88001Y271524D01*
X87999Y271623D01*
X87993Y271722D01*
X87983Y271821D01*
X87970Y271920D01*
X87952Y272018D01*
X87931Y272115D01*
X87907Y272211D01*
X87878Y272307D01*
X87846Y272401D01*
X87811Y272494D01*
X87772Y272585D01*
X87729Y272675D01*
X87683Y272763D01*
X87634Y272849D01*
X87581Y272934D01*
X87525Y273016D01*
X87466Y273096D01*
X87404Y273174D01*
X87339Y273249D01*
X87272Y273322D01*
X87201Y273392D01*
X87128Y273460D01*
X87052Y273524D01*
X86974Y273586D01*
X86894Y273645D01*
X86895Y273645D02*
X83704Y275879D01*
X79035Y279149D02*
X72333Y269578D01*
X67016Y273301D02*
X79035Y279149D01*
X73717Y282872D02*
X67016Y273301D01*
X62346Y276571D02*
X69047Y286142D01*
X66389Y288003D01*
X66389Y288004D02*
X66295Y288067D01*
X66199Y288127D01*
X66101Y288184D01*
X66001Y288237D01*
X65899Y288287D01*
X65795Y288333D01*
X65690Y288375D01*
X65584Y288414D01*
X65476Y288449D01*
X65367Y288480D01*
X65257Y288508D01*
X65146Y288531D01*
X65035Y288551D01*
X64923Y288567D01*
X64810Y288579D01*
X64697Y288587D01*
X64584Y288591D01*
X64470Y288591D01*
X64357Y288587D01*
X64244Y288579D01*
X64131Y288567D01*
X64019Y288551D01*
X63908Y288531D01*
X63797Y288508D01*
X63687Y288480D01*
X63578Y288449D01*
X63470Y288414D01*
X63364Y288375D01*
X63259Y288333D01*
X63155Y288287D01*
X63053Y288237D01*
X62953Y288184D01*
X62855Y288127D01*
X62759Y288067D01*
X62665Y288004D01*
X62574Y287937D01*
X62484Y287868D01*
X62397Y287795D01*
X62313Y287719D01*
X62232Y287640D01*
X62153Y287559D01*
X62077Y287475D01*
X62004Y287388D01*
X61935Y287299D01*
X61868Y287207D01*
X61869Y287206D02*
X58890Y282953D01*
X58827Y282859D01*
X58767Y282763D01*
X58710Y282665D01*
X58657Y282565D01*
X58607Y282463D01*
X58561Y282359D01*
X58519Y282254D01*
X58480Y282148D01*
X58445Y282040D01*
X58414Y281931D01*
X58386Y281821D01*
X58363Y281710D01*
X58343Y281599D01*
X58327Y281487D01*
X58315Y281374D01*
X58307Y281261D01*
X58303Y281148D01*
X58303Y281034D01*
X58307Y280921D01*
X58315Y280808D01*
X58327Y280695D01*
X58343Y280583D01*
X58363Y280472D01*
X58386Y280361D01*
X58414Y280251D01*
X58445Y280142D01*
X58480Y280034D01*
X58519Y279928D01*
X58561Y279823D01*
X58607Y279719D01*
X58657Y279617D01*
X58710Y279517D01*
X58767Y279419D01*
X58827Y279323D01*
X58890Y279229D01*
X58957Y279137D01*
X59026Y279048D01*
X59099Y278961D01*
X59175Y278877D01*
X59254Y278796D01*
X59335Y278717D01*
X59419Y278641D01*
X59506Y278568D01*
X59596Y278499D01*
X59687Y278432D01*
X62346Y276571D01*
X146699Y141866D02*
X146699Y139919D01*
X146699Y141866D02*
X140208Y141866D01*
X140208Y137971D01*
X140210Y137872D01*
X140216Y137772D01*
X140225Y137673D01*
X140238Y137575D01*
X140255Y137477D01*
X140276Y137379D01*
X140301Y137283D01*
X140329Y137188D01*
X140361Y137094D01*
X140396Y137001D01*
X140435Y136909D01*
X140478Y136819D01*
X140523Y136731D01*
X140573Y136644D01*
X140625Y136560D01*
X140681Y136477D01*
X140739Y136397D01*
X140801Y136319D01*
X140866Y136244D01*
X140934Y136171D01*
X141004Y136101D01*
X141077Y136033D01*
X141152Y135968D01*
X141230Y135906D01*
X141310Y135848D01*
X141393Y135792D01*
X141477Y135740D01*
X141564Y135690D01*
X141652Y135645D01*
X141742Y135602D01*
X141834Y135563D01*
X141927Y135528D01*
X142021Y135496D01*
X142116Y135468D01*
X142212Y135443D01*
X142310Y135422D01*
X142408Y135405D01*
X142506Y135392D01*
X142605Y135383D01*
X142705Y135377D01*
X142804Y135375D01*
X149296Y135375D01*
X149395Y135377D01*
X149495Y135383D01*
X149594Y135392D01*
X149692Y135405D01*
X149790Y135422D01*
X149888Y135443D01*
X149984Y135468D01*
X150079Y135496D01*
X150173Y135528D01*
X150266Y135563D01*
X150358Y135602D01*
X150448Y135645D01*
X150536Y135690D01*
X150623Y135740D01*
X150707Y135792D01*
X150790Y135848D01*
X150870Y135906D01*
X150948Y135968D01*
X151023Y136033D01*
X151096Y136101D01*
X151166Y136171D01*
X151234Y136244D01*
X151299Y136319D01*
X151361Y136397D01*
X151419Y136477D01*
X151475Y136560D01*
X151527Y136644D01*
X151577Y136731D01*
X151622Y136819D01*
X151665Y136909D01*
X151704Y137001D01*
X151739Y137093D01*
X151771Y137188D01*
X151799Y137283D01*
X151824Y137379D01*
X151845Y137477D01*
X151862Y137575D01*
X151875Y137673D01*
X151884Y137772D01*
X151890Y137872D01*
X151892Y137971D01*
X151892Y141866D01*
X151892Y147567D02*
X140208Y147567D01*
X140208Y154058D02*
X151892Y147567D01*
X151892Y154058D02*
X140208Y154058D01*
X140208Y159759D02*
X151892Y159759D01*
X151892Y163004D01*
X151890Y163117D01*
X151884Y163230D01*
X151874Y163343D01*
X151860Y163456D01*
X151843Y163568D01*
X151821Y163679D01*
X151796Y163789D01*
X151766Y163899D01*
X151733Y164007D01*
X151696Y164114D01*
X151656Y164220D01*
X151611Y164324D01*
X151563Y164427D01*
X151512Y164528D01*
X151457Y164627D01*
X151399Y164724D01*
X151337Y164819D01*
X151272Y164912D01*
X151204Y165002D01*
X151133Y165090D01*
X151058Y165176D01*
X150981Y165259D01*
X150901Y165339D01*
X150818Y165416D01*
X150732Y165491D01*
X150644Y165562D01*
X150554Y165630D01*
X150461Y165695D01*
X150366Y165757D01*
X150269Y165815D01*
X150170Y165870D01*
X150069Y165921D01*
X149966Y165969D01*
X149862Y166014D01*
X149756Y166054D01*
X149649Y166091D01*
X149541Y166124D01*
X149431Y166154D01*
X149321Y166179D01*
X149210Y166201D01*
X149098Y166218D01*
X148985Y166232D01*
X148872Y166242D01*
X148759Y166248D01*
X148646Y166250D01*
X143454Y166250D01*
X143341Y166248D01*
X143228Y166242D01*
X143115Y166232D01*
X143002Y166218D01*
X142890Y166201D01*
X142779Y166179D01*
X142669Y166154D01*
X142559Y166124D01*
X142451Y166091D01*
X142344Y166054D01*
X142238Y166014D01*
X142134Y165969D01*
X142031Y165921D01*
X141930Y165870D01*
X141831Y165815D01*
X141734Y165757D01*
X141639Y165695D01*
X141546Y165630D01*
X141456Y165562D01*
X141368Y165491D01*
X141282Y165416D01*
X141199Y165339D01*
X141119Y165259D01*
X141042Y165176D01*
X140967Y165090D01*
X140896Y165002D01*
X140828Y164912D01*
X140763Y164819D01*
X140701Y164724D01*
X140643Y164627D01*
X140588Y164528D01*
X140537Y164427D01*
X140489Y164324D01*
X140444Y164220D01*
X140404Y164114D01*
X140367Y164007D01*
X140334Y163899D01*
X140304Y163789D01*
X140279Y163679D01*
X140257Y163568D01*
X140240Y163456D01*
X140226Y163343D01*
X140216Y163230D01*
X140210Y163117D01*
X140208Y163004D01*
X140208Y159759D01*
X81576Y32180D02*
X79981Y31063D01*
X83704Y25746D01*
X86895Y27980D01*
X86894Y27980D02*
X86974Y28039D01*
X87052Y28101D01*
X87128Y28165D01*
X87201Y28233D01*
X87272Y28303D01*
X87339Y28376D01*
X87404Y28451D01*
X87466Y28529D01*
X87525Y28609D01*
X87581Y28691D01*
X87634Y28776D01*
X87683Y28862D01*
X87729Y28950D01*
X87772Y29040D01*
X87811Y29131D01*
X87846Y29224D01*
X87878Y29318D01*
X87907Y29414D01*
X87931Y29510D01*
X87952Y29607D01*
X87970Y29705D01*
X87983Y29804D01*
X87993Y29903D01*
X87999Y30002D01*
X88001Y30101D01*
X87999Y30201D01*
X87994Y30300D01*
X87984Y30399D01*
X87971Y30498D01*
X87955Y30596D01*
X87934Y30693D01*
X87910Y30790D01*
X87882Y30885D01*
X87850Y30979D01*
X87815Y31072D01*
X87776Y31164D01*
X87734Y31254D01*
X87688Y31342D01*
X87639Y31429D01*
X87587Y31513D01*
X87532Y31596D01*
X83809Y36913D01*
X83750Y36993D01*
X83688Y37071D01*
X83624Y37147D01*
X83556Y37220D01*
X83486Y37291D01*
X83413Y37358D01*
X83338Y37423D01*
X83260Y37485D01*
X83180Y37544D01*
X83098Y37600D01*
X83013Y37653D01*
X82927Y37702D01*
X82839Y37748D01*
X82749Y37791D01*
X82658Y37830D01*
X82565Y37865D01*
X82471Y37897D01*
X82375Y37926D01*
X82279Y37950D01*
X82182Y37971D01*
X82084Y37989D01*
X81985Y38002D01*
X81886Y38012D01*
X81787Y38018D01*
X81688Y38020D01*
X81588Y38018D01*
X81489Y38013D01*
X81390Y38004D01*
X81291Y37990D01*
X81193Y37974D01*
X81096Y37953D01*
X80999Y37929D01*
X80904Y37901D01*
X80810Y37869D01*
X80717Y37834D01*
X80625Y37795D01*
X80535Y37753D01*
X80447Y37707D01*
X80360Y37658D01*
X80276Y37606D01*
X80193Y37551D01*
X77003Y35317D01*
X72333Y32047D02*
X79034Y22476D01*
X73717Y18753D02*
X72333Y32047D01*
X67016Y28324D02*
X73717Y18753D01*
X69047Y15483D02*
X62346Y25054D01*
X59687Y23192D01*
X59687Y23193D02*
X59596Y23126D01*
X59506Y23057D01*
X59419Y22984D01*
X59335Y22908D01*
X59254Y22829D01*
X59175Y22748D01*
X59099Y22664D01*
X59026Y22577D01*
X58957Y22488D01*
X58890Y22396D01*
X58827Y22302D01*
X58767Y22206D01*
X58710Y22108D01*
X58657Y22008D01*
X58607Y21906D01*
X58561Y21802D01*
X58519Y21697D01*
X58480Y21591D01*
X58445Y21483D01*
X58414Y21374D01*
X58386Y21264D01*
X58363Y21153D01*
X58343Y21042D01*
X58327Y20930D01*
X58315Y20817D01*
X58307Y20704D01*
X58303Y20591D01*
X58303Y20477D01*
X58307Y20364D01*
X58315Y20251D01*
X58327Y20138D01*
X58343Y20026D01*
X58363Y19915D01*
X58386Y19804D01*
X58414Y19694D01*
X58445Y19585D01*
X58480Y19477D01*
X58519Y19371D01*
X58561Y19266D01*
X58607Y19162D01*
X58657Y19060D01*
X58710Y18960D01*
X58767Y18862D01*
X58827Y18766D01*
X58890Y18672D01*
X61869Y14418D01*
X61868Y14418D02*
X61935Y14327D01*
X62004Y14237D01*
X62077Y14150D01*
X62153Y14066D01*
X62232Y13985D01*
X62313Y13906D01*
X62397Y13830D01*
X62484Y13757D01*
X62574Y13688D01*
X62665Y13621D01*
X62759Y13558D01*
X62855Y13498D01*
X62953Y13441D01*
X63053Y13388D01*
X63155Y13338D01*
X63259Y13292D01*
X63364Y13250D01*
X63470Y13211D01*
X63578Y13176D01*
X63687Y13145D01*
X63797Y13117D01*
X63908Y13094D01*
X64019Y13074D01*
X64131Y13058D01*
X64244Y13046D01*
X64357Y13038D01*
X64470Y13034D01*
X64584Y13034D01*
X64697Y13038D01*
X64810Y13046D01*
X64923Y13058D01*
X65035Y13074D01*
X65146Y13094D01*
X65257Y13117D01*
X65367Y13145D01*
X65476Y13176D01*
X65584Y13211D01*
X65690Y13250D01*
X65795Y13292D01*
X65899Y13338D01*
X66001Y13388D01*
X66101Y13441D01*
X66199Y13498D01*
X66295Y13558D01*
X66389Y13621D01*
X69047Y15483D01*
X-63729Y19683D02*
X-65324Y20800D01*
X-69047Y15483D01*
X-65857Y13249D01*
X-65774Y13194D01*
X-65690Y13142D01*
X-65603Y13093D01*
X-65515Y13047D01*
X-65425Y13005D01*
X-65333Y12966D01*
X-65240Y12931D01*
X-65146Y12899D01*
X-65051Y12871D01*
X-64954Y12847D01*
X-64857Y12826D01*
X-64759Y12810D01*
X-64660Y12797D01*
X-64561Y12787D01*
X-64462Y12782D01*
X-64362Y12780D01*
X-64263Y12782D01*
X-64164Y12788D01*
X-64065Y12798D01*
X-63966Y12811D01*
X-63868Y12829D01*
X-63771Y12850D01*
X-63675Y12874D01*
X-63579Y12903D01*
X-63485Y12935D01*
X-63392Y12970D01*
X-63301Y13009D01*
X-63211Y13052D01*
X-63123Y13098D01*
X-63037Y13147D01*
X-62952Y13200D01*
X-62870Y13256D01*
X-62790Y13315D01*
X-62712Y13377D01*
X-62637Y13442D01*
X-62564Y13509D01*
X-62494Y13580D01*
X-62426Y13653D01*
X-62362Y13729D01*
X-62300Y13807D01*
X-62241Y13887D01*
X-58518Y19204D01*
X-58463Y19287D01*
X-58411Y19371D01*
X-58362Y19458D01*
X-58316Y19546D01*
X-58274Y19636D01*
X-58235Y19728D01*
X-58200Y19821D01*
X-58168Y19915D01*
X-58140Y20010D01*
X-58116Y20107D01*
X-58095Y20204D01*
X-58079Y20302D01*
X-58066Y20401D01*
X-58056Y20500D01*
X-58051Y20599D01*
X-58049Y20699D01*
X-58051Y20798D01*
X-58057Y20897D01*
X-58067Y20996D01*
X-58080Y21095D01*
X-58098Y21193D01*
X-58119Y21290D01*
X-58143Y21386D01*
X-58172Y21482D01*
X-58204Y21576D01*
X-58239Y21669D01*
X-58278Y21760D01*
X-58321Y21850D01*
X-58367Y21938D01*
X-58416Y22024D01*
X-58469Y22109D01*
X-58525Y22191D01*
X-58584Y22271D01*
X-58646Y22349D01*
X-58711Y22424D01*
X-58778Y22497D01*
X-58849Y22567D01*
X-58922Y22635D01*
X-58998Y22699D01*
X-59076Y22761D01*
X-59156Y22820D01*
X-59155Y22820D02*
X-62346Y25054D01*
X-67016Y28324D02*
X-73717Y18753D01*
X-79035Y22476D02*
X-67016Y28324D01*
X-72333Y32047D02*
X-79035Y22476D01*
X-83704Y25746D02*
X-77003Y35317D01*
X-79661Y37178D01*
X-79661Y37179D02*
X-79755Y37242D01*
X-79851Y37302D01*
X-79949Y37359D01*
X-80049Y37412D01*
X-80151Y37462D01*
X-80255Y37508D01*
X-80360Y37550D01*
X-80466Y37589D01*
X-80574Y37624D01*
X-80683Y37655D01*
X-80793Y37683D01*
X-80904Y37706D01*
X-81015Y37726D01*
X-81127Y37742D01*
X-81240Y37754D01*
X-81353Y37762D01*
X-81466Y37766D01*
X-81580Y37766D01*
X-81693Y37762D01*
X-81806Y37754D01*
X-81919Y37742D01*
X-82031Y37726D01*
X-82142Y37706D01*
X-82253Y37683D01*
X-82363Y37655D01*
X-82472Y37624D01*
X-82580Y37589D01*
X-82686Y37550D01*
X-82791Y37508D01*
X-82895Y37462D01*
X-82997Y37412D01*
X-83097Y37359D01*
X-83195Y37302D01*
X-83291Y37242D01*
X-83385Y37179D01*
X-83476Y37112D01*
X-83566Y37043D01*
X-83653Y36970D01*
X-83737Y36894D01*
X-83818Y36815D01*
X-83897Y36734D01*
X-83973Y36650D01*
X-84046Y36563D01*
X-84115Y36474D01*
X-84182Y36382D01*
X-84182Y36381D02*
X-87160Y32128D01*
X-87161Y32128D02*
X-87224Y32034D01*
X-87284Y31938D01*
X-87341Y31840D01*
X-87394Y31740D01*
X-87444Y31638D01*
X-87490Y31534D01*
X-87532Y31429D01*
X-87571Y31323D01*
X-87606Y31215D01*
X-87637Y31106D01*
X-87665Y30996D01*
X-87688Y30885D01*
X-87708Y30774D01*
X-87724Y30662D01*
X-87736Y30549D01*
X-87744Y30436D01*
X-87748Y30323D01*
X-87748Y30209D01*
X-87744Y30096D01*
X-87736Y29983D01*
X-87724Y29870D01*
X-87708Y29758D01*
X-87688Y29647D01*
X-87665Y29536D01*
X-87637Y29426D01*
X-87606Y29317D01*
X-87571Y29209D01*
X-87532Y29103D01*
X-87490Y28998D01*
X-87444Y28894D01*
X-87394Y28792D01*
X-87341Y28692D01*
X-87284Y28594D01*
X-87224Y28498D01*
X-87161Y28404D01*
X-87094Y28312D01*
X-87025Y28223D01*
X-86952Y28136D01*
X-86876Y28052D01*
X-86797Y27971D01*
X-86716Y27892D01*
X-86632Y27816D01*
X-86545Y27743D01*
X-86455Y27674D01*
X-86364Y27607D01*
X-86363Y27607D02*
X-83704Y25746D01*
X-143813Y139919D02*
X-143813Y141866D01*
X-150305Y141866D01*
X-150305Y137971D01*
X-150304Y137971D02*
X-150302Y137872D01*
X-150296Y137772D01*
X-150287Y137673D01*
X-150274Y137575D01*
X-150257Y137477D01*
X-150236Y137379D01*
X-150211Y137283D01*
X-150183Y137188D01*
X-150151Y137094D01*
X-150116Y137001D01*
X-150077Y136909D01*
X-150034Y136819D01*
X-149989Y136731D01*
X-149939Y136644D01*
X-149887Y136560D01*
X-149831Y136477D01*
X-149773Y136397D01*
X-149711Y136319D01*
X-149646Y136244D01*
X-149578Y136171D01*
X-149508Y136101D01*
X-149435Y136033D01*
X-149360Y135968D01*
X-149282Y135906D01*
X-149202Y135848D01*
X-149119Y135792D01*
X-149035Y135740D01*
X-148948Y135690D01*
X-148860Y135645D01*
X-148770Y135602D01*
X-148678Y135563D01*
X-148585Y135528D01*
X-148491Y135496D01*
X-148396Y135468D01*
X-148300Y135443D01*
X-148202Y135422D01*
X-148104Y135405D01*
X-148006Y135392D01*
X-147907Y135383D01*
X-147807Y135377D01*
X-147708Y135375D01*
X-141217Y135375D01*
X-141118Y135377D01*
X-141018Y135383D01*
X-140919Y135392D01*
X-140821Y135405D01*
X-140723Y135423D01*
X-140625Y135443D01*
X-140529Y135468D01*
X-140433Y135496D01*
X-140339Y135528D01*
X-140246Y135563D01*
X-140155Y135602D01*
X-140065Y135645D01*
X-139976Y135690D01*
X-139890Y135740D01*
X-139805Y135792D01*
X-139723Y135848D01*
X-139643Y135907D01*
X-139565Y135968D01*
X-139489Y136033D01*
X-139416Y136101D01*
X-139346Y136171D01*
X-139278Y136244D01*
X-139213Y136320D01*
X-139152Y136398D01*
X-139093Y136478D01*
X-139037Y136560D01*
X-138985Y136645D01*
X-138936Y136731D01*
X-138890Y136820D01*
X-138847Y136910D01*
X-138808Y137001D01*
X-138773Y137094D01*
X-138741Y137188D01*
X-138713Y137284D01*
X-138688Y137380D01*
X-138668Y137478D01*
X-138650Y137576D01*
X-138637Y137674D01*
X-138628Y137773D01*
X-138622Y137872D01*
X-138620Y137972D01*
X-138621Y137971D02*
X-138621Y141866D01*
X-138621Y147567D02*
X-150305Y147567D01*
X-150305Y154058D02*
X-138621Y147567D01*
X-138621Y154058D02*
X-150305Y154058D01*
X-150305Y159759D02*
X-138621Y159759D01*
X-138621Y163004D01*
X-138620Y163004D02*
X-138622Y163117D01*
X-138628Y163230D01*
X-138638Y163343D01*
X-138652Y163456D01*
X-138669Y163568D01*
X-138691Y163679D01*
X-138716Y163789D01*
X-138746Y163899D01*
X-138779Y164007D01*
X-138816Y164114D01*
X-138856Y164220D01*
X-138901Y164324D01*
X-138949Y164427D01*
X-139000Y164528D01*
X-139055Y164627D01*
X-139113Y164724D01*
X-139175Y164819D01*
X-139240Y164912D01*
X-139308Y165002D01*
X-139379Y165090D01*
X-139454Y165176D01*
X-139531Y165259D01*
X-139611Y165339D01*
X-139694Y165416D01*
X-139780Y165491D01*
X-139868Y165562D01*
X-139958Y165630D01*
X-140051Y165695D01*
X-140146Y165757D01*
X-140243Y165815D01*
X-140342Y165870D01*
X-140443Y165921D01*
X-140546Y165969D01*
X-140650Y166014D01*
X-140756Y166054D01*
X-140863Y166091D01*
X-140971Y166124D01*
X-141081Y166154D01*
X-141191Y166179D01*
X-141302Y166201D01*
X-141414Y166218D01*
X-141527Y166232D01*
X-141640Y166242D01*
X-141753Y166248D01*
X-141866Y166250D01*
X-147059Y166250D01*
X-147059Y166251D02*
X-147172Y166249D01*
X-147285Y166243D01*
X-147398Y166233D01*
X-147511Y166219D01*
X-147623Y166202D01*
X-147734Y166180D01*
X-147844Y166155D01*
X-147954Y166125D01*
X-148062Y166092D01*
X-148169Y166055D01*
X-148275Y166015D01*
X-148379Y165970D01*
X-148482Y165922D01*
X-148583Y165871D01*
X-148682Y165816D01*
X-148779Y165758D01*
X-148874Y165696D01*
X-148967Y165631D01*
X-149057Y165563D01*
X-149145Y165492D01*
X-149231Y165417D01*
X-149314Y165340D01*
X-149394Y165260D01*
X-149471Y165177D01*
X-149546Y165091D01*
X-149617Y165003D01*
X-149685Y164913D01*
X-149750Y164820D01*
X-149812Y164725D01*
X-149870Y164628D01*
X-149925Y164529D01*
X-149976Y164428D01*
X-150024Y164325D01*
X-150069Y164221D01*
X-150109Y164115D01*
X-150146Y164008D01*
X-150179Y163900D01*
X-150209Y163790D01*
X-150234Y163680D01*
X-150256Y163569D01*
X-150273Y163457D01*
X-150287Y163344D01*
X-150297Y163231D01*
X-150303Y163118D01*
X-150305Y163005D01*
X-150305Y163004D02*
X-150305Y159759D01*
X-66069Y281888D02*
X-64474Y283005D01*
X-66069Y281888D02*
X-62346Y276571D01*
X-59156Y278805D01*
X-59076Y278864D01*
X-58998Y278926D01*
X-58922Y278990D01*
X-58849Y279058D01*
X-58778Y279128D01*
X-58711Y279201D01*
X-58646Y279276D01*
X-58584Y279354D01*
X-58525Y279434D01*
X-58469Y279516D01*
X-58416Y279601D01*
X-58367Y279687D01*
X-58321Y279775D01*
X-58278Y279865D01*
X-58239Y279956D01*
X-58204Y280049D01*
X-58172Y280143D01*
X-58143Y280239D01*
X-58119Y280335D01*
X-58098Y280432D01*
X-58080Y280530D01*
X-58067Y280629D01*
X-58057Y280728D01*
X-58051Y280827D01*
X-58049Y280926D01*
X-58051Y281026D01*
X-58056Y281125D01*
X-58066Y281224D01*
X-58079Y281323D01*
X-58095Y281421D01*
X-58116Y281518D01*
X-58140Y281615D01*
X-58168Y281710D01*
X-58200Y281804D01*
X-58235Y281897D01*
X-58274Y281989D01*
X-58316Y282079D01*
X-58362Y282167D01*
X-58411Y282254D01*
X-58463Y282338D01*
X-58518Y282421D01*
X-62241Y287738D01*
X-62300Y287818D01*
X-62362Y287896D01*
X-62426Y287972D01*
X-62494Y288045D01*
X-62564Y288116D01*
X-62637Y288183D01*
X-62712Y288248D01*
X-62790Y288310D01*
X-62870Y288369D01*
X-62952Y288425D01*
X-63037Y288478D01*
X-63123Y288527D01*
X-63211Y288573D01*
X-63301Y288616D01*
X-63392Y288655D01*
X-63485Y288690D01*
X-63579Y288722D01*
X-63675Y288751D01*
X-63771Y288775D01*
X-63868Y288796D01*
X-63966Y288814D01*
X-64065Y288827D01*
X-64164Y288837D01*
X-64263Y288843D01*
X-64362Y288845D01*
X-64462Y288843D01*
X-64561Y288838D01*
X-64660Y288828D01*
X-64759Y288815D01*
X-64857Y288799D01*
X-64954Y288778D01*
X-65051Y288754D01*
X-65146Y288726D01*
X-65240Y288694D01*
X-65333Y288659D01*
X-65425Y288620D01*
X-65515Y288578D01*
X-65603Y288532D01*
X-65690Y288483D01*
X-65774Y288431D01*
X-65857Y288376D01*
X-69047Y286142D01*
X-73717Y282872D02*
X-67016Y273301D01*
X-72333Y269578D02*
X-73717Y282872D01*
X-79035Y279149D02*
X-72333Y269578D01*
X-77003Y266308D02*
X-83705Y275879D01*
X-86363Y274017D01*
X-86364Y274018D02*
X-86455Y273951D01*
X-86545Y273882D01*
X-86632Y273809D01*
X-86716Y273733D01*
X-86797Y273654D01*
X-86876Y273573D01*
X-86952Y273489D01*
X-87025Y273402D01*
X-87094Y273312D01*
X-87161Y273221D01*
X-87224Y273127D01*
X-87284Y273031D01*
X-87341Y272933D01*
X-87394Y272833D01*
X-87444Y272731D01*
X-87490Y272627D01*
X-87532Y272522D01*
X-87571Y272416D01*
X-87606Y272308D01*
X-87637Y272199D01*
X-87665Y272089D01*
X-87688Y271978D01*
X-87708Y271867D01*
X-87724Y271755D01*
X-87736Y271642D01*
X-87744Y271529D01*
X-87748Y271416D01*
X-87748Y271302D01*
X-87744Y271189D01*
X-87736Y271076D01*
X-87724Y270963D01*
X-87708Y270851D01*
X-87688Y270740D01*
X-87665Y270629D01*
X-87637Y270519D01*
X-87606Y270410D01*
X-87571Y270302D01*
X-87532Y270196D01*
X-87490Y270091D01*
X-87444Y269987D01*
X-87394Y269885D01*
X-87341Y269785D01*
X-87284Y269687D01*
X-87224Y269591D01*
X-87161Y269497D01*
X-87160Y269497D02*
X-84182Y265243D01*
X-84115Y265152D01*
X-84046Y265062D01*
X-83973Y264975D01*
X-83897Y264891D01*
X-83818Y264810D01*
X-83737Y264731D01*
X-83653Y264655D01*
X-83566Y264582D01*
X-83476Y264513D01*
X-83385Y264446D01*
X-83291Y264383D01*
X-83195Y264323D01*
X-83097Y264266D01*
X-82997Y264213D01*
X-82895Y264163D01*
X-82791Y264117D01*
X-82686Y264075D01*
X-82580Y264036D01*
X-82472Y264001D01*
X-82363Y263970D01*
X-82253Y263942D01*
X-82142Y263919D01*
X-82031Y263899D01*
X-81919Y263883D01*
X-81806Y263871D01*
X-81693Y263863D01*
X-81580Y263859D01*
X-81466Y263859D01*
X-81353Y263863D01*
X-81240Y263871D01*
X-81127Y263883D01*
X-81015Y263899D01*
X-80904Y263919D01*
X-80793Y263942D01*
X-80683Y263970D01*
X-80574Y264001D01*
X-80466Y264036D01*
X-80360Y264075D01*
X-80255Y264117D01*
X-80151Y264163D01*
X-80049Y264213D01*
X-79949Y264266D01*
X-79851Y264323D01*
X-79755Y264383D01*
X-79661Y264446D01*
X-77003Y266308D01*
D11*
X109774Y235903D02*
X109774Y218123D01*
X109774Y235903D02*
X104835Y235903D01*
X104695Y235901D01*
X104556Y235895D01*
X104416Y235885D01*
X104277Y235871D01*
X104138Y235854D01*
X104000Y235832D01*
X103863Y235806D01*
X103726Y235777D01*
X103590Y235744D01*
X103456Y235707D01*
X103322Y235666D01*
X103190Y235621D01*
X103058Y235572D01*
X102929Y235520D01*
X102801Y235465D01*
X102674Y235405D01*
X102549Y235342D01*
X102426Y235276D01*
X102305Y235206D01*
X102186Y235133D01*
X102069Y235056D01*
X101955Y234976D01*
X101842Y234893D01*
X101732Y234807D01*
X101625Y234717D01*
X101520Y234625D01*
X101418Y234530D01*
X101318Y234432D01*
X101221Y234331D01*
X101127Y234227D01*
X101037Y234121D01*
X100949Y234012D01*
X100864Y233901D01*
X100783Y233787D01*
X100704Y233672D01*
X100629Y233554D01*
X100558Y233434D01*
X100490Y233311D01*
X100425Y233188D01*
X100364Y233062D01*
X100306Y232934D01*
X100252Y232806D01*
X100202Y232675D01*
X100155Y232543D01*
X100112Y232410D01*
X100073Y232276D01*
X100038Y232141D01*
X100007Y232005D01*
X99979Y231867D01*
X99956Y231730D01*
X99936Y231591D01*
X99920Y231452D01*
X99908Y231313D01*
X99900Y231174D01*
X99896Y231034D01*
X99896Y230894D01*
X99900Y230754D01*
X99908Y230615D01*
X99920Y230476D01*
X99936Y230337D01*
X99956Y230198D01*
X99979Y230061D01*
X100007Y229923D01*
X100038Y229787D01*
X100073Y229652D01*
X100112Y229518D01*
X100155Y229385D01*
X100202Y229253D01*
X100252Y229122D01*
X100306Y228994D01*
X100364Y228866D01*
X100425Y228740D01*
X100490Y228617D01*
X100558Y228494D01*
X100629Y228374D01*
X100704Y228256D01*
X100783Y228141D01*
X100864Y228027D01*
X100949Y227916D01*
X101037Y227807D01*
X101127Y227701D01*
X101221Y227597D01*
X101318Y227496D01*
X101418Y227398D01*
X101520Y227303D01*
X101625Y227211D01*
X101732Y227121D01*
X101842Y227035D01*
X101955Y226952D01*
X102069Y226872D01*
X102186Y226795D01*
X102305Y226722D01*
X102426Y226652D01*
X102549Y226586D01*
X102674Y226523D01*
X102801Y226463D01*
X102929Y226408D01*
X103058Y226356D01*
X103190Y226307D01*
X103322Y226262D01*
X103456Y226221D01*
X103590Y226184D01*
X103726Y226151D01*
X103863Y226122D01*
X104000Y226096D01*
X104138Y226074D01*
X104277Y226057D01*
X104416Y226043D01*
X104556Y226033D01*
X104695Y226027D01*
X104835Y226025D01*
X109774Y226025D01*
X93779Y231951D02*
X88840Y235903D01*
X88840Y218123D01*
X93779Y218123D02*
X83901Y218123D01*
X111361Y72390D02*
X111361Y54610D01*
X111361Y72390D02*
X106423Y72390D01*
X106283Y72388D01*
X106144Y72382D01*
X106004Y72372D01*
X105865Y72358D01*
X105726Y72341D01*
X105588Y72319D01*
X105451Y72293D01*
X105314Y72264D01*
X105178Y72231D01*
X105044Y72194D01*
X104910Y72153D01*
X104778Y72108D01*
X104646Y72059D01*
X104517Y72007D01*
X104389Y71952D01*
X104262Y71892D01*
X104137Y71829D01*
X104014Y71763D01*
X103893Y71693D01*
X103774Y71620D01*
X103657Y71543D01*
X103543Y71463D01*
X103430Y71380D01*
X103320Y71294D01*
X103213Y71204D01*
X103108Y71112D01*
X103006Y71017D01*
X102906Y70919D01*
X102809Y70818D01*
X102715Y70714D01*
X102625Y70608D01*
X102537Y70499D01*
X102452Y70388D01*
X102371Y70274D01*
X102292Y70159D01*
X102217Y70041D01*
X102146Y69920D01*
X102078Y69798D01*
X102013Y69675D01*
X101952Y69549D01*
X101894Y69421D01*
X101840Y69293D01*
X101790Y69162D01*
X101743Y69030D01*
X101700Y68897D01*
X101661Y68763D01*
X101626Y68628D01*
X101595Y68492D01*
X101567Y68354D01*
X101544Y68217D01*
X101524Y68078D01*
X101508Y67939D01*
X101496Y67800D01*
X101488Y67661D01*
X101484Y67521D01*
X101484Y67381D01*
X101488Y67241D01*
X101496Y67102D01*
X101508Y66963D01*
X101524Y66824D01*
X101544Y66685D01*
X101567Y66548D01*
X101595Y66410D01*
X101626Y66274D01*
X101661Y66139D01*
X101700Y66005D01*
X101743Y65872D01*
X101790Y65740D01*
X101840Y65609D01*
X101894Y65481D01*
X101952Y65353D01*
X102013Y65227D01*
X102078Y65104D01*
X102146Y64981D01*
X102217Y64861D01*
X102292Y64743D01*
X102371Y64628D01*
X102452Y64514D01*
X102537Y64403D01*
X102625Y64294D01*
X102715Y64188D01*
X102809Y64084D01*
X102906Y63983D01*
X103006Y63885D01*
X103108Y63790D01*
X103213Y63698D01*
X103320Y63608D01*
X103430Y63522D01*
X103543Y63439D01*
X103657Y63359D01*
X103774Y63282D01*
X103893Y63209D01*
X104014Y63139D01*
X104137Y63073D01*
X104262Y63010D01*
X104389Y62950D01*
X104517Y62895D01*
X104646Y62843D01*
X104778Y62794D01*
X104910Y62749D01*
X105044Y62708D01*
X105178Y62671D01*
X105314Y62638D01*
X105451Y62609D01*
X105588Y62583D01*
X105726Y62561D01*
X105865Y62544D01*
X106004Y62530D01*
X106144Y62520D01*
X106283Y62514D01*
X106423Y62512D01*
X111361Y62512D01*
X89934Y72390D02*
X89802Y72388D01*
X89671Y72382D01*
X89539Y72372D01*
X89408Y72359D01*
X89278Y72341D01*
X89148Y72320D01*
X89018Y72295D01*
X88890Y72266D01*
X88762Y72233D01*
X88636Y72196D01*
X88510Y72156D01*
X88386Y72112D01*
X88263Y72064D01*
X88142Y72013D01*
X88022Y71958D01*
X87904Y71900D01*
X87788Y71838D01*
X87674Y71772D01*
X87561Y71704D01*
X87451Y71632D01*
X87343Y71557D01*
X87237Y71478D01*
X87133Y71397D01*
X87032Y71312D01*
X86934Y71225D01*
X86838Y71134D01*
X86745Y71041D01*
X86654Y70945D01*
X86567Y70847D01*
X86482Y70746D01*
X86401Y70642D01*
X86322Y70536D01*
X86247Y70428D01*
X86175Y70318D01*
X86107Y70205D01*
X86041Y70091D01*
X85979Y69975D01*
X85921Y69857D01*
X85866Y69737D01*
X85815Y69616D01*
X85767Y69493D01*
X85723Y69369D01*
X85683Y69243D01*
X85646Y69117D01*
X85613Y68989D01*
X85584Y68861D01*
X85559Y68731D01*
X85538Y68601D01*
X85520Y68471D01*
X85507Y68340D01*
X85497Y68208D01*
X85491Y68077D01*
X85489Y67945D01*
X89934Y72390D02*
X90084Y72388D01*
X90233Y72382D01*
X90382Y72372D01*
X90531Y72359D01*
X90680Y72341D01*
X90828Y72320D01*
X90976Y72294D01*
X91122Y72265D01*
X91268Y72232D01*
X91413Y72195D01*
X91557Y72154D01*
X91700Y72110D01*
X91842Y72062D01*
X91982Y72010D01*
X92121Y71955D01*
X92259Y71896D01*
X92394Y71833D01*
X92529Y71767D01*
X92661Y71697D01*
X92791Y71624D01*
X92920Y71547D01*
X93047Y71467D01*
X93171Y71384D01*
X93293Y71298D01*
X93413Y71208D01*
X93530Y71115D01*
X93645Y71020D01*
X93758Y70921D01*
X93868Y70819D01*
X93975Y70715D01*
X94079Y70608D01*
X94181Y70498D01*
X94279Y70385D01*
X94375Y70270D01*
X94467Y70152D01*
X94557Y70032D01*
X94643Y69910D01*
X94726Y69786D01*
X94806Y69659D01*
X94882Y69531D01*
X94955Y69400D01*
X95025Y69267D01*
X95091Y69133D01*
X95153Y68997D01*
X95212Y68860D01*
X95268Y68721D01*
X95319Y68580D01*
X95367Y68439D01*
X86971Y64488D02*
X86875Y64581D01*
X86783Y64677D01*
X86693Y64776D01*
X86606Y64877D01*
X86522Y64980D01*
X86440Y65085D01*
X86362Y65193D01*
X86287Y65303D01*
X86214Y65415D01*
X86145Y65529D01*
X86079Y65645D01*
X86017Y65763D01*
X85958Y65882D01*
X85902Y66003D01*
X85849Y66126D01*
X85800Y66250D01*
X85755Y66375D01*
X85712Y66502D01*
X85674Y66629D01*
X85639Y66758D01*
X85608Y66887D01*
X85580Y67018D01*
X85556Y67149D01*
X85535Y67281D01*
X85519Y67413D01*
X85506Y67546D01*
X85496Y67679D01*
X85491Y67812D01*
X85489Y67945D01*
X86970Y64488D02*
X95366Y54610D01*
X85489Y54610D01*
X11349Y39053D02*
X11349Y21273D01*
X11349Y39053D02*
X6410Y39053D01*
X6270Y39051D01*
X6131Y39045D01*
X5991Y39035D01*
X5852Y39021D01*
X5713Y39004D01*
X5575Y38982D01*
X5438Y38956D01*
X5301Y38927D01*
X5165Y38894D01*
X5031Y38857D01*
X4897Y38816D01*
X4765Y38771D01*
X4633Y38722D01*
X4504Y38670D01*
X4376Y38615D01*
X4249Y38555D01*
X4124Y38492D01*
X4001Y38426D01*
X3880Y38356D01*
X3761Y38283D01*
X3644Y38206D01*
X3530Y38126D01*
X3417Y38043D01*
X3307Y37957D01*
X3200Y37867D01*
X3095Y37775D01*
X2993Y37680D01*
X2893Y37582D01*
X2796Y37481D01*
X2702Y37377D01*
X2612Y37271D01*
X2524Y37162D01*
X2439Y37051D01*
X2358Y36937D01*
X2279Y36822D01*
X2204Y36704D01*
X2133Y36583D01*
X2065Y36461D01*
X2000Y36338D01*
X1939Y36212D01*
X1881Y36084D01*
X1827Y35956D01*
X1777Y35825D01*
X1730Y35693D01*
X1687Y35560D01*
X1648Y35426D01*
X1613Y35291D01*
X1582Y35155D01*
X1554Y35017D01*
X1531Y34880D01*
X1511Y34741D01*
X1495Y34602D01*
X1483Y34463D01*
X1475Y34324D01*
X1471Y34184D01*
X1471Y34044D01*
X1475Y33904D01*
X1483Y33765D01*
X1495Y33626D01*
X1511Y33487D01*
X1531Y33348D01*
X1554Y33211D01*
X1582Y33073D01*
X1613Y32937D01*
X1648Y32802D01*
X1687Y32668D01*
X1730Y32535D01*
X1777Y32403D01*
X1827Y32272D01*
X1881Y32144D01*
X1939Y32016D01*
X2000Y31890D01*
X2065Y31767D01*
X2133Y31644D01*
X2204Y31524D01*
X2279Y31406D01*
X2358Y31291D01*
X2439Y31177D01*
X2524Y31066D01*
X2612Y30957D01*
X2702Y30851D01*
X2796Y30747D01*
X2893Y30646D01*
X2993Y30548D01*
X3095Y30453D01*
X3200Y30361D01*
X3307Y30271D01*
X3417Y30185D01*
X3530Y30102D01*
X3644Y30022D01*
X3761Y29945D01*
X3880Y29872D01*
X4001Y29802D01*
X4124Y29736D01*
X4249Y29673D01*
X4376Y29613D01*
X4504Y29558D01*
X4633Y29506D01*
X4765Y29457D01*
X4897Y29412D01*
X5031Y29371D01*
X5165Y29334D01*
X5301Y29301D01*
X5438Y29272D01*
X5575Y29246D01*
X5713Y29224D01*
X5852Y29207D01*
X5991Y29193D01*
X6131Y29183D01*
X6270Y29177D01*
X6410Y29175D01*
X11349Y29175D01*
X-4646Y21273D02*
X-9585Y21273D01*
X-9585Y21272D02*
X-9725Y21274D01*
X-9864Y21280D01*
X-10004Y21290D01*
X-10143Y21304D01*
X-10282Y21321D01*
X-10420Y21343D01*
X-10557Y21369D01*
X-10694Y21398D01*
X-10830Y21431D01*
X-10964Y21468D01*
X-11098Y21509D01*
X-11230Y21554D01*
X-11362Y21603D01*
X-11491Y21655D01*
X-11619Y21710D01*
X-11746Y21770D01*
X-11871Y21833D01*
X-11994Y21899D01*
X-12115Y21969D01*
X-12234Y22042D01*
X-12351Y22119D01*
X-12465Y22199D01*
X-12578Y22282D01*
X-12688Y22368D01*
X-12795Y22458D01*
X-12900Y22550D01*
X-13002Y22645D01*
X-13102Y22743D01*
X-13199Y22844D01*
X-13293Y22948D01*
X-13383Y23054D01*
X-13471Y23163D01*
X-13556Y23274D01*
X-13637Y23388D01*
X-13716Y23503D01*
X-13791Y23621D01*
X-13862Y23741D01*
X-13930Y23864D01*
X-13995Y23987D01*
X-14056Y24113D01*
X-14114Y24241D01*
X-14168Y24369D01*
X-14218Y24500D01*
X-14265Y24632D01*
X-14308Y24765D01*
X-14347Y24899D01*
X-14382Y25034D01*
X-14413Y25170D01*
X-14441Y25308D01*
X-14464Y25445D01*
X-14484Y25584D01*
X-14500Y25723D01*
X-14512Y25862D01*
X-14520Y26001D01*
X-14524Y26141D01*
X-14524Y26281D01*
X-14520Y26421D01*
X-14512Y26560D01*
X-14500Y26699D01*
X-14484Y26838D01*
X-14464Y26977D01*
X-14441Y27114D01*
X-14413Y27252D01*
X-14382Y27388D01*
X-14347Y27523D01*
X-14308Y27657D01*
X-14265Y27790D01*
X-14218Y27922D01*
X-14168Y28053D01*
X-14114Y28181D01*
X-14056Y28309D01*
X-13995Y28435D01*
X-13930Y28558D01*
X-13862Y28680D01*
X-13791Y28801D01*
X-13716Y28919D01*
X-13637Y29034D01*
X-13556Y29148D01*
X-13471Y29259D01*
X-13383Y29368D01*
X-13293Y29474D01*
X-13199Y29578D01*
X-13102Y29679D01*
X-13002Y29777D01*
X-12900Y29872D01*
X-12795Y29964D01*
X-12688Y30054D01*
X-12578Y30140D01*
X-12465Y30223D01*
X-12351Y30303D01*
X-12234Y30380D01*
X-12115Y30453D01*
X-11994Y30523D01*
X-11871Y30589D01*
X-11746Y30652D01*
X-11619Y30712D01*
X-11491Y30767D01*
X-11362Y30819D01*
X-11230Y30868D01*
X-11098Y30913D01*
X-10964Y30954D01*
X-10830Y30991D01*
X-10694Y31024D01*
X-10557Y31053D01*
X-10420Y31079D01*
X-10282Y31101D01*
X-10143Y31118D01*
X-10004Y31132D01*
X-9864Y31142D01*
X-9725Y31148D01*
X-9585Y31150D01*
X-10573Y39053D02*
X-4646Y39053D01*
X-10573Y39052D02*
X-10697Y39050D01*
X-10821Y39044D01*
X-10945Y39034D01*
X-11068Y39021D01*
X-11191Y39003D01*
X-11313Y38982D01*
X-11435Y38957D01*
X-11556Y38928D01*
X-11675Y38895D01*
X-11794Y38859D01*
X-11911Y38818D01*
X-12027Y38775D01*
X-12142Y38727D01*
X-12255Y38676D01*
X-12367Y38621D01*
X-12476Y38563D01*
X-12584Y38502D01*
X-12690Y38437D01*
X-12794Y38369D01*
X-12895Y38297D01*
X-12995Y38223D01*
X-13091Y38145D01*
X-13186Y38065D01*
X-13278Y37981D01*
X-13367Y37895D01*
X-13453Y37806D01*
X-13537Y37714D01*
X-13617Y37619D01*
X-13695Y37523D01*
X-13769Y37423D01*
X-13841Y37322D01*
X-13909Y37218D01*
X-13974Y37112D01*
X-14035Y37004D01*
X-14093Y36895D01*
X-14148Y36783D01*
X-14199Y36670D01*
X-14247Y36555D01*
X-14290Y36439D01*
X-14331Y36322D01*
X-14367Y36203D01*
X-14400Y36084D01*
X-14429Y35963D01*
X-14454Y35841D01*
X-14475Y35719D01*
X-14493Y35596D01*
X-14506Y35473D01*
X-14516Y35349D01*
X-14522Y35225D01*
X-14524Y35101D01*
X-14522Y34977D01*
X-14516Y34853D01*
X-14506Y34729D01*
X-14493Y34606D01*
X-14475Y34483D01*
X-14454Y34361D01*
X-14429Y34239D01*
X-14400Y34118D01*
X-14367Y33999D01*
X-14331Y33880D01*
X-14290Y33763D01*
X-14247Y33647D01*
X-14199Y33532D01*
X-14148Y33419D01*
X-14093Y33307D01*
X-14035Y33198D01*
X-13974Y33090D01*
X-13909Y32984D01*
X-13841Y32880D01*
X-13769Y32779D01*
X-13695Y32679D01*
X-13617Y32583D01*
X-13537Y32488D01*
X-13453Y32396D01*
X-13367Y32307D01*
X-13278Y32221D01*
X-13186Y32137D01*
X-13091Y32057D01*
X-12995Y31979D01*
X-12895Y31905D01*
X-12794Y31833D01*
X-12690Y31765D01*
X-12584Y31700D01*
X-12476Y31639D01*
X-12367Y31581D01*
X-12255Y31526D01*
X-12142Y31475D01*
X-12027Y31427D01*
X-11911Y31384D01*
X-11794Y31343D01*
X-11675Y31307D01*
X-11556Y31274D01*
X-11435Y31245D01*
X-11313Y31220D01*
X-11191Y31199D01*
X-11068Y31181D01*
X-10945Y31168D01*
X-10821Y31158D01*
X-10697Y31152D01*
X-10573Y31150D01*
X-6622Y31150D01*
X-83901Y62548D02*
X-83901Y80328D01*
X-88840Y80328D01*
X-88980Y80326D01*
X-89119Y80320D01*
X-89259Y80310D01*
X-89398Y80296D01*
X-89537Y80279D01*
X-89675Y80257D01*
X-89812Y80231D01*
X-89949Y80202D01*
X-90085Y80169D01*
X-90219Y80132D01*
X-90353Y80091D01*
X-90485Y80046D01*
X-90617Y79997D01*
X-90746Y79945D01*
X-90874Y79890D01*
X-91001Y79830D01*
X-91126Y79767D01*
X-91249Y79701D01*
X-91370Y79631D01*
X-91489Y79558D01*
X-91606Y79481D01*
X-91720Y79401D01*
X-91833Y79318D01*
X-91943Y79232D01*
X-92050Y79142D01*
X-92155Y79050D01*
X-92257Y78955D01*
X-92357Y78857D01*
X-92454Y78756D01*
X-92548Y78652D01*
X-92638Y78546D01*
X-92726Y78437D01*
X-92811Y78326D01*
X-92892Y78212D01*
X-92971Y78097D01*
X-93046Y77979D01*
X-93117Y77858D01*
X-93185Y77736D01*
X-93250Y77613D01*
X-93311Y77487D01*
X-93369Y77359D01*
X-93423Y77231D01*
X-93473Y77100D01*
X-93520Y76968D01*
X-93563Y76835D01*
X-93602Y76701D01*
X-93637Y76566D01*
X-93668Y76430D01*
X-93696Y76292D01*
X-93719Y76155D01*
X-93739Y76016D01*
X-93755Y75877D01*
X-93767Y75738D01*
X-93775Y75599D01*
X-93779Y75459D01*
X-93779Y75319D01*
X-93775Y75179D01*
X-93767Y75040D01*
X-93755Y74901D01*
X-93739Y74762D01*
X-93719Y74623D01*
X-93696Y74486D01*
X-93668Y74348D01*
X-93637Y74212D01*
X-93602Y74077D01*
X-93563Y73943D01*
X-93520Y73810D01*
X-93473Y73678D01*
X-93423Y73547D01*
X-93369Y73419D01*
X-93311Y73291D01*
X-93250Y73165D01*
X-93185Y73042D01*
X-93117Y72919D01*
X-93046Y72799D01*
X-92971Y72681D01*
X-92892Y72566D01*
X-92811Y72452D01*
X-92726Y72341D01*
X-92638Y72232D01*
X-92548Y72126D01*
X-92454Y72022D01*
X-92357Y71921D01*
X-92257Y71823D01*
X-92155Y71728D01*
X-92050Y71636D01*
X-91943Y71546D01*
X-91833Y71460D01*
X-91720Y71377D01*
X-91606Y71297D01*
X-91489Y71220D01*
X-91370Y71147D01*
X-91249Y71077D01*
X-91126Y71011D01*
X-91001Y70948D01*
X-90874Y70888D01*
X-90746Y70833D01*
X-90617Y70781D01*
X-90485Y70732D01*
X-90353Y70687D01*
X-90219Y70646D01*
X-90085Y70609D01*
X-89949Y70576D01*
X-89812Y70547D01*
X-89675Y70521D01*
X-89537Y70499D01*
X-89398Y70482D01*
X-89259Y70468D01*
X-89119Y70458D01*
X-88980Y70452D01*
X-88840Y70450D01*
X-83901Y70450D01*
X-99896Y66499D02*
X-103847Y80328D01*
X-99896Y66499D02*
X-109774Y66499D01*
X-106811Y70450D02*
X-106811Y62548D01*
X-83901Y214948D02*
X-83901Y232728D01*
X-88840Y232728D01*
X-88980Y232726D01*
X-89119Y232720D01*
X-89259Y232710D01*
X-89398Y232696D01*
X-89537Y232679D01*
X-89675Y232657D01*
X-89812Y232631D01*
X-89949Y232602D01*
X-90085Y232569D01*
X-90219Y232532D01*
X-90353Y232491D01*
X-90485Y232446D01*
X-90617Y232397D01*
X-90746Y232345D01*
X-90874Y232290D01*
X-91001Y232230D01*
X-91126Y232167D01*
X-91249Y232101D01*
X-91370Y232031D01*
X-91489Y231958D01*
X-91606Y231881D01*
X-91720Y231801D01*
X-91833Y231718D01*
X-91943Y231632D01*
X-92050Y231542D01*
X-92155Y231450D01*
X-92257Y231355D01*
X-92357Y231257D01*
X-92454Y231156D01*
X-92548Y231052D01*
X-92638Y230946D01*
X-92726Y230837D01*
X-92811Y230726D01*
X-92892Y230612D01*
X-92971Y230497D01*
X-93046Y230379D01*
X-93117Y230259D01*
X-93185Y230136D01*
X-93250Y230013D01*
X-93311Y229887D01*
X-93369Y229759D01*
X-93423Y229631D01*
X-93473Y229500D01*
X-93520Y229368D01*
X-93563Y229235D01*
X-93602Y229101D01*
X-93637Y228966D01*
X-93668Y228830D01*
X-93696Y228692D01*
X-93719Y228555D01*
X-93739Y228416D01*
X-93755Y228277D01*
X-93767Y228138D01*
X-93775Y227999D01*
X-93779Y227859D01*
X-93779Y227719D01*
X-93775Y227579D01*
X-93767Y227440D01*
X-93755Y227301D01*
X-93739Y227162D01*
X-93719Y227023D01*
X-93696Y226886D01*
X-93668Y226748D01*
X-93637Y226612D01*
X-93602Y226477D01*
X-93563Y226343D01*
X-93520Y226210D01*
X-93473Y226078D01*
X-93423Y225947D01*
X-93369Y225819D01*
X-93311Y225691D01*
X-93250Y225565D01*
X-93185Y225442D01*
X-93117Y225319D01*
X-93046Y225199D01*
X-92971Y225081D01*
X-92892Y224966D01*
X-92811Y224852D01*
X-92726Y224741D01*
X-92638Y224632D01*
X-92548Y224526D01*
X-92454Y224422D01*
X-92357Y224321D01*
X-92257Y224223D01*
X-92155Y224128D01*
X-92050Y224036D01*
X-91943Y223946D01*
X-91833Y223860D01*
X-91720Y223777D01*
X-91606Y223697D01*
X-91489Y223620D01*
X-91370Y223547D01*
X-91249Y223477D01*
X-91126Y223411D01*
X-91001Y223348D01*
X-90874Y223288D01*
X-90746Y223233D01*
X-90617Y223181D01*
X-90485Y223132D01*
X-90353Y223087D01*
X-90219Y223046D01*
X-90085Y223009D01*
X-89949Y222976D01*
X-89812Y222947D01*
X-89675Y222921D01*
X-89537Y222899D01*
X-89398Y222882D01*
X-89259Y222868D01*
X-89119Y222858D01*
X-88980Y222852D01*
X-88840Y222850D01*
X-83901Y222850D01*
X-99896Y214948D02*
X-105823Y214948D01*
X-105947Y214950D01*
X-106071Y214956D01*
X-106195Y214966D01*
X-106318Y214979D01*
X-106441Y214997D01*
X-106563Y215018D01*
X-106685Y215043D01*
X-106806Y215072D01*
X-106925Y215105D01*
X-107044Y215141D01*
X-107161Y215182D01*
X-107277Y215225D01*
X-107392Y215273D01*
X-107505Y215324D01*
X-107617Y215379D01*
X-107726Y215437D01*
X-107834Y215498D01*
X-107940Y215563D01*
X-108044Y215631D01*
X-108145Y215703D01*
X-108245Y215777D01*
X-108341Y215855D01*
X-108436Y215935D01*
X-108528Y216019D01*
X-108617Y216105D01*
X-108703Y216194D01*
X-108787Y216286D01*
X-108867Y216381D01*
X-108945Y216477D01*
X-109019Y216577D01*
X-109091Y216678D01*
X-109159Y216782D01*
X-109224Y216888D01*
X-109285Y216996D01*
X-109343Y217105D01*
X-109398Y217217D01*
X-109449Y217330D01*
X-109497Y217445D01*
X-109540Y217561D01*
X-109581Y217678D01*
X-109617Y217797D01*
X-109650Y217916D01*
X-109679Y218037D01*
X-109704Y218159D01*
X-109725Y218281D01*
X-109743Y218404D01*
X-109756Y218527D01*
X-109766Y218651D01*
X-109772Y218775D01*
X-109774Y218899D01*
X-109774Y220874D01*
X-109772Y220998D01*
X-109766Y221122D01*
X-109756Y221246D01*
X-109743Y221369D01*
X-109725Y221492D01*
X-109704Y221614D01*
X-109679Y221736D01*
X-109650Y221857D01*
X-109617Y221976D01*
X-109581Y222095D01*
X-109540Y222212D01*
X-109497Y222328D01*
X-109449Y222443D01*
X-109398Y222556D01*
X-109343Y222668D01*
X-109285Y222777D01*
X-109224Y222885D01*
X-109159Y222991D01*
X-109091Y223095D01*
X-109019Y223196D01*
X-108945Y223296D01*
X-108867Y223392D01*
X-108787Y223487D01*
X-108703Y223579D01*
X-108617Y223668D01*
X-108528Y223754D01*
X-108436Y223838D01*
X-108341Y223918D01*
X-108245Y223996D01*
X-108145Y224070D01*
X-108044Y224142D01*
X-107940Y224210D01*
X-107834Y224275D01*
X-107726Y224336D01*
X-107617Y224394D01*
X-107505Y224449D01*
X-107392Y224500D01*
X-107277Y224548D01*
X-107161Y224591D01*
X-107044Y224632D01*
X-106925Y224668D01*
X-106806Y224701D01*
X-106685Y224730D01*
X-106563Y224755D01*
X-106441Y224776D01*
X-106318Y224794D01*
X-106195Y224807D01*
X-106071Y224817D01*
X-105947Y224823D01*
X-105823Y224825D01*
X-99896Y224825D01*
X-99896Y232728D01*
X-109774Y232728D01*
X11349Y262573D02*
X11349Y280353D01*
X6410Y280353D01*
X6270Y280351D01*
X6131Y280345D01*
X5991Y280335D01*
X5852Y280321D01*
X5713Y280304D01*
X5575Y280282D01*
X5438Y280256D01*
X5301Y280227D01*
X5165Y280194D01*
X5031Y280157D01*
X4897Y280116D01*
X4765Y280071D01*
X4633Y280022D01*
X4504Y279970D01*
X4376Y279915D01*
X4249Y279855D01*
X4124Y279792D01*
X4001Y279726D01*
X3880Y279656D01*
X3761Y279583D01*
X3644Y279506D01*
X3530Y279426D01*
X3417Y279343D01*
X3307Y279257D01*
X3200Y279167D01*
X3095Y279075D01*
X2993Y278980D01*
X2893Y278882D01*
X2796Y278781D01*
X2702Y278677D01*
X2612Y278571D01*
X2524Y278462D01*
X2439Y278351D01*
X2358Y278237D01*
X2279Y278122D01*
X2204Y278004D01*
X2133Y277884D01*
X2065Y277761D01*
X2000Y277638D01*
X1939Y277512D01*
X1881Y277384D01*
X1827Y277256D01*
X1777Y277125D01*
X1730Y276993D01*
X1687Y276860D01*
X1648Y276726D01*
X1613Y276591D01*
X1582Y276455D01*
X1554Y276317D01*
X1531Y276180D01*
X1511Y276041D01*
X1495Y275902D01*
X1483Y275763D01*
X1475Y275624D01*
X1471Y275484D01*
X1471Y275344D01*
X1475Y275204D01*
X1483Y275065D01*
X1495Y274926D01*
X1511Y274787D01*
X1531Y274648D01*
X1554Y274511D01*
X1582Y274373D01*
X1613Y274237D01*
X1648Y274102D01*
X1687Y273968D01*
X1730Y273835D01*
X1777Y273703D01*
X1827Y273572D01*
X1881Y273444D01*
X1939Y273316D01*
X2000Y273190D01*
X2065Y273067D01*
X2133Y272945D01*
X2204Y272824D01*
X2279Y272706D01*
X2358Y272591D01*
X2439Y272477D01*
X2524Y272366D01*
X2612Y272257D01*
X2702Y272151D01*
X2796Y272047D01*
X2893Y271946D01*
X2993Y271848D01*
X3095Y271753D01*
X3200Y271661D01*
X3307Y271571D01*
X3417Y271485D01*
X3530Y271402D01*
X3644Y271322D01*
X3761Y271245D01*
X3880Y271172D01*
X4001Y271102D01*
X4124Y271036D01*
X4249Y270973D01*
X4376Y270913D01*
X4504Y270858D01*
X4633Y270806D01*
X4765Y270757D01*
X4897Y270712D01*
X5031Y270671D01*
X5165Y270634D01*
X5301Y270601D01*
X5438Y270572D01*
X5575Y270546D01*
X5713Y270524D01*
X5852Y270507D01*
X5991Y270493D01*
X6131Y270483D01*
X6270Y270477D01*
X6410Y270475D01*
X11349Y270475D01*
X-4646Y272450D02*
X-10573Y272450D01*
X-10697Y272448D01*
X-10821Y272442D01*
X-10945Y272432D01*
X-11068Y272419D01*
X-11191Y272401D01*
X-11313Y272380D01*
X-11435Y272355D01*
X-11556Y272326D01*
X-11675Y272293D01*
X-11794Y272257D01*
X-11911Y272216D01*
X-12027Y272173D01*
X-12142Y272125D01*
X-12255Y272074D01*
X-12367Y272019D01*
X-12476Y271961D01*
X-12584Y271900D01*
X-12690Y271835D01*
X-12794Y271767D01*
X-12895Y271695D01*
X-12995Y271621D01*
X-13091Y271543D01*
X-13186Y271463D01*
X-13278Y271379D01*
X-13367Y271293D01*
X-13453Y271204D01*
X-13537Y271112D01*
X-13617Y271017D01*
X-13695Y270921D01*
X-13769Y270821D01*
X-13841Y270720D01*
X-13909Y270616D01*
X-13974Y270510D01*
X-14035Y270402D01*
X-14093Y270293D01*
X-14148Y270181D01*
X-14199Y270068D01*
X-14247Y269953D01*
X-14290Y269837D01*
X-14331Y269720D01*
X-14367Y269601D01*
X-14400Y269482D01*
X-14429Y269361D01*
X-14454Y269239D01*
X-14475Y269117D01*
X-14493Y268994D01*
X-14506Y268871D01*
X-14516Y268747D01*
X-14522Y268623D01*
X-14524Y268499D01*
X-14524Y267511D01*
X-14522Y267371D01*
X-14516Y267232D01*
X-14506Y267092D01*
X-14492Y266953D01*
X-14475Y266814D01*
X-14453Y266676D01*
X-14427Y266539D01*
X-14398Y266402D01*
X-14365Y266266D01*
X-14328Y266132D01*
X-14287Y265998D01*
X-14242Y265866D01*
X-14193Y265734D01*
X-14141Y265605D01*
X-14086Y265477D01*
X-14026Y265350D01*
X-13963Y265225D01*
X-13897Y265102D01*
X-13827Y264981D01*
X-13754Y264862D01*
X-13677Y264745D01*
X-13597Y264631D01*
X-13514Y264518D01*
X-13428Y264408D01*
X-13338Y264301D01*
X-13246Y264196D01*
X-13151Y264094D01*
X-13053Y263994D01*
X-12952Y263897D01*
X-12848Y263803D01*
X-12742Y263713D01*
X-12633Y263625D01*
X-12522Y263540D01*
X-12408Y263459D01*
X-12293Y263380D01*
X-12175Y263305D01*
X-12054Y263234D01*
X-11932Y263166D01*
X-11809Y263101D01*
X-11683Y263040D01*
X-11555Y262982D01*
X-11427Y262928D01*
X-11296Y262878D01*
X-11164Y262831D01*
X-11031Y262788D01*
X-10897Y262749D01*
X-10762Y262714D01*
X-10626Y262683D01*
X-10488Y262655D01*
X-10351Y262632D01*
X-10212Y262612D01*
X-10073Y262596D01*
X-9934Y262584D01*
X-9795Y262576D01*
X-9655Y262572D01*
X-9515Y262572D01*
X-9375Y262576D01*
X-9236Y262584D01*
X-9097Y262596D01*
X-8958Y262612D01*
X-8819Y262632D01*
X-8682Y262655D01*
X-8544Y262683D01*
X-8408Y262714D01*
X-8273Y262749D01*
X-8139Y262788D01*
X-8006Y262831D01*
X-7874Y262878D01*
X-7743Y262928D01*
X-7615Y262982D01*
X-7487Y263040D01*
X-7361Y263101D01*
X-7238Y263166D01*
X-7115Y263234D01*
X-6995Y263305D01*
X-6877Y263380D01*
X-6762Y263459D01*
X-6648Y263540D01*
X-6537Y263625D01*
X-6428Y263713D01*
X-6322Y263803D01*
X-6218Y263897D01*
X-6117Y263994D01*
X-6019Y264094D01*
X-5924Y264196D01*
X-5832Y264301D01*
X-5742Y264408D01*
X-5656Y264518D01*
X-5573Y264631D01*
X-5493Y264745D01*
X-5416Y264862D01*
X-5343Y264981D01*
X-5273Y265102D01*
X-5207Y265225D01*
X-5144Y265350D01*
X-5084Y265477D01*
X-5029Y265605D01*
X-4977Y265734D01*
X-4928Y265866D01*
X-4883Y265998D01*
X-4842Y266132D01*
X-4805Y266266D01*
X-4772Y266402D01*
X-4743Y266539D01*
X-4717Y266676D01*
X-4695Y266814D01*
X-4678Y266953D01*
X-4664Y267092D01*
X-4654Y267232D01*
X-4648Y267371D01*
X-4646Y267511D01*
X-4646Y272450D01*
X-4648Y272644D01*
X-4656Y272838D01*
X-4667Y273031D01*
X-4684Y273225D01*
X-4705Y273417D01*
X-4732Y273609D01*
X-4762Y273801D01*
X-4798Y273992D01*
X-4838Y274181D01*
X-4883Y274370D01*
X-4932Y274558D01*
X-4986Y274744D01*
X-5045Y274929D01*
X-5108Y275112D01*
X-5175Y275294D01*
X-5248Y275474D01*
X-5324Y275652D01*
X-5405Y275829D01*
X-5490Y276003D01*
X-5579Y276175D01*
X-5673Y276345D01*
X-5770Y276512D01*
X-5872Y276678D01*
X-5978Y276840D01*
X-6087Y277000D01*
X-6201Y277157D01*
X-6318Y277312D01*
X-6440Y277463D01*
X-6565Y277611D01*
X-6693Y277757D01*
X-6825Y277899D01*
X-6960Y278038D01*
X-7099Y278173D01*
X-7241Y278305D01*
X-7387Y278433D01*
X-7535Y278558D01*
X-7686Y278680D01*
X-7841Y278797D01*
X-7998Y278911D01*
X-8158Y279020D01*
X-8320Y279126D01*
X-8486Y279228D01*
X-8653Y279325D01*
X-8823Y279419D01*
X-8995Y279508D01*
X-9169Y279593D01*
X-9346Y279674D01*
X-9524Y279750D01*
X-9704Y279823D01*
X-9886Y279890D01*
X-10069Y279953D01*
X-10254Y280012D01*
X-10440Y280066D01*
X-10628Y280115D01*
X-10817Y280160D01*
X-11006Y280200D01*
X-11197Y280236D01*
X-11389Y280266D01*
X-11581Y280293D01*
X-11773Y280314D01*
X-11967Y280331D01*
X-12160Y280342D01*
X-12354Y280350D01*
X-12548Y280352D01*
X15988Y196284D02*
X31386Y187394D01*
X22831Y192333D02*
X17892Y183778D01*
X11049Y187730D02*
X26447Y178840D01*
X15033Y176849D02*
X14728Y177020D01*
X14419Y177184D01*
X14106Y177341D01*
X13789Y177490D01*
X13469Y177631D01*
X13146Y177765D01*
X12820Y177891D01*
X12491Y178009D01*
X12159Y178119D01*
X11824Y178222D01*
X11487Y178316D01*
X11148Y178402D01*
X10807Y178480D01*
X10465Y178550D01*
X10120Y178612D01*
X9775Y178665D01*
X9428Y178711D01*
X9080Y178748D01*
X8731Y178776D01*
X8614Y178797D01*
X8496Y178814D01*
X8377Y178827D01*
X8258Y178837D01*
X8139Y178842D01*
X8020Y178844D01*
X7900Y178842D01*
X7781Y178836D01*
X7662Y178826D01*
X7544Y178812D01*
X7426Y178794D01*
X7308Y178772D01*
X7192Y178747D01*
X7076Y178718D01*
X6962Y178685D01*
X6848Y178648D01*
X6736Y178608D01*
X6625Y178564D01*
X6515Y178516D01*
X6408Y178465D01*
X6302Y178410D01*
X6197Y178352D01*
X6095Y178291D01*
X5995Y178226D01*
X5897Y178158D01*
X5801Y178087D01*
X5708Y178012D01*
X5617Y177935D01*
X5529Y177855D01*
X5443Y177772D01*
X5360Y177686D01*
X5280Y177598D01*
X5203Y177507D01*
X5129Y177413D01*
X5058Y177317D01*
X4990Y177219D01*
X4925Y177119D01*
X4864Y177017D01*
X4864Y177016D02*
X4806Y176912D01*
X4751Y176806D01*
X4700Y176698D01*
X4653Y176589D01*
X4609Y176478D01*
X4569Y176365D01*
X4532Y176252D01*
X4499Y176137D01*
X4470Y176021D01*
X4445Y175905D01*
X4423Y175788D01*
X4406Y175670D01*
X4392Y175551D01*
X4382Y175432D01*
X4376Y175313D01*
X4374Y175194D01*
X4376Y175074D01*
X4381Y174955D01*
X4391Y174836D01*
X4405Y174718D01*
X4422Y174600D01*
X4443Y174482D01*
X4468Y174366D01*
X4497Y174250D01*
X4529Y174135D01*
X4566Y174021D01*
X4605Y173909D01*
X4649Y173798D01*
X4696Y173688D01*
X4747Y173580D01*
X4801Y173474D01*
X4859Y173370D01*
X4920Y173267D01*
X4984Y173167D01*
X5052Y173068D01*
X5123Y172972D01*
X5197Y172879D01*
X5274Y172788D01*
X5473Y172501D01*
X5679Y172218D01*
X5892Y171940D01*
X6111Y171667D01*
X6337Y171400D01*
X6569Y171138D01*
X6807Y170882D01*
X7051Y170632D01*
X7301Y170387D01*
X7557Y170148D01*
X7818Y169916D01*
X8085Y169690D01*
X8357Y169471D01*
X8635Y169257D01*
X8917Y169051D01*
X9204Y168852D01*
X9496Y168659D01*
X9793Y168473D01*
X10094Y168295D01*
X15032Y176849D02*
X15333Y176671D01*
X15630Y176485D01*
X15922Y176292D01*
X16209Y176093D01*
X16491Y175887D01*
X16769Y175673D01*
X17041Y175454D01*
X17308Y175228D01*
X17569Y174995D01*
X17825Y174757D01*
X18075Y174512D01*
X18319Y174262D01*
X18558Y174006D01*
X18789Y173744D01*
X19015Y173477D01*
X19234Y173204D01*
X19447Y172926D01*
X19653Y172643D01*
X19852Y172356D01*
X19852Y172355D02*
X19929Y172264D01*
X20003Y172171D01*
X20074Y172075D01*
X20142Y171976D01*
X20206Y171876D01*
X20267Y171773D01*
X20325Y171669D01*
X20379Y171563D01*
X20430Y171455D01*
X20477Y171345D01*
X20521Y171234D01*
X20560Y171122D01*
X20597Y171008D01*
X20629Y170893D01*
X20658Y170777D01*
X20683Y170661D01*
X20704Y170543D01*
X20721Y170425D01*
X20735Y170307D01*
X20745Y170188D01*
X20750Y170069D01*
X20752Y169949D01*
X20750Y169830D01*
X20744Y169711D01*
X20734Y169592D01*
X20720Y169473D01*
X20703Y169355D01*
X20681Y169238D01*
X20656Y169121D01*
X20627Y169006D01*
X20594Y168891D01*
X20557Y168777D01*
X20517Y168665D01*
X20473Y168554D01*
X20426Y168445D01*
X20375Y168337D01*
X20320Y168231D01*
X20262Y168127D01*
X16395Y166367D02*
X16046Y166396D01*
X15698Y166432D01*
X15352Y166478D01*
X15006Y166531D01*
X14662Y166593D01*
X14319Y166663D01*
X13978Y166741D01*
X13639Y166827D01*
X13302Y166922D01*
X12968Y167024D01*
X12636Y167134D01*
X12306Y167252D01*
X11980Y167378D01*
X11657Y167512D01*
X11337Y167653D01*
X11020Y167802D01*
X10708Y167959D01*
X10399Y168123D01*
X10094Y168294D01*
X16395Y166367D02*
X16512Y166346D01*
X16630Y166329D01*
X16749Y166316D01*
X16868Y166306D01*
X16987Y166301D01*
X17106Y166299D01*
X17226Y166301D01*
X17345Y166307D01*
X17464Y166317D01*
X17582Y166331D01*
X17700Y166349D01*
X17818Y166371D01*
X17934Y166396D01*
X18050Y166425D01*
X18164Y166458D01*
X18278Y166495D01*
X18390Y166535D01*
X18501Y166579D01*
X18611Y166627D01*
X18718Y166678D01*
X18824Y166733D01*
X18929Y166791D01*
X19031Y166852D01*
X19131Y166917D01*
X19229Y166985D01*
X19325Y167056D01*
X19418Y167131D01*
X19509Y167208D01*
X19597Y167288D01*
X19683Y167371D01*
X19766Y167457D01*
X19846Y167545D01*
X19923Y167636D01*
X19997Y167730D01*
X20068Y167826D01*
X20136Y167924D01*
X20201Y168024D01*
X20262Y168127D01*
X18816Y173524D02*
X6310Y171620D01*
X6658Y162343D02*
X6353Y162514D01*
X6044Y162678D01*
X5731Y162835D01*
X5414Y162984D01*
X5094Y163125D01*
X4771Y163259D01*
X4445Y163385D01*
X4116Y163503D01*
X3784Y163613D01*
X3449Y163716D01*
X3112Y163810D01*
X2773Y163896D01*
X2432Y163974D01*
X2090Y164044D01*
X1745Y164106D01*
X1400Y164159D01*
X1053Y164205D01*
X705Y164242D01*
X356Y164270D01*
X239Y164291D01*
X121Y164308D01*
X2Y164321D01*
X-117Y164331D01*
X-236Y164336D01*
X-355Y164338D01*
X-475Y164336D01*
X-594Y164330D01*
X-713Y164320D01*
X-831Y164306D01*
X-949Y164288D01*
X-1067Y164266D01*
X-1183Y164241D01*
X-1299Y164212D01*
X-1413Y164179D01*
X-1527Y164142D01*
X-1639Y164102D01*
X-1750Y164058D01*
X-1860Y164010D01*
X-1967Y163959D01*
X-2073Y163904D01*
X-2178Y163846D01*
X-2280Y163785D01*
X-2380Y163720D01*
X-2478Y163652D01*
X-2574Y163581D01*
X-2667Y163506D01*
X-2758Y163429D01*
X-2846Y163349D01*
X-2932Y163266D01*
X-3015Y163180D01*
X-3095Y163092D01*
X-3172Y163001D01*
X-3246Y162907D01*
X-3317Y162811D01*
X-3385Y162713D01*
X-3450Y162613D01*
X-3511Y162511D01*
X-3511Y162510D02*
X-3569Y162406D01*
X-3624Y162300D01*
X-3675Y162192D01*
X-3722Y162083D01*
X-3766Y161972D01*
X-3806Y161859D01*
X-3843Y161746D01*
X-3876Y161631D01*
X-3905Y161515D01*
X-3930Y161399D01*
X-3952Y161282D01*
X-3969Y161164D01*
X-3983Y161045D01*
X-3993Y160926D01*
X-3999Y160807D01*
X-4001Y160688D01*
X-3999Y160568D01*
X-3994Y160449D01*
X-3984Y160330D01*
X-3970Y160212D01*
X-3953Y160094D01*
X-3932Y159976D01*
X-3907Y159860D01*
X-3878Y159744D01*
X-3846Y159629D01*
X-3809Y159515D01*
X-3770Y159403D01*
X-3726Y159292D01*
X-3679Y159182D01*
X-3628Y159074D01*
X-3574Y158968D01*
X-3516Y158864D01*
X-3455Y158761D01*
X-3391Y158661D01*
X-3323Y158562D01*
X-3252Y158466D01*
X-3178Y158373D01*
X-3101Y158282D01*
X-2902Y157995D01*
X-2696Y157712D01*
X-2483Y157434D01*
X-2264Y157161D01*
X-2038Y156894D01*
X-1807Y156632D01*
X-1568Y156376D01*
X-1324Y156126D01*
X-1074Y155881D01*
X-818Y155643D01*
X-557Y155410D01*
X-290Y155184D01*
X-18Y154965D01*
X260Y154751D01*
X542Y154545D01*
X829Y154346D01*
X1121Y154153D01*
X1418Y153967D01*
X1719Y153789D01*
X6657Y162342D02*
X6958Y162164D01*
X7255Y161978D01*
X7547Y161785D01*
X7834Y161586D01*
X8116Y161380D01*
X8394Y161166D01*
X8666Y160947D01*
X8933Y160721D01*
X9194Y160488D01*
X9450Y160250D01*
X9700Y160005D01*
X9944Y159755D01*
X10183Y159499D01*
X10414Y159237D01*
X10640Y158970D01*
X10859Y158697D01*
X11072Y158419D01*
X11278Y158136D01*
X11477Y157849D01*
X11476Y157849D02*
X11553Y157758D01*
X11627Y157665D01*
X11698Y157569D01*
X11766Y157470D01*
X11830Y157370D01*
X11891Y157267D01*
X11949Y157163D01*
X12003Y157057D01*
X12054Y156949D01*
X12101Y156839D01*
X12145Y156728D01*
X12184Y156616D01*
X12221Y156502D01*
X12253Y156387D01*
X12282Y156271D01*
X12307Y156155D01*
X12328Y156037D01*
X12345Y155919D01*
X12359Y155801D01*
X12369Y155682D01*
X12374Y155563D01*
X12376Y155443D01*
X12374Y155324D01*
X12368Y155205D01*
X12358Y155086D01*
X12344Y154967D01*
X12327Y154849D01*
X12305Y154732D01*
X12280Y154615D01*
X12251Y154500D01*
X12218Y154385D01*
X12181Y154271D01*
X12141Y154159D01*
X12097Y154048D01*
X12050Y153939D01*
X11999Y153831D01*
X11944Y153725D01*
X11886Y153621D01*
X8020Y151861D02*
X7671Y151890D01*
X7323Y151926D01*
X6977Y151972D01*
X6631Y152025D01*
X6287Y152087D01*
X5944Y152157D01*
X5603Y152235D01*
X5264Y152321D01*
X4927Y152416D01*
X4593Y152518D01*
X4261Y152628D01*
X3931Y152746D01*
X3605Y152872D01*
X3282Y153006D01*
X2962Y153147D01*
X2645Y153296D01*
X2333Y153453D01*
X2024Y153617D01*
X1719Y153788D01*
X8020Y151861D02*
X8137Y151840D01*
X8255Y151823D01*
X8374Y151810D01*
X8493Y151800D01*
X8612Y151795D01*
X8731Y151793D01*
X8851Y151795D01*
X8970Y151801D01*
X9089Y151811D01*
X9207Y151825D01*
X9325Y151843D01*
X9443Y151865D01*
X9559Y151890D01*
X9675Y151919D01*
X9789Y151952D01*
X9903Y151989D01*
X10015Y152029D01*
X10126Y152073D01*
X10236Y152121D01*
X10343Y152172D01*
X10449Y152227D01*
X10554Y152285D01*
X10656Y152346D01*
X10756Y152411D01*
X10854Y152479D01*
X10950Y152550D01*
X11043Y152625D01*
X11134Y152702D01*
X11222Y152782D01*
X11308Y152865D01*
X11391Y152951D01*
X11471Y153039D01*
X11548Y153130D01*
X11622Y153224D01*
X11693Y153320D01*
X11761Y153418D01*
X11826Y153518D01*
X11887Y153621D01*
X10440Y159018D02*
X-2065Y157113D01*
X-9739Y151724D02*
X5659Y142834D01*
X-9739Y151724D02*
X-12208Y147447D01*
X-12208Y147446D02*
X-12276Y147324D01*
X-12341Y147201D01*
X-12402Y147075D01*
X-12460Y146947D01*
X-12514Y146819D01*
X-12564Y146688D01*
X-12611Y146556D01*
X-12654Y146423D01*
X-12693Y146289D01*
X-12728Y146154D01*
X-12759Y146018D01*
X-12787Y145880D01*
X-12810Y145743D01*
X-12830Y145604D01*
X-12846Y145465D01*
X-12858Y145326D01*
X-12866Y145187D01*
X-12870Y145047D01*
X-12870Y144907D01*
X-12866Y144767D01*
X-12858Y144628D01*
X-12846Y144489D01*
X-12830Y144350D01*
X-12810Y144211D01*
X-12787Y144073D01*
X-12759Y143936D01*
X-12728Y143800D01*
X-12693Y143665D01*
X-12654Y143531D01*
X-12611Y143398D01*
X-12564Y143266D01*
X-12514Y143135D01*
X-12460Y143007D01*
X-12402Y142879D01*
X-12341Y142753D01*
X-12276Y142630D01*
X-12208Y142507D01*
X-12137Y142387D01*
X-12062Y142269D01*
X-11983Y142154D01*
X-11902Y142040D01*
X-11817Y141929D01*
X-11729Y141820D01*
X-11639Y141714D01*
X-11545Y141610D01*
X-11448Y141509D01*
X-11348Y141411D01*
X-11246Y141316D01*
X-11141Y141224D01*
X-11034Y141134D01*
X-10924Y141048D01*
X-10811Y140965D01*
X-10697Y140885D01*
X-10580Y140808D01*
X-10461Y140735D01*
X-10340Y140665D01*
X-10217Y140599D01*
X-10092Y140536D01*
X-9965Y140476D01*
X-9837Y140421D01*
X-9707Y140369D01*
X-9576Y140320D01*
X-9444Y140275D01*
X-9310Y140234D01*
X-9176Y140197D01*
X-9040Y140164D01*
X-8903Y140135D01*
X-8766Y140109D01*
X-8628Y140087D01*
X-8489Y140070D01*
X-8350Y140056D01*
X-8210Y140046D01*
X-8071Y140040D01*
X-7931Y140038D01*
X-7791Y140040D01*
X-7652Y140046D01*
X-7512Y140056D01*
X-7373Y140070D01*
X-7234Y140087D01*
X-7096Y140109D01*
X-6959Y140135D01*
X-6822Y140164D01*
X-6686Y140197D01*
X-6552Y140235D01*
X-6418Y140275D01*
X-6286Y140320D01*
X-6154Y140369D01*
X-6025Y140421D01*
X-5897Y140476D01*
X-5770Y140536D01*
X-5645Y140599D01*
X-5522Y140665D01*
X-5401Y140735D01*
X-5282Y140808D01*
X-5165Y140885D01*
X-5051Y140965D01*
X-4938Y141048D01*
X-4828Y141134D01*
X-4721Y141224D01*
X-4616Y141316D01*
X-4514Y141411D01*
X-4414Y141509D01*
X-4317Y141610D01*
X-4223Y141714D01*
X-4133Y141820D01*
X-4045Y141929D01*
X-3960Y142040D01*
X-3879Y142154D01*
X-3800Y142269D01*
X-3725Y142387D01*
X-3654Y142507D01*
X-3654Y142508D02*
X-1185Y146785D01*
X-4148Y141652D02*
X720Y134279D01*
X-19160Y126515D02*
X-19274Y126582D01*
X-19385Y126653D01*
X-19494Y126727D01*
X-19600Y126804D01*
X-19704Y126885D01*
X-19806Y126968D01*
X-19906Y127055D01*
X-20003Y127144D01*
X-20097Y127236D01*
X-20188Y127331D01*
X-20276Y127429D01*
X-20362Y127529D01*
X-20444Y127632D01*
X-20524Y127737D01*
X-20600Y127845D01*
X-20673Y127954D01*
X-20743Y128066D01*
X-20809Y128180D01*
X-20872Y128295D01*
X-20932Y128413D01*
X-20988Y128532D01*
X-21040Y128653D01*
X-21089Y128775D01*
X-21135Y128899D01*
X-21176Y129024D01*
X-21214Y129150D01*
X-21248Y129277D01*
X-21278Y129406D01*
X-21305Y129535D01*
X-21328Y129664D01*
X-21346Y129795D01*
X-21361Y129926D01*
X-21372Y130057D01*
X-21380Y130188D01*
X-21383Y130320D01*
X-21382Y130452D01*
X-21378Y130584D01*
X-21369Y130715D01*
X-21357Y130846D01*
X-21341Y130977D01*
X-21320Y131107D01*
X-21297Y131237D01*
X-21269Y131365D01*
X-21237Y131493D01*
X-21202Y131620D01*
X-21163Y131746D01*
X-21120Y131871D01*
X-21073Y131994D01*
X-21023Y132116D01*
X-20970Y132236D01*
X-20912Y132355D01*
X-20852Y132471D01*
X-20787Y132587D01*
X-20788Y132587D02*
X-20711Y132715D01*
X-20631Y132842D01*
X-20548Y132966D01*
X-20462Y133088D01*
X-20372Y133208D01*
X-20280Y133326D01*
X-20184Y133441D01*
X-20085Y133553D01*
X-19984Y133663D01*
X-19879Y133770D01*
X-19772Y133875D01*
X-19662Y133976D01*
X-19550Y134075D01*
X-19435Y134170D01*
X-19317Y134263D01*
X-19197Y134352D01*
X-19075Y134439D01*
X-18951Y134522D01*
X-18824Y134602D01*
X-18695Y134678D01*
X-18565Y134751D01*
X-18432Y134821D01*
X-18298Y134887D01*
X-18162Y134949D01*
X-18025Y135008D01*
X-17886Y135064D01*
X-17745Y135115D01*
X-17604Y135163D01*
X-17461Y135208D01*
X-17317Y135248D01*
X-17172Y135285D01*
X-17026Y135318D01*
X-16879Y135347D01*
X-16732Y135372D01*
X-16583Y135394D01*
X-16435Y135411D01*
X-16286Y135425D01*
X-16137Y135434D01*
X-15987Y135440D01*
X-15837Y135442D01*
X-15688Y135440D01*
X-15538Y135434D01*
X-15389Y135424D01*
X-15240Y135410D01*
X-15092Y135392D01*
X-14943Y135371D01*
X-14796Y135345D01*
X-14649Y135316D01*
X-15426Y126069D02*
X-15555Y126033D01*
X-15684Y126001D01*
X-15814Y125972D01*
X-15945Y125947D01*
X-16077Y125926D01*
X-16209Y125909D01*
X-16342Y125895D01*
X-16474Y125884D01*
X-16608Y125878D01*
X-16741Y125875D01*
X-16874Y125876D01*
X-17007Y125881D01*
X-17140Y125889D01*
X-17273Y125901D01*
X-17406Y125917D01*
X-17537Y125936D01*
X-17669Y125960D01*
X-17799Y125986D01*
X-17929Y126017D01*
X-18058Y126051D01*
X-18186Y126089D01*
X-18313Y126130D01*
X-18438Y126174D01*
X-18562Y126223D01*
X-18685Y126274D01*
X-18807Y126329D01*
X-18927Y126388D01*
X-19045Y126450D01*
X-19161Y126515D01*
X-15426Y126069D02*
X-2674Y128402D01*
X-7612Y119847D01*
X-23025Y120810D02*
X-28916Y118508D01*
X-13518Y109618D01*
X-11049Y113895D02*
X-15988Y105341D01*
D12*
X-39623Y267873D02*
X-39073Y268826D01*
X-39623Y267873D02*
X-36446Y266039D01*
X-35345Y267945D01*
X-35309Y268010D01*
X-35277Y268077D01*
X-35248Y268146D01*
X-35223Y268216D01*
X-35201Y268287D01*
X-35183Y268359D01*
X-35169Y268432D01*
X-35158Y268506D01*
X-35151Y268580D01*
X-35148Y268654D01*
X-35149Y268729D01*
X-35153Y268803D01*
X-35161Y268877D01*
X-35173Y268950D01*
X-35189Y269023D01*
X-35208Y269095D01*
X-35231Y269166D01*
X-35257Y269235D01*
X-35287Y269303D01*
X-35321Y269370D01*
X-35357Y269434D01*
X-35397Y269497D01*
X-35440Y269558D01*
X-35486Y269616D01*
X-35535Y269672D01*
X-35587Y269726D01*
X-35641Y269777D01*
X-35698Y269825D01*
X-35757Y269870D01*
X-35819Y269912D01*
X-35882Y269950D01*
X-35883Y269950D02*
X-39060Y271784D01*
X-39060Y271785D02*
X-39125Y271821D01*
X-39192Y271853D01*
X-39261Y271882D01*
X-39331Y271907D01*
X-39402Y271929D01*
X-39474Y271947D01*
X-39547Y271961D01*
X-39621Y271972D01*
X-39695Y271979D01*
X-39769Y271982D01*
X-39844Y271981D01*
X-39918Y271977D01*
X-39992Y271969D01*
X-40065Y271957D01*
X-40138Y271941D01*
X-40210Y271922D01*
X-40281Y271899D01*
X-40350Y271873D01*
X-40418Y271843D01*
X-40485Y271809D01*
X-40549Y271773D01*
X-40612Y271733D01*
X-40673Y271690D01*
X-40731Y271644D01*
X-40787Y271595D01*
X-40841Y271543D01*
X-40892Y271489D01*
X-40940Y271432D01*
X-40985Y271373D01*
X-41027Y271311D01*
X-41065Y271248D01*
X-41065Y271247D02*
X-42165Y269341D01*
X-43745Y266605D02*
X-38025Y263303D01*
X-39860Y260126D02*
X-43745Y266605D01*
X-45579Y263428D02*
X-39860Y260126D01*
X-41439Y257391D02*
X-47158Y260693D01*
X-48076Y259104D01*
X-48075Y259104D02*
X-48116Y259030D01*
X-48153Y258954D01*
X-48187Y258876D01*
X-48217Y258797D01*
X-48243Y258716D01*
X-48266Y258634D01*
X-48284Y258552D01*
X-48299Y258468D01*
X-48310Y258384D01*
X-48318Y258300D01*
X-48321Y258215D01*
X-48320Y258131D01*
X-48316Y258046D01*
X-48307Y257962D01*
X-48295Y257878D01*
X-48279Y257795D01*
X-48259Y257712D01*
X-48235Y257631D01*
X-48207Y257551D01*
X-48176Y257472D01*
X-48141Y257395D01*
X-48103Y257319D01*
X-48061Y257246D01*
X-48016Y257174D01*
X-47967Y257104D01*
X-47916Y257037D01*
X-47861Y256972D01*
X-47804Y256910D01*
X-47743Y256851D01*
X-47680Y256794D01*
X-47615Y256741D01*
X-47547Y256690D01*
X-47476Y256643D01*
X-47404Y256599D01*
X-47404Y256598D02*
X-44862Y255130D01*
X-44863Y255130D02*
X-44788Y255089D01*
X-44712Y255052D01*
X-44634Y255018D01*
X-44555Y254988D01*
X-44474Y254962D01*
X-44393Y254939D01*
X-44310Y254921D01*
X-44226Y254906D01*
X-44142Y254895D01*
X-44058Y254887D01*
X-43973Y254884D01*
X-43889Y254885D01*
X-43804Y254889D01*
X-43720Y254898D01*
X-43636Y254910D01*
X-43552Y254926D01*
X-43470Y254947D01*
X-43389Y254970D01*
X-43309Y254998D01*
X-43230Y255029D01*
X-43152Y255064D01*
X-43077Y255102D01*
X-43003Y255144D01*
X-42931Y255189D01*
X-42862Y255238D01*
X-42795Y255289D01*
X-42730Y255344D01*
X-42668Y255402D01*
X-42608Y255462D01*
X-42552Y255525D01*
X-42498Y255591D01*
X-42447Y255659D01*
X-42400Y255729D01*
X-42356Y255801D01*
X-42356Y255802D02*
X-41439Y257391D01*
X17029Y236424D02*
X17579Y237377D01*
X17029Y236424D02*
X20206Y234589D01*
X21307Y236495D01*
X21343Y236560D01*
X21375Y236627D01*
X21404Y236696D01*
X21429Y236766D01*
X21451Y236837D01*
X21469Y236909D01*
X21483Y236982D01*
X21494Y237056D01*
X21501Y237130D01*
X21504Y237204D01*
X21503Y237279D01*
X21499Y237353D01*
X21491Y237427D01*
X21479Y237500D01*
X21463Y237573D01*
X21444Y237645D01*
X21421Y237716D01*
X21395Y237785D01*
X21365Y237853D01*
X21331Y237920D01*
X21295Y237984D01*
X21255Y238047D01*
X21212Y238108D01*
X21166Y238166D01*
X21117Y238222D01*
X21065Y238276D01*
X21011Y238327D01*
X20954Y238375D01*
X20895Y238420D01*
X20833Y238462D01*
X20770Y238500D01*
X17593Y240335D01*
X17528Y240371D01*
X17461Y240403D01*
X17392Y240432D01*
X17322Y240457D01*
X17251Y240479D01*
X17179Y240497D01*
X17106Y240511D01*
X17032Y240522D01*
X16958Y240529D01*
X16884Y240532D01*
X16809Y240531D01*
X16735Y240527D01*
X16661Y240519D01*
X16588Y240507D01*
X16515Y240491D01*
X16443Y240472D01*
X16372Y240449D01*
X16303Y240423D01*
X16235Y240393D01*
X16168Y240359D01*
X16104Y240323D01*
X16041Y240283D01*
X15980Y240240D01*
X15922Y240194D01*
X15866Y240145D01*
X15812Y240093D01*
X15761Y240039D01*
X15713Y239982D01*
X15668Y239923D01*
X15626Y239861D01*
X15588Y239798D01*
X15588Y239797D02*
X14487Y237891D01*
X12908Y235156D02*
X18627Y231854D01*
X16793Y228676D02*
X12908Y235156D01*
X11073Y231978D02*
X16793Y228676D01*
X15213Y225941D02*
X9494Y229243D01*
X8577Y227654D01*
X8578Y227654D02*
X8537Y227580D01*
X8500Y227504D01*
X8466Y227426D01*
X8436Y227347D01*
X8410Y227266D01*
X8387Y227184D01*
X8369Y227102D01*
X8354Y227018D01*
X8343Y226934D01*
X8335Y226850D01*
X8332Y226765D01*
X8333Y226681D01*
X8337Y226596D01*
X8346Y226512D01*
X8358Y226428D01*
X8374Y226345D01*
X8394Y226262D01*
X8418Y226181D01*
X8446Y226101D01*
X8477Y226022D01*
X8512Y225945D01*
X8550Y225869D01*
X8592Y225796D01*
X8637Y225724D01*
X8686Y225654D01*
X8737Y225587D01*
X8792Y225522D01*
X8849Y225460D01*
X8910Y225401D01*
X8973Y225344D01*
X9038Y225291D01*
X9106Y225240D01*
X9177Y225193D01*
X9249Y225149D01*
X9248Y225148D02*
X11790Y223681D01*
X11864Y223640D01*
X11940Y223603D01*
X12018Y223569D01*
X12097Y223539D01*
X12178Y223513D01*
X12260Y223490D01*
X12342Y223472D01*
X12426Y223457D01*
X12510Y223446D01*
X12594Y223438D01*
X12679Y223435D01*
X12763Y223436D01*
X12848Y223440D01*
X12932Y223449D01*
X13016Y223461D01*
X13099Y223477D01*
X13182Y223497D01*
X13263Y223521D01*
X13343Y223549D01*
X13422Y223580D01*
X13499Y223615D01*
X13575Y223653D01*
X13648Y223695D01*
X13720Y223740D01*
X13790Y223789D01*
X13857Y223840D01*
X13922Y223895D01*
X13984Y223952D01*
X14043Y224013D01*
X14100Y224076D01*
X14153Y224141D01*
X14204Y224209D01*
X14251Y224280D01*
X14295Y224352D01*
X14296Y224352D02*
X15213Y225941D01*
X-115083Y136954D02*
X-115633Y136001D01*
X-112456Y134166D01*
X-111355Y136073D01*
X-111319Y136138D01*
X-111287Y136205D01*
X-111258Y136274D01*
X-111233Y136344D01*
X-111211Y136415D01*
X-111193Y136487D01*
X-111179Y136560D01*
X-111168Y136634D01*
X-111161Y136708D01*
X-111158Y136782D01*
X-111159Y136857D01*
X-111163Y136931D01*
X-111171Y137005D01*
X-111183Y137078D01*
X-111199Y137151D01*
X-111218Y137223D01*
X-111241Y137294D01*
X-111267Y137363D01*
X-111297Y137431D01*
X-111331Y137498D01*
X-111367Y137562D01*
X-111407Y137625D01*
X-111450Y137686D01*
X-111496Y137744D01*
X-111545Y137800D01*
X-111597Y137854D01*
X-111651Y137905D01*
X-111708Y137953D01*
X-111767Y137998D01*
X-111829Y138040D01*
X-111892Y138078D01*
X-115070Y139912D01*
X-115069Y139912D02*
X-115134Y139948D01*
X-115201Y139980D01*
X-115270Y140009D01*
X-115340Y140034D01*
X-115411Y140056D01*
X-115483Y140074D01*
X-115556Y140088D01*
X-115630Y140099D01*
X-115704Y140106D01*
X-115778Y140109D01*
X-115853Y140108D01*
X-115927Y140104D01*
X-116001Y140096D01*
X-116074Y140084D01*
X-116147Y140068D01*
X-116219Y140049D01*
X-116290Y140026D01*
X-116359Y140000D01*
X-116427Y139970D01*
X-116494Y139936D01*
X-116558Y139900D01*
X-116621Y139860D01*
X-116682Y139817D01*
X-116740Y139771D01*
X-116796Y139722D01*
X-116850Y139670D01*
X-116901Y139616D01*
X-116949Y139559D01*
X-116994Y139500D01*
X-117036Y139438D01*
X-117074Y139375D01*
X-118175Y137468D01*
X-119754Y134733D02*
X-114035Y131431D01*
X-115869Y128254D02*
X-119754Y134733D01*
X-121589Y131556D02*
X-115869Y128254D01*
X-117449Y125518D02*
X-123168Y128820D01*
X-124085Y127231D01*
X-124126Y127157D01*
X-124163Y127081D01*
X-124197Y127003D01*
X-124227Y126924D01*
X-124253Y126843D01*
X-124276Y126761D01*
X-124294Y126679D01*
X-124309Y126595D01*
X-124320Y126511D01*
X-124328Y126427D01*
X-124331Y126342D01*
X-124330Y126258D01*
X-124326Y126173D01*
X-124317Y126089D01*
X-124305Y126005D01*
X-124289Y125922D01*
X-124269Y125839D01*
X-124245Y125758D01*
X-124217Y125678D01*
X-124186Y125599D01*
X-124151Y125522D01*
X-124113Y125446D01*
X-124071Y125373D01*
X-124026Y125301D01*
X-123977Y125231D01*
X-123926Y125164D01*
X-123871Y125099D01*
X-123814Y125037D01*
X-123753Y124978D01*
X-123690Y124921D01*
X-123625Y124868D01*
X-123557Y124817D01*
X-123486Y124770D01*
X-123414Y124726D01*
X-120872Y123258D01*
X-120873Y123258D02*
X-120798Y123217D01*
X-120722Y123180D01*
X-120644Y123146D01*
X-120565Y123116D01*
X-120484Y123090D01*
X-120403Y123067D01*
X-120320Y123049D01*
X-120236Y123034D01*
X-120152Y123023D01*
X-120068Y123015D01*
X-119983Y123012D01*
X-119899Y123013D01*
X-119814Y123017D01*
X-119730Y123026D01*
X-119646Y123038D01*
X-119562Y123054D01*
X-119480Y123075D01*
X-119399Y123098D01*
X-119319Y123126D01*
X-119240Y123157D01*
X-119162Y123192D01*
X-119087Y123230D01*
X-119013Y123272D01*
X-118941Y123317D01*
X-118872Y123366D01*
X-118805Y123417D01*
X-118740Y123472D01*
X-118678Y123530D01*
X-118618Y123590D01*
X-118562Y123653D01*
X-118508Y123719D01*
X-118457Y123787D01*
X-118410Y123857D01*
X-118366Y123929D01*
X-117449Y125518D01*
X-60356Y103757D02*
X-59805Y104711D01*
X-60356Y103757D02*
X-57178Y101923D01*
X-56078Y103829D01*
X-56077Y103829D02*
X-56041Y103894D01*
X-56009Y103961D01*
X-55980Y104030D01*
X-55955Y104100D01*
X-55933Y104171D01*
X-55915Y104243D01*
X-55901Y104316D01*
X-55890Y104390D01*
X-55883Y104464D01*
X-55880Y104538D01*
X-55881Y104613D01*
X-55885Y104687D01*
X-55893Y104761D01*
X-55905Y104834D01*
X-55921Y104907D01*
X-55940Y104979D01*
X-55963Y105050D01*
X-55989Y105119D01*
X-56019Y105187D01*
X-56053Y105254D01*
X-56089Y105318D01*
X-56129Y105381D01*
X-56172Y105442D01*
X-56218Y105500D01*
X-56267Y105556D01*
X-56319Y105610D01*
X-56373Y105661D01*
X-56430Y105709D01*
X-56489Y105754D01*
X-56551Y105796D01*
X-56614Y105834D01*
X-56615Y105834D02*
X-59792Y107669D01*
X-59857Y107705D01*
X-59924Y107737D01*
X-59993Y107766D01*
X-60063Y107791D01*
X-60134Y107813D01*
X-60206Y107831D01*
X-60279Y107845D01*
X-60353Y107856D01*
X-60427Y107863D01*
X-60501Y107866D01*
X-60576Y107865D01*
X-60650Y107861D01*
X-60724Y107853D01*
X-60797Y107841D01*
X-60870Y107825D01*
X-60942Y107806D01*
X-61013Y107783D01*
X-61082Y107757D01*
X-61150Y107727D01*
X-61217Y107693D01*
X-61281Y107657D01*
X-61344Y107617D01*
X-61405Y107574D01*
X-61463Y107528D01*
X-61519Y107479D01*
X-61573Y107427D01*
X-61624Y107373D01*
X-61672Y107316D01*
X-61717Y107257D01*
X-61759Y107195D01*
X-61797Y107132D01*
X-61797Y107131D02*
X-62897Y105225D01*
X-64477Y102489D02*
X-58757Y99187D01*
X-60592Y96010D02*
X-64477Y102489D01*
X-66311Y99312D02*
X-60592Y96010D01*
X-62171Y93275D02*
X-67890Y96577D01*
X-68808Y94988D01*
X-68807Y94988D02*
X-68848Y94914D01*
X-68885Y94838D01*
X-68919Y94760D01*
X-68949Y94681D01*
X-68975Y94600D01*
X-68998Y94518D01*
X-69016Y94436D01*
X-69031Y94352D01*
X-69042Y94268D01*
X-69050Y94184D01*
X-69053Y94099D01*
X-69052Y94015D01*
X-69048Y93930D01*
X-69039Y93846D01*
X-69027Y93762D01*
X-69011Y93679D01*
X-68991Y93596D01*
X-68967Y93515D01*
X-68939Y93435D01*
X-68908Y93356D01*
X-68873Y93279D01*
X-68835Y93203D01*
X-68793Y93130D01*
X-68748Y93058D01*
X-68699Y92988D01*
X-68648Y92921D01*
X-68593Y92856D01*
X-68536Y92794D01*
X-68475Y92735D01*
X-68412Y92678D01*
X-68347Y92625D01*
X-68279Y92574D01*
X-68208Y92527D01*
X-68136Y92483D01*
X-68136Y92482D02*
X-65594Y91014D01*
X-65595Y91014D02*
X-65520Y90973D01*
X-65444Y90936D01*
X-65366Y90902D01*
X-65287Y90872D01*
X-65206Y90846D01*
X-65125Y90823D01*
X-65042Y90805D01*
X-64958Y90790D01*
X-64874Y90779D01*
X-64790Y90771D01*
X-64705Y90768D01*
X-64621Y90769D01*
X-64536Y90773D01*
X-64452Y90782D01*
X-64368Y90794D01*
X-64284Y90810D01*
X-64202Y90831D01*
X-64121Y90854D01*
X-64041Y90882D01*
X-63962Y90913D01*
X-63884Y90948D01*
X-63809Y90986D01*
X-63735Y91028D01*
X-63663Y91073D01*
X-63594Y91122D01*
X-63527Y91173D01*
X-63462Y91228D01*
X-63400Y91286D01*
X-63340Y91346D01*
X-63284Y91409D01*
X-63230Y91475D01*
X-63179Y91543D01*
X-63132Y91613D01*
X-63088Y91685D01*
X-63088Y91686D02*
X-62171Y93275D01*
X-100199Y156755D02*
X-104818Y161963D01*
X-107019Y158150D02*
X-100199Y156755D01*
X-102589Y152615D02*
X-108308Y155917D01*
X-109226Y154329D01*
X-109225Y154328D02*
X-109266Y154254D01*
X-109303Y154178D01*
X-109337Y154100D01*
X-109367Y154021D01*
X-109393Y153940D01*
X-109416Y153858D01*
X-109434Y153776D01*
X-109449Y153692D01*
X-109460Y153608D01*
X-109468Y153524D01*
X-109471Y153439D01*
X-109470Y153355D01*
X-109466Y153270D01*
X-109457Y153186D01*
X-109445Y153102D01*
X-109429Y153019D01*
X-109409Y152936D01*
X-109385Y152855D01*
X-109357Y152775D01*
X-109326Y152696D01*
X-109291Y152619D01*
X-109253Y152543D01*
X-109211Y152470D01*
X-109166Y152398D01*
X-109117Y152328D01*
X-109066Y152261D01*
X-109011Y152196D01*
X-108954Y152134D01*
X-108893Y152075D01*
X-108830Y152018D01*
X-108765Y151965D01*
X-108697Y151914D01*
X-108626Y151867D01*
X-108554Y151823D01*
X-106012Y150355D01*
X-106013Y150355D02*
X-105938Y150314D01*
X-105862Y150277D01*
X-105784Y150243D01*
X-105705Y150213D01*
X-105624Y150187D01*
X-105543Y150164D01*
X-105460Y150146D01*
X-105376Y150131D01*
X-105292Y150120D01*
X-105208Y150112D01*
X-105123Y150109D01*
X-105039Y150110D01*
X-104954Y150114D01*
X-104870Y150123D01*
X-104786Y150135D01*
X-104702Y150151D01*
X-104620Y150172D01*
X-104539Y150195D01*
X-104459Y150223D01*
X-104380Y150254D01*
X-104302Y150289D01*
X-104227Y150327D01*
X-104153Y150369D01*
X-104081Y150414D01*
X-104012Y150463D01*
X-103945Y150514D01*
X-103880Y150569D01*
X-103818Y150627D01*
X-103758Y150687D01*
X-103702Y150750D01*
X-103648Y150816D01*
X-103597Y150884D01*
X-103550Y150954D01*
X-103506Y151026D01*
X-103506Y151027D02*
X-102589Y152615D01*
X-106003Y146702D02*
X-111722Y150004D01*
X-112639Y148416D01*
X-112680Y148342D01*
X-112717Y148266D01*
X-112751Y148188D01*
X-112781Y148109D01*
X-112807Y148028D01*
X-112830Y147946D01*
X-112848Y147864D01*
X-112863Y147780D01*
X-112874Y147696D01*
X-112882Y147612D01*
X-112885Y147527D01*
X-112884Y147443D01*
X-112880Y147358D01*
X-112871Y147274D01*
X-112859Y147190D01*
X-112843Y147107D01*
X-112823Y147024D01*
X-112799Y146943D01*
X-112771Y146863D01*
X-112740Y146784D01*
X-112705Y146707D01*
X-112667Y146631D01*
X-112625Y146558D01*
X-112580Y146486D01*
X-112531Y146416D01*
X-112480Y146349D01*
X-112425Y146284D01*
X-112368Y146222D01*
X-112307Y146163D01*
X-112244Y146106D01*
X-112179Y146053D01*
X-112111Y146002D01*
X-112040Y145955D01*
X-111968Y145911D01*
X-111968Y145910D02*
X-109426Y144442D01*
X-109427Y144442D02*
X-109352Y144401D01*
X-109276Y144364D01*
X-109198Y144330D01*
X-109119Y144300D01*
X-109038Y144274D01*
X-108957Y144251D01*
X-108874Y144233D01*
X-108790Y144218D01*
X-108706Y144207D01*
X-108622Y144199D01*
X-108537Y144196D01*
X-108453Y144197D01*
X-108368Y144201D01*
X-108284Y144210D01*
X-108200Y144222D01*
X-108116Y144238D01*
X-108034Y144259D01*
X-107953Y144282D01*
X-107873Y144310D01*
X-107794Y144341D01*
X-107716Y144376D01*
X-107641Y144414D01*
X-107567Y144456D01*
X-107495Y144501D01*
X-107426Y144550D01*
X-107359Y144601D01*
X-107294Y144656D01*
X-107232Y144714D01*
X-107172Y144774D01*
X-107116Y144837D01*
X-107062Y144903D01*
X-107011Y144971D01*
X-106964Y145041D01*
X-106920Y145113D01*
X-106920Y145114D02*
X-106003Y146702D01*
X-48166Y130513D02*
X-43547Y125305D01*
X-50367Y126700D01*
X-51656Y124468D02*
X-45937Y121166D01*
X-51656Y124468D02*
X-52573Y122879D01*
X-52614Y122805D01*
X-52651Y122729D01*
X-52685Y122651D01*
X-52715Y122572D01*
X-52741Y122491D01*
X-52764Y122409D01*
X-52782Y122327D01*
X-52797Y122243D01*
X-52808Y122159D01*
X-52816Y122075D01*
X-52819Y121990D01*
X-52818Y121906D01*
X-52814Y121821D01*
X-52805Y121737D01*
X-52793Y121653D01*
X-52777Y121570D01*
X-52757Y121487D01*
X-52733Y121406D01*
X-52705Y121326D01*
X-52674Y121247D01*
X-52639Y121170D01*
X-52601Y121094D01*
X-52559Y121021D01*
X-52514Y120949D01*
X-52465Y120879D01*
X-52414Y120812D01*
X-52359Y120747D01*
X-52302Y120685D01*
X-52241Y120626D01*
X-52178Y120569D01*
X-52113Y120516D01*
X-52045Y120465D01*
X-51974Y120418D01*
X-51902Y120374D01*
X-51902Y120373D02*
X-49360Y118905D01*
X-49361Y118905D02*
X-49286Y118864D01*
X-49210Y118827D01*
X-49132Y118793D01*
X-49053Y118763D01*
X-48972Y118737D01*
X-48891Y118714D01*
X-48808Y118696D01*
X-48724Y118681D01*
X-48640Y118670D01*
X-48556Y118662D01*
X-48471Y118659D01*
X-48387Y118660D01*
X-48302Y118664D01*
X-48218Y118673D01*
X-48134Y118685D01*
X-48050Y118701D01*
X-47968Y118722D01*
X-47887Y118745D01*
X-47807Y118773D01*
X-47728Y118804D01*
X-47650Y118839D01*
X-47575Y118877D01*
X-47501Y118919D01*
X-47429Y118964D01*
X-47360Y119013D01*
X-47293Y119064D01*
X-47228Y119119D01*
X-47166Y119177D01*
X-47106Y119237D01*
X-47050Y119300D01*
X-46996Y119366D01*
X-46945Y119434D01*
X-46898Y119504D01*
X-46854Y119576D01*
X-46854Y119577D02*
X-45937Y121166D01*
X-49351Y115253D02*
X-55070Y118555D01*
X-55987Y116966D01*
X-55986Y116966D02*
X-56027Y116892D01*
X-56064Y116816D01*
X-56098Y116738D01*
X-56128Y116659D01*
X-56154Y116578D01*
X-56177Y116496D01*
X-56195Y116414D01*
X-56210Y116330D01*
X-56221Y116246D01*
X-56229Y116162D01*
X-56232Y116077D01*
X-56231Y115993D01*
X-56227Y115908D01*
X-56218Y115824D01*
X-56206Y115740D01*
X-56190Y115657D01*
X-56170Y115574D01*
X-56146Y115493D01*
X-56118Y115413D01*
X-56087Y115334D01*
X-56052Y115257D01*
X-56014Y115181D01*
X-55972Y115108D01*
X-55927Y115036D01*
X-55878Y114966D01*
X-55827Y114899D01*
X-55772Y114834D01*
X-55715Y114772D01*
X-55654Y114713D01*
X-55591Y114656D01*
X-55526Y114603D01*
X-55458Y114552D01*
X-55387Y114505D01*
X-55315Y114461D01*
X-55316Y114460D02*
X-52774Y112993D01*
X-52774Y112992D02*
X-52699Y112951D01*
X-52623Y112914D01*
X-52545Y112880D01*
X-52466Y112850D01*
X-52385Y112824D01*
X-52304Y112801D01*
X-52221Y112783D01*
X-52137Y112768D01*
X-52053Y112757D01*
X-51969Y112749D01*
X-51884Y112746D01*
X-51800Y112747D01*
X-51715Y112751D01*
X-51631Y112760D01*
X-51547Y112772D01*
X-51463Y112788D01*
X-51381Y112809D01*
X-51300Y112832D01*
X-51220Y112860D01*
X-51141Y112891D01*
X-51063Y112926D01*
X-50988Y112964D01*
X-50914Y113006D01*
X-50842Y113051D01*
X-50773Y113100D01*
X-50706Y113151D01*
X-50641Y113206D01*
X-50579Y113264D01*
X-50519Y113324D01*
X-50463Y113387D01*
X-50409Y113453D01*
X-50358Y113521D01*
X-50311Y113591D01*
X-50267Y113663D01*
X-50268Y113664D02*
X-49351Y115253D01*
X7462Y211580D02*
X2843Y216789D01*
X642Y212976D02*
X7462Y211580D01*
X5072Y207441D02*
X-647Y210743D01*
X-1565Y209154D01*
X-1564Y209154D02*
X-1605Y209080D01*
X-1642Y209004D01*
X-1676Y208926D01*
X-1706Y208847D01*
X-1732Y208766D01*
X-1755Y208684D01*
X-1773Y208602D01*
X-1788Y208518D01*
X-1799Y208434D01*
X-1807Y208350D01*
X-1810Y208265D01*
X-1809Y208181D01*
X-1805Y208096D01*
X-1796Y208012D01*
X-1784Y207928D01*
X-1768Y207845D01*
X-1748Y207762D01*
X-1724Y207681D01*
X-1696Y207601D01*
X-1665Y207522D01*
X-1630Y207445D01*
X-1592Y207369D01*
X-1550Y207296D01*
X-1505Y207224D01*
X-1456Y207154D01*
X-1405Y207087D01*
X-1350Y207022D01*
X-1293Y206960D01*
X-1232Y206901D01*
X-1169Y206844D01*
X-1104Y206791D01*
X-1036Y206740D01*
X-965Y206693D01*
X-893Y206649D01*
X-893Y206648D02*
X1649Y205181D01*
X1649Y205182D02*
X1723Y205141D01*
X1799Y205104D01*
X1877Y205070D01*
X1956Y205040D01*
X2037Y205014D01*
X2119Y204991D01*
X2201Y204973D01*
X2285Y204958D01*
X2369Y204947D01*
X2453Y204939D01*
X2538Y204936D01*
X2622Y204937D01*
X2707Y204941D01*
X2791Y204950D01*
X2875Y204962D01*
X2958Y204978D01*
X3041Y204998D01*
X3122Y205022D01*
X3202Y205050D01*
X3281Y205081D01*
X3358Y205116D01*
X3434Y205154D01*
X3507Y205196D01*
X3579Y205241D01*
X3649Y205290D01*
X3716Y205341D01*
X3781Y205396D01*
X3843Y205453D01*
X3902Y205514D01*
X3959Y205577D01*
X4012Y205642D01*
X4063Y205710D01*
X4110Y205781D01*
X4154Y205853D01*
X4155Y205852D02*
X5072Y207441D01*
X1658Y201528D02*
X-4061Y204830D01*
X-4978Y203242D01*
X-4978Y203241D02*
X-5019Y203167D01*
X-5056Y203091D01*
X-5090Y203013D01*
X-5120Y202934D01*
X-5146Y202853D01*
X-5169Y202771D01*
X-5187Y202689D01*
X-5202Y202605D01*
X-5213Y202521D01*
X-5221Y202437D01*
X-5224Y202352D01*
X-5223Y202268D01*
X-5219Y202183D01*
X-5210Y202099D01*
X-5198Y202015D01*
X-5182Y201932D01*
X-5162Y201849D01*
X-5138Y201768D01*
X-5110Y201688D01*
X-5079Y201609D01*
X-5044Y201532D01*
X-5006Y201456D01*
X-4964Y201383D01*
X-4919Y201311D01*
X-4870Y201241D01*
X-4819Y201174D01*
X-4764Y201109D01*
X-4707Y201047D01*
X-4646Y200988D01*
X-4583Y200931D01*
X-4518Y200878D01*
X-4450Y200827D01*
X-4379Y200780D01*
X-4307Y200736D01*
X-1765Y199268D01*
X-1765Y199269D02*
X-1691Y199228D01*
X-1615Y199191D01*
X-1537Y199157D01*
X-1458Y199127D01*
X-1377Y199101D01*
X-1295Y199078D01*
X-1213Y199060D01*
X-1129Y199045D01*
X-1045Y199034D01*
X-961Y199026D01*
X-876Y199023D01*
X-792Y199024D01*
X-707Y199028D01*
X-623Y199037D01*
X-539Y199049D01*
X-456Y199065D01*
X-373Y199085D01*
X-292Y199109D01*
X-212Y199137D01*
X-133Y199168D01*
X-56Y199203D01*
X20Y199241D01*
X93Y199283D01*
X165Y199328D01*
X235Y199377D01*
X302Y199428D01*
X367Y199483D01*
X429Y199540D01*
X488Y199601D01*
X545Y199664D01*
X598Y199729D01*
X649Y199797D01*
X696Y199868D01*
X740Y199940D01*
X741Y199940D02*
X1658Y201528D01*
X-48610Y245199D02*
X-53228Y250407D01*
X-55430Y246594D02*
X-48610Y245199D01*
X-51000Y241059D02*
X-56719Y244361D01*
X-57636Y242773D01*
X-57635Y242772D02*
X-57676Y242698D01*
X-57713Y242622D01*
X-57747Y242544D01*
X-57777Y242465D01*
X-57803Y242384D01*
X-57826Y242302D01*
X-57844Y242220D01*
X-57859Y242136D01*
X-57870Y242052D01*
X-57878Y241968D01*
X-57881Y241883D01*
X-57880Y241799D01*
X-57876Y241714D01*
X-57867Y241630D01*
X-57855Y241546D01*
X-57839Y241463D01*
X-57819Y241380D01*
X-57795Y241299D01*
X-57767Y241219D01*
X-57736Y241140D01*
X-57701Y241063D01*
X-57663Y240987D01*
X-57621Y240914D01*
X-57576Y240842D01*
X-57527Y240772D01*
X-57476Y240705D01*
X-57421Y240640D01*
X-57364Y240578D01*
X-57303Y240519D01*
X-57240Y240462D01*
X-57175Y240409D01*
X-57107Y240358D01*
X-57036Y240311D01*
X-56964Y240267D01*
X-56965Y240267D02*
X-54423Y238799D01*
X-54348Y238758D01*
X-54272Y238721D01*
X-54194Y238687D01*
X-54115Y238657D01*
X-54034Y238631D01*
X-53953Y238608D01*
X-53870Y238590D01*
X-53786Y238575D01*
X-53702Y238564D01*
X-53618Y238556D01*
X-53533Y238553D01*
X-53449Y238554D01*
X-53364Y238558D01*
X-53280Y238567D01*
X-53196Y238579D01*
X-53112Y238595D01*
X-53030Y238616D01*
X-52949Y238639D01*
X-52869Y238667D01*
X-52790Y238698D01*
X-52712Y238733D01*
X-52637Y238771D01*
X-52563Y238813D01*
X-52491Y238858D01*
X-52422Y238907D01*
X-52355Y238958D01*
X-52290Y239013D01*
X-52228Y239071D01*
X-52168Y239131D01*
X-52112Y239194D01*
X-52058Y239260D01*
X-52007Y239328D01*
X-51960Y239398D01*
X-51916Y239470D01*
X-51917Y239471D02*
X-51000Y241059D01*
X-54413Y235147D02*
X-60133Y238449D01*
X-61050Y236860D01*
X-61049Y236860D02*
X-61090Y236786D01*
X-61127Y236710D01*
X-61161Y236632D01*
X-61191Y236553D01*
X-61217Y236472D01*
X-61240Y236390D01*
X-61258Y236308D01*
X-61273Y236224D01*
X-61284Y236140D01*
X-61292Y236056D01*
X-61295Y235971D01*
X-61294Y235887D01*
X-61290Y235802D01*
X-61281Y235718D01*
X-61269Y235634D01*
X-61253Y235551D01*
X-61233Y235468D01*
X-61209Y235387D01*
X-61181Y235307D01*
X-61150Y235228D01*
X-61115Y235151D01*
X-61077Y235075D01*
X-61035Y235002D01*
X-60990Y234930D01*
X-60941Y234860D01*
X-60890Y234793D01*
X-60835Y234728D01*
X-60778Y234666D01*
X-60717Y234607D01*
X-60654Y234550D01*
X-60589Y234497D01*
X-60521Y234446D01*
X-60450Y234399D01*
X-60378Y234355D01*
X-60378Y234354D02*
X-57836Y232886D01*
X-57837Y232886D02*
X-57762Y232845D01*
X-57686Y232808D01*
X-57608Y232774D01*
X-57529Y232744D01*
X-57448Y232718D01*
X-57367Y232695D01*
X-57284Y232677D01*
X-57200Y232662D01*
X-57116Y232651D01*
X-57032Y232643D01*
X-56947Y232640D01*
X-56863Y232641D01*
X-56778Y232645D01*
X-56694Y232654D01*
X-56610Y232666D01*
X-56526Y232682D01*
X-56444Y232703D01*
X-56363Y232726D01*
X-56283Y232754D01*
X-56204Y232785D01*
X-56126Y232820D01*
X-56051Y232858D01*
X-55977Y232900D01*
X-55905Y232945D01*
X-55836Y232994D01*
X-55769Y233045D01*
X-55704Y233100D01*
X-55642Y233158D01*
X-55582Y233218D01*
X-55526Y233281D01*
X-55472Y233347D01*
X-55421Y233415D01*
X-55374Y233485D01*
X-55330Y233557D01*
X-55331Y233558D02*
X-54413Y235147D01*
X-83425Y182344D02*
X-89144Y185646D01*
X-90062Y184058D01*
X-90061Y184057D02*
X-90102Y183983D01*
X-90139Y183907D01*
X-90173Y183829D01*
X-90203Y183750D01*
X-90229Y183669D01*
X-90252Y183587D01*
X-90270Y183505D01*
X-90285Y183421D01*
X-90296Y183337D01*
X-90304Y183253D01*
X-90307Y183168D01*
X-90306Y183084D01*
X-90302Y182999D01*
X-90293Y182915D01*
X-90281Y182831D01*
X-90265Y182748D01*
X-90245Y182665D01*
X-90221Y182584D01*
X-90193Y182504D01*
X-90162Y182425D01*
X-90127Y182348D01*
X-90089Y182272D01*
X-90047Y182199D01*
X-90002Y182127D01*
X-89953Y182057D01*
X-89902Y181990D01*
X-89847Y181925D01*
X-89790Y181863D01*
X-89729Y181804D01*
X-89666Y181747D01*
X-89601Y181694D01*
X-89533Y181643D01*
X-89462Y181596D01*
X-89390Y181552D01*
X-89316Y181511D01*
X-89240Y181474D01*
X-89162Y181440D01*
X-89083Y181410D01*
X-89002Y181384D01*
X-88920Y181361D01*
X-88838Y181343D01*
X-88754Y181328D01*
X-88670Y181317D01*
X-88586Y181309D01*
X-88501Y181306D01*
X-88417Y181307D01*
X-88332Y181311D01*
X-88248Y181320D01*
X-88164Y181332D01*
X-88081Y181348D01*
X-87998Y181368D01*
X-87917Y181392D01*
X-87837Y181420D01*
X-87758Y181451D01*
X-87681Y181486D01*
X-87605Y181524D01*
X-87532Y181566D01*
X-87460Y181611D01*
X-87390Y181660D01*
X-87323Y181711D01*
X-87258Y181766D01*
X-87196Y181823D01*
X-87137Y181884D01*
X-87080Y181947D01*
X-87027Y182012D01*
X-86976Y182080D01*
X-86929Y182151D01*
X-86885Y182223D01*
X-86884Y182223D02*
X-85967Y183812D01*
X-87745Y177797D02*
X-92927Y179095D01*
X-87745Y177797D02*
X-89579Y174620D01*
X-90300Y176307D02*
X-87758Y174839D01*
X-89781Y171336D02*
X-95500Y174638D01*
X-96418Y173049D01*
X-96417Y173049D02*
X-96458Y172975D01*
X-96495Y172899D01*
X-96529Y172821D01*
X-96559Y172742D01*
X-96585Y172661D01*
X-96608Y172579D01*
X-96626Y172497D01*
X-96641Y172413D01*
X-96652Y172329D01*
X-96660Y172245D01*
X-96663Y172160D01*
X-96662Y172076D01*
X-96658Y171991D01*
X-96649Y171907D01*
X-96637Y171823D01*
X-96621Y171740D01*
X-96601Y171657D01*
X-96577Y171576D01*
X-96549Y171496D01*
X-96518Y171417D01*
X-96483Y171340D01*
X-96445Y171264D01*
X-96403Y171191D01*
X-96358Y171119D01*
X-96309Y171049D01*
X-96258Y170982D01*
X-96203Y170917D01*
X-96146Y170855D01*
X-96085Y170796D01*
X-96022Y170739D01*
X-95957Y170686D01*
X-95889Y170635D01*
X-95818Y170588D01*
X-95746Y170544D01*
X-95746Y170543D02*
X-93204Y169075D01*
X-93205Y169075D02*
X-93130Y169034D01*
X-93054Y168997D01*
X-92976Y168963D01*
X-92897Y168933D01*
X-92816Y168907D01*
X-92735Y168884D01*
X-92652Y168866D01*
X-92568Y168851D01*
X-92484Y168840D01*
X-92400Y168832D01*
X-92315Y168829D01*
X-92231Y168830D01*
X-92146Y168834D01*
X-92062Y168843D01*
X-91978Y168855D01*
X-91894Y168871D01*
X-91812Y168892D01*
X-91731Y168915D01*
X-91651Y168943D01*
X-91572Y168974D01*
X-91494Y169009D01*
X-91419Y169047D01*
X-91345Y169089D01*
X-91273Y169134D01*
X-91204Y169183D01*
X-91137Y169234D01*
X-91072Y169289D01*
X-91010Y169347D01*
X-90950Y169407D01*
X-90894Y169470D01*
X-90840Y169536D01*
X-90789Y169604D01*
X-90742Y169674D01*
X-90698Y169746D01*
X-90698Y169747D02*
X-89781Y171336D01*
X-72510Y203096D02*
X-78229Y206398D01*
X-79147Y204809D01*
X-79146Y204809D02*
X-79187Y204735D01*
X-79224Y204659D01*
X-79258Y204581D01*
X-79288Y204502D01*
X-79314Y204421D01*
X-79337Y204339D01*
X-79355Y204257D01*
X-79370Y204173D01*
X-79381Y204089D01*
X-79389Y204005D01*
X-79392Y203920D01*
X-79391Y203836D01*
X-79387Y203751D01*
X-79378Y203667D01*
X-79366Y203583D01*
X-79350Y203500D01*
X-79330Y203417D01*
X-79306Y203336D01*
X-79278Y203256D01*
X-79247Y203177D01*
X-79212Y203100D01*
X-79174Y203024D01*
X-79132Y202951D01*
X-79087Y202879D01*
X-79038Y202809D01*
X-78987Y202742D01*
X-78932Y202677D01*
X-78875Y202615D01*
X-78814Y202556D01*
X-78751Y202499D01*
X-78686Y202446D01*
X-78618Y202395D01*
X-78547Y202348D01*
X-78475Y202304D01*
X-78401Y202263D01*
X-78325Y202226D01*
X-78247Y202192D01*
X-78168Y202162D01*
X-78087Y202136D01*
X-78005Y202113D01*
X-77923Y202095D01*
X-77839Y202080D01*
X-77755Y202069D01*
X-77671Y202061D01*
X-77586Y202058D01*
X-77502Y202059D01*
X-77417Y202063D01*
X-77333Y202072D01*
X-77249Y202084D01*
X-77166Y202100D01*
X-77083Y202120D01*
X-77002Y202144D01*
X-76922Y202172D01*
X-76843Y202203D01*
X-76766Y202238D01*
X-76690Y202276D01*
X-76617Y202318D01*
X-76545Y202363D01*
X-76475Y202412D01*
X-76408Y202463D01*
X-76343Y202518D01*
X-76281Y202575D01*
X-76222Y202636D01*
X-76165Y202699D01*
X-76112Y202764D01*
X-76061Y202832D01*
X-76014Y202903D01*
X-75970Y202975D01*
X-75969Y202975D02*
X-75052Y204563D01*
X-75559Y197815D02*
X-76660Y195909D01*
X-76660Y195908D02*
X-76698Y195845D01*
X-76740Y195783D01*
X-76785Y195724D01*
X-76833Y195667D01*
X-76884Y195613D01*
X-76938Y195561D01*
X-76994Y195512D01*
X-77052Y195466D01*
X-77113Y195423D01*
X-77176Y195383D01*
X-77240Y195347D01*
X-77307Y195313D01*
X-77375Y195283D01*
X-77444Y195257D01*
X-77515Y195234D01*
X-77587Y195215D01*
X-77660Y195199D01*
X-77733Y195187D01*
X-77807Y195179D01*
X-77881Y195175D01*
X-77956Y195174D01*
X-78030Y195177D01*
X-78104Y195184D01*
X-78178Y195195D01*
X-78251Y195209D01*
X-78323Y195227D01*
X-78394Y195249D01*
X-78464Y195274D01*
X-78533Y195303D01*
X-78600Y195335D01*
X-78665Y195371D01*
X-78664Y195371D02*
X-79300Y195738D01*
X-79363Y195776D01*
X-79425Y195818D01*
X-79484Y195864D01*
X-79541Y195911D01*
X-79595Y195962D01*
X-79647Y196016D01*
X-79696Y196072D01*
X-79742Y196130D01*
X-79785Y196191D01*
X-79825Y196254D01*
X-79861Y196318D01*
X-79895Y196385D01*
X-79925Y196453D01*
X-79951Y196522D01*
X-79974Y196593D01*
X-79993Y196665D01*
X-80009Y196738D01*
X-80021Y196811D01*
X-80029Y196885D01*
X-80033Y196959D01*
X-80034Y197034D01*
X-80031Y197108D01*
X-80024Y197182D01*
X-80013Y197256D01*
X-79999Y197329D01*
X-79981Y197401D01*
X-79959Y197472D01*
X-79934Y197542D01*
X-79905Y197611D01*
X-79873Y197678D01*
X-79837Y197743D01*
X-78736Y199650D01*
X-81278Y201117D01*
X-83113Y197940D01*
X-84585Y195389D02*
X-78866Y192087D01*
X-84585Y195389D02*
X-85502Y193800D01*
X-85543Y193726D01*
X-85580Y193650D01*
X-85614Y193572D01*
X-85644Y193493D01*
X-85670Y193412D01*
X-85693Y193330D01*
X-85711Y193248D01*
X-85726Y193164D01*
X-85737Y193080D01*
X-85745Y192996D01*
X-85748Y192911D01*
X-85747Y192827D01*
X-85743Y192742D01*
X-85734Y192658D01*
X-85722Y192574D01*
X-85706Y192491D01*
X-85686Y192408D01*
X-85662Y192327D01*
X-85634Y192247D01*
X-85603Y192168D01*
X-85568Y192091D01*
X-85530Y192015D01*
X-85488Y191942D01*
X-85443Y191870D01*
X-85394Y191800D01*
X-85343Y191733D01*
X-85288Y191668D01*
X-85231Y191606D01*
X-85170Y191547D01*
X-85107Y191490D01*
X-85042Y191437D01*
X-84974Y191386D01*
X-84903Y191339D01*
X-84831Y191295D01*
X-84831Y191294D02*
X-82289Y189827D01*
X-82290Y189827D02*
X-82215Y189786D01*
X-82139Y189749D01*
X-82061Y189715D01*
X-81982Y189685D01*
X-81901Y189659D01*
X-81820Y189636D01*
X-81737Y189618D01*
X-81653Y189603D01*
X-81569Y189592D01*
X-81485Y189584D01*
X-81400Y189581D01*
X-81316Y189582D01*
X-81231Y189586D01*
X-81147Y189595D01*
X-81063Y189607D01*
X-80979Y189623D01*
X-80897Y189644D01*
X-80816Y189667D01*
X-80736Y189695D01*
X-80657Y189726D01*
X-80579Y189761D01*
X-80504Y189799D01*
X-80430Y189841D01*
X-80358Y189886D01*
X-80289Y189935D01*
X-80222Y189986D01*
X-80157Y190041D01*
X-80095Y190099D01*
X-80035Y190159D01*
X-79979Y190222D01*
X-79925Y190288D01*
X-79874Y190356D01*
X-79827Y190426D01*
X-79783Y190498D01*
X-78866Y192087D01*
X-58420Y225435D02*
X-64139Y228737D01*
X-65056Y227148D01*
X-65097Y227074D01*
X-65134Y226998D01*
X-65168Y226920D01*
X-65198Y226841D01*
X-65224Y226760D01*
X-65247Y226678D01*
X-65265Y226596D01*
X-65280Y226512D01*
X-65291Y226428D01*
X-65299Y226344D01*
X-65302Y226259D01*
X-65301Y226175D01*
X-65297Y226090D01*
X-65288Y226006D01*
X-65276Y225922D01*
X-65260Y225839D01*
X-65240Y225756D01*
X-65216Y225675D01*
X-65188Y225595D01*
X-65157Y225516D01*
X-65122Y225439D01*
X-65084Y225363D01*
X-65042Y225290D01*
X-64997Y225218D01*
X-64948Y225148D01*
X-64897Y225081D01*
X-64842Y225016D01*
X-64785Y224954D01*
X-64724Y224895D01*
X-64661Y224838D01*
X-64596Y224785D01*
X-64528Y224734D01*
X-64457Y224687D01*
X-64385Y224643D01*
X-64311Y224602D01*
X-64235Y224565D01*
X-64157Y224531D01*
X-64078Y224501D01*
X-63997Y224475D01*
X-63915Y224452D01*
X-63833Y224434D01*
X-63749Y224419D01*
X-63665Y224408D01*
X-63581Y224400D01*
X-63496Y224397D01*
X-63412Y224398D01*
X-63327Y224402D01*
X-63243Y224411D01*
X-63159Y224423D01*
X-63076Y224439D01*
X-62993Y224459D01*
X-62912Y224483D01*
X-62832Y224511D01*
X-62753Y224542D01*
X-62676Y224577D01*
X-62600Y224615D01*
X-62527Y224657D01*
X-62455Y224702D01*
X-62385Y224751D01*
X-62318Y224802D01*
X-62253Y224857D01*
X-62191Y224914D01*
X-62132Y224975D01*
X-62075Y225038D01*
X-62022Y225103D01*
X-61971Y225171D01*
X-61924Y225242D01*
X-61880Y225314D01*
X-61879Y225314D02*
X-60962Y226902D01*
X-64646Y221988D02*
X-65747Y220082D01*
X-65783Y220017D01*
X-65815Y219950D01*
X-65844Y219881D01*
X-65869Y219811D01*
X-65891Y219740D01*
X-65909Y219668D01*
X-65923Y219595D01*
X-65934Y219521D01*
X-65941Y219447D01*
X-65944Y219373D01*
X-65943Y219298D01*
X-65939Y219224D01*
X-65931Y219150D01*
X-65919Y219077D01*
X-65903Y219004D01*
X-65884Y218932D01*
X-65861Y218861D01*
X-65835Y218792D01*
X-65805Y218724D01*
X-65771Y218657D01*
X-65735Y218593D01*
X-65695Y218530D01*
X-65652Y218469D01*
X-65606Y218411D01*
X-65557Y218355D01*
X-65505Y218301D01*
X-65451Y218250D01*
X-65394Y218203D01*
X-65335Y218157D01*
X-65273Y218115D01*
X-65210Y218077D01*
X-64892Y217894D01*
X-64892Y217895D02*
X-64818Y217854D01*
X-64742Y217817D01*
X-64664Y217783D01*
X-64585Y217753D01*
X-64504Y217727D01*
X-64422Y217704D01*
X-64340Y217686D01*
X-64256Y217671D01*
X-64172Y217660D01*
X-64088Y217652D01*
X-64003Y217649D01*
X-63919Y217650D01*
X-63834Y217654D01*
X-63750Y217663D01*
X-63666Y217675D01*
X-63583Y217691D01*
X-63500Y217711D01*
X-63419Y217735D01*
X-63339Y217763D01*
X-63260Y217794D01*
X-63183Y217829D01*
X-63107Y217867D01*
X-63034Y217909D01*
X-62962Y217954D01*
X-62892Y218003D01*
X-62825Y218054D01*
X-62760Y218109D01*
X-62698Y218166D01*
X-62639Y218227D01*
X-62582Y218290D01*
X-62529Y218355D01*
X-62478Y218423D01*
X-62431Y218494D01*
X-62387Y218566D01*
X-62346Y218640D01*
X-62309Y218716D01*
X-62275Y218794D01*
X-62245Y218873D01*
X-62219Y218954D01*
X-62196Y219036D01*
X-62178Y219118D01*
X-62163Y219202D01*
X-62152Y219286D01*
X-62144Y219370D01*
X-62141Y219455D01*
X-62142Y219539D01*
X-62146Y219624D01*
X-62155Y219708D01*
X-62167Y219792D01*
X-62183Y219875D01*
X-62203Y219958D01*
X-62227Y220039D01*
X-62255Y220119D01*
X-62286Y220198D01*
X-62321Y220275D01*
X-62359Y220351D01*
X-62401Y220424D01*
X-62446Y220496D01*
X-62495Y220566D01*
X-62546Y220633D01*
X-62601Y220698D01*
X-62658Y220760D01*
X-62719Y220819D01*
X-62782Y220876D01*
X-62847Y220929D01*
X-62915Y220980D01*
X-62986Y221027D01*
X-63058Y221071D01*
X-64646Y221988D01*
X-64646Y221989D02*
X-64740Y222041D01*
X-64836Y222089D01*
X-64933Y222134D01*
X-65032Y222175D01*
X-65133Y222213D01*
X-65234Y222247D01*
X-65337Y222277D01*
X-65441Y222304D01*
X-65546Y222326D01*
X-65651Y222345D01*
X-65757Y222360D01*
X-65864Y222371D01*
X-65971Y222379D01*
X-66078Y222382D01*
X-66185Y222381D01*
X-66293Y222377D01*
X-66399Y222368D01*
X-66506Y222356D01*
X-66612Y222339D01*
X-66717Y222319D01*
X-66822Y222295D01*
X-66925Y222268D01*
X-67028Y222236D01*
X-67129Y222201D01*
X-67229Y222162D01*
X-67327Y222119D01*
X-67424Y222073D01*
X-67519Y222024D01*
X-67612Y221971D01*
X-67704Y221914D01*
X-67793Y221855D01*
X-67879Y221792D01*
X-67964Y221726D01*
X-68046Y221657D01*
X-68125Y221585D01*
X-68202Y221510D01*
X-68276Y221432D01*
X-68347Y221352D01*
X-68415Y221269D01*
X-68480Y221184D01*
X-68542Y221096D01*
X-68600Y221006D01*
X-68656Y220915D01*
X-70495Y217728D02*
X-64776Y214426D01*
X-70495Y217728D02*
X-71412Y216139D01*
X-71453Y216065D01*
X-71490Y215989D01*
X-71524Y215911D01*
X-71554Y215832D01*
X-71580Y215751D01*
X-71603Y215669D01*
X-71621Y215587D01*
X-71636Y215503D01*
X-71647Y215419D01*
X-71655Y215335D01*
X-71658Y215250D01*
X-71657Y215166D01*
X-71653Y215081D01*
X-71644Y214997D01*
X-71632Y214913D01*
X-71616Y214830D01*
X-71596Y214747D01*
X-71572Y214666D01*
X-71544Y214586D01*
X-71513Y214507D01*
X-71478Y214430D01*
X-71440Y214354D01*
X-71398Y214281D01*
X-71353Y214209D01*
X-71304Y214139D01*
X-71253Y214072D01*
X-71198Y214007D01*
X-71141Y213945D01*
X-71080Y213886D01*
X-71017Y213829D01*
X-70952Y213776D01*
X-70884Y213725D01*
X-70813Y213678D01*
X-70741Y213634D01*
X-70741Y213633D02*
X-68199Y212166D01*
X-68200Y212166D02*
X-68125Y212125D01*
X-68049Y212088D01*
X-67971Y212054D01*
X-67892Y212024D01*
X-67811Y211998D01*
X-67730Y211975D01*
X-67647Y211957D01*
X-67563Y211942D01*
X-67479Y211931D01*
X-67395Y211923D01*
X-67310Y211920D01*
X-67226Y211921D01*
X-67141Y211925D01*
X-67057Y211934D01*
X-66973Y211946D01*
X-66889Y211962D01*
X-66807Y211983D01*
X-66726Y212006D01*
X-66646Y212034D01*
X-66567Y212065D01*
X-66489Y212100D01*
X-66414Y212138D01*
X-66340Y212180D01*
X-66268Y212225D01*
X-66199Y212274D01*
X-66132Y212325D01*
X-66067Y212380D01*
X-66005Y212438D01*
X-65945Y212498D01*
X-65889Y212561D01*
X-65835Y212627D01*
X-65784Y212695D01*
X-65737Y212765D01*
X-65693Y212837D01*
X-64776Y214426D01*
X-10449Y194906D02*
X-4730Y191604D01*
X-10449Y194906D02*
X-11366Y193317D01*
X-11407Y193243D01*
X-11444Y193167D01*
X-11478Y193089D01*
X-11508Y193010D01*
X-11534Y192929D01*
X-11557Y192847D01*
X-11575Y192765D01*
X-11590Y192681D01*
X-11601Y192597D01*
X-11609Y192513D01*
X-11612Y192428D01*
X-11611Y192344D01*
X-11607Y192259D01*
X-11598Y192175D01*
X-11586Y192091D01*
X-11570Y192008D01*
X-11550Y191925D01*
X-11526Y191844D01*
X-11498Y191764D01*
X-11467Y191685D01*
X-11432Y191608D01*
X-11394Y191532D01*
X-11352Y191459D01*
X-11307Y191387D01*
X-11258Y191317D01*
X-11207Y191250D01*
X-11152Y191185D01*
X-11095Y191123D01*
X-11034Y191064D01*
X-10971Y191007D01*
X-10906Y190954D01*
X-10838Y190903D01*
X-10767Y190856D01*
X-10695Y190812D01*
X-10621Y190771D01*
X-10545Y190734D01*
X-10467Y190700D01*
X-10388Y190670D01*
X-10307Y190644D01*
X-10225Y190621D01*
X-10143Y190603D01*
X-10059Y190588D01*
X-9975Y190577D01*
X-9891Y190569D01*
X-9806Y190566D01*
X-9722Y190567D01*
X-9637Y190571D01*
X-9553Y190580D01*
X-9469Y190592D01*
X-9386Y190608D01*
X-9303Y190628D01*
X-9222Y190652D01*
X-9142Y190680D01*
X-9063Y190711D01*
X-8986Y190746D01*
X-8910Y190784D01*
X-8837Y190826D01*
X-8765Y190871D01*
X-8695Y190920D01*
X-8628Y190971D01*
X-8563Y191026D01*
X-8501Y191083D01*
X-8442Y191144D01*
X-8385Y191207D01*
X-8332Y191272D01*
X-8281Y191340D01*
X-8234Y191411D01*
X-8190Y191483D01*
X-8189Y191483D02*
X-7272Y193071D01*
X-10956Y188157D02*
X-12057Y186251D01*
X-12093Y186186D01*
X-12125Y186119D01*
X-12154Y186050D01*
X-12179Y185980D01*
X-12201Y185909D01*
X-12219Y185837D01*
X-12233Y185764D01*
X-12244Y185690D01*
X-12251Y185616D01*
X-12254Y185542D01*
X-12253Y185467D01*
X-12249Y185393D01*
X-12241Y185319D01*
X-12229Y185246D01*
X-12213Y185173D01*
X-12194Y185101D01*
X-12171Y185030D01*
X-12145Y184961D01*
X-12115Y184893D01*
X-12081Y184826D01*
X-12045Y184762D01*
X-12005Y184699D01*
X-11962Y184638D01*
X-11916Y184580D01*
X-11867Y184524D01*
X-11815Y184470D01*
X-11761Y184419D01*
X-11704Y184372D01*
X-11645Y184326D01*
X-11583Y184284D01*
X-11520Y184246D01*
X-11202Y184063D01*
X-11202Y184064D02*
X-11128Y184023D01*
X-11052Y183986D01*
X-10974Y183952D01*
X-10895Y183922D01*
X-10814Y183896D01*
X-10732Y183873D01*
X-10650Y183855D01*
X-10566Y183840D01*
X-10482Y183829D01*
X-10398Y183821D01*
X-10313Y183818D01*
X-10229Y183819D01*
X-10144Y183823D01*
X-10060Y183832D01*
X-9976Y183844D01*
X-9893Y183860D01*
X-9810Y183880D01*
X-9729Y183904D01*
X-9649Y183932D01*
X-9570Y183963D01*
X-9493Y183998D01*
X-9417Y184036D01*
X-9344Y184078D01*
X-9272Y184123D01*
X-9202Y184172D01*
X-9135Y184223D01*
X-9070Y184278D01*
X-9008Y184335D01*
X-8949Y184396D01*
X-8892Y184459D01*
X-8839Y184524D01*
X-8788Y184592D01*
X-8741Y184663D01*
X-8697Y184735D01*
X-8656Y184809D01*
X-8619Y184885D01*
X-8585Y184963D01*
X-8555Y185042D01*
X-8529Y185123D01*
X-8506Y185205D01*
X-8488Y185287D01*
X-8473Y185371D01*
X-8462Y185455D01*
X-8454Y185539D01*
X-8451Y185624D01*
X-8452Y185708D01*
X-8456Y185793D01*
X-8465Y185877D01*
X-8477Y185961D01*
X-8493Y186044D01*
X-8513Y186127D01*
X-8537Y186208D01*
X-8565Y186288D01*
X-8596Y186367D01*
X-8631Y186444D01*
X-8669Y186520D01*
X-8711Y186593D01*
X-8756Y186665D01*
X-8805Y186735D01*
X-8856Y186802D01*
X-8911Y186867D01*
X-8968Y186929D01*
X-9029Y186988D01*
X-9092Y187045D01*
X-9157Y187098D01*
X-9225Y187149D01*
X-9296Y187196D01*
X-9368Y187240D01*
X-10956Y188157D01*
X-10956Y188158D02*
X-11050Y188210D01*
X-11146Y188258D01*
X-11243Y188303D01*
X-11342Y188344D01*
X-11443Y188382D01*
X-11544Y188416D01*
X-11647Y188446D01*
X-11751Y188473D01*
X-11856Y188495D01*
X-11961Y188514D01*
X-12067Y188529D01*
X-12174Y188540D01*
X-12281Y188548D01*
X-12388Y188551D01*
X-12495Y188550D01*
X-12603Y188546D01*
X-12709Y188537D01*
X-12816Y188525D01*
X-12922Y188508D01*
X-13027Y188488D01*
X-13132Y188464D01*
X-13235Y188437D01*
X-13338Y188405D01*
X-13439Y188370D01*
X-13539Y188331D01*
X-13637Y188288D01*
X-13734Y188242D01*
X-13829Y188193D01*
X-13922Y188140D01*
X-14014Y188083D01*
X-14103Y188024D01*
X-14189Y187961D01*
X-14274Y187895D01*
X-14356Y187826D01*
X-14435Y187754D01*
X-14512Y187679D01*
X-14586Y187601D01*
X-14657Y187521D01*
X-14725Y187438D01*
X-14790Y187353D01*
X-14852Y187265D01*
X-14910Y187175D01*
X-14966Y187084D01*
X-16805Y183897D02*
X-12675Y181512D01*
X-12603Y181468D01*
X-12532Y181421D01*
X-12464Y181370D01*
X-12399Y181317D01*
X-12336Y181260D01*
X-12275Y181201D01*
X-12218Y181139D01*
X-12163Y181074D01*
X-12112Y181007D01*
X-12063Y180937D01*
X-12018Y180865D01*
X-11976Y180792D01*
X-11938Y180716D01*
X-11903Y180639D01*
X-11872Y180560D01*
X-11844Y180480D01*
X-11820Y180399D01*
X-11800Y180316D01*
X-11784Y180233D01*
X-11772Y180149D01*
X-11763Y180065D01*
X-11759Y179980D01*
X-11758Y179896D01*
X-11761Y179811D01*
X-11769Y179727D01*
X-11780Y179643D01*
X-11795Y179559D01*
X-11813Y179477D01*
X-11836Y179395D01*
X-11862Y179314D01*
X-11892Y179235D01*
X-11926Y179157D01*
X-11963Y179081D01*
X-12004Y179007D01*
X-12048Y178935D01*
X-12095Y178864D01*
X-12146Y178796D01*
X-12199Y178731D01*
X-12256Y178668D01*
X-12315Y178607D01*
X-12377Y178550D01*
X-12442Y178495D01*
X-12509Y178444D01*
X-12579Y178395D01*
X-12651Y178350D01*
X-12724Y178308D01*
X-12800Y178270D01*
X-12877Y178235D01*
X-12956Y178204D01*
X-13036Y178176D01*
X-13117Y178152D01*
X-13200Y178132D01*
X-13283Y178116D01*
X-13367Y178104D01*
X-13451Y178095D01*
X-13536Y178091D01*
X-13620Y178090D01*
X-13705Y178093D01*
X-13789Y178101D01*
X-13873Y178112D01*
X-13957Y178127D01*
X-14039Y178145D01*
X-14121Y178168D01*
X-14202Y178194D01*
X-14281Y178224D01*
X-14359Y178258D01*
X-14435Y178295D01*
X-14509Y178336D01*
X-14509Y178335D02*
X-18640Y180720D01*
X-23746Y173942D02*
X-18026Y170640D01*
X-23746Y173942D02*
X-24663Y172353D01*
X-24662Y172353D02*
X-24703Y172279D01*
X-24740Y172203D01*
X-24774Y172125D01*
X-24804Y172046D01*
X-24830Y171965D01*
X-24853Y171883D01*
X-24871Y171801D01*
X-24886Y171717D01*
X-24897Y171633D01*
X-24905Y171549D01*
X-24908Y171464D01*
X-24907Y171380D01*
X-24903Y171295D01*
X-24894Y171211D01*
X-24882Y171127D01*
X-24866Y171044D01*
X-24846Y170961D01*
X-24822Y170880D01*
X-24794Y170800D01*
X-24763Y170721D01*
X-24728Y170644D01*
X-24690Y170568D01*
X-24648Y170495D01*
X-24603Y170423D01*
X-24554Y170353D01*
X-24503Y170286D01*
X-24448Y170221D01*
X-24391Y170159D01*
X-24330Y170100D01*
X-24267Y170043D01*
X-24202Y169990D01*
X-24134Y169939D01*
X-24063Y169892D01*
X-23991Y169848D01*
X-23917Y169807D01*
X-23841Y169770D01*
X-23763Y169736D01*
X-23684Y169706D01*
X-23603Y169680D01*
X-23521Y169657D01*
X-23439Y169639D01*
X-23355Y169624D01*
X-23271Y169613D01*
X-23187Y169605D01*
X-23102Y169602D01*
X-23018Y169603D01*
X-22933Y169607D01*
X-22849Y169616D01*
X-22765Y169628D01*
X-22682Y169644D01*
X-22599Y169664D01*
X-22518Y169688D01*
X-22438Y169716D01*
X-22359Y169747D01*
X-22282Y169782D01*
X-22206Y169820D01*
X-22133Y169862D01*
X-22061Y169907D01*
X-21991Y169956D01*
X-21924Y170007D01*
X-21859Y170062D01*
X-21797Y170119D01*
X-21738Y170180D01*
X-21681Y170243D01*
X-21628Y170308D01*
X-21577Y170376D01*
X-21530Y170447D01*
X-21486Y170519D01*
X-21485Y170518D02*
X-20568Y172107D01*
X-21075Y165359D02*
X-22176Y163452D01*
X-22214Y163389D01*
X-22256Y163327D01*
X-22301Y163268D01*
X-22349Y163211D01*
X-22400Y163157D01*
X-22454Y163105D01*
X-22510Y163056D01*
X-22568Y163010D01*
X-22629Y162967D01*
X-22692Y162927D01*
X-22756Y162891D01*
X-22823Y162857D01*
X-22891Y162827D01*
X-22960Y162801D01*
X-23031Y162778D01*
X-23103Y162759D01*
X-23176Y162743D01*
X-23249Y162731D01*
X-23323Y162723D01*
X-23397Y162719D01*
X-23472Y162718D01*
X-23546Y162721D01*
X-23620Y162728D01*
X-23694Y162739D01*
X-23767Y162753D01*
X-23839Y162771D01*
X-23910Y162793D01*
X-23980Y162818D01*
X-24049Y162847D01*
X-24116Y162879D01*
X-24181Y162915D01*
X-24816Y163282D01*
X-24879Y163320D01*
X-24941Y163362D01*
X-25000Y163408D01*
X-25057Y163455D01*
X-25111Y163506D01*
X-25163Y163560D01*
X-25212Y163616D01*
X-25258Y163674D01*
X-25301Y163735D01*
X-25341Y163798D01*
X-25377Y163862D01*
X-25411Y163929D01*
X-25441Y163997D01*
X-25467Y164066D01*
X-25490Y164137D01*
X-25509Y164209D01*
X-25525Y164282D01*
X-25537Y164355D01*
X-25545Y164429D01*
X-25549Y164503D01*
X-25550Y164578D01*
X-25547Y164652D01*
X-25540Y164726D01*
X-25529Y164800D01*
X-25515Y164873D01*
X-25497Y164945D01*
X-25475Y165016D01*
X-25450Y165086D01*
X-25421Y165155D01*
X-25389Y165222D01*
X-25353Y165287D01*
X-24252Y167193D01*
X-26794Y168661D01*
X-28629Y165484D01*
X-30101Y162933D02*
X-25971Y160548D01*
X-25971Y160547D02*
X-25899Y160503D01*
X-25828Y160456D01*
X-25760Y160405D01*
X-25695Y160352D01*
X-25632Y160295D01*
X-25571Y160236D01*
X-25514Y160174D01*
X-25459Y160109D01*
X-25408Y160042D01*
X-25359Y159972D01*
X-25314Y159900D01*
X-25272Y159827D01*
X-25234Y159751D01*
X-25199Y159674D01*
X-25168Y159595D01*
X-25140Y159515D01*
X-25116Y159434D01*
X-25096Y159351D01*
X-25080Y159268D01*
X-25068Y159184D01*
X-25059Y159100D01*
X-25055Y159015D01*
X-25054Y158931D01*
X-25057Y158846D01*
X-25065Y158762D01*
X-25076Y158678D01*
X-25091Y158594D01*
X-25109Y158512D01*
X-25132Y158430D01*
X-25158Y158349D01*
X-25188Y158270D01*
X-25222Y158192D01*
X-25259Y158116D01*
X-25300Y158042D01*
X-25344Y157970D01*
X-25391Y157899D01*
X-25442Y157831D01*
X-25495Y157766D01*
X-25552Y157703D01*
X-25611Y157642D01*
X-25673Y157585D01*
X-25738Y157530D01*
X-25805Y157479D01*
X-25875Y157430D01*
X-25947Y157385D01*
X-26020Y157343D01*
X-26096Y157305D01*
X-26173Y157270D01*
X-26252Y157239D01*
X-26332Y157211D01*
X-26413Y157187D01*
X-26496Y157167D01*
X-26579Y157151D01*
X-26663Y157139D01*
X-26747Y157130D01*
X-26832Y157126D01*
X-26916Y157125D01*
X-27001Y157128D01*
X-27085Y157136D01*
X-27169Y157147D01*
X-27253Y157162D01*
X-27335Y157180D01*
X-27417Y157203D01*
X-27498Y157229D01*
X-27577Y157259D01*
X-27655Y157293D01*
X-27731Y157330D01*
X-27805Y157371D01*
X-31936Y159755D01*
X-34661Y153190D02*
X-28941Y149888D01*
X-34661Y153190D02*
X-35578Y151601D01*
X-35577Y151601D02*
X-35618Y151527D01*
X-35655Y151451D01*
X-35689Y151373D01*
X-35719Y151294D01*
X-35745Y151213D01*
X-35768Y151131D01*
X-35786Y151049D01*
X-35801Y150965D01*
X-35812Y150881D01*
X-35820Y150797D01*
X-35823Y150712D01*
X-35822Y150628D01*
X-35818Y150543D01*
X-35809Y150459D01*
X-35797Y150375D01*
X-35781Y150292D01*
X-35761Y150209D01*
X-35737Y150128D01*
X-35709Y150048D01*
X-35678Y149969D01*
X-35643Y149892D01*
X-35605Y149816D01*
X-35563Y149743D01*
X-35518Y149671D01*
X-35469Y149601D01*
X-35418Y149534D01*
X-35363Y149469D01*
X-35306Y149407D01*
X-35245Y149348D01*
X-35182Y149291D01*
X-35117Y149238D01*
X-35049Y149187D01*
X-34978Y149140D01*
X-34906Y149096D01*
X-34832Y149055D01*
X-34756Y149018D01*
X-34678Y148984D01*
X-34599Y148954D01*
X-34518Y148928D01*
X-34436Y148905D01*
X-34354Y148887D01*
X-34270Y148872D01*
X-34186Y148861D01*
X-34102Y148853D01*
X-34017Y148850D01*
X-33933Y148851D01*
X-33848Y148855D01*
X-33764Y148864D01*
X-33680Y148876D01*
X-33597Y148892D01*
X-33514Y148912D01*
X-33433Y148936D01*
X-33353Y148964D01*
X-33274Y148995D01*
X-33197Y149030D01*
X-33121Y149068D01*
X-33048Y149110D01*
X-32976Y149155D01*
X-32906Y149204D01*
X-32839Y149255D01*
X-32774Y149310D01*
X-32712Y149367D01*
X-32653Y149428D01*
X-32596Y149491D01*
X-32543Y149556D01*
X-32492Y149624D01*
X-32445Y149695D01*
X-32401Y149767D01*
X-32400Y149767D02*
X-31483Y151356D01*
X-33261Y145341D02*
X-38443Y146638D01*
X-33261Y145341D02*
X-35096Y142164D01*
X-35816Y143851D02*
X-33274Y142383D01*
X-36886Y139797D02*
X-41017Y142181D01*
X-36886Y139796D02*
X-36814Y139752D01*
X-36743Y139705D01*
X-36675Y139654D01*
X-36610Y139601D01*
X-36547Y139544D01*
X-36486Y139485D01*
X-36429Y139423D01*
X-36374Y139358D01*
X-36323Y139291D01*
X-36274Y139221D01*
X-36229Y139149D01*
X-36187Y139076D01*
X-36149Y139000D01*
X-36114Y138923D01*
X-36083Y138844D01*
X-36055Y138764D01*
X-36031Y138683D01*
X-36011Y138600D01*
X-35995Y138517D01*
X-35983Y138433D01*
X-35974Y138349D01*
X-35970Y138264D01*
X-35969Y138180D01*
X-35972Y138095D01*
X-35980Y138011D01*
X-35991Y137927D01*
X-36006Y137843D01*
X-36024Y137761D01*
X-36047Y137679D01*
X-36073Y137598D01*
X-36103Y137519D01*
X-36137Y137441D01*
X-36174Y137365D01*
X-36215Y137291D01*
X-36259Y137219D01*
X-36306Y137148D01*
X-36357Y137080D01*
X-36410Y137015D01*
X-36467Y136952D01*
X-36526Y136891D01*
X-36588Y136834D01*
X-36653Y136779D01*
X-36720Y136728D01*
X-36790Y136679D01*
X-36862Y136634D01*
X-36935Y136592D01*
X-37011Y136554D01*
X-37088Y136519D01*
X-37167Y136488D01*
X-37247Y136460D01*
X-37328Y136436D01*
X-37411Y136416D01*
X-37494Y136400D01*
X-37578Y136388D01*
X-37662Y136379D01*
X-37747Y136375D01*
X-37831Y136374D01*
X-37916Y136377D01*
X-38000Y136385D01*
X-38084Y136396D01*
X-38168Y136411D01*
X-38250Y136429D01*
X-38332Y136452D01*
X-38413Y136478D01*
X-38492Y136508D01*
X-38570Y136542D01*
X-38646Y136579D01*
X-38720Y136620D01*
X-38720Y136619D02*
X-42851Y139004D01*
X73681Y204974D02*
X74232Y205927D01*
X73681Y204974D02*
X76859Y203139D01*
X77959Y205046D01*
X77960Y205045D02*
X77996Y205110D01*
X78028Y205177D01*
X78057Y205246D01*
X78082Y205316D01*
X78104Y205387D01*
X78122Y205459D01*
X78136Y205532D01*
X78147Y205606D01*
X78154Y205680D01*
X78157Y205754D01*
X78156Y205829D01*
X78152Y205903D01*
X78144Y205977D01*
X78132Y206050D01*
X78116Y206123D01*
X78097Y206195D01*
X78074Y206266D01*
X78048Y206335D01*
X78018Y206403D01*
X77984Y206470D01*
X77948Y206534D01*
X77908Y206597D01*
X77865Y206658D01*
X77819Y206716D01*
X77770Y206772D01*
X77718Y206826D01*
X77664Y206877D01*
X77607Y206925D01*
X77548Y206970D01*
X77486Y207012D01*
X77423Y207050D01*
X77422Y207050D02*
X74245Y208885D01*
X74180Y208921D01*
X74113Y208953D01*
X74044Y208982D01*
X73974Y209007D01*
X73903Y209029D01*
X73831Y209047D01*
X73758Y209061D01*
X73684Y209072D01*
X73610Y209079D01*
X73536Y209082D01*
X73461Y209081D01*
X73387Y209077D01*
X73313Y209069D01*
X73240Y209057D01*
X73167Y209041D01*
X73095Y209022D01*
X73024Y208999D01*
X72955Y208973D01*
X72887Y208943D01*
X72820Y208909D01*
X72756Y208873D01*
X72693Y208833D01*
X72632Y208790D01*
X72574Y208744D01*
X72518Y208695D01*
X72464Y208643D01*
X72413Y208589D01*
X72365Y208532D01*
X72320Y208473D01*
X72278Y208411D01*
X72240Y208348D01*
X71140Y206441D01*
X69560Y203706D02*
X75279Y200404D01*
X73445Y197226D02*
X69560Y203706D01*
X67726Y200528D02*
X73445Y197226D01*
X71866Y194491D02*
X66146Y197793D01*
X65229Y196204D01*
X65230Y196204D02*
X65189Y196130D01*
X65152Y196054D01*
X65118Y195976D01*
X65088Y195897D01*
X65062Y195816D01*
X65039Y195734D01*
X65021Y195652D01*
X65006Y195568D01*
X64995Y195484D01*
X64987Y195400D01*
X64984Y195315D01*
X64985Y195231D01*
X64989Y195146D01*
X64998Y195062D01*
X65010Y194978D01*
X65026Y194895D01*
X65046Y194812D01*
X65070Y194731D01*
X65098Y194651D01*
X65129Y194572D01*
X65164Y194495D01*
X65202Y194419D01*
X65244Y194346D01*
X65289Y194274D01*
X65338Y194204D01*
X65389Y194137D01*
X65444Y194072D01*
X65501Y194010D01*
X65562Y193951D01*
X65625Y193894D01*
X65690Y193841D01*
X65758Y193790D01*
X65829Y193743D01*
X65901Y193699D01*
X65901Y193698D02*
X68443Y192231D01*
X68443Y192232D02*
X68517Y192191D01*
X68593Y192154D01*
X68671Y192120D01*
X68750Y192090D01*
X68831Y192064D01*
X68913Y192041D01*
X68995Y192023D01*
X69079Y192008D01*
X69163Y191997D01*
X69247Y191989D01*
X69332Y191986D01*
X69416Y191987D01*
X69501Y191991D01*
X69585Y192000D01*
X69669Y192012D01*
X69752Y192028D01*
X69835Y192048D01*
X69916Y192072D01*
X69996Y192100D01*
X70075Y192131D01*
X70152Y192166D01*
X70228Y192204D01*
X70301Y192246D01*
X70373Y192291D01*
X70443Y192340D01*
X70510Y192391D01*
X70575Y192446D01*
X70637Y192503D01*
X70696Y192564D01*
X70753Y192627D01*
X70806Y192692D01*
X70857Y192760D01*
X70904Y192831D01*
X70948Y192903D01*
X70948Y192902D02*
X71866Y194491D01*
X128165Y174105D02*
X128716Y175058D01*
X128165Y174105D02*
X131343Y172271D01*
X132443Y174177D01*
X132479Y174242D01*
X132511Y174309D01*
X132540Y174378D01*
X132565Y174448D01*
X132587Y174519D01*
X132605Y174591D01*
X132619Y174664D01*
X132630Y174738D01*
X132637Y174812D01*
X132640Y174886D01*
X132639Y174961D01*
X132635Y175035D01*
X132627Y175109D01*
X132615Y175182D01*
X132599Y175255D01*
X132580Y175327D01*
X132557Y175398D01*
X132531Y175467D01*
X132501Y175535D01*
X132467Y175602D01*
X132431Y175666D01*
X132391Y175729D01*
X132348Y175790D01*
X132302Y175848D01*
X132253Y175904D01*
X132201Y175958D01*
X132147Y176009D01*
X132090Y176057D01*
X132031Y176102D01*
X131969Y176144D01*
X131906Y176182D01*
X128729Y178016D01*
X128664Y178052D01*
X128597Y178084D01*
X128528Y178113D01*
X128458Y178138D01*
X128387Y178160D01*
X128315Y178178D01*
X128242Y178192D01*
X128168Y178203D01*
X128094Y178210D01*
X128020Y178213D01*
X127945Y178212D01*
X127871Y178208D01*
X127797Y178200D01*
X127724Y178188D01*
X127651Y178172D01*
X127579Y178153D01*
X127508Y178130D01*
X127439Y178104D01*
X127371Y178074D01*
X127304Y178040D01*
X127240Y178004D01*
X127177Y177964D01*
X127116Y177921D01*
X127058Y177875D01*
X127002Y177826D01*
X126948Y177774D01*
X126897Y177720D01*
X126849Y177663D01*
X126804Y177604D01*
X126762Y177542D01*
X126724Y177479D01*
X125623Y175573D01*
X124044Y172837D02*
X129763Y169535D01*
X127929Y166358D02*
X124044Y172837D01*
X122210Y169660D02*
X127929Y166358D01*
X126349Y163622D02*
X120630Y166924D01*
X119713Y165336D01*
X119714Y165335D02*
X119673Y165261D01*
X119636Y165185D01*
X119602Y165107D01*
X119572Y165028D01*
X119546Y164947D01*
X119523Y164865D01*
X119505Y164783D01*
X119490Y164699D01*
X119479Y164615D01*
X119471Y164531D01*
X119468Y164446D01*
X119469Y164362D01*
X119473Y164277D01*
X119482Y164193D01*
X119494Y164109D01*
X119510Y164026D01*
X119530Y163943D01*
X119554Y163862D01*
X119582Y163782D01*
X119613Y163703D01*
X119648Y163626D01*
X119686Y163550D01*
X119728Y163477D01*
X119773Y163405D01*
X119822Y163335D01*
X119873Y163268D01*
X119928Y163203D01*
X119985Y163141D01*
X120046Y163082D01*
X120109Y163025D01*
X120174Y162972D01*
X120242Y162921D01*
X120313Y162874D01*
X120385Y162830D01*
X122926Y161362D01*
X122927Y161363D02*
X123001Y161322D01*
X123077Y161285D01*
X123155Y161251D01*
X123234Y161221D01*
X123315Y161195D01*
X123397Y161172D01*
X123479Y161154D01*
X123563Y161139D01*
X123647Y161128D01*
X123731Y161120D01*
X123816Y161117D01*
X123900Y161118D01*
X123985Y161122D01*
X124069Y161131D01*
X124153Y161143D01*
X124236Y161159D01*
X124319Y161179D01*
X124400Y161203D01*
X124480Y161231D01*
X124559Y161262D01*
X124636Y161297D01*
X124712Y161335D01*
X124785Y161377D01*
X124857Y161422D01*
X124927Y161471D01*
X124994Y161522D01*
X125059Y161577D01*
X125121Y161634D01*
X125180Y161695D01*
X125237Y161758D01*
X125290Y161823D01*
X125341Y161891D01*
X125388Y161962D01*
X125432Y162034D01*
X126349Y163622D01*
X-3153Y73261D02*
X-3703Y72308D01*
X-526Y70473D01*
X575Y72380D01*
X575Y72379D02*
X611Y72444D01*
X643Y72511D01*
X672Y72580D01*
X697Y72650D01*
X719Y72721D01*
X737Y72793D01*
X751Y72866D01*
X762Y72940D01*
X769Y73014D01*
X772Y73088D01*
X771Y73163D01*
X767Y73237D01*
X759Y73311D01*
X747Y73384D01*
X731Y73457D01*
X712Y73529D01*
X689Y73600D01*
X663Y73669D01*
X633Y73737D01*
X599Y73804D01*
X563Y73868D01*
X523Y73931D01*
X480Y73992D01*
X434Y74050D01*
X385Y74106D01*
X333Y74160D01*
X279Y74211D01*
X222Y74259D01*
X163Y74304D01*
X101Y74346D01*
X38Y74384D01*
X-3140Y76219D01*
X-3139Y76219D02*
X-3204Y76255D01*
X-3271Y76287D01*
X-3340Y76316D01*
X-3410Y76341D01*
X-3481Y76363D01*
X-3553Y76381D01*
X-3626Y76395D01*
X-3700Y76406D01*
X-3774Y76413D01*
X-3848Y76416D01*
X-3923Y76415D01*
X-3997Y76411D01*
X-4071Y76403D01*
X-4144Y76391D01*
X-4217Y76375D01*
X-4289Y76356D01*
X-4360Y76333D01*
X-4429Y76307D01*
X-4497Y76277D01*
X-4564Y76243D01*
X-4628Y76207D01*
X-4691Y76167D01*
X-4752Y76124D01*
X-4810Y76078D01*
X-4866Y76029D01*
X-4920Y75977D01*
X-4971Y75923D01*
X-5019Y75866D01*
X-5064Y75807D01*
X-5106Y75745D01*
X-5144Y75682D01*
X-6245Y73775D01*
X-7824Y71040D02*
X-2105Y67738D01*
X-3940Y64560D02*
X-7824Y71040D01*
X-9659Y67862D02*
X-3940Y64560D01*
X-5519Y61825D02*
X-11238Y65127D01*
X-12155Y63538D01*
X-12196Y63464D01*
X-12233Y63388D01*
X-12267Y63310D01*
X-12297Y63231D01*
X-12323Y63150D01*
X-12346Y63068D01*
X-12364Y62986D01*
X-12379Y62902D01*
X-12390Y62818D01*
X-12398Y62734D01*
X-12401Y62649D01*
X-12400Y62565D01*
X-12396Y62480D01*
X-12387Y62396D01*
X-12375Y62312D01*
X-12359Y62229D01*
X-12339Y62146D01*
X-12315Y62065D01*
X-12287Y61985D01*
X-12256Y61906D01*
X-12221Y61829D01*
X-12183Y61753D01*
X-12141Y61680D01*
X-12096Y61608D01*
X-12047Y61538D01*
X-11996Y61471D01*
X-11941Y61406D01*
X-11884Y61344D01*
X-11823Y61285D01*
X-11760Y61228D01*
X-11695Y61175D01*
X-11627Y61124D01*
X-11556Y61077D01*
X-11484Y61033D01*
X-11484Y61032D02*
X-8942Y59565D01*
X-8943Y59564D02*
X-8868Y59523D01*
X-8792Y59486D01*
X-8714Y59452D01*
X-8635Y59422D01*
X-8554Y59396D01*
X-8473Y59373D01*
X-8390Y59355D01*
X-8306Y59340D01*
X-8222Y59329D01*
X-8138Y59321D01*
X-8053Y59318D01*
X-7969Y59319D01*
X-7884Y59323D01*
X-7800Y59332D01*
X-7716Y59344D01*
X-7632Y59360D01*
X-7550Y59381D01*
X-7469Y59404D01*
X-7389Y59432D01*
X-7310Y59463D01*
X-7232Y59498D01*
X-7157Y59536D01*
X-7083Y59578D01*
X-7011Y59623D01*
X-6942Y59672D01*
X-6875Y59723D01*
X-6810Y59778D01*
X-6748Y59836D01*
X-6688Y59896D01*
X-6632Y59959D01*
X-6578Y60025D01*
X-6527Y60093D01*
X-6480Y60163D01*
X-6436Y60235D01*
X-6436Y60236D02*
X-5519Y61825D01*
X50781Y41439D02*
X51331Y42392D01*
X50781Y41439D02*
X53958Y39604D01*
X55059Y41511D01*
X55095Y41576D01*
X55127Y41643D01*
X55156Y41712D01*
X55181Y41782D01*
X55203Y41853D01*
X55221Y41925D01*
X55235Y41998D01*
X55246Y42072D01*
X55253Y42146D01*
X55256Y42220D01*
X55255Y42295D01*
X55251Y42369D01*
X55243Y42443D01*
X55231Y42516D01*
X55215Y42589D01*
X55196Y42661D01*
X55173Y42732D01*
X55147Y42801D01*
X55117Y42869D01*
X55083Y42936D01*
X55047Y43000D01*
X55007Y43063D01*
X54964Y43124D01*
X54918Y43182D01*
X54869Y43238D01*
X54817Y43292D01*
X54763Y43343D01*
X54706Y43391D01*
X54647Y43436D01*
X54585Y43478D01*
X54522Y43516D01*
X51344Y45350D01*
X51279Y45386D01*
X51212Y45418D01*
X51143Y45447D01*
X51073Y45472D01*
X51002Y45494D01*
X50930Y45512D01*
X50857Y45526D01*
X50783Y45537D01*
X50709Y45544D01*
X50635Y45547D01*
X50560Y45546D01*
X50486Y45542D01*
X50412Y45534D01*
X50339Y45522D01*
X50266Y45506D01*
X50194Y45487D01*
X50123Y45464D01*
X50054Y45438D01*
X49986Y45408D01*
X49919Y45374D01*
X49855Y45338D01*
X49792Y45298D01*
X49731Y45255D01*
X49673Y45209D01*
X49617Y45160D01*
X49563Y45108D01*
X49512Y45054D01*
X49464Y44997D01*
X49419Y44938D01*
X49377Y44876D01*
X49339Y44813D01*
X49340Y44813D02*
X48239Y42906D01*
X46660Y40171D02*
X52379Y36869D01*
X50544Y33692D02*
X46660Y40171D01*
X44825Y36994D02*
X50544Y33692D01*
X48965Y30956D02*
X43246Y34258D01*
X42329Y32669D01*
X42288Y32595D01*
X42251Y32519D01*
X42217Y32441D01*
X42187Y32362D01*
X42161Y32281D01*
X42138Y32199D01*
X42120Y32117D01*
X42105Y32033D01*
X42094Y31949D01*
X42086Y31865D01*
X42083Y31780D01*
X42084Y31696D01*
X42088Y31611D01*
X42097Y31527D01*
X42109Y31443D01*
X42125Y31360D01*
X42145Y31277D01*
X42169Y31196D01*
X42197Y31116D01*
X42228Y31037D01*
X42263Y30960D01*
X42301Y30884D01*
X42343Y30811D01*
X42388Y30739D01*
X42437Y30669D01*
X42488Y30602D01*
X42543Y30537D01*
X42600Y30475D01*
X42661Y30416D01*
X42724Y30359D01*
X42789Y30306D01*
X42857Y30255D01*
X42928Y30208D01*
X43000Y30164D01*
X43000Y30163D02*
X45542Y28696D01*
X45542Y28697D02*
X45616Y28656D01*
X45692Y28619D01*
X45770Y28585D01*
X45849Y28555D01*
X45930Y28529D01*
X46012Y28506D01*
X46094Y28488D01*
X46178Y28473D01*
X46262Y28462D01*
X46346Y28454D01*
X46431Y28451D01*
X46515Y28452D01*
X46600Y28456D01*
X46684Y28465D01*
X46768Y28477D01*
X46851Y28493D01*
X46934Y28513D01*
X47015Y28537D01*
X47095Y28565D01*
X47174Y28596D01*
X47251Y28631D01*
X47327Y28669D01*
X47400Y28711D01*
X47472Y28756D01*
X47542Y28805D01*
X47609Y28856D01*
X47674Y28911D01*
X47736Y28968D01*
X47795Y29029D01*
X47852Y29092D01*
X47905Y29157D01*
X47956Y29225D01*
X48003Y29296D01*
X48047Y29368D01*
X48048Y29367D02*
X48965Y30956D01*
X13105Y93855D02*
X8487Y99064D01*
X6286Y95251D02*
X13105Y93855D01*
X10716Y89716D02*
X4996Y93018D01*
X4079Y91429D01*
X4080Y91429D02*
X4039Y91355D01*
X4002Y91279D01*
X3968Y91201D01*
X3938Y91122D01*
X3912Y91041D01*
X3889Y90959D01*
X3871Y90877D01*
X3856Y90793D01*
X3845Y90709D01*
X3837Y90625D01*
X3834Y90540D01*
X3835Y90456D01*
X3839Y90371D01*
X3848Y90287D01*
X3860Y90203D01*
X3876Y90120D01*
X3896Y90037D01*
X3920Y89956D01*
X3948Y89876D01*
X3979Y89797D01*
X4014Y89720D01*
X4052Y89644D01*
X4094Y89571D01*
X4139Y89499D01*
X4188Y89429D01*
X4239Y89362D01*
X4294Y89297D01*
X4351Y89235D01*
X4412Y89176D01*
X4475Y89119D01*
X4540Y89066D01*
X4608Y89015D01*
X4679Y88968D01*
X4751Y88924D01*
X4751Y88923D02*
X7293Y87456D01*
X7367Y87415D01*
X7443Y87378D01*
X7521Y87344D01*
X7600Y87314D01*
X7681Y87288D01*
X7763Y87265D01*
X7845Y87247D01*
X7929Y87232D01*
X8013Y87221D01*
X8097Y87213D01*
X8182Y87210D01*
X8266Y87211D01*
X8351Y87215D01*
X8435Y87224D01*
X8519Y87236D01*
X8602Y87252D01*
X8685Y87272D01*
X8766Y87296D01*
X8846Y87324D01*
X8925Y87355D01*
X9002Y87390D01*
X9078Y87428D01*
X9151Y87470D01*
X9223Y87515D01*
X9293Y87564D01*
X9360Y87615D01*
X9425Y87670D01*
X9487Y87727D01*
X9546Y87788D01*
X9603Y87851D01*
X9656Y87916D01*
X9707Y87984D01*
X9754Y88055D01*
X9798Y88127D01*
X10716Y89716D01*
X7302Y83803D02*
X1583Y87105D01*
X665Y85516D01*
X666Y85516D02*
X625Y85442D01*
X588Y85366D01*
X554Y85288D01*
X524Y85209D01*
X498Y85128D01*
X475Y85046D01*
X457Y84964D01*
X442Y84880D01*
X431Y84796D01*
X423Y84712D01*
X420Y84627D01*
X421Y84543D01*
X425Y84458D01*
X434Y84374D01*
X446Y84290D01*
X462Y84207D01*
X482Y84124D01*
X506Y84043D01*
X534Y83963D01*
X565Y83884D01*
X600Y83807D01*
X638Y83731D01*
X680Y83658D01*
X725Y83586D01*
X774Y83516D01*
X825Y83449D01*
X880Y83384D01*
X937Y83322D01*
X998Y83263D01*
X1061Y83206D01*
X1126Y83153D01*
X1194Y83102D01*
X1265Y83055D01*
X1337Y83011D01*
X1337Y83010D02*
X3879Y81543D01*
X3953Y81502D01*
X4029Y81465D01*
X4107Y81431D01*
X4186Y81401D01*
X4267Y81375D01*
X4349Y81352D01*
X4431Y81334D01*
X4515Y81319D01*
X4599Y81308D01*
X4683Y81300D01*
X4768Y81297D01*
X4852Y81298D01*
X4937Y81302D01*
X5021Y81311D01*
X5105Y81323D01*
X5188Y81339D01*
X5271Y81359D01*
X5352Y81383D01*
X5432Y81411D01*
X5511Y81442D01*
X5588Y81477D01*
X5664Y81515D01*
X5737Y81557D01*
X5809Y81602D01*
X5879Y81651D01*
X5946Y81702D01*
X6011Y81757D01*
X6073Y81814D01*
X6132Y81875D01*
X6189Y81938D01*
X6242Y82003D01*
X6293Y82071D01*
X6340Y82142D01*
X6384Y82214D01*
X6385Y82214D02*
X7302Y83803D01*
X63764Y66820D02*
X68383Y61612D01*
X61563Y63007D01*
X60274Y60774D02*
X65993Y57472D01*
X60274Y60774D02*
X59357Y59186D01*
X59357Y59185D02*
X59316Y59111D01*
X59279Y59035D01*
X59245Y58957D01*
X59215Y58878D01*
X59189Y58797D01*
X59166Y58715D01*
X59148Y58633D01*
X59133Y58549D01*
X59122Y58465D01*
X59114Y58381D01*
X59111Y58296D01*
X59112Y58212D01*
X59116Y58127D01*
X59125Y58043D01*
X59137Y57959D01*
X59153Y57876D01*
X59173Y57793D01*
X59197Y57712D01*
X59225Y57632D01*
X59256Y57553D01*
X59291Y57476D01*
X59329Y57400D01*
X59371Y57327D01*
X59416Y57255D01*
X59465Y57185D01*
X59516Y57118D01*
X59571Y57053D01*
X59628Y56991D01*
X59689Y56932D01*
X59752Y56875D01*
X59817Y56822D01*
X59885Y56771D01*
X59956Y56724D01*
X60028Y56680D01*
X62570Y55212D01*
X62570Y55213D02*
X62644Y55172D01*
X62720Y55135D01*
X62798Y55101D01*
X62877Y55071D01*
X62958Y55045D01*
X63040Y55022D01*
X63122Y55004D01*
X63206Y54989D01*
X63290Y54978D01*
X63374Y54970D01*
X63459Y54967D01*
X63543Y54968D01*
X63628Y54972D01*
X63712Y54981D01*
X63796Y54993D01*
X63879Y55009D01*
X63962Y55029D01*
X64043Y55053D01*
X64123Y55081D01*
X64202Y55112D01*
X64279Y55147D01*
X64355Y55185D01*
X64428Y55227D01*
X64500Y55272D01*
X64570Y55321D01*
X64637Y55372D01*
X64702Y55427D01*
X64764Y55484D01*
X64823Y55545D01*
X64880Y55608D01*
X64933Y55673D01*
X64984Y55741D01*
X65031Y55812D01*
X65075Y55884D01*
X65076Y55884D02*
X65993Y57472D01*
X62579Y51559D02*
X56860Y54861D01*
X55943Y53273D01*
X55944Y53272D02*
X55903Y53198D01*
X55866Y53122D01*
X55832Y53044D01*
X55802Y52965D01*
X55776Y52884D01*
X55753Y52802D01*
X55735Y52720D01*
X55720Y52636D01*
X55709Y52552D01*
X55701Y52468D01*
X55698Y52383D01*
X55699Y52299D01*
X55703Y52214D01*
X55712Y52130D01*
X55724Y52046D01*
X55740Y51963D01*
X55760Y51880D01*
X55784Y51799D01*
X55812Y51719D01*
X55843Y51640D01*
X55878Y51563D01*
X55916Y51487D01*
X55958Y51414D01*
X56003Y51342D01*
X56052Y51272D01*
X56103Y51205D01*
X56158Y51140D01*
X56215Y51078D01*
X56276Y51019D01*
X56339Y50962D01*
X56404Y50909D01*
X56472Y50858D01*
X56543Y50811D01*
X56615Y50767D01*
X56614Y50767D02*
X59156Y49299D01*
X59157Y49300D02*
X59231Y49259D01*
X59307Y49222D01*
X59385Y49188D01*
X59464Y49158D01*
X59545Y49132D01*
X59627Y49109D01*
X59709Y49091D01*
X59793Y49076D01*
X59877Y49065D01*
X59961Y49057D01*
X60046Y49054D01*
X60130Y49055D01*
X60215Y49059D01*
X60299Y49068D01*
X60383Y49080D01*
X60466Y49096D01*
X60549Y49116D01*
X60630Y49140D01*
X60710Y49168D01*
X60789Y49199D01*
X60866Y49234D01*
X60942Y49272D01*
X61015Y49314D01*
X61087Y49359D01*
X61157Y49408D01*
X61224Y49459D01*
X61289Y49514D01*
X61351Y49571D01*
X61410Y49632D01*
X61467Y49695D01*
X61520Y49760D01*
X61571Y49828D01*
X61618Y49899D01*
X61662Y49971D01*
X62579Y51559D01*
X63320Y181505D02*
X58702Y186714D01*
X56500Y182901D02*
X63320Y181505D01*
X60930Y177366D02*
X55211Y180668D01*
X54294Y179079D01*
X54295Y179079D02*
X54254Y179005D01*
X54217Y178929D01*
X54183Y178851D01*
X54153Y178772D01*
X54127Y178691D01*
X54104Y178609D01*
X54086Y178527D01*
X54071Y178443D01*
X54060Y178359D01*
X54052Y178275D01*
X54049Y178190D01*
X54050Y178106D01*
X54054Y178021D01*
X54063Y177937D01*
X54075Y177853D01*
X54091Y177770D01*
X54111Y177687D01*
X54135Y177606D01*
X54163Y177526D01*
X54194Y177447D01*
X54229Y177370D01*
X54267Y177294D01*
X54309Y177221D01*
X54354Y177149D01*
X54403Y177079D01*
X54454Y177012D01*
X54509Y176947D01*
X54566Y176885D01*
X54627Y176826D01*
X54690Y176769D01*
X54755Y176716D01*
X54823Y176665D01*
X54894Y176618D01*
X54966Y176574D01*
X54965Y176573D02*
X57507Y175106D01*
X57508Y175107D02*
X57582Y175066D01*
X57658Y175029D01*
X57736Y174995D01*
X57815Y174965D01*
X57896Y174939D01*
X57978Y174916D01*
X58060Y174898D01*
X58144Y174883D01*
X58228Y174872D01*
X58312Y174864D01*
X58397Y174861D01*
X58481Y174862D01*
X58566Y174866D01*
X58650Y174875D01*
X58734Y174887D01*
X58817Y174903D01*
X58900Y174923D01*
X58981Y174947D01*
X59061Y174975D01*
X59140Y175006D01*
X59217Y175041D01*
X59293Y175079D01*
X59366Y175121D01*
X59438Y175166D01*
X59508Y175215D01*
X59575Y175266D01*
X59640Y175321D01*
X59702Y175378D01*
X59761Y175439D01*
X59818Y175502D01*
X59871Y175567D01*
X59922Y175635D01*
X59969Y175706D01*
X60013Y175778D01*
X60013Y175777D02*
X60930Y177366D01*
X57517Y171453D02*
X51797Y174755D01*
X50880Y173167D01*
X50881Y173166D02*
X50840Y173092D01*
X50803Y173016D01*
X50769Y172938D01*
X50739Y172859D01*
X50713Y172778D01*
X50690Y172696D01*
X50672Y172614D01*
X50657Y172530D01*
X50646Y172446D01*
X50638Y172362D01*
X50635Y172277D01*
X50636Y172193D01*
X50640Y172108D01*
X50649Y172024D01*
X50661Y171940D01*
X50677Y171857D01*
X50697Y171774D01*
X50721Y171693D01*
X50749Y171613D01*
X50780Y171534D01*
X50815Y171457D01*
X50853Y171381D01*
X50895Y171308D01*
X50940Y171236D01*
X50989Y171166D01*
X51040Y171099D01*
X51095Y171034D01*
X51152Y170972D01*
X51213Y170913D01*
X51276Y170856D01*
X51341Y170803D01*
X51409Y170752D01*
X51480Y170705D01*
X51552Y170661D01*
X54094Y169193D01*
X54094Y169194D02*
X54168Y169153D01*
X54244Y169116D01*
X54322Y169082D01*
X54401Y169052D01*
X54482Y169026D01*
X54564Y169003D01*
X54646Y168985D01*
X54730Y168970D01*
X54814Y168959D01*
X54898Y168951D01*
X54983Y168948D01*
X55067Y168949D01*
X55152Y168953D01*
X55236Y168962D01*
X55320Y168974D01*
X55403Y168990D01*
X55486Y169010D01*
X55567Y169034D01*
X55647Y169062D01*
X55726Y169093D01*
X55803Y169128D01*
X55879Y169166D01*
X55952Y169208D01*
X56024Y169253D01*
X56094Y169302D01*
X56161Y169353D01*
X56226Y169408D01*
X56288Y169465D01*
X56347Y169526D01*
X56404Y169589D01*
X56457Y169654D01*
X56508Y169722D01*
X56555Y169793D01*
X56599Y169865D01*
X57517Y171453D01*
X113979Y154470D02*
X118598Y149262D01*
X111778Y150658D01*
X110489Y148425D02*
X116208Y145123D01*
X110489Y148425D02*
X109572Y146836D01*
X109531Y146762D01*
X109494Y146686D01*
X109460Y146608D01*
X109430Y146529D01*
X109404Y146448D01*
X109381Y146366D01*
X109363Y146284D01*
X109348Y146200D01*
X109337Y146116D01*
X109329Y146032D01*
X109326Y145947D01*
X109327Y145863D01*
X109331Y145778D01*
X109340Y145694D01*
X109352Y145610D01*
X109368Y145527D01*
X109388Y145444D01*
X109412Y145363D01*
X109440Y145283D01*
X109471Y145204D01*
X109506Y145127D01*
X109544Y145051D01*
X109586Y144978D01*
X109631Y144906D01*
X109680Y144836D01*
X109731Y144769D01*
X109786Y144704D01*
X109843Y144642D01*
X109904Y144583D01*
X109967Y144526D01*
X110032Y144473D01*
X110100Y144422D01*
X110171Y144375D01*
X110243Y144331D01*
X110243Y144330D02*
X112785Y142862D01*
X112785Y142863D02*
X112859Y142822D01*
X112935Y142785D01*
X113013Y142751D01*
X113092Y142721D01*
X113173Y142695D01*
X113255Y142672D01*
X113337Y142654D01*
X113421Y142639D01*
X113505Y142628D01*
X113589Y142620D01*
X113674Y142617D01*
X113758Y142618D01*
X113843Y142622D01*
X113927Y142631D01*
X114011Y142643D01*
X114094Y142659D01*
X114177Y142679D01*
X114258Y142703D01*
X114338Y142731D01*
X114417Y142762D01*
X114494Y142797D01*
X114570Y142835D01*
X114643Y142877D01*
X114715Y142922D01*
X114785Y142971D01*
X114852Y143022D01*
X114917Y143077D01*
X114979Y143134D01*
X115038Y143195D01*
X115095Y143258D01*
X115148Y143323D01*
X115199Y143391D01*
X115246Y143462D01*
X115290Y143534D01*
X115291Y143534D02*
X116208Y145123D01*
X112794Y139210D02*
X107075Y142512D01*
X106158Y140923D01*
X106159Y140923D02*
X106118Y140849D01*
X106081Y140773D01*
X106047Y140695D01*
X106017Y140616D01*
X105991Y140535D01*
X105968Y140453D01*
X105950Y140371D01*
X105935Y140287D01*
X105924Y140203D01*
X105916Y140119D01*
X105913Y140034D01*
X105914Y139950D01*
X105918Y139865D01*
X105927Y139781D01*
X105939Y139697D01*
X105955Y139614D01*
X105975Y139531D01*
X105999Y139450D01*
X106027Y139370D01*
X106058Y139291D01*
X106093Y139214D01*
X106131Y139138D01*
X106173Y139065D01*
X106218Y138993D01*
X106267Y138923D01*
X106318Y138856D01*
X106373Y138791D01*
X106430Y138729D01*
X106491Y138670D01*
X106554Y138613D01*
X106619Y138560D01*
X106687Y138509D01*
X106758Y138462D01*
X106830Y138418D01*
X106829Y138417D02*
X109371Y136950D01*
X109445Y136909D01*
X109521Y136872D01*
X109599Y136838D01*
X109678Y136808D01*
X109759Y136782D01*
X109841Y136759D01*
X109923Y136741D01*
X110007Y136726D01*
X110091Y136715D01*
X110175Y136707D01*
X110260Y136704D01*
X110344Y136705D01*
X110429Y136709D01*
X110513Y136718D01*
X110597Y136730D01*
X110680Y136746D01*
X110763Y136766D01*
X110844Y136790D01*
X110924Y136818D01*
X111003Y136849D01*
X111080Y136884D01*
X111156Y136922D01*
X111229Y136964D01*
X111301Y137009D01*
X111371Y137058D01*
X111438Y137109D01*
X111503Y137164D01*
X111565Y137221D01*
X111624Y137282D01*
X111681Y137345D01*
X111734Y137410D01*
X111785Y137478D01*
X111832Y137549D01*
X111876Y137621D01*
X111877Y137621D02*
X112794Y139210D01*
X106801Y129057D02*
X101082Y132359D01*
X100165Y130771D01*
X100165Y130770D02*
X100124Y130696D01*
X100087Y130620D01*
X100053Y130542D01*
X100023Y130463D01*
X99997Y130382D01*
X99974Y130300D01*
X99956Y130218D01*
X99941Y130134D01*
X99930Y130050D01*
X99922Y129966D01*
X99919Y129881D01*
X99920Y129797D01*
X99924Y129712D01*
X99933Y129628D01*
X99945Y129544D01*
X99961Y129461D01*
X99981Y129378D01*
X100005Y129297D01*
X100033Y129217D01*
X100064Y129138D01*
X100099Y129061D01*
X100137Y128985D01*
X100179Y128912D01*
X100224Y128840D01*
X100273Y128770D01*
X100324Y128703D01*
X100379Y128638D01*
X100436Y128576D01*
X100497Y128517D01*
X100560Y128460D01*
X100625Y128407D01*
X100693Y128356D01*
X100764Y128309D01*
X100836Y128265D01*
X100910Y128224D01*
X100986Y128187D01*
X101064Y128153D01*
X101143Y128123D01*
X101224Y128097D01*
X101306Y128074D01*
X101388Y128056D01*
X101472Y128041D01*
X101556Y128030D01*
X101640Y128022D01*
X101725Y128019D01*
X101809Y128020D01*
X101894Y128024D01*
X101978Y128033D01*
X102062Y128045D01*
X102145Y128061D01*
X102228Y128081D01*
X102309Y128105D01*
X102389Y128133D01*
X102468Y128164D01*
X102545Y128199D01*
X102621Y128237D01*
X102694Y128279D01*
X102766Y128324D01*
X102836Y128373D01*
X102903Y128424D01*
X102968Y128479D01*
X103030Y128536D01*
X103089Y128597D01*
X103146Y128660D01*
X103199Y128725D01*
X103250Y128793D01*
X103297Y128864D01*
X103341Y128936D01*
X103342Y128936D02*
X104259Y130525D01*
X103752Y123777D02*
X102835Y122188D01*
X102834Y122188D02*
X102790Y122116D01*
X102743Y122045D01*
X102692Y121977D01*
X102639Y121912D01*
X102582Y121849D01*
X102523Y121788D01*
X102461Y121731D01*
X102396Y121676D01*
X102329Y121625D01*
X102259Y121576D01*
X102187Y121531D01*
X102114Y121489D01*
X102038Y121451D01*
X101961Y121416D01*
X101882Y121385D01*
X101802Y121357D01*
X101721Y121333D01*
X101638Y121313D01*
X101555Y121297D01*
X101471Y121285D01*
X101387Y121276D01*
X101302Y121272D01*
X101218Y121271D01*
X101133Y121274D01*
X101049Y121282D01*
X100965Y121293D01*
X100881Y121308D01*
X100799Y121326D01*
X100717Y121349D01*
X100636Y121375D01*
X100557Y121405D01*
X100479Y121439D01*
X100403Y121476D01*
X100329Y121517D01*
X100257Y121561D01*
X100186Y121608D01*
X100118Y121659D01*
X100053Y121712D01*
X99990Y121769D01*
X99929Y121828D01*
X99872Y121890D01*
X99817Y121955D01*
X99766Y122022D01*
X99717Y122092D01*
X99672Y122164D01*
X99630Y122237D01*
X99592Y122313D01*
X99557Y122390D01*
X99526Y122469D01*
X99498Y122549D01*
X99474Y122630D01*
X99454Y122713D01*
X99438Y122796D01*
X99426Y122880D01*
X99417Y122964D01*
X99413Y123049D01*
X99412Y123133D01*
X99415Y123218D01*
X99423Y123302D01*
X99434Y123386D01*
X99449Y123470D01*
X99467Y123552D01*
X99490Y123634D01*
X99516Y123715D01*
X99546Y123794D01*
X99580Y123872D01*
X99617Y123948D01*
X99658Y124022D01*
X96932Y125172D02*
X98033Y127079D01*
X96932Y125172D02*
X96896Y125106D01*
X96863Y125037D01*
X96834Y124968D01*
X96808Y124896D01*
X96787Y124824D01*
X96769Y124751D01*
X96754Y124676D01*
X96744Y124601D01*
X96738Y124526D01*
X96735Y124451D01*
X96736Y124375D01*
X96742Y124300D01*
X96751Y124225D01*
X96764Y124150D01*
X96780Y124076D01*
X96801Y124004D01*
X96825Y123932D01*
X96853Y123862D01*
X96884Y123793D01*
X96919Y123726D01*
X96958Y123661D01*
X96999Y123598D01*
X97044Y123537D01*
X97092Y123478D01*
X97143Y123422D01*
X97197Y123369D01*
X97253Y123319D01*
X97312Y123271D01*
X97373Y123227D01*
X97437Y123186D01*
X97502Y123148D01*
X97569Y123114D01*
X97638Y123083D01*
X97709Y123056D01*
X97781Y123032D01*
X97854Y123012D01*
X97927Y122996D01*
X98002Y122984D01*
X98077Y122975D01*
X98153Y122971D01*
X98228Y122970D01*
X98304Y122973D01*
X98379Y122981D01*
X98454Y122992D01*
X98528Y123006D01*
X98601Y123025D01*
X98673Y123047D01*
X98744Y123073D01*
X98814Y123103D01*
X98882Y123136D01*
X98948Y123173D01*
X99012Y123213D01*
X99074Y123256D01*
X99134Y123303D01*
X99191Y123352D01*
X99245Y123404D01*
X99297Y123459D01*
X99346Y123517D01*
X99392Y123577D01*
X99435Y123640D01*
X99474Y123704D01*
X99474Y123705D02*
X100208Y124976D01*
X94726Y121351D02*
X100445Y118049D01*
X94726Y121351D02*
X93809Y119762D01*
X93768Y119688D01*
X93731Y119612D01*
X93697Y119534D01*
X93667Y119455D01*
X93641Y119374D01*
X93618Y119292D01*
X93600Y119210D01*
X93585Y119126D01*
X93574Y119042D01*
X93566Y118958D01*
X93563Y118873D01*
X93564Y118789D01*
X93568Y118704D01*
X93577Y118620D01*
X93589Y118536D01*
X93605Y118453D01*
X93625Y118370D01*
X93649Y118289D01*
X93677Y118209D01*
X93708Y118130D01*
X93743Y118053D01*
X93781Y117977D01*
X93823Y117904D01*
X93868Y117832D01*
X93917Y117762D01*
X93968Y117695D01*
X94023Y117630D01*
X94080Y117568D01*
X94141Y117509D01*
X94204Y117452D01*
X94269Y117399D01*
X94337Y117348D01*
X94408Y117301D01*
X94480Y117257D01*
X94480Y117256D02*
X97022Y115788D01*
X97022Y115789D02*
X97096Y115748D01*
X97172Y115711D01*
X97250Y115677D01*
X97329Y115647D01*
X97410Y115621D01*
X97492Y115598D01*
X97574Y115580D01*
X97658Y115565D01*
X97742Y115554D01*
X97826Y115546D01*
X97911Y115543D01*
X97995Y115544D01*
X98080Y115548D01*
X98164Y115557D01*
X98248Y115569D01*
X98331Y115585D01*
X98414Y115605D01*
X98495Y115629D01*
X98575Y115657D01*
X98654Y115688D01*
X98731Y115723D01*
X98807Y115761D01*
X98880Y115803D01*
X98952Y115848D01*
X99022Y115897D01*
X99089Y115948D01*
X99154Y116003D01*
X99216Y116060D01*
X99275Y116121D01*
X99332Y116184D01*
X99385Y116249D01*
X99436Y116317D01*
X99483Y116388D01*
X99527Y116460D01*
X99528Y116460D02*
X100445Y118049D01*
X95278Y107740D02*
X89559Y111042D01*
X88642Y109453D01*
X88643Y109453D02*
X88602Y109379D01*
X88565Y109303D01*
X88531Y109225D01*
X88501Y109146D01*
X88475Y109065D01*
X88452Y108983D01*
X88434Y108901D01*
X88419Y108817D01*
X88408Y108733D01*
X88400Y108649D01*
X88397Y108564D01*
X88398Y108480D01*
X88402Y108395D01*
X88411Y108311D01*
X88423Y108227D01*
X88439Y108144D01*
X88459Y108061D01*
X88483Y107980D01*
X88511Y107900D01*
X88542Y107821D01*
X88577Y107744D01*
X88615Y107668D01*
X88657Y107595D01*
X88702Y107523D01*
X88751Y107453D01*
X88802Y107386D01*
X88857Y107321D01*
X88914Y107259D01*
X88975Y107200D01*
X89038Y107143D01*
X89103Y107090D01*
X89171Y107039D01*
X89242Y106992D01*
X89314Y106948D01*
X89388Y106907D01*
X89464Y106870D01*
X89542Y106836D01*
X89621Y106806D01*
X89702Y106780D01*
X89784Y106757D01*
X89866Y106739D01*
X89950Y106724D01*
X90034Y106713D01*
X90118Y106705D01*
X90203Y106702D01*
X90287Y106703D01*
X90372Y106707D01*
X90456Y106716D01*
X90540Y106728D01*
X90623Y106744D01*
X90706Y106764D01*
X90787Y106788D01*
X90867Y106816D01*
X90946Y106847D01*
X91023Y106882D01*
X91099Y106920D01*
X91172Y106962D01*
X91244Y107007D01*
X91314Y107056D01*
X91381Y107107D01*
X91446Y107162D01*
X91508Y107219D01*
X91567Y107280D01*
X91624Y107343D01*
X91677Y107408D01*
X91728Y107476D01*
X91775Y107547D01*
X91819Y107619D01*
X92737Y109208D01*
X85501Y104013D02*
X85462Y103942D01*
X85427Y103869D01*
X85396Y103795D01*
X85368Y103719D01*
X85343Y103641D01*
X85323Y103563D01*
X85307Y103484D01*
X85294Y103403D01*
X85286Y103323D01*
X85281Y103242D01*
X85280Y103161D01*
X85284Y103080D01*
X85291Y102999D01*
X85302Y102919D01*
X85317Y102839D01*
X85336Y102761D01*
X85359Y102683D01*
X85386Y102606D01*
X85416Y102531D01*
X85450Y102458D01*
X85488Y102386D01*
X85529Y102316D01*
X85573Y102248D01*
X85621Y102183D01*
X85672Y102120D01*
X85726Y102059D01*
X85783Y102002D01*
X85842Y101947D01*
X85905Y101895D01*
X85969Y101846D01*
X86036Y101800D01*
X86105Y101758D01*
X85501Y104013D02*
X85547Y104090D01*
X85596Y104164D01*
X85649Y104236D01*
X85704Y104305D01*
X85762Y104372D01*
X85823Y104437D01*
X85886Y104499D01*
X85953Y104559D01*
X86021Y104616D01*
X86092Y104669D01*
X86165Y104720D01*
X86240Y104768D01*
X86317Y104812D01*
X86396Y104853D01*
X86476Y104891D01*
X86558Y104925D01*
X86642Y104956D01*
X86726Y104984D01*
X86812Y105008D01*
X86898Y105028D01*
X86986Y105045D01*
X87074Y105057D01*
X87162Y105067D01*
X87251Y105072D01*
X87340Y105074D01*
X87429Y105072D01*
X87517Y105066D01*
X87606Y105057D01*
X87694Y105044D01*
X87781Y105027D01*
X87493Y101593D02*
X87416Y101572D01*
X87339Y101555D01*
X87260Y101541D01*
X87181Y101531D01*
X87101Y101524D01*
X87022Y101521D01*
X86942Y101522D01*
X86862Y101526D01*
X86783Y101533D01*
X86704Y101545D01*
X86626Y101559D01*
X86548Y101578D01*
X86471Y101599D01*
X86396Y101625D01*
X86321Y101653D01*
X86248Y101685D01*
X86176Y101720D01*
X86106Y101759D01*
X87493Y101593D02*
X92230Y102459D01*
X90395Y99282D01*
X88923Y96731D02*
X83203Y100033D01*
X82286Y98445D01*
X82287Y98444D02*
X82246Y98370D01*
X82209Y98294D01*
X82175Y98216D01*
X82145Y98137D01*
X82119Y98056D01*
X82096Y97974D01*
X82078Y97892D01*
X82063Y97808D01*
X82052Y97724D01*
X82044Y97640D01*
X82041Y97555D01*
X82042Y97471D01*
X82046Y97386D01*
X82055Y97302D01*
X82067Y97218D01*
X82083Y97135D01*
X82103Y97052D01*
X82127Y96971D01*
X82155Y96891D01*
X82186Y96812D01*
X82221Y96735D01*
X82259Y96659D01*
X82301Y96586D01*
X82346Y96514D01*
X82395Y96444D01*
X82446Y96377D01*
X82501Y96312D01*
X82558Y96250D01*
X82619Y96191D01*
X82682Y96134D01*
X82747Y96081D01*
X82815Y96030D01*
X82886Y95983D01*
X82958Y95939D01*
X85500Y94471D01*
X85500Y94472D02*
X85574Y94431D01*
X85650Y94394D01*
X85728Y94360D01*
X85807Y94330D01*
X85888Y94304D01*
X85970Y94281D01*
X86052Y94263D01*
X86136Y94248D01*
X86220Y94237D01*
X86304Y94229D01*
X86389Y94226D01*
X86473Y94227D01*
X86558Y94231D01*
X86642Y94240D01*
X86726Y94252D01*
X86809Y94268D01*
X86892Y94288D01*
X86973Y94312D01*
X87053Y94340D01*
X87132Y94371D01*
X87209Y94406D01*
X87285Y94444D01*
X87358Y94486D01*
X87430Y94531D01*
X87500Y94580D01*
X87567Y94631D01*
X87632Y94686D01*
X87694Y94743D01*
X87753Y94804D01*
X87810Y94867D01*
X87863Y94932D01*
X87914Y95000D01*
X87961Y95071D01*
X88005Y95143D01*
X88923Y96731D01*
X82381Y85629D02*
X76662Y88931D01*
X75745Y87342D01*
X75704Y87268D01*
X75667Y87192D01*
X75633Y87114D01*
X75603Y87035D01*
X75577Y86954D01*
X75554Y86872D01*
X75536Y86790D01*
X75521Y86706D01*
X75510Y86622D01*
X75502Y86538D01*
X75499Y86453D01*
X75500Y86369D01*
X75504Y86284D01*
X75513Y86200D01*
X75525Y86116D01*
X75541Y86033D01*
X75561Y85950D01*
X75585Y85869D01*
X75613Y85789D01*
X75644Y85710D01*
X75679Y85633D01*
X75717Y85557D01*
X75759Y85484D01*
X75804Y85412D01*
X75853Y85342D01*
X75904Y85275D01*
X75959Y85210D01*
X76016Y85148D01*
X76077Y85089D01*
X76140Y85032D01*
X76205Y84979D01*
X76273Y84928D01*
X76344Y84881D01*
X76416Y84837D01*
X76490Y84796D01*
X76566Y84759D01*
X76644Y84725D01*
X76723Y84695D01*
X76804Y84669D01*
X76886Y84646D01*
X76968Y84628D01*
X77052Y84613D01*
X77136Y84602D01*
X77220Y84594D01*
X77305Y84591D01*
X77389Y84592D01*
X77474Y84596D01*
X77558Y84605D01*
X77642Y84617D01*
X77725Y84633D01*
X77808Y84653D01*
X77889Y84677D01*
X77969Y84705D01*
X78048Y84736D01*
X78125Y84771D01*
X78201Y84809D01*
X78274Y84851D01*
X78346Y84896D01*
X78416Y84945D01*
X78483Y84996D01*
X78548Y85051D01*
X78610Y85108D01*
X78669Y85169D01*
X78726Y85232D01*
X78779Y85297D01*
X78830Y85365D01*
X78877Y85436D01*
X78921Y85508D01*
X78922Y85508D02*
X79839Y87097D01*
X74884Y82916D02*
X72696Y82062D01*
X78415Y78760D01*
X79332Y80348D02*
X77498Y77171D01*
X76025Y74620D02*
X70306Y77922D01*
X69389Y76334D01*
X69389Y76333D02*
X69348Y76259D01*
X69311Y76183D01*
X69277Y76105D01*
X69247Y76026D01*
X69221Y75945D01*
X69198Y75863D01*
X69180Y75781D01*
X69165Y75697D01*
X69154Y75613D01*
X69146Y75529D01*
X69143Y75444D01*
X69144Y75360D01*
X69148Y75275D01*
X69157Y75191D01*
X69169Y75107D01*
X69185Y75024D01*
X69205Y74941D01*
X69229Y74860D01*
X69257Y74780D01*
X69288Y74701D01*
X69323Y74624D01*
X69361Y74548D01*
X69403Y74475D01*
X69448Y74403D01*
X69497Y74333D01*
X69548Y74266D01*
X69603Y74201D01*
X69660Y74139D01*
X69721Y74080D01*
X69784Y74023D01*
X69849Y73970D01*
X69917Y73919D01*
X69988Y73872D01*
X70060Y73828D01*
X72602Y72360D01*
X72602Y72361D02*
X72676Y72320D01*
X72752Y72283D01*
X72830Y72249D01*
X72909Y72219D01*
X72990Y72193D01*
X73072Y72170D01*
X73154Y72152D01*
X73238Y72137D01*
X73322Y72126D01*
X73406Y72118D01*
X73491Y72115D01*
X73575Y72116D01*
X73660Y72120D01*
X73744Y72129D01*
X73828Y72141D01*
X73911Y72157D01*
X73994Y72177D01*
X74075Y72201D01*
X74155Y72229D01*
X74234Y72260D01*
X74311Y72295D01*
X74387Y72333D01*
X74460Y72375D01*
X74532Y72420D01*
X74602Y72469D01*
X74669Y72520D01*
X74734Y72575D01*
X74796Y72632D01*
X74855Y72693D01*
X74912Y72756D01*
X74965Y72821D01*
X75016Y72889D01*
X75063Y72960D01*
X75107Y73032D01*
X75108Y73032D02*
X76025Y74620D01*
X51129Y161529D02*
X45409Y164831D01*
X44492Y163242D01*
X44493Y163242D02*
X44452Y163168D01*
X44415Y163092D01*
X44381Y163014D01*
X44351Y162935D01*
X44325Y162854D01*
X44302Y162772D01*
X44284Y162690D01*
X44269Y162606D01*
X44258Y162522D01*
X44250Y162438D01*
X44247Y162353D01*
X44248Y162269D01*
X44252Y162184D01*
X44261Y162100D01*
X44273Y162016D01*
X44289Y161933D01*
X44309Y161850D01*
X44333Y161769D01*
X44361Y161689D01*
X44392Y161610D01*
X44427Y161533D01*
X44465Y161457D01*
X44507Y161384D01*
X44552Y161312D01*
X44601Y161242D01*
X44652Y161175D01*
X44707Y161110D01*
X44764Y161048D01*
X44825Y160989D01*
X44888Y160932D01*
X44953Y160879D01*
X45021Y160828D01*
X45092Y160781D01*
X45164Y160737D01*
X45238Y160696D01*
X45314Y160659D01*
X45392Y160625D01*
X45471Y160595D01*
X45552Y160569D01*
X45634Y160546D01*
X45716Y160528D01*
X45800Y160513D01*
X45884Y160502D01*
X45968Y160494D01*
X46053Y160491D01*
X46137Y160492D01*
X46222Y160496D01*
X46306Y160505D01*
X46390Y160517D01*
X46473Y160533D01*
X46556Y160553D01*
X46637Y160577D01*
X46717Y160605D01*
X46796Y160636D01*
X46873Y160671D01*
X46949Y160709D01*
X47022Y160751D01*
X47094Y160796D01*
X47164Y160845D01*
X47231Y160896D01*
X47296Y160951D01*
X47358Y161008D01*
X47417Y161069D01*
X47474Y161132D01*
X47527Y161197D01*
X47578Y161265D01*
X47625Y161336D01*
X47669Y161408D01*
X47670Y161408D02*
X48587Y162996D01*
X43632Y158816D02*
X41443Y157961D01*
X47163Y154659D01*
X48080Y156248D02*
X46245Y153071D01*
X43184Y151437D02*
X39054Y153822D01*
X43184Y151437D02*
X43256Y151393D01*
X43327Y151346D01*
X43395Y151295D01*
X43460Y151242D01*
X43523Y151185D01*
X43584Y151126D01*
X43641Y151064D01*
X43696Y150999D01*
X43747Y150932D01*
X43796Y150862D01*
X43841Y150790D01*
X43883Y150717D01*
X43921Y150641D01*
X43956Y150564D01*
X43987Y150485D01*
X44015Y150405D01*
X44039Y150324D01*
X44059Y150241D01*
X44075Y150158D01*
X44087Y150074D01*
X44096Y149990D01*
X44100Y149905D01*
X44101Y149821D01*
X44098Y149736D01*
X44090Y149652D01*
X44079Y149568D01*
X44064Y149484D01*
X44046Y149402D01*
X44023Y149320D01*
X43997Y149239D01*
X43967Y149160D01*
X43933Y149082D01*
X43896Y149006D01*
X43855Y148932D01*
X43811Y148860D01*
X43764Y148789D01*
X43713Y148721D01*
X43660Y148656D01*
X43603Y148593D01*
X43544Y148532D01*
X43482Y148475D01*
X43417Y148420D01*
X43350Y148369D01*
X43280Y148320D01*
X43208Y148275D01*
X43135Y148233D01*
X43059Y148195D01*
X42982Y148160D01*
X42903Y148129D01*
X42823Y148101D01*
X42742Y148077D01*
X42659Y148057D01*
X42576Y148041D01*
X42492Y148029D01*
X42408Y148020D01*
X42323Y148016D01*
X42239Y148015D01*
X42154Y148018D01*
X42070Y148026D01*
X41986Y148037D01*
X41902Y148052D01*
X41820Y148070D01*
X41738Y148093D01*
X41657Y148119D01*
X41578Y148149D01*
X41500Y148183D01*
X41424Y148220D01*
X41350Y148261D01*
X41350Y148260D02*
X37219Y150645D01*
X34282Y143286D02*
X40001Y139984D01*
X34282Y143286D02*
X33365Y141697D01*
X33324Y141623D01*
X33287Y141547D01*
X33253Y141469D01*
X33223Y141390D01*
X33197Y141309D01*
X33174Y141227D01*
X33156Y141145D01*
X33141Y141061D01*
X33130Y140977D01*
X33122Y140893D01*
X33119Y140808D01*
X33120Y140724D01*
X33124Y140639D01*
X33133Y140555D01*
X33145Y140471D01*
X33161Y140388D01*
X33181Y140305D01*
X33205Y140224D01*
X33233Y140144D01*
X33264Y140065D01*
X33299Y139988D01*
X33337Y139912D01*
X33379Y139839D01*
X33424Y139767D01*
X33473Y139697D01*
X33524Y139630D01*
X33579Y139565D01*
X33636Y139503D01*
X33697Y139444D01*
X33760Y139387D01*
X33825Y139334D01*
X33893Y139283D01*
X33964Y139236D01*
X34036Y139192D01*
X34110Y139151D01*
X34186Y139114D01*
X34264Y139080D01*
X34343Y139050D01*
X34424Y139024D01*
X34506Y139001D01*
X34588Y138983D01*
X34672Y138968D01*
X34756Y138957D01*
X34840Y138949D01*
X34925Y138946D01*
X35009Y138947D01*
X35094Y138951D01*
X35178Y138960D01*
X35262Y138972D01*
X35345Y138988D01*
X35428Y139008D01*
X35509Y139032D01*
X35589Y139060D01*
X35668Y139091D01*
X35745Y139126D01*
X35821Y139164D01*
X35894Y139206D01*
X35966Y139251D01*
X36036Y139300D01*
X36103Y139351D01*
X36168Y139406D01*
X36230Y139463D01*
X36289Y139524D01*
X36346Y139587D01*
X36399Y139652D01*
X36450Y139720D01*
X36497Y139791D01*
X36541Y139863D01*
X36542Y139862D02*
X37459Y141451D01*
X30224Y136257D02*
X30185Y136186D01*
X30150Y136113D01*
X30119Y136039D01*
X30091Y135963D01*
X30066Y135885D01*
X30046Y135807D01*
X30030Y135728D01*
X30017Y135647D01*
X30009Y135567D01*
X30004Y135486D01*
X30003Y135405D01*
X30007Y135324D01*
X30014Y135243D01*
X30025Y135163D01*
X30040Y135083D01*
X30059Y135005D01*
X30082Y134927D01*
X30109Y134850D01*
X30139Y134775D01*
X30173Y134702D01*
X30211Y134630D01*
X30252Y134560D01*
X30296Y134492D01*
X30344Y134427D01*
X30395Y134364D01*
X30449Y134303D01*
X30506Y134246D01*
X30565Y134191D01*
X30628Y134139D01*
X30692Y134090D01*
X30759Y134044D01*
X30828Y134002D01*
X30224Y136257D02*
X30270Y136334D01*
X30319Y136408D01*
X30372Y136480D01*
X30427Y136549D01*
X30485Y136616D01*
X30546Y136681D01*
X30609Y136743D01*
X30676Y136803D01*
X30744Y136860D01*
X30815Y136913D01*
X30888Y136964D01*
X30963Y137012D01*
X31040Y137056D01*
X31119Y137097D01*
X31199Y137135D01*
X31281Y137169D01*
X31365Y137200D01*
X31449Y137228D01*
X31535Y137252D01*
X31621Y137272D01*
X31709Y137289D01*
X31797Y137301D01*
X31885Y137311D01*
X31974Y137316D01*
X32063Y137318D01*
X32152Y137316D01*
X32240Y137310D01*
X32329Y137301D01*
X32417Y137288D01*
X32504Y137271D01*
X32215Y133837D02*
X32138Y133816D01*
X32061Y133799D01*
X31982Y133785D01*
X31903Y133775D01*
X31823Y133768D01*
X31744Y133765D01*
X31664Y133766D01*
X31584Y133770D01*
X31505Y133777D01*
X31426Y133789D01*
X31348Y133803D01*
X31270Y133822D01*
X31193Y133843D01*
X31118Y133869D01*
X31043Y133897D01*
X30970Y133929D01*
X30898Y133964D01*
X30828Y134003D01*
X32216Y133837D02*
X36952Y134703D01*
X35118Y131525D01*
X32056Y129892D02*
X27926Y132277D01*
X32056Y129891D02*
X32128Y129847D01*
X32199Y129800D01*
X32267Y129749D01*
X32332Y129696D01*
X32395Y129639D01*
X32456Y129580D01*
X32513Y129518D01*
X32568Y129453D01*
X32619Y129386D01*
X32668Y129316D01*
X32713Y129244D01*
X32755Y129171D01*
X32793Y129095D01*
X32828Y129018D01*
X32859Y128939D01*
X32887Y128859D01*
X32911Y128778D01*
X32931Y128695D01*
X32947Y128612D01*
X32959Y128528D01*
X32968Y128444D01*
X32972Y128359D01*
X32973Y128275D01*
X32970Y128190D01*
X32962Y128106D01*
X32951Y128022D01*
X32936Y127938D01*
X32918Y127856D01*
X32895Y127774D01*
X32869Y127693D01*
X32839Y127614D01*
X32805Y127536D01*
X32768Y127460D01*
X32727Y127386D01*
X32683Y127314D01*
X32636Y127243D01*
X32585Y127175D01*
X32532Y127110D01*
X32475Y127047D01*
X32416Y126986D01*
X32354Y126929D01*
X32289Y126874D01*
X32222Y126823D01*
X32152Y126774D01*
X32080Y126729D01*
X32007Y126687D01*
X31931Y126649D01*
X31854Y126614D01*
X31775Y126583D01*
X31695Y126555D01*
X31614Y126531D01*
X31531Y126511D01*
X31448Y126495D01*
X31364Y126483D01*
X31280Y126474D01*
X31195Y126470D01*
X31111Y126469D01*
X31026Y126472D01*
X30942Y126480D01*
X30858Y126491D01*
X30774Y126506D01*
X30692Y126524D01*
X30610Y126547D01*
X30529Y126573D01*
X30450Y126603D01*
X30372Y126637D01*
X30296Y126674D01*
X30222Y126715D01*
X26091Y129099D01*
X20404Y121740D02*
X26124Y118438D01*
X20404Y121740D02*
X19487Y120152D01*
X19488Y120151D02*
X19447Y120077D01*
X19410Y120001D01*
X19376Y119923D01*
X19346Y119844D01*
X19320Y119763D01*
X19297Y119681D01*
X19279Y119599D01*
X19264Y119515D01*
X19253Y119431D01*
X19245Y119347D01*
X19242Y119262D01*
X19243Y119178D01*
X19247Y119093D01*
X19256Y119009D01*
X19268Y118925D01*
X19284Y118842D01*
X19304Y118759D01*
X19328Y118678D01*
X19356Y118598D01*
X19387Y118519D01*
X19422Y118442D01*
X19460Y118366D01*
X19502Y118293D01*
X19547Y118221D01*
X19596Y118151D01*
X19647Y118084D01*
X19702Y118019D01*
X19759Y117957D01*
X19820Y117898D01*
X19883Y117841D01*
X19948Y117788D01*
X20016Y117737D01*
X20087Y117690D01*
X20159Y117646D01*
X20233Y117605D01*
X20309Y117568D01*
X20387Y117534D01*
X20466Y117504D01*
X20547Y117478D01*
X20629Y117455D01*
X20711Y117437D01*
X20795Y117422D01*
X20879Y117411D01*
X20963Y117403D01*
X21048Y117400D01*
X21132Y117401D01*
X21217Y117405D01*
X21301Y117414D01*
X21385Y117426D01*
X21468Y117442D01*
X21551Y117462D01*
X21632Y117486D01*
X21712Y117514D01*
X21791Y117545D01*
X21868Y117580D01*
X21944Y117618D01*
X22017Y117660D01*
X22089Y117705D01*
X22159Y117754D01*
X22226Y117805D01*
X22291Y117860D01*
X22353Y117917D01*
X22412Y117978D01*
X22469Y118041D01*
X22522Y118106D01*
X22573Y118174D01*
X22620Y118245D01*
X22664Y118317D01*
X23582Y119906D01*
X23075Y113158D02*
X22158Y111569D01*
X22157Y111569D02*
X22113Y111497D01*
X22066Y111426D01*
X22015Y111358D01*
X21962Y111293D01*
X21905Y111230D01*
X21846Y111169D01*
X21784Y111112D01*
X21719Y111057D01*
X21652Y111006D01*
X21582Y110957D01*
X21510Y110912D01*
X21437Y110870D01*
X21361Y110832D01*
X21284Y110797D01*
X21205Y110766D01*
X21125Y110738D01*
X21044Y110714D01*
X20961Y110694D01*
X20878Y110678D01*
X20794Y110666D01*
X20710Y110657D01*
X20625Y110653D01*
X20541Y110652D01*
X20456Y110655D01*
X20372Y110663D01*
X20288Y110674D01*
X20204Y110689D01*
X20122Y110707D01*
X20040Y110730D01*
X19959Y110756D01*
X19880Y110786D01*
X19802Y110820D01*
X19726Y110857D01*
X19652Y110898D01*
X19580Y110942D01*
X19509Y110989D01*
X19441Y111040D01*
X19376Y111093D01*
X19313Y111150D01*
X19252Y111209D01*
X19195Y111271D01*
X19140Y111336D01*
X19089Y111403D01*
X19040Y111473D01*
X18995Y111545D01*
X18953Y111618D01*
X18915Y111694D01*
X18880Y111771D01*
X18849Y111850D01*
X18821Y111930D01*
X18797Y112011D01*
X18777Y112094D01*
X18761Y112177D01*
X18749Y112261D01*
X18740Y112345D01*
X18736Y112430D01*
X18735Y112514D01*
X18738Y112599D01*
X18746Y112683D01*
X18757Y112767D01*
X18772Y112851D01*
X18790Y112933D01*
X18813Y113015D01*
X18839Y113096D01*
X18869Y113175D01*
X18903Y113253D01*
X18940Y113329D01*
X18981Y113403D01*
X16255Y114553D02*
X17356Y116460D01*
X16255Y114553D02*
X16219Y114487D01*
X16186Y114418D01*
X16157Y114349D01*
X16131Y114277D01*
X16110Y114205D01*
X16092Y114132D01*
X16077Y114057D01*
X16067Y113982D01*
X16061Y113907D01*
X16058Y113832D01*
X16059Y113756D01*
X16065Y113681D01*
X16074Y113606D01*
X16087Y113531D01*
X16103Y113457D01*
X16124Y113385D01*
X16148Y113313D01*
X16176Y113243D01*
X16207Y113174D01*
X16242Y113107D01*
X16281Y113042D01*
X16322Y112979D01*
X16367Y112918D01*
X16415Y112859D01*
X16466Y112803D01*
X16520Y112750D01*
X16576Y112700D01*
X16635Y112652D01*
X16696Y112608D01*
X16760Y112567D01*
X16825Y112529D01*
X16892Y112495D01*
X16961Y112464D01*
X17032Y112437D01*
X17104Y112413D01*
X17177Y112393D01*
X17250Y112377D01*
X17325Y112365D01*
X17400Y112356D01*
X17476Y112352D01*
X17551Y112351D01*
X17627Y112354D01*
X17702Y112362D01*
X17777Y112373D01*
X17851Y112387D01*
X17924Y112406D01*
X17996Y112428D01*
X18067Y112454D01*
X18137Y112484D01*
X18205Y112517D01*
X18271Y112554D01*
X18335Y112594D01*
X18397Y112637D01*
X18457Y112684D01*
X18514Y112733D01*
X18568Y112785D01*
X18620Y112840D01*
X18669Y112898D01*
X18715Y112958D01*
X18758Y113021D01*
X18797Y113085D01*
X18797Y113086D02*
X19531Y114357D01*
X18179Y108347D02*
X14048Y110732D01*
X18179Y108346D02*
X18251Y108302D01*
X18322Y108255D01*
X18390Y108204D01*
X18455Y108151D01*
X18518Y108094D01*
X18579Y108035D01*
X18636Y107973D01*
X18691Y107908D01*
X18742Y107841D01*
X18791Y107771D01*
X18836Y107699D01*
X18878Y107626D01*
X18916Y107550D01*
X18951Y107473D01*
X18982Y107394D01*
X19010Y107314D01*
X19034Y107233D01*
X19054Y107150D01*
X19070Y107067D01*
X19082Y106983D01*
X19091Y106899D01*
X19095Y106814D01*
X19096Y106730D01*
X19093Y106645D01*
X19085Y106561D01*
X19074Y106477D01*
X19059Y106393D01*
X19041Y106311D01*
X19018Y106229D01*
X18992Y106148D01*
X18962Y106069D01*
X18928Y105991D01*
X18891Y105915D01*
X18850Y105841D01*
X18806Y105769D01*
X18759Y105698D01*
X18708Y105630D01*
X18655Y105565D01*
X18598Y105502D01*
X18539Y105441D01*
X18477Y105384D01*
X18412Y105329D01*
X18345Y105278D01*
X18275Y105229D01*
X18203Y105184D01*
X18130Y105142D01*
X18054Y105104D01*
X17977Y105069D01*
X17898Y105038D01*
X17818Y105010D01*
X17737Y104986D01*
X17654Y104966D01*
X17571Y104950D01*
X17487Y104938D01*
X17403Y104929D01*
X17318Y104925D01*
X17234Y104924D01*
X17149Y104927D01*
X17065Y104935D01*
X16981Y104946D01*
X16897Y104961D01*
X16815Y104979D01*
X16733Y105002D01*
X16652Y105028D01*
X16573Y105058D01*
X16495Y105092D01*
X16419Y105129D01*
X16345Y105170D01*
X16345Y105169D02*
X12214Y107554D01*
D10*
X115504Y191554D02*
X115419Y191605D01*
X115336Y191660D01*
X115255Y191717D01*
X115176Y191778D01*
X115100Y191842D01*
X115026Y191909D01*
X114955Y191978D01*
X114886Y192050D01*
X114820Y192125D01*
X114758Y192202D01*
X114698Y192281D01*
X114641Y192363D01*
X114588Y192447D01*
X114537Y192533D01*
X114490Y192620D01*
X114447Y192710D01*
X114407Y192801D01*
X114370Y192893D01*
X114337Y192987D01*
X114308Y193082D01*
X114282Y193178D01*
X114260Y193275D01*
X114242Y193373D01*
X114227Y193471D01*
X114216Y193570D01*
X114209Y193669D01*
X114206Y193769D01*
X114207Y193868D01*
X114211Y193968D01*
X114220Y194067D01*
X114232Y194166D01*
X114247Y194264D01*
X114267Y194361D01*
X114290Y194458D01*
X114317Y194554D01*
X114348Y194648D01*
X114382Y194742D01*
X114420Y194834D01*
X114461Y194924D01*
X114506Y195013D01*
X114554Y195100D01*
X115504Y191554D02*
X115630Y191483D01*
X115757Y191416D01*
X115887Y191352D01*
X116018Y191292D01*
X116151Y191235D01*
X116285Y191182D01*
X116420Y191132D01*
X116557Y191086D01*
X116695Y191043D01*
X116834Y191004D01*
X116974Y190969D01*
X117115Y190937D01*
X117256Y190909D01*
X117399Y190885D01*
X117541Y190864D01*
X117685Y190848D01*
X117829Y190835D01*
X117973Y190826D01*
X118117Y190821D01*
X118261Y190819D01*
X118406Y190821D01*
X118550Y190827D01*
X118694Y190837D01*
X118837Y190851D01*
X118981Y190868D01*
X119124Y190890D01*
X119266Y190915D01*
X119407Y190943D01*
X119548Y190976D01*
X119688Y191012D01*
X123140Y197639D02*
X123188Y197726D01*
X123233Y197815D01*
X123274Y197905D01*
X123312Y197997D01*
X123346Y198090D01*
X123377Y198185D01*
X123404Y198281D01*
X123427Y198378D01*
X123447Y198475D01*
X123462Y198573D01*
X123474Y198672D01*
X123483Y198771D01*
X123487Y198871D01*
X123488Y198970D01*
X123485Y199070D01*
X123478Y199169D01*
X123467Y199268D01*
X123452Y199366D01*
X123434Y199464D01*
X123412Y199561D01*
X123386Y199657D01*
X123357Y199752D01*
X123324Y199846D01*
X123287Y199938D01*
X123247Y200030D01*
X123203Y200119D01*
X123156Y200207D01*
X123106Y200293D01*
X123053Y200376D01*
X122996Y200458D01*
X122936Y200538D01*
X122873Y200615D01*
X122808Y200689D01*
X122739Y200762D01*
X122668Y200831D01*
X122594Y200898D01*
X122518Y200961D01*
X122439Y201022D01*
X122358Y201080D01*
X122275Y201135D01*
X122190Y201186D01*
X122189Y201186D02*
X122070Y201252D01*
X121949Y201315D01*
X121827Y201375D01*
X121703Y201431D01*
X121577Y201484D01*
X121450Y201533D01*
X121322Y201579D01*
X121193Y201621D01*
X121062Y201659D01*
X120930Y201694D01*
X120798Y201725D01*
X120664Y201752D01*
X120530Y201776D01*
X120395Y201796D01*
X120260Y201812D01*
X120124Y201824D01*
X119988Y201832D01*
X119852Y201837D01*
X119716Y201838D01*
X119580Y201835D01*
X119444Y201828D01*
X119308Y201817D01*
X119173Y201803D01*
X120879Y196320D02*
X120981Y196323D01*
X121082Y196330D01*
X121183Y196340D01*
X121283Y196355D01*
X121383Y196373D01*
X121482Y196395D01*
X121580Y196421D01*
X121677Y196451D01*
X121773Y196484D01*
X121867Y196521D01*
X121960Y196562D01*
X122051Y196606D01*
X122141Y196654D01*
X122228Y196705D01*
X122314Y196760D01*
X122397Y196817D01*
X122478Y196878D01*
X122557Y196942D01*
X122633Y197009D01*
X122707Y197079D01*
X122778Y197151D01*
X122846Y197226D01*
X122911Y197304D01*
X122973Y197384D01*
X123032Y197467D01*
X123087Y197552D01*
X123140Y197638D01*
X116814Y196419D02*
X116712Y196416D01*
X116611Y196409D01*
X116510Y196399D01*
X116410Y196384D01*
X116310Y196366D01*
X116211Y196344D01*
X116113Y196318D01*
X116016Y196288D01*
X115920Y196255D01*
X115826Y196218D01*
X115733Y196177D01*
X115642Y196133D01*
X115552Y196085D01*
X115465Y196034D01*
X115379Y195979D01*
X115296Y195922D01*
X115215Y195861D01*
X115136Y195797D01*
X115060Y195730D01*
X114986Y195660D01*
X114915Y195588D01*
X114847Y195513D01*
X114782Y195435D01*
X114720Y195355D01*
X114661Y195272D01*
X114606Y195187D01*
X114553Y195100D01*
X116814Y196419D02*
X120879Y196320D01*
X115712Y204925D02*
X106497Y196754D01*
X108966Y208820D01*
X103953Y208716D02*
X102441Y212587D01*
X96599Y202469D01*
X99409Y200846D02*
X93788Y204091D01*
X-91821Y90325D02*
X-91869Y90238D01*
X-91914Y90149D01*
X-91955Y90059D01*
X-91993Y89967D01*
X-92027Y89873D01*
X-92058Y89779D01*
X-92085Y89683D01*
X-92108Y89586D01*
X-92128Y89489D01*
X-92143Y89391D01*
X-92155Y89292D01*
X-92164Y89193D01*
X-92168Y89093D01*
X-92169Y88994D01*
X-92166Y88894D01*
X-92159Y88795D01*
X-92148Y88696D01*
X-92133Y88598D01*
X-92115Y88500D01*
X-92093Y88403D01*
X-92067Y88307D01*
X-92038Y88212D01*
X-92005Y88118D01*
X-91968Y88026D01*
X-91928Y87935D01*
X-91885Y87845D01*
X-91838Y87758D01*
X-91787Y87672D01*
X-91734Y87588D01*
X-91677Y87506D01*
X-91617Y87427D01*
X-91555Y87350D01*
X-91489Y87275D01*
X-91420Y87203D01*
X-91349Y87134D01*
X-91275Y87067D01*
X-91199Y87003D01*
X-91120Y86942D01*
X-91039Y86885D01*
X-90956Y86830D01*
X-90871Y86779D01*
X-90745Y86708D01*
X-90618Y86641D01*
X-90488Y86577D01*
X-90357Y86517D01*
X-90224Y86460D01*
X-90090Y86407D01*
X-89955Y86357D01*
X-89818Y86311D01*
X-89680Y86268D01*
X-89541Y86229D01*
X-89401Y86194D01*
X-89260Y86162D01*
X-89119Y86134D01*
X-88976Y86110D01*
X-88834Y86089D01*
X-88690Y86073D01*
X-88546Y86060D01*
X-88402Y86051D01*
X-88258Y86046D01*
X-88114Y86044D01*
X-87969Y86046D01*
X-87825Y86052D01*
X-87681Y86062D01*
X-87538Y86076D01*
X-87394Y86093D01*
X-87252Y86115D01*
X-87109Y86140D01*
X-86968Y86168D01*
X-86827Y86201D01*
X-86687Y86237D01*
X-83235Y92864D02*
X-83187Y92951D01*
X-83142Y93040D01*
X-83101Y93130D01*
X-83063Y93222D01*
X-83029Y93315D01*
X-82998Y93410D01*
X-82971Y93506D01*
X-82948Y93603D01*
X-82928Y93700D01*
X-82913Y93798D01*
X-82901Y93897D01*
X-82892Y93996D01*
X-82888Y94096D01*
X-82887Y94195D01*
X-82890Y94295D01*
X-82897Y94394D01*
X-82908Y94493D01*
X-82923Y94591D01*
X-82941Y94689D01*
X-82963Y94786D01*
X-82989Y94882D01*
X-83018Y94977D01*
X-83051Y95071D01*
X-83088Y95163D01*
X-83128Y95255D01*
X-83172Y95344D01*
X-83219Y95432D01*
X-83269Y95518D01*
X-83322Y95601D01*
X-83379Y95683D01*
X-83439Y95763D01*
X-83502Y95840D01*
X-83567Y95914D01*
X-83636Y95987D01*
X-83707Y96056D01*
X-83781Y96123D01*
X-83857Y96186D01*
X-83936Y96247D01*
X-84017Y96305D01*
X-84100Y96360D01*
X-84185Y96411D01*
X-84186Y96411D02*
X-84305Y96477D01*
X-84426Y96540D01*
X-84548Y96600D01*
X-84672Y96656D01*
X-84798Y96709D01*
X-84925Y96758D01*
X-85053Y96804D01*
X-85182Y96846D01*
X-85313Y96884D01*
X-85445Y96919D01*
X-85577Y96950D01*
X-85711Y96977D01*
X-85845Y97001D01*
X-85980Y97021D01*
X-86115Y97037D01*
X-86251Y97049D01*
X-86387Y97057D01*
X-86523Y97062D01*
X-86659Y97063D01*
X-86795Y97060D01*
X-86931Y97053D01*
X-87067Y97042D01*
X-87202Y97028D01*
X-85496Y91545D02*
X-85394Y91548D01*
X-85293Y91555D01*
X-85192Y91565D01*
X-85092Y91580D01*
X-84992Y91598D01*
X-84893Y91620D01*
X-84795Y91646D01*
X-84698Y91676D01*
X-84602Y91709D01*
X-84508Y91746D01*
X-84415Y91787D01*
X-84324Y91831D01*
X-84234Y91879D01*
X-84147Y91930D01*
X-84061Y91985D01*
X-83978Y92042D01*
X-83897Y92103D01*
X-83818Y92167D01*
X-83742Y92234D01*
X-83668Y92304D01*
X-83597Y92376D01*
X-83529Y92451D01*
X-83464Y92529D01*
X-83402Y92609D01*
X-83343Y92692D01*
X-83288Y92777D01*
X-83235Y92864D01*
X-89561Y91644D02*
X-89663Y91641D01*
X-89764Y91634D01*
X-89865Y91624D01*
X-89965Y91609D01*
X-90065Y91591D01*
X-90164Y91569D01*
X-90262Y91543D01*
X-90359Y91513D01*
X-90455Y91480D01*
X-90549Y91443D01*
X-90642Y91402D01*
X-90733Y91358D01*
X-90823Y91310D01*
X-90910Y91259D01*
X-90996Y91204D01*
X-91079Y91147D01*
X-91160Y91086D01*
X-91239Y91022D01*
X-91315Y90955D01*
X-91389Y90885D01*
X-91460Y90813D01*
X-91528Y90738D01*
X-91593Y90660D01*
X-91655Y90580D01*
X-91714Y90497D01*
X-91769Y90412D01*
X-91822Y90326D01*
X-89562Y91644D02*
X-85496Y91545D01*
X-90663Y100150D02*
X-99878Y91979D01*
X-97409Y104045D01*
X-104216Y107975D02*
X-104309Y108026D01*
X-104404Y108075D01*
X-104501Y108119D01*
X-104599Y108160D01*
X-104699Y108198D01*
X-104801Y108232D01*
X-104903Y108262D01*
X-105006Y108288D01*
X-105111Y108311D01*
X-105216Y108329D01*
X-105321Y108344D01*
X-105427Y108355D01*
X-105534Y108363D01*
X-105640Y108366D01*
X-105747Y108365D01*
X-105854Y108361D01*
X-105960Y108352D01*
X-106066Y108340D01*
X-106172Y108324D01*
X-106276Y108304D01*
X-106380Y108280D01*
X-106483Y108252D01*
X-106585Y108221D01*
X-106686Y108186D01*
X-106786Y108147D01*
X-106884Y108105D01*
X-106980Y108059D01*
X-107074Y108009D01*
X-107167Y107957D01*
X-107258Y107901D01*
X-107347Y107841D01*
X-107433Y107779D01*
X-107517Y107713D01*
X-107599Y107644D01*
X-107678Y107572D01*
X-107754Y107498D01*
X-107828Y107421D01*
X-107898Y107341D01*
X-107966Y107258D01*
X-108031Y107173D01*
X-108092Y107086D01*
X-108151Y106997D01*
X-108206Y106906D01*
X-104216Y107974D02*
X-104112Y107912D01*
X-104011Y107847D01*
X-103911Y107778D01*
X-103814Y107706D01*
X-103719Y107631D01*
X-103626Y107553D01*
X-103536Y107472D01*
X-103449Y107388D01*
X-103365Y107302D01*
X-103283Y107212D01*
X-103204Y107121D01*
X-103129Y107026D01*
X-103056Y106929D01*
X-102986Y106830D01*
X-102920Y106729D01*
X-102857Y106626D01*
X-102798Y106521D01*
X-102741Y106413D01*
X-102689Y106305D01*
X-102640Y106194D01*
X-102594Y106082D01*
X-102552Y105968D01*
X-102514Y105854D01*
X-102479Y105738D01*
X-102448Y105621D01*
X-102421Y105503D01*
X-102398Y105384D01*
X-102379Y105265D01*
X-102364Y105145D01*
X-102352Y105024D01*
X-102344Y104903D01*
X-102340Y104782D01*
X-102341Y104661D01*
X-102345Y104540D01*
X-102352Y104420D01*
X-102364Y104299D01*
X-102380Y104179D01*
X-102399Y104060D01*
X-102423Y103941D01*
X-108498Y104452D02*
X-108528Y104558D01*
X-108553Y104665D01*
X-108575Y104774D01*
X-108593Y104883D01*
X-108607Y104992D01*
X-108617Y105102D01*
X-108624Y105212D01*
X-108626Y105323D01*
X-108625Y105433D01*
X-108619Y105544D01*
X-108610Y105654D01*
X-108597Y105763D01*
X-108580Y105872D01*
X-108559Y105981D01*
X-108535Y106089D01*
X-108506Y106195D01*
X-108474Y106301D01*
X-108438Y106406D01*
X-108399Y106509D01*
X-108356Y106610D01*
X-108309Y106710D01*
X-108259Y106809D01*
X-108206Y106906D01*
X-108499Y104451D02*
X-106966Y96071D01*
X-112587Y99316D01*
D11*
X-4535Y58685D02*
X1815Y69683D01*
X10490Y72007D01*
X8165Y80682D01*
X14515Y91680D01*
X23190Y94004D01*
X-4535Y58685D02*
X-2210Y50010D01*
X23190Y94004D02*
X20865Y102679D01*
X27215Y113677D01*
X35890Y116001D01*
X33565Y124676D02*
X39915Y135674D01*
X48590Y137999D01*
X46265Y146673D01*
X52615Y157671D01*
X61290Y159996D01*
X33565Y124676D02*
X35890Y116001D01*
X61290Y159996D02*
X58965Y168670D01*
X65315Y179668D01*
X73990Y181993D01*
X43485Y52957D02*
X45810Y44283D01*
X58510Y66280D02*
X56185Y74954D01*
X58510Y66280D02*
X52160Y55282D01*
X43485Y52957D01*
X30785Y30960D02*
X-2210Y50010D01*
X30785Y30960D02*
X39460Y33285D01*
X45810Y44283D01*
X71210Y88277D02*
X68885Y96951D01*
X71210Y88277D02*
X64860Y77279D01*
X56185Y74954D01*
X83910Y110274D02*
X81585Y118949D01*
X96610Y132271D02*
X94285Y140946D01*
X96610Y132271D02*
X90260Y121273D01*
X81585Y118949D01*
X77560Y99276D02*
X68885Y96951D01*
X77560Y99276D02*
X83910Y110274D01*
X109310Y154268D02*
X106985Y162943D01*
X109310Y154268D02*
X102960Y143270D01*
X94285Y140946D01*
X119685Y184940D02*
X86690Y203990D01*
X78015Y201665D01*
X71665Y190667D01*
X73990Y181993D01*
X106985Y162943D02*
X115660Y165267D01*
X122010Y176265D01*
X119685Y184940D01*
X12472Y241353D02*
X6122Y230354D01*
X-2552Y228030D01*
X-228Y219356D01*
X-6578Y208357D01*
X-15252Y206033D01*
X12472Y241353D02*
X10148Y250027D01*
X-15252Y206033D02*
X-12928Y197359D01*
X-19278Y186360D01*
X-27952Y184036D01*
X-25628Y175362D02*
X-31978Y164363D01*
X-40652Y162039D01*
X-38328Y153365D01*
X-44678Y142366D01*
X-53352Y140042D01*
X-25628Y175362D02*
X-27952Y184036D01*
X-53352Y140042D02*
X-51028Y131368D01*
X-57378Y120369D01*
X-66052Y118045D01*
X-35548Y247080D02*
X-37872Y255754D01*
X-50572Y233757D02*
X-48248Y225083D01*
X-50572Y233757D02*
X-44222Y244756D01*
X-35548Y247080D01*
X-22848Y269077D02*
X10148Y250027D01*
X-22848Y269077D02*
X-31522Y266753D01*
X-37872Y255754D01*
X-63272Y211760D02*
X-60948Y203086D01*
X-63272Y211760D02*
X-56922Y222759D01*
X-48248Y225083D01*
X-75972Y189763D02*
X-73648Y181089D01*
X-88672Y167766D02*
X-86348Y159092D01*
X-88672Y167766D02*
X-82322Y178765D01*
X-73648Y181089D01*
X-69622Y200762D02*
X-60948Y203086D01*
X-69622Y200762D02*
X-75972Y189763D01*
X-101372Y145769D02*
X-99048Y137095D01*
X-101372Y145769D02*
X-95022Y156768D01*
X-86348Y159092D01*
X-111748Y115098D02*
X-78752Y96048D01*
X-70078Y98372D01*
X-63728Y109371D01*
X-66052Y118045D01*
X-99048Y137095D02*
X-107722Y134771D01*
X-114072Y123772D01*
X-111748Y115098D01*
M02*
