G04 EAGLE Gerber RS-274X export*
G75*
%MOMM*%
%FSLAX34Y34*%
%LPD*%
%INBottom Copper*%
%IPPOS*%
%AMOC8*
5,1,8,0,0,1.08239X$1,22.5*%
G01*
%ADD10C,1.000000*%
%ADD11P,1.649562X8X82.500000*%
%ADD12P,1.649562X8X262.500000*%
%ADD13C,0.756400*%
%ADD14C,0.609600*%
%ADD15C,0.203200*%

G36*
X-67572Y319D02*
X-67572Y319D01*
X-67544Y316D01*
X-67476Y339D01*
X-67405Y353D01*
X-67382Y369D01*
X-67366Y374D01*
X-19786Y374D01*
X-19766Y377D01*
X-19747Y375D01*
X-19645Y397D01*
X-19543Y414D01*
X-19526Y423D01*
X-19506Y427D01*
X-19417Y481D01*
X-19326Y529D01*
X-19312Y543D01*
X-19295Y554D01*
X-19228Y632D01*
X-19156Y707D01*
X-19148Y725D01*
X-19135Y741D01*
X-19096Y837D01*
X-19053Y930D01*
X-19051Y950D01*
X-19043Y969D01*
X-19025Y1135D01*
X-19025Y1702D01*
X-19010Y1722D01*
X-18993Y1779D01*
X-18966Y1833D01*
X-18947Y1926D01*
X-18938Y1957D01*
X-18938Y1973D01*
X-18933Y1997D01*
X-18860Y2888D01*
X-18862Y2917D01*
X-18857Y2945D01*
X-18872Y3039D01*
X-18879Y3133D01*
X-18890Y3160D01*
X-18895Y3188D01*
X-18939Y3285D01*
X-18788Y3884D01*
X-18785Y3916D01*
X-18767Y4008D01*
X-18716Y4617D01*
X-18660Y4694D01*
X-18598Y4766D01*
X-18588Y4793D01*
X-18571Y4816D01*
X-18512Y4973D01*
X-18261Y5964D01*
X-18258Y5993D01*
X-18249Y6020D01*
X-18248Y6115D01*
X-18240Y6209D01*
X-18246Y6237D01*
X-18246Y6266D01*
X-18274Y6369D01*
X-18026Y6934D01*
X-18018Y6966D01*
X-18001Y7009D01*
X-17996Y7020D01*
X-17996Y7024D01*
X-17985Y7053D01*
X-17835Y7645D01*
X-17834Y7646D01*
X-17766Y7712D01*
X-17694Y7773D01*
X-17679Y7798D01*
X-17658Y7818D01*
X-17575Y7963D01*
X-17164Y8900D01*
X-17157Y8927D01*
X-17143Y8952D01*
X-17126Y9046D01*
X-17103Y9138D01*
X-17105Y9166D01*
X-17100Y9195D01*
X-17110Y9301D01*
X-16772Y9818D01*
X-16759Y9848D01*
X-16712Y9928D01*
X-16467Y10488D01*
X-16466Y10488D01*
X-16389Y10542D01*
X-16307Y10591D01*
X-16288Y10612D01*
X-16265Y10629D01*
X-16158Y10758D01*
X-15599Y11614D01*
X-15587Y11641D01*
X-15569Y11663D01*
X-15537Y11753D01*
X-15499Y11839D01*
X-15496Y11868D01*
X-15487Y11895D01*
X-15479Y12001D01*
X-15061Y12456D01*
X-15044Y12483D01*
X-14984Y12555D01*
X-14650Y13066D01*
X-14649Y13066D01*
X-14563Y13107D01*
X-14475Y13141D01*
X-14453Y13160D01*
X-14427Y13172D01*
X-14301Y13282D01*
X-13608Y14034D01*
X-13592Y14058D01*
X-13571Y14078D01*
X-13525Y14161D01*
X-13473Y14240D01*
X-13465Y14268D01*
X-13452Y14293D01*
X-13427Y14397D01*
X-12940Y14776D01*
X-12917Y14800D01*
X-12847Y14861D01*
X-12433Y15310D01*
X-12432Y15310D01*
X-12341Y15336D01*
X-12248Y15356D01*
X-12223Y15370D01*
X-12196Y15378D01*
X-12053Y15466D01*
X-11246Y16094D01*
X-11227Y16115D01*
X-11203Y16131D01*
X-11143Y16205D01*
X-11079Y16274D01*
X-11067Y16301D01*
X-11049Y16323D01*
X-11008Y16421D01*
X-10465Y16715D01*
X-10439Y16735D01*
X-10359Y16784D01*
X-9877Y17159D01*
X-9783Y17170D01*
X-9688Y17173D01*
X-9661Y17184D01*
X-9632Y17187D01*
X-9477Y17250D01*
X-8577Y17737D01*
X-8555Y17754D01*
X-8528Y17766D01*
X-8458Y17829D01*
X-8383Y17887D01*
X-8367Y17911D01*
X-8346Y17930D01*
X-8288Y18020D01*
X-7705Y18221D01*
X-7676Y18236D01*
X-7590Y18271D01*
X-7052Y18562D01*
X-7051Y18562D01*
X-6957Y18557D01*
X-6862Y18545D01*
X-6834Y18550D01*
X-6806Y18549D01*
X-6642Y18585D01*
X-5675Y18918D01*
X-5650Y18931D01*
X-5622Y18938D01*
X-5542Y18989D01*
X-5458Y19034D01*
X-5438Y19055D01*
X-5414Y19070D01*
X-5343Y19150D01*
X-4734Y19251D01*
X-4703Y19262D01*
X-4612Y19282D01*
X-4035Y19481D01*
X-4034Y19480D01*
X-3941Y19460D01*
X-3850Y19432D01*
X-3822Y19433D01*
X-3794Y19427D01*
X-3626Y19436D01*
X-2617Y19605D01*
X-2590Y19614D01*
X-2562Y19616D01*
X-2474Y19653D01*
X-2385Y19684D01*
X-2362Y19701D01*
X-2335Y19712D01*
X-2252Y19779D01*
X-1635Y19779D01*
X-1603Y19784D01*
X-1509Y19790D01*
X-907Y19890D01*
X-906Y19890D01*
X-818Y19854D01*
X-733Y19812D01*
X-705Y19808D01*
X-678Y19798D01*
X-511Y19779D01*
X511Y19779D01*
X540Y19784D01*
X568Y19781D01*
X661Y19804D01*
X754Y19819D01*
X779Y19832D01*
X807Y19839D01*
X901Y19891D01*
X1509Y19790D01*
X1542Y19789D01*
X1635Y19779D01*
X2246Y19779D01*
X2327Y19729D01*
X2404Y19674D01*
X2432Y19665D01*
X2456Y19650D01*
X2617Y19605D01*
X3626Y19436D01*
X3655Y19436D01*
X3683Y19429D01*
X3777Y19436D01*
X3872Y19436D01*
X3899Y19445D01*
X3928Y19447D01*
X4029Y19483D01*
X4612Y19282D01*
X4644Y19277D01*
X4734Y19251D01*
X5337Y19151D01*
X5337Y19150D01*
X5409Y19088D01*
X5476Y19021D01*
X5501Y19008D01*
X5523Y18989D01*
X5675Y18918D01*
X6642Y18585D01*
X6670Y18581D01*
X6696Y18569D01*
X6791Y18560D01*
X6885Y18544D01*
X6913Y18549D01*
X6941Y18546D01*
X7047Y18565D01*
X7590Y18271D01*
X7620Y18261D01*
X7705Y18221D01*
X8282Y18022D01*
X8283Y18022D01*
X8343Y17949D01*
X8398Y17871D01*
X8421Y17854D01*
X8440Y17832D01*
X8577Y17737D01*
X9477Y17250D01*
X9504Y17240D01*
X9528Y17225D01*
X9620Y17200D01*
X9709Y17169D01*
X9738Y17169D01*
X9766Y17162D01*
X9872Y17163D01*
X10359Y16784D01*
X10388Y16768D01*
X10465Y16715D01*
X11002Y16424D01*
X11050Y16341D01*
X11091Y16256D01*
X11111Y16236D01*
X11126Y16211D01*
X11246Y16094D01*
X12053Y15466D01*
X12078Y15452D01*
X12099Y15433D01*
X12186Y15393D01*
X12269Y15348D01*
X12297Y15343D01*
X12323Y15331D01*
X12429Y15315D01*
X12847Y14861D01*
X12873Y14841D01*
X12940Y14776D01*
X13422Y14401D01*
X13422Y14400D01*
X13455Y14311D01*
X13482Y14220D01*
X13498Y14196D01*
X13509Y14170D01*
X13608Y14034D01*
X14301Y13282D01*
X14323Y13264D01*
X14341Y13242D01*
X14419Y13189D01*
X14494Y13130D01*
X14521Y13121D01*
X14545Y13105D01*
X14672Y13063D01*
X14728Y12992D01*
X14750Y12979D01*
X14767Y12960D01*
X14853Y12913D01*
X14935Y12859D01*
X14960Y12853D01*
X14982Y12841D01*
X15079Y12823D01*
X15174Y12799D01*
X15199Y12801D01*
X15224Y12797D01*
X15321Y12811D01*
X15419Y12818D01*
X15442Y12828D01*
X15467Y12832D01*
X15555Y12876D01*
X15645Y12915D01*
X15670Y12934D01*
X15687Y12943D01*
X15710Y12967D01*
X15776Y13020D01*
X54386Y51629D01*
X54433Y51694D01*
X54449Y51711D01*
X54452Y51719D01*
X54499Y51773D01*
X54511Y51803D01*
X54530Y51829D01*
X54557Y51916D01*
X54591Y52001D01*
X54595Y52042D01*
X54602Y52064D01*
X54601Y52096D01*
X54609Y52168D01*
X54609Y63794D01*
X54602Y63842D01*
X54603Y63890D01*
X54582Y63962D01*
X54570Y64037D01*
X54547Y64079D01*
X54533Y64125D01*
X54490Y64188D01*
X54454Y64254D01*
X54420Y64287D01*
X54392Y64327D01*
X54331Y64372D01*
X54276Y64424D01*
X54233Y64444D01*
X54194Y64472D01*
X54122Y64496D01*
X54053Y64527D01*
X54005Y64533D01*
X53960Y64547D01*
X53884Y64546D01*
X53809Y64555D01*
X53762Y64544D01*
X53714Y64544D01*
X53642Y64518D01*
X53568Y64502D01*
X53527Y64478D01*
X53482Y64462D01*
X53422Y64415D01*
X53357Y64376D01*
X53326Y64340D01*
X53288Y64310D01*
X53212Y64206D01*
X53197Y64189D01*
X53195Y64183D01*
X53189Y64175D01*
X50362Y59278D01*
X43044Y57317D01*
X36483Y61105D01*
X34523Y68423D01*
X38310Y74984D01*
X45628Y76944D01*
X52189Y73157D01*
X53113Y69708D01*
X53123Y69686D01*
X53127Y69662D01*
X53173Y69575D01*
X53214Y69484D01*
X53230Y69466D01*
X53242Y69445D01*
X53314Y69377D01*
X53381Y69304D01*
X53402Y69292D01*
X53420Y69276D01*
X53510Y69234D01*
X53597Y69186D01*
X53621Y69182D01*
X53643Y69172D01*
X53742Y69161D01*
X53840Y69144D01*
X53864Y69148D01*
X53887Y69145D01*
X53985Y69166D01*
X54083Y69181D01*
X54104Y69192D01*
X54128Y69197D01*
X54213Y69248D01*
X54302Y69294D01*
X54318Y69311D01*
X54339Y69323D01*
X54404Y69399D01*
X54473Y69470D01*
X54483Y69492D01*
X54499Y69510D01*
X54536Y69603D01*
X54579Y69692D01*
X54582Y69716D01*
X54591Y69738D01*
X54609Y69905D01*
X54609Y79530D01*
X54598Y79597D01*
X54597Y79664D01*
X54579Y79717D01*
X54570Y79773D01*
X54538Y79833D01*
X54515Y79896D01*
X54481Y79941D01*
X54454Y79990D01*
X54406Y80037D01*
X54364Y80090D01*
X54300Y80137D01*
X54276Y80160D01*
X54257Y80168D01*
X54229Y80189D01*
X49183Y83102D01*
X47223Y90420D01*
X51010Y96981D01*
X58328Y98941D01*
X64889Y95154D01*
X66849Y87836D01*
X63062Y81275D01*
X60255Y80523D01*
X60215Y80505D01*
X60172Y80496D01*
X60104Y80455D01*
X60031Y80422D01*
X59999Y80392D01*
X59961Y80370D01*
X59909Y80309D01*
X59851Y80255D01*
X59830Y80216D01*
X59801Y80183D01*
X59771Y80109D01*
X59733Y80038D01*
X59726Y79995D01*
X59709Y79955D01*
X59693Y79810D01*
X59691Y79796D01*
X59691Y79793D01*
X59691Y79788D01*
X59691Y49748D01*
X57979Y48036D01*
X18091Y8148D01*
X18055Y8097D01*
X18011Y8053D01*
X17983Y7998D01*
X17948Y7948D01*
X17929Y7889D01*
X17901Y7833D01*
X17893Y7772D01*
X17875Y7713D01*
X17877Y7651D01*
X17868Y7589D01*
X17881Y7500D01*
X17882Y7467D01*
X17888Y7451D01*
X17891Y7423D01*
X17985Y7053D01*
X17998Y7024D01*
X18020Y6954D01*
X18021Y6946D01*
X18023Y6943D01*
X18026Y6934D01*
X18271Y6375D01*
X18271Y6374D01*
X18258Y6280D01*
X18238Y6187D01*
X18242Y6159D01*
X18238Y6130D01*
X18261Y5964D01*
X18512Y4973D01*
X18523Y4946D01*
X18528Y4918D01*
X18572Y4834D01*
X18610Y4747D01*
X18629Y4726D01*
X18643Y4701D01*
X18716Y4623D01*
X18767Y4008D01*
X18775Y3976D01*
X18788Y3884D01*
X18938Y3292D01*
X18937Y3291D01*
X18909Y3200D01*
X18874Y3112D01*
X18873Y3083D01*
X18864Y3056D01*
X18860Y2888D01*
X18933Y1997D01*
X18948Y1939D01*
X18953Y1879D01*
X18978Y1821D01*
X18993Y1759D01*
X19025Y1709D01*
X19025Y1135D01*
X19028Y1116D01*
X19026Y1096D01*
X19048Y995D01*
X19064Y893D01*
X19074Y875D01*
X19078Y856D01*
X19131Y767D01*
X19180Y675D01*
X19194Y662D01*
X19204Y644D01*
X19283Y577D01*
X19358Y506D01*
X19376Y498D01*
X19391Y485D01*
X19487Y446D01*
X19581Y402D01*
X19601Y400D01*
X19619Y393D01*
X19786Y374D01*
X67369Y374D01*
X67384Y362D01*
X67412Y355D01*
X67436Y341D01*
X67536Y324D01*
X67577Y314D01*
X67587Y315D01*
X67600Y313D01*
X86600Y313D01*
X86676Y329D01*
X86754Y337D01*
X86773Y348D01*
X86795Y353D01*
X86859Y397D01*
X86927Y435D01*
X86943Y454D01*
X86959Y465D01*
X86983Y503D01*
X87033Y563D01*
X96533Y17063D01*
X96542Y17091D01*
X96558Y17114D01*
X96573Y17184D01*
X96596Y17252D01*
X96593Y17281D01*
X96599Y17309D01*
X96586Y17379D01*
X96580Y17450D01*
X96567Y17476D01*
X96561Y17504D01*
X96554Y17515D01*
X120251Y58559D01*
X120258Y58578D01*
X120270Y58593D01*
X120301Y58692D01*
X120338Y58789D01*
X120339Y58809D01*
X120345Y58828D01*
X120343Y58931D01*
X120347Y59035D01*
X120342Y59054D01*
X120341Y59074D01*
X120307Y59171D01*
X120277Y59271D01*
X120266Y59287D01*
X120259Y59306D01*
X120196Y59387D01*
X120136Y59472D01*
X120120Y59484D01*
X120108Y59499D01*
X119973Y59599D01*
X119617Y59805D01*
X119607Y59827D01*
X119566Y59871D01*
X119533Y59922D01*
X119461Y59984D01*
X119439Y60008D01*
X119425Y60015D01*
X119406Y60032D01*
X118675Y60540D01*
X118649Y60552D01*
X118627Y60571D01*
X118538Y60605D01*
X118453Y60646D01*
X118424Y60649D01*
X118397Y60660D01*
X118291Y60670D01*
X117849Y61101D01*
X117822Y61119D01*
X117752Y61181D01*
X117250Y61529D01*
X117250Y61530D01*
X117212Y61617D01*
X117180Y61706D01*
X117162Y61729D01*
X117151Y61755D01*
X117044Y61884D01*
X116314Y62596D01*
X116290Y62612D01*
X116272Y62634D01*
X116215Y62668D01*
X116193Y62686D01*
X116173Y62694D01*
X116112Y62737D01*
X116085Y62745D01*
X116060Y62759D01*
X115957Y62787D01*
X115592Y63285D01*
X115569Y63308D01*
X115509Y63380D01*
X115072Y63806D01*
X115072Y63807D01*
X115048Y63899D01*
X115032Y63992D01*
X115018Y64017D01*
X115011Y64045D01*
X114927Y64190D01*
X114324Y65012D01*
X114303Y65032D01*
X114289Y65057D01*
X114216Y65118D01*
X114148Y65184D01*
X114122Y65197D01*
X114101Y65215D01*
X114003Y65260D01*
X113725Y65811D01*
X113706Y65837D01*
X113659Y65918D01*
X113298Y66410D01*
X113298Y66411D01*
X113290Y66506D01*
X113289Y66601D01*
X113280Y66628D01*
X113277Y66656D01*
X113218Y66813D01*
X112759Y67723D01*
X112742Y67747D01*
X112731Y67773D01*
X112687Y67825D01*
X112669Y67855D01*
X112652Y67870D01*
X112614Y67922D01*
X112590Y67939D01*
X112572Y67960D01*
X112483Y68020D01*
X112299Y68609D01*
X112285Y68639D01*
X112252Y68726D01*
X111977Y69271D01*
X111977Y69272D01*
X111985Y69367D01*
X111999Y69460D01*
X111994Y69488D01*
X111997Y69517D01*
X111965Y69682D01*
X111661Y70655D01*
X111651Y70674D01*
X111648Y70689D01*
X111645Y70694D01*
X111642Y70709D01*
X111593Y70790D01*
X111551Y70875D01*
X111530Y70895D01*
X111516Y70920D01*
X111438Y70993D01*
X111354Y71605D01*
X111344Y71636D01*
X111326Y71727D01*
X111144Y72311D01*
X111145Y72311D01*
X111168Y72403D01*
X111198Y72493D01*
X111198Y72522D01*
X111205Y72550D01*
X111200Y72717D01*
X111061Y73727D01*
X111052Y73755D01*
X111051Y73783D01*
X111016Y73872D01*
X110988Y73962D01*
X110972Y73986D01*
X110961Y74012D01*
X110897Y74098D01*
X110914Y74715D01*
X110910Y74747D01*
X110907Y74840D01*
X110824Y75445D01*
X110824Y75446D01*
X110862Y75533D01*
X110907Y75617D01*
X110911Y75645D01*
X110923Y75672D01*
X110946Y75838D01*
X110950Y75989D01*
X110946Y76020D01*
X110949Y76050D01*
X110930Y76141D01*
X110917Y76233D01*
X110904Y76260D01*
X110897Y76290D01*
X110849Y76370D01*
X110808Y76453D01*
X110787Y76475D01*
X110771Y76501D01*
X110700Y76562D01*
X110635Y76628D01*
X110607Y76641D01*
X110584Y76661D01*
X110498Y76696D01*
X110415Y76738D01*
X110384Y76742D01*
X110356Y76753D01*
X110189Y76772D01*
X91085Y76772D01*
X67195Y100662D01*
X67195Y101593D01*
X67184Y101660D01*
X67183Y101727D01*
X67165Y101780D01*
X67156Y101836D01*
X67124Y101895D01*
X67101Y101959D01*
X67067Y102004D01*
X67040Y102053D01*
X66992Y102100D01*
X66950Y102153D01*
X66886Y102200D01*
X66862Y102222D01*
X66843Y102231D01*
X66815Y102252D01*
X61883Y105099D01*
X59923Y112417D01*
X63710Y118978D01*
X71028Y120938D01*
X77589Y117151D01*
X79549Y109833D01*
X75762Y103272D01*
X73888Y102770D01*
X73801Y102731D01*
X73711Y102698D01*
X73689Y102681D01*
X73664Y102669D01*
X73594Y102604D01*
X73519Y102545D01*
X73504Y102521D01*
X73483Y102502D01*
X73438Y102418D01*
X73386Y102338D01*
X73379Y102310D01*
X73366Y102285D01*
X73350Y102191D01*
X73326Y102099D01*
X73328Y102071D01*
X73324Y102043D01*
X73338Y101949D01*
X73345Y101854D01*
X73356Y101828D01*
X73361Y101800D01*
X73405Y101715D01*
X73442Y101628D01*
X73464Y101600D01*
X73473Y101581D01*
X73497Y101558D01*
X73547Y101497D01*
X92967Y82076D01*
X93041Y82023D01*
X93110Y81964D01*
X93141Y81951D01*
X93167Y81933D01*
X93254Y81906D01*
X93339Y81872D01*
X93379Y81867D01*
X93402Y81860D01*
X93434Y81861D01*
X93505Y81853D01*
X111402Y81853D01*
X111409Y81854D01*
X111415Y81853D01*
X111530Y81874D01*
X111645Y81893D01*
X111651Y81896D01*
X111657Y81897D01*
X111759Y81954D01*
X111862Y82008D01*
X111867Y82013D01*
X111873Y82016D01*
X111952Y82102D01*
X112031Y82186D01*
X112034Y82192D01*
X112039Y82197D01*
X112115Y82347D01*
X112339Y82945D01*
X112345Y82973D01*
X112357Y82999D01*
X112369Y83093D01*
X112387Y83186D01*
X112384Y83215D01*
X112387Y83243D01*
X112371Y83349D01*
X112680Y83883D01*
X112691Y83914D01*
X112734Y83997D01*
X112948Y84569D01*
X112949Y84569D01*
X113024Y84628D01*
X113103Y84680D01*
X113120Y84703D01*
X113143Y84721D01*
X113242Y84856D01*
X113753Y85738D01*
X113763Y85765D01*
X113779Y85789D01*
X113806Y85879D01*
X113840Y85968D01*
X113841Y85997D01*
X113849Y86024D01*
X113850Y86131D01*
X114243Y86607D01*
X114259Y86635D01*
X114315Y86711D01*
X114621Y87240D01*
X114622Y87240D01*
X114705Y87285D01*
X114791Y87324D01*
X114812Y87344D01*
X114838Y87357D01*
X114958Y87474D01*
X115607Y88261D01*
X115621Y88285D01*
X115641Y88306D01*
X115683Y88391D01*
X115730Y88473D01*
X115736Y88501D01*
X115749Y88527D01*
X115768Y88632D01*
X116234Y89037D01*
X116254Y89062D01*
X116321Y89127D01*
X116710Y89599D01*
X116711Y89599D01*
X116800Y89630D01*
X116892Y89654D01*
X116916Y89670D01*
X116943Y89679D01*
X117081Y89774D01*
X117850Y90444D01*
X117869Y90466D01*
X117892Y90482D01*
X117947Y90560D01*
X118007Y90633D01*
X118018Y90660D01*
X118034Y90683D01*
X118071Y90783D01*
X118597Y91106D01*
X118621Y91128D01*
X118698Y91181D01*
X119159Y91582D01*
X119160Y91582D01*
X119253Y91597D01*
X119348Y91606D01*
X119374Y91618D01*
X119402Y91623D01*
X119554Y91694D01*
X120423Y92227D01*
X120445Y92246D01*
X120470Y92259D01*
X120537Y92326D01*
X120609Y92388D01*
X120624Y92413D01*
X120644Y92433D01*
X120696Y92526D01*
X121268Y92758D01*
X121296Y92775D01*
X121380Y92815D01*
X121901Y93135D01*
X121902Y93134D01*
X121997Y93134D01*
X122091Y93128D01*
X122119Y93135D01*
X122148Y93135D01*
X122309Y93180D01*
X123254Y93563D01*
X123278Y93578D01*
X123306Y93587D01*
X123383Y93642D01*
X123464Y93691D01*
X123482Y93713D01*
X123506Y93730D01*
X123573Y93813D01*
X124175Y93948D01*
X124205Y93960D01*
X124295Y93985D01*
X124861Y94215D01*
X124862Y94214D01*
X124956Y94199D01*
X125048Y94177D01*
X125076Y94179D01*
X125105Y94174D01*
X125271Y94193D01*
X126266Y94415D01*
X126293Y94426D01*
X126321Y94430D01*
X126406Y94471D01*
X126495Y94507D01*
X126516Y94525D01*
X126542Y94538D01*
X126622Y94609D01*
X127238Y94643D01*
X127270Y94650D01*
X127363Y94660D01*
X127959Y94793D01*
X128049Y94762D01*
X128137Y94725D01*
X128165Y94723D01*
X128192Y94713D01*
X128360Y94704D01*
X129378Y94759D01*
X129406Y94766D01*
X129434Y94765D01*
X129525Y94792D01*
X129618Y94812D01*
X129642Y94827D01*
X129670Y94835D01*
X129760Y94892D01*
X130374Y94824D01*
X130406Y94826D01*
X130499Y94821D01*
X131109Y94854D01*
X131110Y94853D01*
X131194Y94808D01*
X131274Y94757D01*
X131301Y94750D01*
X131327Y94737D01*
X131490Y94700D01*
X132503Y94587D01*
X132532Y94589D01*
X132560Y94583D01*
X132654Y94595D01*
X132749Y94600D01*
X132776Y94610D01*
X132804Y94614D01*
X132903Y94655D01*
X133497Y94487D01*
X133529Y94483D01*
X133620Y94463D01*
X134227Y94395D01*
X134227Y94394D01*
X134302Y94336D01*
X134373Y94273D01*
X134399Y94261D01*
X134422Y94244D01*
X134577Y94181D01*
X135558Y93902D01*
X135587Y93899D01*
X135613Y93889D01*
X135708Y93885D01*
X135802Y93874D01*
X135831Y93880D01*
X135859Y93879D01*
X135963Y93904D01*
X136521Y93640D01*
X136552Y93631D01*
X136639Y93596D01*
X137227Y93429D01*
X137291Y93359D01*
X137350Y93285D01*
X137374Y93269D01*
X137394Y93248D01*
X137537Y93160D01*
X138342Y92779D01*
X138400Y92763D01*
X138454Y92737D01*
X138517Y92729D01*
X138578Y92712D01*
X138637Y92714D01*
X138978Y92517D01*
X138997Y92510D01*
X139013Y92498D01*
X139111Y92467D01*
X139208Y92430D01*
X139228Y92429D01*
X139247Y92423D01*
X139350Y92425D01*
X139453Y92421D01*
X139473Y92427D01*
X139493Y92427D01*
X139590Y92461D01*
X139689Y92491D01*
X139706Y92502D01*
X139725Y92509D01*
X139806Y92572D01*
X139891Y92632D01*
X139903Y92648D01*
X139919Y92661D01*
X140018Y92796D01*
X163704Y133821D01*
X163727Y133823D01*
X163798Y133823D01*
X163825Y133834D01*
X163854Y133837D01*
X163916Y133873D01*
X163981Y133900D01*
X164002Y133921D01*
X164027Y133935D01*
X164090Y134012D01*
X164120Y134043D01*
X164124Y134053D01*
X164133Y134063D01*
X173633Y150563D01*
X173643Y150595D01*
X173652Y150608D01*
X173656Y150633D01*
X173657Y150636D01*
X173688Y150707D01*
X173688Y150730D01*
X173696Y150752D01*
X173690Y150829D01*
X173691Y150906D01*
X173681Y150930D01*
X173680Y150950D01*
X173659Y150990D01*
X173633Y151062D01*
X173573Y151166D01*
X173572Y151169D01*
X173574Y151225D01*
X173555Y151290D01*
X173546Y151357D01*
X173514Y151430D01*
X173505Y151461D01*
X173493Y151478D01*
X173478Y151511D01*
X140293Y208988D01*
X140280Y209004D01*
X140272Y209022D01*
X140202Y209099D01*
X140137Y209179D01*
X140120Y209189D01*
X140106Y209204D01*
X140016Y209255D01*
X139929Y209309D01*
X139909Y209314D01*
X139891Y209324D01*
X139790Y209343D01*
X139690Y209367D01*
X139670Y209365D01*
X139650Y209369D01*
X139547Y209354D01*
X139445Y209345D01*
X139426Y209337D01*
X139406Y209334D01*
X139253Y209267D01*
X138644Y208915D01*
X138619Y208917D01*
X138561Y208904D01*
X138501Y208900D01*
X138411Y208869D01*
X138379Y208862D01*
X138366Y208854D01*
X138342Y208846D01*
X137537Y208465D01*
X137513Y208449D01*
X137486Y208439D01*
X137412Y208379D01*
X137334Y208325D01*
X137317Y208302D01*
X137295Y208284D01*
X137233Y208197D01*
X136639Y208029D01*
X136609Y208015D01*
X136521Y207985D01*
X135969Y207724D01*
X135968Y207724D01*
X135874Y207734D01*
X135780Y207751D01*
X135752Y207747D01*
X135724Y207750D01*
X135558Y207723D01*
X134577Y207444D01*
X134551Y207432D01*
X134523Y207427D01*
X134440Y207380D01*
X134355Y207340D01*
X134334Y207320D01*
X134309Y207306D01*
X134233Y207231D01*
X133620Y207162D01*
X133589Y207154D01*
X133497Y207138D01*
X132909Y206971D01*
X132908Y206972D01*
X132817Y206997D01*
X132728Y207030D01*
X132699Y207030D01*
X132671Y207038D01*
X132503Y207038D01*
X131490Y206925D01*
X131463Y206917D01*
X131434Y206917D01*
X131345Y206884D01*
X131253Y206859D01*
X131230Y206843D01*
X131203Y206833D01*
X131116Y206771D01*
X130499Y206804D01*
X130467Y206801D01*
X130374Y206801D01*
X129767Y206733D01*
X129766Y206734D01*
X129680Y206774D01*
X129597Y206820D01*
X129569Y206826D01*
X129543Y206838D01*
X129378Y206866D01*
X128360Y206921D01*
X128331Y206918D01*
X128303Y206922D01*
X128210Y206905D01*
X128115Y206895D01*
X128089Y206883D01*
X128061Y206877D01*
X127965Y206830D01*
X127368Y206964D01*
X127265Y206970D01*
X127163Y206981D01*
X127143Y206977D01*
X127122Y206978D01*
X127023Y206951D01*
X126922Y206929D01*
X126905Y206918D01*
X126885Y206913D01*
X126800Y206856D01*
X126711Y206803D01*
X126698Y206787D01*
X126681Y206776D01*
X126618Y206694D01*
X126551Y206616D01*
X126544Y206597D01*
X126531Y206581D01*
X126498Y206483D01*
X126459Y206388D01*
X126456Y206363D01*
X126451Y206348D01*
X126451Y206316D01*
X126441Y206221D01*
X126441Y159360D01*
X97662Y130581D01*
X91968Y130581D01*
X91901Y130570D01*
X91834Y130569D01*
X91781Y130551D01*
X91725Y130542D01*
X91666Y130510D01*
X91602Y130487D01*
X91557Y130453D01*
X91508Y130426D01*
X91461Y130378D01*
X91408Y130336D01*
X91361Y130272D01*
X91339Y130248D01*
X91330Y130229D01*
X91309Y130201D01*
X88462Y125269D01*
X81144Y123309D01*
X74583Y127096D01*
X72623Y134414D01*
X76410Y140975D01*
X83728Y142936D01*
X90289Y139148D01*
X91071Y136227D01*
X91089Y136187D01*
X91099Y136144D01*
X91140Y136076D01*
X91173Y136003D01*
X91202Y135971D01*
X91225Y135933D01*
X91286Y135881D01*
X91340Y135823D01*
X91378Y135802D01*
X91412Y135773D01*
X91486Y135743D01*
X91556Y135705D01*
X91599Y135698D01*
X91640Y135681D01*
X91785Y135665D01*
X91798Y135663D01*
X91802Y135663D01*
X91807Y135663D01*
X95242Y135663D01*
X95332Y135678D01*
X95423Y135685D01*
X95453Y135697D01*
X95485Y135703D01*
X95565Y135745D01*
X95649Y135781D01*
X95681Y135807D01*
X95702Y135818D01*
X95724Y135841D01*
X95780Y135886D01*
X121136Y161242D01*
X121181Y161305D01*
X121206Y161331D01*
X121211Y161341D01*
X121249Y161385D01*
X121261Y161416D01*
X121280Y161442D01*
X121307Y161529D01*
X121341Y161614D01*
X121345Y161654D01*
X121352Y161677D01*
X121351Y161709D01*
X121359Y161780D01*
X121359Y208317D01*
X121340Y208435D01*
X121322Y208553D01*
X121320Y208556D01*
X121320Y208560D01*
X121264Y208665D01*
X121208Y208772D01*
X121206Y208774D01*
X121204Y208777D01*
X121119Y208858D01*
X121032Y208943D01*
X121028Y208945D01*
X121026Y208946D01*
X121016Y208951D01*
X120884Y209022D01*
X120702Y209096D01*
X120702Y209097D01*
X120645Y209173D01*
X120595Y209254D01*
X120572Y209272D01*
X120555Y209295D01*
X120423Y209398D01*
X119554Y209931D01*
X119528Y209942D01*
X119504Y209959D01*
X119414Y209988D01*
X119326Y210024D01*
X119298Y210026D01*
X119270Y210035D01*
X119164Y210039D01*
X118698Y210444D01*
X118670Y210461D01*
X118597Y210519D01*
X118076Y210838D01*
X118076Y210839D01*
X118033Y210924D01*
X117996Y211011D01*
X117977Y211033D01*
X117964Y211058D01*
X117850Y211181D01*
X117081Y211851D01*
X117057Y211866D01*
X117037Y211886D01*
X116953Y211930D01*
X116872Y211980D01*
X116844Y211986D01*
X116819Y212000D01*
X116714Y212021D01*
X116321Y212498D01*
X116297Y212519D01*
X116234Y212588D01*
X115773Y212989D01*
X115744Y213080D01*
X115722Y213172D01*
X115707Y213197D01*
X115698Y213224D01*
X115607Y213364D01*
X114958Y214151D01*
X114936Y214170D01*
X114920Y214193D01*
X114844Y214250D01*
X114773Y214313D01*
X114746Y214324D01*
X114723Y214341D01*
X114602Y214388D01*
X114569Y214419D01*
X114521Y214478D01*
X114481Y214504D01*
X114446Y214536D01*
X114377Y214568D01*
X114313Y214609D01*
X114266Y214620D01*
X114223Y214640D01*
X114147Y214648D01*
X114074Y214666D01*
X114026Y214662D01*
X113979Y214667D01*
X113904Y214651D01*
X113829Y214644D01*
X113785Y214625D01*
X113738Y214615D01*
X113673Y214576D01*
X113603Y214545D01*
X113568Y214513D01*
X113527Y214489D01*
X113478Y214431D01*
X113421Y214380D01*
X113398Y214338D01*
X113367Y214302D01*
X113339Y214231D01*
X113302Y214165D01*
X113293Y214118D01*
X113275Y214074D01*
X113261Y213945D01*
X113257Y213923D01*
X113258Y213917D01*
X113257Y213907D01*
X113257Y210527D01*
X110148Y207418D01*
X105752Y207418D01*
X103683Y209487D01*
X103631Y209525D01*
X103585Y209570D01*
X103527Y209602D01*
X103521Y209607D01*
X103509Y209612D01*
X103484Y209630D01*
X103465Y209636D01*
X103438Y209651D01*
X89888Y215297D01*
X89823Y215312D01*
X89761Y215337D01*
X89680Y215346D01*
X89648Y215354D01*
X89628Y215352D01*
X89595Y215356D01*
X86702Y215356D01*
X83593Y218464D01*
X83593Y222861D01*
X86702Y225969D01*
X91098Y225969D01*
X93167Y223901D01*
X93219Y223863D01*
X93265Y223817D01*
X93340Y223776D01*
X93366Y223757D01*
X93385Y223751D01*
X93412Y223736D01*
X106962Y218090D01*
X107027Y218075D01*
X107089Y218050D01*
X107170Y218041D01*
X107202Y218034D01*
X107222Y218035D01*
X107255Y218032D01*
X110148Y218032D01*
X111558Y216622D01*
X111627Y216573D01*
X111690Y216516D01*
X111726Y216501D01*
X111758Y216478D01*
X111838Y216454D01*
X111916Y216421D01*
X111955Y216418D01*
X111993Y216406D01*
X112077Y216408D01*
X112162Y216402D01*
X112200Y216411D01*
X112239Y216412D01*
X112318Y216442D01*
X112400Y216462D01*
X112433Y216484D01*
X112470Y216497D01*
X112536Y216550D01*
X112607Y216596D01*
X112631Y216626D01*
X112662Y216651D01*
X112707Y216722D01*
X112760Y216788D01*
X112773Y216825D01*
X112795Y216858D01*
X112815Y216940D01*
X112844Y217019D01*
X112845Y217058D01*
X112855Y217096D01*
X112848Y217180D01*
X112850Y217265D01*
X112838Y217314D01*
X112836Y217341D01*
X112824Y217369D01*
X112809Y217428D01*
X112734Y217628D01*
X112717Y217656D01*
X112680Y217742D01*
X112374Y218271D01*
X112377Y218366D01*
X112386Y218461D01*
X112380Y218489D01*
X112380Y218517D01*
X112339Y218680D01*
X111981Y219634D01*
X111967Y219659D01*
X111959Y219687D01*
X111906Y219765D01*
X111858Y219848D01*
X111837Y219867D01*
X111821Y219890D01*
X111739Y219959D01*
X111621Y220565D01*
X111609Y220596D01*
X111586Y220686D01*
X111372Y221258D01*
X111372Y221259D01*
X111390Y221352D01*
X111415Y221444D01*
X111413Y221472D01*
X111419Y221500D01*
X111405Y221668D01*
X111208Y222668D01*
X111199Y222695D01*
X111195Y222723D01*
X111156Y222810D01*
X111123Y222899D01*
X111105Y222921D01*
X111093Y222947D01*
X111024Y223028D01*
X111006Y223646D01*
X111000Y223677D01*
X110992Y223771D01*
X110875Y224370D01*
X110875Y224371D01*
X110908Y224460D01*
X110948Y224546D01*
X110951Y224574D01*
X110961Y224601D01*
X110975Y224768D01*
X110946Y225787D01*
X110940Y225816D01*
X110942Y225844D01*
X110917Y225936D01*
X110899Y226029D01*
X110885Y226054D01*
X110878Y226082D01*
X110823Y226173D01*
X110907Y226785D01*
X110907Y226817D01*
X110914Y226910D01*
X110897Y227521D01*
X110898Y227522D01*
X110914Y227550D01*
X110923Y227560D01*
X110940Y227595D01*
X110945Y227604D01*
X110998Y227682D01*
X111006Y227710D01*
X111020Y227735D01*
X111061Y227898D01*
X111200Y228908D01*
X111200Y228936D01*
X111206Y228964D01*
X111196Y229059D01*
X111194Y229153D01*
X111184Y229180D01*
X111181Y229209D01*
X111142Y229308D01*
X111326Y229898D01*
X111331Y229930D01*
X111354Y230020D01*
X111437Y230626D01*
X111438Y230626D01*
X111498Y230699D01*
X111563Y230768D01*
X111576Y230794D01*
X111594Y230816D01*
X111661Y230970D01*
X111965Y231943D01*
X111969Y231972D01*
X111980Y231998D01*
X111986Y232093D01*
X111999Y232187D01*
X111994Y232215D01*
X111996Y232244D01*
X111974Y232348D01*
X112252Y232899D01*
X112262Y232930D01*
X112299Y233016D01*
X112481Y233599D01*
X112482Y233599D01*
X112553Y233662D01*
X112629Y233719D01*
X112645Y233742D01*
X112667Y233761D01*
X112759Y233902D01*
X113218Y234812D01*
X113227Y234839D01*
X113242Y234863D01*
X113264Y234956D01*
X113292Y235046D01*
X113292Y235075D01*
X113298Y235103D01*
X113294Y235210D01*
X113659Y235707D01*
X113674Y235736D01*
X113725Y235814D01*
X114000Y236360D01*
X114001Y236360D01*
X114082Y236410D01*
X114166Y236454D01*
X114186Y236474D01*
X114210Y236489D01*
X114324Y236613D01*
X114927Y237435D01*
X114933Y237446D01*
X114942Y237456D01*
X114949Y237470D01*
X114959Y237482D01*
X114996Y237569D01*
X115039Y237654D01*
X115041Y237668D01*
X115046Y237679D01*
X115047Y237693D01*
X115054Y237709D01*
X115067Y237815D01*
X115509Y238245D01*
X115529Y238271D01*
X115592Y238340D01*
X115953Y238833D01*
X115954Y238833D01*
X116042Y238869D01*
X116132Y238898D01*
X116155Y238915D01*
X116182Y238926D01*
X116314Y239029D01*
X117044Y239741D01*
X117061Y239764D01*
X117084Y239782D01*
X117134Y239862D01*
X117190Y239938D01*
X117199Y239966D01*
X117215Y239990D01*
X117245Y240092D01*
X117752Y240444D01*
X117775Y240467D01*
X117849Y240524D01*
X118287Y240951D01*
X118380Y240972D01*
X118474Y240986D01*
X118499Y240999D01*
X118527Y241005D01*
X118675Y241085D01*
X119406Y241593D01*
X119450Y241635D01*
X119499Y241669D01*
X119537Y241720D01*
X119583Y241764D01*
X119610Y241816D01*
X120248Y242185D01*
X120263Y242198D01*
X120281Y242205D01*
X120357Y242275D01*
X120438Y242341D01*
X120448Y242358D01*
X120463Y242371D01*
X120513Y242461D01*
X120569Y242549D01*
X120573Y242569D01*
X120583Y242586D01*
X120602Y242688D01*
X120626Y242789D01*
X120624Y242808D01*
X120628Y242828D01*
X120613Y242930D01*
X120604Y243034D01*
X120596Y243052D01*
X120593Y243071D01*
X120526Y243225D01*
X86877Y301505D01*
X86834Y301558D01*
X86800Y301616D01*
X86757Y301652D01*
X86721Y301696D01*
X86664Y301731D01*
X86613Y301775D01*
X86560Y301797D01*
X86513Y301826D01*
X86447Y301842D01*
X86384Y301867D01*
X86306Y301876D01*
X86274Y301884D01*
X86253Y301882D01*
X86218Y301886D01*
X19821Y301886D01*
X19711Y301868D01*
X19601Y301853D01*
X19590Y301848D01*
X19579Y301846D01*
X19480Y301794D01*
X19380Y301745D01*
X19372Y301737D01*
X19361Y301731D01*
X19285Y301651D01*
X19205Y301572D01*
X19200Y301561D01*
X19192Y301553D01*
X19145Y301452D01*
X19095Y301352D01*
X19092Y301338D01*
X19088Y301330D01*
X19085Y301303D01*
X19063Y301187D01*
X19027Y300760D01*
X19029Y300737D01*
X19025Y300697D01*
X19025Y299923D01*
X19010Y299903D01*
X18993Y299846D01*
X18966Y299792D01*
X18958Y299751D01*
X18957Y299750D01*
X18957Y299749D01*
X18947Y299699D01*
X18938Y299668D01*
X18938Y299653D01*
X18933Y299628D01*
X18860Y298737D01*
X18862Y298708D01*
X18857Y298680D01*
X18872Y298586D01*
X18879Y298491D01*
X18890Y298465D01*
X18895Y298437D01*
X18939Y298340D01*
X18788Y297741D01*
X18785Y297709D01*
X18767Y297617D01*
X18716Y297008D01*
X18660Y296931D01*
X18598Y296859D01*
X18588Y296832D01*
X18571Y296809D01*
X18512Y296652D01*
X18261Y295661D01*
X18258Y295632D01*
X18249Y295605D01*
X18248Y295510D01*
X18240Y295416D01*
X18246Y295388D01*
X18246Y295359D01*
X18274Y295256D01*
X18026Y294691D01*
X18018Y294659D01*
X17985Y294572D01*
X17835Y293980D01*
X17834Y293979D01*
X17766Y293913D01*
X17694Y293852D01*
X17679Y293827D01*
X17658Y293807D01*
X17575Y293662D01*
X17164Y292725D01*
X17157Y292698D01*
X17143Y292673D01*
X17126Y292579D01*
X17103Y292487D01*
X17105Y292459D01*
X17100Y292430D01*
X17110Y292324D01*
X16772Y291807D01*
X16759Y291777D01*
X16712Y291697D01*
X16467Y291137D01*
X16466Y291137D01*
X16389Y291083D01*
X16307Y291034D01*
X16288Y291013D01*
X16265Y290996D01*
X16158Y290867D01*
X15599Y290011D01*
X15587Y289984D01*
X15569Y289962D01*
X15537Y289872D01*
X15499Y289786D01*
X15496Y289757D01*
X15487Y289730D01*
X15479Y289624D01*
X15061Y289170D01*
X15044Y289142D01*
X14984Y289070D01*
X14650Y288559D01*
X14649Y288559D01*
X14564Y288518D01*
X14475Y288484D01*
X14453Y288465D01*
X14427Y288453D01*
X14301Y288343D01*
X13608Y287591D01*
X13592Y287567D01*
X13571Y287547D01*
X13525Y287464D01*
X13473Y287385D01*
X13465Y287357D01*
X13451Y287332D01*
X13427Y287228D01*
X12940Y286849D01*
X12917Y286825D01*
X12847Y286764D01*
X12433Y286315D01*
X12432Y286315D01*
X12341Y286289D01*
X12248Y286269D01*
X12224Y286255D01*
X12196Y286247D01*
X12053Y286159D01*
X11246Y285531D01*
X11227Y285510D01*
X11202Y285494D01*
X11143Y285420D01*
X11079Y285351D01*
X11067Y285324D01*
X11049Y285302D01*
X11008Y285204D01*
X10465Y284910D01*
X10439Y284890D01*
X10359Y284841D01*
X9877Y284466D01*
X9783Y284455D01*
X9688Y284452D01*
X9661Y284441D01*
X9632Y284438D01*
X9477Y284375D01*
X8577Y283888D01*
X8555Y283871D01*
X8528Y283859D01*
X8458Y283796D01*
X8383Y283738D01*
X8367Y283714D01*
X8346Y283695D01*
X8288Y283605D01*
X7705Y283404D01*
X7676Y283389D01*
X7589Y283354D01*
X7052Y283063D01*
X7051Y283063D01*
X6957Y283068D01*
X6862Y283080D01*
X6834Y283075D01*
X6806Y283076D01*
X6642Y283040D01*
X5675Y282707D01*
X5649Y282694D01*
X5622Y282687D01*
X5542Y282636D01*
X5458Y282591D01*
X5438Y282570D01*
X5414Y282555D01*
X5343Y282475D01*
X4734Y282374D01*
X4703Y282363D01*
X4612Y282343D01*
X4035Y282144D01*
X4034Y282145D01*
X3941Y282165D01*
X3850Y282193D01*
X3822Y282192D01*
X3794Y282198D01*
X3626Y282189D01*
X2617Y282020D01*
X2590Y282011D01*
X2562Y282009D01*
X2474Y281972D01*
X2385Y281941D01*
X2362Y281924D01*
X2335Y281913D01*
X2252Y281846D01*
X1635Y281846D01*
X1603Y281841D01*
X1509Y281835D01*
X907Y281735D01*
X906Y281735D01*
X818Y281771D01*
X733Y281813D01*
X705Y281817D01*
X678Y281827D01*
X511Y281846D01*
X-511Y281846D01*
X-540Y281841D01*
X-568Y281844D01*
X-661Y281821D01*
X-754Y281806D01*
X-779Y281793D01*
X-807Y281786D01*
X-901Y281734D01*
X-1509Y281835D01*
X-1542Y281836D01*
X-1635Y281846D01*
X-2246Y281846D01*
X-2327Y281896D01*
X-2404Y281951D01*
X-2432Y281960D01*
X-2456Y281975D01*
X-2617Y282020D01*
X-3626Y282189D01*
X-3655Y282189D01*
X-3683Y282196D01*
X-3777Y282189D01*
X-3872Y282189D01*
X-3899Y282180D01*
X-3928Y282178D01*
X-4029Y282142D01*
X-4612Y282343D01*
X-4644Y282348D01*
X-4734Y282374D01*
X-5337Y282474D01*
X-5337Y282475D01*
X-5409Y282537D01*
X-5476Y282604D01*
X-5501Y282617D01*
X-5523Y282636D01*
X-5675Y282707D01*
X-6642Y283040D01*
X-6670Y283044D01*
X-6696Y283056D01*
X-6791Y283065D01*
X-6885Y283081D01*
X-6913Y283076D01*
X-6941Y283079D01*
X-7047Y283060D01*
X-7589Y283354D01*
X-7620Y283365D01*
X-7705Y283404D01*
X-8282Y283603D01*
X-8283Y283603D01*
X-8343Y283676D01*
X-8398Y283754D01*
X-8421Y283771D01*
X-8440Y283793D01*
X-8577Y283888D01*
X-9477Y284375D01*
X-9504Y284385D01*
X-9528Y284400D01*
X-9620Y284425D01*
X-9709Y284456D01*
X-9738Y284456D01*
X-9766Y284463D01*
X-9872Y284462D01*
X-10359Y284841D01*
X-10388Y284857D01*
X-10465Y284910D01*
X-11002Y285201D01*
X-11050Y285283D01*
X-11091Y285369D01*
X-11111Y285389D01*
X-11126Y285414D01*
X-11246Y285531D01*
X-12053Y286159D01*
X-12078Y286173D01*
X-12099Y286192D01*
X-12186Y286232D01*
X-12269Y286277D01*
X-12297Y286282D01*
X-12323Y286294D01*
X-12484Y286318D01*
X-12507Y286336D01*
X-12541Y286348D01*
X-12571Y286368D01*
X-12656Y286389D01*
X-12739Y286418D01*
X-12775Y286419D01*
X-12810Y286428D01*
X-12897Y286421D01*
X-12985Y286422D01*
X-13019Y286411D01*
X-13055Y286408D01*
X-13136Y286374D01*
X-13219Y286347D01*
X-13248Y286326D01*
X-13281Y286312D01*
X-13412Y286207D01*
X-46449Y253171D01*
X-46502Y253097D01*
X-46561Y253027D01*
X-46574Y252997D01*
X-46592Y252971D01*
X-46619Y252884D01*
X-46653Y252799D01*
X-46658Y252758D01*
X-46665Y252736D01*
X-46664Y252704D01*
X-46672Y252632D01*
X-46672Y236243D01*
X-46664Y236196D01*
X-46666Y236148D01*
X-46644Y236075D01*
X-46632Y236000D01*
X-46610Y235958D01*
X-46596Y235912D01*
X-46552Y235850D01*
X-46517Y235783D01*
X-46482Y235750D01*
X-46455Y235711D01*
X-46394Y235666D01*
X-46339Y235614D01*
X-46295Y235593D01*
X-46256Y235565D01*
X-46184Y235542D01*
X-46116Y235510D01*
X-46068Y235505D01*
X-46022Y235490D01*
X-45946Y235491D01*
X-45871Y235483D01*
X-45824Y235493D01*
X-45776Y235494D01*
X-45705Y235519D01*
X-45631Y235535D01*
X-45590Y235560D01*
X-45544Y235576D01*
X-45485Y235623D01*
X-45420Y235661D01*
X-45388Y235698D01*
X-45351Y235727D01*
X-45274Y235831D01*
X-45260Y235848D01*
X-45257Y235855D01*
X-45251Y235863D01*
X-42424Y240759D01*
X-35106Y242720D01*
X-28546Y238932D01*
X-26585Y231615D01*
X-30373Y225054D01*
X-37691Y223093D01*
X-44251Y226881D01*
X-45175Y230329D01*
X-45185Y230351D01*
X-45189Y230375D01*
X-45235Y230463D01*
X-45276Y230554D01*
X-45293Y230571D01*
X-45304Y230592D01*
X-45376Y230661D01*
X-45444Y230734D01*
X-45465Y230745D01*
X-45482Y230762D01*
X-45573Y230804D01*
X-45660Y230851D01*
X-45684Y230855D01*
X-45706Y230865D01*
X-45804Y230876D01*
X-45902Y230894D01*
X-45926Y230890D01*
X-45950Y230893D01*
X-46047Y230871D01*
X-46145Y230856D01*
X-46167Y230845D01*
X-46190Y230840D01*
X-46276Y230789D01*
X-46364Y230744D01*
X-46381Y230726D01*
X-46401Y230714D01*
X-46466Y230638D01*
X-46535Y230567D01*
X-46546Y230545D01*
X-46561Y230527D01*
X-46599Y230435D01*
X-46641Y230345D01*
X-46644Y230321D01*
X-46653Y230299D01*
X-46672Y230132D01*
X-46672Y220507D01*
X-46661Y220441D01*
X-46660Y220373D01*
X-46641Y220320D01*
X-46632Y220265D01*
X-46600Y220205D01*
X-46578Y220141D01*
X-46543Y220097D01*
X-46517Y220047D01*
X-46468Y220001D01*
X-46426Y219947D01*
X-46362Y219901D01*
X-46339Y219878D01*
X-46320Y219869D01*
X-46291Y219848D01*
X-41246Y216935D01*
X-39285Y209618D01*
X-43073Y203057D01*
X-50391Y201096D01*
X-56951Y204884D01*
X-58912Y212202D01*
X-55124Y218762D01*
X-52317Y219514D01*
X-52278Y219532D01*
X-52235Y219542D01*
X-52166Y219583D01*
X-52093Y219616D01*
X-52061Y219645D01*
X-52024Y219668D01*
X-51972Y219729D01*
X-51913Y219783D01*
X-51892Y219821D01*
X-51864Y219855D01*
X-51834Y219929D01*
X-51796Y219999D01*
X-51788Y220042D01*
X-51772Y220083D01*
X-51756Y220228D01*
X-51753Y220241D01*
X-51754Y220245D01*
X-51753Y220250D01*
X-51753Y255052D01*
X-50042Y256764D01*
X-16591Y290214D01*
X-16590Y290216D01*
X-16589Y290217D01*
X-16516Y290319D01*
X-16448Y290414D01*
X-16447Y290416D01*
X-16446Y290417D01*
X-16411Y290535D01*
X-16375Y290649D01*
X-16375Y290651D01*
X-16375Y290652D01*
X-16379Y290773D01*
X-16382Y290895D01*
X-16382Y290897D01*
X-16382Y290898D01*
X-16433Y291058D01*
X-16712Y291697D01*
X-16730Y291724D01*
X-16772Y291807D01*
X-17107Y292319D01*
X-17106Y292319D01*
X-17109Y292414D01*
X-17105Y292509D01*
X-17113Y292537D01*
X-17114Y292565D01*
X-17164Y292725D01*
X-17575Y293662D01*
X-17590Y293686D01*
X-17599Y293713D01*
X-17657Y293789D01*
X-17708Y293868D01*
X-17731Y293886D01*
X-17748Y293909D01*
X-17833Y293973D01*
X-17985Y294572D01*
X-17998Y294602D01*
X-18026Y294691D01*
X-18271Y295250D01*
X-18271Y295251D01*
X-18258Y295345D01*
X-18238Y295438D01*
X-18242Y295466D01*
X-18238Y295495D01*
X-18261Y295661D01*
X-18512Y296652D01*
X-18523Y296679D01*
X-18528Y296707D01*
X-18572Y296791D01*
X-18610Y296878D01*
X-18629Y296899D01*
X-18643Y296924D01*
X-18716Y297002D01*
X-18767Y297617D01*
X-18775Y297649D01*
X-18788Y297741D01*
X-18938Y298333D01*
X-18937Y298334D01*
X-18909Y298425D01*
X-18874Y298513D01*
X-18873Y298542D01*
X-18864Y298569D01*
X-18860Y298737D01*
X-18933Y299628D01*
X-18948Y299686D01*
X-18953Y299746D01*
X-18978Y299804D01*
X-18980Y299815D01*
X-18983Y299825D01*
X-18983Y299826D01*
X-18993Y299866D01*
X-19025Y299915D01*
X-19025Y300697D01*
X-19028Y300720D01*
X-19027Y300760D01*
X-19063Y301187D01*
X-19090Y301295D01*
X-19113Y301404D01*
X-19120Y301415D01*
X-19122Y301426D01*
X-19182Y301520D01*
X-19240Y301616D01*
X-19249Y301623D01*
X-19255Y301633D01*
X-19342Y301703D01*
X-19427Y301775D01*
X-19438Y301780D01*
X-19447Y301787D01*
X-19551Y301826D01*
X-19655Y301867D01*
X-19669Y301869D01*
X-19678Y301872D01*
X-19705Y301873D01*
X-19821Y301886D01*
X-86980Y301886D01*
X-87046Y301875D01*
X-87114Y301874D01*
X-87167Y301855D01*
X-87223Y301846D01*
X-87282Y301815D01*
X-87346Y301792D01*
X-87390Y301757D01*
X-87440Y301731D01*
X-87486Y301682D01*
X-87540Y301640D01*
X-87587Y301577D01*
X-87609Y301553D01*
X-87618Y301534D01*
X-87639Y301505D01*
X-121072Y243599D01*
X-121111Y243496D01*
X-121154Y243393D01*
X-121154Y243380D01*
X-121159Y243369D01*
X-121163Y243258D01*
X-121170Y243147D01*
X-121167Y243136D01*
X-121168Y243123D01*
X-121136Y243016D01*
X-121108Y242909D01*
X-121101Y242899D01*
X-121098Y242887D01*
X-121034Y242796D01*
X-120995Y242737D01*
X-120986Y242722D01*
X-120984Y242720D01*
X-120973Y242704D01*
X-120962Y242694D01*
X-120957Y242686D01*
X-120935Y242670D01*
X-120847Y242593D01*
X-120340Y242241D01*
X-120319Y242231D01*
X-120287Y242208D01*
X-119617Y241820D01*
X-119607Y241798D01*
X-119566Y241754D01*
X-119533Y241703D01*
X-119461Y241641D01*
X-119439Y241617D01*
X-119425Y241610D01*
X-119406Y241593D01*
X-118675Y241085D01*
X-118649Y241073D01*
X-118627Y241054D01*
X-118538Y241020D01*
X-118453Y240979D01*
X-118424Y240976D01*
X-118397Y240965D01*
X-118291Y240955D01*
X-117849Y240524D01*
X-117822Y240506D01*
X-117752Y240444D01*
X-117250Y240096D01*
X-117250Y240095D01*
X-117212Y240008D01*
X-117180Y239919D01*
X-117162Y239896D01*
X-117151Y239870D01*
X-117044Y239741D01*
X-116314Y239029D01*
X-116290Y239013D01*
X-116272Y238991D01*
X-116190Y238943D01*
X-116112Y238888D01*
X-116085Y238880D01*
X-116060Y238866D01*
X-115957Y238838D01*
X-115592Y238340D01*
X-115569Y238317D01*
X-115509Y238245D01*
X-115072Y237819D01*
X-115072Y237818D01*
X-115048Y237726D01*
X-115032Y237633D01*
X-115024Y237618D01*
X-115021Y237604D01*
X-115014Y237594D01*
X-115011Y237580D01*
X-114927Y237435D01*
X-114324Y236613D01*
X-114303Y236593D01*
X-114289Y236568D01*
X-114216Y236507D01*
X-114148Y236441D01*
X-114122Y236428D01*
X-114101Y236410D01*
X-114003Y236365D01*
X-113725Y235814D01*
X-113706Y235788D01*
X-113659Y235707D01*
X-113298Y235215D01*
X-113298Y235214D01*
X-113290Y235119D01*
X-113289Y235024D01*
X-113280Y234997D01*
X-113277Y234969D01*
X-113218Y234812D01*
X-112759Y233902D01*
X-112742Y233878D01*
X-112731Y233852D01*
X-112670Y233780D01*
X-112614Y233703D01*
X-112590Y233686D01*
X-112572Y233665D01*
X-112483Y233605D01*
X-112299Y233016D01*
X-112285Y232986D01*
X-112252Y232899D01*
X-111977Y232354D01*
X-111977Y232353D01*
X-111985Y232258D01*
X-111999Y232165D01*
X-111994Y232137D01*
X-111997Y232108D01*
X-111965Y231943D01*
X-111661Y230970D01*
X-111648Y230944D01*
X-111642Y230916D01*
X-111593Y230835D01*
X-111551Y230750D01*
X-111530Y230730D01*
X-111516Y230705D01*
X-111438Y230632D01*
X-111354Y230020D01*
X-111344Y229989D01*
X-111326Y229898D01*
X-111144Y229314D01*
X-111145Y229314D01*
X-111168Y229222D01*
X-111198Y229132D01*
X-111198Y229103D01*
X-111205Y229075D01*
X-111200Y228908D01*
X-111061Y227898D01*
X-111052Y227870D01*
X-111051Y227842D01*
X-111016Y227753D01*
X-110988Y227663D01*
X-110972Y227639D01*
X-110961Y227613D01*
X-110897Y227527D01*
X-110914Y226910D01*
X-110910Y226878D01*
X-110907Y226785D01*
X-110824Y226180D01*
X-110824Y226179D01*
X-110862Y226092D01*
X-110907Y226008D01*
X-110911Y225980D01*
X-110923Y225953D01*
X-110946Y225787D01*
X-110950Y225636D01*
X-110946Y225605D01*
X-110949Y225575D01*
X-110930Y225484D01*
X-110917Y225392D01*
X-110904Y225365D01*
X-110897Y225335D01*
X-110849Y225255D01*
X-110808Y225172D01*
X-110787Y225150D01*
X-110771Y225124D01*
X-110700Y225063D01*
X-110635Y224997D01*
X-110607Y224984D01*
X-110584Y224964D01*
X-110498Y224929D01*
X-110415Y224887D01*
X-110384Y224883D01*
X-110356Y224872D01*
X-110189Y224853D01*
X-94146Y224853D01*
X-66742Y197449D01*
X-66687Y197410D01*
X-66639Y197363D01*
X-66588Y197338D01*
X-66542Y197306D01*
X-66478Y197286D01*
X-66417Y197257D01*
X-66361Y197250D01*
X-66307Y197233D01*
X-66240Y197235D01*
X-66173Y197227D01*
X-66094Y197239D01*
X-66061Y197240D01*
X-66042Y197247D01*
X-66007Y197252D01*
X-60506Y198726D01*
X-53946Y194938D01*
X-51985Y187620D01*
X-55773Y181060D01*
X-63091Y179099D01*
X-69651Y182887D01*
X-71612Y190205D01*
X-70100Y192823D01*
X-70085Y192864D01*
X-70061Y192901D01*
X-70041Y192978D01*
X-70013Y193053D01*
X-70012Y193097D01*
X-70001Y193139D01*
X-70007Y193219D01*
X-70004Y193299D01*
X-70017Y193341D01*
X-70020Y193385D01*
X-70051Y193458D01*
X-70074Y193535D01*
X-70099Y193571D01*
X-70116Y193611D01*
X-70207Y193725D01*
X-70215Y193736D01*
X-70218Y193738D01*
X-70221Y193742D01*
X-96028Y219549D01*
X-96102Y219602D01*
X-96171Y219661D01*
X-96202Y219674D01*
X-96228Y219692D01*
X-96315Y219719D01*
X-96400Y219753D01*
X-96440Y219758D01*
X-96463Y219765D01*
X-96495Y219764D01*
X-96566Y219772D01*
X-111402Y219772D01*
X-111409Y219771D01*
X-111415Y219772D01*
X-111530Y219751D01*
X-111645Y219732D01*
X-111651Y219729D01*
X-111657Y219728D01*
X-111759Y219671D01*
X-111862Y219617D01*
X-111867Y219612D01*
X-111873Y219609D01*
X-111952Y219523D01*
X-112031Y219439D01*
X-112034Y219433D01*
X-112039Y219428D01*
X-112115Y219278D01*
X-112339Y218680D01*
X-112345Y218652D01*
X-112357Y218626D01*
X-112369Y218532D01*
X-112387Y218439D01*
X-112384Y218410D01*
X-112387Y218382D01*
X-112371Y218276D01*
X-112680Y217742D01*
X-112691Y217711D01*
X-112734Y217628D01*
X-112948Y217056D01*
X-112949Y217056D01*
X-113024Y216997D01*
X-113103Y216945D01*
X-113120Y216922D01*
X-113143Y216904D01*
X-113242Y216769D01*
X-113753Y215887D01*
X-113763Y215860D01*
X-113779Y215836D01*
X-113806Y215746D01*
X-113840Y215657D01*
X-113841Y215628D01*
X-113849Y215601D01*
X-113850Y215494D01*
X-114243Y215018D01*
X-114259Y214990D01*
X-114315Y214914D01*
X-114621Y214385D01*
X-114622Y214385D01*
X-114705Y214340D01*
X-114791Y214301D01*
X-114812Y214281D01*
X-114838Y214268D01*
X-114958Y214151D01*
X-115607Y213364D01*
X-115621Y213340D01*
X-115641Y213319D01*
X-115683Y213234D01*
X-115730Y213152D01*
X-115736Y213124D01*
X-115749Y213098D01*
X-115768Y212993D01*
X-116234Y212588D01*
X-116254Y212563D01*
X-116321Y212498D01*
X-116710Y212026D01*
X-116711Y212026D01*
X-116800Y211995D01*
X-116892Y211971D01*
X-116916Y211955D01*
X-116943Y211946D01*
X-117081Y211851D01*
X-117850Y211181D01*
X-117869Y211159D01*
X-117892Y211143D01*
X-117947Y211065D01*
X-118007Y210992D01*
X-118018Y210965D01*
X-118034Y210942D01*
X-118071Y210842D01*
X-118597Y210519D01*
X-118621Y210497D01*
X-118698Y210444D01*
X-119159Y210043D01*
X-119160Y210043D01*
X-119253Y210028D01*
X-119348Y210019D01*
X-119374Y210007D01*
X-119402Y210002D01*
X-119554Y209931D01*
X-120423Y209398D01*
X-120445Y209379D01*
X-120470Y209366D01*
X-120537Y209299D01*
X-120609Y209237D01*
X-120624Y209212D01*
X-120644Y209192D01*
X-120696Y209099D01*
X-121268Y208867D01*
X-121296Y208850D01*
X-121380Y208810D01*
X-121901Y208490D01*
X-121902Y208491D01*
X-121997Y208491D01*
X-122091Y208497D01*
X-122119Y208490D01*
X-122148Y208490D01*
X-122309Y208445D01*
X-123254Y208062D01*
X-123278Y208047D01*
X-123306Y208038D01*
X-123383Y207983D01*
X-123464Y207934D01*
X-123482Y207912D01*
X-123506Y207895D01*
X-123573Y207812D01*
X-124175Y207677D01*
X-124205Y207665D01*
X-124295Y207640D01*
X-124861Y207410D01*
X-124862Y207411D01*
X-124956Y207426D01*
X-125048Y207448D01*
X-125076Y207446D01*
X-125105Y207451D01*
X-125271Y207432D01*
X-126266Y207210D01*
X-126293Y207199D01*
X-126321Y207195D01*
X-126406Y207154D01*
X-126495Y207118D01*
X-126516Y207100D01*
X-126542Y207087D01*
X-126622Y207016D01*
X-127238Y206982D01*
X-127270Y206975D01*
X-127363Y206965D01*
X-127959Y206832D01*
X-128049Y206863D01*
X-128137Y206900D01*
X-128165Y206902D01*
X-128192Y206912D01*
X-128360Y206921D01*
X-129378Y206866D01*
X-129406Y206859D01*
X-129434Y206860D01*
X-129525Y206833D01*
X-129618Y206813D01*
X-129642Y206798D01*
X-129670Y206790D01*
X-129760Y206733D01*
X-130374Y206801D01*
X-130406Y206799D01*
X-130499Y206804D01*
X-131109Y206771D01*
X-131110Y206772D01*
X-131194Y206817D01*
X-131274Y206868D01*
X-131301Y206875D01*
X-131327Y206888D01*
X-131490Y206925D01*
X-132503Y207038D01*
X-132532Y207036D01*
X-132560Y207042D01*
X-132654Y207030D01*
X-132749Y207025D01*
X-132776Y207015D01*
X-132804Y207011D01*
X-132903Y206970D01*
X-133497Y207138D01*
X-133529Y207142D01*
X-133620Y207162D01*
X-134227Y207230D01*
X-134227Y207231D01*
X-134302Y207289D01*
X-134373Y207352D01*
X-134399Y207364D01*
X-134422Y207381D01*
X-134577Y207444D01*
X-135558Y207723D01*
X-135587Y207726D01*
X-135613Y207736D01*
X-135708Y207740D01*
X-135802Y207751D01*
X-135830Y207745D01*
X-135859Y207746D01*
X-135963Y207721D01*
X-136521Y207985D01*
X-136552Y207994D01*
X-136639Y208029D01*
X-137227Y208196D01*
X-137291Y208266D01*
X-137350Y208340D01*
X-137374Y208356D01*
X-137394Y208377D01*
X-137537Y208465D01*
X-138342Y208846D01*
X-138400Y208862D01*
X-138454Y208888D01*
X-138517Y208896D01*
X-138578Y208913D01*
X-138637Y208911D01*
X-139314Y209302D01*
X-139335Y209310D01*
X-139369Y209331D01*
X-139904Y209584D01*
X-140011Y209615D01*
X-140118Y209649D01*
X-140129Y209649D01*
X-140140Y209652D01*
X-140252Y209647D01*
X-140364Y209645D01*
X-140374Y209641D01*
X-140386Y209641D01*
X-140491Y209600D01*
X-140595Y209563D01*
X-140605Y209556D01*
X-140615Y209552D01*
X-140701Y209480D01*
X-140789Y209411D01*
X-140797Y209400D01*
X-140804Y209394D01*
X-140819Y209372D01*
X-140889Y209276D01*
X-174240Y151511D01*
X-174264Y151447D01*
X-174297Y151388D01*
X-174307Y151333D01*
X-174327Y151281D01*
X-174330Y151213D01*
X-174342Y151147D01*
X-174334Y151091D01*
X-174336Y151035D01*
X-174317Y150970D01*
X-174308Y150903D01*
X-174276Y150831D01*
X-174267Y150799D01*
X-174255Y150782D01*
X-174240Y150749D01*
X-140601Y92485D01*
X-140530Y92399D01*
X-140462Y92310D01*
X-140452Y92303D01*
X-140445Y92294D01*
X-140350Y92235D01*
X-140257Y92173D01*
X-140246Y92170D01*
X-140236Y92164D01*
X-140128Y92138D01*
X-140020Y92108D01*
X-140009Y92109D01*
X-139997Y92106D01*
X-139886Y92116D01*
X-139775Y92123D01*
X-139761Y92127D01*
X-139752Y92128D01*
X-139728Y92139D01*
X-139616Y92177D01*
X-139369Y92294D01*
X-139350Y92307D01*
X-139314Y92323D01*
X-138644Y92710D01*
X-138619Y92708D01*
X-138561Y92721D01*
X-138501Y92725D01*
X-138411Y92756D01*
X-138379Y92763D01*
X-138366Y92771D01*
X-138342Y92779D01*
X-137537Y93160D01*
X-137513Y93176D01*
X-137486Y93186D01*
X-137412Y93246D01*
X-137334Y93300D01*
X-137317Y93323D01*
X-137295Y93341D01*
X-137233Y93428D01*
X-136639Y93596D01*
X-136609Y93610D01*
X-136521Y93640D01*
X-135969Y93901D01*
X-135968Y93901D01*
X-135874Y93891D01*
X-135780Y93874D01*
X-135752Y93878D01*
X-135724Y93875D01*
X-135558Y93902D01*
X-134577Y94181D01*
X-134551Y94193D01*
X-134523Y94198D01*
X-134440Y94245D01*
X-134355Y94285D01*
X-134334Y94305D01*
X-134309Y94319D01*
X-134233Y94394D01*
X-133620Y94463D01*
X-133589Y94471D01*
X-133497Y94487D01*
X-132909Y94654D01*
X-132908Y94653D01*
X-132817Y94628D01*
X-132728Y94595D01*
X-132699Y94595D01*
X-132671Y94587D01*
X-132503Y94587D01*
X-131490Y94700D01*
X-131463Y94708D01*
X-131434Y94708D01*
X-131345Y94741D01*
X-131253Y94766D01*
X-131230Y94782D01*
X-131203Y94792D01*
X-131116Y94854D01*
X-130499Y94821D01*
X-130467Y94824D01*
X-130374Y94824D01*
X-129767Y94892D01*
X-129766Y94891D01*
X-129749Y94883D01*
X-129745Y94880D01*
X-129719Y94869D01*
X-129680Y94851D01*
X-129597Y94805D01*
X-129569Y94799D01*
X-129543Y94787D01*
X-129378Y94759D01*
X-128360Y94704D01*
X-128331Y94707D01*
X-128303Y94703D01*
X-128210Y94720D01*
X-128115Y94730D01*
X-128089Y94742D01*
X-128061Y94748D01*
X-127965Y94795D01*
X-127368Y94661D01*
X-127265Y94655D01*
X-127163Y94644D01*
X-127143Y94648D01*
X-127122Y94647D01*
X-127023Y94674D01*
X-126922Y94696D01*
X-126905Y94707D01*
X-126885Y94712D01*
X-126800Y94769D01*
X-126711Y94822D01*
X-126698Y94838D01*
X-126681Y94849D01*
X-126618Y94931D01*
X-126551Y95009D01*
X-126544Y95028D01*
X-126531Y95044D01*
X-126498Y95142D01*
X-126459Y95237D01*
X-126456Y95262D01*
X-126451Y95277D01*
X-126451Y95309D01*
X-126441Y95404D01*
X-126441Y124689D01*
X-92767Y158362D01*
X-86960Y158362D01*
X-86870Y158377D01*
X-86779Y158384D01*
X-86750Y158397D01*
X-86718Y158402D01*
X-86637Y158445D01*
X-86553Y158480D01*
X-86521Y158506D01*
X-86500Y158517D01*
X-86478Y158540D01*
X-86422Y158585D01*
X-83035Y161972D01*
X-82996Y162027D01*
X-82949Y162075D01*
X-82924Y162126D01*
X-82892Y162172D01*
X-82872Y162236D01*
X-82843Y162297D01*
X-82836Y162353D01*
X-82819Y162407D01*
X-82821Y162474D01*
X-82813Y162541D01*
X-82825Y162620D01*
X-82826Y162653D01*
X-82833Y162672D01*
X-82838Y162707D01*
X-84312Y168207D01*
X-80524Y174768D01*
X-73206Y176729D01*
X-66646Y172941D01*
X-64685Y165623D01*
X-68473Y159063D01*
X-75791Y157102D01*
X-78409Y158614D01*
X-78450Y158629D01*
X-78487Y158653D01*
X-78560Y158671D01*
X-78620Y158696D01*
X-78628Y158697D01*
X-78639Y158701D01*
X-78680Y158702D01*
X-78685Y158703D01*
X-78725Y158713D01*
X-78756Y158711D01*
X-78787Y158714D01*
X-78791Y158714D01*
X-78830Y158708D01*
X-78885Y158710D01*
X-78927Y158697D01*
X-78971Y158694D01*
X-79006Y158679D01*
X-79034Y158674D01*
X-79071Y158655D01*
X-79121Y158640D01*
X-79157Y158615D01*
X-79197Y158598D01*
X-79232Y158570D01*
X-79251Y158559D01*
X-79272Y158537D01*
X-79311Y158507D01*
X-79322Y158499D01*
X-79324Y158496D01*
X-79328Y158493D01*
X-83419Y154402D01*
X-83488Y154306D01*
X-83559Y154210D01*
X-83560Y154206D01*
X-83562Y154202D01*
X-83597Y154090D01*
X-83633Y153975D01*
X-83633Y153971D01*
X-83635Y153967D01*
X-83632Y153849D01*
X-83630Y153730D01*
X-83628Y153726D01*
X-83628Y153721D01*
X-83587Y153609D01*
X-83548Y153498D01*
X-83545Y153494D01*
X-83544Y153490D01*
X-83470Y153398D01*
X-83396Y153304D01*
X-83392Y153301D01*
X-83390Y153298D01*
X-83379Y153291D01*
X-83261Y153205D01*
X-79346Y150944D01*
X-77385Y143626D01*
X-81173Y137066D01*
X-88491Y135105D01*
X-95051Y138893D01*
X-96823Y145505D01*
X-96862Y145592D01*
X-96895Y145682D01*
X-96913Y145704D01*
X-96924Y145729D01*
X-96989Y145799D01*
X-97049Y145874D01*
X-97072Y145889D01*
X-97092Y145910D01*
X-97175Y145955D01*
X-97256Y146007D01*
X-97283Y146013D01*
X-97308Y146027D01*
X-97402Y146043D01*
X-97494Y146067D01*
X-97522Y146064D01*
X-97550Y146069D01*
X-97644Y146055D01*
X-97739Y146048D01*
X-97765Y146036D01*
X-97793Y146032D01*
X-97878Y145989D01*
X-97966Y145951D01*
X-97993Y145929D01*
X-98012Y145920D01*
X-98035Y145896D01*
X-98097Y145846D01*
X-121136Y122807D01*
X-121189Y122733D01*
X-121249Y122663D01*
X-121261Y122633D01*
X-121280Y122607D01*
X-121307Y122520D01*
X-121341Y122435D01*
X-121345Y122394D01*
X-121352Y122372D01*
X-121351Y122340D01*
X-121359Y122268D01*
X-121359Y93308D01*
X-121340Y93189D01*
X-121322Y93072D01*
X-121320Y93069D01*
X-121320Y93065D01*
X-121264Y92960D01*
X-121208Y92853D01*
X-121206Y92851D01*
X-121204Y92848D01*
X-121118Y92766D01*
X-121032Y92682D01*
X-121028Y92680D01*
X-121026Y92679D01*
X-121016Y92674D01*
X-120884Y92603D01*
X-120702Y92529D01*
X-120702Y92528D01*
X-120645Y92452D01*
X-120595Y92371D01*
X-120572Y92353D01*
X-120555Y92330D01*
X-120423Y92227D01*
X-119554Y91694D01*
X-119528Y91683D01*
X-119504Y91666D01*
X-119414Y91637D01*
X-119326Y91601D01*
X-119298Y91599D01*
X-119270Y91590D01*
X-119164Y91586D01*
X-118698Y91181D01*
X-118670Y91164D01*
X-118597Y91106D01*
X-118076Y90787D01*
X-118076Y90786D01*
X-118033Y90701D01*
X-117996Y90614D01*
X-117977Y90592D01*
X-117964Y90567D01*
X-117850Y90444D01*
X-117081Y89774D01*
X-117057Y89759D01*
X-117037Y89739D01*
X-116953Y89695D01*
X-116872Y89645D01*
X-116844Y89639D01*
X-116819Y89625D01*
X-116714Y89604D01*
X-116321Y89127D01*
X-116297Y89106D01*
X-116234Y89037D01*
X-115773Y88636D01*
X-115744Y88545D01*
X-115722Y88453D01*
X-115707Y88428D01*
X-115698Y88401D01*
X-115607Y88261D01*
X-114958Y87474D01*
X-114936Y87455D01*
X-114920Y87432D01*
X-114844Y87375D01*
X-114773Y87312D01*
X-114746Y87301D01*
X-114723Y87284D01*
X-114624Y87245D01*
X-114315Y86711D01*
X-114294Y86685D01*
X-114243Y86607D01*
X-113855Y86136D01*
X-113855Y86135D01*
X-113841Y86041D01*
X-113835Y85947D01*
X-113824Y85920D01*
X-113820Y85892D01*
X-113753Y85738D01*
X-113242Y84856D01*
X-113224Y84834D01*
X-113212Y84808D01*
X-113146Y84739D01*
X-113086Y84665D01*
X-113062Y84650D01*
X-113042Y84629D01*
X-112950Y84575D01*
X-112734Y83997D01*
X-112717Y83969D01*
X-112680Y83883D01*
X-112374Y83354D01*
X-112377Y83259D01*
X-112386Y83164D01*
X-112380Y83136D01*
X-112380Y83108D01*
X-112339Y82945D01*
X-111981Y81991D01*
X-111967Y81966D01*
X-111959Y81938D01*
X-111906Y81860D01*
X-111859Y81777D01*
X-111837Y81758D01*
X-111821Y81735D01*
X-111739Y81666D01*
X-111621Y81060D01*
X-111609Y81029D01*
X-111586Y80939D01*
X-111372Y80367D01*
X-111372Y80366D01*
X-111390Y80273D01*
X-111415Y80181D01*
X-111413Y80153D01*
X-111419Y80125D01*
X-111405Y79957D01*
X-111208Y78957D01*
X-111199Y78930D01*
X-111195Y78902D01*
X-111156Y78815D01*
X-111123Y78726D01*
X-111105Y78704D01*
X-111093Y78678D01*
X-111024Y78597D01*
X-111006Y77979D01*
X-111000Y77948D01*
X-110992Y77854D01*
X-110875Y77255D01*
X-110875Y77254D01*
X-110908Y77165D01*
X-110948Y77079D01*
X-110951Y77051D01*
X-110961Y77024D01*
X-110975Y76857D01*
X-110946Y75838D01*
X-110940Y75809D01*
X-110942Y75781D01*
X-110917Y75689D01*
X-110899Y75596D01*
X-110885Y75571D01*
X-110878Y75543D01*
X-110823Y75452D01*
X-110907Y74840D01*
X-110906Y74808D01*
X-110914Y74715D01*
X-110897Y74104D01*
X-110898Y74103D01*
X-110945Y74021D01*
X-110998Y73942D01*
X-111006Y73915D01*
X-111020Y73890D01*
X-111061Y73727D01*
X-111200Y72717D01*
X-111200Y72689D01*
X-111206Y72661D01*
X-111196Y72567D01*
X-111194Y72472D01*
X-111184Y72445D01*
X-111181Y72416D01*
X-111142Y72317D01*
X-111326Y71727D01*
X-111331Y71695D01*
X-111354Y71605D01*
X-111437Y70999D01*
X-111438Y70999D01*
X-111498Y70926D01*
X-111563Y70857D01*
X-111576Y70831D01*
X-111594Y70809D01*
X-111661Y70655D01*
X-111965Y69682D01*
X-111969Y69653D01*
X-111980Y69627D01*
X-111986Y69532D01*
X-111999Y69438D01*
X-111994Y69410D01*
X-111996Y69381D01*
X-111974Y69277D01*
X-112252Y68726D01*
X-112262Y68695D01*
X-112299Y68609D01*
X-112481Y68026D01*
X-112482Y68026D01*
X-112542Y67974D01*
X-112547Y67971D01*
X-112556Y67961D01*
X-112629Y67906D01*
X-112645Y67883D01*
X-112667Y67864D01*
X-112707Y67802D01*
X-112717Y67792D01*
X-112724Y67776D01*
X-112759Y67723D01*
X-113218Y66813D01*
X-113227Y66786D01*
X-113242Y66762D01*
X-113264Y66669D01*
X-113292Y66579D01*
X-113292Y66550D01*
X-113298Y66522D01*
X-113294Y66415D01*
X-113659Y65918D01*
X-113674Y65889D01*
X-113725Y65811D01*
X-114000Y65265D01*
X-114001Y65265D01*
X-114082Y65215D01*
X-114166Y65171D01*
X-114186Y65151D01*
X-114210Y65136D01*
X-114324Y65012D01*
X-114927Y64190D01*
X-114940Y64165D01*
X-114959Y64143D01*
X-114996Y64056D01*
X-115039Y63971D01*
X-115043Y63943D01*
X-115054Y63916D01*
X-115067Y63810D01*
X-115509Y63380D01*
X-115529Y63354D01*
X-115592Y63285D01*
X-115953Y62792D01*
X-115954Y62792D01*
X-116040Y62757D01*
X-116041Y62757D01*
X-116043Y62756D01*
X-116132Y62727D01*
X-116155Y62710D01*
X-116182Y62699D01*
X-116247Y62648D01*
X-116258Y62642D01*
X-116269Y62631D01*
X-116314Y62596D01*
X-117044Y61884D01*
X-117061Y61861D01*
X-117084Y61843D01*
X-117134Y61763D01*
X-117190Y61687D01*
X-117199Y61659D01*
X-117215Y61635D01*
X-117245Y61533D01*
X-117752Y61181D01*
X-117775Y61158D01*
X-117849Y61101D01*
X-118287Y60674D01*
X-118380Y60653D01*
X-118474Y60639D01*
X-118499Y60626D01*
X-118527Y60620D01*
X-118675Y60540D01*
X-119406Y60032D01*
X-119450Y59990D01*
X-119499Y59956D01*
X-119537Y59905D01*
X-119583Y59861D01*
X-119610Y59809D01*
X-120287Y59418D01*
X-120304Y59403D01*
X-120340Y59384D01*
X-120585Y59213D01*
X-120665Y59136D01*
X-120747Y59061D01*
X-120753Y59051D01*
X-120762Y59042D01*
X-120813Y58944D01*
X-120867Y58846D01*
X-120869Y58835D01*
X-120875Y58824D01*
X-120892Y58713D01*
X-120912Y58605D01*
X-120910Y58593D01*
X-120912Y58581D01*
X-120893Y58471D01*
X-120877Y58361D01*
X-120872Y58348D01*
X-120870Y58338D01*
X-120857Y58315D01*
X-120810Y58208D01*
X-87639Y755D01*
X-87596Y703D01*
X-87562Y644D01*
X-87519Y608D01*
X-87483Y564D01*
X-87426Y529D01*
X-87375Y485D01*
X-87322Y464D01*
X-87275Y434D01*
X-87209Y418D01*
X-87146Y393D01*
X-87068Y384D01*
X-87036Y376D01*
X-87015Y378D01*
X-86980Y374D01*
X-86820Y374D01*
X-86764Y341D01*
X-86740Y337D01*
X-86722Y328D01*
X-86677Y326D01*
X-86600Y313D01*
X-67600Y313D01*
X-67572Y319D01*
G37*
G36*
X17029Y319D02*
X17029Y319D01*
X17058Y317D01*
X17125Y339D01*
X17195Y353D01*
X17219Y369D01*
X17247Y378D01*
X17300Y425D01*
X17359Y465D01*
X17375Y490D01*
X17397Y509D01*
X17428Y573D01*
X17466Y633D01*
X17471Y662D01*
X17483Y688D01*
X17492Y787D01*
X17499Y829D01*
X17496Y840D01*
X17498Y854D01*
X17266Y3652D01*
X17256Y3685D01*
X17252Y3733D01*
X16563Y6455D01*
X16548Y6486D01*
X16536Y6533D01*
X15408Y9104D01*
X15388Y9132D01*
X15369Y9177D01*
X13833Y11527D01*
X13809Y11552D01*
X13783Y11592D01*
X11881Y13658D01*
X11853Y13678D01*
X11820Y13714D01*
X9605Y15438D01*
X9574Y15454D01*
X9536Y15483D01*
X7066Y16820D01*
X7033Y16830D01*
X6991Y16853D01*
X5805Y17260D01*
X4351Y17759D01*
X4335Y17765D01*
X4301Y17769D01*
X4255Y17785D01*
X1486Y18247D01*
X1451Y18246D01*
X1404Y18254D01*
X-1404Y18254D01*
X-1438Y18247D01*
X-1486Y18247D01*
X-4255Y17785D01*
X-4288Y17772D01*
X-4335Y17765D01*
X-6991Y16853D01*
X-7021Y16835D01*
X-7066Y16820D01*
X-9536Y15483D01*
X-9562Y15461D01*
X-9605Y15438D01*
X-11820Y13714D01*
X-11843Y13687D01*
X-11881Y13658D01*
X-13783Y11592D01*
X-13801Y11563D01*
X-13833Y11527D01*
X-15369Y9177D01*
X-15382Y9144D01*
X-15408Y9104D01*
X-16536Y6533D01*
X-16543Y6499D01*
X-16546Y6493D01*
X-16552Y6484D01*
X-16553Y6478D01*
X-16563Y6455D01*
X-17252Y3733D01*
X-17254Y3698D01*
X-17266Y3652D01*
X-17498Y854D01*
X-17494Y825D01*
X-17499Y796D01*
X-17483Y727D01*
X-17474Y656D01*
X-17460Y631D01*
X-17453Y603D01*
X-17411Y545D01*
X-17376Y484D01*
X-17352Y466D01*
X-17335Y442D01*
X-17274Y406D01*
X-17217Y363D01*
X-17189Y356D01*
X-17164Y341D01*
X-17066Y324D01*
X-17025Y314D01*
X-17014Y316D01*
X-17000Y313D01*
X17000Y313D01*
X17029Y319D01*
G37*
G36*
X1438Y283378D02*
X1438Y283378D01*
X1486Y283378D01*
X4255Y283840D01*
X4288Y283853D01*
X4335Y283861D01*
X6991Y284772D01*
X7021Y284790D01*
X7066Y284805D01*
X9536Y286142D01*
X9562Y286164D01*
X9605Y286187D01*
X11820Y287911D01*
X11843Y287938D01*
X11881Y287967D01*
X13783Y290033D01*
X13801Y290062D01*
X13833Y290098D01*
X15369Y292448D01*
X15382Y292481D01*
X15408Y292521D01*
X16536Y295092D01*
X16543Y295126D01*
X16563Y295170D01*
X17252Y297892D01*
X17254Y297927D01*
X17266Y297973D01*
X17498Y300771D01*
X17494Y300800D01*
X17499Y300829D01*
X17483Y300898D01*
X17474Y300969D01*
X17460Y300994D01*
X17453Y301022D01*
X17411Y301080D01*
X17376Y301141D01*
X17352Y301159D01*
X17335Y301183D01*
X17274Y301219D01*
X17217Y301262D01*
X17189Y301269D01*
X17164Y301284D01*
X17066Y301301D01*
X17025Y301311D01*
X17014Y301309D01*
X17000Y301312D01*
X-17000Y301312D01*
X-17029Y301306D01*
X-17058Y301308D01*
X-17125Y301286D01*
X-17195Y301272D01*
X-17219Y301256D01*
X-17247Y301247D01*
X-17300Y301200D01*
X-17359Y301160D01*
X-17375Y301135D01*
X-17397Y301116D01*
X-17428Y301052D01*
X-17466Y300992D01*
X-17471Y300963D01*
X-17483Y300937D01*
X-17492Y300838D01*
X-17499Y300796D01*
X-17496Y300785D01*
X-17498Y300771D01*
X-17266Y297973D01*
X-17256Y297940D01*
X-17252Y297892D01*
X-16563Y295170D01*
X-16548Y295139D01*
X-16536Y295092D01*
X-15408Y292521D01*
X-15388Y292493D01*
X-15369Y292448D01*
X-13833Y290098D01*
X-13809Y290073D01*
X-13783Y290033D01*
X-11881Y287967D01*
X-11853Y287947D01*
X-11820Y287911D01*
X-9605Y286187D01*
X-9574Y286171D01*
X-9536Y286142D01*
X-7066Y284805D01*
X-7033Y284795D01*
X-6991Y284772D01*
X-4335Y283861D01*
X-4301Y283856D01*
X-4255Y283840D01*
X-1486Y283378D01*
X-1451Y283379D01*
X-1404Y283371D01*
X1404Y283371D01*
X1438Y283378D01*
G37*
G36*
X-121393Y60622D02*
X-121393Y60622D01*
X-121322Y60619D01*
X-121295Y60630D01*
X-121266Y60632D01*
X-121176Y60674D01*
X-121136Y60689D01*
X-121128Y60697D01*
X-121115Y60702D01*
X-118812Y62302D01*
X-118788Y62327D01*
X-118748Y62354D01*
X-116739Y64311D01*
X-116720Y64340D01*
X-116685Y64374D01*
X-115026Y66634D01*
X-115011Y66666D01*
X-114982Y66705D01*
X-113718Y69208D01*
X-113709Y69241D01*
X-113687Y69284D01*
X-112851Y71961D01*
X-112848Y71996D01*
X-112833Y72042D01*
X-112450Y74820D01*
X-112452Y74855D01*
X-112446Y74902D01*
X-112525Y77706D01*
X-112533Y77740D01*
X-112534Y77788D01*
X-113073Y80540D01*
X-113087Y80572D01*
X-113096Y80619D01*
X-114081Y83245D01*
X-114096Y83270D01*
X-114101Y83289D01*
X-114109Y83300D01*
X-114116Y83319D01*
X-115520Y85747D01*
X-115543Y85773D01*
X-115567Y85815D01*
X-117351Y87979D01*
X-117378Y88000D01*
X-117409Y88038D01*
X-119525Y89878D01*
X-119555Y89895D01*
X-119591Y89927D01*
X-121982Y91394D01*
X-122014Y91406D01*
X-122055Y91431D01*
X-124654Y92485D01*
X-124688Y92491D01*
X-124733Y92509D01*
X-127470Y93121D01*
X-127505Y93122D01*
X-127552Y93132D01*
X-130352Y93285D01*
X-130386Y93280D01*
X-130434Y93283D01*
X-133222Y92972D01*
X-133255Y92962D01*
X-133303Y92956D01*
X-136001Y92191D01*
X-136031Y92176D01*
X-136078Y92162D01*
X-138613Y90964D01*
X-138637Y90946D01*
X-138664Y90936D01*
X-138716Y90887D01*
X-138773Y90845D01*
X-138787Y90820D01*
X-138809Y90800D01*
X-138837Y90734D01*
X-138873Y90673D01*
X-138876Y90644D01*
X-138888Y90617D01*
X-138889Y90546D01*
X-138898Y90476D01*
X-138890Y90448D01*
X-138890Y90418D01*
X-138856Y90326D01*
X-138844Y90284D01*
X-138837Y90276D01*
X-138832Y90263D01*
X-121832Y60863D01*
X-121813Y60841D01*
X-121800Y60814D01*
X-121747Y60767D01*
X-121700Y60714D01*
X-121674Y60701D01*
X-121652Y60682D01*
X-121585Y60659D01*
X-121521Y60628D01*
X-121492Y60627D01*
X-121464Y60617D01*
X-121393Y60622D01*
G37*
G36*
X130386Y208345D02*
X130386Y208345D01*
X130434Y208343D01*
X133222Y208653D01*
X133255Y208663D01*
X133303Y208669D01*
X136001Y209434D01*
X136031Y209450D01*
X136078Y209463D01*
X138613Y210661D01*
X138637Y210679D01*
X138664Y210689D01*
X138716Y210738D01*
X138773Y210780D01*
X138787Y210805D01*
X138809Y210825D01*
X138837Y210891D01*
X138873Y210952D01*
X138876Y210981D01*
X138888Y211008D01*
X138889Y211079D01*
X138898Y211149D01*
X138890Y211177D01*
X138890Y211207D01*
X138856Y211299D01*
X138844Y211341D01*
X138837Y211350D01*
X138832Y211362D01*
X121832Y240762D01*
X121813Y240784D01*
X121800Y240811D01*
X121747Y240858D01*
X121700Y240911D01*
X121674Y240924D01*
X121652Y240943D01*
X121585Y240966D01*
X121521Y240997D01*
X121492Y240998D01*
X121464Y241008D01*
X121393Y241003D01*
X121322Y241006D01*
X121295Y240995D01*
X121266Y240993D01*
X121176Y240951D01*
X121136Y240936D01*
X121128Y240929D01*
X121115Y240923D01*
X118812Y239323D01*
X118788Y239298D01*
X118748Y239271D01*
X116739Y237314D01*
X116720Y237285D01*
X116685Y237251D01*
X115026Y234991D01*
X115011Y234959D01*
X114982Y234920D01*
X113718Y232417D01*
X113709Y232384D01*
X113687Y232341D01*
X112851Y229664D01*
X112848Y229629D01*
X112833Y229583D01*
X112450Y226805D01*
X112452Y226770D01*
X112446Y226723D01*
X112525Y223919D01*
X112533Y223885D01*
X112534Y223837D01*
X113073Y221085D01*
X113087Y221053D01*
X113096Y221006D01*
X114081Y218380D01*
X114099Y218351D01*
X114116Y218306D01*
X115520Y215878D01*
X115543Y215852D01*
X115567Y215810D01*
X117351Y213646D01*
X117378Y213625D01*
X117409Y213587D01*
X119525Y211747D01*
X119555Y211730D01*
X119591Y211698D01*
X121982Y210231D01*
X122014Y210219D01*
X122055Y210194D01*
X124654Y209140D01*
X124688Y209134D01*
X124733Y209116D01*
X127470Y208504D01*
X127505Y208503D01*
X127552Y208493D01*
X130352Y208340D01*
X130386Y208345D01*
G37*
G36*
X121426Y60623D02*
X121426Y60623D01*
X121497Y60623D01*
X121524Y60634D01*
X121553Y60637D01*
X121615Y60672D01*
X121680Y60699D01*
X121701Y60720D01*
X121726Y60734D01*
X121789Y60811D01*
X121819Y60841D01*
X121823Y60852D01*
X121832Y60863D01*
X138832Y90263D01*
X138841Y90290D01*
X138858Y90314D01*
X138873Y90384D01*
X138895Y90451D01*
X138893Y90480D01*
X138899Y90509D01*
X138886Y90579D01*
X138880Y90649D01*
X138867Y90675D01*
X138861Y90704D01*
X138821Y90763D01*
X138789Y90826D01*
X138766Y90845D01*
X138750Y90869D01*
X138668Y90926D01*
X138635Y90953D01*
X138625Y90956D01*
X138613Y90964D01*
X136078Y92162D01*
X136044Y92171D01*
X136001Y92191D01*
X133303Y92956D01*
X133268Y92959D01*
X133222Y92972D01*
X130434Y93283D01*
X130400Y93279D01*
X130352Y93285D01*
X127552Y93132D01*
X127518Y93123D01*
X127470Y93121D01*
X124733Y92509D01*
X124701Y92495D01*
X124654Y92485D01*
X122055Y91431D01*
X122026Y91412D01*
X121982Y91394D01*
X119591Y89927D01*
X119566Y89903D01*
X119525Y89878D01*
X117409Y88038D01*
X117388Y88010D01*
X117351Y87979D01*
X115567Y85815D01*
X115551Y85784D01*
X115520Y85747D01*
X114116Y83319D01*
X114105Y83287D01*
X114098Y83274D01*
X114088Y83259D01*
X114088Y83257D01*
X114081Y83245D01*
X113096Y80619D01*
X113090Y80585D01*
X113073Y80540D01*
X112534Y77788D01*
X112534Y77753D01*
X112525Y77706D01*
X112446Y74902D01*
X112452Y74868D01*
X112450Y74820D01*
X112833Y72042D01*
X112845Y72009D01*
X112851Y71961D01*
X113687Y69284D01*
X113704Y69254D01*
X113718Y69208D01*
X114982Y66705D01*
X115004Y66677D01*
X115026Y66634D01*
X116685Y64374D01*
X116711Y64350D01*
X116739Y64311D01*
X118748Y62354D01*
X118777Y62336D01*
X118812Y62302D01*
X121115Y60702D01*
X121142Y60691D01*
X121165Y60672D01*
X121233Y60652D01*
X121298Y60624D01*
X121327Y60624D01*
X121355Y60615D01*
X121426Y60623D01*
G37*
G36*
X-127552Y208493D02*
X-127552Y208493D01*
X-127518Y208502D01*
X-127470Y208504D01*
X-124733Y209116D01*
X-124701Y209130D01*
X-124654Y209140D01*
X-122055Y210194D01*
X-122026Y210213D01*
X-121982Y210231D01*
X-119591Y211698D01*
X-119566Y211722D01*
X-119525Y211747D01*
X-117409Y213587D01*
X-117388Y213615D01*
X-117351Y213646D01*
X-115567Y215810D01*
X-115551Y215841D01*
X-115520Y215878D01*
X-114116Y218306D01*
X-114105Y218338D01*
X-114081Y218380D01*
X-113096Y221006D01*
X-113090Y221040D01*
X-113073Y221085D01*
X-112534Y223837D01*
X-112534Y223872D01*
X-112525Y223919D01*
X-112446Y226723D01*
X-112452Y226757D01*
X-112450Y226805D01*
X-112833Y229583D01*
X-112845Y229616D01*
X-112851Y229664D01*
X-113687Y232341D01*
X-113704Y232371D01*
X-113718Y232417D01*
X-114982Y234920D01*
X-115004Y234948D01*
X-115026Y234991D01*
X-116685Y237251D01*
X-116711Y237275D01*
X-116739Y237314D01*
X-118748Y239271D01*
X-118777Y239289D01*
X-118812Y239323D01*
X-121115Y240923D01*
X-121142Y240934D01*
X-121165Y240953D01*
X-121233Y240973D01*
X-121298Y241001D01*
X-121327Y241001D01*
X-121355Y241010D01*
X-121426Y241002D01*
X-121497Y241002D01*
X-121524Y240991D01*
X-121553Y240988D01*
X-121615Y240953D01*
X-121680Y240926D01*
X-121701Y240905D01*
X-121726Y240891D01*
X-121789Y240814D01*
X-121819Y240784D01*
X-121823Y240773D01*
X-121832Y240762D01*
X-138832Y211362D01*
X-138841Y211335D01*
X-138858Y211311D01*
X-138873Y211241D01*
X-138895Y211174D01*
X-138893Y211145D01*
X-138899Y211116D01*
X-138886Y211046D01*
X-138880Y210976D01*
X-138867Y210950D01*
X-138861Y210921D01*
X-138821Y210862D01*
X-138789Y210799D01*
X-138766Y210780D01*
X-138750Y210756D01*
X-138668Y210699D01*
X-138635Y210672D01*
X-138625Y210669D01*
X-138613Y210661D01*
X-136078Y209463D01*
X-136044Y209454D01*
X-136001Y209434D01*
X-133303Y208669D01*
X-133268Y208666D01*
X-133222Y208653D01*
X-130434Y208343D01*
X-130400Y208346D01*
X-130352Y208340D01*
X-127552Y208493D01*
G37*
%LPC*%
G36*
X2564Y259806D02*
X2564Y259806D01*
X-544Y262914D01*
X-544Y267311D01*
X2564Y270419D01*
X6961Y270419D01*
X7472Y269908D01*
X7546Y269855D01*
X7615Y269796D01*
X7645Y269784D01*
X7671Y269765D01*
X7758Y269738D01*
X7843Y269704D01*
X7884Y269699D01*
X7906Y269692D01*
X7939Y269693D01*
X8010Y269685D01*
X25328Y269685D01*
X25418Y269700D01*
X25509Y269707D01*
X25538Y269720D01*
X25570Y269725D01*
X25651Y269768D01*
X25735Y269803D01*
X25767Y269829D01*
X25788Y269840D01*
X25810Y269863D01*
X25866Y269908D01*
X26377Y270419D01*
X30773Y270419D01*
X33882Y267311D01*
X33882Y262914D01*
X30773Y259806D01*
X26377Y259806D01*
X25866Y260317D01*
X25792Y260370D01*
X25722Y260429D01*
X25692Y260441D01*
X25666Y260460D01*
X25579Y260487D01*
X25494Y260521D01*
X25453Y260526D01*
X25431Y260533D01*
X25399Y260532D01*
X25328Y260540D01*
X8010Y260540D01*
X7920Y260525D01*
X7829Y260518D01*
X7799Y260505D01*
X7767Y260500D01*
X7687Y260457D01*
X7603Y260422D01*
X7570Y260396D01*
X7550Y260385D01*
X7528Y260362D01*
X7472Y260317D01*
X6961Y259806D01*
X2564Y259806D01*
G37*
%LPD*%
%LPC*%
G36*
X-22254Y214181D02*
X-22254Y214181D01*
X-24215Y221499D01*
X-20427Y228059D01*
X-13109Y230020D01*
X-6549Y226232D01*
X-4588Y218915D01*
X-8376Y212354D01*
X-15693Y210393D01*
X-22254Y214181D01*
G37*
%LPD*%
%LPC*%
G36*
X-34954Y192184D02*
X-34954Y192184D01*
X-36915Y199502D01*
X-33127Y206062D01*
X-25809Y208023D01*
X-19249Y204235D01*
X-17288Y196918D01*
X-21076Y190357D01*
X-28393Y188396D01*
X-34954Y192184D01*
G37*
%LPD*%
%LPC*%
G36*
X-47654Y170187D02*
X-47654Y170187D01*
X-49615Y177505D01*
X-45827Y184065D01*
X-38509Y186026D01*
X-31949Y182238D01*
X-29988Y174920D01*
X-33776Y168360D01*
X-41093Y166399D01*
X-47654Y170187D01*
G37*
%LPD*%
%LPC*%
G36*
X65286Y161793D02*
X65286Y161793D01*
X63325Y169111D01*
X67113Y175672D01*
X74431Y177633D01*
X80992Y173845D01*
X82952Y166527D01*
X79165Y159966D01*
X71847Y158006D01*
X65286Y161793D01*
G37*
%LPD*%
%LPC*%
G36*
X87283Y149093D02*
X87283Y149093D01*
X85323Y156411D01*
X89110Y162972D01*
X96428Y164933D01*
X102989Y161145D01*
X104949Y153827D01*
X101162Y147266D01*
X93844Y145306D01*
X87283Y149093D01*
G37*
%LPD*%
%LPC*%
G36*
X-60354Y148190D02*
X-60354Y148190D01*
X-62315Y155507D01*
X-58527Y162068D01*
X-51209Y164029D01*
X-44649Y160241D01*
X-42688Y152923D01*
X-46476Y146363D01*
X-53793Y144402D01*
X-60354Y148190D01*
G37*
%LPD*%
%LPC*%
G36*
X52586Y139796D02*
X52586Y139796D01*
X50625Y147114D01*
X54413Y153675D01*
X61731Y155636D01*
X68292Y151848D01*
X70252Y144530D01*
X66465Y137969D01*
X59147Y136009D01*
X52586Y139796D01*
G37*
%LPD*%
%LPC*%
G36*
X-73054Y126193D02*
X-73054Y126193D01*
X-75015Y133510D01*
X-71227Y140071D01*
X-63909Y142032D01*
X-57349Y138244D01*
X-55388Y130926D01*
X-59176Y124366D01*
X-66493Y122405D01*
X-73054Y126193D01*
G37*
%LPD*%
%LPC*%
G36*
X39886Y117799D02*
X39886Y117799D01*
X37925Y125117D01*
X41713Y131678D01*
X49031Y133638D01*
X55592Y129851D01*
X57552Y122533D01*
X53765Y115972D01*
X46447Y114012D01*
X39886Y117799D01*
G37*
%LPD*%
%LPC*%
G36*
X27186Y95802D02*
X27186Y95802D01*
X25225Y103120D01*
X29013Y109681D01*
X36331Y111641D01*
X42892Y107854D01*
X44852Y100536D01*
X41065Y93975D01*
X33747Y92014D01*
X27186Y95802D01*
G37*
%LPD*%
%LPC*%
G36*
X14486Y73805D02*
X14486Y73805D01*
X12525Y81123D01*
X16313Y87684D01*
X23631Y89644D01*
X30192Y85857D01*
X32152Y78539D01*
X28365Y71978D01*
X21047Y70017D01*
X14486Y73805D01*
G37*
%LPD*%
%LPC*%
G36*
X-6961Y39143D02*
X-6961Y39143D01*
X-7803Y39986D01*
X-7846Y40017D01*
X-7884Y40056D01*
X-7946Y40088D01*
X-8003Y40129D01*
X-8054Y40145D01*
X-8101Y40170D01*
X-8210Y40193D01*
X-8238Y40201D01*
X-8249Y40201D01*
X-8265Y40205D01*
X-17634Y41142D01*
X-17640Y41141D01*
X-17645Y41143D01*
X-17762Y41134D01*
X-17879Y41126D01*
X-17885Y41124D01*
X-17891Y41124D01*
X-17998Y41078D01*
X-18107Y41033D01*
X-18111Y41030D01*
X-18117Y41027D01*
X-18248Y40922D01*
X-18439Y40731D01*
X-22836Y40731D01*
X-25944Y43839D01*
X-25944Y48236D01*
X-22836Y51344D01*
X-18439Y51344D01*
X-17597Y50502D01*
X-17554Y50471D01*
X-17516Y50432D01*
X-17454Y50399D01*
X-17397Y50358D01*
X-17346Y50343D01*
X-17299Y50318D01*
X-17190Y50295D01*
X-17162Y50286D01*
X-17151Y50286D01*
X-17135Y50283D01*
X-7766Y49346D01*
X-7760Y49346D01*
X-7755Y49345D01*
X-7638Y49354D01*
X-7521Y49361D01*
X-7515Y49364D01*
X-7509Y49364D01*
X-7402Y49410D01*
X-7293Y49454D01*
X-7289Y49458D01*
X-7283Y49460D01*
X-7152Y49565D01*
X-6961Y49757D01*
X-2564Y49757D01*
X544Y46648D01*
X544Y42252D01*
X-2564Y39143D01*
X-6961Y39143D01*
G37*
%LPD*%
%LPC*%
G36*
X-114911Y183606D02*
X-114911Y183606D01*
X-118019Y186714D01*
X-118019Y191111D01*
X-114911Y194219D01*
X-114188Y194219D01*
X-114098Y194234D01*
X-114007Y194241D01*
X-113977Y194254D01*
X-113945Y194259D01*
X-113864Y194302D01*
X-113781Y194337D01*
X-113748Y194363D01*
X-113728Y194374D01*
X-113706Y194397D01*
X-113650Y194442D01*
X-107130Y200962D01*
X-107077Y201036D01*
X-107017Y201106D01*
X-107005Y201136D01*
X-106986Y201162D01*
X-106959Y201249D01*
X-106925Y201334D01*
X-106921Y201375D01*
X-106914Y201397D01*
X-106915Y201429D01*
X-106907Y201500D01*
X-106907Y202223D01*
X-103798Y205332D01*
X-99402Y205332D01*
X-96293Y202223D01*
X-96293Y197827D01*
X-99402Y194718D01*
X-100125Y194718D01*
X-100215Y194704D01*
X-100306Y194696D01*
X-100335Y194684D01*
X-100367Y194679D01*
X-100448Y194636D01*
X-100532Y194600D01*
X-100564Y194574D01*
X-100585Y194563D01*
X-100607Y194540D01*
X-100663Y194495D01*
X-107183Y187975D01*
X-107236Y187901D01*
X-107295Y187832D01*
X-107308Y187802D01*
X-107326Y187776D01*
X-107353Y187689D01*
X-107387Y187604D01*
X-107392Y187563D01*
X-107399Y187541D01*
X-107398Y187508D01*
X-107406Y187437D01*
X-107406Y186714D01*
X-110514Y183606D01*
X-114911Y183606D01*
G37*
%LPD*%
%LPC*%
G36*
X94639Y89943D02*
X94639Y89943D01*
X91531Y93052D01*
X91531Y97448D01*
X94639Y100557D01*
X95362Y100557D01*
X95452Y100571D01*
X95543Y100579D01*
X95573Y100591D01*
X95605Y100596D01*
X95686Y100639D01*
X95769Y100675D01*
X95802Y100701D01*
X95822Y100712D01*
X95844Y100735D01*
X95900Y100780D01*
X102420Y107300D01*
X102473Y107374D01*
X102533Y107443D01*
X102545Y107473D01*
X102564Y107499D01*
X102591Y107586D01*
X102625Y107671D01*
X102629Y107712D01*
X102636Y107734D01*
X102635Y107767D01*
X102643Y107838D01*
X102643Y108561D01*
X105752Y111669D01*
X110148Y111669D01*
X113257Y108561D01*
X113257Y104164D01*
X110148Y101056D01*
X109425Y101056D01*
X109335Y101041D01*
X109244Y101034D01*
X109215Y101021D01*
X109183Y101016D01*
X109102Y100973D01*
X109018Y100938D01*
X108986Y100912D01*
X108965Y100901D01*
X108943Y100878D01*
X108887Y100833D01*
X102367Y94313D01*
X102314Y94239D01*
X102255Y94169D01*
X102242Y94139D01*
X102224Y94113D01*
X102197Y94026D01*
X102163Y93941D01*
X102158Y93900D01*
X102151Y93878D01*
X102152Y93846D01*
X102144Y93775D01*
X102144Y93052D01*
X99036Y89943D01*
X94639Y89943D01*
G37*
%LPD*%
%LPC*%
G36*
X-76811Y74068D02*
X-76811Y74068D01*
X-79919Y77177D01*
X-79919Y77900D01*
X-79934Y77990D01*
X-79941Y78081D01*
X-79954Y78110D01*
X-79959Y78142D01*
X-80002Y78223D01*
X-80037Y78307D01*
X-80063Y78339D01*
X-80074Y78360D01*
X-80097Y78382D01*
X-80142Y78438D01*
X-85075Y83370D01*
X-85149Y83423D01*
X-85218Y83483D01*
X-85248Y83495D01*
X-85274Y83514D01*
X-85361Y83541D01*
X-85446Y83575D01*
X-85487Y83579D01*
X-85509Y83586D01*
X-85542Y83585D01*
X-85613Y83593D01*
X-86336Y83593D01*
X-89444Y86702D01*
X-89444Y91098D01*
X-86336Y94207D01*
X-81939Y94207D01*
X-78831Y91098D01*
X-78831Y90375D01*
X-78816Y90285D01*
X-78809Y90194D01*
X-78796Y90165D01*
X-78791Y90133D01*
X-78748Y90052D01*
X-78713Y89968D01*
X-78687Y89936D01*
X-78676Y89915D01*
X-78653Y89893D01*
X-78608Y89837D01*
X-73675Y84905D01*
X-73601Y84852D01*
X-73532Y84792D01*
X-73502Y84780D01*
X-73476Y84761D01*
X-73389Y84734D01*
X-73304Y84700D01*
X-73263Y84696D01*
X-73241Y84689D01*
X-73208Y84690D01*
X-73137Y84682D01*
X-72414Y84682D01*
X-69306Y81573D01*
X-69306Y77177D01*
X-72414Y74068D01*
X-76811Y74068D01*
G37*
%LPD*%
D10*
X82600Y293913D03*
X165200Y150813D03*
X82600Y7713D03*
X-82600Y7713D03*
X-165200Y150813D03*
X-82600Y293913D03*
X123900Y222313D03*
X123900Y79313D03*
X0Y7713D03*
X-123900Y79313D03*
X-123900Y222313D03*
X0Y293913D03*
D11*
X31636Y45134D03*
X44336Y67131D03*
X57036Y89128D03*
X69736Y111125D03*
X82436Y133122D03*
X95136Y155119D03*
X9639Y57834D03*
X22339Y79831D03*
X35039Y101828D03*
X47739Y123825D03*
X60439Y145822D03*
X73139Y167819D03*
X107836Y177116D03*
X85839Y189816D03*
D12*
X-23699Y254904D03*
X-36399Y232907D03*
X-49099Y210910D03*
X-61799Y188913D03*
X-74499Y166915D03*
X-87199Y144918D03*
X-1701Y242204D03*
X-14401Y220207D03*
X-27101Y198210D03*
X-39801Y176213D03*
X-52501Y154215D03*
X-65201Y132218D03*
X-99899Y122921D03*
X-77901Y110221D03*
D13*
X28575Y265113D03*
X4763Y265113D03*
X107950Y212725D03*
X88900Y220663D03*
X96838Y95250D03*
X107950Y106363D03*
X-4763Y44450D03*
X-20638Y46038D03*
X-74613Y79375D03*
X-84138Y88900D03*
X-112713Y188913D03*
X-101600Y200025D03*
D14*
X4763Y265113D02*
X28575Y265113D01*
X-101600Y200025D02*
X-112713Y188913D01*
X88900Y220663D02*
X107950Y212725D01*
X107950Y106363D02*
X96838Y95250D01*
X-4763Y44450D02*
X-20638Y46038D01*
X-74613Y79375D02*
X-84138Y88900D01*
D13*
X-17463Y273050D03*
X-33338Y282575D03*
X-101600Y230188D03*
X-101600Y214313D03*
X-117475Y101600D03*
X-131763Y104775D03*
X31750Y14288D03*
X19050Y25400D03*
X133350Y196850D03*
X114300Y198438D03*
X93663Y71438D03*
X104775Y85725D03*
D15*
X14063Y7713D02*
X0Y7713D01*
X14063Y7713D02*
X57150Y50800D01*
X57150Y89014D01*
X57036Y89128D01*
X92138Y79313D02*
X123900Y79313D01*
X69736Y101714D02*
X69736Y111125D01*
X69736Y101714D02*
X92138Y79313D01*
X123900Y160413D02*
X123900Y222313D01*
X96610Y133122D02*
X82436Y133122D01*
X96610Y133122D02*
X123900Y160413D01*
X0Y293913D02*
X-9300Y293913D01*
X-49213Y254000D01*
X-49213Y211024D01*
X-49099Y210910D01*
X-95199Y222313D02*
X-123900Y222313D01*
X-95199Y222313D02*
X-61799Y188913D01*
X-74499Y166915D02*
X-85593Y155821D01*
X-91715Y155821D01*
X-123900Y123636D02*
X-123900Y79313D01*
X-123900Y123636D02*
X-91715Y155821D01*
M02*
