G04 EAGLE Gerber RS-274X export*
G75*
%MOMM*%
%FSLAX34Y34*%
%LPD*%
%INTop Copper*%
%IPPOS*%
%AMOC8*
5,1,8,0,0,1.08239X$1,22.5*%
G01*
%ADD10C,1.000000*%
%ADD11P,1.649562X8X82.500000*%
%ADD12P,1.649562X8X262.500000*%
%ADD13C,0.756400*%
%ADD14C,0.609600*%
%ADD15C,0.203200*%

G36*
X-67572Y319D02*
X-67572Y319D01*
X-67544Y316D01*
X-67476Y339D01*
X-67405Y353D01*
X-67382Y369D01*
X-67366Y374D01*
X-19786Y374D01*
X-19766Y377D01*
X-19747Y375D01*
X-19645Y397D01*
X-19543Y414D01*
X-19526Y423D01*
X-19506Y427D01*
X-19417Y481D01*
X-19326Y529D01*
X-19312Y543D01*
X-19295Y554D01*
X-19228Y632D01*
X-19156Y707D01*
X-19148Y725D01*
X-19135Y741D01*
X-19096Y837D01*
X-19053Y930D01*
X-19051Y950D01*
X-19043Y969D01*
X-19025Y1135D01*
X-19025Y1702D01*
X-19010Y1722D01*
X-18993Y1779D01*
X-18966Y1833D01*
X-18947Y1926D01*
X-18938Y1957D01*
X-18938Y1973D01*
X-18933Y1997D01*
X-18860Y2888D01*
X-18862Y2917D01*
X-18857Y2945D01*
X-18872Y3039D01*
X-18879Y3133D01*
X-18890Y3160D01*
X-18895Y3188D01*
X-18939Y3285D01*
X-18788Y3884D01*
X-18785Y3916D01*
X-18767Y4008D01*
X-18716Y4617D01*
X-18660Y4694D01*
X-18598Y4766D01*
X-18588Y4793D01*
X-18571Y4816D01*
X-18512Y4973D01*
X-18261Y5964D01*
X-18258Y5993D01*
X-18249Y6020D01*
X-18248Y6115D01*
X-18240Y6209D01*
X-18246Y6237D01*
X-18246Y6266D01*
X-18274Y6369D01*
X-18026Y6934D01*
X-18018Y6966D01*
X-18001Y7009D01*
X-17996Y7020D01*
X-17996Y7024D01*
X-17985Y7053D01*
X-17835Y7645D01*
X-17834Y7646D01*
X-17766Y7712D01*
X-17694Y7773D01*
X-17679Y7798D01*
X-17658Y7818D01*
X-17575Y7963D01*
X-17164Y8900D01*
X-17157Y8927D01*
X-17143Y8952D01*
X-17126Y9046D01*
X-17103Y9138D01*
X-17105Y9166D01*
X-17100Y9195D01*
X-17110Y9301D01*
X-16772Y9818D01*
X-16759Y9848D01*
X-16712Y9928D01*
X-16467Y10488D01*
X-16466Y10488D01*
X-16389Y10542D01*
X-16307Y10591D01*
X-16288Y10612D01*
X-16265Y10629D01*
X-16158Y10758D01*
X-15599Y11614D01*
X-15587Y11641D01*
X-15569Y11663D01*
X-15537Y11753D01*
X-15499Y11839D01*
X-15496Y11868D01*
X-15487Y11895D01*
X-15479Y12001D01*
X-15061Y12456D01*
X-15044Y12483D01*
X-14984Y12555D01*
X-14650Y13066D01*
X-14649Y13066D01*
X-14563Y13107D01*
X-14475Y13141D01*
X-14453Y13160D01*
X-14427Y13172D01*
X-14301Y13282D01*
X-13608Y14034D01*
X-13592Y14058D01*
X-13571Y14078D01*
X-13525Y14160D01*
X-13473Y14240D01*
X-13465Y14268D01*
X-13452Y14293D01*
X-13427Y14397D01*
X-12940Y14776D01*
X-12917Y14800D01*
X-12847Y14861D01*
X-12333Y15420D01*
X-12330Y15423D01*
X-12327Y15426D01*
X-12263Y15526D01*
X-12197Y15625D01*
X-12196Y15629D01*
X-12194Y15633D01*
X-12165Y15748D01*
X-12135Y15863D01*
X-12135Y15867D01*
X-12134Y15871D01*
X-12143Y15989D01*
X-12151Y16109D01*
X-12153Y16112D01*
X-12153Y16116D01*
X-12200Y16226D01*
X-12245Y16336D01*
X-12248Y16339D01*
X-12250Y16343D01*
X-12354Y16474D01*
X-13529Y17649D01*
X-15241Y19360D01*
X-15241Y66140D01*
X22988Y104369D01*
X25507Y104369D01*
X25574Y104380D01*
X25641Y104381D01*
X25694Y104399D01*
X25750Y104408D01*
X25809Y104440D01*
X25873Y104463D01*
X25918Y104497D01*
X25967Y104523D01*
X26014Y104572D01*
X26067Y104614D01*
X26114Y104678D01*
X26136Y104702D01*
X26145Y104721D01*
X26166Y104749D01*
X29013Y109681D01*
X36331Y111641D01*
X42892Y107854D01*
X44852Y100536D01*
X41065Y93975D01*
X33747Y92014D01*
X27186Y95802D01*
X26404Y98723D01*
X26386Y98763D01*
X26376Y98806D01*
X26335Y98874D01*
X26302Y98947D01*
X26273Y98979D01*
X26250Y99017D01*
X26189Y99069D01*
X26135Y99127D01*
X26097Y99148D01*
X26063Y99177D01*
X25989Y99207D01*
X25919Y99245D01*
X25876Y99252D01*
X25835Y99269D01*
X25690Y99285D01*
X25677Y99287D01*
X25673Y99287D01*
X25668Y99287D01*
X25408Y99287D01*
X25318Y99272D01*
X25227Y99265D01*
X25197Y99253D01*
X25165Y99247D01*
X25085Y99205D01*
X25001Y99169D01*
X24969Y99143D01*
X24948Y99132D01*
X24926Y99109D01*
X24870Y99064D01*
X-9936Y64258D01*
X-9989Y64184D01*
X-10049Y64115D01*
X-10061Y64084D01*
X-10080Y64058D01*
X-10107Y63971D01*
X-10141Y63886D01*
X-10145Y63846D01*
X-10152Y63823D01*
X-10151Y63791D01*
X-10159Y63720D01*
X-10159Y21780D01*
X-10145Y21690D01*
X-10137Y21599D01*
X-10125Y21569D01*
X-10120Y21537D01*
X-10077Y21457D01*
X-10041Y21373D01*
X-10015Y21341D01*
X-10004Y21320D01*
X-9981Y21298D01*
X-9936Y21242D01*
X-7476Y18782D01*
X-7391Y18721D01*
X-7310Y18656D01*
X-7288Y18647D01*
X-7276Y18638D01*
X-7246Y18629D01*
X-7155Y18590D01*
X-7107Y18576D01*
X-7078Y18572D01*
X-7051Y18562D01*
X-6957Y18557D01*
X-6863Y18545D01*
X-6834Y18550D01*
X-6806Y18549D01*
X-6642Y18585D01*
X-5675Y18918D01*
X-5650Y18931D01*
X-5622Y18938D01*
X-5542Y18989D01*
X-5458Y19034D01*
X-5438Y19055D01*
X-5414Y19070D01*
X-5343Y19150D01*
X-4734Y19251D01*
X-4703Y19262D01*
X-4612Y19282D01*
X-4035Y19481D01*
X-4034Y19480D01*
X-3941Y19460D01*
X-3850Y19432D01*
X-3822Y19433D01*
X-3794Y19427D01*
X-3626Y19436D01*
X-2617Y19605D01*
X-2590Y19614D01*
X-2562Y19616D01*
X-2474Y19653D01*
X-2385Y19684D01*
X-2362Y19701D01*
X-2335Y19712D01*
X-2252Y19779D01*
X-1635Y19779D01*
X-1603Y19784D01*
X-1509Y19790D01*
X-907Y19890D01*
X-906Y19890D01*
X-818Y19854D01*
X-733Y19812D01*
X-705Y19808D01*
X-678Y19798D01*
X-511Y19779D01*
X511Y19779D01*
X540Y19784D01*
X568Y19781D01*
X661Y19804D01*
X754Y19819D01*
X779Y19832D01*
X807Y19839D01*
X901Y19891D01*
X1509Y19790D01*
X1542Y19789D01*
X1635Y19779D01*
X2246Y19779D01*
X2327Y19729D01*
X2404Y19674D01*
X2432Y19665D01*
X2456Y19650D01*
X2617Y19605D01*
X3626Y19436D01*
X3655Y19436D01*
X3683Y19429D01*
X3777Y19436D01*
X3872Y19436D01*
X3899Y19445D01*
X3928Y19447D01*
X4029Y19483D01*
X4612Y19282D01*
X4644Y19277D01*
X4734Y19251D01*
X5337Y19151D01*
X5337Y19150D01*
X5409Y19088D01*
X5476Y19021D01*
X5501Y19008D01*
X5523Y18989D01*
X5675Y18918D01*
X6642Y18585D01*
X6670Y18581D01*
X6696Y18569D01*
X6791Y18560D01*
X6885Y18544D01*
X6913Y18549D01*
X6941Y18546D01*
X7047Y18565D01*
X7590Y18271D01*
X7620Y18261D01*
X7705Y18221D01*
X8282Y18022D01*
X8283Y18022D01*
X8343Y17949D01*
X8398Y17871D01*
X8421Y17854D01*
X8440Y17832D01*
X8577Y17737D01*
X9477Y17250D01*
X9504Y17240D01*
X9528Y17225D01*
X9620Y17200D01*
X9709Y17169D01*
X9738Y17169D01*
X9766Y17162D01*
X9872Y17163D01*
X10359Y16784D01*
X10388Y16768D01*
X10465Y16715D01*
X11002Y16424D01*
X11050Y16341D01*
X11091Y16256D01*
X11111Y16236D01*
X11126Y16211D01*
X11246Y16094D01*
X12053Y15466D01*
X12078Y15452D01*
X12099Y15433D01*
X12186Y15393D01*
X12269Y15348D01*
X12297Y15343D01*
X12323Y15331D01*
X12429Y15315D01*
X12847Y14861D01*
X12873Y14841D01*
X12940Y14776D01*
X13422Y14401D01*
X13422Y14400D01*
X13455Y14311D01*
X13482Y14220D01*
X13498Y14196D01*
X13509Y14170D01*
X13608Y14034D01*
X14301Y13282D01*
X14323Y13264D01*
X14341Y13242D01*
X14419Y13189D01*
X14494Y13130D01*
X14521Y13121D01*
X14545Y13105D01*
X14647Y13072D01*
X14984Y12555D01*
X15006Y12531D01*
X15061Y12456D01*
X15475Y12006D01*
X15475Y12005D01*
X15493Y11912D01*
X15505Y11818D01*
X15517Y11792D01*
X15523Y11764D01*
X15599Y11614D01*
X16158Y10758D01*
X16177Y10737D01*
X16191Y10712D01*
X16260Y10647D01*
X16324Y10577D01*
X16349Y10563D01*
X16370Y10543D01*
X16465Y10494D01*
X16712Y9928D01*
X16730Y9901D01*
X16772Y9818D01*
X17107Y9306D01*
X17106Y9306D01*
X17109Y9211D01*
X17105Y9116D01*
X17113Y9088D01*
X17114Y9060D01*
X17164Y8900D01*
X17575Y7963D01*
X17590Y7939D01*
X17599Y7912D01*
X17657Y7836D01*
X17708Y7757D01*
X17731Y7739D01*
X17748Y7716D01*
X17833Y7652D01*
X17985Y7053D01*
X17998Y7023D01*
X18020Y6954D01*
X18021Y6946D01*
X18023Y6943D01*
X18026Y6934D01*
X18271Y6375D01*
X18271Y6374D01*
X18258Y6280D01*
X18238Y6187D01*
X18242Y6159D01*
X18238Y6130D01*
X18261Y5964D01*
X18512Y4973D01*
X18523Y4946D01*
X18528Y4918D01*
X18572Y4834D01*
X18610Y4747D01*
X18629Y4726D01*
X18643Y4701D01*
X18716Y4623D01*
X18767Y4008D01*
X18775Y3976D01*
X18788Y3884D01*
X18938Y3292D01*
X18937Y3291D01*
X18909Y3200D01*
X18874Y3112D01*
X18873Y3083D01*
X18864Y3056D01*
X18860Y2888D01*
X18933Y1997D01*
X18948Y1939D01*
X18953Y1879D01*
X18978Y1821D01*
X18993Y1759D01*
X19025Y1709D01*
X19025Y1135D01*
X19028Y1116D01*
X19026Y1096D01*
X19048Y995D01*
X19064Y893D01*
X19074Y875D01*
X19078Y856D01*
X19131Y767D01*
X19180Y675D01*
X19194Y662D01*
X19204Y644D01*
X19283Y577D01*
X19358Y506D01*
X19376Y498D01*
X19391Y485D01*
X19487Y446D01*
X19581Y402D01*
X19601Y400D01*
X19619Y393D01*
X19786Y374D01*
X67369Y374D01*
X67384Y362D01*
X67412Y355D01*
X67436Y341D01*
X67536Y324D01*
X67577Y314D01*
X67587Y315D01*
X67600Y313D01*
X86600Y313D01*
X86676Y329D01*
X86754Y337D01*
X86773Y348D01*
X86795Y353D01*
X86859Y397D01*
X86927Y435D01*
X86943Y454D01*
X86959Y465D01*
X86983Y503D01*
X87033Y563D01*
X96533Y17063D01*
X96542Y17091D01*
X96558Y17114D01*
X96573Y17184D01*
X96596Y17252D01*
X96593Y17281D01*
X96599Y17309D01*
X96586Y17379D01*
X96580Y17450D01*
X96567Y17476D01*
X96561Y17504D01*
X96554Y17515D01*
X120251Y58559D01*
X120258Y58578D01*
X120270Y58593D01*
X120301Y58692D01*
X120338Y58789D01*
X120339Y58809D01*
X120345Y58828D01*
X120343Y58931D01*
X120347Y59035D01*
X120342Y59054D01*
X120341Y59074D01*
X120307Y59171D01*
X120277Y59271D01*
X120266Y59287D01*
X120259Y59306D01*
X120196Y59387D01*
X120136Y59472D01*
X120120Y59484D01*
X120108Y59499D01*
X119973Y59599D01*
X119617Y59805D01*
X119607Y59827D01*
X119566Y59871D01*
X119533Y59922D01*
X119461Y59984D01*
X119439Y60008D01*
X119425Y60015D01*
X119406Y60032D01*
X118675Y60540D01*
X118649Y60552D01*
X118627Y60571D01*
X118538Y60605D01*
X118453Y60646D01*
X118424Y60649D01*
X118397Y60660D01*
X118291Y60670D01*
X117849Y61101D01*
X117822Y61119D01*
X117752Y61181D01*
X117250Y61529D01*
X117250Y61530D01*
X117212Y61617D01*
X117180Y61706D01*
X117162Y61729D01*
X117151Y61755D01*
X117044Y61884D01*
X116314Y62596D01*
X116290Y62612D01*
X116272Y62634D01*
X116215Y62668D01*
X116193Y62686D01*
X116173Y62694D01*
X116112Y62737D01*
X116085Y62745D01*
X116060Y62759D01*
X115957Y62787D01*
X115592Y63285D01*
X115569Y63308D01*
X115509Y63380D01*
X115072Y63806D01*
X115072Y63807D01*
X115048Y63899D01*
X115032Y63992D01*
X115018Y64017D01*
X115011Y64045D01*
X114927Y64190D01*
X114324Y65012D01*
X114303Y65032D01*
X114289Y65057D01*
X114216Y65118D01*
X114148Y65184D01*
X114122Y65197D01*
X114101Y65215D01*
X114003Y65260D01*
X113725Y65811D01*
X113706Y65837D01*
X113659Y65918D01*
X113298Y66410D01*
X113298Y66411D01*
X113290Y66506D01*
X113289Y66601D01*
X113280Y66628D01*
X113277Y66656D01*
X113218Y66813D01*
X112759Y67723D01*
X112742Y67747D01*
X112731Y67773D01*
X112687Y67825D01*
X112669Y67855D01*
X112652Y67870D01*
X112614Y67922D01*
X112590Y67939D01*
X112572Y67960D01*
X112483Y68020D01*
X112299Y68609D01*
X112285Y68639D01*
X112252Y68726D01*
X111977Y69271D01*
X111977Y69272D01*
X111985Y69367D01*
X111999Y69460D01*
X111994Y69488D01*
X111997Y69517D01*
X111965Y69682D01*
X111661Y70655D01*
X111651Y70674D01*
X111648Y70689D01*
X111645Y70694D01*
X111642Y70709D01*
X111593Y70790D01*
X111551Y70875D01*
X111530Y70895D01*
X111516Y70920D01*
X111438Y70993D01*
X111354Y71605D01*
X111344Y71636D01*
X111326Y71727D01*
X111144Y72311D01*
X111145Y72311D01*
X111168Y72403D01*
X111198Y72493D01*
X111198Y72522D01*
X111205Y72550D01*
X111200Y72717D01*
X111061Y73727D01*
X111052Y73755D01*
X111051Y73783D01*
X111016Y73872D01*
X110988Y73962D01*
X110972Y73986D01*
X110961Y74012D01*
X110897Y74098D01*
X110914Y74715D01*
X110910Y74747D01*
X110907Y74840D01*
X110824Y75445D01*
X110824Y75446D01*
X110862Y75533D01*
X110907Y75617D01*
X110911Y75645D01*
X110923Y75671D01*
X110946Y75838D01*
X110975Y76857D01*
X110971Y76885D01*
X110974Y76914D01*
X110954Y77007D01*
X110942Y77100D01*
X110929Y77126D01*
X110923Y77154D01*
X110874Y77249D01*
X110992Y77854D01*
X110993Y77887D01*
X111006Y77979D01*
X111024Y78590D01*
X111024Y78591D01*
X111076Y78670D01*
X111133Y78746D01*
X111143Y78773D01*
X111158Y78797D01*
X111208Y78957D01*
X111405Y79957D01*
X111405Y79986D01*
X111413Y80014D01*
X111409Y80109D01*
X111412Y80203D01*
X111404Y80231D01*
X111403Y80259D01*
X111370Y80361D01*
X111586Y80939D01*
X111593Y80971D01*
X111621Y81060D01*
X111738Y81659D01*
X111739Y81660D01*
X111803Y81730D01*
X111872Y81795D01*
X111886Y81820D01*
X111905Y81841D01*
X111981Y81991D01*
X112339Y82945D01*
X112345Y82973D01*
X112357Y82999D01*
X112369Y83093D01*
X112387Y83186D01*
X112384Y83215D01*
X112387Y83243D01*
X112371Y83349D01*
X112680Y83883D01*
X112691Y83914D01*
X112734Y83997D01*
X112948Y84569D01*
X112949Y84569D01*
X113024Y84628D01*
X113103Y84680D01*
X113120Y84703D01*
X113143Y84721D01*
X113242Y84856D01*
X113507Y85314D01*
X113523Y85355D01*
X113547Y85392D01*
X113566Y85469D01*
X113594Y85544D01*
X113596Y85588D01*
X113607Y85631D01*
X113600Y85710D01*
X113603Y85790D01*
X113591Y85832D01*
X113587Y85876D01*
X113556Y85949D01*
X113534Y86025D01*
X113508Y86062D01*
X113491Y86102D01*
X113401Y86215D01*
X113392Y86227D01*
X113390Y86229D01*
X113386Y86233D01*
X111381Y88238D01*
X111323Y88280D01*
X111271Y88329D01*
X111224Y88351D01*
X111182Y88382D01*
X111113Y88403D01*
X111048Y88433D01*
X110996Y88439D01*
X110946Y88454D01*
X110875Y88452D01*
X110804Y88460D01*
X110753Y88449D01*
X110701Y88448D01*
X110633Y88423D01*
X110563Y88408D01*
X110519Y88381D01*
X110470Y88363D01*
X110414Y88318D01*
X110352Y88282D01*
X110318Y88242D01*
X110278Y88209D01*
X110239Y88149D01*
X110192Y88095D01*
X110173Y88046D01*
X110145Y88003D01*
X110127Y87933D01*
X110100Y87867D01*
X110092Y87795D01*
X110084Y87764D01*
X110086Y87741D01*
X110082Y87700D01*
X110082Y83527D01*
X106973Y80418D01*
X106813Y80418D01*
X106798Y80416D01*
X106783Y80418D01*
X106677Y80396D01*
X106570Y80379D01*
X106557Y80371D01*
X106542Y80368D01*
X106448Y80314D01*
X106353Y80263D01*
X106342Y80252D01*
X106329Y80245D01*
X106212Y80124D01*
X99130Y71018D01*
X99108Y70980D01*
X99080Y70946D01*
X99050Y70872D01*
X99012Y70802D01*
X99004Y70759D01*
X98988Y70718D01*
X98972Y70575D01*
X98969Y70560D01*
X98970Y70557D01*
X98969Y70551D01*
X98969Y69239D01*
X95861Y66131D01*
X91464Y66131D01*
X88356Y69239D01*
X88356Y73636D01*
X91464Y76744D01*
X91625Y76744D01*
X91640Y76747D01*
X91655Y76745D01*
X91761Y76767D01*
X91867Y76784D01*
X91881Y76791D01*
X91896Y76794D01*
X91989Y76849D01*
X92085Y76899D01*
X92095Y76910D01*
X92109Y76918D01*
X92226Y77038D01*
X99308Y86144D01*
X99329Y86183D01*
X99358Y86217D01*
X99388Y86290D01*
X99426Y86360D01*
X99433Y86404D01*
X99450Y86445D01*
X99466Y86588D01*
X99468Y86602D01*
X99468Y86606D01*
X99468Y86611D01*
X99468Y87923D01*
X102577Y91032D01*
X106750Y91032D01*
X106821Y91043D01*
X106892Y91045D01*
X106941Y91063D01*
X106993Y91071D01*
X107056Y91105D01*
X107123Y91130D01*
X107164Y91162D01*
X107210Y91187D01*
X107259Y91238D01*
X107315Y91283D01*
X107343Y91327D01*
X107379Y91365D01*
X107410Y91430D01*
X107448Y91490D01*
X107461Y91541D01*
X107483Y91588D01*
X107491Y91659D01*
X107508Y91729D01*
X107504Y91781D01*
X107510Y91832D01*
X107495Y91903D01*
X107489Y91974D01*
X107469Y92022D01*
X107458Y92073D01*
X107421Y92134D01*
X107393Y92200D01*
X107348Y92256D01*
X107332Y92284D01*
X107314Y92299D01*
X107288Y92331D01*
X79495Y120125D01*
X79482Y120134D01*
X79472Y120146D01*
X79337Y120246D01*
X77715Y121182D01*
X77608Y121223D01*
X77501Y121266D01*
X77491Y121267D01*
X77485Y121269D01*
X77462Y121270D01*
X77334Y121284D01*
X73270Y121284D01*
X73223Y121277D01*
X73175Y121278D01*
X73102Y121257D01*
X73027Y121245D01*
X72985Y121222D01*
X72939Y121208D01*
X72877Y121165D01*
X72810Y121129D01*
X72777Y121095D01*
X72738Y121067D01*
X72693Y121006D01*
X72641Y120951D01*
X72620Y120908D01*
X72592Y120869D01*
X72569Y120797D01*
X72537Y120728D01*
X72532Y120680D01*
X72517Y120635D01*
X72518Y120559D01*
X72510Y120484D01*
X72520Y120437D01*
X72521Y120389D01*
X72546Y120317D01*
X72562Y120243D01*
X72587Y120202D01*
X72603Y120157D01*
X72649Y120097D01*
X72688Y120032D01*
X72725Y120001D01*
X72754Y119963D01*
X72858Y119887D01*
X72875Y119872D01*
X72881Y119870D01*
X72889Y119864D01*
X77589Y117151D01*
X79549Y109833D01*
X75762Y103272D01*
X68444Y101312D01*
X61883Y105099D01*
X59923Y112417D01*
X63710Y118978D01*
X66733Y119788D01*
X66755Y119798D01*
X66779Y119802D01*
X66867Y119848D01*
X66958Y119889D01*
X66975Y119905D01*
X66996Y119917D01*
X67065Y119989D01*
X67138Y120056D01*
X67149Y120077D01*
X67166Y120095D01*
X67208Y120185D01*
X67255Y120272D01*
X67259Y120296D01*
X67269Y120318D01*
X67280Y120417D01*
X67298Y120515D01*
X67294Y120539D01*
X67297Y120562D01*
X67275Y120660D01*
X67260Y120758D01*
X67249Y120779D01*
X67244Y120803D01*
X67193Y120888D01*
X67148Y120977D01*
X67130Y120993D01*
X67118Y121014D01*
X67042Y121079D01*
X66971Y121148D01*
X66950Y121158D01*
X66931Y121174D01*
X66839Y121211D01*
X66749Y121254D01*
X66725Y121257D01*
X66703Y121266D01*
X66536Y121284D01*
X57271Y121284D01*
X57204Y121273D01*
X57137Y121272D01*
X57084Y121254D01*
X57028Y121245D01*
X56969Y121213D01*
X56905Y121190D01*
X56860Y121156D01*
X56811Y121129D01*
X56764Y121081D01*
X56711Y121039D01*
X56664Y120975D01*
X56641Y120951D01*
X56633Y120932D01*
X56612Y120904D01*
X53765Y115972D01*
X46447Y114012D01*
X39886Y117799D01*
X37925Y125117D01*
X41713Y131678D01*
X49031Y133638D01*
X55592Y129851D01*
X56374Y126930D01*
X56392Y126890D01*
X56402Y126847D01*
X56443Y126779D01*
X56475Y126706D01*
X56505Y126674D01*
X56528Y126636D01*
X56589Y126584D01*
X56643Y126526D01*
X56681Y126505D01*
X56715Y126476D01*
X56789Y126446D01*
X56859Y126408D01*
X56902Y126401D01*
X56943Y126384D01*
X57087Y126368D01*
X57101Y126366D01*
X57105Y126366D01*
X57110Y126366D01*
X73787Y126366D01*
X73904Y126385D01*
X74022Y126403D01*
X74026Y126405D01*
X74030Y126405D01*
X74135Y126461D01*
X74240Y126516D01*
X74243Y126519D01*
X74247Y126521D01*
X74329Y126607D01*
X74412Y126692D01*
X74414Y126696D01*
X74416Y126699D01*
X74467Y126807D01*
X74518Y126914D01*
X74518Y126918D01*
X74520Y126922D01*
X74533Y127039D01*
X74548Y127158D01*
X74547Y127163D01*
X74547Y127166D01*
X74544Y127180D01*
X74522Y127324D01*
X72623Y134414D01*
X76410Y140975D01*
X83728Y142936D01*
X90289Y139148D01*
X92249Y131830D01*
X88462Y125269D01*
X84273Y124147D01*
X84187Y124108D01*
X84097Y124075D01*
X84075Y124057D01*
X84049Y124046D01*
X83979Y123981D01*
X83905Y123921D01*
X83890Y123898D01*
X83869Y123878D01*
X83824Y123795D01*
X83772Y123715D01*
X83765Y123687D01*
X83752Y123662D01*
X83735Y123568D01*
X83712Y123476D01*
X83714Y123448D01*
X83709Y123420D01*
X83724Y123326D01*
X83731Y123231D01*
X83742Y123205D01*
X83746Y123177D01*
X83790Y123092D01*
X83827Y123004D01*
X83849Y122977D01*
X83859Y122958D01*
X83883Y122935D01*
X83932Y122873D01*
X116552Y90253D01*
X116647Y90185D01*
X116740Y90116D01*
X116747Y90114D01*
X116752Y90110D01*
X116862Y90076D01*
X116974Y90039D01*
X116981Y90039D01*
X116987Y90037D01*
X117103Y90040D01*
X117220Y90041D01*
X117226Y90044D01*
X117233Y90044D01*
X117343Y90084D01*
X117452Y90122D01*
X117459Y90126D01*
X117464Y90128D01*
X117479Y90141D01*
X117590Y90217D01*
X117850Y90444D01*
X117869Y90466D01*
X117892Y90482D01*
X117947Y90560D01*
X118007Y90633D01*
X118018Y90660D01*
X118034Y90683D01*
X118071Y90783D01*
X118597Y91106D01*
X118621Y91128D01*
X118698Y91181D01*
X119159Y91582D01*
X119160Y91582D01*
X119253Y91597D01*
X119348Y91606D01*
X119374Y91618D01*
X119402Y91623D01*
X119554Y91694D01*
X120423Y92227D01*
X120445Y92246D01*
X120470Y92259D01*
X120537Y92326D01*
X120609Y92388D01*
X120624Y92413D01*
X120644Y92433D01*
X120696Y92526D01*
X121268Y92758D01*
X121296Y92775D01*
X121380Y92815D01*
X121901Y93135D01*
X121902Y93134D01*
X121997Y93134D01*
X122091Y93128D01*
X122119Y93135D01*
X122148Y93135D01*
X122309Y93180D01*
X123254Y93563D01*
X123278Y93578D01*
X123306Y93587D01*
X123383Y93642D01*
X123464Y93691D01*
X123482Y93713D01*
X123506Y93730D01*
X123573Y93813D01*
X124175Y93948D01*
X124205Y93960D01*
X124295Y93985D01*
X124861Y94215D01*
X124862Y94214D01*
X124956Y94199D01*
X125048Y94177D01*
X125076Y94179D01*
X125105Y94174D01*
X125271Y94193D01*
X126266Y94415D01*
X126293Y94426D01*
X126321Y94430D01*
X126406Y94471D01*
X126495Y94507D01*
X126516Y94525D01*
X126542Y94538D01*
X126622Y94609D01*
X127238Y94643D01*
X127270Y94650D01*
X127363Y94660D01*
X127959Y94793D01*
X128049Y94762D01*
X128137Y94725D01*
X128165Y94723D01*
X128192Y94713D01*
X128360Y94704D01*
X129378Y94759D01*
X129406Y94766D01*
X129434Y94765D01*
X129525Y94792D01*
X129618Y94812D01*
X129642Y94827D01*
X129670Y94835D01*
X129760Y94892D01*
X130374Y94824D01*
X130406Y94826D01*
X130499Y94821D01*
X131109Y94854D01*
X131110Y94853D01*
X131194Y94808D01*
X131274Y94757D01*
X131301Y94750D01*
X131327Y94737D01*
X131490Y94700D01*
X132503Y94587D01*
X132532Y94589D01*
X132560Y94583D01*
X132654Y94595D01*
X132749Y94600D01*
X132776Y94610D01*
X132804Y94614D01*
X132903Y94655D01*
X133497Y94487D01*
X133529Y94483D01*
X133620Y94463D01*
X134227Y94395D01*
X134227Y94394D01*
X134302Y94336D01*
X134373Y94273D01*
X134399Y94261D01*
X134422Y94244D01*
X134577Y94181D01*
X135558Y93902D01*
X135587Y93899D01*
X135613Y93889D01*
X135708Y93885D01*
X135802Y93874D01*
X135831Y93880D01*
X135859Y93879D01*
X135963Y93904D01*
X136521Y93640D01*
X136552Y93631D01*
X136639Y93596D01*
X137227Y93429D01*
X137291Y93359D01*
X137350Y93285D01*
X137374Y93269D01*
X137394Y93248D01*
X137537Y93160D01*
X138342Y92779D01*
X138400Y92763D01*
X138454Y92737D01*
X138517Y92729D01*
X138578Y92712D01*
X138637Y92714D01*
X138978Y92517D01*
X138997Y92510D01*
X139013Y92498D01*
X139111Y92467D01*
X139208Y92430D01*
X139228Y92429D01*
X139247Y92423D01*
X139350Y92425D01*
X139453Y92421D01*
X139473Y92427D01*
X139493Y92427D01*
X139590Y92461D01*
X139689Y92491D01*
X139706Y92502D01*
X139725Y92509D01*
X139806Y92572D01*
X139891Y92632D01*
X139903Y92648D01*
X139919Y92661D01*
X140018Y92796D01*
X163704Y133821D01*
X163727Y133823D01*
X163798Y133823D01*
X163825Y133834D01*
X163854Y133837D01*
X163916Y133873D01*
X163981Y133900D01*
X164002Y133921D01*
X164027Y133935D01*
X164090Y134012D01*
X164120Y134043D01*
X164124Y134053D01*
X164133Y134063D01*
X173633Y150563D01*
X173643Y150595D01*
X173652Y150608D01*
X173656Y150633D01*
X173657Y150636D01*
X173688Y150707D01*
X173688Y150730D01*
X173696Y150752D01*
X173690Y150829D01*
X173691Y150906D01*
X173681Y150930D01*
X173680Y150950D01*
X173659Y150990D01*
X173633Y151062D01*
X173573Y151166D01*
X173572Y151169D01*
X173574Y151225D01*
X173555Y151290D01*
X173546Y151357D01*
X173514Y151430D01*
X173505Y151461D01*
X173493Y151478D01*
X173478Y151511D01*
X140293Y208988D01*
X140280Y209004D01*
X140272Y209022D01*
X140202Y209099D01*
X140137Y209179D01*
X140120Y209189D01*
X140106Y209204D01*
X140016Y209255D01*
X139929Y209309D01*
X139909Y209314D01*
X139891Y209324D01*
X139790Y209343D01*
X139690Y209367D01*
X139670Y209365D01*
X139650Y209369D01*
X139547Y209354D01*
X139445Y209345D01*
X139426Y209337D01*
X139406Y209334D01*
X139253Y209267D01*
X138644Y208915D01*
X138619Y208917D01*
X138561Y208904D01*
X138501Y208900D01*
X138411Y208869D01*
X138379Y208862D01*
X138366Y208854D01*
X138342Y208846D01*
X137537Y208465D01*
X137513Y208449D01*
X137486Y208439D01*
X137412Y208379D01*
X137334Y208325D01*
X137317Y208302D01*
X137295Y208284D01*
X137233Y208197D01*
X136639Y208029D01*
X136609Y208015D01*
X136521Y207985D01*
X135969Y207724D01*
X135968Y207724D01*
X135874Y207734D01*
X135780Y207751D01*
X135752Y207747D01*
X135724Y207750D01*
X135558Y207723D01*
X134577Y207444D01*
X134551Y207432D01*
X134523Y207427D01*
X134440Y207380D01*
X134355Y207340D01*
X134334Y207320D01*
X134309Y207306D01*
X134233Y207231D01*
X133620Y207162D01*
X133589Y207154D01*
X133497Y207138D01*
X132909Y206971D01*
X132908Y206972D01*
X132817Y206997D01*
X132728Y207030D01*
X132699Y207030D01*
X132671Y207038D01*
X132503Y207038D01*
X131490Y206925D01*
X131463Y206917D01*
X131434Y206917D01*
X131345Y206884D01*
X131253Y206859D01*
X131230Y206843D01*
X131203Y206833D01*
X131116Y206771D01*
X130499Y206804D01*
X130467Y206801D01*
X130374Y206801D01*
X129767Y206733D01*
X129766Y206734D01*
X129680Y206774D01*
X129597Y206820D01*
X129569Y206826D01*
X129543Y206838D01*
X129378Y206866D01*
X128360Y206921D01*
X128331Y206918D01*
X128303Y206922D01*
X128210Y206905D01*
X128115Y206895D01*
X128089Y206883D01*
X128061Y206877D01*
X127965Y206830D01*
X127363Y206965D01*
X127330Y206967D01*
X127238Y206982D01*
X126628Y207015D01*
X126628Y207016D01*
X126549Y207070D01*
X126476Y207129D01*
X126448Y207139D01*
X126425Y207156D01*
X126266Y207210D01*
X125345Y207416D01*
X125271Y207432D01*
X125243Y207434D01*
X125215Y207443D01*
X125121Y207441D01*
X125026Y207446D01*
X124998Y207439D01*
X124969Y207438D01*
X124867Y207408D01*
X124295Y207640D01*
X124263Y207647D01*
X124175Y207677D01*
X123579Y207810D01*
X123578Y207811D01*
X123510Y207877D01*
X123447Y207948D01*
X123422Y207962D01*
X123402Y207982D01*
X123254Y208062D01*
X122309Y208445D01*
X122281Y208451D01*
X122256Y208464D01*
X122162Y208478D01*
X122069Y208499D01*
X122041Y208496D01*
X122012Y208500D01*
X121906Y208487D01*
X121380Y208810D01*
X121350Y208822D01*
X121268Y208867D01*
X120702Y209096D01*
X120702Y209097D01*
X120645Y209173D01*
X120595Y209254D01*
X120572Y209272D01*
X120555Y209295D01*
X120423Y209398D01*
X119554Y209931D01*
X119528Y209942D01*
X119504Y209959D01*
X119414Y209988D01*
X119326Y210024D01*
X119298Y210026D01*
X119270Y210035D01*
X119164Y210039D01*
X118698Y210444D01*
X118670Y210461D01*
X118597Y210519D01*
X118076Y210838D01*
X118076Y210839D01*
X118033Y210924D01*
X117996Y211011D01*
X117977Y211033D01*
X117964Y211058D01*
X117850Y211181D01*
X117081Y211851D01*
X117057Y211866D01*
X117037Y211886D01*
X116953Y211930D01*
X116872Y211980D01*
X116844Y211986D01*
X116819Y212000D01*
X116714Y212021D01*
X116321Y212498D01*
X116297Y212519D01*
X116234Y212588D01*
X115773Y212989D01*
X115744Y213080D01*
X115722Y213172D01*
X115707Y213197D01*
X115698Y213224D01*
X115607Y213364D01*
X114958Y214151D01*
X114936Y214170D01*
X114920Y214193D01*
X114844Y214250D01*
X114773Y214313D01*
X114746Y214324D01*
X114723Y214341D01*
X114624Y214380D01*
X114315Y214914D01*
X114294Y214940D01*
X114243Y215018D01*
X113855Y215489D01*
X113855Y215490D01*
X113841Y215584D01*
X113835Y215678D01*
X113824Y215705D01*
X113820Y215733D01*
X113753Y215887D01*
X113242Y216769D01*
X113224Y216791D01*
X113212Y216817D01*
X113146Y216886D01*
X113086Y216960D01*
X113062Y216975D01*
X113042Y216996D01*
X112950Y217050D01*
X112734Y217628D01*
X112717Y217656D01*
X112680Y217742D01*
X112374Y218271D01*
X112377Y218366D01*
X112386Y218461D01*
X112380Y218489D01*
X112380Y218517D01*
X112339Y218680D01*
X112115Y219278D01*
X112111Y219284D01*
X112110Y219290D01*
X112050Y219390D01*
X111992Y219491D01*
X111987Y219496D01*
X111984Y219501D01*
X111895Y219577D01*
X111808Y219654D01*
X111802Y219657D01*
X111797Y219661D01*
X111688Y219705D01*
X111582Y219750D01*
X111575Y219751D01*
X111569Y219753D01*
X111402Y219772D01*
X101443Y219772D01*
X101353Y219757D01*
X101262Y219750D01*
X101232Y219737D01*
X101200Y219732D01*
X101119Y219689D01*
X101035Y219654D01*
X101003Y219628D01*
X100983Y219617D01*
X100960Y219594D01*
X100904Y219549D01*
X80745Y199389D01*
X80717Y199350D01*
X80682Y199317D01*
X80645Y199251D01*
X80601Y199189D01*
X80587Y199144D01*
X80564Y199101D01*
X80551Y199026D01*
X80529Y198954D01*
X80530Y198906D01*
X80522Y198859D01*
X80533Y198784D01*
X80535Y198708D01*
X80552Y198663D01*
X80559Y198616D01*
X80593Y198549D01*
X80620Y198477D01*
X80650Y198440D01*
X80672Y198397D01*
X80726Y198345D01*
X80773Y198285D01*
X80814Y198259D01*
X80848Y198226D01*
X80916Y198193D01*
X80980Y198152D01*
X81027Y198141D01*
X81070Y198120D01*
X81145Y198111D01*
X81219Y198092D01*
X81266Y198096D01*
X81314Y198090D01*
X81442Y198110D01*
X81464Y198111D01*
X81470Y198114D01*
X81480Y198115D01*
X87131Y199630D01*
X93692Y195842D01*
X95652Y188524D01*
X91865Y181963D01*
X84547Y180003D01*
X77986Y183790D01*
X76025Y191108D01*
X78000Y194528D01*
X78008Y194550D01*
X78022Y194570D01*
X78052Y194665D01*
X78087Y194758D01*
X78088Y194782D01*
X78095Y194805D01*
X78092Y194904D01*
X78096Y195004D01*
X78089Y195027D01*
X78088Y195051D01*
X78054Y195144D01*
X78026Y195240D01*
X78012Y195259D01*
X78004Y195282D01*
X77942Y195359D01*
X77885Y195441D01*
X77865Y195455D01*
X77850Y195474D01*
X77766Y195528D01*
X77687Y195586D01*
X77664Y195594D01*
X77643Y195607D01*
X77547Y195631D01*
X77452Y195661D01*
X77428Y195661D01*
X77405Y195667D01*
X77306Y195659D01*
X77206Y195658D01*
X77184Y195650D01*
X77160Y195648D01*
X77068Y195609D01*
X76974Y195576D01*
X76955Y195561D01*
X76933Y195551D01*
X76802Y195447D01*
X63203Y181847D01*
X63150Y181773D01*
X63090Y181704D01*
X63078Y181673D01*
X63059Y181647D01*
X63032Y181560D01*
X62998Y181475D01*
X62994Y181435D01*
X62987Y181412D01*
X62988Y181380D01*
X62980Y181309D01*
X62980Y155354D01*
X62991Y155287D01*
X62992Y155220D01*
X63010Y155167D01*
X63019Y155111D01*
X63051Y155052D01*
X63074Y154988D01*
X63108Y154943D01*
X63135Y154894D01*
X63183Y154847D01*
X63225Y154794D01*
X63289Y154747D01*
X63313Y154725D01*
X63332Y154716D01*
X63360Y154695D01*
X68292Y151848D01*
X70252Y144530D01*
X66465Y137969D01*
X59147Y136009D01*
X52586Y139796D01*
X50625Y147114D01*
X54413Y153675D01*
X57334Y154457D01*
X57374Y154475D01*
X57417Y154485D01*
X57485Y154526D01*
X57558Y154559D01*
X57590Y154588D01*
X57628Y154611D01*
X57680Y154672D01*
X57738Y154726D01*
X57759Y154764D01*
X57788Y154798D01*
X57818Y154872D01*
X57856Y154942D01*
X57863Y154985D01*
X57880Y155026D01*
X57896Y155171D01*
X57898Y155184D01*
X57898Y155188D01*
X57898Y155193D01*
X57898Y183729D01*
X99023Y224853D01*
X110189Y224853D01*
X110219Y224858D01*
X110250Y224856D01*
X110340Y224878D01*
X110432Y224893D01*
X110459Y224907D01*
X110489Y224915D01*
X110567Y224965D01*
X110649Y225008D01*
X110670Y225030D01*
X110696Y225047D01*
X110755Y225119D01*
X110819Y225186D01*
X110832Y225214D01*
X110851Y225238D01*
X110883Y225325D01*
X110922Y225409D01*
X110926Y225440D01*
X110936Y225469D01*
X110950Y225636D01*
X110946Y225787D01*
X110940Y225816D01*
X110942Y225844D01*
X110917Y225936D01*
X110899Y226029D01*
X110885Y226054D01*
X110878Y226082D01*
X110823Y226173D01*
X110907Y226785D01*
X110907Y226817D01*
X110914Y226910D01*
X110897Y227521D01*
X110898Y227522D01*
X110914Y227550D01*
X110923Y227560D01*
X110940Y227595D01*
X110945Y227604D01*
X110998Y227682D01*
X111006Y227710D01*
X111020Y227735D01*
X111061Y227898D01*
X111200Y228908D01*
X111200Y228936D01*
X111206Y228964D01*
X111196Y229059D01*
X111194Y229153D01*
X111184Y229180D01*
X111181Y229209D01*
X111142Y229308D01*
X111326Y229898D01*
X111331Y229930D01*
X111354Y230020D01*
X111437Y230626D01*
X111438Y230626D01*
X111498Y230699D01*
X111563Y230768D01*
X111576Y230794D01*
X111594Y230816D01*
X111661Y230970D01*
X111965Y231943D01*
X111969Y231972D01*
X111980Y231998D01*
X111986Y232093D01*
X111999Y232187D01*
X111994Y232215D01*
X111996Y232244D01*
X111974Y232348D01*
X112252Y232899D01*
X112262Y232930D01*
X112299Y233016D01*
X112481Y233599D01*
X112482Y233599D01*
X112553Y233662D01*
X112629Y233719D01*
X112645Y233742D01*
X112667Y233761D01*
X112759Y233902D01*
X113218Y234812D01*
X113227Y234839D01*
X113242Y234863D01*
X113264Y234956D01*
X113292Y235046D01*
X113292Y235075D01*
X113298Y235103D01*
X113294Y235210D01*
X113659Y235707D01*
X113674Y235736D01*
X113725Y235814D01*
X114000Y236360D01*
X114001Y236360D01*
X114082Y236410D01*
X114166Y236454D01*
X114186Y236474D01*
X114210Y236489D01*
X114324Y236613D01*
X114927Y237435D01*
X114933Y237446D01*
X114942Y237456D01*
X114949Y237470D01*
X114959Y237482D01*
X114996Y237569D01*
X115039Y237654D01*
X115041Y237668D01*
X115046Y237679D01*
X115047Y237693D01*
X115054Y237709D01*
X115067Y237815D01*
X115509Y238245D01*
X115529Y238271D01*
X115592Y238340D01*
X115953Y238833D01*
X115954Y238833D01*
X116042Y238869D01*
X116132Y238898D01*
X116155Y238915D01*
X116182Y238926D01*
X116314Y239029D01*
X117044Y239741D01*
X117061Y239764D01*
X117084Y239782D01*
X117134Y239862D01*
X117190Y239938D01*
X117199Y239966D01*
X117215Y239990D01*
X117245Y240092D01*
X117752Y240444D01*
X117775Y240467D01*
X117849Y240524D01*
X118287Y240951D01*
X118380Y240972D01*
X118474Y240986D01*
X118499Y240999D01*
X118527Y241005D01*
X118675Y241085D01*
X119406Y241593D01*
X119450Y241635D01*
X119499Y241669D01*
X119537Y241720D01*
X119583Y241764D01*
X119610Y241816D01*
X120248Y242185D01*
X120263Y242198D01*
X120281Y242205D01*
X120357Y242275D01*
X120438Y242341D01*
X120448Y242358D01*
X120463Y242371D01*
X120513Y242461D01*
X120569Y242549D01*
X120573Y242569D01*
X120583Y242586D01*
X120602Y242688D01*
X120626Y242789D01*
X120624Y242808D01*
X120628Y242828D01*
X120613Y242930D01*
X120604Y243034D01*
X120596Y243052D01*
X120593Y243071D01*
X120526Y243225D01*
X86877Y301505D01*
X86834Y301558D01*
X86800Y301616D01*
X86757Y301652D01*
X86721Y301696D01*
X86664Y301731D01*
X86613Y301775D01*
X86560Y301797D01*
X86513Y301826D01*
X86447Y301842D01*
X86384Y301867D01*
X86306Y301876D01*
X86274Y301884D01*
X86253Y301882D01*
X86218Y301886D01*
X19821Y301886D01*
X19711Y301868D01*
X19601Y301853D01*
X19590Y301848D01*
X19579Y301846D01*
X19480Y301794D01*
X19380Y301745D01*
X19372Y301737D01*
X19361Y301731D01*
X19285Y301651D01*
X19205Y301572D01*
X19200Y301561D01*
X19192Y301553D01*
X19145Y301452D01*
X19095Y301352D01*
X19092Y301338D01*
X19088Y301330D01*
X19085Y301303D01*
X19063Y301187D01*
X19027Y300760D01*
X19029Y300737D01*
X19025Y300697D01*
X19025Y299923D01*
X19010Y299903D01*
X18993Y299846D01*
X18966Y299792D01*
X18958Y299751D01*
X18957Y299750D01*
X18957Y299749D01*
X18947Y299699D01*
X18938Y299668D01*
X18938Y299653D01*
X18933Y299628D01*
X18860Y298737D01*
X18862Y298708D01*
X18857Y298680D01*
X18872Y298586D01*
X18879Y298491D01*
X18890Y298465D01*
X18895Y298437D01*
X18939Y298340D01*
X18788Y297741D01*
X18785Y297709D01*
X18767Y297617D01*
X18716Y297008D01*
X18660Y296931D01*
X18598Y296859D01*
X18588Y296832D01*
X18571Y296809D01*
X18512Y296652D01*
X18261Y295661D01*
X18258Y295632D01*
X18249Y295605D01*
X18248Y295510D01*
X18240Y295416D01*
X18246Y295388D01*
X18246Y295359D01*
X18274Y295256D01*
X18026Y294691D01*
X18018Y294659D01*
X17985Y294572D01*
X17835Y293980D01*
X17834Y293979D01*
X17766Y293913D01*
X17694Y293852D01*
X17679Y293827D01*
X17658Y293807D01*
X17575Y293662D01*
X17164Y292725D01*
X17157Y292698D01*
X17143Y292673D01*
X17126Y292579D01*
X17103Y292487D01*
X17105Y292459D01*
X17100Y292430D01*
X17110Y292324D01*
X16772Y291807D01*
X16759Y291777D01*
X16712Y291697D01*
X16467Y291137D01*
X16466Y291137D01*
X16389Y291083D01*
X16307Y291034D01*
X16288Y291013D01*
X16265Y290996D01*
X16158Y290867D01*
X15599Y290011D01*
X15587Y289984D01*
X15569Y289962D01*
X15537Y289872D01*
X15499Y289786D01*
X15496Y289757D01*
X15487Y289730D01*
X15479Y289624D01*
X15061Y289170D01*
X15044Y289142D01*
X14984Y289070D01*
X14650Y288559D01*
X14649Y288559D01*
X14564Y288518D01*
X14475Y288484D01*
X14453Y288465D01*
X14427Y288453D01*
X14301Y288343D01*
X13608Y287591D01*
X13592Y287567D01*
X13571Y287547D01*
X13525Y287464D01*
X13473Y287385D01*
X13465Y287357D01*
X13451Y287332D01*
X13427Y287228D01*
X12940Y286849D01*
X12917Y286825D01*
X12847Y286764D01*
X12333Y286205D01*
X12330Y286202D01*
X12327Y286199D01*
X12262Y286098D01*
X12197Y286000D01*
X12196Y285996D01*
X12194Y285992D01*
X12165Y285877D01*
X12135Y285762D01*
X12135Y285758D01*
X12134Y285754D01*
X12143Y285636D01*
X12151Y285516D01*
X12153Y285513D01*
X12153Y285509D01*
X12200Y285400D01*
X12245Y285289D01*
X12248Y285286D01*
X12250Y285282D01*
X12354Y285151D01*
X13529Y283976D01*
X13530Y283976D01*
X15241Y282265D01*
X15241Y230836D01*
X13530Y229125D01*
X13529Y229125D01*
X-17271Y198325D01*
X-17310Y198270D01*
X-17357Y198221D01*
X-17382Y198171D01*
X-17415Y198125D01*
X-17434Y198060D01*
X-17464Y197999D01*
X-17470Y197944D01*
X-17487Y197890D01*
X-17485Y197822D01*
X-17493Y197755D01*
X-17481Y197677D01*
X-17481Y197644D01*
X-17473Y197624D01*
X-17468Y197589D01*
X-17288Y196918D01*
X-21076Y190357D01*
X-28393Y188396D01*
X-34954Y192184D01*
X-36915Y199502D01*
X-33127Y206062D01*
X-25809Y208023D01*
X-19310Y204270D01*
X-19269Y204255D01*
X-19232Y204231D01*
X-19154Y204212D01*
X-19080Y204183D01*
X-19036Y204182D01*
X-18993Y204171D01*
X-18914Y204177D01*
X-18834Y204174D01*
X-18792Y204187D01*
X-18748Y204190D01*
X-18675Y204221D01*
X-18598Y204244D01*
X-18562Y204269D01*
X-18522Y204286D01*
X-18408Y204377D01*
X-18397Y204385D01*
X-18395Y204388D01*
X-18391Y204391D01*
X9936Y232718D01*
X9989Y232792D01*
X10049Y232862D01*
X10061Y232892D01*
X10080Y232918D01*
X10107Y233005D01*
X10141Y233090D01*
X10145Y233131D01*
X10152Y233153D01*
X10151Y233185D01*
X10159Y233257D01*
X10159Y279845D01*
X10145Y279935D01*
X10137Y280026D01*
X10125Y280056D01*
X10120Y280088D01*
X10077Y280168D01*
X10041Y280252D01*
X10015Y280284D01*
X10004Y280305D01*
X9981Y280327D01*
X9936Y280383D01*
X7476Y282843D01*
X7391Y282904D01*
X7309Y282969D01*
X7288Y282979D01*
X7276Y282987D01*
X7246Y282996D01*
X7155Y283035D01*
X7106Y283049D01*
X7078Y283053D01*
X7051Y283063D01*
X6957Y283068D01*
X6862Y283080D01*
X6834Y283075D01*
X6806Y283076D01*
X6642Y283040D01*
X5675Y282707D01*
X5649Y282694D01*
X5622Y282687D01*
X5542Y282636D01*
X5458Y282591D01*
X5438Y282570D01*
X5414Y282555D01*
X5343Y282475D01*
X4734Y282374D01*
X4703Y282363D01*
X4612Y282343D01*
X4035Y282144D01*
X4034Y282145D01*
X3941Y282165D01*
X3850Y282193D01*
X3822Y282192D01*
X3794Y282198D01*
X3626Y282189D01*
X2617Y282020D01*
X2590Y282011D01*
X2562Y282009D01*
X2474Y281972D01*
X2385Y281941D01*
X2362Y281924D01*
X2335Y281913D01*
X2252Y281846D01*
X1635Y281846D01*
X1603Y281841D01*
X1509Y281835D01*
X907Y281735D01*
X906Y281735D01*
X818Y281771D01*
X733Y281813D01*
X705Y281817D01*
X678Y281827D01*
X511Y281846D01*
X-511Y281846D01*
X-540Y281841D01*
X-568Y281844D01*
X-661Y281821D01*
X-754Y281806D01*
X-779Y281793D01*
X-807Y281786D01*
X-901Y281734D01*
X-1509Y281835D01*
X-1542Y281836D01*
X-1635Y281846D01*
X-2246Y281846D01*
X-2327Y281896D01*
X-2404Y281951D01*
X-2432Y281960D01*
X-2456Y281975D01*
X-2617Y282020D01*
X-3626Y282189D01*
X-3655Y282189D01*
X-3683Y282196D01*
X-3777Y282189D01*
X-3872Y282189D01*
X-3899Y282180D01*
X-3928Y282178D01*
X-4029Y282142D01*
X-4612Y282343D01*
X-4644Y282348D01*
X-4734Y282374D01*
X-5337Y282474D01*
X-5337Y282475D01*
X-5409Y282537D01*
X-5476Y282604D01*
X-5501Y282617D01*
X-5523Y282636D01*
X-5675Y282707D01*
X-6642Y283040D01*
X-6670Y283044D01*
X-6696Y283056D01*
X-6791Y283065D01*
X-6885Y283081D01*
X-6913Y283076D01*
X-6941Y283079D01*
X-7047Y283060D01*
X-7589Y283354D01*
X-7620Y283365D01*
X-7705Y283404D01*
X-8282Y283603D01*
X-8283Y283603D01*
X-8343Y283676D01*
X-8398Y283754D01*
X-8421Y283771D01*
X-8440Y283793D01*
X-8577Y283888D01*
X-9477Y284375D01*
X-9504Y284385D01*
X-9528Y284400D01*
X-9620Y284425D01*
X-9709Y284456D01*
X-9738Y284456D01*
X-9766Y284463D01*
X-9872Y284462D01*
X-10359Y284841D01*
X-10388Y284857D01*
X-10465Y284910D01*
X-11002Y285201D01*
X-11050Y285283D01*
X-11091Y285369D01*
X-11111Y285389D01*
X-11126Y285414D01*
X-11246Y285531D01*
X-12053Y286159D01*
X-12078Y286173D01*
X-12099Y286192D01*
X-12186Y286232D01*
X-12269Y286277D01*
X-12297Y286282D01*
X-12323Y286294D01*
X-12429Y286310D01*
X-12847Y286764D01*
X-12873Y286784D01*
X-12940Y286849D01*
X-13422Y287224D01*
X-13422Y287225D01*
X-13455Y287314D01*
X-13482Y287405D01*
X-13498Y287429D01*
X-13509Y287455D01*
X-13608Y287591D01*
X-14301Y288343D01*
X-14323Y288361D01*
X-14341Y288383D01*
X-14419Y288436D01*
X-14494Y288495D01*
X-14521Y288504D01*
X-14545Y288520D01*
X-14647Y288553D01*
X-14984Y289070D01*
X-15006Y289094D01*
X-15061Y289169D01*
X-15475Y289619D01*
X-15475Y289620D01*
X-15493Y289713D01*
X-15505Y289807D01*
X-15517Y289833D01*
X-15523Y289861D01*
X-15599Y290011D01*
X-16158Y290867D01*
X-16177Y290888D01*
X-16191Y290913D01*
X-16260Y290978D01*
X-16324Y291048D01*
X-16349Y291062D01*
X-16370Y291082D01*
X-16465Y291131D01*
X-16712Y291697D01*
X-16730Y291724D01*
X-16772Y291807D01*
X-17107Y292319D01*
X-17106Y292319D01*
X-17109Y292414D01*
X-17105Y292509D01*
X-17113Y292537D01*
X-17114Y292565D01*
X-17164Y292725D01*
X-17575Y293662D01*
X-17590Y293686D01*
X-17599Y293713D01*
X-17657Y293789D01*
X-17708Y293868D01*
X-17731Y293886D01*
X-17748Y293909D01*
X-17833Y293973D01*
X-17985Y294572D01*
X-17998Y294602D01*
X-18026Y294691D01*
X-18271Y295250D01*
X-18271Y295251D01*
X-18258Y295345D01*
X-18238Y295438D01*
X-18242Y295466D01*
X-18238Y295495D01*
X-18261Y295661D01*
X-18512Y296652D01*
X-18523Y296679D01*
X-18528Y296707D01*
X-18572Y296791D01*
X-18610Y296878D01*
X-18629Y296899D01*
X-18643Y296924D01*
X-18716Y297002D01*
X-18767Y297617D01*
X-18775Y297649D01*
X-18788Y297741D01*
X-18938Y298333D01*
X-18937Y298334D01*
X-18909Y298425D01*
X-18874Y298513D01*
X-18873Y298542D01*
X-18864Y298569D01*
X-18860Y298737D01*
X-18933Y299628D01*
X-18948Y299686D01*
X-18953Y299746D01*
X-18978Y299804D01*
X-18980Y299815D01*
X-18983Y299825D01*
X-18983Y299826D01*
X-18993Y299866D01*
X-19025Y299915D01*
X-19025Y300697D01*
X-19028Y300720D01*
X-19027Y300760D01*
X-19063Y301187D01*
X-19090Y301295D01*
X-19113Y301404D01*
X-19120Y301415D01*
X-19122Y301426D01*
X-19182Y301520D01*
X-19240Y301616D01*
X-19249Y301623D01*
X-19255Y301633D01*
X-19342Y301703D01*
X-19427Y301775D01*
X-19438Y301780D01*
X-19447Y301787D01*
X-19551Y301826D01*
X-19655Y301867D01*
X-19669Y301869D01*
X-19678Y301872D01*
X-19705Y301873D01*
X-19821Y301886D01*
X-86980Y301886D01*
X-87046Y301875D01*
X-87114Y301874D01*
X-87167Y301855D01*
X-87223Y301846D01*
X-87282Y301815D01*
X-87346Y301792D01*
X-87390Y301757D01*
X-87440Y301731D01*
X-87486Y301682D01*
X-87540Y301640D01*
X-87587Y301577D01*
X-87609Y301553D01*
X-87618Y301534D01*
X-87639Y301505D01*
X-121072Y243599D01*
X-121111Y243496D01*
X-121154Y243393D01*
X-121154Y243380D01*
X-121159Y243369D01*
X-121163Y243258D01*
X-121170Y243147D01*
X-121167Y243136D01*
X-121168Y243123D01*
X-121136Y243016D01*
X-121108Y242909D01*
X-121101Y242899D01*
X-121098Y242887D01*
X-121034Y242796D01*
X-120995Y242737D01*
X-120986Y242722D01*
X-120984Y242720D01*
X-120973Y242704D01*
X-120962Y242694D01*
X-120957Y242686D01*
X-120935Y242670D01*
X-120847Y242593D01*
X-120340Y242241D01*
X-120319Y242231D01*
X-120287Y242208D01*
X-119617Y241820D01*
X-119607Y241798D01*
X-119566Y241754D01*
X-119533Y241703D01*
X-119461Y241641D01*
X-119439Y241617D01*
X-119425Y241610D01*
X-119406Y241593D01*
X-118675Y241085D01*
X-118649Y241073D01*
X-118627Y241054D01*
X-118538Y241020D01*
X-118453Y240979D01*
X-118424Y240976D01*
X-118397Y240965D01*
X-118291Y240955D01*
X-117849Y240524D01*
X-117822Y240506D01*
X-117752Y240444D01*
X-117250Y240096D01*
X-117250Y240095D01*
X-117212Y240008D01*
X-117180Y239919D01*
X-117162Y239896D01*
X-117151Y239870D01*
X-117044Y239741D01*
X-116314Y239029D01*
X-116290Y239013D01*
X-116272Y238991D01*
X-116190Y238943D01*
X-116112Y238888D01*
X-116085Y238880D01*
X-116060Y238866D01*
X-115957Y238838D01*
X-115592Y238340D01*
X-115569Y238317D01*
X-115509Y238245D01*
X-115072Y237819D01*
X-115072Y237818D01*
X-115048Y237726D01*
X-115032Y237633D01*
X-115024Y237618D01*
X-115021Y237604D01*
X-115014Y237594D01*
X-115011Y237580D01*
X-114927Y237435D01*
X-114324Y236613D01*
X-114303Y236593D01*
X-114289Y236568D01*
X-114216Y236507D01*
X-114148Y236441D01*
X-114122Y236428D01*
X-114101Y236410D01*
X-114003Y236365D01*
X-113725Y235814D01*
X-113706Y235788D01*
X-113659Y235707D01*
X-113298Y235215D01*
X-113298Y235214D01*
X-113290Y235119D01*
X-113289Y235024D01*
X-113280Y234997D01*
X-113277Y234969D01*
X-113218Y234812D01*
X-112759Y233902D01*
X-112742Y233878D01*
X-112731Y233852D01*
X-112670Y233780D01*
X-112614Y233703D01*
X-112590Y233686D01*
X-112572Y233665D01*
X-112483Y233605D01*
X-112299Y233016D01*
X-112285Y232986D01*
X-112252Y232899D01*
X-111977Y232354D01*
X-111977Y232353D01*
X-111985Y232258D01*
X-111999Y232165D01*
X-111994Y232137D01*
X-111997Y232108D01*
X-111965Y231943D01*
X-111661Y230970D01*
X-111648Y230944D01*
X-111642Y230916D01*
X-111593Y230835D01*
X-111551Y230750D01*
X-111530Y230730D01*
X-111516Y230705D01*
X-111438Y230632D01*
X-111354Y230020D01*
X-111344Y229989D01*
X-111326Y229898D01*
X-111144Y229314D01*
X-111145Y229314D01*
X-111168Y229222D01*
X-111198Y229132D01*
X-111198Y229103D01*
X-111205Y229075D01*
X-111200Y228908D01*
X-111061Y227898D01*
X-111052Y227870D01*
X-111051Y227842D01*
X-111016Y227753D01*
X-110988Y227663D01*
X-110972Y227639D01*
X-110961Y227613D01*
X-110897Y227527D01*
X-110914Y226910D01*
X-110910Y226878D01*
X-110907Y226785D01*
X-110824Y226180D01*
X-110824Y226179D01*
X-110862Y226092D01*
X-110907Y226008D01*
X-110911Y225980D01*
X-110923Y225954D01*
X-110946Y225787D01*
X-110975Y224768D01*
X-110971Y224740D01*
X-110974Y224711D01*
X-110954Y224618D01*
X-110942Y224525D01*
X-110929Y224499D01*
X-110923Y224471D01*
X-110874Y224376D01*
X-110992Y223771D01*
X-110993Y223738D01*
X-111006Y223646D01*
X-111024Y223035D01*
X-111024Y223034D01*
X-111076Y222955D01*
X-111133Y222879D01*
X-111143Y222852D01*
X-111158Y222828D01*
X-111208Y222668D01*
X-111405Y221668D01*
X-111405Y221639D01*
X-111413Y221611D01*
X-111409Y221516D01*
X-111412Y221422D01*
X-111404Y221394D01*
X-111403Y221366D01*
X-111370Y221264D01*
X-111586Y220686D01*
X-111593Y220654D01*
X-111621Y220565D01*
X-111738Y219966D01*
X-111739Y219965D01*
X-111803Y219895D01*
X-111872Y219830D01*
X-111886Y219805D01*
X-111905Y219784D01*
X-111981Y219634D01*
X-112339Y218680D01*
X-112345Y218652D01*
X-112357Y218626D01*
X-112369Y218532D01*
X-112387Y218439D01*
X-112384Y218410D01*
X-112387Y218382D01*
X-112371Y218276D01*
X-112680Y217742D01*
X-112691Y217711D01*
X-112734Y217628D01*
X-112948Y217056D01*
X-112949Y217056D01*
X-113024Y216997D01*
X-113103Y216945D01*
X-113120Y216922D01*
X-113143Y216904D01*
X-113242Y216769D01*
X-113753Y215887D01*
X-113763Y215860D01*
X-113779Y215836D01*
X-113806Y215746D01*
X-113840Y215657D01*
X-113841Y215628D01*
X-113849Y215601D01*
X-113850Y215494D01*
X-114243Y215018D01*
X-114259Y214990D01*
X-114315Y214914D01*
X-114621Y214385D01*
X-114622Y214385D01*
X-114705Y214340D01*
X-114791Y214301D01*
X-114812Y214281D01*
X-114838Y214268D01*
X-114958Y214151D01*
X-115607Y213364D01*
X-115621Y213340D01*
X-115641Y213319D01*
X-115683Y213234D01*
X-115730Y213152D01*
X-115736Y213124D01*
X-115749Y213098D01*
X-115768Y212993D01*
X-116234Y212588D01*
X-116254Y212563D01*
X-116321Y212498D01*
X-116710Y212026D01*
X-116711Y212026D01*
X-116800Y211995D01*
X-116892Y211971D01*
X-116916Y211955D01*
X-116943Y211946D01*
X-117081Y211851D01*
X-117850Y211181D01*
X-117869Y211159D01*
X-117892Y211143D01*
X-117947Y211065D01*
X-118007Y210992D01*
X-118018Y210965D01*
X-118034Y210942D01*
X-118071Y210842D01*
X-118404Y210637D01*
X-118486Y210566D01*
X-118571Y210498D01*
X-118579Y210485D01*
X-118590Y210476D01*
X-118645Y210382D01*
X-118704Y210291D01*
X-118708Y210277D01*
X-118715Y210264D01*
X-118738Y210158D01*
X-118764Y210052D01*
X-118763Y210038D01*
X-118766Y210024D01*
X-118754Y209915D01*
X-118745Y209807D01*
X-118740Y209794D01*
X-118738Y209779D01*
X-118691Y209680D01*
X-118649Y209581D01*
X-118638Y209567D01*
X-118633Y209557D01*
X-118613Y209535D01*
X-118544Y209450D01*
X-96008Y186914D01*
X-95934Y186861D01*
X-95865Y186801D01*
X-95835Y186789D01*
X-95808Y186770D01*
X-95721Y186743D01*
X-95637Y186709D01*
X-95596Y186705D01*
X-95573Y186698D01*
X-95541Y186699D01*
X-95470Y186691D01*
X-76735Y186691D01*
X-69021Y178976D01*
X-68947Y178923D01*
X-68877Y178864D01*
X-68847Y178851D01*
X-68821Y178833D01*
X-68734Y178806D01*
X-68649Y178772D01*
X-68608Y178767D01*
X-68586Y178760D01*
X-68554Y178761D01*
X-68482Y178753D01*
X-65333Y178753D01*
X-65285Y178761D01*
X-65237Y178759D01*
X-65164Y178781D01*
X-65090Y178793D01*
X-65047Y178815D01*
X-65001Y178829D01*
X-64939Y178873D01*
X-64872Y178908D01*
X-64839Y178943D01*
X-64800Y178970D01*
X-64755Y179031D01*
X-64703Y179086D01*
X-64683Y179130D01*
X-64654Y179169D01*
X-64631Y179241D01*
X-64599Y179309D01*
X-64594Y179357D01*
X-64580Y179403D01*
X-64581Y179479D01*
X-64572Y179554D01*
X-64583Y179601D01*
X-64583Y179649D01*
X-64608Y179720D01*
X-64625Y179794D01*
X-64649Y179835D01*
X-64665Y179881D01*
X-64712Y179940D01*
X-64751Y180005D01*
X-64787Y180037D01*
X-64817Y180074D01*
X-64921Y180151D01*
X-64938Y180165D01*
X-64944Y180168D01*
X-64952Y180174D01*
X-69651Y182887D01*
X-71612Y190205D01*
X-67824Y196765D01*
X-60506Y198726D01*
X-53946Y194938D01*
X-51985Y187620D01*
X-55773Y181060D01*
X-58796Y180250D01*
X-58818Y180240D01*
X-58842Y180236D01*
X-58929Y180190D01*
X-59020Y180149D01*
X-59038Y180132D01*
X-59059Y180121D01*
X-59127Y180049D01*
X-59200Y179981D01*
X-59212Y179960D01*
X-59228Y179943D01*
X-59270Y179852D01*
X-59318Y179765D01*
X-59322Y179741D01*
X-59332Y179719D01*
X-59343Y179621D01*
X-59360Y179523D01*
X-59356Y179499D01*
X-59359Y179475D01*
X-59338Y179378D01*
X-59323Y179280D01*
X-59312Y179258D01*
X-59307Y179235D01*
X-59256Y179149D01*
X-59210Y179061D01*
X-59193Y179044D01*
X-59181Y179024D01*
X-59105Y178959D01*
X-59034Y178890D01*
X-59012Y178879D01*
X-58994Y178864D01*
X-58901Y178826D01*
X-58812Y178784D01*
X-58788Y178781D01*
X-58766Y178772D01*
X-58599Y178753D01*
X-49333Y178753D01*
X-49267Y178764D01*
X-49199Y178765D01*
X-49146Y178784D01*
X-49091Y178793D01*
X-49031Y178825D01*
X-48967Y178847D01*
X-48923Y178882D01*
X-48873Y178908D01*
X-48827Y178957D01*
X-48774Y178999D01*
X-48727Y179063D01*
X-48704Y179086D01*
X-48695Y179105D01*
X-48674Y179134D01*
X-45827Y184065D01*
X-38509Y186026D01*
X-31949Y182238D01*
X-29988Y174920D01*
X-33776Y168360D01*
X-41093Y166399D01*
X-47654Y170187D01*
X-48437Y173108D01*
X-48455Y173147D01*
X-48464Y173190D01*
X-48505Y173259D01*
X-48538Y173332D01*
X-48568Y173364D01*
X-48590Y173401D01*
X-48651Y173453D01*
X-48705Y173512D01*
X-48744Y173533D01*
X-48777Y173561D01*
X-48851Y173591D01*
X-48922Y173629D01*
X-48965Y173637D01*
X-49005Y173653D01*
X-49150Y173669D01*
X-49164Y173672D01*
X-49167Y173671D01*
X-49172Y173672D01*
X-65849Y173672D01*
X-65967Y173653D01*
X-66084Y173635D01*
X-66088Y173633D01*
X-66092Y173632D01*
X-66198Y173576D01*
X-66303Y173522D01*
X-66306Y173519D01*
X-66310Y173517D01*
X-66392Y173431D01*
X-66474Y173345D01*
X-66476Y173342D01*
X-66479Y173339D01*
X-66529Y173231D01*
X-66580Y173123D01*
X-66581Y173119D01*
X-66583Y173116D01*
X-66596Y172998D01*
X-66610Y172879D01*
X-66609Y172874D01*
X-66610Y172871D01*
X-66607Y172858D01*
X-66585Y172713D01*
X-64685Y165623D01*
X-68473Y159063D01*
X-75791Y157102D01*
X-82351Y160890D01*
X-84312Y168207D01*
X-80524Y174768D01*
X-75074Y176229D01*
X-74987Y176268D01*
X-74898Y176300D01*
X-74876Y176318D01*
X-74850Y176330D01*
X-74780Y176395D01*
X-74706Y176454D01*
X-74690Y176478D01*
X-74670Y176497D01*
X-74624Y176581D01*
X-74573Y176661D01*
X-74566Y176688D01*
X-74552Y176713D01*
X-74536Y176807D01*
X-74512Y176900D01*
X-74515Y176928D01*
X-74510Y176956D01*
X-74524Y177050D01*
X-74532Y177145D01*
X-74543Y177171D01*
X-74547Y177199D01*
X-74591Y177283D01*
X-74628Y177371D01*
X-74650Y177399D01*
X-74660Y177417D01*
X-74683Y177440D01*
X-74705Y177468D01*
X-74710Y177475D01*
X-74714Y177479D01*
X-74733Y177502D01*
X-78617Y181386D01*
X-78691Y181439D01*
X-78760Y181499D01*
X-78790Y181511D01*
X-78817Y181530D01*
X-78904Y181557D01*
X-78989Y181591D01*
X-79029Y181595D01*
X-79052Y181602D01*
X-79084Y181601D01*
X-79155Y181609D01*
X-97890Y181609D01*
X-99601Y183320D01*
X-99601Y183321D01*
X-123672Y207391D01*
X-123764Y207457D01*
X-123855Y207526D01*
X-123864Y207529D01*
X-123871Y207535D01*
X-123980Y207568D01*
X-124088Y207604D01*
X-124098Y207604D01*
X-124106Y207607D01*
X-124220Y207604D01*
X-124334Y207604D01*
X-124345Y207601D01*
X-124352Y207601D01*
X-124375Y207592D01*
X-124496Y207558D01*
X-124861Y207410D01*
X-124862Y207411D01*
X-124956Y207426D01*
X-125048Y207448D01*
X-125076Y207446D01*
X-125105Y207451D01*
X-125271Y207432D01*
X-126266Y207210D01*
X-126293Y207199D01*
X-126321Y207195D01*
X-126406Y207154D01*
X-126495Y207118D01*
X-126516Y207100D01*
X-126542Y207087D01*
X-126622Y207016D01*
X-127238Y206982D01*
X-127270Y206975D01*
X-127363Y206965D01*
X-127959Y206832D01*
X-128049Y206863D01*
X-128137Y206900D01*
X-128165Y206902D01*
X-128192Y206912D01*
X-128360Y206921D01*
X-129378Y206866D01*
X-129406Y206859D01*
X-129434Y206860D01*
X-129525Y206833D01*
X-129618Y206813D01*
X-129642Y206798D01*
X-129670Y206790D01*
X-129760Y206733D01*
X-130374Y206801D01*
X-130406Y206799D01*
X-130499Y206804D01*
X-131109Y206771D01*
X-131110Y206772D01*
X-131194Y206817D01*
X-131274Y206868D01*
X-131301Y206875D01*
X-131327Y206888D01*
X-131490Y206925D01*
X-132503Y207038D01*
X-132532Y207036D01*
X-132560Y207042D01*
X-132654Y207030D01*
X-132749Y207025D01*
X-132776Y207015D01*
X-132804Y207011D01*
X-132903Y206970D01*
X-133497Y207138D01*
X-133529Y207142D01*
X-133620Y207162D01*
X-134227Y207230D01*
X-134227Y207231D01*
X-134302Y207289D01*
X-134373Y207352D01*
X-134399Y207364D01*
X-134422Y207381D01*
X-134577Y207444D01*
X-135558Y207723D01*
X-135587Y207726D01*
X-135613Y207736D01*
X-135708Y207740D01*
X-135802Y207751D01*
X-135830Y207745D01*
X-135859Y207746D01*
X-135963Y207721D01*
X-136521Y207985D01*
X-136552Y207994D01*
X-136639Y208029D01*
X-137227Y208196D01*
X-137291Y208266D01*
X-137350Y208340D01*
X-137374Y208356D01*
X-137394Y208377D01*
X-137537Y208465D01*
X-138342Y208846D01*
X-138400Y208862D01*
X-138454Y208888D01*
X-138517Y208896D01*
X-138578Y208913D01*
X-138637Y208911D01*
X-139314Y209302D01*
X-139335Y209310D01*
X-139369Y209331D01*
X-139904Y209584D01*
X-140011Y209615D01*
X-140118Y209649D01*
X-140129Y209649D01*
X-140140Y209652D01*
X-140252Y209647D01*
X-140364Y209645D01*
X-140374Y209641D01*
X-140386Y209641D01*
X-140491Y209600D01*
X-140595Y209563D01*
X-140605Y209556D01*
X-140615Y209552D01*
X-140701Y209480D01*
X-140789Y209411D01*
X-140797Y209400D01*
X-140804Y209394D01*
X-140819Y209372D01*
X-140889Y209276D01*
X-174240Y151511D01*
X-174264Y151447D01*
X-174297Y151388D01*
X-174307Y151333D01*
X-174327Y151281D01*
X-174330Y151213D01*
X-174342Y151147D01*
X-174334Y151091D01*
X-174336Y151035D01*
X-174317Y150970D01*
X-174308Y150903D01*
X-174276Y150831D01*
X-174267Y150799D01*
X-174255Y150782D01*
X-174240Y150749D01*
X-140601Y92485D01*
X-140530Y92399D01*
X-140462Y92310D01*
X-140452Y92303D01*
X-140445Y92294D01*
X-140350Y92235D01*
X-140257Y92173D01*
X-140246Y92170D01*
X-140236Y92164D01*
X-140128Y92138D01*
X-140020Y92108D01*
X-140009Y92109D01*
X-139997Y92106D01*
X-139886Y92116D01*
X-139775Y92123D01*
X-139761Y92127D01*
X-139752Y92128D01*
X-139728Y92139D01*
X-139616Y92177D01*
X-139369Y92294D01*
X-139350Y92307D01*
X-139314Y92323D01*
X-138644Y92710D01*
X-138619Y92708D01*
X-138561Y92721D01*
X-138501Y92725D01*
X-138411Y92756D01*
X-138379Y92763D01*
X-138366Y92771D01*
X-138342Y92779D01*
X-137537Y93160D01*
X-137513Y93176D01*
X-137486Y93186D01*
X-137412Y93246D01*
X-137334Y93300D01*
X-137317Y93323D01*
X-137295Y93341D01*
X-137233Y93428D01*
X-136639Y93596D01*
X-136609Y93610D01*
X-136521Y93640D01*
X-135969Y93901D01*
X-135968Y93901D01*
X-135874Y93891D01*
X-135780Y93874D01*
X-135752Y93878D01*
X-135724Y93875D01*
X-135558Y93902D01*
X-134577Y94181D01*
X-134551Y94193D01*
X-134523Y94198D01*
X-134440Y94245D01*
X-134355Y94285D01*
X-134334Y94305D01*
X-134309Y94319D01*
X-134233Y94394D01*
X-133620Y94463D01*
X-133589Y94471D01*
X-133497Y94487D01*
X-132909Y94654D01*
X-132908Y94653D01*
X-132817Y94628D01*
X-132728Y94595D01*
X-132699Y94595D01*
X-132671Y94587D01*
X-132503Y94587D01*
X-131490Y94700D01*
X-131463Y94708D01*
X-131434Y94708D01*
X-131345Y94741D01*
X-131253Y94766D01*
X-131230Y94782D01*
X-131203Y94792D01*
X-131116Y94854D01*
X-130499Y94821D01*
X-130467Y94824D01*
X-130374Y94824D01*
X-129767Y94892D01*
X-129766Y94891D01*
X-129749Y94883D01*
X-129745Y94880D01*
X-129719Y94869D01*
X-129680Y94851D01*
X-129597Y94805D01*
X-129569Y94799D01*
X-129543Y94787D01*
X-129378Y94759D01*
X-128360Y94704D01*
X-128331Y94707D01*
X-128303Y94703D01*
X-128210Y94720D01*
X-128115Y94730D01*
X-128089Y94742D01*
X-128061Y94748D01*
X-127965Y94795D01*
X-127363Y94660D01*
X-127330Y94658D01*
X-127238Y94643D01*
X-126628Y94610D01*
X-126628Y94609D01*
X-126549Y94555D01*
X-126476Y94496D01*
X-126448Y94486D01*
X-126425Y94469D01*
X-126266Y94415D01*
X-125271Y94193D01*
X-125243Y94191D01*
X-125215Y94182D01*
X-125121Y94184D01*
X-125026Y94179D01*
X-124998Y94186D01*
X-124969Y94187D01*
X-124867Y94217D01*
X-124295Y93985D01*
X-124263Y93978D01*
X-124175Y93948D01*
X-123579Y93815D01*
X-123578Y93814D01*
X-123510Y93748D01*
X-123447Y93677D01*
X-123422Y93663D01*
X-123402Y93643D01*
X-123254Y93563D01*
X-122309Y93180D01*
X-122281Y93174D01*
X-122256Y93161D01*
X-122162Y93147D01*
X-122069Y93126D01*
X-122041Y93129D01*
X-122012Y93125D01*
X-121906Y93138D01*
X-121380Y92815D01*
X-121350Y92803D01*
X-121268Y92758D01*
X-120702Y92529D01*
X-120702Y92528D01*
X-120645Y92452D01*
X-120595Y92371D01*
X-120572Y92353D01*
X-120555Y92330D01*
X-120423Y92227D01*
X-119554Y91694D01*
X-119528Y91683D01*
X-119504Y91666D01*
X-119414Y91637D01*
X-119326Y91601D01*
X-119298Y91599D01*
X-119270Y91590D01*
X-119164Y91586D01*
X-118698Y91181D01*
X-118670Y91164D01*
X-118597Y91106D01*
X-118076Y90787D01*
X-118076Y90786D01*
X-118033Y90701D01*
X-117996Y90614D01*
X-117977Y90592D01*
X-117964Y90567D01*
X-117850Y90444D01*
X-117081Y89774D01*
X-117057Y89759D01*
X-117037Y89739D01*
X-116953Y89695D01*
X-116872Y89645D01*
X-116844Y89639D01*
X-116819Y89625D01*
X-116714Y89604D01*
X-116321Y89127D01*
X-116297Y89106D01*
X-116234Y89037D01*
X-115773Y88636D01*
X-115744Y88545D01*
X-115722Y88453D01*
X-115707Y88428D01*
X-115698Y88401D01*
X-115607Y88261D01*
X-114958Y87474D01*
X-114936Y87455D01*
X-114920Y87432D01*
X-114844Y87375D01*
X-114773Y87312D01*
X-114746Y87301D01*
X-114723Y87284D01*
X-114624Y87245D01*
X-114315Y86711D01*
X-114294Y86685D01*
X-114243Y86607D01*
X-113855Y86136D01*
X-113855Y86135D01*
X-113841Y86041D01*
X-113835Y85947D01*
X-113824Y85920D01*
X-113820Y85892D01*
X-113753Y85738D01*
X-113242Y84856D01*
X-113224Y84834D01*
X-113212Y84808D01*
X-113146Y84739D01*
X-113086Y84665D01*
X-113062Y84650D01*
X-113042Y84629D01*
X-112950Y84575D01*
X-112734Y83997D01*
X-112717Y83969D01*
X-112680Y83883D01*
X-112374Y83354D01*
X-112377Y83259D01*
X-112386Y83164D01*
X-112380Y83136D01*
X-112380Y83108D01*
X-112339Y82945D01*
X-112115Y82347D01*
X-112111Y82341D01*
X-112110Y82335D01*
X-112050Y82234D01*
X-111992Y82134D01*
X-111987Y82129D01*
X-111984Y82124D01*
X-111895Y82047D01*
X-111808Y81971D01*
X-111802Y81968D01*
X-111797Y81964D01*
X-111688Y81920D01*
X-111582Y81875D01*
X-111575Y81874D01*
X-111569Y81872D01*
X-111402Y81853D01*
X-85568Y81853D01*
X-85478Y81868D01*
X-85387Y81875D01*
X-85357Y81888D01*
X-85325Y81893D01*
X-85244Y81936D01*
X-85160Y81971D01*
X-85128Y81997D01*
X-85108Y82008D01*
X-85085Y82031D01*
X-85029Y82076D01*
X-55265Y111840D01*
X-55212Y111914D01*
X-55153Y111984D01*
X-55140Y112014D01*
X-55122Y112040D01*
X-55095Y112127D01*
X-55061Y112212D01*
X-55056Y112253D01*
X-55049Y112275D01*
X-55050Y112307D01*
X-55042Y112379D01*
X-55042Y144683D01*
X-55053Y144750D01*
X-55054Y144818D01*
X-55073Y144871D01*
X-55082Y144926D01*
X-55114Y144986D01*
X-55136Y145050D01*
X-55171Y145094D01*
X-55197Y145144D01*
X-55246Y145190D01*
X-55288Y145243D01*
X-55352Y145290D01*
X-55375Y145313D01*
X-55394Y145322D01*
X-55423Y145343D01*
X-60354Y148190D01*
X-62315Y155507D01*
X-58527Y162068D01*
X-51209Y164029D01*
X-44649Y160241D01*
X-42688Y152923D01*
X-46476Y146363D01*
X-49397Y145580D01*
X-49436Y145562D01*
X-49479Y145553D01*
X-49548Y145512D01*
X-49621Y145479D01*
X-49653Y145449D01*
X-49690Y145427D01*
X-49742Y145366D01*
X-49801Y145311D01*
X-49822Y145273D01*
X-49850Y145240D01*
X-49880Y145165D01*
X-49918Y145095D01*
X-49926Y145052D01*
X-49942Y145012D01*
X-49958Y144867D01*
X-49961Y144853D01*
X-49960Y144850D01*
X-49961Y144845D01*
X-49961Y109959D01*
X-83148Y76772D01*
X-110189Y76772D01*
X-110219Y76767D01*
X-110250Y76769D01*
X-110340Y76747D01*
X-110432Y76732D01*
X-110459Y76718D01*
X-110489Y76710D01*
X-110567Y76660D01*
X-110649Y76617D01*
X-110670Y76595D01*
X-110696Y76578D01*
X-110755Y76506D01*
X-110819Y76439D01*
X-110832Y76411D01*
X-110851Y76387D01*
X-110883Y76300D01*
X-110922Y76216D01*
X-110926Y76185D01*
X-110936Y76156D01*
X-110950Y75989D01*
X-110946Y75838D01*
X-110940Y75810D01*
X-110942Y75781D01*
X-110917Y75689D01*
X-110899Y75596D01*
X-110885Y75571D01*
X-110878Y75543D01*
X-110823Y75452D01*
X-110907Y74840D01*
X-110906Y74808D01*
X-110914Y74715D01*
X-110897Y74104D01*
X-110898Y74103D01*
X-110945Y74021D01*
X-110998Y73942D01*
X-111006Y73915D01*
X-111020Y73890D01*
X-111061Y73727D01*
X-111200Y72717D01*
X-111200Y72689D01*
X-111206Y72661D01*
X-111196Y72567D01*
X-111194Y72472D01*
X-111184Y72445D01*
X-111181Y72416D01*
X-111142Y72317D01*
X-111326Y71727D01*
X-111331Y71695D01*
X-111354Y71605D01*
X-111437Y70999D01*
X-111438Y70999D01*
X-111498Y70926D01*
X-111563Y70857D01*
X-111576Y70831D01*
X-111594Y70809D01*
X-111661Y70655D01*
X-111965Y69682D01*
X-111969Y69653D01*
X-111980Y69627D01*
X-111986Y69532D01*
X-111999Y69438D01*
X-111994Y69410D01*
X-111996Y69381D01*
X-111974Y69277D01*
X-112252Y68726D01*
X-112262Y68695D01*
X-112299Y68609D01*
X-112481Y68026D01*
X-112482Y68026D01*
X-112542Y67974D01*
X-112547Y67971D01*
X-112556Y67961D01*
X-112629Y67906D01*
X-112645Y67883D01*
X-112667Y67864D01*
X-112707Y67802D01*
X-112717Y67792D01*
X-112724Y67776D01*
X-112759Y67723D01*
X-113218Y66813D01*
X-113227Y66786D01*
X-113242Y66762D01*
X-113264Y66669D01*
X-113292Y66579D01*
X-113292Y66550D01*
X-113298Y66522D01*
X-113294Y66415D01*
X-113659Y65918D01*
X-113674Y65889D01*
X-113725Y65811D01*
X-114000Y65265D01*
X-114001Y65265D01*
X-114082Y65215D01*
X-114166Y65171D01*
X-114186Y65151D01*
X-114210Y65136D01*
X-114324Y65012D01*
X-114927Y64190D01*
X-114940Y64165D01*
X-114959Y64143D01*
X-114996Y64056D01*
X-115039Y63971D01*
X-115043Y63943D01*
X-115054Y63916D01*
X-115067Y63810D01*
X-115509Y63380D01*
X-115529Y63354D01*
X-115592Y63285D01*
X-115953Y62792D01*
X-115954Y62792D01*
X-116040Y62757D01*
X-116041Y62757D01*
X-116043Y62756D01*
X-116132Y62727D01*
X-116155Y62710D01*
X-116182Y62699D01*
X-116247Y62648D01*
X-116258Y62642D01*
X-116269Y62631D01*
X-116314Y62596D01*
X-117044Y61884D01*
X-117061Y61861D01*
X-117084Y61843D01*
X-117134Y61763D01*
X-117190Y61687D01*
X-117199Y61659D01*
X-117215Y61635D01*
X-117245Y61533D01*
X-117752Y61181D01*
X-117775Y61158D01*
X-117849Y61101D01*
X-118287Y60674D01*
X-118380Y60653D01*
X-118474Y60639D01*
X-118499Y60626D01*
X-118527Y60620D01*
X-118675Y60540D01*
X-119406Y60032D01*
X-119450Y59990D01*
X-119499Y59956D01*
X-119537Y59905D01*
X-119583Y59861D01*
X-119610Y59809D01*
X-120287Y59418D01*
X-120304Y59403D01*
X-120340Y59384D01*
X-120585Y59213D01*
X-120665Y59136D01*
X-120747Y59061D01*
X-120753Y59051D01*
X-120762Y59042D01*
X-120813Y58944D01*
X-120867Y58846D01*
X-120869Y58835D01*
X-120875Y58824D01*
X-120892Y58713D01*
X-120912Y58605D01*
X-120910Y58593D01*
X-120912Y58581D01*
X-120893Y58471D01*
X-120877Y58361D01*
X-120872Y58348D01*
X-120870Y58338D01*
X-120857Y58315D01*
X-120810Y58208D01*
X-87639Y755D01*
X-87596Y703D01*
X-87562Y644D01*
X-87519Y608D01*
X-87483Y564D01*
X-87426Y529D01*
X-87375Y485D01*
X-87322Y464D01*
X-87275Y434D01*
X-87209Y418D01*
X-87146Y393D01*
X-87068Y384D01*
X-87036Y376D01*
X-87015Y378D01*
X-86980Y374D01*
X-86820Y374D01*
X-86764Y341D01*
X-86740Y337D01*
X-86722Y328D01*
X-86677Y326D01*
X-86600Y313D01*
X-67600Y313D01*
X-67572Y319D01*
G37*
G36*
X17029Y319D02*
X17029Y319D01*
X17058Y317D01*
X17125Y339D01*
X17195Y353D01*
X17219Y369D01*
X17247Y378D01*
X17300Y425D01*
X17359Y465D01*
X17375Y490D01*
X17397Y509D01*
X17428Y573D01*
X17466Y633D01*
X17471Y662D01*
X17483Y688D01*
X17492Y787D01*
X17499Y829D01*
X17496Y840D01*
X17498Y854D01*
X17266Y3652D01*
X17256Y3685D01*
X17252Y3733D01*
X16563Y6455D01*
X16548Y6486D01*
X16536Y6533D01*
X15408Y9104D01*
X15388Y9132D01*
X15369Y9177D01*
X13833Y11527D01*
X13809Y11552D01*
X13783Y11592D01*
X11881Y13658D01*
X11853Y13678D01*
X11820Y13714D01*
X9605Y15438D01*
X9574Y15454D01*
X9536Y15483D01*
X7066Y16820D01*
X7033Y16830D01*
X6991Y16853D01*
X5805Y17260D01*
X4351Y17759D01*
X4335Y17765D01*
X4301Y17769D01*
X4255Y17785D01*
X1486Y18247D01*
X1451Y18246D01*
X1404Y18254D01*
X-1404Y18254D01*
X-1438Y18247D01*
X-1486Y18247D01*
X-4255Y17785D01*
X-4288Y17772D01*
X-4335Y17765D01*
X-6991Y16853D01*
X-7021Y16835D01*
X-7066Y16820D01*
X-9536Y15483D01*
X-9562Y15461D01*
X-9605Y15438D01*
X-11820Y13714D01*
X-11843Y13687D01*
X-11881Y13658D01*
X-13783Y11592D01*
X-13801Y11563D01*
X-13833Y11527D01*
X-15369Y9177D01*
X-15382Y9144D01*
X-15408Y9104D01*
X-16536Y6533D01*
X-16543Y6499D01*
X-16546Y6493D01*
X-16552Y6484D01*
X-16553Y6478D01*
X-16563Y6455D01*
X-17252Y3733D01*
X-17254Y3698D01*
X-17266Y3652D01*
X-17498Y854D01*
X-17494Y825D01*
X-17499Y796D01*
X-17483Y727D01*
X-17474Y656D01*
X-17460Y631D01*
X-17453Y603D01*
X-17411Y545D01*
X-17376Y484D01*
X-17352Y466D01*
X-17335Y442D01*
X-17274Y406D01*
X-17217Y363D01*
X-17189Y356D01*
X-17164Y341D01*
X-17066Y324D01*
X-17025Y314D01*
X-17014Y316D01*
X-17000Y313D01*
X17000Y313D01*
X17029Y319D01*
G37*
G36*
X1438Y283378D02*
X1438Y283378D01*
X1486Y283378D01*
X4255Y283840D01*
X4288Y283853D01*
X4335Y283861D01*
X6991Y284772D01*
X7021Y284790D01*
X7066Y284805D01*
X9536Y286142D01*
X9562Y286164D01*
X9605Y286187D01*
X11820Y287911D01*
X11843Y287938D01*
X11881Y287967D01*
X13783Y290033D01*
X13801Y290062D01*
X13833Y290098D01*
X15369Y292448D01*
X15382Y292481D01*
X15408Y292521D01*
X16536Y295092D01*
X16543Y295126D01*
X16563Y295170D01*
X17252Y297892D01*
X17254Y297927D01*
X17266Y297973D01*
X17498Y300771D01*
X17494Y300800D01*
X17499Y300829D01*
X17483Y300898D01*
X17474Y300969D01*
X17460Y300994D01*
X17453Y301022D01*
X17411Y301080D01*
X17376Y301141D01*
X17352Y301159D01*
X17335Y301183D01*
X17274Y301219D01*
X17217Y301262D01*
X17189Y301269D01*
X17164Y301284D01*
X17066Y301301D01*
X17025Y301311D01*
X17014Y301309D01*
X17000Y301312D01*
X-17000Y301312D01*
X-17029Y301306D01*
X-17058Y301308D01*
X-17125Y301286D01*
X-17195Y301272D01*
X-17219Y301256D01*
X-17247Y301247D01*
X-17300Y301200D01*
X-17359Y301160D01*
X-17375Y301135D01*
X-17397Y301116D01*
X-17428Y301052D01*
X-17466Y300992D01*
X-17471Y300963D01*
X-17483Y300937D01*
X-17492Y300838D01*
X-17499Y300796D01*
X-17496Y300785D01*
X-17498Y300771D01*
X-17266Y297973D01*
X-17256Y297940D01*
X-17252Y297892D01*
X-16563Y295170D01*
X-16548Y295139D01*
X-16536Y295092D01*
X-15408Y292521D01*
X-15388Y292493D01*
X-15369Y292448D01*
X-13833Y290098D01*
X-13809Y290073D01*
X-13783Y290033D01*
X-11881Y287967D01*
X-11853Y287947D01*
X-11820Y287911D01*
X-9605Y286187D01*
X-9574Y286171D01*
X-9536Y286142D01*
X-7066Y284805D01*
X-7033Y284795D01*
X-6991Y284772D01*
X-4335Y283861D01*
X-4301Y283856D01*
X-4255Y283840D01*
X-1486Y283378D01*
X-1451Y283379D01*
X-1404Y283371D01*
X1404Y283371D01*
X1438Y283378D01*
G37*
G36*
X-121393Y60622D02*
X-121393Y60622D01*
X-121322Y60619D01*
X-121295Y60630D01*
X-121266Y60632D01*
X-121176Y60674D01*
X-121136Y60689D01*
X-121128Y60697D01*
X-121115Y60702D01*
X-118812Y62302D01*
X-118788Y62327D01*
X-118748Y62354D01*
X-116739Y64311D01*
X-116720Y64340D01*
X-116685Y64374D01*
X-115026Y66634D01*
X-115011Y66666D01*
X-114982Y66705D01*
X-113718Y69208D01*
X-113709Y69241D01*
X-113687Y69284D01*
X-112851Y71961D01*
X-112848Y71996D01*
X-112833Y72042D01*
X-112450Y74820D01*
X-112452Y74855D01*
X-112446Y74902D01*
X-112525Y77706D01*
X-112533Y77740D01*
X-112534Y77788D01*
X-113073Y80540D01*
X-113087Y80572D01*
X-113096Y80619D01*
X-114081Y83245D01*
X-114096Y83270D01*
X-114101Y83289D01*
X-114109Y83300D01*
X-114116Y83319D01*
X-115520Y85747D01*
X-115543Y85773D01*
X-115567Y85815D01*
X-117351Y87979D01*
X-117378Y88000D01*
X-117409Y88038D01*
X-119525Y89878D01*
X-119555Y89895D01*
X-119591Y89927D01*
X-121982Y91394D01*
X-122014Y91406D01*
X-122055Y91431D01*
X-124654Y92485D01*
X-124688Y92491D01*
X-124733Y92509D01*
X-127470Y93121D01*
X-127505Y93122D01*
X-127552Y93132D01*
X-130352Y93285D01*
X-130386Y93280D01*
X-130434Y93283D01*
X-133222Y92972D01*
X-133255Y92962D01*
X-133303Y92956D01*
X-136001Y92191D01*
X-136031Y92176D01*
X-136078Y92162D01*
X-138613Y90964D01*
X-138637Y90946D01*
X-138664Y90936D01*
X-138716Y90887D01*
X-138773Y90845D01*
X-138787Y90820D01*
X-138809Y90800D01*
X-138837Y90734D01*
X-138873Y90673D01*
X-138876Y90644D01*
X-138888Y90617D01*
X-138889Y90546D01*
X-138898Y90476D01*
X-138890Y90448D01*
X-138890Y90418D01*
X-138856Y90326D01*
X-138844Y90284D01*
X-138837Y90276D01*
X-138832Y90263D01*
X-121832Y60863D01*
X-121813Y60841D01*
X-121800Y60814D01*
X-121747Y60767D01*
X-121700Y60714D01*
X-121674Y60701D01*
X-121652Y60682D01*
X-121585Y60659D01*
X-121521Y60628D01*
X-121492Y60627D01*
X-121464Y60617D01*
X-121393Y60622D01*
G37*
G36*
X130386Y208345D02*
X130386Y208345D01*
X130434Y208343D01*
X133222Y208653D01*
X133255Y208663D01*
X133303Y208669D01*
X136001Y209434D01*
X136031Y209450D01*
X136078Y209463D01*
X138613Y210661D01*
X138637Y210679D01*
X138664Y210689D01*
X138716Y210738D01*
X138773Y210780D01*
X138787Y210805D01*
X138809Y210825D01*
X138837Y210891D01*
X138873Y210952D01*
X138876Y210981D01*
X138888Y211008D01*
X138889Y211079D01*
X138898Y211149D01*
X138890Y211177D01*
X138890Y211207D01*
X138856Y211299D01*
X138844Y211341D01*
X138837Y211350D01*
X138832Y211362D01*
X121832Y240762D01*
X121813Y240784D01*
X121800Y240811D01*
X121747Y240858D01*
X121700Y240911D01*
X121674Y240924D01*
X121652Y240943D01*
X121585Y240966D01*
X121521Y240997D01*
X121492Y240998D01*
X121464Y241008D01*
X121393Y241003D01*
X121322Y241006D01*
X121295Y240995D01*
X121266Y240993D01*
X121176Y240951D01*
X121136Y240936D01*
X121128Y240929D01*
X121115Y240923D01*
X118812Y239323D01*
X118788Y239298D01*
X118748Y239271D01*
X116739Y237314D01*
X116720Y237285D01*
X116685Y237251D01*
X115026Y234991D01*
X115011Y234959D01*
X114982Y234920D01*
X113718Y232417D01*
X113709Y232384D01*
X113687Y232341D01*
X112851Y229664D01*
X112848Y229629D01*
X112833Y229583D01*
X112450Y226805D01*
X112452Y226770D01*
X112446Y226723D01*
X112525Y223919D01*
X112533Y223885D01*
X112534Y223837D01*
X113073Y221085D01*
X113087Y221053D01*
X113096Y221006D01*
X114081Y218380D01*
X114099Y218351D01*
X114116Y218306D01*
X115520Y215878D01*
X115543Y215852D01*
X115567Y215810D01*
X117351Y213646D01*
X117378Y213625D01*
X117409Y213587D01*
X119525Y211747D01*
X119555Y211730D01*
X119591Y211698D01*
X121982Y210231D01*
X122014Y210219D01*
X122055Y210194D01*
X124654Y209140D01*
X124688Y209134D01*
X124733Y209116D01*
X127470Y208504D01*
X127505Y208503D01*
X127552Y208493D01*
X130352Y208340D01*
X130386Y208345D01*
G37*
G36*
X121426Y60623D02*
X121426Y60623D01*
X121497Y60623D01*
X121524Y60634D01*
X121553Y60637D01*
X121615Y60672D01*
X121680Y60699D01*
X121701Y60720D01*
X121726Y60734D01*
X121789Y60811D01*
X121819Y60841D01*
X121823Y60852D01*
X121832Y60863D01*
X138832Y90263D01*
X138841Y90290D01*
X138858Y90314D01*
X138873Y90384D01*
X138895Y90451D01*
X138893Y90480D01*
X138899Y90509D01*
X138886Y90579D01*
X138880Y90649D01*
X138867Y90675D01*
X138861Y90704D01*
X138821Y90763D01*
X138789Y90826D01*
X138766Y90845D01*
X138750Y90869D01*
X138668Y90926D01*
X138635Y90953D01*
X138625Y90956D01*
X138613Y90964D01*
X136078Y92162D01*
X136044Y92171D01*
X136001Y92191D01*
X133303Y92956D01*
X133268Y92959D01*
X133222Y92972D01*
X130434Y93283D01*
X130400Y93279D01*
X130352Y93285D01*
X127552Y93132D01*
X127518Y93123D01*
X127470Y93121D01*
X124733Y92509D01*
X124701Y92495D01*
X124654Y92485D01*
X122055Y91431D01*
X122026Y91412D01*
X121982Y91394D01*
X119591Y89927D01*
X119566Y89903D01*
X119525Y89878D01*
X117409Y88038D01*
X117388Y88010D01*
X117351Y87979D01*
X115567Y85815D01*
X115551Y85784D01*
X115520Y85747D01*
X114116Y83319D01*
X114105Y83287D01*
X114098Y83274D01*
X114088Y83259D01*
X114088Y83257D01*
X114081Y83245D01*
X113096Y80619D01*
X113090Y80585D01*
X113073Y80540D01*
X112534Y77788D01*
X112534Y77753D01*
X112525Y77706D01*
X112446Y74902D01*
X112452Y74868D01*
X112450Y74820D01*
X112833Y72042D01*
X112845Y72009D01*
X112851Y71961D01*
X113687Y69284D01*
X113704Y69254D01*
X113718Y69208D01*
X114982Y66705D01*
X115004Y66677D01*
X115026Y66634D01*
X116685Y64374D01*
X116711Y64350D01*
X116739Y64311D01*
X118748Y62354D01*
X118777Y62336D01*
X118812Y62302D01*
X121115Y60702D01*
X121142Y60691D01*
X121165Y60672D01*
X121233Y60652D01*
X121298Y60624D01*
X121327Y60624D01*
X121355Y60615D01*
X121426Y60623D01*
G37*
G36*
X-127552Y208493D02*
X-127552Y208493D01*
X-127518Y208502D01*
X-127470Y208504D01*
X-124733Y209116D01*
X-124701Y209130D01*
X-124654Y209140D01*
X-122055Y210194D01*
X-122026Y210213D01*
X-121982Y210231D01*
X-119591Y211698D01*
X-119566Y211722D01*
X-119525Y211747D01*
X-117409Y213587D01*
X-117388Y213615D01*
X-117351Y213646D01*
X-115567Y215810D01*
X-115551Y215841D01*
X-115520Y215878D01*
X-114116Y218306D01*
X-114105Y218338D01*
X-114081Y218380D01*
X-113096Y221006D01*
X-113090Y221040D01*
X-113073Y221085D01*
X-112534Y223837D01*
X-112534Y223872D01*
X-112525Y223919D01*
X-112446Y226723D01*
X-112452Y226757D01*
X-112450Y226805D01*
X-112833Y229583D01*
X-112845Y229616D01*
X-112851Y229664D01*
X-113687Y232341D01*
X-113704Y232371D01*
X-113718Y232417D01*
X-114982Y234920D01*
X-115004Y234948D01*
X-115026Y234991D01*
X-116685Y237251D01*
X-116711Y237275D01*
X-116739Y237314D01*
X-118748Y239271D01*
X-118777Y239289D01*
X-118812Y239323D01*
X-121115Y240923D01*
X-121142Y240934D01*
X-121165Y240953D01*
X-121233Y240973D01*
X-121298Y241001D01*
X-121327Y241001D01*
X-121355Y241010D01*
X-121426Y241002D01*
X-121497Y241002D01*
X-121524Y240991D01*
X-121553Y240988D01*
X-121615Y240953D01*
X-121680Y240926D01*
X-121701Y240905D01*
X-121726Y240891D01*
X-121789Y240814D01*
X-121819Y240784D01*
X-121823Y240773D01*
X-121832Y240762D01*
X-138832Y211362D01*
X-138841Y211335D01*
X-138858Y211311D01*
X-138873Y211241D01*
X-138895Y211174D01*
X-138893Y211145D01*
X-138899Y211116D01*
X-138886Y211046D01*
X-138880Y210976D01*
X-138867Y210950D01*
X-138861Y210921D01*
X-138821Y210862D01*
X-138789Y210799D01*
X-138766Y210780D01*
X-138750Y210756D01*
X-138668Y210699D01*
X-138635Y210672D01*
X-138625Y210669D01*
X-138613Y210661D01*
X-136078Y209463D01*
X-136044Y209454D01*
X-136001Y209434D01*
X-133303Y208669D01*
X-133268Y208666D01*
X-133222Y208653D01*
X-130434Y208343D01*
X-130400Y208346D01*
X-130352Y208340D01*
X-127552Y208493D01*
G37*
%LPC*%
G36*
X-31551Y248878D02*
X-31551Y248878D01*
X-33512Y256196D01*
X-29724Y262756D01*
X-22406Y264717D01*
X-15846Y260929D01*
X-13885Y253612D01*
X-17673Y247051D01*
X-24991Y245090D01*
X-31551Y248878D01*
G37*
%LPD*%
%LPC*%
G36*
X-56951Y204884D02*
X-56951Y204884D01*
X-58912Y212202D01*
X-55124Y218762D01*
X-47806Y220723D01*
X-41246Y216935D01*
X-39285Y209618D01*
X-43073Y203057D01*
X-50391Y201096D01*
X-56951Y204884D01*
G37*
%LPD*%
%LPC*%
G36*
X99983Y171090D02*
X99983Y171090D01*
X98023Y178408D01*
X101810Y184969D01*
X109128Y186930D01*
X115689Y183142D01*
X117649Y175824D01*
X113862Y169263D01*
X106544Y167303D01*
X99983Y171090D01*
G37*
%LPD*%
%LPC*%
G36*
X-107751Y116896D02*
X-107751Y116896D01*
X-109712Y124213D01*
X-105924Y130774D01*
X-98606Y132735D01*
X-92046Y128947D01*
X-90085Y121629D01*
X-93873Y115069D01*
X-101191Y113108D01*
X-107751Y116896D01*
G37*
%LPD*%
%LPC*%
G36*
X-85754Y104196D02*
X-85754Y104196D01*
X-87715Y111513D01*
X-83927Y118074D01*
X-76609Y120035D01*
X-70049Y116247D01*
X-68088Y108929D01*
X-71876Y102369D01*
X-79193Y100408D01*
X-85754Y104196D01*
G37*
%LPD*%
%LPC*%
G36*
X49183Y83102D02*
X49183Y83102D01*
X47223Y90420D01*
X51010Y96981D01*
X58328Y98941D01*
X64889Y95154D01*
X66849Y87836D01*
X63062Y81275D01*
X55744Y79314D01*
X49183Y83102D01*
G37*
%LPD*%
%LPC*%
G36*
X23783Y39108D02*
X23783Y39108D01*
X21823Y46426D01*
X25610Y52987D01*
X32928Y54947D01*
X39489Y51159D01*
X41449Y43842D01*
X37662Y37281D01*
X30344Y35320D01*
X23783Y39108D01*
G37*
%LPD*%
%LPC*%
G36*
X1786Y51808D02*
X1786Y51808D01*
X-175Y59126D01*
X3613Y65687D01*
X10931Y67647D01*
X17492Y63859D01*
X19452Y56542D01*
X15665Y49981D01*
X8347Y48020D01*
X1786Y51808D01*
G37*
%LPD*%
%LPC*%
G36*
X-9554Y236178D02*
X-9554Y236178D01*
X-11515Y243496D01*
X-7727Y250056D01*
X-409Y252017D01*
X6151Y248229D01*
X8112Y240912D01*
X4324Y234351D01*
X-2993Y232390D01*
X-9554Y236178D01*
G37*
%LPD*%
%LPC*%
G36*
X131152Y191543D02*
X131152Y191543D01*
X130366Y192329D01*
X130317Y192364D01*
X130275Y192407D01*
X130218Y192436D01*
X130166Y192473D01*
X130109Y192491D01*
X130055Y192517D01*
X129962Y192536D01*
X129931Y192545D01*
X129915Y192545D01*
X129891Y192550D01*
X117344Y193595D01*
X117212Y193585D01*
X117100Y193576D01*
X117099Y193576D01*
X116983Y193526D01*
X116873Y193480D01*
X116873Y193479D01*
X116872Y193479D01*
X116871Y193478D01*
X116742Y193375D01*
X116498Y193131D01*
X112102Y193131D01*
X108993Y196239D01*
X108993Y200636D01*
X112102Y203744D01*
X116498Y203744D01*
X117284Y202958D01*
X117333Y202923D01*
X117375Y202881D01*
X117432Y202852D01*
X117484Y202815D01*
X117541Y202797D01*
X117595Y202770D01*
X117688Y202752D01*
X117719Y202742D01*
X117735Y202743D01*
X117759Y202738D01*
X130306Y201692D01*
X130438Y201703D01*
X130550Y201711D01*
X130551Y201712D01*
X130667Y201761D01*
X130777Y201808D01*
X130778Y201808D01*
X130779Y201810D01*
X130908Y201913D01*
X131152Y202157D01*
X135548Y202157D01*
X138657Y199048D01*
X138657Y194652D01*
X135548Y191543D01*
X131152Y191543D01*
G37*
%LPD*%
%LPC*%
G36*
X-19661Y267743D02*
X-19661Y267743D01*
X-22827Y270909D01*
X-22834Y270915D01*
X-22840Y270922D01*
X-22973Y271024D01*
X-33200Y277160D01*
X-33312Y277204D01*
X-33425Y277250D01*
X-33427Y277250D01*
X-33429Y277251D01*
X-33436Y277251D01*
X-33592Y277268D01*
X-35536Y277268D01*
X-38644Y280377D01*
X-38644Y284773D01*
X-35536Y287882D01*
X-31139Y287882D01*
X-27973Y284716D01*
X-27966Y284710D01*
X-27960Y284703D01*
X-27827Y284601D01*
X-17600Y278465D01*
X-17488Y278421D01*
X-17375Y278375D01*
X-17373Y278375D01*
X-17371Y278374D01*
X-17364Y278374D01*
X-17208Y278357D01*
X-15264Y278357D01*
X-12156Y275248D01*
X-12156Y270852D01*
X-15264Y267743D01*
X-19661Y267743D01*
G37*
%LPD*%
%LPC*%
G36*
X29552Y8981D02*
X29552Y8981D01*
X26443Y12089D01*
X26443Y12509D01*
X26425Y12624D01*
X26408Y12739D01*
X26405Y12745D01*
X26404Y12752D01*
X26349Y12854D01*
X26297Y12959D01*
X26291Y12965D01*
X26288Y12969D01*
X26274Y12983D01*
X26183Y13082D01*
X18386Y19905D01*
X18330Y19940D01*
X18280Y19983D01*
X18226Y20004D01*
X18177Y20035D01*
X18113Y20050D01*
X18051Y20075D01*
X17970Y20084D01*
X17938Y20091D01*
X17918Y20090D01*
X17885Y20093D01*
X16852Y20093D01*
X13743Y23202D01*
X13743Y27598D01*
X16852Y30707D01*
X21248Y30707D01*
X24357Y27598D01*
X24357Y27178D01*
X24375Y27064D01*
X24392Y26948D01*
X24395Y26942D01*
X24396Y26935D01*
X24451Y26833D01*
X24503Y26729D01*
X24509Y26723D01*
X24512Y26718D01*
X24526Y26704D01*
X24617Y26605D01*
X32414Y19783D01*
X32470Y19748D01*
X32520Y19705D01*
X32574Y19683D01*
X32623Y19653D01*
X32687Y19637D01*
X32749Y19613D01*
X32830Y19604D01*
X32862Y19596D01*
X32882Y19598D01*
X32915Y19594D01*
X33948Y19594D01*
X37057Y16486D01*
X37057Y12089D01*
X33948Y8981D01*
X29552Y8981D01*
G37*
%LPD*%
%LPC*%
G36*
X-103798Y209006D02*
X-103798Y209006D01*
X-106907Y212114D01*
X-106907Y216511D01*
X-106396Y217022D01*
X-106343Y217096D01*
X-106283Y217165D01*
X-106271Y217195D01*
X-106252Y217221D01*
X-106225Y217308D01*
X-106191Y217393D01*
X-106187Y217434D01*
X-106180Y217456D01*
X-106181Y217489D01*
X-106173Y217560D01*
X-106173Y226940D01*
X-106187Y227030D01*
X-106195Y227121D01*
X-106207Y227151D01*
X-106212Y227183D01*
X-106255Y227263D01*
X-106291Y227347D01*
X-106317Y227380D01*
X-106328Y227400D01*
X-106351Y227422D01*
X-106396Y227478D01*
X-106907Y227989D01*
X-106907Y232386D01*
X-103798Y235494D01*
X-99402Y235494D01*
X-96293Y232386D01*
X-96293Y227989D01*
X-96804Y227478D01*
X-96857Y227404D01*
X-96917Y227335D01*
X-96929Y227305D01*
X-96948Y227279D01*
X-96975Y227192D01*
X-97009Y227107D01*
X-97013Y227066D01*
X-97020Y227044D01*
X-97019Y227011D01*
X-97027Y226940D01*
X-97027Y217560D01*
X-97013Y217470D01*
X-97005Y217379D01*
X-96993Y217349D01*
X-96988Y217317D01*
X-96945Y217237D01*
X-96909Y217153D01*
X-96883Y217120D01*
X-96872Y217100D01*
X-96849Y217078D01*
X-96804Y217022D01*
X-96293Y216511D01*
X-96293Y212114D01*
X-99402Y209006D01*
X-103798Y209006D01*
G37*
%LPD*%
%LPC*%
G36*
X-119673Y96293D02*
X-119673Y96293D01*
X-120945Y97565D01*
X-120951Y97570D01*
X-120956Y97576D01*
X-121051Y97641D01*
X-121144Y97708D01*
X-121152Y97711D01*
X-121159Y97715D01*
X-121318Y97770D01*
X-121435Y97796D01*
X-124860Y98557D01*
X-128286Y99318D01*
X-129047Y99487D01*
X-129098Y99490D01*
X-129148Y99503D01*
X-129220Y99497D01*
X-129292Y99501D01*
X-129342Y99488D01*
X-129393Y99483D01*
X-129429Y99468D01*
X-133961Y99468D01*
X-137069Y102577D01*
X-137069Y106973D01*
X-133961Y110082D01*
X-129564Y110082D01*
X-128293Y108810D01*
X-128286Y108805D01*
X-128281Y108799D01*
X-128186Y108734D01*
X-128093Y108667D01*
X-128085Y108664D01*
X-128078Y108660D01*
X-127920Y108605D01*
X-127401Y108490D01*
X-123976Y107729D01*
X-120550Y106968D01*
X-120191Y106888D01*
X-120139Y106885D01*
X-120089Y106872D01*
X-120017Y106878D01*
X-119945Y106874D01*
X-119895Y106887D01*
X-119844Y106892D01*
X-119809Y106907D01*
X-115277Y106907D01*
X-112168Y103798D01*
X-112168Y99402D01*
X-115277Y96293D01*
X-119673Y96293D01*
G37*
%LPD*%
D10*
X82600Y293913D03*
X165200Y150813D03*
X82600Y7713D03*
X-82600Y7713D03*
X-165200Y150813D03*
X-82600Y293913D03*
X123900Y222313D03*
X123900Y79313D03*
X0Y7713D03*
X-123900Y79313D03*
X-123900Y222313D03*
X0Y293913D03*
D11*
X31636Y45134D03*
X44336Y67131D03*
X57036Y89128D03*
X69736Y111125D03*
X82436Y133122D03*
X95136Y155119D03*
X9639Y57834D03*
X22339Y79831D03*
X35039Y101828D03*
X47739Y123825D03*
X60439Y145822D03*
X73139Y167819D03*
X107836Y177116D03*
X85839Y189816D03*
D12*
X-23699Y254904D03*
X-36399Y232907D03*
X-49099Y210910D03*
X-61799Y188913D03*
X-74499Y166915D03*
X-87199Y144918D03*
X-1701Y242204D03*
X-14401Y220207D03*
X-27101Y198210D03*
X-39801Y176213D03*
X-52501Y154215D03*
X-65201Y132218D03*
X-99899Y122921D03*
X-77901Y110221D03*
D13*
X28575Y265113D03*
X4763Y265113D03*
X107950Y212725D03*
X88900Y220663D03*
X96838Y95250D03*
X107950Y106363D03*
X-4763Y44450D03*
X-20638Y46038D03*
X-74613Y79375D03*
X-84138Y88900D03*
X-112713Y188913D03*
X-101600Y200025D03*
X-17463Y273050D03*
X-33338Y282575D03*
X-101600Y230188D03*
X-101600Y214313D03*
X-117475Y101600D03*
X-131763Y104775D03*
X31750Y14288D03*
X19050Y25400D03*
X133350Y196850D03*
X114300Y198438D03*
D14*
X-17463Y273050D02*
X-33338Y282575D01*
X114300Y198438D02*
X133350Y196850D01*
X-101600Y214313D02*
X-101600Y230188D01*
X-131763Y104775D02*
X-117475Y101600D01*
X19050Y25400D02*
X31750Y14288D01*
D13*
X93663Y71438D03*
X104775Y85725D03*
D14*
X93663Y71438D01*
D15*
X100075Y222313D02*
X123900Y222313D01*
X60439Y182676D02*
X60439Y145822D01*
X60439Y182676D02*
X100075Y222313D01*
X80984Y122229D02*
X123900Y79313D01*
X80984Y122229D02*
X78219Y123825D01*
X47739Y123825D01*
X-12700Y20413D02*
X0Y7713D01*
X24040Y101828D02*
X35039Y101828D01*
X-12700Y65088D02*
X-12700Y20413D01*
X-12700Y65088D02*
X24040Y101828D01*
X-84200Y79313D02*
X-123900Y79313D01*
X-52502Y111011D02*
X-52502Y154215D01*
X-52502Y111011D02*
X-84200Y79313D01*
X-123900Y211213D02*
X-123900Y222313D01*
X-96838Y184150D02*
X-77788Y184150D01*
X-69850Y176213D01*
X-39802Y176213D01*
X-96838Y184150D02*
X-123900Y211213D01*
X0Y293913D02*
X12700Y281213D01*
X12700Y231889D02*
X-20979Y198210D01*
X-27102Y198210D01*
X12700Y231889D02*
X12700Y281213D01*
M02*
