G04 EAGLE Gerber RS-274X export*
G75*
%MOMM*%
%FSLAX34Y34*%
%LPD*%
%INTop Copper*%
%IPPOS*%
%AMOC8*
5,1,8,0,0,1.08239X$1,22.5*%
G01*
%ADD10C,1.000000*%
%ADD11P,1.649562X8X82.500000*%
%ADD12P,1.649562X8X262.500000*%
%ADD13C,0.457200*%
%ADD14C,0.304800*%
%ADD15C,0.756400*%

G36*
X373071Y300589D02*
X373071Y300589D01*
X373076Y300590D01*
X373732Y301726D01*
X375373Y304568D01*
X375406Y304626D01*
X382723Y306586D01*
X386893Y304179D01*
X389284Y302799D01*
X391245Y295481D01*
X387457Y288920D01*
X380140Y286959D01*
X373579Y290747D01*
X372988Y292953D01*
X372979Y292959D01*
X372976Y292962D01*
X355506Y292962D01*
X355502Y292958D01*
X355498Y292959D01*
X331474Y268935D01*
X331474Y268931D01*
X331472Y268929D01*
X331473Y268929D01*
X331471Y268927D01*
X331471Y223227D01*
X331474Y223223D01*
X331474Y223219D01*
X340417Y214276D01*
X340425Y214276D01*
X340429Y214273D01*
X340754Y214385D01*
X340757Y214389D01*
X340760Y214389D01*
X340868Y214541D01*
X341529Y214651D01*
X341530Y214652D01*
X341531Y214652D01*
X342165Y214869D01*
X342332Y214787D01*
X342336Y214789D01*
X342339Y214786D01*
X343821Y215034D01*
X343824Y215037D01*
X343828Y215037D01*
X343959Y215169D01*
X344629Y215169D01*
X344630Y215170D01*
X344631Y215169D01*
X345292Y215279D01*
X345444Y215171D01*
X345448Y215171D01*
X345451Y215169D01*
X346953Y215169D01*
X346957Y215172D01*
X346960Y215171D01*
X347112Y215279D01*
X347773Y215169D01*
X347774Y215170D01*
X347775Y215169D01*
X348445Y215169D01*
X348576Y215037D01*
X348581Y215037D01*
X348583Y215034D01*
X350065Y214786D01*
X350069Y214789D01*
X350072Y214787D01*
X350239Y214869D01*
X350873Y214652D01*
X350874Y214652D01*
X350875Y214651D01*
X351061Y214620D01*
X351536Y214541D01*
X351644Y214389D01*
X351648Y214388D01*
X351650Y214385D01*
X353071Y213897D01*
X353075Y213899D01*
X353078Y213897D01*
X353257Y213950D01*
X353680Y213721D01*
X353846Y213631D01*
X353847Y213631D01*
X353848Y213630D01*
X354481Y213413D01*
X354563Y213246D01*
X354567Y213244D01*
X354568Y213240D01*
X355221Y212887D01*
X355249Y212872D01*
X355890Y212525D01*
X355894Y212526D01*
X355897Y212524D01*
X356082Y212547D01*
X356410Y212291D01*
X356462Y212251D01*
X356611Y212135D01*
X356612Y212135D01*
X356612Y212134D01*
X356778Y212045D01*
X357201Y211815D01*
X357254Y211637D01*
X357258Y211634D01*
X357259Y211631D01*
X358445Y210708D01*
X358449Y210708D01*
X358451Y210705D01*
X358637Y210698D01*
X358964Y210343D01*
X359091Y210205D01*
X359093Y210205D01*
X359093Y210203D01*
X359250Y210081D01*
X359309Y210035D01*
X359621Y209792D01*
X359644Y209607D01*
X359648Y209604D01*
X359647Y209601D01*
X360665Y208495D01*
X360670Y208494D01*
X360671Y208491D01*
X360854Y208453D01*
X361220Y207892D01*
X361221Y207892D01*
X361221Y207891D01*
X361675Y207398D01*
X361667Y207212D01*
X361670Y207208D01*
X361669Y207205D01*
X362491Y205947D01*
X362496Y205946D01*
X362497Y205942D01*
X362670Y205874D01*
X362939Y205261D01*
X362941Y205260D01*
X362940Y205259D01*
X363043Y205101D01*
X363307Y204698D01*
X363269Y204516D01*
X363269Y204515D01*
X363271Y204512D01*
X363269Y204509D01*
X363873Y203133D01*
X363877Y203131D01*
X363878Y203127D01*
X364038Y203032D01*
X364202Y202383D01*
X364203Y202382D01*
X364203Y202381D01*
X364472Y201767D01*
X364404Y201594D01*
X364405Y201591D01*
X364404Y201590D01*
X364405Y201588D01*
X364404Y201586D01*
X364773Y200130D01*
X364777Y200127D01*
X364777Y200123D01*
X364919Y200003D01*
X364974Y199336D01*
X364975Y199335D01*
X364974Y199334D01*
X365139Y198684D01*
X365043Y198524D01*
X365044Y198522D01*
X365043Y198522D01*
X365044Y198521D01*
X365044Y198520D01*
X365042Y198517D01*
X365158Y197113D01*
X365162Y197110D01*
X365162Y197106D01*
X365227Y197041D01*
X365227Y196969D01*
X365237Y196957D01*
X365238Y196958D01*
X365239Y196957D01*
X413361Y196957D01*
X413304Y196242D01*
X413308Y196213D01*
X413303Y196185D01*
X413320Y196116D01*
X413328Y196044D01*
X413343Y196020D01*
X413349Y195992D01*
X413392Y195934D01*
X413428Y195872D01*
X413450Y195855D01*
X413467Y195832D01*
X413529Y195795D01*
X413586Y195752D01*
X413614Y195745D01*
X413638Y195730D01*
X413738Y195714D01*
X413779Y195703D01*
X413789Y195705D01*
X413802Y195703D01*
X432802Y195703D01*
X432878Y195718D01*
X432956Y195727D01*
X432975Y195738D01*
X432997Y195742D01*
X433061Y195786D01*
X433129Y195825D01*
X433145Y195844D01*
X433161Y195855D01*
X433185Y195893D01*
X433235Y195953D01*
X442735Y212453D01*
X442744Y212480D01*
X442760Y212504D01*
X442775Y212574D01*
X442798Y212642D01*
X442795Y212670D01*
X442801Y212698D01*
X442788Y212769D01*
X442782Y212840D01*
X442769Y212865D01*
X442763Y212893D01*
X442723Y212953D01*
X442690Y213016D01*
X442668Y213034D01*
X442652Y213058D01*
X442569Y213116D01*
X442537Y213143D01*
X442526Y213146D01*
X442516Y213153D01*
X441888Y213450D01*
X443767Y216704D01*
X463848Y251487D01*
X465940Y255110D01*
X465940Y255113D01*
X465942Y255115D01*
X465939Y255118D01*
X465937Y255126D01*
X465936Y255126D01*
X465936Y255127D01*
X465862Y255169D01*
X465839Y255258D01*
X465834Y255261D01*
X465834Y255265D01*
X464679Y256066D01*
X464675Y256066D01*
X464673Y256068D01*
X464486Y256066D01*
X464007Y256533D01*
X464005Y256533D01*
X464005Y256535D01*
X463455Y256917D01*
X463422Y257100D01*
X463418Y257103D01*
X463418Y257106D01*
X462344Y258153D01*
X462339Y258153D01*
X462338Y258156D01*
X462153Y258184D01*
X461868Y258573D01*
X461757Y258724D01*
X461756Y258725D01*
X461756Y258726D01*
X461276Y259193D01*
X461273Y259379D01*
X461270Y259383D01*
X461271Y259386D01*
X460384Y260595D01*
X460379Y260596D01*
X460378Y260600D01*
X460201Y260658D01*
X459984Y261087D01*
X459984Y261088D01*
X459899Y261256D01*
X459898Y261256D01*
X459898Y261257D01*
X459502Y261797D01*
X459530Y261981D01*
X459527Y261985D01*
X459529Y261989D01*
X458852Y263327D01*
X458848Y263329D01*
X458847Y263332D01*
X458682Y263419D01*
X458483Y264058D01*
X458482Y264059D01*
X458482Y264060D01*
X458397Y264228D01*
X458180Y264658D01*
X458238Y264835D01*
X458236Y264839D01*
X458238Y264842D01*
X457792Y266274D01*
X457788Y266276D01*
X457787Y266280D01*
X457639Y266392D01*
X457547Y267056D01*
X457546Y267057D01*
X457547Y267058D01*
X457347Y267697D01*
X457434Y267862D01*
X457433Y267863D01*
X457434Y267864D01*
X457433Y267865D01*
X457433Y267866D01*
X457435Y267869D01*
X457230Y269355D01*
X457227Y269358D01*
X457227Y269361D01*
X457099Y269497D01*
X457113Y269978D01*
X457118Y270166D01*
X457117Y270167D01*
X457118Y270168D01*
X457026Y270832D01*
X457139Y270980D01*
X457138Y270985D01*
X457141Y270987D01*
X457162Y271715D01*
X457163Y271758D01*
X457183Y272486D01*
X457180Y272490D01*
X457181Y272493D01*
X457077Y272648D01*
X457131Y272921D01*
X457206Y273305D01*
X457206Y273306D01*
X457207Y273307D01*
X457225Y273977D01*
X457361Y274105D01*
X457361Y274109D01*
X457364Y274111D01*
X457653Y275582D01*
X457650Y275586D01*
X457652Y275590D01*
X457575Y275759D01*
X457810Y276386D01*
X457810Y276387D01*
X457810Y276388D01*
X457811Y276388D01*
X457847Y276573D01*
X457940Y277046D01*
X458094Y277150D01*
X458095Y277154D01*
X458099Y277155D01*
X458625Y278559D01*
X458625Y278560D01*
X458624Y278564D01*
X458626Y278567D01*
X458578Y278747D01*
X458913Y279327D01*
X458913Y279328D01*
X458914Y279328D01*
X459149Y279956D01*
X459319Y280033D01*
X459321Y280037D01*
X459324Y280037D01*
X459339Y280063D01*
X459337Y280074D01*
X459337Y280078D01*
X453669Y285746D01*
X453664Y285746D01*
X453662Y285748D01*
X453661Y285749D01*
X418342Y285749D01*
X416941Y286329D01*
X416620Y286651D01*
X416619Y286651D01*
X415289Y287981D01*
X415289Y288219D01*
X415284Y288225D01*
X415283Y288230D01*
X401847Y295908D01*
X401843Y295907D01*
X401841Y295909D01*
X399835Y295909D01*
X399804Y295943D01*
X399739Y296027D01*
X399658Y296099D01*
X399585Y296177D01*
X399499Y296240D01*
X399420Y296311D01*
X399328Y296366D01*
X399240Y296430D01*
X399201Y296450D01*
X394009Y301642D01*
X390321Y305330D01*
X390321Y310404D01*
X390316Y310410D01*
X390315Y310414D01*
X389178Y311070D01*
X386279Y312744D01*
X384803Y318254D01*
X384318Y320062D01*
X388081Y326581D01*
X388106Y326623D01*
X395423Y328583D01*
X401984Y324796D01*
X403945Y317478D01*
X400157Y310917D01*
X397951Y310326D01*
X397945Y310317D01*
X397944Y310317D01*
X397942Y310315D01*
X397942Y308492D01*
X397946Y308488D01*
X397946Y308484D01*
X399292Y307137D01*
X402937Y303492D01*
X405131Y301298D01*
X405131Y301061D01*
X405136Y301055D01*
X405137Y301050D01*
X418573Y293372D01*
X418577Y293373D01*
X418579Y293371D01*
X456002Y293371D01*
X457403Y292791D01*
X464209Y285984D01*
X464225Y285983D01*
X464225Y285984D01*
X464233Y285991D01*
X464234Y285995D01*
X464237Y285997D01*
X464281Y286178D01*
X464852Y286528D01*
X464852Y286530D01*
X464853Y286529D01*
X465359Y286969D01*
X465544Y286956D01*
X465548Y286959D01*
X465551Y286958D01*
X466185Y287347D01*
X466208Y287361D01*
X466829Y287742D01*
X466831Y287747D01*
X466834Y287748D01*
X466907Y287919D01*
X467235Y288052D01*
X467528Y288171D01*
X467528Y288172D01*
X467530Y288172D01*
X468100Y288522D01*
X468281Y288479D01*
X468285Y288481D01*
X468289Y288480D01*
X469678Y289043D01*
X469680Y289047D01*
X469684Y289048D01*
X469784Y289205D01*
X470254Y289310D01*
X470438Y289351D01*
X470438Y289352D01*
X470439Y289351D01*
X470614Y289422D01*
X471060Y289603D01*
X471232Y289531D01*
X471236Y289532D01*
X471239Y289530D01*
X471977Y289695D01*
X471991Y289698D01*
X472703Y289857D01*
X472705Y289861D01*
X472709Y289861D01*
X472833Y289999D01*
X473502Y290036D01*
X473503Y290037D01*
X473504Y290036D01*
X474158Y290182D01*
X474315Y290082D01*
X474319Y290083D01*
X474320Y290081D01*
X474321Y290081D01*
X474322Y290080D01*
X475819Y290162D01*
X475822Y290165D01*
X475823Y290165D01*
X475826Y290165D01*
X475972Y290281D01*
X476637Y290207D01*
X476638Y290208D01*
X476639Y290207D01*
X477308Y290243D01*
X477447Y290119D01*
X477452Y290119D01*
X477454Y290116D01*
X478178Y290035D01*
X478186Y290034D01*
X478944Y289950D01*
X478948Y289953D01*
X478951Y289951D01*
X479114Y290042D01*
X479315Y289985D01*
X479758Y289859D01*
X479760Y289860D01*
X479760Y289859D01*
X480277Y289801D01*
X480426Y289785D01*
X480542Y289639D01*
X480547Y289639D01*
X480548Y289635D01*
X481991Y289226D01*
X481995Y289228D01*
X481998Y289227D01*
X482174Y289289D01*
X482779Y289003D01*
X482781Y289004D01*
X482781Y289003D01*
X483426Y288820D01*
X483516Y288657D01*
X483521Y288656D01*
X483522Y288652D01*
X484792Y288052D01*
X484794Y288052D01*
X484795Y288052D01*
X484799Y288052D01*
X484801Y288051D01*
X484890Y288075D01*
X484941Y288045D01*
X484956Y288048D01*
X484956Y288049D01*
X484957Y288049D01*
X486014Y289880D01*
X487862Y293081D01*
X509010Y329711D01*
X509618Y329291D01*
X509645Y329280D01*
X509667Y329261D01*
X509736Y329241D01*
X509801Y329213D01*
X509830Y329213D01*
X509858Y329205D01*
X509929Y329213D01*
X510000Y329213D01*
X510027Y329224D01*
X510056Y329227D01*
X510118Y329262D01*
X510183Y329290D01*
X510204Y329310D01*
X510229Y329325D01*
X510292Y329402D01*
X510322Y329432D01*
X510326Y329442D01*
X510335Y329453D01*
X519835Y345953D01*
X519845Y345985D01*
X519854Y345998D01*
X519858Y346022D01*
X519859Y346026D01*
X519890Y346096D01*
X519890Y346120D01*
X519898Y346142D01*
X519892Y346218D01*
X519893Y346295D01*
X519883Y346319D01*
X519882Y346340D01*
X519861Y346379D01*
X519835Y346451D01*
X510335Y362951D01*
X510316Y362973D01*
X510303Y362999D01*
X510250Y363047D01*
X510203Y363100D01*
X510177Y363113D01*
X510156Y363132D01*
X510088Y363155D01*
X510024Y363186D01*
X509995Y363188D01*
X509968Y363197D01*
X509896Y363192D01*
X509825Y363195D01*
X509798Y363185D01*
X509769Y363183D01*
X509679Y363141D01*
X509639Y363126D01*
X509631Y363119D01*
X509618Y363113D01*
X509010Y362693D01*
X493148Y390166D01*
X486054Y402454D01*
X484957Y404355D01*
X484949Y404357D01*
X484948Y404359D01*
X484945Y404359D01*
X484942Y404360D01*
X484942Y404359D01*
X484941Y404359D01*
X484890Y404329D01*
X484801Y404353D01*
X484796Y404351D01*
X484792Y404352D01*
X483522Y403752D01*
X483520Y403748D01*
X483516Y403747D01*
X483426Y403584D01*
X482781Y403402D01*
X482780Y403400D01*
X482779Y403401D01*
X482174Y403115D01*
X481998Y403177D01*
X481997Y403177D01*
X481992Y403177D01*
X481991Y403178D01*
X480548Y402769D01*
X480546Y402765D01*
X480542Y402765D01*
X480426Y402619D01*
X480245Y402599D01*
X479760Y402545D01*
X479760Y402544D01*
X479759Y402544D01*
X479758Y402545D01*
X479315Y402419D01*
X479114Y402362D01*
X478951Y402453D01*
X478947Y402452D01*
X478944Y402454D01*
X477454Y402288D01*
X477451Y402285D01*
X477447Y402285D01*
X477308Y402161D01*
X476639Y402197D01*
X476638Y402196D01*
X476637Y402197D01*
X475972Y402123D01*
X475826Y402239D01*
X475822Y402239D01*
X475819Y402242D01*
X474322Y402324D01*
X474318Y402321D01*
X474315Y402322D01*
X474158Y402222D01*
X473504Y402368D01*
X473503Y402367D01*
X473502Y402368D01*
X472833Y402405D01*
X472709Y402543D01*
X472704Y402544D01*
X472703Y402547D01*
X471239Y402874D01*
X471235Y402872D01*
X471232Y402873D01*
X471060Y402801D01*
X470614Y402982D01*
X470439Y403053D01*
X470438Y403052D01*
X470438Y403053D01*
X470254Y403094D01*
X469784Y403199D01*
X469684Y403356D01*
X469680Y403358D01*
X469678Y403361D01*
X468289Y403924D01*
X468284Y403923D01*
X468281Y403925D01*
X468100Y403882D01*
X467530Y404232D01*
X467528Y404232D01*
X467528Y404233D01*
X467353Y404304D01*
X467217Y404359D01*
X466907Y404485D01*
X466834Y404656D01*
X466830Y404658D01*
X466829Y404662D01*
X465551Y405446D01*
X465547Y405445D01*
X465544Y405448D01*
X465359Y405435D01*
X464853Y405875D01*
X464852Y405875D01*
X464852Y405876D01*
X464281Y406226D01*
X464237Y406407D01*
X464234Y406410D01*
X464233Y406413D01*
X463102Y407398D01*
X463097Y407398D01*
X463095Y407400D01*
X462910Y407418D01*
X462484Y407935D01*
X462482Y407935D01*
X462482Y407937D01*
X461977Y408376D01*
X461964Y408562D01*
X461961Y408565D01*
X461961Y408569D01*
X461007Y409726D01*
X461003Y409726D01*
X461001Y409730D01*
X460821Y409778D01*
X460580Y410194D01*
X460486Y410358D01*
X460484Y410358D01*
X460485Y410359D01*
X460058Y410876D01*
X460076Y411061D01*
X460074Y411065D01*
X460075Y411068D01*
X459710Y411699D01*
X459688Y411737D01*
X459324Y412367D01*
X459320Y412368D01*
X459319Y412371D01*
X459149Y412448D01*
X459118Y412532D01*
X458914Y413076D01*
X458913Y413076D01*
X458913Y413078D01*
X458578Y413657D01*
X458626Y413837D01*
X458624Y413841D01*
X458625Y413845D01*
X458563Y414012D01*
X458555Y414016D01*
X458552Y414019D01*
X429573Y414019D01*
X429569Y414016D01*
X429565Y414016D01*
X413546Y397997D01*
X398180Y382631D01*
X397514Y381965D01*
X397514Y381959D01*
X397511Y381957D01*
X397511Y355482D01*
X397514Y355478D01*
X397514Y355473D01*
X403610Y349377D01*
X403616Y349377D01*
X403618Y349375D01*
X403621Y349375D01*
X403622Y349374D01*
X408123Y350581D01*
X414684Y346793D01*
X416645Y339475D01*
X412857Y332914D01*
X405540Y330954D01*
X398979Y334741D01*
X397054Y341923D01*
X397018Y342059D01*
X397288Y342526D01*
X398160Y344037D01*
X398158Y344047D01*
X398158Y344051D01*
X391863Y350346D01*
X391863Y350347D01*
X390469Y351740D01*
X389889Y353140D01*
X389889Y384298D01*
X390469Y385699D01*
X391863Y387092D01*
X424438Y419667D01*
X425831Y421061D01*
X427232Y421641D01*
X457025Y421641D01*
X457037Y421651D01*
X457118Y422236D01*
X457117Y422237D01*
X457118Y422238D01*
X457099Y422907D01*
X457227Y423043D01*
X457227Y423047D01*
X457230Y423049D01*
X457435Y424535D01*
X457433Y424539D01*
X457434Y424542D01*
X457347Y424707D01*
X457547Y425346D01*
X457546Y425348D01*
X457547Y425348D01*
X457573Y425535D01*
X457639Y426012D01*
X457787Y426124D01*
X457788Y426129D01*
X457792Y426130D01*
X458238Y427562D01*
X458238Y427563D01*
X458239Y427564D01*
X458236Y427566D01*
X458238Y427569D01*
X458180Y427746D01*
X458397Y428176D01*
X458482Y428344D01*
X458482Y428345D01*
X458483Y428346D01*
X458682Y428985D01*
X458847Y429072D01*
X458849Y429076D01*
X458852Y429077D01*
X459529Y430415D01*
X459528Y430417D01*
X459529Y430417D01*
X459528Y430418D01*
X459527Y430420D01*
X459530Y430423D01*
X459502Y430607D01*
X459786Y430995D01*
X459898Y431147D01*
X459898Y431148D01*
X459899Y431148D01*
X459984Y431316D01*
X459984Y431317D01*
X460201Y431746D01*
X460378Y431804D01*
X460380Y431808D01*
X460384Y431809D01*
X460814Y432395D01*
X460840Y432430D01*
X461271Y433018D01*
X461271Y433022D01*
X461273Y433025D01*
X461276Y433211D01*
X461756Y433678D01*
X461756Y433680D01*
X461757Y433680D01*
X462153Y434220D01*
X462338Y434248D01*
X462340Y434251D01*
X462344Y434251D01*
X463418Y435298D01*
X463419Y435302D01*
X463422Y435304D01*
X463455Y435487D01*
X464005Y435869D01*
X464005Y435871D01*
X464007Y435871D01*
X464486Y436338D01*
X464673Y436336D01*
X464676Y436339D01*
X464679Y436338D01*
X465834Y437139D01*
X465835Y437144D01*
X465839Y437146D01*
X465862Y437235D01*
X465936Y437277D01*
X465941Y437292D01*
X465940Y437293D01*
X465940Y437294D01*
X464881Y439128D01*
X443767Y475700D01*
X441888Y478954D01*
X442516Y479251D01*
X442538Y479268D01*
X442565Y479278D01*
X442617Y479327D01*
X442675Y479370D01*
X442689Y479395D01*
X442710Y479414D01*
X442739Y479480D01*
X442775Y479542D01*
X442778Y479570D01*
X442790Y479596D01*
X442791Y479668D01*
X442800Y479739D01*
X442792Y479766D01*
X442793Y479795D01*
X442757Y479890D01*
X442746Y479930D01*
X442739Y479939D01*
X442735Y479951D01*
X433235Y496451D01*
X433183Y496510D01*
X433137Y496572D01*
X433118Y496583D01*
X433103Y496600D01*
X433033Y496634D01*
X432966Y496674D01*
X432942Y496678D01*
X432924Y496686D01*
X432879Y496688D01*
X432802Y496701D01*
X413802Y496701D01*
X413774Y496696D01*
X413746Y496698D01*
X413678Y496676D01*
X413607Y496662D01*
X413584Y496646D01*
X413557Y496637D01*
X413502Y496590D01*
X413443Y496549D01*
X413428Y496525D01*
X413407Y496507D01*
X413375Y496442D01*
X413336Y496382D01*
X413331Y496354D01*
X413319Y496328D01*
X413310Y496227D01*
X413303Y496185D01*
X413305Y496175D01*
X413304Y496162D01*
X413361Y495447D01*
X365239Y495447D01*
X365227Y495437D01*
X365228Y495436D01*
X365227Y495435D01*
X365227Y495363D01*
X365162Y495298D01*
X365161Y495293D01*
X365158Y495291D01*
X365042Y493887D01*
X365045Y493883D01*
X365043Y493880D01*
X365139Y493720D01*
X364974Y493070D01*
X364975Y493069D01*
X364974Y493068D01*
X364919Y492401D01*
X364777Y492281D01*
X364776Y492276D01*
X364773Y492274D01*
X364404Y490818D01*
X364406Y490813D01*
X364404Y490810D01*
X364472Y490637D01*
X364203Y490023D01*
X364203Y490022D01*
X364202Y490021D01*
X364038Y489372D01*
X363878Y489277D01*
X363876Y489272D01*
X363873Y489271D01*
X363269Y487895D01*
X363271Y487891D01*
X363269Y487888D01*
X363307Y487706D01*
X363043Y487303D01*
X363043Y487302D01*
X362940Y487145D01*
X362941Y487143D01*
X362939Y487143D01*
X362670Y486530D01*
X362497Y486462D01*
X362495Y486458D01*
X362491Y486457D01*
X362093Y485847D01*
X362067Y485808D01*
X361669Y485199D01*
X361670Y485195D01*
X361667Y485192D01*
X361675Y485006D01*
X361221Y484513D01*
X361221Y484512D01*
X361220Y484512D01*
X360854Y483951D01*
X360671Y483913D01*
X360669Y483909D01*
X360665Y483909D01*
X359647Y482803D01*
X359647Y482799D01*
X359644Y482797D01*
X359631Y482694D01*
X359635Y482689D01*
X359635Y482684D01*
X364611Y477708D01*
X368991Y473329D01*
X369571Y471928D01*
X369571Y415802D01*
X368991Y414401D01*
X345466Y390876D01*
X344065Y390296D01*
X326705Y390296D01*
X326699Y390291D01*
X326694Y390290D01*
X326006Y389098D01*
X324364Y386254D01*
X317047Y384294D01*
X312961Y386653D01*
X312960Y386653D01*
X310486Y388081D01*
X308583Y395183D01*
X308525Y395399D01*
X312267Y401881D01*
X312313Y401960D01*
X319630Y403921D01*
X326191Y400133D01*
X326782Y397927D01*
X326791Y397921D01*
X326794Y397918D01*
X341724Y397918D01*
X341728Y397922D01*
X341732Y397921D01*
X361946Y418135D01*
X361946Y418141D01*
X361949Y418143D01*
X361949Y469587D01*
X361946Y469591D01*
X361946Y469595D01*
X353049Y478492D01*
X353040Y478493D01*
X353036Y478495D01*
X351650Y478019D01*
X351647Y478015D01*
X351644Y478015D01*
X351536Y477863D01*
X351061Y477784D01*
X350875Y477753D01*
X350874Y477752D01*
X350873Y477752D01*
X350239Y477535D01*
X350072Y477617D01*
X350068Y477615D01*
X350065Y477618D01*
X348583Y477370D01*
X348580Y477367D01*
X348576Y477367D01*
X348445Y477235D01*
X347775Y477235D01*
X347773Y477234D01*
X347773Y477235D01*
X347112Y477125D01*
X346960Y477233D01*
X346956Y477233D01*
X346953Y477235D01*
X345451Y477235D01*
X345447Y477232D01*
X345444Y477233D01*
X345292Y477125D01*
X344817Y477204D01*
X344631Y477235D01*
X344630Y477234D01*
X344629Y477235D01*
X343959Y477235D01*
X343828Y477367D01*
X343823Y477367D01*
X343821Y477370D01*
X342339Y477618D01*
X342335Y477615D01*
X342332Y477617D01*
X342165Y477535D01*
X341531Y477752D01*
X341530Y477752D01*
X341529Y477753D01*
X341343Y477784D01*
X340868Y477863D01*
X340760Y478015D01*
X340756Y478016D01*
X340754Y478019D01*
X339333Y478507D01*
X339329Y478505D01*
X339326Y478507D01*
X339147Y478454D01*
X338724Y478683D01*
X338558Y478773D01*
X338557Y478773D01*
X338556Y478774D01*
X337923Y478991D01*
X337841Y479158D01*
X337837Y479160D01*
X337836Y479164D01*
X337183Y479517D01*
X337155Y479532D01*
X336514Y479879D01*
X336510Y479878D01*
X336507Y479880D01*
X336322Y479857D01*
X336094Y480035D01*
X335956Y480142D01*
X335793Y480269D01*
X335792Y480269D01*
X335792Y480270D01*
X335626Y480359D01*
X335203Y480589D01*
X335150Y480767D01*
X335146Y480770D01*
X335145Y480773D01*
X333959Y481696D01*
X333955Y481696D01*
X333953Y481699D01*
X333874Y481702D01*
X333767Y481706D01*
X333440Y482061D01*
X333313Y482199D01*
X333311Y482199D01*
X333311Y482201D01*
X333163Y482316D01*
X332783Y482612D01*
X332760Y482797D01*
X332756Y482800D01*
X332757Y482803D01*
X332264Y483339D01*
X332233Y483373D01*
X332232Y483373D01*
X331739Y483909D01*
X331734Y483910D01*
X331733Y483913D01*
X331550Y483951D01*
X331347Y484262D01*
X331184Y484512D01*
X331183Y484512D01*
X331183Y484513D01*
X331055Y484652D01*
X330853Y484872D01*
X330729Y485006D01*
X330737Y485192D01*
X330734Y485196D01*
X330735Y485199D01*
X330337Y485808D01*
X330311Y485847D01*
X329913Y486457D01*
X329908Y486458D01*
X329907Y486462D01*
X329734Y486530D01*
X329465Y487143D01*
X329463Y487144D01*
X329464Y487145D01*
X329361Y487302D01*
X329361Y487303D01*
X329097Y487706D01*
X329135Y487888D01*
X329133Y487892D01*
X329135Y487895D01*
X328531Y489271D01*
X328527Y489273D01*
X328526Y489277D01*
X328366Y489372D01*
X328202Y490021D01*
X328201Y490022D01*
X328201Y490023D01*
X327932Y490637D01*
X328000Y490810D01*
X327998Y490815D01*
X328000Y490818D01*
X327631Y492274D01*
X327627Y492277D01*
X327627Y492281D01*
X327485Y492401D01*
X327430Y493068D01*
X327429Y493069D01*
X327430Y493070D01*
X327265Y493720D01*
X327361Y493880D01*
X327360Y493884D01*
X327362Y493887D01*
X327246Y495291D01*
X327242Y495294D01*
X327242Y495298D01*
X327177Y495363D01*
X327177Y495435D01*
X327167Y495447D01*
X327166Y495446D01*
X327165Y495447D01*
X279043Y495447D01*
X279100Y496162D01*
X279096Y496191D01*
X279101Y496219D01*
X279084Y496288D01*
X279076Y496360D01*
X279062Y496384D01*
X279055Y496412D01*
X279012Y496470D01*
X278977Y496532D01*
X278954Y496549D01*
X278937Y496572D01*
X278875Y496609D01*
X278818Y496652D01*
X278790Y496659D01*
X278766Y496674D01*
X278666Y496690D01*
X278625Y496701D01*
X278615Y496699D01*
X278602Y496701D01*
X259602Y496701D01*
X259526Y496686D01*
X259448Y496677D01*
X259429Y496666D01*
X259407Y496662D01*
X259343Y496618D01*
X259275Y496579D01*
X259259Y496560D01*
X259243Y496549D01*
X259219Y496511D01*
X259169Y496451D01*
X249669Y479951D01*
X249660Y479924D01*
X249644Y479900D01*
X249629Y479830D01*
X249606Y479762D01*
X249609Y479734D01*
X249603Y479706D01*
X249617Y479636D01*
X249622Y479564D01*
X249635Y479539D01*
X249641Y479511D01*
X249681Y479451D01*
X249714Y479388D01*
X249736Y479370D01*
X249752Y479346D01*
X249835Y479288D01*
X249867Y479261D01*
X249878Y479258D01*
X249889Y479251D01*
X250516Y478954D01*
X248637Y475700D01*
X227523Y439128D01*
X226464Y437294D01*
X226467Y437278D01*
X226468Y437278D01*
X226468Y437277D01*
X226542Y437235D01*
X226565Y437146D01*
X226570Y437143D01*
X226570Y437139D01*
X227725Y436338D01*
X227729Y436338D01*
X227731Y436336D01*
X227918Y436338D01*
X228398Y435871D01*
X228399Y435871D01*
X228399Y435869D01*
X228949Y435487D01*
X228982Y435304D01*
X228986Y435301D01*
X228986Y435298D01*
X230060Y434251D01*
X230065Y434251D01*
X230066Y434248D01*
X230251Y434220D01*
X230536Y433831D01*
X230647Y433680D01*
X230648Y433679D01*
X230648Y433678D01*
X231128Y433211D01*
X231131Y433025D01*
X231134Y433021D01*
X231133Y433018D01*
X231564Y432430D01*
X231590Y432395D01*
X232020Y431809D01*
X232025Y431808D01*
X232026Y431804D01*
X232203Y431746D01*
X232420Y431317D01*
X232420Y431316D01*
X232505Y431148D01*
X232506Y431148D01*
X232506Y431147D01*
X232618Y430995D01*
X232902Y430607D01*
X232874Y430423D01*
X232876Y430420D01*
X232875Y430420D01*
X232877Y430419D01*
X232875Y430415D01*
X233204Y429766D01*
X233204Y429765D01*
X233223Y429727D01*
X233552Y429077D01*
X233556Y429075D01*
X233557Y429072D01*
X233722Y428985D01*
X233921Y428346D01*
X233922Y428345D01*
X233922Y428344D01*
X234007Y428176D01*
X234224Y427746D01*
X234166Y427569D01*
X234166Y427568D01*
X234165Y427567D01*
X234167Y427565D01*
X234166Y427562D01*
X234612Y426130D01*
X234616Y426128D01*
X234617Y426124D01*
X234765Y426012D01*
X234857Y425348D01*
X234858Y425347D01*
X234857Y425346D01*
X235057Y424707D01*
X234970Y424542D01*
X234971Y424538D01*
X234969Y424535D01*
X235174Y423049D01*
X235177Y423046D01*
X235177Y423043D01*
X235305Y422907D01*
X235291Y422426D01*
X235286Y422238D01*
X235287Y422237D01*
X235286Y422236D01*
X235378Y421572D01*
X235265Y421424D01*
X235266Y421421D01*
X235264Y421419D01*
X235264Y421418D01*
X235263Y421417D01*
X235242Y420689D01*
X235241Y420646D01*
X235221Y419918D01*
X235224Y419914D01*
X235223Y419911D01*
X235327Y419756D01*
X235234Y419284D01*
X235198Y419099D01*
X235198Y419098D01*
X235197Y419097D01*
X235179Y418427D01*
X235043Y418299D01*
X235043Y418295D01*
X235040Y418293D01*
X234900Y417579D01*
X234891Y417537D01*
X234891Y417536D01*
X234751Y416822D01*
X234754Y416818D01*
X234752Y416814D01*
X234829Y416645D01*
X234594Y416018D01*
X234594Y416016D01*
X234593Y416016D01*
X234557Y415831D01*
X234464Y415358D01*
X234310Y415254D01*
X234309Y415250D01*
X234305Y415249D01*
X233779Y413845D01*
X233780Y413840D01*
X233780Y413839D01*
X233779Y413839D01*
X233779Y413838D01*
X233778Y413837D01*
X233826Y413657D01*
X233491Y413078D01*
X233491Y413076D01*
X233490Y413076D01*
X233255Y412448D01*
X233085Y412371D01*
X233083Y412367D01*
X233080Y412367D01*
X233065Y412341D01*
X233066Y412335D01*
X233065Y412335D01*
X233066Y412333D01*
X233067Y412330D01*
X233067Y412326D01*
X241529Y403864D01*
X241535Y403864D01*
X241537Y403861D01*
X284006Y403861D01*
X284069Y403843D01*
X284252Y403786D01*
X284274Y403784D01*
X284296Y403778D01*
X284486Y403760D01*
X284676Y403739D01*
X284699Y403740D01*
X284721Y403738D01*
X284894Y403755D01*
X287021Y401628D01*
X287021Y401363D01*
X287026Y401358D01*
X287027Y401353D01*
X298007Y394948D01*
X298012Y394949D01*
X298014Y394946D01*
X299654Y395105D01*
X307002Y389055D01*
X307006Y389055D01*
X307007Y389055D01*
X307010Y389052D01*
X307217Y389052D01*
X308203Y388067D01*
X308203Y388066D01*
X309279Y387180D01*
X309299Y386974D01*
X309303Y386970D01*
X309303Y386967D01*
X309449Y386820D01*
X309449Y385426D01*
X309450Y385426D01*
X309449Y385425D01*
X309509Y384810D01*
X309474Y384667D01*
X309470Y384616D01*
X309463Y384581D01*
X309462Y384527D01*
X309460Y384515D01*
X309461Y384486D01*
X309449Y384332D01*
X309449Y380476D01*
X309454Y380470D01*
X309455Y380466D01*
X312452Y378736D01*
X313491Y378136D01*
X315452Y370818D01*
X311664Y364257D01*
X304347Y362297D01*
X297786Y366084D01*
X296046Y372578D01*
X295825Y373402D01*
X299585Y379914D01*
X299613Y379963D01*
X301819Y380554D01*
X301825Y380563D01*
X301828Y380565D01*
X301828Y383437D01*
X301824Y383442D01*
X301823Y383446D01*
X294809Y389221D01*
X294755Y389780D01*
X294750Y389785D01*
X294749Y389789D01*
X283695Y396238D01*
X283691Y396237D01*
X283689Y396239D01*
X239196Y396239D01*
X237795Y396819D01*
X233313Y401301D01*
X228195Y406420D01*
X228179Y406421D01*
X228179Y406420D01*
X228179Y406421D01*
X228171Y406413D01*
X228170Y406409D01*
X228167Y406407D01*
X228123Y406226D01*
X227552Y405876D01*
X227552Y405874D01*
X227551Y405875D01*
X227045Y405435D01*
X226860Y405448D01*
X226856Y405445D01*
X226853Y405446D01*
X226219Y405057D01*
X226196Y405043D01*
X225575Y404662D01*
X225573Y404657D01*
X225570Y404656D01*
X225497Y404485D01*
X225187Y404359D01*
X225051Y404304D01*
X224876Y404233D01*
X224876Y404232D01*
X224874Y404232D01*
X224304Y403882D01*
X224123Y403925D01*
X224119Y403923D01*
X224115Y403924D01*
X223433Y403648D01*
X223401Y403635D01*
X222726Y403361D01*
X222724Y403357D01*
X222720Y403356D01*
X222620Y403199D01*
X221966Y403053D01*
X221966Y403052D01*
X221965Y403053D01*
X221344Y402801D01*
X221172Y402873D01*
X221168Y402872D01*
X221165Y402874D01*
X219701Y402547D01*
X219699Y402543D01*
X219695Y402543D01*
X219571Y402405D01*
X218902Y402368D01*
X218901Y402367D01*
X218900Y402368D01*
X218246Y402222D01*
X218089Y402322D01*
X218084Y402321D01*
X218082Y402324D01*
X216585Y402242D01*
X216581Y402239D01*
X216578Y402239D01*
X216432Y402123D01*
X215767Y402197D01*
X215766Y402196D01*
X215765Y402197D01*
X215096Y402161D01*
X214957Y402285D01*
X214952Y402285D01*
X214950Y402288D01*
X214226Y402369D01*
X214218Y402370D01*
X213460Y402454D01*
X213456Y402451D01*
X213453Y402453D01*
X213290Y402362D01*
X213200Y402387D01*
X212646Y402545D01*
X212645Y402544D01*
X212644Y402544D01*
X212644Y402545D01*
X212159Y402599D01*
X211978Y402619D01*
X211862Y402765D01*
X211857Y402765D01*
X211856Y402769D01*
X210413Y403178D01*
X210412Y403177D01*
X210407Y403177D01*
X210406Y403177D01*
X210230Y403115D01*
X209625Y403401D01*
X209623Y403400D01*
X209623Y403401D01*
X208978Y403584D01*
X208888Y403747D01*
X208883Y403748D01*
X208882Y403752D01*
X207612Y404352D01*
X207607Y404351D01*
X207603Y404353D01*
X207514Y404329D01*
X207463Y404359D01*
X207461Y404359D01*
X207460Y404359D01*
X207456Y404359D01*
X207454Y404357D01*
X207448Y404356D01*
X207448Y404355D01*
X207447Y404355D01*
X206350Y402454D01*
X201932Y394802D01*
X183394Y362693D01*
X182786Y363113D01*
X182759Y363124D01*
X182737Y363143D01*
X182668Y363163D01*
X182603Y363191D01*
X182574Y363191D01*
X182546Y363199D01*
X182475Y363191D01*
X182404Y363192D01*
X182377Y363180D01*
X182348Y363177D01*
X182286Y363142D01*
X182221Y363114D01*
X182200Y363094D01*
X182175Y363079D01*
X182112Y363002D01*
X182082Y362972D01*
X182078Y362962D01*
X182069Y362951D01*
X172569Y346451D01*
X172545Y346378D01*
X172514Y346308D01*
X172514Y346284D01*
X172506Y346262D01*
X172513Y346186D01*
X172512Y346109D01*
X172521Y346085D01*
X172522Y346064D01*
X172543Y346025D01*
X172562Y345973D01*
X172563Y345967D01*
X172565Y345965D01*
X172569Y345953D01*
X182069Y329453D01*
X182088Y329431D01*
X182101Y329405D01*
X182154Y329357D01*
X182201Y329304D01*
X182227Y329291D01*
X182249Y329272D01*
X182316Y329249D01*
X182380Y329218D01*
X182409Y329217D01*
X182436Y329207D01*
X182508Y329212D01*
X182579Y329209D01*
X182606Y329219D01*
X182635Y329221D01*
X182725Y329263D01*
X182765Y329278D01*
X182773Y329285D01*
X182786Y329291D01*
X183394Y329711D01*
X200512Y300062D01*
X206390Y289880D01*
X207447Y288049D01*
X207462Y288044D01*
X207462Y288045D01*
X207463Y288045D01*
X207514Y288075D01*
X207603Y288051D01*
X207605Y288052D01*
X207609Y288052D01*
X207610Y288052D01*
X207612Y288052D01*
X208882Y288652D01*
X208884Y288656D01*
X208888Y288657D01*
X208978Y288820D01*
X209623Y289002D01*
X209624Y289004D01*
X209625Y289003D01*
X209960Y289162D01*
X210116Y289235D01*
X210230Y289289D01*
X210406Y289227D01*
X210410Y289228D01*
X210413Y289226D01*
X211856Y289635D01*
X211858Y289639D01*
X211862Y289639D01*
X211978Y289785D01*
X212644Y289859D01*
X212645Y289860D01*
X212646Y289859D01*
X213290Y290042D01*
X213453Y289951D01*
X213457Y289952D01*
X213460Y289950D01*
X214950Y290116D01*
X214953Y290119D01*
X214957Y290119D01*
X215096Y290243D01*
X215765Y290207D01*
X215766Y290208D01*
X215767Y290207D01*
X216432Y290281D01*
X216578Y290165D01*
X216582Y290165D01*
X216585Y290162D01*
X218082Y290080D01*
X218083Y290081D01*
X218084Y290081D01*
X218086Y290083D01*
X218089Y290082D01*
X218246Y290182D01*
X218900Y290036D01*
X218901Y290037D01*
X218902Y290036D01*
X219571Y289999D01*
X219695Y289861D01*
X219700Y289860D01*
X219701Y289857D01*
X221165Y289530D01*
X221169Y289532D01*
X221172Y289531D01*
X221344Y289603D01*
X221790Y289422D01*
X221965Y289351D01*
X221966Y289352D01*
X221966Y289351D01*
X222150Y289310D01*
X222620Y289205D01*
X222720Y289048D01*
X222724Y289046D01*
X222726Y289043D01*
X223400Y288769D01*
X223440Y288753D01*
X224115Y288480D01*
X224120Y288481D01*
X224123Y288479D01*
X224304Y288522D01*
X224874Y288172D01*
X224876Y288172D01*
X224876Y288171D01*
X225169Y288052D01*
X225497Y287919D01*
X225570Y287748D01*
X225574Y287746D01*
X225575Y287742D01*
X226853Y286958D01*
X226857Y286959D01*
X226860Y286956D01*
X227045Y286969D01*
X227551Y286529D01*
X227552Y286529D01*
X227552Y286528D01*
X228123Y286178D01*
X228167Y285997D01*
X228170Y285994D01*
X228170Y285991D01*
X229302Y285006D01*
X229307Y285006D01*
X229309Y285004D01*
X229494Y284986D01*
X229920Y284469D01*
X229922Y284469D01*
X229922Y284467D01*
X230427Y284028D01*
X230440Y283842D01*
X230443Y283839D01*
X230443Y283835D01*
X231397Y282678D01*
X231401Y282678D01*
X231403Y282674D01*
X231583Y282626D01*
X231824Y282210D01*
X231918Y282046D01*
X231920Y282046D01*
X231919Y282045D01*
X232346Y281528D01*
X232328Y281343D01*
X232330Y281339D01*
X232329Y281336D01*
X232696Y280702D01*
X232715Y280669D01*
X233080Y280037D01*
X233084Y280036D01*
X233085Y280033D01*
X233255Y279956D01*
X233490Y279328D01*
X233491Y279328D01*
X233491Y279326D01*
X233826Y278747D01*
X233778Y278567D01*
X233780Y278564D01*
X233779Y278563D01*
X233780Y278562D01*
X233779Y278559D01*
X233793Y278520D01*
X233801Y278516D01*
X233804Y278513D01*
X278199Y278513D01*
X278203Y278516D01*
X278207Y278516D01*
X304796Y305105D01*
X304796Y305109D01*
X304796Y305111D01*
X304799Y305113D01*
X304799Y332858D01*
X304796Y332862D01*
X304796Y332866D01*
X304130Y333532D01*
X300491Y337171D01*
X296160Y341503D01*
X296152Y341503D01*
X296148Y341506D01*
X291647Y340299D01*
X285086Y344087D01*
X283125Y351405D01*
X286885Y357917D01*
X286913Y357966D01*
X294230Y359926D01*
X300791Y356139D01*
X302752Y348821D01*
X302482Y348354D01*
X301610Y346843D01*
X301612Y346833D01*
X301612Y346829D01*
X311841Y336600D01*
X312421Y335199D01*
X312421Y302772D01*
X311841Y301371D01*
X310185Y299716D01*
X283596Y273127D01*
X281941Y271471D01*
X280540Y270891D01*
X235357Y270891D01*
X235354Y270889D01*
X235351Y270890D01*
X235350Y270885D01*
X235345Y270881D01*
X235348Y270877D01*
X235347Y270872D01*
X235378Y270832D01*
X235286Y270168D01*
X235287Y270167D01*
X235286Y270166D01*
X235305Y269497D01*
X235177Y269361D01*
X235177Y269357D01*
X235174Y269355D01*
X234969Y267869D01*
X234970Y267867D01*
X234971Y267865D01*
X234970Y267862D01*
X235057Y267697D01*
X234857Y267058D01*
X234858Y267056D01*
X234857Y267056D01*
X234765Y266392D01*
X234617Y266280D01*
X234616Y266275D01*
X234612Y266274D01*
X234166Y264842D01*
X234168Y264838D01*
X234166Y264835D01*
X234224Y264658D01*
X234007Y264228D01*
X233922Y264060D01*
X233922Y264059D01*
X233921Y264058D01*
X233722Y263419D01*
X233557Y263332D01*
X233555Y263328D01*
X233552Y263327D01*
X232875Y261989D01*
X232877Y261984D01*
X232874Y261981D01*
X232902Y261797D01*
X232506Y261257D01*
X232506Y261256D01*
X232505Y261256D01*
X232420Y261088D01*
X232420Y261087D01*
X232203Y260658D01*
X232026Y260600D01*
X232024Y260596D01*
X232020Y260595D01*
X231589Y260008D01*
X231564Y259974D01*
X231133Y259386D01*
X231133Y259382D01*
X231131Y259379D01*
X231128Y259193D01*
X230648Y258726D01*
X230648Y258724D01*
X230647Y258724D01*
X230251Y258184D01*
X230066Y258156D01*
X230064Y258153D01*
X230060Y258153D01*
X228986Y257106D01*
X228985Y257102D01*
X228984Y257101D01*
X228982Y257100D01*
X228949Y256917D01*
X228399Y256535D01*
X228399Y256533D01*
X228398Y256533D01*
X227918Y256066D01*
X227731Y256068D01*
X227728Y256065D01*
X227725Y256066D01*
X226570Y255265D01*
X226569Y255260D01*
X226565Y255258D01*
X226542Y255169D01*
X226468Y255127D01*
X226466Y255121D01*
X226462Y255118D01*
X226464Y255115D01*
X226463Y255112D01*
X226464Y255111D01*
X226464Y255110D01*
X228556Y251487D01*
X248637Y216704D01*
X250516Y213450D01*
X249889Y213153D01*
X249866Y213136D01*
X249839Y213126D01*
X249787Y213077D01*
X249729Y213034D01*
X249715Y213009D01*
X249694Y212990D01*
X249665Y212924D01*
X249629Y212862D01*
X249626Y212834D01*
X249614Y212808D01*
X249613Y212736D01*
X249604Y212665D01*
X249612Y212638D01*
X249612Y212609D01*
X249647Y212514D01*
X249658Y212474D01*
X249665Y212465D01*
X249669Y212453D01*
X259169Y195953D01*
X259221Y195895D01*
X259267Y195832D01*
X259286Y195821D01*
X259301Y195804D01*
X259371Y195770D01*
X259438Y195730D01*
X259463Y195726D01*
X259480Y195718D01*
X259525Y195716D01*
X259602Y195703D01*
X278602Y195703D01*
X278630Y195708D01*
X278658Y195706D01*
X278726Y195728D01*
X278797Y195742D01*
X278820Y195758D01*
X278847Y195767D01*
X278902Y195814D01*
X278961Y195855D01*
X278976Y195879D01*
X278998Y195897D01*
X279029Y195962D01*
X279068Y196022D01*
X279073Y196050D01*
X279085Y196076D01*
X279094Y196177D01*
X279101Y196219D01*
X279099Y196229D01*
X279100Y196242D01*
X279043Y196957D01*
X327165Y196957D01*
X327177Y196967D01*
X327176Y196968D01*
X327177Y196969D01*
X327177Y197041D01*
X327242Y197106D01*
X327243Y197110D01*
X327243Y197111D01*
X327246Y197113D01*
X327362Y198517D01*
X327359Y198521D01*
X327361Y198524D01*
X327265Y198684D01*
X327430Y199334D01*
X327429Y199335D01*
X327430Y199336D01*
X327485Y200003D01*
X327627Y200123D01*
X327628Y200128D01*
X327631Y200130D01*
X328000Y201586D01*
X328000Y201587D01*
X328000Y201588D01*
X327998Y201591D01*
X328000Y201594D01*
X327932Y201767D01*
X328201Y202381D01*
X328201Y202382D01*
X328202Y202383D01*
X328366Y203032D01*
X328526Y203127D01*
X328528Y203132D01*
X328531Y203133D01*
X329135Y204509D01*
X329134Y204511D01*
X329135Y204512D01*
X329134Y204514D01*
X329135Y204516D01*
X329097Y204698D01*
X329361Y205101D01*
X329361Y205102D01*
X329464Y205259D01*
X329463Y205261D01*
X329465Y205261D01*
X329734Y205874D01*
X329907Y205942D01*
X329909Y205946D01*
X329913Y205947D01*
X330311Y206557D01*
X330327Y206580D01*
X330735Y207205D01*
X330734Y207208D01*
X330736Y207210D01*
X330735Y207211D01*
X330737Y207212D01*
X330729Y207398D01*
X331183Y207891D01*
X331183Y207892D01*
X331184Y207892D01*
X331550Y208453D01*
X331733Y208491D01*
X331735Y208495D01*
X331739Y208495D01*
X332757Y209601D01*
X332757Y209605D01*
X332760Y209607D01*
X332783Y209792D01*
X333311Y210203D01*
X333312Y210205D01*
X333313Y210205D01*
X333495Y210403D01*
X333496Y210407D01*
X333498Y210409D01*
X333496Y210411D01*
X333496Y210419D01*
X333495Y210419D01*
X333495Y210420D01*
X328659Y215255D01*
X324429Y219485D01*
X323849Y220886D01*
X323849Y271268D01*
X324429Y272669D01*
X351764Y300004D01*
X353165Y300584D01*
X373065Y300584D01*
X373071Y300589D01*
G37*
%LPC*%
G36*
X371996Y217174D02*
X371996Y217174D01*
X371999Y217171D01*
X401007Y217171D01*
X401011Y217174D01*
X401015Y217174D01*
X405126Y221285D01*
X405126Y221291D01*
X405129Y221293D01*
X405129Y275046D01*
X405129Y275047D01*
X405126Y275050D01*
X405119Y275058D01*
X405117Y275056D01*
X405114Y275057D01*
X402253Y274291D01*
X402137Y274259D01*
X395576Y278047D01*
X393618Y285352D01*
X393615Y285365D01*
X397382Y291890D01*
X397403Y291926D01*
X404720Y293886D01*
X411281Y290099D01*
X413242Y282781D01*
X412685Y281816D01*
X412684Y281815D01*
X412100Y280803D01*
X412102Y280792D01*
X412102Y280789D01*
X412388Y280503D01*
X412411Y280351D01*
X412436Y280163D01*
X412444Y280140D01*
X412447Y280117D01*
X412552Y279798D01*
X412751Y279319D01*
X412751Y218952D01*
X412171Y217551D01*
X404749Y210129D01*
X403348Y209549D01*
X371999Y209549D01*
X371995Y209546D01*
X371991Y209546D01*
X371306Y208861D01*
X369356Y208053D01*
X367244Y208053D01*
X365737Y208678D01*
X365551Y208735D01*
X365364Y208796D01*
X365358Y208797D01*
X362993Y211162D01*
X362993Y211812D01*
X362998Y211870D01*
X362993Y211912D01*
X362993Y211948D01*
X362994Y211973D01*
X362993Y211978D01*
X362993Y214416D01*
X363801Y216366D01*
X365294Y217859D01*
X367244Y218667D01*
X369356Y218667D01*
X371306Y217859D01*
X371991Y217174D01*
X371996Y217174D01*
G37*
%LPD*%
%LPC*%
G36*
X469673Y390104D02*
X469673Y390104D01*
X469673Y392216D01*
X470481Y394166D01*
X471974Y395659D01*
X473924Y396467D01*
X476036Y396467D01*
X477986Y395659D01*
X479479Y394166D01*
X480287Y392216D01*
X480287Y390104D01*
X479479Y388154D01*
X478794Y387469D01*
X478794Y387464D01*
X478791Y387461D01*
X478791Y345952D01*
X478211Y344551D01*
X458496Y324836D01*
X457095Y324256D01*
X437195Y324256D01*
X437189Y324251D01*
X437184Y324250D01*
X436528Y323114D01*
X434854Y320214D01*
X427537Y318254D01*
X420976Y322041D01*
X419035Y329285D01*
X419015Y329359D01*
X422726Y335787D01*
X422803Y335920D01*
X430120Y337881D01*
X436681Y334093D01*
X437272Y331887D01*
X437281Y331881D01*
X437284Y331878D01*
X454754Y331878D01*
X454758Y331882D01*
X454762Y331881D01*
X471166Y348285D01*
X471166Y348291D01*
X471169Y348293D01*
X471169Y387461D01*
X471166Y387465D01*
X471166Y387469D01*
X470481Y388154D01*
X469673Y390104D01*
G37*
%LPD*%
%LPC*%
G36*
X262581Y366629D02*
X262581Y366629D01*
X262586Y366630D01*
X263242Y367766D01*
X263861Y368839D01*
X264916Y370666D01*
X272233Y372626D01*
X278794Y368839D01*
X280755Y361521D01*
X276967Y354960D01*
X269650Y352999D01*
X263089Y356787D01*
X262498Y358993D01*
X262489Y358999D01*
X262486Y359002D01*
X252636Y359002D01*
X252632Y358998D01*
X252628Y358999D01*
X223524Y329895D01*
X223524Y329889D01*
X223521Y329887D01*
X223521Y305959D01*
X223524Y305955D01*
X223524Y305951D01*
X224209Y305266D01*
X225017Y303316D01*
X225017Y301204D01*
X224209Y299254D01*
X222716Y297761D01*
X220766Y296953D01*
X218654Y296953D01*
X216704Y297761D01*
X215211Y299254D01*
X214403Y301204D01*
X214403Y303316D01*
X215211Y305266D01*
X215896Y305951D01*
X215896Y305955D01*
X215898Y305957D01*
X215897Y305957D01*
X215899Y305959D01*
X215899Y332228D01*
X216479Y333629D01*
X248894Y366044D01*
X250295Y366624D01*
X262575Y366624D01*
X262581Y366629D01*
G37*
%LPD*%
%LPC*%
G36*
X288489Y400781D02*
X288489Y400781D01*
X286926Y406615D01*
X286867Y406835D01*
X286538Y408060D01*
X286528Y408099D01*
X286798Y408566D01*
X287670Y410077D01*
X287668Y410087D01*
X287668Y410091D01*
X286435Y411324D01*
X286435Y411325D01*
X283913Y413847D01*
X282519Y415240D01*
X281939Y416640D01*
X281939Y442718D01*
X282519Y444119D01*
X316000Y477599D01*
X316000Y477603D01*
X316003Y477606D01*
X316002Y477607D01*
X316003Y477607D01*
X316003Y478576D01*
X316811Y480526D01*
X318304Y482019D01*
X320254Y482827D01*
X322366Y482827D01*
X324316Y482019D01*
X325809Y480526D01*
X326617Y478576D01*
X326617Y476464D01*
X325809Y474514D01*
X324316Y473021D01*
X322366Y472213D01*
X321397Y472213D01*
X321393Y472210D01*
X321389Y472210D01*
X289564Y440385D01*
X289564Y440379D01*
X289561Y440377D01*
X289561Y418982D01*
X289564Y418978D01*
X289564Y418973D01*
X290230Y418308D01*
X292192Y416345D01*
X293120Y415417D01*
X293128Y415417D01*
X293132Y415414D01*
X297633Y416621D01*
X304194Y412833D01*
X306155Y405515D01*
X302367Y398954D01*
X295049Y396994D01*
X288489Y400781D01*
G37*
%LPD*%
%LPC*%
G36*
X228830Y392513D02*
X228830Y392513D01*
X228830Y392509D01*
X232715Y388624D01*
X232721Y388624D01*
X232723Y388621D01*
X275275Y388621D01*
X275281Y388626D01*
X275286Y388627D01*
X276533Y390787D01*
X277605Y392644D01*
X277616Y392663D01*
X284933Y394623D01*
X291494Y390836D01*
X293455Y383518D01*
X289667Y376957D01*
X282350Y374997D01*
X275789Y378784D01*
X275198Y380990D01*
X275189Y380996D01*
X275186Y380999D01*
X230382Y380999D01*
X228981Y381579D01*
X222279Y388282D01*
X222171Y388390D01*
X222165Y388390D01*
X222163Y388393D01*
X222155Y388393D01*
X222063Y388461D01*
X221950Y388554D01*
X221891Y388587D01*
X221837Y388626D01*
X221637Y388727D01*
X221576Y388761D01*
X221559Y388766D01*
X221538Y388777D01*
X220514Y389201D01*
X219021Y390694D01*
X218213Y392644D01*
X218213Y394756D01*
X219021Y396706D01*
X220786Y398471D01*
X221322Y399007D01*
X224576Y399007D01*
X226526Y398199D01*
X228019Y396706D01*
X228827Y394756D01*
X228827Y392517D01*
X228830Y392513D01*
G37*
%LPD*%
%LPC*%
G36*
X467445Y305030D02*
X467445Y305030D01*
X467447Y305027D01*
X468416Y305027D01*
X470366Y304219D01*
X471859Y302726D01*
X472667Y300776D01*
X472667Y298664D01*
X471859Y296714D01*
X470366Y295221D01*
X468416Y294413D01*
X466304Y294413D01*
X464354Y295221D01*
X462861Y296714D01*
X462053Y298664D01*
X462053Y299633D01*
X462050Y299637D01*
X462050Y299641D01*
X459435Y302256D01*
X459430Y302256D01*
X459428Y302257D01*
X459427Y302259D01*
X424495Y302259D01*
X424489Y302254D01*
X424484Y302253D01*
X423796Y301061D01*
X422154Y298217D01*
X414837Y296257D01*
X408276Y300044D01*
X406342Y307260D01*
X406315Y307362D01*
X410103Y313923D01*
X417420Y315883D01*
X423981Y312096D01*
X424572Y309890D01*
X424581Y309884D01*
X424584Y309881D01*
X461768Y309881D01*
X463169Y309301D01*
X467439Y305030D01*
X467445Y305030D01*
G37*
%LPD*%
G36*
X363231Y195709D02*
X363231Y195709D01*
X363260Y195706D01*
X363327Y195728D01*
X363397Y195742D01*
X363421Y195759D01*
X363449Y195768D01*
X363502Y195815D01*
X363561Y195855D01*
X363577Y195879D01*
X363599Y195899D01*
X363630Y195963D01*
X363668Y196022D01*
X363673Y196051D01*
X363685Y196077D01*
X363694Y196177D01*
X363701Y196219D01*
X363698Y196229D01*
X363700Y196243D01*
X363468Y199041D01*
X363458Y199075D01*
X363454Y199123D01*
X362765Y201844D01*
X362750Y201876D01*
X362738Y201922D01*
X361610Y204494D01*
X361590Y204522D01*
X361571Y204566D01*
X360035Y206917D01*
X360011Y206941D01*
X359985Y206982D01*
X358083Y209047D01*
X358055Y209068D01*
X358022Y209103D01*
X355807Y210828D01*
X355776Y210843D01*
X355738Y210873D01*
X353268Y212209D01*
X353235Y212219D01*
X353193Y212242D01*
X352007Y212650D01*
X350553Y213149D01*
X350537Y213154D01*
X350503Y213159D01*
X350457Y213174D01*
X347688Y213636D01*
X347653Y213635D01*
X347606Y213643D01*
X344798Y213643D01*
X344764Y213636D01*
X344716Y213636D01*
X341947Y213174D01*
X341914Y213162D01*
X341867Y213154D01*
X339211Y212242D01*
X339181Y212225D01*
X339136Y212209D01*
X336666Y210873D01*
X336640Y210851D01*
X336597Y210828D01*
X334382Y209103D01*
X334359Y209077D01*
X334321Y209047D01*
X332419Y206982D01*
X332401Y206952D01*
X332369Y206917D01*
X330833Y204566D01*
X330820Y204534D01*
X330794Y204494D01*
X329666Y201922D01*
X329659Y201889D01*
X329656Y201882D01*
X329650Y201873D01*
X329649Y201867D01*
X329639Y201844D01*
X328950Y199123D01*
X328948Y199088D01*
X328936Y199041D01*
X328704Y196243D01*
X328708Y196214D01*
X328703Y196185D01*
X328720Y196116D01*
X328728Y196046D01*
X328742Y196020D01*
X328749Y195992D01*
X328791Y195935D01*
X328826Y195873D01*
X328850Y195855D01*
X328867Y195832D01*
X328928Y195796D01*
X328985Y195753D01*
X329013Y195745D01*
X329038Y195730D01*
X329136Y195714D01*
X329177Y195703D01*
X329188Y195705D01*
X329202Y195703D01*
X363202Y195703D01*
X363231Y195709D01*
G37*
G36*
X347640Y478768D02*
X347640Y478768D01*
X347688Y478768D01*
X350457Y479230D01*
X350490Y479242D01*
X350537Y479250D01*
X353193Y480162D01*
X353223Y480179D01*
X353268Y480195D01*
X355738Y481531D01*
X355764Y481553D01*
X355807Y481576D01*
X358022Y483301D01*
X358045Y483327D01*
X358083Y483357D01*
X359985Y485422D01*
X360003Y485452D01*
X360035Y485487D01*
X361571Y487838D01*
X361584Y487870D01*
X361610Y487910D01*
X362738Y490482D01*
X362745Y490515D01*
X362765Y490560D01*
X363454Y493281D01*
X363456Y493316D01*
X363468Y493363D01*
X363700Y496161D01*
X363696Y496190D01*
X363701Y496219D01*
X363685Y496288D01*
X363676Y496358D01*
X363662Y496384D01*
X363655Y496412D01*
X363613Y496469D01*
X363578Y496531D01*
X363554Y496549D01*
X363537Y496572D01*
X363476Y496608D01*
X363419Y496651D01*
X363391Y496659D01*
X363366Y496674D01*
X363268Y496690D01*
X363227Y496701D01*
X363216Y496699D01*
X363202Y496701D01*
X329202Y496701D01*
X329173Y496695D01*
X329144Y496698D01*
X329077Y496676D01*
X329007Y496662D01*
X328983Y496645D01*
X328955Y496636D01*
X328902Y496589D01*
X328843Y496549D01*
X328828Y496525D01*
X328806Y496505D01*
X328774Y496441D01*
X328736Y496382D01*
X328731Y496353D01*
X328719Y496327D01*
X328710Y496227D01*
X328703Y496185D01*
X328706Y496175D01*
X328704Y496161D01*
X328936Y493363D01*
X328946Y493329D01*
X328950Y493281D01*
X329639Y490560D01*
X329654Y490528D01*
X329666Y490482D01*
X330794Y487910D01*
X330814Y487882D01*
X330833Y487838D01*
X332369Y485487D01*
X332393Y485463D01*
X332419Y485422D01*
X334321Y483357D01*
X334349Y483336D01*
X334382Y483301D01*
X336597Y481576D01*
X336628Y481561D01*
X336666Y481531D01*
X339136Y480195D01*
X339169Y480185D01*
X339211Y480162D01*
X341867Y479250D01*
X341901Y479246D01*
X341947Y479230D01*
X344716Y478768D01*
X344751Y478769D01*
X344798Y478761D01*
X347606Y478761D01*
X347640Y478768D01*
G37*
G36*
X224809Y256012D02*
X224809Y256012D01*
X224880Y256009D01*
X224907Y256019D01*
X224936Y256021D01*
X225026Y256063D01*
X225066Y256078D01*
X225074Y256086D01*
X225087Y256092D01*
X227390Y257691D01*
X227414Y257717D01*
X227454Y257744D01*
X229463Y259701D01*
X229482Y259730D01*
X229517Y259763D01*
X231176Y262024D01*
X231191Y262055D01*
X231220Y262094D01*
X232484Y264597D01*
X232493Y264631D01*
X232515Y264674D01*
X233351Y267351D01*
X233354Y267385D01*
X233369Y267431D01*
X233752Y270210D01*
X233750Y270244D01*
X233756Y270292D01*
X233677Y273095D01*
X233669Y273129D01*
X233668Y273177D01*
X233129Y275929D01*
X233115Y275961D01*
X233106Y276009D01*
X232121Y278634D01*
X232106Y278659D01*
X232101Y278679D01*
X232093Y278690D01*
X232086Y278709D01*
X230682Y281137D01*
X230659Y281163D01*
X230635Y281205D01*
X228851Y283368D01*
X228824Y283390D01*
X228793Y283427D01*
X226677Y285268D01*
X226647Y285285D01*
X226611Y285317D01*
X224220Y286784D01*
X224188Y286795D01*
X224147Y286821D01*
X221548Y287874D01*
X221514Y287881D01*
X221469Y287899D01*
X218732Y288510D01*
X218697Y288511D01*
X218650Y288522D01*
X215850Y288674D01*
X215816Y288669D01*
X215768Y288672D01*
X212980Y288362D01*
X212947Y288351D01*
X212899Y288346D01*
X210201Y287581D01*
X210171Y287565D01*
X210124Y287552D01*
X207589Y286353D01*
X207565Y286336D01*
X207538Y286326D01*
X207486Y286277D01*
X207429Y286234D01*
X207415Y286209D01*
X207394Y286189D01*
X207365Y286124D01*
X207329Y286063D01*
X207326Y286034D01*
X207314Y286007D01*
X207313Y285936D01*
X207304Y285865D01*
X207312Y285837D01*
X207312Y285808D01*
X207346Y285715D01*
X207358Y285674D01*
X207365Y285665D01*
X207370Y285652D01*
X224370Y256252D01*
X224389Y256230D01*
X224402Y256204D01*
X224455Y256156D01*
X224502Y256103D01*
X224528Y256091D01*
X224550Y256071D01*
X224617Y256048D01*
X224681Y256018D01*
X224710Y256016D01*
X224738Y256007D01*
X224809Y256012D01*
G37*
G36*
X476588Y403735D02*
X476588Y403735D01*
X476636Y403732D01*
X479424Y404042D01*
X479457Y404053D01*
X479505Y404058D01*
X482203Y404823D01*
X482233Y404839D01*
X482280Y404852D01*
X484815Y406051D01*
X484839Y406068D01*
X484866Y406078D01*
X484918Y406127D01*
X484975Y406170D01*
X484989Y406195D01*
X485011Y406215D01*
X485039Y406280D01*
X485075Y406342D01*
X485078Y406370D01*
X485090Y406397D01*
X485091Y406468D01*
X485100Y406539D01*
X485092Y406567D01*
X485092Y406596D01*
X485058Y406689D01*
X485046Y406730D01*
X485039Y406739D01*
X485034Y406752D01*
X468034Y436152D01*
X468015Y436174D01*
X468002Y436200D01*
X467949Y436248D01*
X467902Y436301D01*
X467876Y436313D01*
X467854Y436333D01*
X467787Y436356D01*
X467723Y436386D01*
X467694Y436388D01*
X467666Y436397D01*
X467595Y436392D01*
X467524Y436395D01*
X467497Y436385D01*
X467468Y436383D01*
X467378Y436341D01*
X467338Y436326D01*
X467330Y436318D01*
X467317Y436312D01*
X465014Y434713D01*
X464990Y434688D01*
X464950Y434660D01*
X462941Y432703D01*
X462922Y432674D01*
X462887Y432641D01*
X461228Y430380D01*
X461213Y430349D01*
X461184Y430310D01*
X459920Y427807D01*
X459911Y427773D01*
X459889Y427730D01*
X459053Y425053D01*
X459050Y425019D01*
X459035Y424973D01*
X458652Y422194D01*
X458654Y422160D01*
X458648Y422112D01*
X458727Y419309D01*
X458735Y419275D01*
X458736Y419227D01*
X459275Y416475D01*
X459289Y416443D01*
X459298Y416395D01*
X460283Y413770D01*
X460301Y413740D01*
X460318Y413695D01*
X461722Y411267D01*
X461745Y411241D01*
X461769Y411200D01*
X463553Y409036D01*
X463580Y409014D01*
X463611Y408977D01*
X465727Y407136D01*
X465757Y407119D01*
X465793Y407088D01*
X468184Y405620D01*
X468216Y405609D01*
X468257Y405583D01*
X470856Y404530D01*
X470890Y404523D01*
X470935Y404505D01*
X473672Y403894D01*
X473707Y403893D01*
X473754Y403882D01*
X476554Y403730D01*
X476588Y403735D01*
G37*
G36*
X467628Y256013D02*
X467628Y256013D01*
X467699Y256012D01*
X467726Y256023D01*
X467755Y256027D01*
X467817Y256061D01*
X467882Y256089D01*
X467903Y256110D01*
X467928Y256124D01*
X467991Y256200D01*
X468021Y256231D01*
X468025Y256241D01*
X468034Y256252D01*
X485034Y285652D01*
X485043Y285680D01*
X485060Y285704D01*
X485075Y285773D01*
X485097Y285841D01*
X485095Y285870D01*
X485101Y285898D01*
X485088Y285968D01*
X485082Y286039D01*
X485069Y286065D01*
X485063Y286093D01*
X485023Y286152D01*
X484991Y286215D01*
X484968Y286234D01*
X484952Y286258D01*
X484870Y286315D01*
X484837Y286342D01*
X484827Y286345D01*
X484815Y286353D01*
X482280Y287552D01*
X482246Y287560D01*
X482203Y287581D01*
X479505Y288346D01*
X479470Y288348D01*
X479424Y288362D01*
X476636Y288672D01*
X476602Y288669D01*
X476554Y288674D01*
X473754Y288522D01*
X473720Y288513D01*
X473672Y288510D01*
X470935Y287899D01*
X470903Y287885D01*
X470856Y287874D01*
X468257Y286821D01*
X468228Y286802D01*
X468184Y286784D01*
X465793Y285317D01*
X465768Y285293D01*
X465727Y285268D01*
X463611Y283427D01*
X463590Y283400D01*
X463553Y283368D01*
X461769Y281205D01*
X461753Y281174D01*
X461722Y281137D01*
X460318Y278709D01*
X460307Y278676D01*
X460300Y278663D01*
X460290Y278649D01*
X460290Y278646D01*
X460283Y278634D01*
X459298Y276009D01*
X459292Y275974D01*
X459275Y275929D01*
X458736Y273177D01*
X458736Y273143D01*
X458727Y273095D01*
X458648Y270292D01*
X458654Y270258D01*
X458652Y270210D01*
X459035Y267431D01*
X459047Y267399D01*
X459053Y267351D01*
X459889Y264674D01*
X459906Y264643D01*
X459920Y264597D01*
X461184Y262094D01*
X461206Y262067D01*
X461228Y262024D01*
X462887Y259763D01*
X462913Y259740D01*
X462941Y259701D01*
X464950Y257744D01*
X464979Y257725D01*
X465014Y257691D01*
X467317Y256092D01*
X467344Y256080D01*
X467367Y256062D01*
X467435Y256041D01*
X467500Y256013D01*
X467529Y256013D01*
X467557Y256005D01*
X467628Y256013D01*
G37*
G36*
X218650Y403882D02*
X218650Y403882D01*
X218684Y403891D01*
X218732Y403894D01*
X221469Y404505D01*
X221501Y404519D01*
X221548Y404530D01*
X224147Y405583D01*
X224176Y405602D01*
X224220Y405620D01*
X226611Y407088D01*
X226636Y407111D01*
X226677Y407136D01*
X228793Y408977D01*
X228814Y409004D01*
X228851Y409036D01*
X230635Y411200D01*
X230651Y411230D01*
X230682Y411267D01*
X232086Y413695D01*
X232097Y413728D01*
X232121Y413770D01*
X233106Y416395D01*
X233112Y416430D01*
X233129Y416475D01*
X233668Y419227D01*
X233668Y419262D01*
X233677Y419309D01*
X233756Y422112D01*
X233751Y422146D01*
X233752Y422194D01*
X233369Y424973D01*
X233357Y425005D01*
X233351Y425053D01*
X232515Y427730D01*
X232498Y427761D01*
X232484Y427807D01*
X231220Y430310D01*
X231198Y430337D01*
X231176Y430380D01*
X229517Y432641D01*
X229491Y432664D01*
X229463Y432703D01*
X227454Y434660D01*
X227425Y434679D01*
X227390Y434713D01*
X225087Y436312D01*
X225060Y436324D01*
X225037Y436342D01*
X224969Y436363D01*
X224904Y436391D01*
X224875Y436391D01*
X224847Y436399D01*
X224776Y436391D01*
X224705Y436392D01*
X224678Y436381D01*
X224649Y436377D01*
X224587Y436343D01*
X224522Y436315D01*
X224501Y436294D01*
X224476Y436280D01*
X224413Y436204D01*
X224383Y436173D01*
X224379Y436163D01*
X224370Y436152D01*
X207370Y406752D01*
X207361Y406724D01*
X207344Y406700D01*
X207329Y406631D01*
X207307Y406563D01*
X207309Y406534D01*
X207303Y406506D01*
X207316Y406436D01*
X207322Y406365D01*
X207335Y406339D01*
X207341Y406311D01*
X207381Y406252D01*
X207413Y406189D01*
X207436Y406170D01*
X207452Y406146D01*
X207534Y406089D01*
X207567Y406062D01*
X207577Y406059D01*
X207589Y406051D01*
X210124Y404852D01*
X210158Y404844D01*
X210201Y404823D01*
X212899Y404058D01*
X212934Y404056D01*
X212980Y404042D01*
X215768Y403732D01*
X215802Y403735D01*
X215850Y403730D01*
X218650Y403882D01*
G37*
%LPC*%
G36*
X348179Y246753D02*
X348179Y246753D01*
X346240Y253988D01*
X346218Y254071D01*
X350006Y260632D01*
X357323Y262592D01*
X363884Y258804D01*
X365845Y251487D01*
X362057Y244926D01*
X354740Y242965D01*
X348179Y246753D01*
G37*
%LPD*%
%LPC*%
G36*
X424379Y378736D02*
X424379Y378736D01*
X422513Y385699D01*
X422418Y386053D01*
X426206Y392614D01*
X433523Y394575D01*
X440084Y390787D01*
X442045Y383469D01*
X438257Y376908D01*
X430940Y374948D01*
X424379Y378736D01*
G37*
%LPD*%
%LPC*%
G36*
X313889Y444776D02*
X313889Y444776D01*
X311928Y452093D01*
X315716Y458654D01*
X323033Y460615D01*
X329594Y456827D01*
X331555Y449509D01*
X327767Y442948D01*
X320450Y440988D01*
X313889Y444776D01*
G37*
%LPD*%
%LPC*%
G36*
X335886Y432076D02*
X335886Y432076D01*
X333925Y439393D01*
X337033Y444776D01*
X337713Y445954D01*
X345030Y447915D01*
X351591Y444127D01*
X353552Y436809D01*
X349764Y430248D01*
X342447Y428288D01*
X335886Y432076D01*
G37*
%LPD*%
%LPC*%
G36*
X370176Y234053D02*
X370176Y234053D01*
X368215Y241371D01*
X371323Y246753D01*
X372003Y247932D01*
X379320Y249892D01*
X385881Y246104D01*
X387842Y238787D01*
X384054Y232226D01*
X376737Y230265D01*
X370176Y234053D01*
G37*
%LPD*%
%LPC*%
G36*
X237689Y312793D02*
X237689Y312793D01*
X236226Y318254D01*
X235728Y320111D01*
X239516Y326672D01*
X246833Y328632D01*
X253394Y324844D01*
X255355Y317527D01*
X251567Y310966D01*
X244250Y309005D01*
X237689Y312793D01*
G37*
%LPD*%
%LPC*%
G36*
X259686Y300093D02*
X259686Y300093D01*
X257862Y306901D01*
X257725Y307411D01*
X261513Y313972D01*
X268830Y315932D01*
X275391Y312144D01*
X277352Y304827D01*
X273564Y298266D01*
X266247Y296305D01*
X259686Y300093D01*
G37*
%LPD*%
%LPC*%
G36*
X446376Y366036D02*
X446376Y366036D01*
X444623Y372578D01*
X444415Y373353D01*
X448203Y379914D01*
X455520Y381875D01*
X462081Y378087D01*
X464042Y370769D01*
X460254Y364208D01*
X452937Y362248D01*
X446376Y366036D01*
G37*
%LPD*%
D10*
X428802Y489302D03*
X511402Y346202D03*
X428802Y203102D03*
X263602Y203102D03*
X181002Y346202D03*
X263602Y489302D03*
X470102Y417702D03*
X470102Y274702D03*
X346202Y203102D03*
X222302Y274702D03*
X222302Y417702D03*
X346202Y489302D03*
D11*
X378029Y240079D03*
X390729Y262076D03*
X403429Y284073D03*
X416129Y306070D03*
X428829Y328067D03*
X441529Y350064D03*
X356031Y252779D03*
X368731Y274776D03*
X381431Y296773D03*
X394131Y318770D03*
X406831Y340767D03*
X419531Y362764D03*
X454229Y372061D03*
X432231Y384761D03*
D12*
X321741Y450801D03*
X309041Y428804D03*
X296341Y406807D03*
X283641Y384810D03*
X270941Y362813D03*
X258241Y340816D03*
X343739Y438101D03*
X331039Y416104D03*
X318339Y394107D03*
X305639Y372110D03*
X292939Y350113D03*
X280239Y328116D03*
X245541Y318819D03*
X267539Y306119D03*
D13*
X393700Y353899D02*
X406831Y340767D01*
X393700Y383540D02*
X427990Y417830D01*
X469974Y417830D01*
X470102Y417702D01*
X393700Y383540D02*
X393700Y353899D01*
X394131Y318770D02*
X394131Y306909D01*
X401320Y299720D01*
D14*
X419100Y289560D01*
D13*
X455244Y289560D01*
X470102Y274702D01*
X381431Y296773D02*
X353923Y296773D01*
X327660Y270510D01*
X327660Y221644D01*
X346202Y203102D01*
X408940Y278561D02*
X403429Y284073D01*
X408940Y278561D02*
X408940Y219710D01*
X402590Y213360D01*
D15*
X368300Y213360D03*
D13*
X402590Y213360D01*
X416129Y306070D02*
X461010Y306070D01*
X467360Y299720D01*
D15*
X467360Y299720D03*
D13*
X456337Y328067D02*
X428829Y328067D01*
X474980Y346710D02*
X474980Y391160D01*
D15*
X474980Y391160D03*
D13*
X474980Y346710D02*
X456337Y328067D01*
X308610Y334441D02*
X292939Y350113D01*
X279782Y274702D02*
X222302Y274702D01*
X308610Y303530D02*
X308610Y334441D01*
X308610Y303530D02*
X279782Y274702D01*
X305639Y372110D02*
X305639Y385242D01*
X298450Y391160D01*
D14*
X283210Y400050D01*
D13*
X239954Y400050D01*
X222302Y417702D01*
X318339Y394107D02*
X343307Y394107D01*
X365760Y416560D02*
X365760Y471170D01*
X347628Y489302D01*
X346202Y489302D01*
X365760Y416560D02*
X343307Y394107D01*
X296341Y406807D02*
X285750Y417399D01*
D15*
X321310Y477520D03*
D13*
X285750Y441960D02*
X285750Y417399D01*
X285750Y441960D02*
X321310Y477520D01*
X283641Y384810D02*
X231140Y384810D01*
X223520Y392430D01*
X223520Y393700D01*
D15*
X223520Y393700D03*
D13*
X251053Y362813D02*
X270941Y362813D01*
X219710Y331470D02*
X219710Y302260D01*
D15*
X219710Y302260D03*
D13*
X219710Y331470D02*
X251053Y362813D01*
M02*
