G04 EAGLE Gerber RS-274X export*
G75*
%MOMM*%
%FSLAX34Y34*%
%LPD*%
%INSilkscreen Bottom*%
%IPPOS*%
%AMOC8*
5,1,8,0,0,1.08239X$1,22.5*%
G01*
%ADD10C,0.101600*%
%ADD11C,0.152400*%


D10*
X428096Y466183D02*
X426501Y467300D01*
X422778Y461983D01*
X425968Y459749D01*
X426051Y459694D01*
X426135Y459642D01*
X426222Y459593D01*
X426310Y459547D01*
X426400Y459505D01*
X426492Y459466D01*
X426585Y459431D01*
X426679Y459399D01*
X426774Y459371D01*
X426871Y459347D01*
X426968Y459326D01*
X427066Y459310D01*
X427165Y459296D01*
X427264Y459287D01*
X427363Y459282D01*
X427463Y459280D01*
X427562Y459282D01*
X427661Y459288D01*
X427760Y459298D01*
X427859Y459311D01*
X427957Y459329D01*
X428054Y459350D01*
X428150Y459374D01*
X428246Y459403D01*
X428340Y459435D01*
X428433Y459470D01*
X428524Y459509D01*
X428614Y459552D01*
X428702Y459598D01*
X428788Y459647D01*
X428873Y459700D01*
X428955Y459756D01*
X429035Y459815D01*
X429113Y459877D01*
X429188Y459942D01*
X429261Y460009D01*
X429331Y460080D01*
X429399Y460153D01*
X429463Y460229D01*
X429525Y460307D01*
X429584Y460387D01*
X433307Y465704D01*
X433362Y465787D01*
X433414Y465871D01*
X433463Y465958D01*
X433509Y466046D01*
X433551Y466136D01*
X433590Y466228D01*
X433625Y466321D01*
X433657Y466415D01*
X433685Y466510D01*
X433709Y466607D01*
X433730Y466704D01*
X433746Y466802D01*
X433760Y466901D01*
X433769Y467000D01*
X433774Y467099D01*
X433776Y467199D01*
X433774Y467298D01*
X433768Y467397D01*
X433758Y467496D01*
X433745Y467595D01*
X433727Y467693D01*
X433706Y467790D01*
X433682Y467886D01*
X433653Y467982D01*
X433621Y468076D01*
X433586Y468169D01*
X433547Y468260D01*
X433504Y468350D01*
X433458Y468438D01*
X433409Y468524D01*
X433356Y468609D01*
X433300Y468691D01*
X433241Y468771D01*
X433179Y468849D01*
X433114Y468924D01*
X433047Y468997D01*
X432976Y469067D01*
X432903Y469135D01*
X432827Y469199D01*
X432749Y469261D01*
X432669Y469320D01*
X432670Y469320D02*
X429479Y471554D01*
X424810Y474824D02*
X418108Y465253D01*
X412791Y468976D02*
X424810Y474824D01*
X419492Y478547D02*
X412791Y468976D01*
X408121Y472246D02*
X414822Y481817D01*
X412164Y483678D01*
X412164Y483679D02*
X412070Y483742D01*
X411974Y483802D01*
X411876Y483859D01*
X411776Y483912D01*
X411674Y483962D01*
X411570Y484008D01*
X411465Y484050D01*
X411359Y484089D01*
X411251Y484124D01*
X411142Y484155D01*
X411032Y484183D01*
X410921Y484206D01*
X410810Y484226D01*
X410698Y484242D01*
X410585Y484254D01*
X410472Y484262D01*
X410359Y484266D01*
X410245Y484266D01*
X410132Y484262D01*
X410019Y484254D01*
X409906Y484242D01*
X409794Y484226D01*
X409683Y484206D01*
X409572Y484183D01*
X409462Y484155D01*
X409353Y484124D01*
X409245Y484089D01*
X409139Y484050D01*
X409034Y484008D01*
X408930Y483962D01*
X408828Y483912D01*
X408728Y483859D01*
X408630Y483802D01*
X408534Y483742D01*
X408440Y483679D01*
X408349Y483612D01*
X408259Y483543D01*
X408172Y483470D01*
X408088Y483394D01*
X408007Y483315D01*
X407928Y483234D01*
X407852Y483150D01*
X407779Y483063D01*
X407710Y482974D01*
X407643Y482882D01*
X407644Y482881D02*
X404665Y478628D01*
X404602Y478534D01*
X404542Y478438D01*
X404485Y478340D01*
X404432Y478240D01*
X404382Y478138D01*
X404336Y478034D01*
X404294Y477929D01*
X404255Y477823D01*
X404220Y477715D01*
X404189Y477606D01*
X404161Y477496D01*
X404138Y477385D01*
X404118Y477274D01*
X404102Y477162D01*
X404090Y477049D01*
X404082Y476936D01*
X404078Y476823D01*
X404078Y476709D01*
X404082Y476596D01*
X404090Y476483D01*
X404102Y476370D01*
X404118Y476258D01*
X404138Y476147D01*
X404161Y476036D01*
X404189Y475926D01*
X404220Y475817D01*
X404255Y475709D01*
X404294Y475603D01*
X404336Y475498D01*
X404382Y475394D01*
X404432Y475292D01*
X404485Y475192D01*
X404542Y475094D01*
X404602Y474998D01*
X404665Y474904D01*
X404732Y474812D01*
X404801Y474723D01*
X404874Y474636D01*
X404950Y474552D01*
X405029Y474471D01*
X405110Y474392D01*
X405194Y474316D01*
X405281Y474243D01*
X405371Y474174D01*
X405462Y474107D01*
X408121Y472246D01*
X492049Y337254D02*
X492049Y335306D01*
X492049Y337254D02*
X485558Y337254D01*
X485558Y333359D01*
X485560Y333260D01*
X485566Y333160D01*
X485575Y333061D01*
X485588Y332963D01*
X485605Y332865D01*
X485626Y332767D01*
X485651Y332671D01*
X485679Y332576D01*
X485711Y332482D01*
X485746Y332389D01*
X485785Y332297D01*
X485828Y332207D01*
X485873Y332119D01*
X485923Y332032D01*
X485975Y331948D01*
X486031Y331865D01*
X486089Y331785D01*
X486151Y331707D01*
X486216Y331632D01*
X486284Y331559D01*
X486354Y331489D01*
X486427Y331421D01*
X486502Y331356D01*
X486580Y331294D01*
X486660Y331236D01*
X486743Y331180D01*
X486827Y331128D01*
X486914Y331078D01*
X487002Y331033D01*
X487092Y330990D01*
X487184Y330951D01*
X487277Y330916D01*
X487371Y330884D01*
X487466Y330856D01*
X487562Y330831D01*
X487660Y330810D01*
X487758Y330793D01*
X487856Y330780D01*
X487955Y330771D01*
X488055Y330765D01*
X488154Y330763D01*
X494646Y330763D01*
X494745Y330765D01*
X494845Y330771D01*
X494944Y330780D01*
X495042Y330793D01*
X495140Y330810D01*
X495238Y330831D01*
X495334Y330856D01*
X495429Y330884D01*
X495523Y330916D01*
X495616Y330951D01*
X495708Y330990D01*
X495798Y331033D01*
X495886Y331078D01*
X495973Y331128D01*
X496057Y331180D01*
X496140Y331236D01*
X496220Y331294D01*
X496298Y331356D01*
X496373Y331421D01*
X496446Y331489D01*
X496516Y331559D01*
X496584Y331632D01*
X496649Y331707D01*
X496711Y331785D01*
X496769Y331865D01*
X496825Y331948D01*
X496877Y332032D01*
X496927Y332119D01*
X496972Y332207D01*
X497015Y332297D01*
X497054Y332389D01*
X497089Y332481D01*
X497121Y332576D01*
X497149Y332671D01*
X497174Y332767D01*
X497195Y332865D01*
X497212Y332963D01*
X497225Y333061D01*
X497234Y333160D01*
X497240Y333260D01*
X497242Y333359D01*
X497242Y337254D01*
X497242Y342954D02*
X485558Y342954D01*
X485558Y349446D02*
X497242Y342954D01*
X497242Y349446D02*
X485558Y349446D01*
X485558Y355146D02*
X497242Y355146D01*
X497242Y358392D01*
X497240Y358505D01*
X497234Y358618D01*
X497224Y358731D01*
X497210Y358844D01*
X497193Y358956D01*
X497171Y359067D01*
X497146Y359177D01*
X497116Y359287D01*
X497083Y359395D01*
X497046Y359502D01*
X497006Y359608D01*
X496961Y359712D01*
X496913Y359815D01*
X496862Y359916D01*
X496807Y360015D01*
X496749Y360112D01*
X496687Y360207D01*
X496622Y360300D01*
X496554Y360390D01*
X496483Y360478D01*
X496408Y360564D01*
X496331Y360647D01*
X496251Y360727D01*
X496168Y360804D01*
X496082Y360879D01*
X495994Y360950D01*
X495904Y361018D01*
X495811Y361083D01*
X495716Y361145D01*
X495619Y361203D01*
X495520Y361258D01*
X495419Y361309D01*
X495316Y361357D01*
X495212Y361402D01*
X495106Y361442D01*
X494999Y361479D01*
X494891Y361512D01*
X494781Y361542D01*
X494671Y361567D01*
X494560Y361589D01*
X494448Y361606D01*
X494335Y361620D01*
X494222Y361630D01*
X494109Y361636D01*
X493996Y361638D01*
X488804Y361638D01*
X488691Y361636D01*
X488578Y361630D01*
X488465Y361620D01*
X488352Y361606D01*
X488240Y361589D01*
X488129Y361567D01*
X488019Y361542D01*
X487909Y361512D01*
X487801Y361479D01*
X487694Y361442D01*
X487588Y361402D01*
X487484Y361357D01*
X487381Y361309D01*
X487280Y361258D01*
X487181Y361203D01*
X487084Y361145D01*
X486989Y361083D01*
X486896Y361018D01*
X486806Y360950D01*
X486718Y360879D01*
X486632Y360804D01*
X486549Y360727D01*
X486469Y360647D01*
X486392Y360564D01*
X486317Y360478D01*
X486246Y360390D01*
X486178Y360300D01*
X486113Y360207D01*
X486051Y360112D01*
X485993Y360015D01*
X485938Y359916D01*
X485887Y359815D01*
X485839Y359712D01*
X485794Y359608D01*
X485754Y359502D01*
X485717Y359395D01*
X485684Y359287D01*
X485654Y359177D01*
X485629Y359067D01*
X485607Y358956D01*
X485590Y358844D01*
X485576Y358731D01*
X485566Y358618D01*
X485560Y358505D01*
X485558Y358392D01*
X485558Y355146D01*
X427351Y227280D02*
X425756Y226163D01*
X429479Y220846D01*
X432670Y223080D01*
X432669Y223080D02*
X432749Y223139D01*
X432827Y223201D01*
X432903Y223265D01*
X432976Y223333D01*
X433047Y223403D01*
X433114Y223476D01*
X433179Y223551D01*
X433241Y223629D01*
X433300Y223709D01*
X433356Y223791D01*
X433409Y223876D01*
X433458Y223962D01*
X433504Y224050D01*
X433547Y224140D01*
X433586Y224231D01*
X433621Y224324D01*
X433653Y224418D01*
X433682Y224514D01*
X433706Y224610D01*
X433727Y224707D01*
X433745Y224805D01*
X433758Y224904D01*
X433768Y225003D01*
X433774Y225102D01*
X433776Y225201D01*
X433774Y225301D01*
X433769Y225400D01*
X433759Y225499D01*
X433746Y225598D01*
X433730Y225696D01*
X433709Y225793D01*
X433685Y225890D01*
X433657Y225985D01*
X433625Y226079D01*
X433590Y226172D01*
X433551Y226264D01*
X433509Y226354D01*
X433463Y226442D01*
X433414Y226529D01*
X433362Y226613D01*
X433307Y226696D01*
X429584Y232013D01*
X429525Y232093D01*
X429463Y232171D01*
X429399Y232247D01*
X429331Y232320D01*
X429261Y232391D01*
X429188Y232458D01*
X429113Y232523D01*
X429035Y232585D01*
X428955Y232644D01*
X428873Y232700D01*
X428788Y232753D01*
X428702Y232802D01*
X428614Y232848D01*
X428524Y232891D01*
X428433Y232930D01*
X428340Y232965D01*
X428246Y232997D01*
X428150Y233026D01*
X428054Y233050D01*
X427957Y233071D01*
X427859Y233089D01*
X427760Y233102D01*
X427661Y233112D01*
X427562Y233118D01*
X427463Y233120D01*
X427363Y233118D01*
X427264Y233113D01*
X427165Y233104D01*
X427066Y233090D01*
X426968Y233074D01*
X426871Y233053D01*
X426774Y233029D01*
X426679Y233001D01*
X426585Y232969D01*
X426492Y232934D01*
X426400Y232895D01*
X426310Y232853D01*
X426222Y232807D01*
X426135Y232758D01*
X426051Y232706D01*
X425968Y232651D01*
X422778Y230417D01*
X418108Y227147D02*
X424809Y217576D01*
X419492Y213853D02*
X418108Y227147D01*
X412791Y223424D02*
X419492Y213853D01*
X414822Y210583D02*
X408121Y220154D01*
X405462Y218292D01*
X405462Y218293D02*
X405371Y218226D01*
X405281Y218157D01*
X405194Y218084D01*
X405110Y218008D01*
X405029Y217929D01*
X404950Y217848D01*
X404874Y217764D01*
X404801Y217677D01*
X404732Y217588D01*
X404665Y217496D01*
X404602Y217402D01*
X404542Y217306D01*
X404485Y217208D01*
X404432Y217108D01*
X404382Y217006D01*
X404336Y216902D01*
X404294Y216797D01*
X404255Y216691D01*
X404220Y216583D01*
X404189Y216474D01*
X404161Y216364D01*
X404138Y216253D01*
X404118Y216142D01*
X404102Y216030D01*
X404090Y215917D01*
X404082Y215804D01*
X404078Y215691D01*
X404078Y215577D01*
X404082Y215464D01*
X404090Y215351D01*
X404102Y215238D01*
X404118Y215126D01*
X404138Y215015D01*
X404161Y214904D01*
X404189Y214794D01*
X404220Y214685D01*
X404255Y214577D01*
X404294Y214471D01*
X404336Y214366D01*
X404382Y214262D01*
X404432Y214160D01*
X404485Y214060D01*
X404542Y213962D01*
X404602Y213866D01*
X404665Y213772D01*
X407644Y209518D01*
X407643Y209518D02*
X407710Y209427D01*
X407779Y209337D01*
X407852Y209250D01*
X407928Y209166D01*
X408007Y209085D01*
X408088Y209006D01*
X408172Y208930D01*
X408259Y208857D01*
X408349Y208788D01*
X408440Y208721D01*
X408534Y208658D01*
X408630Y208598D01*
X408728Y208541D01*
X408828Y208488D01*
X408930Y208438D01*
X409034Y208392D01*
X409139Y208350D01*
X409245Y208311D01*
X409353Y208276D01*
X409462Y208245D01*
X409572Y208217D01*
X409683Y208194D01*
X409794Y208174D01*
X409906Y208158D01*
X410019Y208146D01*
X410132Y208138D01*
X410245Y208134D01*
X410359Y208134D01*
X410472Y208138D01*
X410585Y208146D01*
X410698Y208158D01*
X410810Y208174D01*
X410921Y208194D01*
X411032Y208217D01*
X411142Y208245D01*
X411251Y208276D01*
X411359Y208311D01*
X411465Y208350D01*
X411570Y208392D01*
X411674Y208438D01*
X411776Y208488D01*
X411876Y208541D01*
X411974Y208598D01*
X412070Y208658D01*
X412164Y208721D01*
X414822Y210583D01*
X282896Y214783D02*
X281301Y215900D01*
X277578Y210583D01*
X280768Y208349D01*
X280851Y208294D01*
X280935Y208242D01*
X281022Y208193D01*
X281110Y208147D01*
X281200Y208105D01*
X281292Y208066D01*
X281385Y208031D01*
X281479Y207999D01*
X281574Y207971D01*
X281671Y207947D01*
X281768Y207926D01*
X281866Y207910D01*
X281965Y207896D01*
X282064Y207887D01*
X282163Y207882D01*
X282263Y207880D01*
X282362Y207882D01*
X282461Y207888D01*
X282560Y207898D01*
X282659Y207911D01*
X282757Y207929D01*
X282854Y207950D01*
X282950Y207974D01*
X283046Y208003D01*
X283140Y208035D01*
X283233Y208070D01*
X283324Y208109D01*
X283414Y208152D01*
X283502Y208198D01*
X283588Y208247D01*
X283673Y208300D01*
X283755Y208356D01*
X283835Y208415D01*
X283913Y208477D01*
X283988Y208542D01*
X284061Y208609D01*
X284131Y208680D01*
X284199Y208753D01*
X284263Y208829D01*
X284325Y208907D01*
X284384Y208987D01*
X288107Y214304D01*
X288162Y214387D01*
X288214Y214471D01*
X288263Y214558D01*
X288309Y214646D01*
X288351Y214736D01*
X288390Y214828D01*
X288425Y214921D01*
X288457Y215015D01*
X288485Y215110D01*
X288509Y215207D01*
X288530Y215304D01*
X288546Y215402D01*
X288560Y215501D01*
X288569Y215600D01*
X288574Y215699D01*
X288576Y215799D01*
X288574Y215898D01*
X288568Y215997D01*
X288558Y216096D01*
X288545Y216195D01*
X288527Y216293D01*
X288506Y216390D01*
X288482Y216486D01*
X288453Y216582D01*
X288421Y216676D01*
X288386Y216769D01*
X288347Y216860D01*
X288304Y216950D01*
X288258Y217038D01*
X288209Y217124D01*
X288156Y217209D01*
X288100Y217291D01*
X288041Y217371D01*
X287979Y217449D01*
X287914Y217524D01*
X287847Y217597D01*
X287776Y217667D01*
X287703Y217735D01*
X287627Y217799D01*
X287549Y217861D01*
X287469Y217920D01*
X287470Y217920D02*
X284279Y220154D01*
X279610Y223424D02*
X272908Y213853D01*
X267591Y217576D02*
X279610Y223424D01*
X274292Y227147D02*
X267591Y217576D01*
X262921Y220846D02*
X269622Y230417D01*
X266964Y232278D01*
X266964Y232279D02*
X266870Y232342D01*
X266774Y232402D01*
X266676Y232459D01*
X266576Y232512D01*
X266474Y232562D01*
X266370Y232608D01*
X266265Y232650D01*
X266159Y232689D01*
X266051Y232724D01*
X265942Y232755D01*
X265832Y232783D01*
X265721Y232806D01*
X265610Y232826D01*
X265498Y232842D01*
X265385Y232854D01*
X265272Y232862D01*
X265159Y232866D01*
X265045Y232866D01*
X264932Y232862D01*
X264819Y232854D01*
X264706Y232842D01*
X264594Y232826D01*
X264483Y232806D01*
X264372Y232783D01*
X264262Y232755D01*
X264153Y232724D01*
X264045Y232689D01*
X263939Y232650D01*
X263834Y232608D01*
X263730Y232562D01*
X263628Y232512D01*
X263528Y232459D01*
X263430Y232402D01*
X263334Y232342D01*
X263240Y232279D01*
X263149Y232212D01*
X263059Y232143D01*
X262972Y232070D01*
X262888Y231994D01*
X262807Y231915D01*
X262728Y231834D01*
X262652Y231750D01*
X262579Y231663D01*
X262510Y231574D01*
X262443Y231482D01*
X262444Y231481D02*
X259465Y227228D01*
X259402Y227134D01*
X259342Y227038D01*
X259285Y226940D01*
X259232Y226840D01*
X259182Y226738D01*
X259136Y226634D01*
X259094Y226529D01*
X259055Y226423D01*
X259020Y226315D01*
X258989Y226206D01*
X258961Y226096D01*
X258938Y225985D01*
X258918Y225874D01*
X258902Y225762D01*
X258890Y225649D01*
X258882Y225536D01*
X258878Y225423D01*
X258878Y225309D01*
X258882Y225196D01*
X258890Y225083D01*
X258902Y224970D01*
X258918Y224858D01*
X258938Y224747D01*
X258961Y224636D01*
X258989Y224526D01*
X259020Y224417D01*
X259055Y224309D01*
X259094Y224203D01*
X259136Y224098D01*
X259182Y223994D01*
X259232Y223892D01*
X259285Y223792D01*
X259342Y223694D01*
X259402Y223598D01*
X259465Y223504D01*
X259532Y223412D01*
X259601Y223323D01*
X259674Y223236D01*
X259750Y223152D01*
X259829Y223071D01*
X259910Y222992D01*
X259994Y222916D01*
X260081Y222843D01*
X260171Y222774D01*
X260262Y222707D01*
X262921Y220846D01*
X201649Y335306D02*
X201649Y337254D01*
X195158Y337254D01*
X195158Y333359D01*
X195160Y333260D01*
X195166Y333160D01*
X195175Y333061D01*
X195188Y332963D01*
X195205Y332865D01*
X195226Y332767D01*
X195251Y332671D01*
X195279Y332576D01*
X195311Y332482D01*
X195346Y332389D01*
X195385Y332297D01*
X195428Y332207D01*
X195473Y332119D01*
X195523Y332032D01*
X195575Y331948D01*
X195631Y331865D01*
X195689Y331785D01*
X195751Y331707D01*
X195816Y331632D01*
X195884Y331559D01*
X195954Y331489D01*
X196027Y331421D01*
X196102Y331356D01*
X196180Y331294D01*
X196260Y331236D01*
X196343Y331180D01*
X196427Y331128D01*
X196514Y331078D01*
X196602Y331033D01*
X196692Y330990D01*
X196784Y330951D01*
X196877Y330916D01*
X196971Y330884D01*
X197066Y330856D01*
X197162Y330831D01*
X197260Y330810D01*
X197358Y330793D01*
X197456Y330780D01*
X197555Y330771D01*
X197655Y330765D01*
X197754Y330763D01*
X204246Y330763D01*
X204345Y330765D01*
X204445Y330771D01*
X204544Y330780D01*
X204642Y330793D01*
X204740Y330810D01*
X204838Y330831D01*
X204934Y330856D01*
X205029Y330884D01*
X205123Y330916D01*
X205216Y330951D01*
X205308Y330990D01*
X205398Y331033D01*
X205486Y331078D01*
X205573Y331128D01*
X205657Y331180D01*
X205740Y331236D01*
X205820Y331294D01*
X205898Y331356D01*
X205973Y331421D01*
X206046Y331489D01*
X206116Y331559D01*
X206184Y331632D01*
X206249Y331707D01*
X206311Y331785D01*
X206369Y331865D01*
X206425Y331948D01*
X206477Y332032D01*
X206527Y332119D01*
X206572Y332207D01*
X206615Y332297D01*
X206654Y332389D01*
X206689Y332481D01*
X206721Y332576D01*
X206749Y332671D01*
X206774Y332767D01*
X206795Y332865D01*
X206812Y332963D01*
X206825Y333061D01*
X206834Y333160D01*
X206840Y333260D01*
X206842Y333359D01*
X206842Y337254D01*
X206842Y342954D02*
X195158Y342954D01*
X195158Y349446D02*
X206842Y342954D01*
X206842Y349446D02*
X195158Y349446D01*
X195158Y355146D02*
X206842Y355146D01*
X206842Y358392D01*
X206840Y358505D01*
X206834Y358618D01*
X206824Y358731D01*
X206810Y358844D01*
X206793Y358956D01*
X206771Y359067D01*
X206746Y359177D01*
X206716Y359287D01*
X206683Y359395D01*
X206646Y359502D01*
X206606Y359608D01*
X206561Y359712D01*
X206513Y359815D01*
X206462Y359916D01*
X206407Y360015D01*
X206349Y360112D01*
X206287Y360207D01*
X206222Y360300D01*
X206154Y360390D01*
X206083Y360478D01*
X206008Y360564D01*
X205931Y360647D01*
X205851Y360727D01*
X205768Y360804D01*
X205682Y360879D01*
X205594Y360950D01*
X205504Y361018D01*
X205411Y361083D01*
X205316Y361145D01*
X205219Y361203D01*
X205120Y361258D01*
X205019Y361309D01*
X204916Y361357D01*
X204812Y361402D01*
X204706Y361442D01*
X204599Y361479D01*
X204491Y361512D01*
X204381Y361542D01*
X204271Y361567D01*
X204160Y361589D01*
X204048Y361606D01*
X203935Y361620D01*
X203822Y361630D01*
X203709Y361636D01*
X203596Y361638D01*
X198404Y361638D01*
X198291Y361636D01*
X198178Y361630D01*
X198065Y361620D01*
X197952Y361606D01*
X197840Y361589D01*
X197729Y361567D01*
X197619Y361542D01*
X197509Y361512D01*
X197401Y361479D01*
X197294Y361442D01*
X197188Y361402D01*
X197084Y361357D01*
X196981Y361309D01*
X196880Y361258D01*
X196781Y361203D01*
X196684Y361145D01*
X196589Y361083D01*
X196496Y361018D01*
X196406Y360950D01*
X196318Y360879D01*
X196232Y360804D01*
X196149Y360727D01*
X196069Y360647D01*
X195992Y360564D01*
X195917Y360478D01*
X195846Y360390D01*
X195778Y360300D01*
X195713Y360207D01*
X195651Y360112D01*
X195593Y360015D01*
X195538Y359916D01*
X195487Y359815D01*
X195439Y359712D01*
X195394Y359608D01*
X195354Y359502D01*
X195317Y359395D01*
X195284Y359287D01*
X195254Y359177D01*
X195229Y359067D01*
X195207Y358956D01*
X195190Y358844D01*
X195176Y358731D01*
X195166Y358618D01*
X195160Y358505D01*
X195158Y358392D01*
X195158Y355146D01*
X280556Y477563D02*
X282151Y478680D01*
X280556Y477563D02*
X284279Y472246D01*
X287470Y474480D01*
X287469Y474480D02*
X287549Y474539D01*
X287627Y474601D01*
X287703Y474665D01*
X287776Y474733D01*
X287847Y474803D01*
X287914Y474876D01*
X287979Y474951D01*
X288041Y475029D01*
X288100Y475109D01*
X288156Y475191D01*
X288209Y475276D01*
X288258Y475362D01*
X288304Y475450D01*
X288347Y475540D01*
X288386Y475631D01*
X288421Y475724D01*
X288453Y475818D01*
X288482Y475914D01*
X288506Y476010D01*
X288527Y476107D01*
X288545Y476205D01*
X288558Y476304D01*
X288568Y476403D01*
X288574Y476502D01*
X288576Y476601D01*
X288574Y476701D01*
X288569Y476800D01*
X288559Y476899D01*
X288546Y476998D01*
X288530Y477096D01*
X288509Y477193D01*
X288485Y477290D01*
X288457Y477385D01*
X288425Y477479D01*
X288390Y477572D01*
X288351Y477664D01*
X288309Y477754D01*
X288263Y477842D01*
X288214Y477929D01*
X288162Y478013D01*
X288107Y478096D01*
X284384Y483413D01*
X284325Y483493D01*
X284263Y483571D01*
X284199Y483647D01*
X284131Y483720D01*
X284061Y483791D01*
X283988Y483858D01*
X283913Y483923D01*
X283835Y483985D01*
X283755Y484044D01*
X283673Y484100D01*
X283588Y484153D01*
X283502Y484202D01*
X283414Y484248D01*
X283324Y484291D01*
X283233Y484330D01*
X283140Y484365D01*
X283046Y484397D01*
X282950Y484426D01*
X282854Y484450D01*
X282757Y484471D01*
X282659Y484489D01*
X282560Y484502D01*
X282461Y484512D01*
X282362Y484518D01*
X282263Y484520D01*
X282163Y484518D01*
X282064Y484513D01*
X281965Y484504D01*
X281866Y484490D01*
X281768Y484474D01*
X281671Y484453D01*
X281574Y484429D01*
X281479Y484401D01*
X281385Y484369D01*
X281292Y484334D01*
X281200Y484295D01*
X281110Y484253D01*
X281022Y484207D01*
X280935Y484158D01*
X280851Y484106D01*
X280768Y484051D01*
X277578Y481817D01*
X272908Y478547D02*
X279609Y468976D01*
X274292Y465253D02*
X272908Y478547D01*
X267591Y474824D02*
X274292Y465253D01*
X269622Y461983D02*
X262921Y471554D01*
X260262Y469692D01*
X260262Y469693D02*
X260171Y469626D01*
X260081Y469557D01*
X259994Y469484D01*
X259910Y469408D01*
X259829Y469329D01*
X259750Y469248D01*
X259674Y469164D01*
X259601Y469077D01*
X259532Y468988D01*
X259465Y468896D01*
X259402Y468802D01*
X259342Y468706D01*
X259285Y468608D01*
X259232Y468508D01*
X259182Y468406D01*
X259136Y468302D01*
X259094Y468197D01*
X259055Y468091D01*
X259020Y467983D01*
X258989Y467874D01*
X258961Y467764D01*
X258938Y467653D01*
X258918Y467542D01*
X258902Y467430D01*
X258890Y467317D01*
X258882Y467204D01*
X258878Y467091D01*
X258878Y466977D01*
X258882Y466864D01*
X258890Y466751D01*
X258902Y466638D01*
X258918Y466526D01*
X258938Y466415D01*
X258961Y466304D01*
X258989Y466194D01*
X259020Y466085D01*
X259055Y465977D01*
X259094Y465871D01*
X259136Y465766D01*
X259182Y465662D01*
X259232Y465560D01*
X259285Y465460D01*
X259342Y465362D01*
X259402Y465266D01*
X259465Y465172D01*
X262444Y460918D01*
X262443Y460918D02*
X262510Y460827D01*
X262579Y460737D01*
X262652Y460650D01*
X262728Y460566D01*
X262807Y460485D01*
X262888Y460406D01*
X262972Y460330D01*
X263059Y460257D01*
X263149Y460188D01*
X263240Y460121D01*
X263334Y460058D01*
X263430Y459998D01*
X263528Y459941D01*
X263628Y459888D01*
X263730Y459838D01*
X263834Y459792D01*
X263939Y459750D01*
X264045Y459711D01*
X264153Y459676D01*
X264262Y459645D01*
X264372Y459617D01*
X264483Y459594D01*
X264594Y459574D01*
X264706Y459558D01*
X264819Y459546D01*
X264932Y459538D01*
X265045Y459534D01*
X265159Y459534D01*
X265272Y459538D01*
X265385Y459546D01*
X265498Y459558D01*
X265610Y459574D01*
X265721Y459594D01*
X265832Y459617D01*
X265942Y459645D01*
X266051Y459676D01*
X266159Y459711D01*
X266265Y459750D01*
X266370Y459792D01*
X266474Y459838D01*
X266576Y459888D01*
X266676Y459941D01*
X266774Y459998D01*
X266870Y460058D01*
X266964Y460121D01*
X269622Y461983D01*
D11*
X455250Y430686D02*
X455250Y412906D01*
X455250Y430686D02*
X450312Y430686D01*
X450172Y430684D01*
X450033Y430678D01*
X449893Y430668D01*
X449754Y430654D01*
X449615Y430637D01*
X449477Y430615D01*
X449340Y430589D01*
X449203Y430560D01*
X449067Y430527D01*
X448933Y430490D01*
X448799Y430449D01*
X448667Y430404D01*
X448535Y430355D01*
X448406Y430303D01*
X448278Y430248D01*
X448151Y430188D01*
X448026Y430125D01*
X447903Y430059D01*
X447782Y429989D01*
X447663Y429916D01*
X447546Y429839D01*
X447432Y429759D01*
X447319Y429676D01*
X447209Y429590D01*
X447102Y429500D01*
X446997Y429408D01*
X446895Y429313D01*
X446795Y429215D01*
X446698Y429114D01*
X446604Y429010D01*
X446514Y428904D01*
X446426Y428795D01*
X446341Y428684D01*
X446260Y428570D01*
X446181Y428455D01*
X446106Y428337D01*
X446035Y428217D01*
X445967Y428094D01*
X445902Y427971D01*
X445841Y427845D01*
X445783Y427717D01*
X445729Y427589D01*
X445679Y427458D01*
X445632Y427326D01*
X445589Y427193D01*
X445550Y427059D01*
X445515Y426924D01*
X445484Y426788D01*
X445456Y426650D01*
X445433Y426513D01*
X445413Y426374D01*
X445397Y426235D01*
X445385Y426096D01*
X445377Y425957D01*
X445373Y425817D01*
X445373Y425677D01*
X445377Y425537D01*
X445385Y425398D01*
X445397Y425259D01*
X445413Y425120D01*
X445433Y424981D01*
X445456Y424844D01*
X445484Y424706D01*
X445515Y424570D01*
X445550Y424435D01*
X445589Y424301D01*
X445632Y424168D01*
X445679Y424036D01*
X445729Y423905D01*
X445783Y423777D01*
X445841Y423649D01*
X445902Y423523D01*
X445967Y423400D01*
X446035Y423278D01*
X446106Y423157D01*
X446181Y423039D01*
X446260Y422924D01*
X446341Y422810D01*
X446426Y422699D01*
X446514Y422590D01*
X446604Y422484D01*
X446698Y422380D01*
X446795Y422279D01*
X446895Y422181D01*
X446997Y422086D01*
X447102Y421994D01*
X447209Y421904D01*
X447319Y421818D01*
X447432Y421735D01*
X447546Y421655D01*
X447663Y421578D01*
X447782Y421505D01*
X447903Y421435D01*
X448026Y421369D01*
X448151Y421306D01*
X448278Y421246D01*
X448406Y421191D01*
X448535Y421139D01*
X448667Y421090D01*
X448799Y421045D01*
X448933Y421004D01*
X449067Y420967D01*
X449203Y420934D01*
X449340Y420905D01*
X449477Y420879D01*
X449615Y420857D01*
X449754Y420840D01*
X449893Y420826D01*
X450033Y420816D01*
X450172Y420810D01*
X450312Y420808D01*
X455250Y420808D01*
X439255Y426735D02*
X434316Y430686D01*
X434316Y412906D01*
X429378Y412906D02*
X439255Y412906D01*
X456266Y283050D02*
X456266Y265270D01*
X456266Y283050D02*
X451328Y283050D01*
X451188Y283048D01*
X451049Y283042D01*
X450909Y283032D01*
X450770Y283018D01*
X450631Y283001D01*
X450493Y282979D01*
X450356Y282953D01*
X450219Y282924D01*
X450083Y282891D01*
X449949Y282854D01*
X449815Y282813D01*
X449683Y282768D01*
X449551Y282719D01*
X449422Y282667D01*
X449294Y282612D01*
X449167Y282552D01*
X449042Y282489D01*
X448919Y282423D01*
X448798Y282353D01*
X448679Y282280D01*
X448562Y282203D01*
X448448Y282123D01*
X448335Y282040D01*
X448225Y281954D01*
X448118Y281864D01*
X448013Y281772D01*
X447911Y281677D01*
X447811Y281579D01*
X447714Y281478D01*
X447620Y281374D01*
X447530Y281268D01*
X447442Y281159D01*
X447357Y281048D01*
X447276Y280934D01*
X447197Y280819D01*
X447122Y280701D01*
X447051Y280581D01*
X446983Y280458D01*
X446918Y280335D01*
X446857Y280209D01*
X446799Y280081D01*
X446745Y279953D01*
X446695Y279822D01*
X446648Y279690D01*
X446605Y279557D01*
X446566Y279423D01*
X446531Y279288D01*
X446500Y279152D01*
X446472Y279014D01*
X446449Y278877D01*
X446429Y278738D01*
X446413Y278599D01*
X446401Y278460D01*
X446393Y278321D01*
X446389Y278181D01*
X446389Y278041D01*
X446393Y277901D01*
X446401Y277762D01*
X446413Y277623D01*
X446429Y277484D01*
X446449Y277345D01*
X446472Y277208D01*
X446500Y277070D01*
X446531Y276934D01*
X446566Y276799D01*
X446605Y276665D01*
X446648Y276532D01*
X446695Y276400D01*
X446745Y276269D01*
X446799Y276141D01*
X446857Y276013D01*
X446918Y275887D01*
X446983Y275764D01*
X447051Y275642D01*
X447122Y275521D01*
X447197Y275403D01*
X447276Y275288D01*
X447357Y275174D01*
X447442Y275063D01*
X447530Y274954D01*
X447620Y274848D01*
X447714Y274744D01*
X447811Y274643D01*
X447911Y274545D01*
X448013Y274450D01*
X448118Y274358D01*
X448225Y274268D01*
X448335Y274182D01*
X448448Y274099D01*
X448562Y274019D01*
X448679Y273942D01*
X448798Y273869D01*
X448919Y273799D01*
X449042Y273733D01*
X449167Y273670D01*
X449294Y273610D01*
X449422Y273555D01*
X449551Y273503D01*
X449683Y273454D01*
X449815Y273409D01*
X449949Y273368D01*
X450083Y273331D01*
X450219Y273298D01*
X450356Y273269D01*
X450493Y273243D01*
X450631Y273221D01*
X450770Y273204D01*
X450909Y273190D01*
X451049Y273180D01*
X451188Y273174D01*
X451328Y273172D01*
X456266Y273172D01*
X434839Y283050D02*
X434707Y283048D01*
X434576Y283042D01*
X434444Y283032D01*
X434313Y283019D01*
X434183Y283001D01*
X434053Y282980D01*
X433923Y282955D01*
X433795Y282926D01*
X433667Y282893D01*
X433541Y282856D01*
X433415Y282816D01*
X433291Y282772D01*
X433168Y282724D01*
X433047Y282673D01*
X432927Y282618D01*
X432809Y282560D01*
X432693Y282498D01*
X432579Y282432D01*
X432466Y282364D01*
X432356Y282292D01*
X432248Y282217D01*
X432142Y282138D01*
X432038Y282057D01*
X431937Y281972D01*
X431839Y281885D01*
X431743Y281794D01*
X431650Y281701D01*
X431559Y281605D01*
X431472Y281507D01*
X431387Y281406D01*
X431306Y281302D01*
X431227Y281196D01*
X431152Y281088D01*
X431080Y280978D01*
X431012Y280865D01*
X430946Y280751D01*
X430884Y280635D01*
X430826Y280517D01*
X430771Y280397D01*
X430720Y280276D01*
X430672Y280153D01*
X430628Y280029D01*
X430588Y279903D01*
X430551Y279777D01*
X430518Y279649D01*
X430489Y279521D01*
X430464Y279391D01*
X430443Y279261D01*
X430425Y279131D01*
X430412Y279000D01*
X430402Y278868D01*
X430396Y278737D01*
X430394Y278605D01*
X434839Y283050D02*
X434989Y283048D01*
X435138Y283042D01*
X435287Y283032D01*
X435436Y283019D01*
X435585Y283001D01*
X435733Y282980D01*
X435881Y282954D01*
X436027Y282925D01*
X436173Y282892D01*
X436318Y282855D01*
X436462Y282814D01*
X436605Y282770D01*
X436747Y282722D01*
X436887Y282670D01*
X437026Y282615D01*
X437164Y282556D01*
X437299Y282493D01*
X437434Y282427D01*
X437566Y282357D01*
X437696Y282284D01*
X437825Y282207D01*
X437952Y282127D01*
X438076Y282044D01*
X438198Y281958D01*
X438318Y281868D01*
X438435Y281775D01*
X438550Y281680D01*
X438663Y281581D01*
X438773Y281479D01*
X438880Y281375D01*
X438984Y281268D01*
X439086Y281158D01*
X439184Y281045D01*
X439280Y280930D01*
X439372Y280812D01*
X439462Y280692D01*
X439548Y280570D01*
X439631Y280446D01*
X439711Y280319D01*
X439787Y280191D01*
X439860Y280060D01*
X439930Y279927D01*
X439996Y279793D01*
X440058Y279657D01*
X440117Y279520D01*
X440173Y279381D01*
X440224Y279240D01*
X440272Y279099D01*
X431876Y275148D02*
X431780Y275241D01*
X431688Y275337D01*
X431598Y275436D01*
X431511Y275537D01*
X431427Y275640D01*
X431345Y275745D01*
X431267Y275853D01*
X431192Y275963D01*
X431119Y276075D01*
X431050Y276189D01*
X430984Y276305D01*
X430922Y276423D01*
X430863Y276542D01*
X430807Y276663D01*
X430754Y276786D01*
X430705Y276910D01*
X430660Y277035D01*
X430617Y277162D01*
X430579Y277289D01*
X430544Y277418D01*
X430513Y277547D01*
X430485Y277678D01*
X430461Y277809D01*
X430440Y277941D01*
X430424Y278073D01*
X430411Y278206D01*
X430401Y278339D01*
X430396Y278472D01*
X430394Y278605D01*
X431875Y275148D02*
X440271Y265270D01*
X430394Y265270D01*
X348214Y233490D02*
X348214Y215710D01*
X348214Y233490D02*
X343276Y233490D01*
X343136Y233488D01*
X342997Y233482D01*
X342857Y233472D01*
X342718Y233458D01*
X342579Y233441D01*
X342441Y233419D01*
X342304Y233393D01*
X342167Y233364D01*
X342031Y233331D01*
X341897Y233294D01*
X341763Y233253D01*
X341631Y233208D01*
X341499Y233159D01*
X341370Y233107D01*
X341242Y233052D01*
X341115Y232992D01*
X340990Y232929D01*
X340867Y232863D01*
X340746Y232793D01*
X340627Y232720D01*
X340510Y232643D01*
X340396Y232563D01*
X340283Y232480D01*
X340173Y232394D01*
X340066Y232304D01*
X339961Y232212D01*
X339859Y232117D01*
X339759Y232019D01*
X339662Y231918D01*
X339568Y231814D01*
X339478Y231708D01*
X339390Y231599D01*
X339305Y231488D01*
X339224Y231374D01*
X339145Y231259D01*
X339070Y231141D01*
X338999Y231021D01*
X338931Y230898D01*
X338866Y230775D01*
X338805Y230649D01*
X338747Y230521D01*
X338693Y230393D01*
X338643Y230262D01*
X338596Y230130D01*
X338553Y229997D01*
X338514Y229863D01*
X338479Y229728D01*
X338448Y229592D01*
X338420Y229454D01*
X338397Y229317D01*
X338377Y229178D01*
X338361Y229039D01*
X338349Y228900D01*
X338341Y228761D01*
X338337Y228621D01*
X338337Y228481D01*
X338341Y228341D01*
X338349Y228202D01*
X338361Y228063D01*
X338377Y227924D01*
X338397Y227785D01*
X338420Y227648D01*
X338448Y227510D01*
X338479Y227374D01*
X338514Y227239D01*
X338553Y227105D01*
X338596Y226972D01*
X338643Y226840D01*
X338693Y226709D01*
X338747Y226581D01*
X338805Y226453D01*
X338866Y226327D01*
X338931Y226204D01*
X338999Y226081D01*
X339070Y225961D01*
X339145Y225843D01*
X339224Y225728D01*
X339305Y225614D01*
X339390Y225503D01*
X339478Y225394D01*
X339568Y225288D01*
X339662Y225184D01*
X339759Y225083D01*
X339859Y224985D01*
X339961Y224890D01*
X340066Y224798D01*
X340173Y224708D01*
X340283Y224622D01*
X340396Y224539D01*
X340510Y224459D01*
X340627Y224382D01*
X340746Y224309D01*
X340867Y224239D01*
X340990Y224173D01*
X341115Y224110D01*
X341242Y224050D01*
X341370Y223995D01*
X341499Y223943D01*
X341631Y223894D01*
X341763Y223849D01*
X341897Y223808D01*
X342031Y223771D01*
X342167Y223738D01*
X342304Y223709D01*
X342441Y223683D01*
X342579Y223661D01*
X342718Y223644D01*
X342857Y223630D01*
X342997Y223620D01*
X343136Y223614D01*
X343276Y223612D01*
X348214Y223612D01*
X332219Y215710D02*
X327280Y215710D01*
X327140Y215712D01*
X327001Y215718D01*
X326861Y215728D01*
X326722Y215742D01*
X326583Y215759D01*
X326445Y215781D01*
X326308Y215807D01*
X326171Y215836D01*
X326035Y215869D01*
X325901Y215906D01*
X325767Y215947D01*
X325635Y215992D01*
X325503Y216041D01*
X325374Y216093D01*
X325246Y216148D01*
X325119Y216208D01*
X324994Y216271D01*
X324871Y216337D01*
X324750Y216407D01*
X324631Y216480D01*
X324514Y216557D01*
X324400Y216637D01*
X324287Y216720D01*
X324177Y216806D01*
X324070Y216896D01*
X323965Y216988D01*
X323863Y217083D01*
X323763Y217181D01*
X323666Y217282D01*
X323572Y217386D01*
X323482Y217492D01*
X323394Y217601D01*
X323309Y217712D01*
X323228Y217826D01*
X323149Y217941D01*
X323074Y218059D01*
X323003Y218179D01*
X322935Y218302D01*
X322870Y218425D01*
X322809Y218551D01*
X322751Y218679D01*
X322697Y218807D01*
X322647Y218938D01*
X322600Y219070D01*
X322557Y219203D01*
X322518Y219337D01*
X322483Y219472D01*
X322452Y219608D01*
X322424Y219746D01*
X322401Y219883D01*
X322381Y220022D01*
X322365Y220161D01*
X322353Y220300D01*
X322345Y220439D01*
X322341Y220579D01*
X322341Y220719D01*
X322345Y220859D01*
X322353Y220998D01*
X322365Y221137D01*
X322381Y221276D01*
X322401Y221415D01*
X322424Y221552D01*
X322452Y221690D01*
X322483Y221826D01*
X322518Y221961D01*
X322557Y222095D01*
X322600Y222228D01*
X322647Y222360D01*
X322697Y222491D01*
X322751Y222619D01*
X322809Y222747D01*
X322870Y222873D01*
X322935Y222996D01*
X323003Y223119D01*
X323074Y223239D01*
X323149Y223357D01*
X323228Y223472D01*
X323309Y223586D01*
X323394Y223697D01*
X323482Y223806D01*
X323572Y223912D01*
X323666Y224016D01*
X323763Y224117D01*
X323863Y224215D01*
X323965Y224310D01*
X324070Y224402D01*
X324177Y224492D01*
X324287Y224578D01*
X324400Y224661D01*
X324514Y224741D01*
X324631Y224818D01*
X324750Y224891D01*
X324871Y224961D01*
X324994Y225027D01*
X325119Y225090D01*
X325246Y225150D01*
X325374Y225205D01*
X325503Y225257D01*
X325635Y225306D01*
X325767Y225351D01*
X325901Y225392D01*
X326035Y225429D01*
X326171Y225462D01*
X326308Y225491D01*
X326445Y225517D01*
X326583Y225539D01*
X326722Y225556D01*
X326861Y225570D01*
X327001Y225580D01*
X327140Y225586D01*
X327280Y225588D01*
X326293Y233490D02*
X332219Y233490D01*
X326293Y233490D02*
X326169Y233488D01*
X326045Y233482D01*
X325921Y233472D01*
X325798Y233459D01*
X325675Y233441D01*
X325553Y233420D01*
X325431Y233395D01*
X325310Y233366D01*
X325191Y233333D01*
X325072Y233297D01*
X324955Y233256D01*
X324839Y233213D01*
X324724Y233165D01*
X324611Y233114D01*
X324499Y233059D01*
X324390Y233001D01*
X324282Y232940D01*
X324176Y232875D01*
X324072Y232807D01*
X323971Y232735D01*
X323871Y232661D01*
X323775Y232583D01*
X323680Y232503D01*
X323588Y232419D01*
X323499Y232333D01*
X323413Y232244D01*
X323329Y232152D01*
X323249Y232057D01*
X323171Y231961D01*
X323097Y231861D01*
X323025Y231760D01*
X322957Y231656D01*
X322892Y231550D01*
X322831Y231442D01*
X322773Y231333D01*
X322718Y231221D01*
X322667Y231108D01*
X322619Y230993D01*
X322576Y230877D01*
X322535Y230760D01*
X322499Y230641D01*
X322466Y230522D01*
X322437Y230401D01*
X322412Y230279D01*
X322391Y230157D01*
X322373Y230034D01*
X322360Y229911D01*
X322350Y229787D01*
X322344Y229663D01*
X322342Y229539D01*
X322344Y229415D01*
X322350Y229291D01*
X322360Y229167D01*
X322373Y229044D01*
X322391Y228921D01*
X322412Y228799D01*
X322437Y228677D01*
X322466Y228556D01*
X322499Y228437D01*
X322535Y228318D01*
X322576Y228201D01*
X322619Y228085D01*
X322667Y227970D01*
X322718Y227857D01*
X322773Y227745D01*
X322831Y227636D01*
X322892Y227528D01*
X322957Y227422D01*
X323025Y227318D01*
X323097Y227217D01*
X323171Y227117D01*
X323249Y227021D01*
X323329Y226926D01*
X323413Y226834D01*
X323499Y226745D01*
X323588Y226659D01*
X323680Y226575D01*
X323775Y226495D01*
X323871Y226417D01*
X323971Y226343D01*
X324072Y226271D01*
X324176Y226203D01*
X324282Y226138D01*
X324390Y226077D01*
X324499Y226019D01*
X324611Y225964D01*
X324724Y225913D01*
X324839Y225865D01*
X324955Y225822D01*
X325072Y225781D01*
X325191Y225745D01*
X325310Y225712D01*
X325431Y225683D01*
X325553Y225658D01*
X325675Y225637D01*
X325798Y225619D01*
X325921Y225606D01*
X326045Y225596D01*
X326169Y225590D01*
X326293Y225588D01*
X330244Y225588D01*
X262260Y254348D02*
X262260Y272128D01*
X257322Y272128D01*
X257182Y272126D01*
X257043Y272120D01*
X256903Y272110D01*
X256764Y272096D01*
X256625Y272079D01*
X256487Y272057D01*
X256350Y272031D01*
X256213Y272002D01*
X256077Y271969D01*
X255943Y271932D01*
X255809Y271891D01*
X255677Y271846D01*
X255545Y271797D01*
X255416Y271745D01*
X255288Y271690D01*
X255161Y271630D01*
X255036Y271567D01*
X254913Y271501D01*
X254792Y271431D01*
X254673Y271358D01*
X254556Y271281D01*
X254442Y271201D01*
X254329Y271118D01*
X254219Y271032D01*
X254112Y270942D01*
X254007Y270850D01*
X253905Y270755D01*
X253805Y270657D01*
X253708Y270556D01*
X253614Y270452D01*
X253524Y270346D01*
X253436Y270237D01*
X253351Y270126D01*
X253270Y270012D01*
X253191Y269897D01*
X253116Y269779D01*
X253045Y269659D01*
X252977Y269536D01*
X252912Y269413D01*
X252851Y269287D01*
X252793Y269159D01*
X252739Y269031D01*
X252689Y268900D01*
X252642Y268768D01*
X252599Y268635D01*
X252560Y268501D01*
X252525Y268366D01*
X252494Y268230D01*
X252466Y268092D01*
X252443Y267955D01*
X252423Y267816D01*
X252407Y267677D01*
X252395Y267538D01*
X252387Y267399D01*
X252383Y267259D01*
X252383Y267119D01*
X252387Y266979D01*
X252395Y266840D01*
X252407Y266701D01*
X252423Y266562D01*
X252443Y266423D01*
X252466Y266286D01*
X252494Y266148D01*
X252525Y266012D01*
X252560Y265877D01*
X252599Y265743D01*
X252642Y265610D01*
X252689Y265478D01*
X252739Y265347D01*
X252793Y265219D01*
X252851Y265091D01*
X252912Y264965D01*
X252977Y264842D01*
X253045Y264720D01*
X253116Y264599D01*
X253191Y264481D01*
X253270Y264366D01*
X253351Y264252D01*
X253436Y264141D01*
X253524Y264032D01*
X253614Y263926D01*
X253708Y263822D01*
X253805Y263721D01*
X253905Y263623D01*
X254007Y263528D01*
X254112Y263436D01*
X254219Y263346D01*
X254329Y263260D01*
X254442Y263177D01*
X254556Y263097D01*
X254673Y263020D01*
X254792Y262947D01*
X254913Y262877D01*
X255036Y262811D01*
X255161Y262748D01*
X255288Y262688D01*
X255416Y262633D01*
X255545Y262581D01*
X255677Y262532D01*
X255809Y262487D01*
X255943Y262446D01*
X256077Y262409D01*
X256213Y262376D01*
X256350Y262347D01*
X256487Y262321D01*
X256625Y262299D01*
X256764Y262282D01*
X256903Y262268D01*
X257043Y262258D01*
X257182Y262252D01*
X257322Y262250D01*
X262260Y262250D01*
X246265Y258299D02*
X242314Y272128D01*
X246265Y258299D02*
X236388Y258299D01*
X239351Y262250D02*
X239351Y254348D01*
X260228Y394364D02*
X260228Y412144D01*
X255290Y412144D01*
X255150Y412142D01*
X255011Y412136D01*
X254871Y412126D01*
X254732Y412112D01*
X254593Y412095D01*
X254455Y412073D01*
X254318Y412047D01*
X254181Y412018D01*
X254045Y411985D01*
X253911Y411948D01*
X253777Y411907D01*
X253645Y411862D01*
X253513Y411813D01*
X253384Y411761D01*
X253256Y411706D01*
X253129Y411646D01*
X253004Y411583D01*
X252881Y411517D01*
X252760Y411447D01*
X252641Y411374D01*
X252524Y411297D01*
X252410Y411217D01*
X252297Y411134D01*
X252187Y411048D01*
X252080Y410958D01*
X251975Y410866D01*
X251873Y410771D01*
X251773Y410673D01*
X251676Y410572D01*
X251582Y410468D01*
X251492Y410362D01*
X251404Y410253D01*
X251319Y410142D01*
X251238Y410028D01*
X251159Y409913D01*
X251084Y409795D01*
X251013Y409675D01*
X250945Y409552D01*
X250880Y409429D01*
X250819Y409303D01*
X250761Y409175D01*
X250707Y409047D01*
X250657Y408916D01*
X250610Y408784D01*
X250567Y408651D01*
X250528Y408517D01*
X250493Y408382D01*
X250462Y408246D01*
X250434Y408108D01*
X250411Y407971D01*
X250391Y407832D01*
X250375Y407693D01*
X250363Y407554D01*
X250355Y407415D01*
X250351Y407275D01*
X250351Y407135D01*
X250355Y406995D01*
X250363Y406856D01*
X250375Y406717D01*
X250391Y406578D01*
X250411Y406439D01*
X250434Y406302D01*
X250462Y406164D01*
X250493Y406028D01*
X250528Y405893D01*
X250567Y405759D01*
X250610Y405626D01*
X250657Y405494D01*
X250707Y405363D01*
X250761Y405235D01*
X250819Y405107D01*
X250880Y404981D01*
X250945Y404858D01*
X251013Y404736D01*
X251084Y404615D01*
X251159Y404497D01*
X251238Y404382D01*
X251319Y404268D01*
X251404Y404157D01*
X251492Y404048D01*
X251582Y403942D01*
X251676Y403838D01*
X251773Y403737D01*
X251873Y403639D01*
X251975Y403544D01*
X252080Y403452D01*
X252187Y403362D01*
X252297Y403276D01*
X252410Y403193D01*
X252524Y403113D01*
X252641Y403036D01*
X252760Y402963D01*
X252881Y402893D01*
X253004Y402827D01*
X253129Y402764D01*
X253256Y402704D01*
X253384Y402649D01*
X253513Y402597D01*
X253645Y402548D01*
X253777Y402503D01*
X253911Y402462D01*
X254045Y402425D01*
X254181Y402392D01*
X254318Y402363D01*
X254455Y402337D01*
X254593Y402315D01*
X254732Y402298D01*
X254871Y402284D01*
X255011Y402274D01*
X255150Y402268D01*
X255290Y402266D01*
X260228Y402266D01*
X244233Y394364D02*
X238307Y394364D01*
X238183Y394366D01*
X238059Y394372D01*
X237935Y394382D01*
X237812Y394395D01*
X237689Y394413D01*
X237567Y394434D01*
X237445Y394459D01*
X237324Y394488D01*
X237205Y394521D01*
X237086Y394557D01*
X236969Y394598D01*
X236853Y394641D01*
X236738Y394689D01*
X236625Y394740D01*
X236513Y394795D01*
X236404Y394853D01*
X236296Y394914D01*
X236190Y394979D01*
X236086Y395047D01*
X235985Y395119D01*
X235885Y395193D01*
X235789Y395271D01*
X235694Y395351D01*
X235602Y395435D01*
X235513Y395521D01*
X235427Y395610D01*
X235343Y395702D01*
X235263Y395797D01*
X235185Y395893D01*
X235111Y395993D01*
X235039Y396094D01*
X234971Y396198D01*
X234906Y396304D01*
X234845Y396412D01*
X234787Y396521D01*
X234732Y396633D01*
X234681Y396746D01*
X234633Y396861D01*
X234590Y396977D01*
X234549Y397094D01*
X234513Y397213D01*
X234480Y397332D01*
X234451Y397453D01*
X234426Y397575D01*
X234405Y397697D01*
X234387Y397820D01*
X234374Y397943D01*
X234364Y398067D01*
X234358Y398191D01*
X234356Y398315D01*
X234356Y400291D01*
X234358Y400415D01*
X234364Y400539D01*
X234374Y400663D01*
X234387Y400786D01*
X234405Y400909D01*
X234426Y401031D01*
X234451Y401153D01*
X234480Y401274D01*
X234513Y401393D01*
X234549Y401512D01*
X234590Y401629D01*
X234633Y401745D01*
X234681Y401860D01*
X234732Y401973D01*
X234787Y402085D01*
X234845Y402194D01*
X234906Y402302D01*
X234971Y402408D01*
X235039Y402512D01*
X235111Y402613D01*
X235185Y402713D01*
X235263Y402809D01*
X235343Y402904D01*
X235427Y402996D01*
X235513Y403085D01*
X235602Y403171D01*
X235694Y403255D01*
X235789Y403335D01*
X235885Y403413D01*
X235985Y403487D01*
X236086Y403559D01*
X236190Y403627D01*
X236296Y403692D01*
X236404Y403753D01*
X236513Y403811D01*
X236625Y403866D01*
X236738Y403917D01*
X236853Y403965D01*
X236969Y404008D01*
X237086Y404049D01*
X237205Y404085D01*
X237324Y404118D01*
X237445Y404147D01*
X237567Y404172D01*
X237689Y404193D01*
X237812Y404211D01*
X237935Y404224D01*
X238059Y404234D01*
X238183Y404240D01*
X238307Y404242D01*
X244233Y404242D01*
X244233Y412144D01*
X234356Y412144D01*
X367518Y458656D02*
X367518Y476436D01*
X362580Y476436D01*
X362440Y476434D01*
X362301Y476428D01*
X362161Y476418D01*
X362022Y476404D01*
X361883Y476387D01*
X361745Y476365D01*
X361608Y476339D01*
X361471Y476310D01*
X361335Y476277D01*
X361201Y476240D01*
X361067Y476199D01*
X360935Y476154D01*
X360803Y476105D01*
X360674Y476053D01*
X360546Y475998D01*
X360419Y475938D01*
X360294Y475875D01*
X360171Y475809D01*
X360050Y475739D01*
X359931Y475666D01*
X359814Y475589D01*
X359700Y475509D01*
X359587Y475426D01*
X359477Y475340D01*
X359370Y475250D01*
X359265Y475158D01*
X359163Y475063D01*
X359063Y474965D01*
X358966Y474864D01*
X358872Y474760D01*
X358782Y474654D01*
X358694Y474545D01*
X358609Y474434D01*
X358528Y474320D01*
X358449Y474205D01*
X358374Y474087D01*
X358303Y473967D01*
X358235Y473844D01*
X358170Y473721D01*
X358109Y473595D01*
X358051Y473467D01*
X357997Y473339D01*
X357947Y473208D01*
X357900Y473076D01*
X357857Y472943D01*
X357818Y472809D01*
X357783Y472674D01*
X357752Y472538D01*
X357724Y472400D01*
X357701Y472263D01*
X357681Y472124D01*
X357665Y471985D01*
X357653Y471846D01*
X357645Y471707D01*
X357641Y471567D01*
X357641Y471427D01*
X357645Y471287D01*
X357653Y471148D01*
X357665Y471009D01*
X357681Y470870D01*
X357701Y470731D01*
X357724Y470594D01*
X357752Y470456D01*
X357783Y470320D01*
X357818Y470185D01*
X357857Y470051D01*
X357900Y469918D01*
X357947Y469786D01*
X357997Y469655D01*
X358051Y469527D01*
X358109Y469399D01*
X358170Y469273D01*
X358235Y469150D01*
X358303Y469028D01*
X358374Y468907D01*
X358449Y468789D01*
X358528Y468674D01*
X358609Y468560D01*
X358694Y468449D01*
X358782Y468340D01*
X358872Y468234D01*
X358966Y468130D01*
X359063Y468029D01*
X359163Y467931D01*
X359265Y467836D01*
X359370Y467744D01*
X359477Y467654D01*
X359587Y467568D01*
X359700Y467485D01*
X359814Y467405D01*
X359931Y467328D01*
X360050Y467255D01*
X360171Y467185D01*
X360294Y467119D01*
X360419Y467056D01*
X360546Y466996D01*
X360674Y466941D01*
X360803Y466889D01*
X360935Y466840D01*
X361067Y466795D01*
X361201Y466754D01*
X361335Y466717D01*
X361471Y466684D01*
X361608Y466655D01*
X361745Y466629D01*
X361883Y466607D01*
X362022Y466590D01*
X362161Y466576D01*
X362301Y466566D01*
X362440Y466560D01*
X362580Y466558D01*
X367518Y466558D01*
X351523Y468534D02*
X345597Y468534D01*
X345473Y468532D01*
X345349Y468526D01*
X345225Y468516D01*
X345102Y468503D01*
X344979Y468485D01*
X344857Y468464D01*
X344735Y468439D01*
X344614Y468410D01*
X344495Y468377D01*
X344376Y468341D01*
X344259Y468300D01*
X344143Y468257D01*
X344028Y468209D01*
X343915Y468158D01*
X343803Y468103D01*
X343694Y468045D01*
X343586Y467984D01*
X343480Y467919D01*
X343376Y467851D01*
X343275Y467779D01*
X343175Y467705D01*
X343079Y467627D01*
X342984Y467547D01*
X342892Y467463D01*
X342803Y467377D01*
X342717Y467288D01*
X342633Y467196D01*
X342553Y467101D01*
X342475Y467005D01*
X342401Y466905D01*
X342329Y466804D01*
X342261Y466700D01*
X342196Y466594D01*
X342135Y466486D01*
X342077Y466377D01*
X342022Y466265D01*
X341971Y466152D01*
X341923Y466037D01*
X341880Y465921D01*
X341839Y465804D01*
X341803Y465685D01*
X341770Y465566D01*
X341741Y465445D01*
X341716Y465323D01*
X341695Y465201D01*
X341677Y465078D01*
X341664Y464955D01*
X341654Y464831D01*
X341648Y464707D01*
X341646Y464583D01*
X341646Y463595D01*
X341645Y463595D02*
X341647Y463455D01*
X341653Y463316D01*
X341663Y463176D01*
X341677Y463037D01*
X341694Y462898D01*
X341716Y462760D01*
X341742Y462623D01*
X341771Y462486D01*
X341804Y462350D01*
X341841Y462216D01*
X341882Y462082D01*
X341927Y461950D01*
X341976Y461818D01*
X342028Y461689D01*
X342083Y461561D01*
X342143Y461434D01*
X342206Y461309D01*
X342272Y461186D01*
X342342Y461065D01*
X342415Y460946D01*
X342492Y460829D01*
X342572Y460715D01*
X342655Y460602D01*
X342741Y460492D01*
X342831Y460385D01*
X342923Y460280D01*
X343018Y460178D01*
X343116Y460078D01*
X343217Y459981D01*
X343321Y459887D01*
X343427Y459797D01*
X343536Y459709D01*
X343647Y459624D01*
X343761Y459543D01*
X343876Y459464D01*
X343994Y459389D01*
X344115Y459318D01*
X344237Y459250D01*
X344360Y459185D01*
X344486Y459124D01*
X344614Y459066D01*
X344742Y459012D01*
X344873Y458962D01*
X345005Y458915D01*
X345138Y458872D01*
X345272Y458833D01*
X345407Y458798D01*
X345543Y458767D01*
X345681Y458739D01*
X345818Y458716D01*
X345957Y458696D01*
X346096Y458680D01*
X346235Y458668D01*
X346374Y458660D01*
X346514Y458656D01*
X346654Y458656D01*
X346794Y458660D01*
X346933Y458668D01*
X347072Y458680D01*
X347211Y458696D01*
X347350Y458716D01*
X347487Y458739D01*
X347625Y458767D01*
X347761Y458798D01*
X347896Y458833D01*
X348030Y458872D01*
X348163Y458915D01*
X348295Y458962D01*
X348426Y459012D01*
X348554Y459066D01*
X348682Y459124D01*
X348808Y459185D01*
X348931Y459250D01*
X349054Y459318D01*
X349174Y459389D01*
X349292Y459464D01*
X349407Y459543D01*
X349521Y459624D01*
X349632Y459709D01*
X349741Y459797D01*
X349847Y459887D01*
X349951Y459981D01*
X350052Y460078D01*
X350150Y460178D01*
X350245Y460280D01*
X350337Y460385D01*
X350427Y460492D01*
X350513Y460602D01*
X350596Y460715D01*
X350676Y460829D01*
X350753Y460946D01*
X350826Y461065D01*
X350896Y461186D01*
X350962Y461309D01*
X351025Y461434D01*
X351085Y461561D01*
X351140Y461689D01*
X351192Y461818D01*
X351241Y461950D01*
X351286Y462082D01*
X351327Y462216D01*
X351364Y462350D01*
X351397Y462486D01*
X351426Y462623D01*
X351452Y462760D01*
X351474Y462898D01*
X351491Y463037D01*
X351505Y463176D01*
X351515Y463316D01*
X351521Y463455D01*
X351523Y463595D01*
X351523Y468534D01*
X351521Y468728D01*
X351513Y468922D01*
X351502Y469115D01*
X351485Y469309D01*
X351464Y469501D01*
X351437Y469693D01*
X351407Y469885D01*
X351371Y470076D01*
X351331Y470265D01*
X351286Y470454D01*
X351237Y470642D01*
X351183Y470828D01*
X351124Y471013D01*
X351061Y471196D01*
X350994Y471378D01*
X350922Y471558D01*
X350845Y471736D01*
X350764Y471913D01*
X350679Y472087D01*
X350590Y472259D01*
X350496Y472429D01*
X350399Y472596D01*
X350297Y472762D01*
X350191Y472924D01*
X350082Y473084D01*
X349968Y473241D01*
X349851Y473396D01*
X349729Y473547D01*
X349604Y473695D01*
X349476Y473841D01*
X349344Y473983D01*
X349209Y474122D01*
X349070Y474257D01*
X348928Y474389D01*
X348782Y474517D01*
X348634Y474642D01*
X348483Y474763D01*
X348328Y474881D01*
X348171Y474995D01*
X348011Y475104D01*
X347849Y475210D01*
X347683Y475312D01*
X347516Y475409D01*
X347346Y475503D01*
X347174Y475592D01*
X347000Y475677D01*
X346823Y475758D01*
X346645Y475834D01*
X346465Y475906D01*
X346283Y475974D01*
X346100Y476037D01*
X345915Y476096D01*
X345729Y476150D01*
X345541Y476199D01*
X345352Y476244D01*
X345163Y476284D01*
X344972Y476320D01*
X344781Y476350D01*
X344588Y476377D01*
X344396Y476398D01*
X344202Y476415D01*
X344009Y476426D01*
X343815Y476434D01*
X343621Y476436D01*
X361951Y391419D02*
X377349Y382529D01*
X368795Y387468D02*
X363856Y378914D01*
X357012Y382865D02*
X372410Y373975D01*
X360996Y371985D02*
X360691Y372156D01*
X360382Y372320D01*
X360069Y372477D01*
X359752Y372626D01*
X359432Y372767D01*
X359109Y372901D01*
X358783Y373027D01*
X358454Y373145D01*
X358122Y373255D01*
X357787Y373358D01*
X357450Y373452D01*
X357111Y373538D01*
X356770Y373616D01*
X356428Y373686D01*
X356083Y373748D01*
X355738Y373801D01*
X355391Y373847D01*
X355043Y373884D01*
X354694Y373912D01*
X354577Y373933D01*
X354459Y373950D01*
X354340Y373963D01*
X354221Y373973D01*
X354102Y373978D01*
X353983Y373980D01*
X353863Y373978D01*
X353744Y373972D01*
X353625Y373962D01*
X353507Y373948D01*
X353389Y373930D01*
X353271Y373908D01*
X353155Y373883D01*
X353039Y373854D01*
X352925Y373821D01*
X352811Y373784D01*
X352699Y373744D01*
X352588Y373700D01*
X352478Y373652D01*
X352371Y373601D01*
X352265Y373546D01*
X352160Y373488D01*
X352058Y373427D01*
X351958Y373362D01*
X351860Y373294D01*
X351764Y373223D01*
X351671Y373148D01*
X351580Y373071D01*
X351492Y372991D01*
X351406Y372908D01*
X351323Y372822D01*
X351243Y372734D01*
X351166Y372643D01*
X351092Y372549D01*
X351021Y372453D01*
X350953Y372355D01*
X350888Y372255D01*
X350827Y372153D01*
X350827Y372152D02*
X350769Y372048D01*
X350714Y371942D01*
X350663Y371834D01*
X350616Y371725D01*
X350572Y371614D01*
X350532Y371501D01*
X350495Y371388D01*
X350462Y371273D01*
X350433Y371157D01*
X350408Y371041D01*
X350386Y370924D01*
X350369Y370806D01*
X350355Y370687D01*
X350345Y370568D01*
X350339Y370449D01*
X350337Y370330D01*
X350339Y370210D01*
X350344Y370091D01*
X350354Y369972D01*
X350368Y369854D01*
X350385Y369736D01*
X350406Y369618D01*
X350431Y369502D01*
X350460Y369386D01*
X350492Y369271D01*
X350529Y369157D01*
X350568Y369045D01*
X350612Y368934D01*
X350659Y368824D01*
X350710Y368716D01*
X350764Y368610D01*
X350822Y368506D01*
X350883Y368403D01*
X350947Y368303D01*
X351015Y368204D01*
X351086Y368108D01*
X351160Y368015D01*
X351237Y367924D01*
X351436Y367637D01*
X351642Y367354D01*
X351855Y367076D01*
X352074Y366803D01*
X352300Y366536D01*
X352532Y366274D01*
X352770Y366018D01*
X353014Y365768D01*
X353264Y365523D01*
X353520Y365284D01*
X353781Y365052D01*
X354048Y364826D01*
X354320Y364607D01*
X354598Y364393D01*
X354880Y364187D01*
X355167Y363988D01*
X355459Y363795D01*
X355756Y363609D01*
X356057Y363431D01*
X360995Y371984D02*
X361296Y371806D01*
X361593Y371620D01*
X361885Y371427D01*
X362172Y371228D01*
X362454Y371022D01*
X362732Y370808D01*
X363004Y370589D01*
X363271Y370363D01*
X363532Y370130D01*
X363788Y369892D01*
X364038Y369647D01*
X364282Y369397D01*
X364521Y369141D01*
X364752Y368879D01*
X364978Y368612D01*
X365197Y368339D01*
X365410Y368061D01*
X365616Y367778D01*
X365815Y367491D01*
X365892Y367400D01*
X365966Y367307D01*
X366037Y367211D01*
X366105Y367112D01*
X366169Y367012D01*
X366230Y366909D01*
X366288Y366805D01*
X366342Y366699D01*
X366393Y366591D01*
X366440Y366481D01*
X366484Y366370D01*
X366523Y366258D01*
X366560Y366144D01*
X366592Y366029D01*
X366621Y365913D01*
X366646Y365797D01*
X366667Y365679D01*
X366684Y365561D01*
X366698Y365443D01*
X366708Y365324D01*
X366713Y365205D01*
X366715Y365085D01*
X366713Y364966D01*
X366707Y364847D01*
X366697Y364728D01*
X366683Y364609D01*
X366666Y364491D01*
X366644Y364374D01*
X366619Y364257D01*
X366590Y364142D01*
X366557Y364027D01*
X366520Y363913D01*
X366480Y363801D01*
X366436Y363690D01*
X366389Y363581D01*
X366338Y363473D01*
X366283Y363367D01*
X366225Y363263D01*
X362358Y361503D02*
X362009Y361532D01*
X361661Y361568D01*
X361315Y361614D01*
X360969Y361667D01*
X360625Y361729D01*
X360282Y361799D01*
X359941Y361877D01*
X359602Y361963D01*
X359265Y362058D01*
X358931Y362160D01*
X358599Y362270D01*
X358269Y362388D01*
X357943Y362514D01*
X357620Y362648D01*
X357300Y362789D01*
X356983Y362938D01*
X356671Y363095D01*
X356362Y363259D01*
X356057Y363430D01*
X362358Y361503D02*
X362475Y361482D01*
X362593Y361465D01*
X362712Y361452D01*
X362831Y361442D01*
X362950Y361437D01*
X363069Y361435D01*
X363189Y361437D01*
X363308Y361443D01*
X363427Y361453D01*
X363545Y361467D01*
X363663Y361485D01*
X363781Y361507D01*
X363897Y361532D01*
X364013Y361561D01*
X364127Y361594D01*
X364241Y361631D01*
X364353Y361671D01*
X364464Y361715D01*
X364574Y361763D01*
X364681Y361814D01*
X364787Y361869D01*
X364892Y361927D01*
X364994Y361988D01*
X365094Y362053D01*
X365192Y362121D01*
X365288Y362192D01*
X365381Y362267D01*
X365472Y362344D01*
X365560Y362424D01*
X365646Y362507D01*
X365729Y362593D01*
X365809Y362681D01*
X365886Y362772D01*
X365960Y362866D01*
X366031Y362962D01*
X366099Y363060D01*
X366164Y363160D01*
X366225Y363263D01*
X364779Y368660D02*
X352273Y366755D01*
X352621Y357478D02*
X352316Y357649D01*
X352007Y357813D01*
X351694Y357970D01*
X351377Y358119D01*
X351057Y358260D01*
X350734Y358394D01*
X350408Y358520D01*
X350079Y358638D01*
X349747Y358748D01*
X349412Y358851D01*
X349075Y358945D01*
X348736Y359031D01*
X348395Y359109D01*
X348053Y359179D01*
X347708Y359241D01*
X347363Y359294D01*
X347016Y359340D01*
X346668Y359377D01*
X346319Y359405D01*
X346319Y359406D02*
X346202Y359427D01*
X346084Y359444D01*
X345965Y359457D01*
X345846Y359467D01*
X345727Y359472D01*
X345608Y359474D01*
X345488Y359472D01*
X345369Y359466D01*
X345250Y359456D01*
X345132Y359442D01*
X345014Y359424D01*
X344896Y359402D01*
X344780Y359377D01*
X344664Y359348D01*
X344550Y359315D01*
X344436Y359278D01*
X344324Y359238D01*
X344213Y359194D01*
X344103Y359146D01*
X343996Y359095D01*
X343890Y359040D01*
X343785Y358982D01*
X343683Y358921D01*
X343583Y358856D01*
X343485Y358788D01*
X343389Y358717D01*
X343296Y358642D01*
X343205Y358565D01*
X343117Y358485D01*
X343031Y358402D01*
X342948Y358316D01*
X342868Y358228D01*
X342791Y358137D01*
X342717Y358043D01*
X342646Y357947D01*
X342578Y357849D01*
X342513Y357749D01*
X342452Y357647D01*
X342452Y357646D02*
X342394Y357542D01*
X342339Y357436D01*
X342288Y357328D01*
X342241Y357219D01*
X342197Y357108D01*
X342157Y356995D01*
X342120Y356882D01*
X342087Y356767D01*
X342058Y356651D01*
X342033Y356535D01*
X342011Y356418D01*
X341994Y356300D01*
X341980Y356181D01*
X341970Y356062D01*
X341964Y355943D01*
X341962Y355824D01*
X341964Y355704D01*
X341969Y355585D01*
X341979Y355466D01*
X341993Y355348D01*
X342010Y355230D01*
X342031Y355112D01*
X342056Y354996D01*
X342085Y354880D01*
X342117Y354765D01*
X342154Y354651D01*
X342193Y354539D01*
X342237Y354428D01*
X342284Y354318D01*
X342335Y354210D01*
X342389Y354104D01*
X342447Y354000D01*
X342508Y353897D01*
X342572Y353797D01*
X342640Y353698D01*
X342711Y353602D01*
X342785Y353509D01*
X342862Y353418D01*
X342862Y353417D02*
X343061Y353130D01*
X343267Y352847D01*
X343480Y352569D01*
X343699Y352296D01*
X343925Y352029D01*
X344157Y351767D01*
X344395Y351511D01*
X344639Y351261D01*
X344889Y351016D01*
X345145Y350777D01*
X345406Y350545D01*
X345673Y350319D01*
X345945Y350100D01*
X346223Y349886D01*
X346505Y349680D01*
X346792Y349481D01*
X347084Y349288D01*
X347381Y349102D01*
X347682Y348924D01*
X352620Y357478D02*
X352921Y357300D01*
X353218Y357114D01*
X353510Y356921D01*
X353797Y356722D01*
X354079Y356516D01*
X354357Y356302D01*
X354629Y356083D01*
X354896Y355857D01*
X355157Y355624D01*
X355413Y355386D01*
X355663Y355141D01*
X355907Y354891D01*
X356146Y354635D01*
X356377Y354373D01*
X356603Y354106D01*
X356822Y353833D01*
X357035Y353555D01*
X357241Y353272D01*
X357440Y352985D01*
X357440Y352984D02*
X357517Y352893D01*
X357591Y352800D01*
X357662Y352704D01*
X357730Y352605D01*
X357794Y352505D01*
X357855Y352402D01*
X357913Y352298D01*
X357967Y352192D01*
X358018Y352084D01*
X358065Y351974D01*
X358109Y351863D01*
X358148Y351751D01*
X358185Y351637D01*
X358217Y351522D01*
X358246Y351406D01*
X358271Y351290D01*
X358292Y351172D01*
X358309Y351054D01*
X358323Y350936D01*
X358333Y350817D01*
X358338Y350698D01*
X358340Y350578D01*
X358338Y350459D01*
X358332Y350340D01*
X358322Y350221D01*
X358308Y350102D01*
X358291Y349984D01*
X358269Y349867D01*
X358244Y349750D01*
X358215Y349635D01*
X358182Y349520D01*
X358145Y349406D01*
X358105Y349294D01*
X358061Y349183D01*
X358014Y349074D01*
X357963Y348966D01*
X357908Y348860D01*
X357850Y348756D01*
X353983Y346997D02*
X353634Y347026D01*
X353286Y347062D01*
X352940Y347108D01*
X352594Y347161D01*
X352250Y347223D01*
X351907Y347293D01*
X351566Y347371D01*
X351227Y347457D01*
X350890Y347552D01*
X350556Y347654D01*
X350224Y347764D01*
X349894Y347882D01*
X349568Y348008D01*
X349245Y348142D01*
X348925Y348283D01*
X348608Y348432D01*
X348296Y348589D01*
X347987Y348753D01*
X347682Y348924D01*
X353983Y346996D02*
X354100Y346975D01*
X354218Y346958D01*
X354337Y346945D01*
X354456Y346935D01*
X354575Y346930D01*
X354694Y346928D01*
X354814Y346930D01*
X354933Y346936D01*
X355052Y346946D01*
X355170Y346960D01*
X355288Y346978D01*
X355406Y347000D01*
X355522Y347025D01*
X355638Y347054D01*
X355752Y347087D01*
X355866Y347124D01*
X355978Y347164D01*
X356089Y347208D01*
X356199Y347256D01*
X356306Y347307D01*
X356412Y347362D01*
X356517Y347420D01*
X356619Y347481D01*
X356719Y347546D01*
X356817Y347614D01*
X356913Y347685D01*
X357006Y347760D01*
X357097Y347837D01*
X357185Y347917D01*
X357271Y348000D01*
X357354Y348086D01*
X357434Y348174D01*
X357511Y348265D01*
X357585Y348359D01*
X357656Y348455D01*
X357724Y348553D01*
X357789Y348653D01*
X357850Y348756D01*
X356404Y354153D02*
X343898Y352249D01*
X336224Y346859D02*
X351622Y337969D01*
X336224Y346859D02*
X333755Y342582D01*
X333755Y342583D02*
X333687Y342460D01*
X333622Y342337D01*
X333561Y342211D01*
X333503Y342083D01*
X333449Y341955D01*
X333399Y341824D01*
X333352Y341692D01*
X333309Y341559D01*
X333270Y341425D01*
X333235Y341290D01*
X333204Y341154D01*
X333176Y341016D01*
X333153Y340879D01*
X333133Y340740D01*
X333117Y340601D01*
X333105Y340462D01*
X333097Y340323D01*
X333093Y340183D01*
X333093Y340043D01*
X333097Y339903D01*
X333105Y339764D01*
X333117Y339625D01*
X333133Y339486D01*
X333153Y339347D01*
X333176Y339210D01*
X333204Y339072D01*
X333235Y338936D01*
X333270Y338801D01*
X333309Y338667D01*
X333352Y338534D01*
X333399Y338402D01*
X333449Y338271D01*
X333503Y338143D01*
X333561Y338015D01*
X333622Y337889D01*
X333687Y337766D01*
X333755Y337643D01*
X333826Y337523D01*
X333901Y337405D01*
X333980Y337290D01*
X334061Y337176D01*
X334146Y337065D01*
X334234Y336956D01*
X334324Y336850D01*
X334418Y336746D01*
X334515Y336645D01*
X334615Y336547D01*
X334717Y336452D01*
X334822Y336360D01*
X334929Y336270D01*
X335039Y336184D01*
X335152Y336101D01*
X335266Y336021D01*
X335383Y335944D01*
X335502Y335871D01*
X335623Y335801D01*
X335746Y335735D01*
X335871Y335672D01*
X335998Y335612D01*
X336126Y335557D01*
X336256Y335505D01*
X336387Y335456D01*
X336519Y335411D01*
X336653Y335370D01*
X336787Y335333D01*
X336923Y335300D01*
X337060Y335271D01*
X337197Y335245D01*
X337335Y335223D01*
X337474Y335206D01*
X337613Y335192D01*
X337753Y335182D01*
X337892Y335176D01*
X338032Y335174D01*
X338172Y335176D01*
X338311Y335182D01*
X338451Y335192D01*
X338590Y335206D01*
X338729Y335223D01*
X338867Y335245D01*
X339004Y335271D01*
X339141Y335300D01*
X339277Y335333D01*
X339411Y335371D01*
X339545Y335411D01*
X339677Y335456D01*
X339809Y335505D01*
X339938Y335557D01*
X340066Y335612D01*
X340193Y335672D01*
X340318Y335735D01*
X340441Y335801D01*
X340562Y335871D01*
X340681Y335944D01*
X340798Y336021D01*
X340912Y336101D01*
X341025Y336184D01*
X341135Y336270D01*
X341242Y336360D01*
X341347Y336452D01*
X341449Y336547D01*
X341549Y336645D01*
X341646Y336746D01*
X341740Y336850D01*
X341830Y336956D01*
X341918Y337065D01*
X342003Y337176D01*
X342084Y337290D01*
X342163Y337405D01*
X342238Y337523D01*
X342309Y337644D01*
X342309Y337643D02*
X344779Y341920D01*
X341815Y336788D02*
X346683Y329415D01*
X326803Y321651D02*
X326689Y321718D01*
X326578Y321789D01*
X326469Y321863D01*
X326363Y321940D01*
X326259Y322021D01*
X326157Y322104D01*
X326057Y322191D01*
X325960Y322280D01*
X325866Y322372D01*
X325775Y322467D01*
X325687Y322565D01*
X325601Y322665D01*
X325519Y322768D01*
X325439Y322873D01*
X325363Y322981D01*
X325290Y323090D01*
X325220Y323202D01*
X325154Y323316D01*
X325091Y323431D01*
X325031Y323549D01*
X324975Y323668D01*
X324923Y323789D01*
X324874Y323911D01*
X324828Y324035D01*
X324787Y324160D01*
X324749Y324286D01*
X324715Y324413D01*
X324685Y324542D01*
X324658Y324671D01*
X324635Y324800D01*
X324617Y324931D01*
X324602Y325062D01*
X324591Y325193D01*
X324583Y325324D01*
X324580Y325456D01*
X324581Y325588D01*
X324585Y325720D01*
X324594Y325851D01*
X324606Y325982D01*
X324622Y326113D01*
X324643Y326243D01*
X324666Y326373D01*
X324694Y326501D01*
X324726Y326629D01*
X324761Y326756D01*
X324800Y326882D01*
X324843Y327007D01*
X324890Y327130D01*
X324940Y327252D01*
X324993Y327372D01*
X325051Y327491D01*
X325111Y327607D01*
X325176Y327723D01*
X325175Y327723D02*
X325252Y327851D01*
X325332Y327978D01*
X325415Y328102D01*
X325501Y328224D01*
X325591Y328344D01*
X325683Y328462D01*
X325779Y328577D01*
X325878Y328689D01*
X325979Y328799D01*
X326084Y328906D01*
X326191Y329011D01*
X326301Y329112D01*
X326413Y329211D01*
X326528Y329306D01*
X326646Y329399D01*
X326766Y329488D01*
X326888Y329575D01*
X327012Y329658D01*
X327139Y329738D01*
X327268Y329814D01*
X327398Y329887D01*
X327531Y329957D01*
X327665Y330023D01*
X327801Y330085D01*
X327938Y330144D01*
X328077Y330200D01*
X328218Y330251D01*
X328359Y330299D01*
X328502Y330344D01*
X328646Y330384D01*
X328791Y330421D01*
X328937Y330454D01*
X329084Y330483D01*
X329231Y330508D01*
X329380Y330530D01*
X329528Y330547D01*
X329677Y330561D01*
X329826Y330570D01*
X329976Y330576D01*
X330126Y330578D01*
X330275Y330576D01*
X330425Y330570D01*
X330574Y330560D01*
X330723Y330546D01*
X330871Y330528D01*
X331020Y330507D01*
X331167Y330481D01*
X331314Y330452D01*
X330538Y321205D02*
X330409Y321169D01*
X330280Y321137D01*
X330150Y321108D01*
X330019Y321083D01*
X329887Y321062D01*
X329755Y321045D01*
X329622Y321031D01*
X329490Y321020D01*
X329356Y321014D01*
X329223Y321011D01*
X329090Y321012D01*
X328957Y321017D01*
X328824Y321025D01*
X328691Y321037D01*
X328558Y321053D01*
X328427Y321072D01*
X328295Y321096D01*
X328165Y321122D01*
X328035Y321153D01*
X327906Y321187D01*
X327778Y321225D01*
X327651Y321266D01*
X327526Y321310D01*
X327402Y321359D01*
X327279Y321410D01*
X327157Y321465D01*
X327037Y321524D01*
X326919Y321586D01*
X326803Y321651D01*
X330537Y321205D02*
X343290Y323537D01*
X338351Y314983D01*
X327216Y313476D02*
X326911Y313647D01*
X326602Y313811D01*
X326289Y313968D01*
X325972Y314117D01*
X325652Y314258D01*
X325329Y314392D01*
X325003Y314518D01*
X324674Y314636D01*
X324342Y314746D01*
X324007Y314849D01*
X323670Y314943D01*
X323331Y315029D01*
X322990Y315107D01*
X322648Y315177D01*
X322303Y315239D01*
X321958Y315292D01*
X321611Y315338D01*
X321263Y315375D01*
X320914Y315403D01*
X320797Y315424D01*
X320679Y315441D01*
X320560Y315454D01*
X320441Y315464D01*
X320322Y315469D01*
X320203Y315471D01*
X320083Y315469D01*
X319964Y315463D01*
X319845Y315453D01*
X319727Y315439D01*
X319609Y315421D01*
X319491Y315399D01*
X319375Y315374D01*
X319259Y315345D01*
X319145Y315312D01*
X319031Y315275D01*
X318919Y315235D01*
X318808Y315191D01*
X318698Y315143D01*
X318591Y315092D01*
X318485Y315037D01*
X318380Y314979D01*
X318278Y314918D01*
X318178Y314853D01*
X318080Y314785D01*
X317984Y314714D01*
X317891Y314639D01*
X317800Y314562D01*
X317712Y314482D01*
X317626Y314399D01*
X317543Y314313D01*
X317463Y314225D01*
X317386Y314134D01*
X317312Y314040D01*
X317241Y313944D01*
X317173Y313846D01*
X317108Y313746D01*
X317047Y313644D01*
X317048Y313643D02*
X316990Y313539D01*
X316935Y313433D01*
X316884Y313325D01*
X316837Y313216D01*
X316793Y313105D01*
X316753Y312992D01*
X316716Y312879D01*
X316683Y312764D01*
X316654Y312648D01*
X316629Y312532D01*
X316607Y312415D01*
X316590Y312297D01*
X316576Y312178D01*
X316566Y312059D01*
X316560Y311940D01*
X316558Y311821D01*
X316560Y311701D01*
X316565Y311582D01*
X316575Y311463D01*
X316589Y311345D01*
X316606Y311227D01*
X316627Y311109D01*
X316652Y310993D01*
X316681Y310877D01*
X316713Y310762D01*
X316750Y310648D01*
X316789Y310536D01*
X316833Y310425D01*
X316880Y310315D01*
X316931Y310207D01*
X316985Y310101D01*
X317043Y309997D01*
X317104Y309894D01*
X317168Y309794D01*
X317236Y309695D01*
X317307Y309599D01*
X317381Y309506D01*
X317458Y309415D01*
X317457Y309415D02*
X317656Y309128D01*
X317862Y308845D01*
X318075Y308567D01*
X318294Y308294D01*
X318520Y308027D01*
X318752Y307765D01*
X318990Y307509D01*
X319234Y307259D01*
X319484Y307014D01*
X319740Y306775D01*
X320001Y306543D01*
X320268Y306317D01*
X320540Y306098D01*
X320818Y305884D01*
X321100Y305678D01*
X321387Y305479D01*
X321679Y305286D01*
X321976Y305100D01*
X322277Y304922D01*
X327215Y313475D02*
X327516Y313297D01*
X327813Y313111D01*
X328105Y312918D01*
X328392Y312719D01*
X328674Y312513D01*
X328952Y312299D01*
X329224Y312080D01*
X329491Y311854D01*
X329752Y311621D01*
X330008Y311383D01*
X330258Y311138D01*
X330502Y310888D01*
X330741Y310632D01*
X330972Y310370D01*
X331198Y310103D01*
X331417Y309830D01*
X331630Y309552D01*
X331836Y309269D01*
X332035Y308982D01*
X332112Y308891D01*
X332186Y308798D01*
X332257Y308702D01*
X332325Y308603D01*
X332389Y308503D01*
X332450Y308400D01*
X332508Y308296D01*
X332562Y308190D01*
X332613Y308082D01*
X332660Y307972D01*
X332704Y307861D01*
X332743Y307749D01*
X332780Y307635D01*
X332812Y307520D01*
X332841Y307404D01*
X332866Y307288D01*
X332887Y307170D01*
X332904Y307052D01*
X332918Y306934D01*
X332928Y306815D01*
X332933Y306696D01*
X332935Y306576D01*
X332933Y306457D01*
X332927Y306338D01*
X332917Y306219D01*
X332903Y306100D01*
X332886Y305982D01*
X332864Y305865D01*
X332839Y305748D01*
X332810Y305633D01*
X332777Y305518D01*
X332740Y305404D01*
X332700Y305292D01*
X332656Y305181D01*
X332609Y305072D01*
X332558Y304964D01*
X332503Y304858D01*
X332445Y304754D01*
X328578Y302994D02*
X328229Y303023D01*
X327881Y303059D01*
X327535Y303105D01*
X327189Y303158D01*
X326845Y303220D01*
X326502Y303290D01*
X326161Y303368D01*
X325822Y303454D01*
X325485Y303549D01*
X325151Y303651D01*
X324819Y303761D01*
X324489Y303879D01*
X324163Y304005D01*
X323840Y304139D01*
X323520Y304280D01*
X323203Y304429D01*
X322891Y304586D01*
X322582Y304750D01*
X322277Y304921D01*
X328578Y302994D02*
X328695Y302973D01*
X328813Y302956D01*
X328932Y302943D01*
X329051Y302933D01*
X329170Y302928D01*
X329289Y302926D01*
X329409Y302928D01*
X329528Y302934D01*
X329647Y302944D01*
X329765Y302958D01*
X329883Y302976D01*
X330001Y302998D01*
X330117Y303023D01*
X330233Y303052D01*
X330347Y303085D01*
X330461Y303122D01*
X330573Y303162D01*
X330684Y303206D01*
X330794Y303254D01*
X330901Y303305D01*
X331007Y303360D01*
X331112Y303418D01*
X331214Y303479D01*
X331314Y303544D01*
X331412Y303612D01*
X331508Y303683D01*
X331601Y303758D01*
X331692Y303835D01*
X331780Y303915D01*
X331866Y303998D01*
X331949Y304084D01*
X332029Y304172D01*
X332106Y304263D01*
X332180Y304357D01*
X332251Y304453D01*
X332319Y304551D01*
X332384Y304651D01*
X332445Y304754D01*
X330999Y310151D02*
X318493Y308246D01*
M02*
