G04 EAGLE Gerber RS-274X export*
G75*
%MOMM*%
%FSLAX34Y34*%
%LPD*%
%INSilkscreen Top*%
%IPPOS*%
%AMOC8*
5,1,8,0,0,1.08239X$1,22.5*%
G01*
%ADD10C,0.101600*%
%ADD11C,0.152400*%
%ADD12R,0.014731X0.014731*%
%ADD13R,0.147319X0.014731*%
%ADD14R,0.265175X0.014731*%
%ADD15R,0.383031X0.014731*%
%ADD16R,0.515619X0.014731*%
%ADD17R,0.633475X0.014731*%
%ADD18R,0.751331X0.014731*%
%ADD19R,0.883919X0.014731*%
%ADD20R,1.001775X0.014731*%
%ADD21R,1.119631X0.014731*%
%ADD22R,1.134363X0.014731*%
%ADD23R,1.149094X0.014731*%
%ADD24R,1.163825X0.014731*%
%ADD25R,1.178556X0.014731*%
%ADD26R,1.193288X0.014731*%
%ADD27R,1.222756X0.014731*%
%ADD28R,1.237488X0.014731*%
%ADD29R,1.266950X0.014731*%
%ADD30R,1.281681X0.014731*%
%ADD31R,1.311144X0.014731*%
%ADD32R,1.325881X0.014731*%
%ADD33R,1.355344X0.014731*%
%ADD34R,1.370075X0.014731*%
%ADD35R,1.384806X0.014731*%
%ADD36R,1.399538X0.014731*%
%ADD37R,1.414275X0.014731*%
%ADD38R,1.443738X0.014731*%
%ADD39R,1.458469X0.014731*%
%ADD40R,1.487931X0.014731*%
%ADD41R,1.502663X0.014731*%
%ADD42R,1.517394X0.014731*%
%ADD43R,1.532125X0.014731*%
%ADD44R,1.546856X0.014731*%
%ADD45R,1.576319X0.014731*%
%ADD46R,1.605788X0.014731*%
%ADD47R,1.620519X0.014731*%
%ADD48R,1.649981X0.014731*%
%ADD49R,1.664713X0.014731*%
%ADD50R,1.694175X0.014731*%
%ADD51R,1.708913X0.014731*%
%ADD52R,1.738375X0.014731*%
%ADD53R,1.753106X0.014731*%
%ADD54R,1.767838X0.014731*%
%ADD55R,1.782569X0.014731*%
%ADD56R,1.797306X0.014731*%
%ADD57R,0.117856X0.014731*%
%ADD58R,1.826769X0.014731*%
%ADD59R,0.235713X0.014731*%
%ADD60R,0.353569X0.014731*%
%ADD61R,1.856231X0.014731*%
%ADD62R,0.486156X0.014731*%
%ADD63R,1.870963X0.014731*%
%ADD64R,0.604013X0.014731*%
%ADD65R,0.721869X0.014731*%
%ADD66R,1.885694X0.014731*%
%ADD67R,0.839719X0.014731*%
%ADD68R,0.972306X0.014731*%
%ADD69R,1.090169X0.014731*%
%ADD70R,1.208025X0.014731*%
%ADD71R,1.252219X0.014731*%
%ADD72R,1.296412X0.014731*%
%ADD73R,1.340612X0.014731*%
%ADD74R,1.826763X0.014731*%
%ADD75R,1.414269X0.014731*%
%ADD76R,1.812031X0.014731*%
%ADD77R,1.429000X0.014731*%
%ADD78R,1.458462X0.014731*%
%ADD79R,1.473200X0.014731*%
%ADD80R,1.723644X0.014731*%
%ADD81R,1.694181X0.014731*%
%ADD82R,1.679450X0.014731*%
%ADD83R,1.561594X0.014731*%
%ADD84R,1.576325X0.014731*%
%ADD85R,1.591056X0.014731*%
%ADD86R,1.635250X0.014731*%
%ADD87R,1.561588X0.014731*%
%ADD88R,1.443731X0.014731*%
%ADD89R,1.797300X0.014731*%
%ADD90R,1.841500X0.014731*%
%ADD91R,1.311150X0.014731*%
%ADD92R,1.296419X0.014731*%
%ADD93R,1.193294X0.014731*%
%ADD94R,0.957575X0.014731*%
%ADD95R,0.589281X0.014731*%
%ADD96R,0.471425X0.014731*%
%ADD97R,0.220975X0.014731*%
%ADD98R,1.812038X0.014731*%
%ADD99R,0.103119X0.014731*%
%ADD100R,0.029463X0.014731*%
%ADD101R,0.162050X0.014731*%
%ADD102R,0.397763X0.014731*%
%ADD103R,0.648206X0.014731*%
%ADD104R,1.679444X0.014731*%
%ADD105R,1.016506X0.014731*%
%ADD106R,1.104900X0.014731*%
%ADD107R,1.222750X0.014731*%
%ADD108R,1.429006X0.014731*%
%ADD109R,1.208019X0.014731*%
%ADD110R,0.987044X0.014731*%
%ADD111R,0.854456X0.014731*%
%ADD112R,0.618744X0.014731*%
%ADD113R,0.500888X0.014731*%
%ADD114R,0.368300X0.014731*%
%ADD115R,0.132587X0.014731*%
%ADD116R,1.664719X0.014731*%
%ADD117R,1.075438X0.014731*%
%ADD118R,0.942844X0.014731*%
%ADD119R,0.707131X0.014731*%
%ADD120R,0.456694X0.014731*%
%ADD121R,0.088388X0.014731*%
%ADD122C,0.050800*%
%ADD123C,0.127000*%


D10*
X403428Y475532D02*
X406086Y473670D01*
X406180Y473607D01*
X406276Y473547D01*
X406374Y473490D01*
X406474Y473437D01*
X406576Y473387D01*
X406680Y473341D01*
X406785Y473299D01*
X406891Y473260D01*
X406999Y473225D01*
X407108Y473194D01*
X407218Y473166D01*
X407329Y473143D01*
X407440Y473123D01*
X407552Y473107D01*
X407665Y473095D01*
X407778Y473087D01*
X407891Y473083D01*
X408005Y473083D01*
X408118Y473087D01*
X408231Y473095D01*
X408344Y473107D01*
X408456Y473123D01*
X408567Y473143D01*
X408678Y473166D01*
X408788Y473194D01*
X408897Y473225D01*
X409005Y473260D01*
X409111Y473299D01*
X409216Y473341D01*
X409320Y473387D01*
X409422Y473437D01*
X409522Y473490D01*
X409620Y473547D01*
X409716Y473607D01*
X409810Y473670D01*
X409901Y473737D01*
X409991Y473806D01*
X410078Y473879D01*
X410162Y473955D01*
X410243Y474034D01*
X410322Y474115D01*
X410398Y474199D01*
X410471Y474286D01*
X410540Y474376D01*
X410607Y474467D01*
X410670Y474561D01*
X410730Y474657D01*
X410787Y474755D01*
X410840Y474855D01*
X410890Y474957D01*
X410936Y475061D01*
X410978Y475166D01*
X411017Y475272D01*
X411052Y475380D01*
X411083Y475489D01*
X411111Y475599D01*
X411134Y475710D01*
X411154Y475821D01*
X411170Y475933D01*
X411182Y476046D01*
X411190Y476159D01*
X411194Y476272D01*
X411194Y476386D01*
X411190Y476499D01*
X411182Y476612D01*
X411170Y476725D01*
X411154Y476837D01*
X411134Y476948D01*
X411111Y477059D01*
X411083Y477169D01*
X411052Y477278D01*
X411017Y477386D01*
X410978Y477492D01*
X410936Y477597D01*
X410890Y477701D01*
X410840Y477803D01*
X410787Y477903D01*
X410730Y478001D01*
X410670Y478097D01*
X410607Y478191D01*
X410540Y478282D01*
X410471Y478372D01*
X410398Y478459D01*
X410322Y478543D01*
X410243Y478624D01*
X410162Y478703D01*
X410078Y478779D01*
X409991Y478852D01*
X409902Y478921D01*
X409810Y478988D01*
X413320Y482869D02*
X410129Y485103D01*
X413319Y482869D02*
X413400Y482809D01*
X413479Y482747D01*
X413556Y482681D01*
X413630Y482613D01*
X413701Y482542D01*
X413769Y482468D01*
X413835Y482391D01*
X413897Y482312D01*
X413957Y482231D01*
X414013Y482147D01*
X414066Y482062D01*
X414115Y481974D01*
X414161Y481885D01*
X414204Y481793D01*
X414243Y481700D01*
X414278Y481606D01*
X414310Y481511D01*
X414338Y481414D01*
X414362Y481316D01*
X414382Y481218D01*
X414399Y481118D01*
X414411Y481018D01*
X414420Y480918D01*
X414425Y480818D01*
X414426Y480717D01*
X414423Y480616D01*
X414416Y480516D01*
X414405Y480416D01*
X414391Y480316D01*
X414372Y480217D01*
X414350Y480119D01*
X414324Y480022D01*
X414294Y479925D01*
X414261Y479831D01*
X414224Y479737D01*
X414183Y479645D01*
X414138Y479554D01*
X414091Y479466D01*
X414039Y479379D01*
X413985Y479295D01*
X413927Y479212D01*
X413866Y479132D01*
X413802Y479054D01*
X413735Y478979D01*
X413666Y478906D01*
X413593Y478837D01*
X413518Y478770D01*
X413440Y478706D01*
X413360Y478645D01*
X413277Y478587D01*
X413193Y478533D01*
X413106Y478481D01*
X413018Y478434D01*
X412927Y478389D01*
X412835Y478348D01*
X412741Y478311D01*
X412647Y478278D01*
X412550Y478248D01*
X412453Y478222D01*
X412355Y478200D01*
X412256Y478181D01*
X412156Y478167D01*
X412056Y478156D01*
X411956Y478149D01*
X411855Y478146D01*
X411754Y478147D01*
X411654Y478152D01*
X411554Y478161D01*
X411454Y478173D01*
X411354Y478190D01*
X411256Y478210D01*
X411158Y478234D01*
X411061Y478262D01*
X410966Y478294D01*
X410872Y478329D01*
X410779Y478368D01*
X410687Y478411D01*
X410598Y478457D01*
X410510Y478506D01*
X410425Y478559D01*
X410341Y478615D01*
X408214Y480105D01*
X418960Y478919D02*
X415449Y467114D01*
X425341Y474452D01*
X422153Y462420D02*
X424812Y460558D01*
X424906Y460495D01*
X425002Y460435D01*
X425100Y460378D01*
X425200Y460325D01*
X425302Y460275D01*
X425406Y460229D01*
X425511Y460187D01*
X425617Y460148D01*
X425725Y460113D01*
X425834Y460082D01*
X425944Y460054D01*
X426055Y460031D01*
X426166Y460011D01*
X426278Y459995D01*
X426391Y459983D01*
X426504Y459975D01*
X426617Y459971D01*
X426731Y459971D01*
X426844Y459975D01*
X426957Y459983D01*
X427070Y459995D01*
X427182Y460011D01*
X427293Y460031D01*
X427404Y460054D01*
X427514Y460082D01*
X427623Y460113D01*
X427731Y460148D01*
X427837Y460187D01*
X427942Y460229D01*
X428046Y460275D01*
X428148Y460325D01*
X428248Y460378D01*
X428346Y460435D01*
X428442Y460495D01*
X428536Y460558D01*
X428627Y460625D01*
X428717Y460694D01*
X428804Y460767D01*
X428888Y460843D01*
X428969Y460922D01*
X429048Y461003D01*
X429124Y461087D01*
X429197Y461174D01*
X429266Y461264D01*
X429333Y461355D01*
X429396Y461449D01*
X429456Y461545D01*
X429513Y461643D01*
X429566Y461743D01*
X429616Y461845D01*
X429662Y461949D01*
X429704Y462054D01*
X429743Y462160D01*
X429778Y462268D01*
X429809Y462377D01*
X429837Y462487D01*
X429860Y462598D01*
X429880Y462709D01*
X429896Y462821D01*
X429908Y462934D01*
X429916Y463047D01*
X429920Y463160D01*
X429920Y463274D01*
X429916Y463387D01*
X429908Y463500D01*
X429896Y463613D01*
X429880Y463725D01*
X429860Y463836D01*
X429837Y463947D01*
X429809Y464057D01*
X429778Y464166D01*
X429743Y464274D01*
X429704Y464380D01*
X429662Y464485D01*
X429616Y464589D01*
X429566Y464691D01*
X429513Y464791D01*
X429456Y464889D01*
X429396Y464985D01*
X429333Y465079D01*
X429266Y465170D01*
X429197Y465260D01*
X429124Y465347D01*
X429048Y465431D01*
X428969Y465512D01*
X428888Y465591D01*
X428804Y465667D01*
X428717Y465740D01*
X428628Y465809D01*
X428536Y465876D01*
X432045Y469757D02*
X428855Y471991D01*
X432045Y469757D02*
X432126Y469697D01*
X432205Y469635D01*
X432282Y469569D01*
X432356Y469501D01*
X432427Y469430D01*
X432495Y469356D01*
X432561Y469279D01*
X432623Y469200D01*
X432683Y469119D01*
X432739Y469035D01*
X432792Y468950D01*
X432841Y468862D01*
X432887Y468773D01*
X432930Y468681D01*
X432969Y468588D01*
X433004Y468494D01*
X433036Y468399D01*
X433064Y468302D01*
X433088Y468204D01*
X433108Y468106D01*
X433125Y468006D01*
X433137Y467906D01*
X433146Y467806D01*
X433151Y467706D01*
X433152Y467605D01*
X433149Y467504D01*
X433142Y467404D01*
X433131Y467304D01*
X433117Y467204D01*
X433098Y467105D01*
X433076Y467007D01*
X433050Y466910D01*
X433020Y466813D01*
X432987Y466719D01*
X432950Y466625D01*
X432909Y466533D01*
X432864Y466442D01*
X432817Y466354D01*
X432765Y466267D01*
X432711Y466183D01*
X432653Y466100D01*
X432592Y466020D01*
X432528Y465942D01*
X432461Y465867D01*
X432392Y465794D01*
X432319Y465725D01*
X432244Y465658D01*
X432166Y465594D01*
X432086Y465533D01*
X432003Y465475D01*
X431919Y465421D01*
X431832Y465369D01*
X431744Y465322D01*
X431653Y465277D01*
X431561Y465236D01*
X431467Y465199D01*
X431373Y465166D01*
X431276Y465136D01*
X431179Y465110D01*
X431081Y465088D01*
X430982Y465069D01*
X430882Y465055D01*
X430782Y465044D01*
X430682Y465037D01*
X430581Y465034D01*
X430480Y465035D01*
X430380Y465040D01*
X430280Y465049D01*
X430180Y465061D01*
X430080Y465078D01*
X429982Y465098D01*
X429884Y465122D01*
X429787Y465150D01*
X429692Y465182D01*
X429598Y465217D01*
X429505Y465256D01*
X429413Y465299D01*
X429324Y465345D01*
X429236Y465394D01*
X429151Y465447D01*
X429067Y465503D01*
X426940Y466993D01*
X497242Y334770D02*
X497242Y331524D01*
X497242Y334770D02*
X497240Y334883D01*
X497234Y334996D01*
X497224Y335109D01*
X497210Y335222D01*
X497193Y335334D01*
X497171Y335445D01*
X497146Y335555D01*
X497116Y335665D01*
X497083Y335773D01*
X497046Y335880D01*
X497006Y335986D01*
X496961Y336090D01*
X496913Y336193D01*
X496862Y336294D01*
X496807Y336393D01*
X496749Y336490D01*
X496687Y336585D01*
X496622Y336678D01*
X496554Y336768D01*
X496483Y336856D01*
X496408Y336942D01*
X496331Y337025D01*
X496251Y337105D01*
X496168Y337182D01*
X496082Y337257D01*
X495994Y337328D01*
X495904Y337396D01*
X495811Y337461D01*
X495716Y337523D01*
X495619Y337581D01*
X495520Y337636D01*
X495419Y337687D01*
X495316Y337735D01*
X495212Y337780D01*
X495106Y337820D01*
X494999Y337857D01*
X494891Y337890D01*
X494781Y337920D01*
X494671Y337945D01*
X494560Y337967D01*
X494448Y337984D01*
X494335Y337998D01*
X494222Y338008D01*
X494109Y338014D01*
X493996Y338016D01*
X493883Y338014D01*
X493770Y338008D01*
X493657Y337998D01*
X493544Y337984D01*
X493432Y337967D01*
X493321Y337945D01*
X493211Y337920D01*
X493101Y337890D01*
X492993Y337857D01*
X492886Y337820D01*
X492780Y337780D01*
X492676Y337735D01*
X492573Y337687D01*
X492472Y337636D01*
X492373Y337581D01*
X492276Y337523D01*
X492181Y337461D01*
X492088Y337396D01*
X491998Y337328D01*
X491910Y337257D01*
X491824Y337182D01*
X491741Y337105D01*
X491661Y337025D01*
X491584Y336942D01*
X491509Y336856D01*
X491438Y336768D01*
X491370Y336678D01*
X491305Y336585D01*
X491243Y336490D01*
X491185Y336393D01*
X491130Y336294D01*
X491079Y336193D01*
X491031Y336090D01*
X490986Y335986D01*
X490946Y335880D01*
X490909Y335773D01*
X490876Y335665D01*
X490846Y335555D01*
X490821Y335445D01*
X490799Y335334D01*
X490782Y335222D01*
X490768Y335109D01*
X490758Y334996D01*
X490752Y334883D01*
X490750Y334770D01*
X485558Y335419D02*
X485558Y331524D01*
X485558Y335419D02*
X485560Y335520D01*
X485566Y335620D01*
X485576Y335720D01*
X485589Y335820D01*
X485607Y335919D01*
X485628Y336018D01*
X485653Y336115D01*
X485682Y336212D01*
X485715Y336307D01*
X485751Y336401D01*
X485791Y336493D01*
X485834Y336584D01*
X485881Y336673D01*
X485931Y336760D01*
X485985Y336846D01*
X486042Y336929D01*
X486102Y337009D01*
X486165Y337088D01*
X486232Y337164D01*
X486301Y337237D01*
X486373Y337307D01*
X486447Y337375D01*
X486524Y337440D01*
X486604Y337501D01*
X486686Y337560D01*
X486770Y337615D01*
X486856Y337667D01*
X486944Y337716D01*
X487034Y337761D01*
X487126Y337803D01*
X487219Y337841D01*
X487314Y337875D01*
X487409Y337906D01*
X487506Y337933D01*
X487604Y337956D01*
X487703Y337976D01*
X487803Y337991D01*
X487903Y338003D01*
X488003Y338011D01*
X488104Y338015D01*
X488204Y338015D01*
X488305Y338011D01*
X488405Y338003D01*
X488505Y337991D01*
X488605Y337976D01*
X488704Y337956D01*
X488802Y337933D01*
X488899Y337906D01*
X488994Y337875D01*
X489089Y337841D01*
X489182Y337803D01*
X489274Y337761D01*
X489364Y337716D01*
X489452Y337667D01*
X489538Y337615D01*
X489622Y337560D01*
X489704Y337501D01*
X489784Y337440D01*
X489861Y337375D01*
X489935Y337307D01*
X490007Y337237D01*
X490076Y337164D01*
X490143Y337088D01*
X490206Y337009D01*
X490266Y336929D01*
X490323Y336846D01*
X490377Y336760D01*
X490427Y336673D01*
X490474Y336584D01*
X490517Y336493D01*
X490557Y336401D01*
X490593Y336307D01*
X490626Y336212D01*
X490655Y336115D01*
X490680Y336018D01*
X490701Y335919D01*
X490719Y335820D01*
X490732Y335720D01*
X490742Y335620D01*
X490748Y335520D01*
X490750Y335419D01*
X490751Y335419D02*
X490751Y332823D01*
X485558Y342305D02*
X497242Y346200D01*
X485558Y350095D01*
X497242Y354384D02*
X497242Y357630D01*
X497240Y357743D01*
X497234Y357856D01*
X497224Y357969D01*
X497210Y358082D01*
X497193Y358194D01*
X497171Y358305D01*
X497146Y358415D01*
X497116Y358525D01*
X497083Y358633D01*
X497046Y358740D01*
X497006Y358846D01*
X496961Y358950D01*
X496913Y359053D01*
X496862Y359154D01*
X496807Y359253D01*
X496749Y359350D01*
X496687Y359445D01*
X496622Y359538D01*
X496554Y359628D01*
X496483Y359716D01*
X496408Y359802D01*
X496331Y359885D01*
X496251Y359965D01*
X496168Y360042D01*
X496082Y360117D01*
X495994Y360188D01*
X495904Y360256D01*
X495811Y360321D01*
X495716Y360383D01*
X495619Y360441D01*
X495520Y360496D01*
X495419Y360547D01*
X495316Y360595D01*
X495212Y360640D01*
X495106Y360680D01*
X494999Y360717D01*
X494891Y360750D01*
X494781Y360780D01*
X494671Y360805D01*
X494560Y360827D01*
X494448Y360844D01*
X494335Y360858D01*
X494222Y360868D01*
X494109Y360874D01*
X493996Y360876D01*
X493883Y360874D01*
X493770Y360868D01*
X493657Y360858D01*
X493544Y360844D01*
X493432Y360827D01*
X493321Y360805D01*
X493211Y360780D01*
X493101Y360750D01*
X492993Y360717D01*
X492886Y360680D01*
X492780Y360640D01*
X492676Y360595D01*
X492573Y360547D01*
X492472Y360496D01*
X492373Y360441D01*
X492276Y360383D01*
X492181Y360321D01*
X492088Y360256D01*
X491998Y360188D01*
X491910Y360117D01*
X491824Y360042D01*
X491741Y359965D01*
X491661Y359885D01*
X491584Y359802D01*
X491509Y359716D01*
X491438Y359628D01*
X491370Y359538D01*
X491305Y359445D01*
X491243Y359350D01*
X491185Y359253D01*
X491130Y359154D01*
X491079Y359053D01*
X491031Y358950D01*
X490986Y358846D01*
X490946Y358740D01*
X490909Y358633D01*
X490876Y358525D01*
X490846Y358415D01*
X490821Y358305D01*
X490799Y358194D01*
X490782Y358082D01*
X490768Y357969D01*
X490758Y357856D01*
X490752Y357743D01*
X490750Y357630D01*
X485558Y358279D02*
X485558Y354384D01*
X485558Y358279D02*
X485560Y358380D01*
X485566Y358480D01*
X485576Y358580D01*
X485589Y358680D01*
X485607Y358779D01*
X485628Y358878D01*
X485653Y358975D01*
X485682Y359072D01*
X485715Y359167D01*
X485751Y359261D01*
X485791Y359353D01*
X485834Y359444D01*
X485881Y359533D01*
X485931Y359620D01*
X485985Y359706D01*
X486042Y359789D01*
X486102Y359869D01*
X486165Y359948D01*
X486232Y360024D01*
X486301Y360097D01*
X486373Y360167D01*
X486447Y360235D01*
X486524Y360300D01*
X486604Y360361D01*
X486686Y360420D01*
X486770Y360475D01*
X486856Y360527D01*
X486944Y360576D01*
X487034Y360621D01*
X487126Y360663D01*
X487219Y360701D01*
X487314Y360735D01*
X487409Y360766D01*
X487506Y360793D01*
X487604Y360816D01*
X487703Y360836D01*
X487803Y360851D01*
X487903Y360863D01*
X488003Y360871D01*
X488104Y360875D01*
X488204Y360875D01*
X488305Y360871D01*
X488405Y360863D01*
X488505Y360851D01*
X488605Y360836D01*
X488704Y360816D01*
X488802Y360793D01*
X488899Y360766D01*
X488994Y360735D01*
X489089Y360701D01*
X489182Y360663D01*
X489274Y360621D01*
X489364Y360576D01*
X489452Y360527D01*
X489538Y360475D01*
X489622Y360420D01*
X489704Y360361D01*
X489784Y360300D01*
X489861Y360235D01*
X489935Y360167D01*
X490007Y360097D01*
X490076Y360024D01*
X490143Y359948D01*
X490206Y359869D01*
X490266Y359789D01*
X490323Y359706D01*
X490377Y359620D01*
X490427Y359533D01*
X490474Y359444D01*
X490517Y359353D01*
X490557Y359261D01*
X490593Y359167D01*
X490626Y359072D01*
X490655Y358975D01*
X490680Y358878D01*
X490701Y358779D01*
X490719Y358680D01*
X490732Y358580D01*
X490742Y358480D01*
X490748Y358380D01*
X490750Y358279D01*
X490751Y358279D02*
X490751Y355683D01*
X412788Y209159D02*
X410129Y207297D01*
X412788Y209158D02*
X412879Y209225D01*
X412969Y209294D01*
X413056Y209367D01*
X413140Y209443D01*
X413221Y209522D01*
X413300Y209603D01*
X413376Y209687D01*
X413449Y209774D01*
X413518Y209864D01*
X413585Y209955D01*
X413648Y210049D01*
X413708Y210145D01*
X413765Y210243D01*
X413818Y210343D01*
X413868Y210445D01*
X413914Y210549D01*
X413956Y210654D01*
X413995Y210760D01*
X414030Y210868D01*
X414061Y210977D01*
X414089Y211087D01*
X414112Y211198D01*
X414132Y211309D01*
X414148Y211421D01*
X414160Y211534D01*
X414168Y211647D01*
X414172Y211760D01*
X414172Y211874D01*
X414168Y211987D01*
X414160Y212100D01*
X414148Y212213D01*
X414132Y212325D01*
X414112Y212436D01*
X414089Y212547D01*
X414061Y212657D01*
X414030Y212766D01*
X413995Y212874D01*
X413956Y212980D01*
X413914Y213085D01*
X413868Y213189D01*
X413818Y213291D01*
X413765Y213391D01*
X413708Y213489D01*
X413648Y213585D01*
X413585Y213679D01*
X413518Y213770D01*
X413449Y213860D01*
X413376Y213947D01*
X413300Y214031D01*
X413221Y214112D01*
X413140Y214191D01*
X413056Y214267D01*
X412969Y214340D01*
X412880Y214409D01*
X412788Y214476D01*
X412694Y214539D01*
X412598Y214599D01*
X412500Y214656D01*
X412400Y214709D01*
X412298Y214759D01*
X412194Y214805D01*
X412089Y214847D01*
X411983Y214886D01*
X411875Y214921D01*
X411766Y214952D01*
X411656Y214980D01*
X411545Y215003D01*
X411434Y215023D01*
X411322Y215039D01*
X411209Y215051D01*
X411096Y215059D01*
X410983Y215063D01*
X410869Y215063D01*
X410756Y215059D01*
X410643Y215051D01*
X410530Y215039D01*
X410418Y215023D01*
X410307Y215003D01*
X410196Y214980D01*
X410086Y214952D01*
X409977Y214921D01*
X409869Y214886D01*
X409763Y214847D01*
X409658Y214805D01*
X409554Y214759D01*
X409452Y214709D01*
X409352Y214656D01*
X409254Y214599D01*
X409158Y214539D01*
X409064Y214476D01*
X406618Y219102D02*
X403428Y216868D01*
X406618Y219102D02*
X406702Y219158D01*
X406787Y219211D01*
X406875Y219260D01*
X406964Y219306D01*
X407056Y219349D01*
X407149Y219388D01*
X407243Y219423D01*
X407338Y219455D01*
X407435Y219483D01*
X407533Y219507D01*
X407631Y219527D01*
X407731Y219544D01*
X407831Y219556D01*
X407931Y219565D01*
X408032Y219570D01*
X408132Y219571D01*
X408233Y219568D01*
X408333Y219561D01*
X408433Y219550D01*
X408533Y219536D01*
X408632Y219517D01*
X408730Y219495D01*
X408827Y219469D01*
X408924Y219439D01*
X409019Y219406D01*
X409112Y219369D01*
X409204Y219328D01*
X409295Y219283D01*
X409383Y219236D01*
X409470Y219184D01*
X409554Y219130D01*
X409637Y219072D01*
X409717Y219011D01*
X409795Y218947D01*
X409870Y218880D01*
X409943Y218811D01*
X410012Y218738D01*
X410079Y218663D01*
X410143Y218585D01*
X410204Y218505D01*
X410262Y218422D01*
X410316Y218338D01*
X410368Y218251D01*
X410415Y218163D01*
X410460Y218072D01*
X410501Y217980D01*
X410538Y217886D01*
X410571Y217792D01*
X410601Y217695D01*
X410627Y217598D01*
X410649Y217500D01*
X410668Y217401D01*
X410682Y217301D01*
X410693Y217201D01*
X410700Y217101D01*
X410703Y217000D01*
X410702Y216900D01*
X410697Y216799D01*
X410688Y216699D01*
X410676Y216599D01*
X410659Y216499D01*
X410639Y216401D01*
X410615Y216303D01*
X410587Y216206D01*
X410555Y216111D01*
X410520Y216017D01*
X410481Y215924D01*
X410438Y215832D01*
X410392Y215743D01*
X410343Y215655D01*
X410290Y215570D01*
X410234Y215486D01*
X410174Y215405D01*
X410112Y215326D01*
X410046Y215249D01*
X409978Y215175D01*
X409907Y215104D01*
X409833Y215036D01*
X409756Y214970D01*
X409677Y214908D01*
X409596Y214848D01*
X407470Y213359D01*
X412259Y223052D02*
X422151Y215714D01*
X418639Y227519D01*
X428855Y220409D02*
X431514Y222270D01*
X431605Y222337D01*
X431695Y222406D01*
X431782Y222479D01*
X431866Y222555D01*
X431947Y222634D01*
X432026Y222715D01*
X432102Y222799D01*
X432175Y222886D01*
X432244Y222976D01*
X432311Y223067D01*
X432374Y223161D01*
X432434Y223257D01*
X432491Y223355D01*
X432544Y223455D01*
X432594Y223557D01*
X432640Y223661D01*
X432682Y223766D01*
X432721Y223872D01*
X432756Y223980D01*
X432787Y224089D01*
X432815Y224199D01*
X432838Y224310D01*
X432858Y224421D01*
X432874Y224533D01*
X432886Y224646D01*
X432894Y224759D01*
X432898Y224872D01*
X432898Y224986D01*
X432894Y225099D01*
X432886Y225212D01*
X432874Y225325D01*
X432858Y225437D01*
X432838Y225548D01*
X432815Y225659D01*
X432787Y225769D01*
X432756Y225878D01*
X432721Y225986D01*
X432682Y226092D01*
X432640Y226197D01*
X432594Y226301D01*
X432544Y226403D01*
X432491Y226503D01*
X432434Y226601D01*
X432374Y226697D01*
X432311Y226791D01*
X432244Y226882D01*
X432175Y226972D01*
X432102Y227059D01*
X432026Y227143D01*
X431947Y227224D01*
X431866Y227303D01*
X431782Y227379D01*
X431695Y227452D01*
X431606Y227521D01*
X431514Y227588D01*
X431420Y227651D01*
X431324Y227711D01*
X431226Y227768D01*
X431126Y227821D01*
X431024Y227871D01*
X430920Y227917D01*
X430815Y227959D01*
X430709Y227998D01*
X430601Y228033D01*
X430492Y228064D01*
X430382Y228092D01*
X430271Y228115D01*
X430160Y228135D01*
X430048Y228151D01*
X429935Y228163D01*
X429822Y228171D01*
X429709Y228175D01*
X429595Y228175D01*
X429482Y228171D01*
X429369Y228163D01*
X429256Y228151D01*
X429144Y228135D01*
X429033Y228115D01*
X428922Y228092D01*
X428812Y228064D01*
X428703Y228033D01*
X428595Y227998D01*
X428489Y227959D01*
X428384Y227917D01*
X428280Y227871D01*
X428178Y227821D01*
X428078Y227768D01*
X427980Y227711D01*
X427884Y227651D01*
X427790Y227588D01*
X425344Y232214D02*
X422153Y229980D01*
X425344Y232214D02*
X425428Y232270D01*
X425513Y232323D01*
X425601Y232372D01*
X425690Y232418D01*
X425782Y232461D01*
X425875Y232500D01*
X425969Y232535D01*
X426064Y232567D01*
X426161Y232595D01*
X426259Y232619D01*
X426357Y232639D01*
X426457Y232656D01*
X426557Y232668D01*
X426657Y232677D01*
X426758Y232682D01*
X426858Y232683D01*
X426959Y232680D01*
X427059Y232673D01*
X427159Y232662D01*
X427259Y232648D01*
X427358Y232629D01*
X427456Y232607D01*
X427553Y232581D01*
X427650Y232551D01*
X427745Y232518D01*
X427838Y232481D01*
X427930Y232440D01*
X428021Y232395D01*
X428109Y232348D01*
X428196Y232296D01*
X428280Y232242D01*
X428363Y232184D01*
X428443Y232123D01*
X428521Y232059D01*
X428596Y231992D01*
X428669Y231923D01*
X428738Y231850D01*
X428805Y231775D01*
X428869Y231697D01*
X428930Y231617D01*
X428988Y231534D01*
X429042Y231450D01*
X429094Y231363D01*
X429141Y231275D01*
X429186Y231184D01*
X429227Y231092D01*
X429264Y230998D01*
X429297Y230904D01*
X429327Y230807D01*
X429353Y230710D01*
X429375Y230612D01*
X429394Y230513D01*
X429408Y230413D01*
X429419Y230313D01*
X429426Y230213D01*
X429429Y230112D01*
X429428Y230012D01*
X429423Y229911D01*
X429414Y229811D01*
X429402Y229711D01*
X429385Y229611D01*
X429365Y229513D01*
X429341Y229415D01*
X429313Y229318D01*
X429281Y229223D01*
X429246Y229129D01*
X429207Y229036D01*
X429164Y228944D01*
X429118Y228855D01*
X429069Y228767D01*
X429016Y228682D01*
X428960Y228598D01*
X428900Y228517D01*
X428838Y228438D01*
X428772Y228361D01*
X428704Y228287D01*
X428633Y228216D01*
X428559Y228148D01*
X428482Y228082D01*
X428403Y228020D01*
X428322Y227960D01*
X426195Y226471D01*
X260886Y222270D02*
X258228Y224132D01*
X260886Y222270D02*
X260980Y222207D01*
X261076Y222147D01*
X261174Y222090D01*
X261274Y222037D01*
X261376Y221987D01*
X261480Y221941D01*
X261585Y221899D01*
X261691Y221860D01*
X261799Y221825D01*
X261908Y221794D01*
X262018Y221766D01*
X262129Y221743D01*
X262240Y221723D01*
X262352Y221707D01*
X262465Y221695D01*
X262578Y221687D01*
X262691Y221683D01*
X262805Y221683D01*
X262918Y221687D01*
X263031Y221695D01*
X263144Y221707D01*
X263256Y221723D01*
X263367Y221743D01*
X263478Y221766D01*
X263588Y221794D01*
X263697Y221825D01*
X263805Y221860D01*
X263911Y221899D01*
X264016Y221941D01*
X264120Y221987D01*
X264222Y222037D01*
X264322Y222090D01*
X264420Y222147D01*
X264516Y222207D01*
X264610Y222270D01*
X264701Y222337D01*
X264791Y222406D01*
X264878Y222479D01*
X264962Y222555D01*
X265043Y222634D01*
X265122Y222715D01*
X265198Y222799D01*
X265271Y222886D01*
X265340Y222976D01*
X265407Y223067D01*
X265470Y223161D01*
X265530Y223257D01*
X265587Y223355D01*
X265640Y223455D01*
X265690Y223557D01*
X265736Y223661D01*
X265778Y223766D01*
X265817Y223872D01*
X265852Y223980D01*
X265883Y224089D01*
X265911Y224199D01*
X265934Y224310D01*
X265954Y224421D01*
X265970Y224533D01*
X265982Y224646D01*
X265990Y224759D01*
X265994Y224872D01*
X265994Y224986D01*
X265990Y225099D01*
X265982Y225212D01*
X265970Y225325D01*
X265954Y225437D01*
X265934Y225548D01*
X265911Y225659D01*
X265883Y225769D01*
X265852Y225878D01*
X265817Y225986D01*
X265778Y226092D01*
X265736Y226197D01*
X265690Y226301D01*
X265640Y226403D01*
X265587Y226503D01*
X265530Y226601D01*
X265470Y226697D01*
X265407Y226791D01*
X265340Y226882D01*
X265271Y226972D01*
X265198Y227059D01*
X265122Y227143D01*
X265043Y227224D01*
X264962Y227303D01*
X264878Y227379D01*
X264791Y227452D01*
X264702Y227521D01*
X264610Y227588D01*
X268120Y231469D02*
X264929Y233703D01*
X268119Y231469D02*
X268200Y231409D01*
X268279Y231347D01*
X268356Y231281D01*
X268430Y231213D01*
X268501Y231142D01*
X268569Y231068D01*
X268635Y230991D01*
X268697Y230912D01*
X268757Y230831D01*
X268813Y230747D01*
X268866Y230662D01*
X268915Y230574D01*
X268961Y230485D01*
X269004Y230393D01*
X269043Y230300D01*
X269078Y230206D01*
X269110Y230111D01*
X269138Y230014D01*
X269162Y229916D01*
X269182Y229818D01*
X269199Y229718D01*
X269211Y229618D01*
X269220Y229518D01*
X269225Y229418D01*
X269226Y229317D01*
X269223Y229216D01*
X269216Y229116D01*
X269205Y229016D01*
X269191Y228916D01*
X269172Y228817D01*
X269150Y228719D01*
X269124Y228622D01*
X269094Y228525D01*
X269061Y228431D01*
X269024Y228337D01*
X268983Y228245D01*
X268938Y228154D01*
X268891Y228066D01*
X268839Y227979D01*
X268785Y227895D01*
X268727Y227812D01*
X268666Y227732D01*
X268602Y227654D01*
X268535Y227579D01*
X268466Y227506D01*
X268393Y227437D01*
X268318Y227370D01*
X268240Y227306D01*
X268160Y227245D01*
X268077Y227187D01*
X267993Y227133D01*
X267906Y227081D01*
X267818Y227034D01*
X267727Y226989D01*
X267635Y226948D01*
X267541Y226911D01*
X267447Y226878D01*
X267350Y226848D01*
X267253Y226822D01*
X267155Y226800D01*
X267056Y226781D01*
X266956Y226767D01*
X266856Y226756D01*
X266756Y226749D01*
X266655Y226746D01*
X266554Y226747D01*
X266454Y226752D01*
X266354Y226761D01*
X266254Y226773D01*
X266154Y226790D01*
X266056Y226810D01*
X265958Y226834D01*
X265861Y226862D01*
X265766Y226894D01*
X265672Y226929D01*
X265579Y226968D01*
X265487Y227011D01*
X265398Y227057D01*
X265310Y227106D01*
X265225Y227159D01*
X265141Y227215D01*
X263014Y228705D01*
X273760Y227519D02*
X270249Y215714D01*
X280141Y223052D01*
X276953Y211020D02*
X279612Y209158D01*
X279706Y209095D01*
X279802Y209035D01*
X279900Y208978D01*
X280000Y208925D01*
X280102Y208875D01*
X280206Y208829D01*
X280311Y208787D01*
X280417Y208748D01*
X280525Y208713D01*
X280634Y208682D01*
X280744Y208654D01*
X280855Y208631D01*
X280966Y208611D01*
X281078Y208595D01*
X281191Y208583D01*
X281304Y208575D01*
X281417Y208571D01*
X281531Y208571D01*
X281644Y208575D01*
X281757Y208583D01*
X281870Y208595D01*
X281982Y208611D01*
X282093Y208631D01*
X282204Y208654D01*
X282314Y208682D01*
X282423Y208713D01*
X282531Y208748D01*
X282637Y208787D01*
X282742Y208829D01*
X282846Y208875D01*
X282948Y208925D01*
X283048Y208978D01*
X283146Y209035D01*
X283242Y209095D01*
X283336Y209158D01*
X283427Y209225D01*
X283517Y209294D01*
X283604Y209367D01*
X283688Y209443D01*
X283769Y209522D01*
X283848Y209603D01*
X283924Y209687D01*
X283997Y209774D01*
X284066Y209864D01*
X284133Y209955D01*
X284196Y210049D01*
X284256Y210145D01*
X284313Y210243D01*
X284366Y210343D01*
X284416Y210445D01*
X284462Y210549D01*
X284504Y210654D01*
X284543Y210760D01*
X284578Y210868D01*
X284609Y210977D01*
X284637Y211087D01*
X284660Y211198D01*
X284680Y211309D01*
X284696Y211421D01*
X284708Y211534D01*
X284716Y211647D01*
X284720Y211760D01*
X284720Y211874D01*
X284716Y211987D01*
X284708Y212100D01*
X284696Y212213D01*
X284680Y212325D01*
X284660Y212436D01*
X284637Y212547D01*
X284609Y212657D01*
X284578Y212766D01*
X284543Y212874D01*
X284504Y212980D01*
X284462Y213085D01*
X284416Y213189D01*
X284366Y213291D01*
X284313Y213391D01*
X284256Y213489D01*
X284196Y213585D01*
X284133Y213679D01*
X284066Y213770D01*
X283997Y213860D01*
X283924Y213947D01*
X283848Y214031D01*
X283769Y214112D01*
X283688Y214191D01*
X283604Y214267D01*
X283517Y214340D01*
X283428Y214409D01*
X283336Y214476D01*
X286845Y218357D02*
X283655Y220591D01*
X286845Y218357D02*
X286926Y218297D01*
X287005Y218235D01*
X287082Y218169D01*
X287156Y218101D01*
X287227Y218030D01*
X287295Y217956D01*
X287361Y217879D01*
X287423Y217800D01*
X287483Y217719D01*
X287539Y217635D01*
X287592Y217550D01*
X287641Y217462D01*
X287687Y217373D01*
X287730Y217281D01*
X287769Y217188D01*
X287804Y217094D01*
X287836Y216999D01*
X287864Y216902D01*
X287888Y216804D01*
X287908Y216706D01*
X287925Y216606D01*
X287937Y216506D01*
X287946Y216406D01*
X287951Y216306D01*
X287952Y216205D01*
X287949Y216104D01*
X287942Y216004D01*
X287931Y215904D01*
X287917Y215804D01*
X287898Y215705D01*
X287876Y215607D01*
X287850Y215510D01*
X287820Y215413D01*
X287787Y215319D01*
X287750Y215225D01*
X287709Y215133D01*
X287664Y215042D01*
X287617Y214954D01*
X287565Y214867D01*
X287511Y214783D01*
X287453Y214700D01*
X287392Y214620D01*
X287328Y214542D01*
X287261Y214467D01*
X287192Y214394D01*
X287119Y214325D01*
X287044Y214258D01*
X286966Y214194D01*
X286886Y214133D01*
X286803Y214075D01*
X286719Y214021D01*
X286632Y213969D01*
X286544Y213922D01*
X286453Y213877D01*
X286361Y213836D01*
X286267Y213799D01*
X286173Y213766D01*
X286076Y213736D01*
X285979Y213710D01*
X285881Y213688D01*
X285782Y213669D01*
X285682Y213655D01*
X285582Y213644D01*
X285482Y213637D01*
X285381Y213634D01*
X285280Y213635D01*
X285180Y213640D01*
X285080Y213649D01*
X284980Y213661D01*
X284880Y213678D01*
X284782Y213698D01*
X284684Y213722D01*
X284587Y213750D01*
X284492Y213782D01*
X284398Y213817D01*
X284305Y213856D01*
X284213Y213899D01*
X284124Y213945D01*
X284036Y213994D01*
X283951Y214047D01*
X283867Y214103D01*
X281740Y215593D01*
X206842Y331524D02*
X206842Y334770D01*
X206840Y334883D01*
X206834Y334996D01*
X206824Y335109D01*
X206810Y335222D01*
X206793Y335334D01*
X206771Y335445D01*
X206746Y335555D01*
X206716Y335665D01*
X206683Y335773D01*
X206646Y335880D01*
X206606Y335986D01*
X206561Y336090D01*
X206513Y336193D01*
X206462Y336294D01*
X206407Y336393D01*
X206349Y336490D01*
X206287Y336585D01*
X206222Y336678D01*
X206154Y336768D01*
X206083Y336856D01*
X206008Y336942D01*
X205931Y337025D01*
X205851Y337105D01*
X205768Y337182D01*
X205682Y337257D01*
X205594Y337328D01*
X205504Y337396D01*
X205411Y337461D01*
X205316Y337523D01*
X205219Y337581D01*
X205120Y337636D01*
X205019Y337687D01*
X204916Y337735D01*
X204812Y337780D01*
X204706Y337820D01*
X204599Y337857D01*
X204491Y337890D01*
X204381Y337920D01*
X204271Y337945D01*
X204160Y337967D01*
X204048Y337984D01*
X203935Y337998D01*
X203822Y338008D01*
X203709Y338014D01*
X203596Y338016D01*
X203483Y338014D01*
X203370Y338008D01*
X203257Y337998D01*
X203144Y337984D01*
X203032Y337967D01*
X202921Y337945D01*
X202811Y337920D01*
X202701Y337890D01*
X202593Y337857D01*
X202486Y337820D01*
X202380Y337780D01*
X202276Y337735D01*
X202173Y337687D01*
X202072Y337636D01*
X201973Y337581D01*
X201876Y337523D01*
X201781Y337461D01*
X201688Y337396D01*
X201598Y337328D01*
X201510Y337257D01*
X201424Y337182D01*
X201341Y337105D01*
X201261Y337025D01*
X201184Y336942D01*
X201109Y336856D01*
X201038Y336768D01*
X200970Y336678D01*
X200905Y336585D01*
X200843Y336490D01*
X200785Y336393D01*
X200730Y336294D01*
X200679Y336193D01*
X200631Y336090D01*
X200586Y335986D01*
X200546Y335880D01*
X200509Y335773D01*
X200476Y335665D01*
X200446Y335555D01*
X200421Y335445D01*
X200399Y335334D01*
X200382Y335222D01*
X200368Y335109D01*
X200358Y334996D01*
X200352Y334883D01*
X200350Y334770D01*
X195158Y335419D02*
X195158Y331524D01*
X195158Y335419D02*
X195160Y335520D01*
X195166Y335620D01*
X195176Y335720D01*
X195189Y335820D01*
X195207Y335919D01*
X195228Y336018D01*
X195253Y336115D01*
X195282Y336212D01*
X195315Y336307D01*
X195351Y336401D01*
X195391Y336493D01*
X195434Y336584D01*
X195481Y336673D01*
X195531Y336760D01*
X195585Y336846D01*
X195642Y336929D01*
X195702Y337009D01*
X195765Y337088D01*
X195832Y337164D01*
X195901Y337237D01*
X195973Y337307D01*
X196047Y337375D01*
X196124Y337440D01*
X196204Y337501D01*
X196286Y337560D01*
X196370Y337615D01*
X196456Y337667D01*
X196544Y337716D01*
X196634Y337761D01*
X196726Y337803D01*
X196819Y337841D01*
X196914Y337875D01*
X197009Y337906D01*
X197106Y337933D01*
X197204Y337956D01*
X197303Y337976D01*
X197403Y337991D01*
X197503Y338003D01*
X197603Y338011D01*
X197704Y338015D01*
X197804Y338015D01*
X197905Y338011D01*
X198005Y338003D01*
X198105Y337991D01*
X198205Y337976D01*
X198304Y337956D01*
X198402Y337933D01*
X198499Y337906D01*
X198594Y337875D01*
X198689Y337841D01*
X198782Y337803D01*
X198874Y337761D01*
X198964Y337716D01*
X199052Y337667D01*
X199138Y337615D01*
X199222Y337560D01*
X199304Y337501D01*
X199384Y337440D01*
X199461Y337375D01*
X199535Y337307D01*
X199607Y337237D01*
X199676Y337164D01*
X199743Y337088D01*
X199806Y337009D01*
X199866Y336929D01*
X199923Y336846D01*
X199977Y336760D01*
X200027Y336673D01*
X200074Y336584D01*
X200117Y336493D01*
X200157Y336401D01*
X200193Y336307D01*
X200226Y336212D01*
X200255Y336115D01*
X200280Y336018D01*
X200301Y335919D01*
X200319Y335820D01*
X200332Y335720D01*
X200342Y335620D01*
X200348Y335520D01*
X200350Y335419D01*
X200351Y335419D02*
X200351Y332823D01*
X195158Y342305D02*
X206842Y346200D01*
X195158Y350095D01*
X206842Y354384D02*
X206842Y357630D01*
X206840Y357743D01*
X206834Y357856D01*
X206824Y357969D01*
X206810Y358082D01*
X206793Y358194D01*
X206771Y358305D01*
X206746Y358415D01*
X206716Y358525D01*
X206683Y358633D01*
X206646Y358740D01*
X206606Y358846D01*
X206561Y358950D01*
X206513Y359053D01*
X206462Y359154D01*
X206407Y359253D01*
X206349Y359350D01*
X206287Y359445D01*
X206222Y359538D01*
X206154Y359628D01*
X206083Y359716D01*
X206008Y359802D01*
X205931Y359885D01*
X205851Y359965D01*
X205768Y360042D01*
X205682Y360117D01*
X205594Y360188D01*
X205504Y360256D01*
X205411Y360321D01*
X205316Y360383D01*
X205219Y360441D01*
X205120Y360496D01*
X205019Y360547D01*
X204916Y360595D01*
X204812Y360640D01*
X204706Y360680D01*
X204599Y360717D01*
X204491Y360750D01*
X204381Y360780D01*
X204271Y360805D01*
X204160Y360827D01*
X204048Y360844D01*
X203935Y360858D01*
X203822Y360868D01*
X203709Y360874D01*
X203596Y360876D01*
X203483Y360874D01*
X203370Y360868D01*
X203257Y360858D01*
X203144Y360844D01*
X203032Y360827D01*
X202921Y360805D01*
X202811Y360780D01*
X202701Y360750D01*
X202593Y360717D01*
X202486Y360680D01*
X202380Y360640D01*
X202276Y360595D01*
X202173Y360547D01*
X202072Y360496D01*
X201973Y360441D01*
X201876Y360383D01*
X201781Y360321D01*
X201688Y360256D01*
X201598Y360188D01*
X201510Y360117D01*
X201424Y360042D01*
X201341Y359965D01*
X201261Y359885D01*
X201184Y359802D01*
X201109Y359716D01*
X201038Y359628D01*
X200970Y359538D01*
X200905Y359445D01*
X200843Y359350D01*
X200785Y359253D01*
X200730Y359154D01*
X200679Y359053D01*
X200631Y358950D01*
X200586Y358846D01*
X200546Y358740D01*
X200509Y358633D01*
X200476Y358525D01*
X200446Y358415D01*
X200421Y358305D01*
X200399Y358194D01*
X200382Y358082D01*
X200368Y357969D01*
X200358Y357856D01*
X200352Y357743D01*
X200350Y357630D01*
X195158Y358279D02*
X195158Y354384D01*
X195158Y358279D02*
X195160Y358380D01*
X195166Y358480D01*
X195176Y358580D01*
X195189Y358680D01*
X195207Y358779D01*
X195228Y358878D01*
X195253Y358975D01*
X195282Y359072D01*
X195315Y359167D01*
X195351Y359261D01*
X195391Y359353D01*
X195434Y359444D01*
X195481Y359533D01*
X195531Y359620D01*
X195585Y359706D01*
X195642Y359789D01*
X195702Y359869D01*
X195765Y359948D01*
X195832Y360024D01*
X195901Y360097D01*
X195973Y360167D01*
X196047Y360235D01*
X196124Y360300D01*
X196204Y360361D01*
X196286Y360420D01*
X196370Y360475D01*
X196456Y360527D01*
X196544Y360576D01*
X196634Y360621D01*
X196726Y360663D01*
X196819Y360701D01*
X196914Y360735D01*
X197009Y360766D01*
X197106Y360793D01*
X197204Y360816D01*
X197303Y360836D01*
X197403Y360851D01*
X197503Y360863D01*
X197603Y360871D01*
X197704Y360875D01*
X197804Y360875D01*
X197905Y360871D01*
X198005Y360863D01*
X198105Y360851D01*
X198205Y360836D01*
X198304Y360816D01*
X198402Y360793D01*
X198499Y360766D01*
X198594Y360735D01*
X198689Y360701D01*
X198782Y360663D01*
X198874Y360621D01*
X198964Y360576D01*
X199052Y360527D01*
X199138Y360475D01*
X199222Y360420D01*
X199304Y360361D01*
X199384Y360300D01*
X199461Y360235D01*
X199535Y360167D01*
X199607Y360097D01*
X199676Y360024D01*
X199743Y359948D01*
X199806Y359869D01*
X199866Y359789D01*
X199923Y359706D01*
X199977Y359620D01*
X200027Y359533D01*
X200074Y359444D01*
X200117Y359353D01*
X200157Y359261D01*
X200193Y359167D01*
X200226Y359072D01*
X200255Y358975D01*
X200280Y358878D01*
X200301Y358779D01*
X200319Y358680D01*
X200332Y358580D01*
X200342Y358480D01*
X200348Y358380D01*
X200350Y358279D01*
X200351Y358279D02*
X200351Y355683D01*
X264929Y458697D02*
X267588Y460559D01*
X267588Y460558D02*
X267679Y460625D01*
X267769Y460694D01*
X267856Y460767D01*
X267940Y460843D01*
X268021Y460922D01*
X268100Y461003D01*
X268176Y461087D01*
X268249Y461174D01*
X268318Y461264D01*
X268385Y461355D01*
X268448Y461449D01*
X268508Y461545D01*
X268565Y461643D01*
X268618Y461743D01*
X268668Y461845D01*
X268714Y461949D01*
X268756Y462054D01*
X268795Y462160D01*
X268830Y462268D01*
X268861Y462377D01*
X268889Y462487D01*
X268912Y462598D01*
X268932Y462709D01*
X268948Y462821D01*
X268960Y462934D01*
X268968Y463047D01*
X268972Y463160D01*
X268972Y463274D01*
X268968Y463387D01*
X268960Y463500D01*
X268948Y463613D01*
X268932Y463725D01*
X268912Y463836D01*
X268889Y463947D01*
X268861Y464057D01*
X268830Y464166D01*
X268795Y464274D01*
X268756Y464380D01*
X268714Y464485D01*
X268668Y464589D01*
X268618Y464691D01*
X268565Y464791D01*
X268508Y464889D01*
X268448Y464985D01*
X268385Y465079D01*
X268318Y465170D01*
X268249Y465260D01*
X268176Y465347D01*
X268100Y465431D01*
X268021Y465512D01*
X267940Y465591D01*
X267856Y465667D01*
X267769Y465740D01*
X267680Y465809D01*
X267588Y465876D01*
X267494Y465939D01*
X267398Y465999D01*
X267300Y466056D01*
X267200Y466109D01*
X267098Y466159D01*
X266994Y466205D01*
X266889Y466247D01*
X266783Y466286D01*
X266675Y466321D01*
X266566Y466352D01*
X266456Y466380D01*
X266345Y466403D01*
X266234Y466423D01*
X266122Y466439D01*
X266009Y466451D01*
X265896Y466459D01*
X265783Y466463D01*
X265669Y466463D01*
X265556Y466459D01*
X265443Y466451D01*
X265330Y466439D01*
X265218Y466423D01*
X265107Y466403D01*
X264996Y466380D01*
X264886Y466352D01*
X264777Y466321D01*
X264669Y466286D01*
X264563Y466247D01*
X264458Y466205D01*
X264354Y466159D01*
X264252Y466109D01*
X264152Y466056D01*
X264054Y465999D01*
X263958Y465939D01*
X263864Y465876D01*
X261418Y470502D02*
X258228Y468268D01*
X261418Y470502D02*
X261502Y470558D01*
X261587Y470611D01*
X261675Y470660D01*
X261764Y470706D01*
X261856Y470749D01*
X261949Y470788D01*
X262043Y470823D01*
X262138Y470855D01*
X262235Y470883D01*
X262333Y470907D01*
X262431Y470927D01*
X262531Y470944D01*
X262631Y470956D01*
X262731Y470965D01*
X262832Y470970D01*
X262932Y470971D01*
X263033Y470968D01*
X263133Y470961D01*
X263233Y470950D01*
X263333Y470936D01*
X263432Y470917D01*
X263530Y470895D01*
X263627Y470869D01*
X263724Y470839D01*
X263819Y470806D01*
X263912Y470769D01*
X264004Y470728D01*
X264095Y470683D01*
X264183Y470636D01*
X264270Y470584D01*
X264354Y470530D01*
X264437Y470472D01*
X264517Y470411D01*
X264595Y470347D01*
X264670Y470280D01*
X264743Y470211D01*
X264812Y470138D01*
X264879Y470063D01*
X264943Y469985D01*
X265004Y469905D01*
X265062Y469822D01*
X265116Y469738D01*
X265168Y469651D01*
X265215Y469563D01*
X265260Y469472D01*
X265301Y469380D01*
X265338Y469286D01*
X265371Y469192D01*
X265401Y469095D01*
X265427Y468998D01*
X265449Y468900D01*
X265468Y468801D01*
X265482Y468701D01*
X265493Y468601D01*
X265500Y468501D01*
X265503Y468400D01*
X265502Y468300D01*
X265497Y468199D01*
X265488Y468099D01*
X265476Y467999D01*
X265459Y467899D01*
X265439Y467801D01*
X265415Y467703D01*
X265387Y467606D01*
X265355Y467511D01*
X265320Y467417D01*
X265281Y467324D01*
X265238Y467232D01*
X265192Y467143D01*
X265143Y467055D01*
X265090Y466970D01*
X265034Y466886D01*
X264974Y466805D01*
X264912Y466726D01*
X264846Y466649D01*
X264778Y466575D01*
X264707Y466504D01*
X264633Y466436D01*
X264556Y466370D01*
X264477Y466308D01*
X264396Y466248D01*
X262270Y464759D01*
X267059Y474452D02*
X276951Y467114D01*
X273439Y478919D01*
X283655Y471809D02*
X286314Y473670D01*
X286405Y473737D01*
X286495Y473806D01*
X286582Y473879D01*
X286666Y473955D01*
X286747Y474034D01*
X286826Y474115D01*
X286902Y474199D01*
X286975Y474286D01*
X287044Y474376D01*
X287111Y474467D01*
X287174Y474561D01*
X287234Y474657D01*
X287291Y474755D01*
X287344Y474855D01*
X287394Y474957D01*
X287440Y475061D01*
X287482Y475166D01*
X287521Y475272D01*
X287556Y475380D01*
X287587Y475489D01*
X287615Y475599D01*
X287638Y475710D01*
X287658Y475821D01*
X287674Y475933D01*
X287686Y476046D01*
X287694Y476159D01*
X287698Y476272D01*
X287698Y476386D01*
X287694Y476499D01*
X287686Y476612D01*
X287674Y476725D01*
X287658Y476837D01*
X287638Y476948D01*
X287615Y477059D01*
X287587Y477169D01*
X287556Y477278D01*
X287521Y477386D01*
X287482Y477492D01*
X287440Y477597D01*
X287394Y477701D01*
X287344Y477803D01*
X287291Y477903D01*
X287234Y478001D01*
X287174Y478097D01*
X287111Y478191D01*
X287044Y478282D01*
X286975Y478372D01*
X286902Y478459D01*
X286826Y478543D01*
X286747Y478624D01*
X286666Y478703D01*
X286582Y478779D01*
X286495Y478852D01*
X286406Y478921D01*
X286314Y478988D01*
X286220Y479051D01*
X286124Y479111D01*
X286026Y479168D01*
X285926Y479221D01*
X285824Y479271D01*
X285720Y479317D01*
X285615Y479359D01*
X285509Y479398D01*
X285401Y479433D01*
X285292Y479464D01*
X285182Y479492D01*
X285071Y479515D01*
X284960Y479535D01*
X284848Y479551D01*
X284735Y479563D01*
X284622Y479571D01*
X284509Y479575D01*
X284395Y479575D01*
X284282Y479571D01*
X284169Y479563D01*
X284056Y479551D01*
X283944Y479535D01*
X283833Y479515D01*
X283722Y479492D01*
X283612Y479464D01*
X283503Y479433D01*
X283395Y479398D01*
X283289Y479359D01*
X283184Y479317D01*
X283080Y479271D01*
X282978Y479221D01*
X282878Y479168D01*
X282780Y479111D01*
X282684Y479051D01*
X282590Y478988D01*
X280144Y483614D02*
X276953Y481380D01*
X280144Y483614D02*
X280228Y483670D01*
X280313Y483723D01*
X280401Y483772D01*
X280490Y483818D01*
X280582Y483861D01*
X280675Y483900D01*
X280769Y483935D01*
X280864Y483967D01*
X280961Y483995D01*
X281059Y484019D01*
X281157Y484039D01*
X281257Y484056D01*
X281357Y484068D01*
X281457Y484077D01*
X281558Y484082D01*
X281658Y484083D01*
X281759Y484080D01*
X281859Y484073D01*
X281959Y484062D01*
X282059Y484048D01*
X282158Y484029D01*
X282256Y484007D01*
X282353Y483981D01*
X282450Y483951D01*
X282545Y483918D01*
X282638Y483881D01*
X282730Y483840D01*
X282821Y483795D01*
X282909Y483748D01*
X282996Y483696D01*
X283080Y483642D01*
X283163Y483584D01*
X283243Y483523D01*
X283321Y483459D01*
X283396Y483392D01*
X283469Y483323D01*
X283538Y483250D01*
X283605Y483175D01*
X283669Y483097D01*
X283730Y483017D01*
X283788Y482934D01*
X283842Y482850D01*
X283894Y482763D01*
X283941Y482675D01*
X283986Y482584D01*
X284027Y482492D01*
X284064Y482398D01*
X284097Y482304D01*
X284127Y482207D01*
X284153Y482110D01*
X284175Y482012D01*
X284194Y481913D01*
X284208Y481813D01*
X284219Y481713D01*
X284226Y481613D01*
X284229Y481512D01*
X284228Y481412D01*
X284223Y481311D01*
X284214Y481211D01*
X284202Y481111D01*
X284185Y481011D01*
X284165Y480913D01*
X284141Y480815D01*
X284113Y480718D01*
X284081Y480623D01*
X284046Y480529D01*
X284007Y480436D01*
X283964Y480344D01*
X283918Y480255D01*
X283869Y480167D01*
X283816Y480082D01*
X283760Y479998D01*
X283700Y479917D01*
X283638Y479838D01*
X283572Y479761D01*
X283504Y479687D01*
X283433Y479616D01*
X283359Y479548D01*
X283282Y479482D01*
X283203Y479420D01*
X283122Y479360D01*
X280995Y477871D01*
D11*
X429378Y430686D02*
X429378Y412906D01*
X429378Y430686D02*
X434317Y430686D01*
X434457Y430684D01*
X434596Y430678D01*
X434736Y430668D01*
X434875Y430654D01*
X435014Y430637D01*
X435152Y430615D01*
X435289Y430589D01*
X435426Y430560D01*
X435562Y430527D01*
X435696Y430490D01*
X435830Y430449D01*
X435962Y430404D01*
X436094Y430355D01*
X436223Y430303D01*
X436351Y430248D01*
X436478Y430188D01*
X436603Y430125D01*
X436726Y430059D01*
X436847Y429989D01*
X436966Y429916D01*
X437083Y429839D01*
X437197Y429759D01*
X437310Y429676D01*
X437420Y429590D01*
X437527Y429500D01*
X437632Y429408D01*
X437734Y429313D01*
X437834Y429215D01*
X437931Y429114D01*
X438025Y429010D01*
X438115Y428904D01*
X438203Y428795D01*
X438288Y428684D01*
X438369Y428570D01*
X438448Y428455D01*
X438523Y428337D01*
X438594Y428217D01*
X438662Y428094D01*
X438727Y427971D01*
X438788Y427845D01*
X438846Y427717D01*
X438900Y427589D01*
X438950Y427458D01*
X438997Y427326D01*
X439040Y427193D01*
X439079Y427059D01*
X439114Y426924D01*
X439145Y426788D01*
X439173Y426650D01*
X439196Y426513D01*
X439216Y426374D01*
X439232Y426235D01*
X439244Y426096D01*
X439252Y425957D01*
X439256Y425817D01*
X439256Y425677D01*
X439252Y425537D01*
X439244Y425398D01*
X439232Y425259D01*
X439216Y425120D01*
X439196Y424981D01*
X439173Y424844D01*
X439145Y424706D01*
X439114Y424570D01*
X439079Y424435D01*
X439040Y424301D01*
X438997Y424168D01*
X438950Y424036D01*
X438900Y423905D01*
X438846Y423777D01*
X438788Y423649D01*
X438727Y423523D01*
X438662Y423400D01*
X438594Y423278D01*
X438523Y423157D01*
X438448Y423039D01*
X438369Y422924D01*
X438288Y422810D01*
X438203Y422699D01*
X438115Y422590D01*
X438025Y422484D01*
X437931Y422380D01*
X437834Y422279D01*
X437734Y422181D01*
X437632Y422086D01*
X437527Y421994D01*
X437420Y421904D01*
X437310Y421818D01*
X437197Y421735D01*
X437083Y421655D01*
X436966Y421578D01*
X436847Y421505D01*
X436726Y421435D01*
X436603Y421369D01*
X436478Y421306D01*
X436351Y421246D01*
X436223Y421191D01*
X436094Y421139D01*
X435962Y421090D01*
X435830Y421045D01*
X435696Y421004D01*
X435562Y420967D01*
X435426Y420934D01*
X435289Y420905D01*
X435152Y420879D01*
X435014Y420857D01*
X434875Y420840D01*
X434736Y420826D01*
X434596Y420816D01*
X434457Y420810D01*
X434317Y420808D01*
X429378Y420808D01*
X445373Y426735D02*
X450312Y430686D01*
X450312Y412906D01*
X455250Y412906D02*
X445373Y412906D01*
X430394Y283050D02*
X430394Y265270D01*
X430394Y283050D02*
X435333Y283050D01*
X435473Y283048D01*
X435612Y283042D01*
X435752Y283032D01*
X435891Y283018D01*
X436030Y283001D01*
X436168Y282979D01*
X436305Y282953D01*
X436442Y282924D01*
X436578Y282891D01*
X436712Y282854D01*
X436846Y282813D01*
X436978Y282768D01*
X437110Y282719D01*
X437239Y282667D01*
X437367Y282612D01*
X437494Y282552D01*
X437619Y282489D01*
X437742Y282423D01*
X437863Y282353D01*
X437982Y282280D01*
X438099Y282203D01*
X438213Y282123D01*
X438326Y282040D01*
X438436Y281954D01*
X438543Y281864D01*
X438648Y281772D01*
X438750Y281677D01*
X438850Y281579D01*
X438947Y281478D01*
X439041Y281374D01*
X439131Y281268D01*
X439219Y281159D01*
X439304Y281048D01*
X439385Y280934D01*
X439464Y280819D01*
X439539Y280701D01*
X439610Y280581D01*
X439678Y280458D01*
X439743Y280335D01*
X439804Y280209D01*
X439862Y280081D01*
X439916Y279953D01*
X439966Y279822D01*
X440013Y279690D01*
X440056Y279557D01*
X440095Y279423D01*
X440130Y279288D01*
X440161Y279152D01*
X440189Y279014D01*
X440212Y278877D01*
X440232Y278738D01*
X440248Y278599D01*
X440260Y278460D01*
X440268Y278321D01*
X440272Y278181D01*
X440272Y278041D01*
X440268Y277901D01*
X440260Y277762D01*
X440248Y277623D01*
X440232Y277484D01*
X440212Y277345D01*
X440189Y277208D01*
X440161Y277070D01*
X440130Y276934D01*
X440095Y276799D01*
X440056Y276665D01*
X440013Y276532D01*
X439966Y276400D01*
X439916Y276269D01*
X439862Y276141D01*
X439804Y276013D01*
X439743Y275887D01*
X439678Y275764D01*
X439610Y275642D01*
X439539Y275521D01*
X439464Y275403D01*
X439385Y275288D01*
X439304Y275174D01*
X439219Y275063D01*
X439131Y274954D01*
X439041Y274848D01*
X438947Y274744D01*
X438850Y274643D01*
X438750Y274545D01*
X438648Y274450D01*
X438543Y274358D01*
X438436Y274268D01*
X438326Y274182D01*
X438213Y274099D01*
X438099Y274019D01*
X437982Y273942D01*
X437863Y273869D01*
X437742Y273799D01*
X437619Y273733D01*
X437494Y273670D01*
X437367Y273610D01*
X437239Y273555D01*
X437110Y273503D01*
X436978Y273454D01*
X436846Y273409D01*
X436712Y273368D01*
X436578Y273331D01*
X436442Y273298D01*
X436305Y273269D01*
X436168Y273243D01*
X436030Y273221D01*
X435891Y273204D01*
X435752Y273190D01*
X435612Y273180D01*
X435473Y273174D01*
X435333Y273172D01*
X430394Y273172D01*
X451821Y283050D02*
X451953Y283048D01*
X452084Y283042D01*
X452216Y283032D01*
X452347Y283019D01*
X452477Y283001D01*
X452607Y282980D01*
X452737Y282955D01*
X452865Y282926D01*
X452993Y282893D01*
X453119Y282856D01*
X453245Y282816D01*
X453369Y282772D01*
X453492Y282724D01*
X453613Y282673D01*
X453733Y282618D01*
X453851Y282560D01*
X453967Y282498D01*
X454081Y282432D01*
X454194Y282364D01*
X454304Y282292D01*
X454412Y282217D01*
X454518Y282138D01*
X454622Y282057D01*
X454723Y281972D01*
X454821Y281885D01*
X454917Y281794D01*
X455010Y281701D01*
X455101Y281605D01*
X455188Y281507D01*
X455273Y281406D01*
X455354Y281302D01*
X455433Y281196D01*
X455508Y281088D01*
X455580Y280978D01*
X455648Y280865D01*
X455714Y280751D01*
X455776Y280635D01*
X455834Y280517D01*
X455889Y280397D01*
X455940Y280276D01*
X455988Y280153D01*
X456032Y280029D01*
X456072Y279903D01*
X456109Y279777D01*
X456142Y279649D01*
X456171Y279521D01*
X456196Y279391D01*
X456217Y279261D01*
X456235Y279131D01*
X456248Y279000D01*
X456258Y278868D01*
X456264Y278737D01*
X456266Y278605D01*
X451821Y283050D02*
X451671Y283048D01*
X451522Y283042D01*
X451373Y283032D01*
X451224Y283019D01*
X451075Y283001D01*
X450927Y282980D01*
X450779Y282954D01*
X450633Y282925D01*
X450487Y282892D01*
X450342Y282855D01*
X450198Y282814D01*
X450055Y282770D01*
X449913Y282722D01*
X449773Y282670D01*
X449634Y282615D01*
X449496Y282556D01*
X449361Y282493D01*
X449226Y282427D01*
X449094Y282357D01*
X448964Y282284D01*
X448835Y282207D01*
X448708Y282127D01*
X448584Y282044D01*
X448462Y281958D01*
X448342Y281868D01*
X448225Y281775D01*
X448110Y281680D01*
X447997Y281581D01*
X447887Y281479D01*
X447780Y281375D01*
X447676Y281268D01*
X447574Y281158D01*
X447476Y281045D01*
X447380Y280930D01*
X447288Y280812D01*
X447198Y280692D01*
X447112Y280570D01*
X447029Y280446D01*
X446949Y280319D01*
X446873Y280191D01*
X446800Y280060D01*
X446730Y279927D01*
X446664Y279793D01*
X446602Y279657D01*
X446543Y279520D01*
X446487Y279381D01*
X446436Y279240D01*
X446388Y279099D01*
X454784Y275148D02*
X454880Y275241D01*
X454972Y275337D01*
X455062Y275436D01*
X455149Y275537D01*
X455234Y275640D01*
X455315Y275745D01*
X455393Y275853D01*
X455468Y275963D01*
X455541Y276075D01*
X455610Y276189D01*
X455676Y276305D01*
X455738Y276423D01*
X455797Y276542D01*
X455853Y276663D01*
X455906Y276786D01*
X455955Y276910D01*
X456000Y277035D01*
X456043Y277162D01*
X456081Y277289D01*
X456116Y277418D01*
X456147Y277547D01*
X456175Y277678D01*
X456199Y277809D01*
X456220Y277941D01*
X456236Y278073D01*
X456249Y278206D01*
X456259Y278339D01*
X456264Y278472D01*
X456266Y278605D01*
X454785Y275148D02*
X446389Y265270D01*
X456266Y265270D01*
X322342Y233490D02*
X322342Y215710D01*
X322342Y233490D02*
X327281Y233490D01*
X327421Y233488D01*
X327560Y233482D01*
X327700Y233472D01*
X327839Y233458D01*
X327978Y233441D01*
X328116Y233419D01*
X328253Y233393D01*
X328390Y233364D01*
X328526Y233331D01*
X328660Y233294D01*
X328794Y233253D01*
X328926Y233208D01*
X329058Y233159D01*
X329187Y233107D01*
X329315Y233052D01*
X329442Y232992D01*
X329567Y232929D01*
X329690Y232863D01*
X329811Y232793D01*
X329930Y232720D01*
X330047Y232643D01*
X330161Y232563D01*
X330274Y232480D01*
X330384Y232394D01*
X330491Y232304D01*
X330596Y232212D01*
X330698Y232117D01*
X330798Y232019D01*
X330895Y231918D01*
X330989Y231814D01*
X331079Y231708D01*
X331167Y231599D01*
X331252Y231488D01*
X331333Y231374D01*
X331412Y231259D01*
X331487Y231141D01*
X331558Y231021D01*
X331626Y230898D01*
X331691Y230775D01*
X331752Y230649D01*
X331810Y230521D01*
X331864Y230393D01*
X331914Y230262D01*
X331961Y230130D01*
X332004Y229997D01*
X332043Y229863D01*
X332078Y229728D01*
X332109Y229592D01*
X332137Y229454D01*
X332160Y229317D01*
X332180Y229178D01*
X332196Y229039D01*
X332208Y228900D01*
X332216Y228761D01*
X332220Y228621D01*
X332220Y228481D01*
X332216Y228341D01*
X332208Y228202D01*
X332196Y228063D01*
X332180Y227924D01*
X332160Y227785D01*
X332137Y227648D01*
X332109Y227510D01*
X332078Y227374D01*
X332043Y227239D01*
X332004Y227105D01*
X331961Y226972D01*
X331914Y226840D01*
X331864Y226709D01*
X331810Y226581D01*
X331752Y226453D01*
X331691Y226327D01*
X331626Y226204D01*
X331558Y226082D01*
X331487Y225961D01*
X331412Y225843D01*
X331333Y225728D01*
X331252Y225614D01*
X331167Y225503D01*
X331079Y225394D01*
X330989Y225288D01*
X330895Y225184D01*
X330798Y225083D01*
X330698Y224985D01*
X330596Y224890D01*
X330491Y224798D01*
X330384Y224708D01*
X330274Y224622D01*
X330161Y224539D01*
X330047Y224459D01*
X329930Y224382D01*
X329811Y224309D01*
X329690Y224239D01*
X329567Y224173D01*
X329442Y224110D01*
X329315Y224050D01*
X329187Y223995D01*
X329058Y223943D01*
X328926Y223894D01*
X328794Y223849D01*
X328660Y223808D01*
X328526Y223771D01*
X328390Y223738D01*
X328253Y223709D01*
X328116Y223683D01*
X327978Y223661D01*
X327839Y223644D01*
X327700Y223630D01*
X327560Y223620D01*
X327421Y223614D01*
X327281Y223612D01*
X322342Y223612D01*
X338337Y215710D02*
X343276Y215710D01*
X343416Y215712D01*
X343555Y215718D01*
X343695Y215728D01*
X343834Y215742D01*
X343973Y215759D01*
X344111Y215781D01*
X344248Y215807D01*
X344385Y215836D01*
X344521Y215869D01*
X344655Y215906D01*
X344789Y215947D01*
X344921Y215992D01*
X345053Y216041D01*
X345182Y216093D01*
X345310Y216148D01*
X345437Y216208D01*
X345562Y216271D01*
X345685Y216337D01*
X345806Y216407D01*
X345925Y216480D01*
X346042Y216557D01*
X346156Y216637D01*
X346269Y216720D01*
X346379Y216806D01*
X346486Y216896D01*
X346591Y216988D01*
X346693Y217083D01*
X346793Y217181D01*
X346890Y217282D01*
X346984Y217386D01*
X347074Y217492D01*
X347162Y217601D01*
X347247Y217712D01*
X347328Y217826D01*
X347407Y217941D01*
X347482Y218059D01*
X347553Y218180D01*
X347621Y218302D01*
X347686Y218425D01*
X347747Y218551D01*
X347805Y218679D01*
X347859Y218807D01*
X347909Y218938D01*
X347956Y219070D01*
X347999Y219203D01*
X348038Y219337D01*
X348073Y219472D01*
X348104Y219608D01*
X348132Y219746D01*
X348155Y219883D01*
X348175Y220022D01*
X348191Y220161D01*
X348203Y220300D01*
X348211Y220439D01*
X348215Y220579D01*
X348215Y220719D01*
X348211Y220859D01*
X348203Y220998D01*
X348191Y221137D01*
X348175Y221276D01*
X348155Y221415D01*
X348132Y221552D01*
X348104Y221690D01*
X348073Y221826D01*
X348038Y221961D01*
X347999Y222095D01*
X347956Y222228D01*
X347909Y222360D01*
X347859Y222491D01*
X347805Y222619D01*
X347747Y222747D01*
X347686Y222873D01*
X347621Y222996D01*
X347553Y223119D01*
X347482Y223239D01*
X347407Y223357D01*
X347328Y223472D01*
X347247Y223586D01*
X347162Y223697D01*
X347074Y223806D01*
X346984Y223912D01*
X346890Y224016D01*
X346793Y224117D01*
X346693Y224215D01*
X346591Y224310D01*
X346486Y224402D01*
X346379Y224492D01*
X346269Y224578D01*
X346156Y224661D01*
X346042Y224741D01*
X345925Y224818D01*
X345806Y224891D01*
X345685Y224961D01*
X345562Y225027D01*
X345437Y225090D01*
X345310Y225150D01*
X345182Y225205D01*
X345053Y225257D01*
X344921Y225306D01*
X344789Y225351D01*
X344655Y225392D01*
X344521Y225429D01*
X344385Y225462D01*
X344248Y225491D01*
X344111Y225517D01*
X343973Y225539D01*
X343834Y225556D01*
X343695Y225570D01*
X343555Y225580D01*
X343416Y225586D01*
X343276Y225588D01*
X344263Y233490D02*
X338337Y233490D01*
X344263Y233490D02*
X344387Y233488D01*
X344511Y233482D01*
X344635Y233472D01*
X344758Y233459D01*
X344881Y233441D01*
X345003Y233420D01*
X345125Y233395D01*
X345246Y233366D01*
X345365Y233333D01*
X345484Y233297D01*
X345601Y233256D01*
X345717Y233213D01*
X345832Y233165D01*
X345945Y233114D01*
X346057Y233059D01*
X346166Y233001D01*
X346274Y232940D01*
X346380Y232875D01*
X346484Y232807D01*
X346585Y232735D01*
X346685Y232661D01*
X346781Y232583D01*
X346876Y232503D01*
X346968Y232419D01*
X347057Y232333D01*
X347143Y232244D01*
X347227Y232152D01*
X347307Y232057D01*
X347385Y231961D01*
X347459Y231861D01*
X347531Y231760D01*
X347599Y231656D01*
X347664Y231550D01*
X347725Y231442D01*
X347783Y231333D01*
X347838Y231221D01*
X347889Y231108D01*
X347937Y230993D01*
X347980Y230877D01*
X348021Y230760D01*
X348057Y230641D01*
X348090Y230522D01*
X348119Y230401D01*
X348144Y230279D01*
X348165Y230157D01*
X348183Y230034D01*
X348196Y229911D01*
X348206Y229787D01*
X348212Y229663D01*
X348214Y229539D01*
X348212Y229415D01*
X348206Y229291D01*
X348196Y229167D01*
X348183Y229044D01*
X348165Y228921D01*
X348144Y228799D01*
X348119Y228677D01*
X348090Y228556D01*
X348057Y228437D01*
X348021Y228318D01*
X347980Y228201D01*
X347937Y228085D01*
X347889Y227970D01*
X347838Y227857D01*
X347783Y227745D01*
X347725Y227636D01*
X347664Y227528D01*
X347599Y227422D01*
X347531Y227318D01*
X347459Y227217D01*
X347385Y227117D01*
X347307Y227021D01*
X347227Y226926D01*
X347143Y226834D01*
X347057Y226745D01*
X346968Y226659D01*
X346876Y226575D01*
X346781Y226495D01*
X346685Y226417D01*
X346585Y226343D01*
X346484Y226271D01*
X346380Y226203D01*
X346274Y226138D01*
X346166Y226077D01*
X346057Y226019D01*
X345945Y225964D01*
X345832Y225913D01*
X345717Y225865D01*
X345601Y225822D01*
X345484Y225781D01*
X345365Y225745D01*
X345246Y225712D01*
X345125Y225683D01*
X345003Y225658D01*
X344881Y225637D01*
X344758Y225619D01*
X344635Y225606D01*
X344511Y225596D01*
X344387Y225590D01*
X344263Y225588D01*
X340312Y225588D01*
X236388Y254348D02*
X236388Y272128D01*
X241327Y272128D01*
X241467Y272126D01*
X241606Y272120D01*
X241746Y272110D01*
X241885Y272096D01*
X242024Y272079D01*
X242162Y272057D01*
X242299Y272031D01*
X242436Y272002D01*
X242572Y271969D01*
X242706Y271932D01*
X242840Y271891D01*
X242972Y271846D01*
X243104Y271797D01*
X243233Y271745D01*
X243361Y271690D01*
X243488Y271630D01*
X243613Y271567D01*
X243736Y271501D01*
X243857Y271431D01*
X243976Y271358D01*
X244093Y271281D01*
X244207Y271201D01*
X244320Y271118D01*
X244430Y271032D01*
X244537Y270942D01*
X244642Y270850D01*
X244744Y270755D01*
X244844Y270657D01*
X244941Y270556D01*
X245035Y270452D01*
X245125Y270346D01*
X245213Y270237D01*
X245298Y270126D01*
X245379Y270012D01*
X245458Y269897D01*
X245533Y269779D01*
X245604Y269659D01*
X245672Y269536D01*
X245737Y269413D01*
X245798Y269287D01*
X245856Y269159D01*
X245910Y269031D01*
X245960Y268900D01*
X246007Y268768D01*
X246050Y268635D01*
X246089Y268501D01*
X246124Y268366D01*
X246155Y268230D01*
X246183Y268092D01*
X246206Y267955D01*
X246226Y267816D01*
X246242Y267677D01*
X246254Y267538D01*
X246262Y267399D01*
X246266Y267259D01*
X246266Y267119D01*
X246262Y266979D01*
X246254Y266840D01*
X246242Y266701D01*
X246226Y266562D01*
X246206Y266423D01*
X246183Y266286D01*
X246155Y266148D01*
X246124Y266012D01*
X246089Y265877D01*
X246050Y265743D01*
X246007Y265610D01*
X245960Y265478D01*
X245910Y265347D01*
X245856Y265219D01*
X245798Y265091D01*
X245737Y264965D01*
X245672Y264842D01*
X245604Y264720D01*
X245533Y264599D01*
X245458Y264481D01*
X245379Y264366D01*
X245298Y264252D01*
X245213Y264141D01*
X245125Y264032D01*
X245035Y263926D01*
X244941Y263822D01*
X244844Y263721D01*
X244744Y263623D01*
X244642Y263528D01*
X244537Y263436D01*
X244430Y263346D01*
X244320Y263260D01*
X244207Y263177D01*
X244093Y263097D01*
X243976Y263020D01*
X243857Y262947D01*
X243736Y262877D01*
X243613Y262811D01*
X243488Y262748D01*
X243361Y262688D01*
X243233Y262633D01*
X243104Y262581D01*
X242972Y262532D01*
X242840Y262487D01*
X242706Y262446D01*
X242572Y262409D01*
X242436Y262376D01*
X242299Y262347D01*
X242162Y262321D01*
X242024Y262299D01*
X241885Y262282D01*
X241746Y262268D01*
X241606Y262258D01*
X241467Y262252D01*
X241327Y262250D01*
X236388Y262250D01*
X252383Y258299D02*
X256334Y272128D01*
X252383Y258299D02*
X262260Y258299D01*
X259297Y262250D02*
X259297Y254348D01*
X234864Y394110D02*
X234864Y411890D01*
X239803Y411890D01*
X239943Y411888D01*
X240082Y411882D01*
X240222Y411872D01*
X240361Y411858D01*
X240500Y411841D01*
X240638Y411819D01*
X240775Y411793D01*
X240912Y411764D01*
X241048Y411731D01*
X241182Y411694D01*
X241316Y411653D01*
X241448Y411608D01*
X241580Y411559D01*
X241709Y411507D01*
X241837Y411452D01*
X241964Y411392D01*
X242089Y411329D01*
X242212Y411263D01*
X242333Y411193D01*
X242452Y411120D01*
X242569Y411043D01*
X242683Y410963D01*
X242796Y410880D01*
X242906Y410794D01*
X243013Y410704D01*
X243118Y410612D01*
X243220Y410517D01*
X243320Y410419D01*
X243417Y410318D01*
X243511Y410214D01*
X243601Y410108D01*
X243689Y409999D01*
X243774Y409888D01*
X243855Y409774D01*
X243934Y409659D01*
X244009Y409541D01*
X244080Y409421D01*
X244148Y409298D01*
X244213Y409175D01*
X244274Y409049D01*
X244332Y408921D01*
X244386Y408793D01*
X244436Y408662D01*
X244483Y408530D01*
X244526Y408397D01*
X244565Y408263D01*
X244600Y408128D01*
X244631Y407992D01*
X244659Y407854D01*
X244682Y407717D01*
X244702Y407578D01*
X244718Y407439D01*
X244730Y407300D01*
X244738Y407161D01*
X244742Y407021D01*
X244742Y406881D01*
X244738Y406741D01*
X244730Y406602D01*
X244718Y406463D01*
X244702Y406324D01*
X244682Y406185D01*
X244659Y406048D01*
X244631Y405910D01*
X244600Y405774D01*
X244565Y405639D01*
X244526Y405505D01*
X244483Y405372D01*
X244436Y405240D01*
X244386Y405109D01*
X244332Y404981D01*
X244274Y404853D01*
X244213Y404727D01*
X244148Y404604D01*
X244080Y404482D01*
X244009Y404361D01*
X243934Y404243D01*
X243855Y404128D01*
X243774Y404014D01*
X243689Y403903D01*
X243601Y403794D01*
X243511Y403688D01*
X243417Y403584D01*
X243320Y403483D01*
X243220Y403385D01*
X243118Y403290D01*
X243013Y403198D01*
X242906Y403108D01*
X242796Y403022D01*
X242683Y402939D01*
X242569Y402859D01*
X242452Y402782D01*
X242333Y402709D01*
X242212Y402639D01*
X242089Y402573D01*
X241964Y402510D01*
X241837Y402450D01*
X241709Y402395D01*
X241580Y402343D01*
X241448Y402294D01*
X241316Y402249D01*
X241182Y402208D01*
X241048Y402171D01*
X240912Y402138D01*
X240775Y402109D01*
X240638Y402083D01*
X240500Y402061D01*
X240361Y402044D01*
X240222Y402030D01*
X240082Y402020D01*
X239943Y402014D01*
X239803Y402012D01*
X234864Y402012D01*
X250859Y394110D02*
X256785Y394110D01*
X256909Y394112D01*
X257033Y394118D01*
X257157Y394128D01*
X257280Y394141D01*
X257403Y394159D01*
X257525Y394180D01*
X257647Y394205D01*
X257768Y394234D01*
X257887Y394267D01*
X258006Y394303D01*
X258123Y394344D01*
X258239Y394387D01*
X258354Y394435D01*
X258467Y394486D01*
X258579Y394541D01*
X258688Y394599D01*
X258796Y394660D01*
X258902Y394725D01*
X259006Y394793D01*
X259107Y394865D01*
X259207Y394939D01*
X259303Y395017D01*
X259398Y395097D01*
X259490Y395181D01*
X259579Y395267D01*
X259665Y395356D01*
X259749Y395448D01*
X259829Y395543D01*
X259907Y395639D01*
X259981Y395739D01*
X260053Y395840D01*
X260121Y395944D01*
X260186Y396050D01*
X260247Y396158D01*
X260305Y396267D01*
X260360Y396379D01*
X260411Y396492D01*
X260459Y396607D01*
X260502Y396723D01*
X260543Y396840D01*
X260579Y396959D01*
X260612Y397078D01*
X260641Y397199D01*
X260666Y397321D01*
X260687Y397443D01*
X260705Y397566D01*
X260718Y397689D01*
X260728Y397813D01*
X260734Y397937D01*
X260736Y398061D01*
X260736Y400037D01*
X260734Y400161D01*
X260728Y400285D01*
X260718Y400409D01*
X260705Y400532D01*
X260687Y400655D01*
X260666Y400777D01*
X260641Y400899D01*
X260612Y401020D01*
X260579Y401139D01*
X260543Y401258D01*
X260502Y401375D01*
X260459Y401491D01*
X260411Y401606D01*
X260360Y401719D01*
X260305Y401831D01*
X260247Y401940D01*
X260186Y402048D01*
X260121Y402154D01*
X260053Y402258D01*
X259981Y402359D01*
X259907Y402459D01*
X259829Y402555D01*
X259749Y402650D01*
X259665Y402742D01*
X259579Y402831D01*
X259490Y402917D01*
X259398Y403001D01*
X259303Y403081D01*
X259207Y403159D01*
X259107Y403233D01*
X259006Y403305D01*
X258902Y403373D01*
X258796Y403438D01*
X258688Y403499D01*
X258579Y403557D01*
X258467Y403612D01*
X258354Y403663D01*
X258239Y403711D01*
X258123Y403754D01*
X258006Y403795D01*
X257887Y403831D01*
X257768Y403864D01*
X257647Y403893D01*
X257525Y403918D01*
X257403Y403939D01*
X257280Y403957D01*
X257157Y403970D01*
X257033Y403980D01*
X256909Y403986D01*
X256785Y403988D01*
X250859Y403988D01*
X250859Y411890D01*
X260736Y411890D01*
X341646Y458656D02*
X341646Y476436D01*
X346585Y476436D01*
X346725Y476434D01*
X346864Y476428D01*
X347004Y476418D01*
X347143Y476404D01*
X347282Y476387D01*
X347420Y476365D01*
X347557Y476339D01*
X347694Y476310D01*
X347830Y476277D01*
X347964Y476240D01*
X348098Y476199D01*
X348230Y476154D01*
X348362Y476105D01*
X348491Y476053D01*
X348619Y475998D01*
X348746Y475938D01*
X348871Y475875D01*
X348994Y475809D01*
X349115Y475739D01*
X349234Y475666D01*
X349351Y475589D01*
X349465Y475509D01*
X349578Y475426D01*
X349688Y475340D01*
X349795Y475250D01*
X349900Y475158D01*
X350002Y475063D01*
X350102Y474965D01*
X350199Y474864D01*
X350293Y474760D01*
X350383Y474654D01*
X350471Y474545D01*
X350556Y474434D01*
X350637Y474320D01*
X350716Y474205D01*
X350791Y474087D01*
X350862Y473967D01*
X350930Y473844D01*
X350995Y473721D01*
X351056Y473595D01*
X351114Y473467D01*
X351168Y473339D01*
X351218Y473208D01*
X351265Y473076D01*
X351308Y472943D01*
X351347Y472809D01*
X351382Y472674D01*
X351413Y472538D01*
X351441Y472400D01*
X351464Y472263D01*
X351484Y472124D01*
X351500Y471985D01*
X351512Y471846D01*
X351520Y471707D01*
X351524Y471567D01*
X351524Y471427D01*
X351520Y471287D01*
X351512Y471148D01*
X351500Y471009D01*
X351484Y470870D01*
X351464Y470731D01*
X351441Y470594D01*
X351413Y470456D01*
X351382Y470320D01*
X351347Y470185D01*
X351308Y470051D01*
X351265Y469918D01*
X351218Y469786D01*
X351168Y469655D01*
X351114Y469527D01*
X351056Y469399D01*
X350995Y469273D01*
X350930Y469150D01*
X350862Y469028D01*
X350791Y468907D01*
X350716Y468789D01*
X350637Y468674D01*
X350556Y468560D01*
X350471Y468449D01*
X350383Y468340D01*
X350293Y468234D01*
X350199Y468130D01*
X350102Y468029D01*
X350002Y467931D01*
X349900Y467836D01*
X349795Y467744D01*
X349688Y467654D01*
X349578Y467568D01*
X349465Y467485D01*
X349351Y467405D01*
X349234Y467328D01*
X349115Y467255D01*
X348994Y467185D01*
X348871Y467119D01*
X348746Y467056D01*
X348619Y466996D01*
X348491Y466941D01*
X348362Y466889D01*
X348230Y466840D01*
X348098Y466795D01*
X347964Y466754D01*
X347830Y466717D01*
X347694Y466684D01*
X347557Y466655D01*
X347420Y466629D01*
X347282Y466607D01*
X347143Y466590D01*
X347004Y466576D01*
X346864Y466566D01*
X346725Y466560D01*
X346585Y466558D01*
X341646Y466558D01*
X357641Y468534D02*
X363567Y468534D01*
X363691Y468532D01*
X363815Y468526D01*
X363939Y468516D01*
X364062Y468503D01*
X364185Y468485D01*
X364307Y468464D01*
X364429Y468439D01*
X364550Y468410D01*
X364669Y468377D01*
X364788Y468341D01*
X364905Y468300D01*
X365021Y468257D01*
X365136Y468209D01*
X365249Y468158D01*
X365361Y468103D01*
X365470Y468045D01*
X365578Y467984D01*
X365684Y467919D01*
X365788Y467851D01*
X365889Y467779D01*
X365989Y467705D01*
X366085Y467627D01*
X366180Y467547D01*
X366272Y467463D01*
X366361Y467377D01*
X366447Y467288D01*
X366531Y467196D01*
X366611Y467101D01*
X366689Y467005D01*
X366763Y466905D01*
X366835Y466804D01*
X366903Y466700D01*
X366968Y466594D01*
X367029Y466486D01*
X367087Y466377D01*
X367142Y466265D01*
X367193Y466152D01*
X367241Y466037D01*
X367284Y465921D01*
X367325Y465804D01*
X367361Y465685D01*
X367394Y465566D01*
X367423Y465445D01*
X367448Y465323D01*
X367469Y465201D01*
X367487Y465078D01*
X367500Y464955D01*
X367510Y464831D01*
X367516Y464707D01*
X367518Y464583D01*
X367518Y463595D01*
X367519Y463595D02*
X367517Y463455D01*
X367511Y463316D01*
X367501Y463176D01*
X367487Y463037D01*
X367470Y462898D01*
X367448Y462760D01*
X367422Y462623D01*
X367393Y462486D01*
X367360Y462350D01*
X367323Y462216D01*
X367282Y462082D01*
X367237Y461950D01*
X367188Y461818D01*
X367136Y461689D01*
X367081Y461561D01*
X367021Y461434D01*
X366958Y461309D01*
X366892Y461186D01*
X366822Y461065D01*
X366749Y460946D01*
X366672Y460829D01*
X366592Y460715D01*
X366509Y460602D01*
X366423Y460492D01*
X366333Y460385D01*
X366241Y460280D01*
X366146Y460178D01*
X366048Y460078D01*
X365947Y459981D01*
X365843Y459887D01*
X365737Y459797D01*
X365628Y459709D01*
X365517Y459624D01*
X365403Y459543D01*
X365288Y459464D01*
X365170Y459389D01*
X365050Y459318D01*
X364927Y459250D01*
X364804Y459185D01*
X364678Y459124D01*
X364550Y459066D01*
X364422Y459012D01*
X364291Y458962D01*
X364159Y458915D01*
X364026Y458872D01*
X363892Y458833D01*
X363757Y458798D01*
X363621Y458767D01*
X363483Y458739D01*
X363346Y458716D01*
X363207Y458696D01*
X363068Y458680D01*
X362929Y458668D01*
X362790Y458660D01*
X362650Y458656D01*
X362510Y458656D01*
X362370Y458660D01*
X362231Y458668D01*
X362092Y458680D01*
X361953Y458696D01*
X361814Y458716D01*
X361677Y458739D01*
X361539Y458767D01*
X361403Y458798D01*
X361268Y458833D01*
X361134Y458872D01*
X361001Y458915D01*
X360869Y458962D01*
X360738Y459012D01*
X360610Y459066D01*
X360482Y459124D01*
X360356Y459185D01*
X360233Y459250D01*
X360111Y459318D01*
X359990Y459389D01*
X359872Y459464D01*
X359757Y459543D01*
X359643Y459624D01*
X359532Y459709D01*
X359423Y459797D01*
X359317Y459887D01*
X359213Y459981D01*
X359112Y460078D01*
X359014Y460178D01*
X358919Y460280D01*
X358827Y460385D01*
X358737Y460492D01*
X358651Y460602D01*
X358568Y460715D01*
X358488Y460829D01*
X358411Y460946D01*
X358338Y461065D01*
X358268Y461186D01*
X358202Y461309D01*
X358139Y461434D01*
X358079Y461561D01*
X358024Y461689D01*
X357972Y461818D01*
X357923Y461950D01*
X357878Y462082D01*
X357837Y462216D01*
X357800Y462350D01*
X357767Y462486D01*
X357738Y462623D01*
X357712Y462760D01*
X357690Y462898D01*
X357673Y463037D01*
X357659Y463176D01*
X357649Y463316D01*
X357643Y463455D01*
X357641Y463595D01*
X357641Y468534D01*
X357643Y468728D01*
X357651Y468922D01*
X357662Y469115D01*
X357679Y469309D01*
X357700Y469501D01*
X357727Y469693D01*
X357757Y469885D01*
X357793Y470076D01*
X357833Y470265D01*
X357878Y470454D01*
X357927Y470642D01*
X357981Y470828D01*
X358040Y471013D01*
X358103Y471196D01*
X358170Y471378D01*
X358243Y471558D01*
X358319Y471736D01*
X358400Y471913D01*
X358485Y472087D01*
X358574Y472259D01*
X358668Y472429D01*
X358765Y472596D01*
X358867Y472762D01*
X358973Y472924D01*
X359082Y473084D01*
X359196Y473241D01*
X359313Y473396D01*
X359435Y473547D01*
X359560Y473695D01*
X359688Y473841D01*
X359820Y473983D01*
X359955Y474122D01*
X360094Y474257D01*
X360236Y474389D01*
X360382Y474517D01*
X360530Y474642D01*
X360681Y474764D01*
X360836Y474881D01*
X360993Y474995D01*
X361153Y475104D01*
X361315Y475210D01*
X361481Y475312D01*
X361648Y475409D01*
X361818Y475503D01*
X361990Y475592D01*
X362164Y475677D01*
X362341Y475758D01*
X362519Y475834D01*
X362699Y475907D01*
X362881Y475974D01*
X363064Y476037D01*
X363249Y476096D01*
X363435Y476150D01*
X363623Y476199D01*
X363812Y476244D01*
X364001Y476284D01*
X364192Y476320D01*
X364384Y476350D01*
X364576Y476377D01*
X364768Y476398D01*
X364962Y476415D01*
X365155Y476426D01*
X365349Y476434D01*
X365543Y476436D01*
D12*
X344002Y327259D03*
D13*
X343487Y327406D03*
D14*
X342897Y327553D03*
D15*
X342456Y327701D03*
D16*
X341940Y327848D03*
D17*
X341498Y327995D03*
D18*
X340909Y328143D03*
D19*
X340393Y328290D03*
D20*
X339951Y328437D03*
D21*
X339509Y328585D03*
D22*
X339435Y328732D03*
D23*
X339509Y328879D03*
D24*
X339583Y329027D03*
D25*
X339509Y329174D03*
D26*
X339583Y329321D03*
D27*
X339583Y329468D03*
D28*
X339656Y329616D03*
X339656Y329763D03*
D29*
X339656Y329910D03*
D30*
X339730Y330058D03*
D31*
X339730Y330205D03*
X339730Y330352D03*
D32*
X339804Y330500D03*
D33*
X339804Y330647D03*
D34*
X339877Y330794D03*
D35*
X339804Y330942D03*
D36*
X339877Y331089D03*
D37*
X339951Y331236D03*
D38*
X339951Y331384D03*
X339951Y331531D03*
D39*
X340025Y331678D03*
D40*
X340025Y331826D03*
D41*
X340098Y331973D03*
D42*
X340025Y332120D03*
D43*
X340098Y332268D03*
D44*
X340172Y332415D03*
D45*
X340172Y332562D03*
X340172Y332710D03*
D46*
X340172Y332857D03*
D47*
X340246Y333004D03*
X340246Y333151D03*
D48*
X340246Y333299D03*
D49*
X340319Y333446D03*
D50*
X340319Y333593D03*
X340319Y333741D03*
D51*
X340393Y333888D03*
D52*
X340393Y334035D03*
D53*
X340467Y334183D03*
D54*
X340393Y334330D03*
D55*
X340467Y334477D03*
D56*
X340540Y334625D03*
D57*
X361018Y334625D03*
D58*
X340540Y334772D03*
D59*
X360429Y334772D03*
D58*
X340540Y334919D03*
D60*
X359987Y334919D03*
D61*
X340540Y335067D03*
D62*
X359471Y335067D03*
D63*
X340614Y335214D03*
D64*
X359029Y335214D03*
D63*
X340614Y335361D03*
D65*
X358440Y335361D03*
D66*
X340540Y335509D03*
D67*
X357998Y335509D03*
D66*
X340540Y335656D03*
D68*
X357482Y335656D03*
D63*
X340467Y335803D03*
D69*
X357040Y335803D03*
D66*
X340393Y335951D03*
D21*
X356893Y335951D03*
D66*
X340393Y336098D03*
D23*
X356893Y336098D03*
D66*
X340246Y336245D03*
D24*
X356967Y336245D03*
D66*
X340246Y336393D03*
D25*
X357040Y336393D03*
D63*
X340172Y336540D03*
D26*
X356967Y336540D03*
D66*
X340098Y336687D03*
D70*
X357040Y336687D03*
D66*
X340098Y336834D03*
D28*
X357040Y336834D03*
D66*
X339951Y336982D03*
D71*
X357114Y336982D03*
D66*
X339951Y337129D03*
D71*
X357114Y337129D03*
D63*
X339877Y337276D03*
D30*
X357114Y337276D03*
D66*
X339804Y337424D03*
D72*
X357188Y337424D03*
D66*
X339804Y337571D03*
D32*
X357188Y337571D03*
D66*
X339656Y337718D03*
D32*
X357188Y337718D03*
D66*
X339656Y337866D03*
D73*
X357261Y337866D03*
D63*
X339583Y338013D03*
D34*
X357261Y338013D03*
D61*
X339656Y338160D03*
D35*
X357335Y338160D03*
D61*
X339656Y338308D03*
D36*
X357261Y338308D03*
D74*
X339656Y338455D03*
D75*
X357335Y338455D03*
D76*
X339730Y338602D03*
D77*
X357408Y338602D03*
D55*
X339730Y338750D03*
D78*
X357408Y338750D03*
D55*
X339730Y338897D03*
D78*
X357408Y338897D03*
D54*
X339804Y339044D03*
D79*
X357482Y339044D03*
D52*
X339804Y339192D03*
D41*
X357482Y339192D03*
D80*
X339877Y339339D03*
D41*
X357482Y339339D03*
D51*
X339804Y339486D03*
D43*
X357482Y339486D03*
D81*
X339877Y339634D03*
D44*
X357556Y339634D03*
D82*
X339951Y339781D03*
D83*
X357629Y339781D03*
D48*
X339951Y339928D03*
D84*
X357556Y339928D03*
D48*
X339951Y340076D03*
D85*
X357629Y340076D03*
D86*
X340025Y340223D03*
D47*
X357629Y340223D03*
D46*
X340025Y340370D03*
D86*
X357703Y340370D03*
D46*
X340025Y340517D03*
D86*
X357703Y340517D03*
D84*
X340025Y340665D03*
D49*
X357703Y340665D03*
D87*
X340098Y340812D03*
D82*
X357777Y340812D03*
D44*
X340172Y340959D03*
D51*
X357777Y340959D03*
D43*
X340098Y341107D03*
D51*
X357777Y341107D03*
D42*
X340172Y341254D03*
D80*
X357850Y341254D03*
D40*
X340172Y341401D03*
D53*
X357850Y341401D03*
D79*
X340246Y341549D03*
D54*
X357924Y341549D03*
D79*
X340246Y341696D03*
D55*
X357850Y341696D03*
D88*
X340246Y341843D03*
D89*
X357924Y341843D03*
D77*
X340319Y341991D03*
D76*
X357998Y341991D03*
D36*
X340319Y342138D03*
D90*
X357998Y342138D03*
D36*
X340319Y342285D03*
D90*
X357998Y342285D03*
D35*
X340393Y342433D03*
D63*
X357998Y342433D03*
D33*
X340393Y342580D03*
D66*
X358071Y342580D03*
D73*
X340467Y342727D03*
D63*
X357998Y342727D03*
D32*
X340393Y342875D03*
D66*
X357924Y342875D03*
D91*
X340467Y343022D03*
D66*
X357924Y343022D03*
D92*
X340540Y343169D03*
D63*
X357850Y343169D03*
D29*
X340540Y343317D03*
D66*
X357777Y343317D03*
D29*
X340540Y343464D03*
D66*
X357777Y343464D03*
D71*
X340614Y343611D03*
D66*
X357629Y343611D03*
D27*
X340614Y343759D03*
D66*
X357629Y343759D03*
D70*
X340688Y343906D03*
D63*
X357556Y343906D03*
D93*
X340614Y344053D03*
D66*
X357482Y344053D03*
D25*
X340688Y344200D03*
D66*
X357482Y344200D03*
D24*
X340761Y344348D03*
D66*
X357335Y344348D03*
D23*
X340688Y344495D03*
D66*
X357335Y344495D03*
D22*
X340761Y344642D03*
D63*
X357261Y344642D03*
D69*
X340688Y344790D03*
D66*
X357188Y344790D03*
D94*
X340172Y344937D03*
D66*
X357188Y344937D03*
D67*
X339583Y345084D03*
D66*
X357040Y345084D03*
D65*
X339141Y345232D03*
D66*
X357040Y345232D03*
D95*
X338625Y345379D03*
D61*
X357040Y345379D03*
D96*
X338183Y345526D03*
D90*
X357114Y345526D03*
D60*
X337594Y345674D03*
D90*
X357114Y345674D03*
D97*
X337078Y345821D03*
D98*
X357114Y345821D03*
D99*
X336636Y345968D03*
D56*
X357188Y345968D03*
D100*
X346433Y346116D03*
D55*
X357114Y346116D03*
D101*
X345918Y346263D03*
D54*
X357188Y346263D03*
D14*
X345402Y346410D03*
D53*
X357261Y346410D03*
D102*
X344886Y346558D03*
D80*
X357261Y346558D03*
D16*
X344444Y346705D03*
D80*
X357261Y346705D03*
D103*
X343929Y346852D03*
D81*
X357261Y346852D03*
D18*
X343413Y347000D03*
D104*
X357335Y347000D03*
D19*
X342897Y347147D03*
D49*
X357408Y347147D03*
D105*
X342382Y347294D03*
D48*
X357335Y347294D03*
D106*
X341940Y347442D03*
D86*
X357408Y347442D03*
D22*
X341940Y347589D03*
D47*
X357482Y347589D03*
D23*
X342014Y347736D03*
D85*
X357482Y347736D03*
D24*
X342087Y347883D03*
D85*
X357482Y347883D03*
D25*
X342014Y348031D03*
D87*
X357482Y348031D03*
D26*
X342087Y348178D03*
D44*
X357556Y348178D03*
D107*
X342087Y348325D03*
D43*
X357629Y348325D03*
D28*
X342161Y348473D03*
D42*
X357556Y348473D03*
D28*
X342161Y348620D03*
D41*
X357629Y348620D03*
D29*
X342161Y348767D03*
D79*
X357629Y348767D03*
D30*
X342235Y348915D03*
D39*
X357703Y348915D03*
D31*
X342235Y349062D03*
D39*
X357703Y349062D03*
D31*
X342235Y349209D03*
D108*
X357703Y349209D03*
D32*
X342308Y349357D03*
D75*
X357777Y349357D03*
D33*
X342308Y349504D03*
D35*
X357777Y349504D03*
D34*
X342382Y349651D03*
D35*
X357777Y349651D03*
X342308Y349799D03*
D34*
X357850Y349799D03*
D36*
X342382Y349946D03*
D73*
X357850Y349946D03*
D75*
X342456Y350093D03*
D73*
X357850Y350093D03*
D38*
X342456Y350241D03*
D91*
X357850Y350241D03*
D38*
X342456Y350388D03*
D72*
X357924Y350388D03*
D79*
X342456Y350535D03*
D30*
X357998Y350535D03*
D40*
X342529Y350683D03*
D29*
X357924Y350683D03*
D41*
X342603Y350830D03*
D71*
X357998Y350830D03*
D42*
X342529Y350977D03*
D27*
X357998Y350977D03*
D43*
X342603Y351125D03*
D109*
X358071Y351125D03*
D87*
X342603Y351272D03*
D109*
X358071Y351272D03*
D45*
X342676Y351419D03*
D25*
X358071Y351419D03*
D45*
X342676Y351566D03*
D24*
X358145Y351566D03*
D46*
X342676Y351714D03*
D23*
X358219Y351714D03*
D47*
X342750Y351861D03*
D22*
X358145Y351861D03*
D47*
X342750Y352008D03*
D106*
X358145Y352008D03*
D48*
X342750Y352156D03*
D110*
X357703Y352156D03*
D49*
X342824Y352303D03*
D111*
X357188Y352303D03*
D50*
X342824Y352450D03*
D18*
X356672Y352450D03*
D50*
X342824Y352598D03*
D112*
X356156Y352598D03*
D51*
X342897Y352745D03*
D113*
X355714Y352745D03*
D52*
X342897Y352892D03*
D114*
X355199Y352892D03*
D53*
X342971Y353040D03*
D14*
X354683Y353040D03*
D54*
X342897Y353187D03*
D115*
X354167Y353187D03*
D55*
X342971Y353334D03*
D12*
X353725Y353334D03*
D56*
X343045Y353482D03*
D58*
X343045Y353629D03*
X343045Y353776D03*
D61*
X343045Y353924D03*
D63*
X343118Y354071D03*
X343118Y354218D03*
D66*
X343045Y354366D03*
X343045Y354513D03*
X342897Y354660D03*
X342897Y354808D03*
D63*
X342824Y354955D03*
D66*
X342750Y355102D03*
X342750Y355249D03*
X342603Y355397D03*
X342603Y355544D03*
D63*
X342529Y355691D03*
D66*
X342456Y355839D03*
X342456Y355986D03*
D63*
X342382Y356133D03*
D66*
X342308Y356281D03*
X342308Y356428D03*
X342161Y356575D03*
X342161Y356723D03*
D63*
X342087Y356870D03*
D61*
X342161Y357017D03*
X342161Y357165D03*
D74*
X342161Y357312D03*
D76*
X342235Y357459D03*
D55*
X342235Y357607D03*
X342235Y357754D03*
D54*
X342308Y357901D03*
D52*
X342308Y358049D03*
D80*
X342382Y358196D03*
D51*
X342308Y358343D03*
D81*
X342382Y358491D03*
D82*
X342456Y358638D03*
D116*
X342382Y358785D03*
D48*
X342456Y358932D03*
D47*
X342456Y359080D03*
D46*
X342529Y359227D03*
X342529Y359374D03*
D84*
X342529Y359522D03*
D87*
X342603Y359669D03*
D43*
X342603Y359816D03*
X342603Y359964D03*
D42*
X342676Y360111D03*
D40*
X342676Y360258D03*
D79*
X342750Y360406D03*
X342750Y360553D03*
D88*
X342750Y360700D03*
D77*
X342824Y360848D03*
D36*
X342824Y360995D03*
X342824Y361142D03*
D35*
X342897Y361290D03*
D33*
X342897Y361437D03*
D73*
X342971Y361584D03*
D32*
X342897Y361732D03*
D91*
X342971Y361879D03*
D92*
X343045Y362026D03*
D29*
X343045Y362174D03*
X343045Y362321D03*
D28*
X343045Y362468D03*
D27*
X343118Y362615D03*
D70*
X343192Y362763D03*
D93*
X343118Y362910D03*
D25*
X343192Y363057D03*
D23*
X343192Y363205D03*
X343192Y363352D03*
D22*
X343266Y363499D03*
D117*
X343118Y363647D03*
D118*
X342603Y363794D03*
D67*
X342087Y363941D03*
D119*
X341572Y364089D03*
D95*
X341130Y364236D03*
D120*
X340614Y364383D03*
D60*
X340098Y364531D03*
D97*
X339583Y364678D03*
D121*
X339067Y364825D03*
D122*
X225386Y322351D02*
X224836Y321398D01*
X225386Y322351D02*
X228563Y320516D01*
X227463Y318610D01*
X227425Y318547D01*
X227383Y318485D01*
X227338Y318426D01*
X227290Y318369D01*
X227239Y318315D01*
X227185Y318263D01*
X227129Y318214D01*
X227071Y318168D01*
X227010Y318125D01*
X226947Y318085D01*
X226883Y318049D01*
X226816Y318015D01*
X226748Y317985D01*
X226679Y317959D01*
X226608Y317936D01*
X226536Y317917D01*
X226463Y317901D01*
X226390Y317889D01*
X226316Y317881D01*
X226242Y317877D01*
X226167Y317876D01*
X226093Y317879D01*
X226019Y317886D01*
X225945Y317897D01*
X225872Y317911D01*
X225800Y317929D01*
X225729Y317951D01*
X225659Y317976D01*
X225590Y318005D01*
X225523Y318037D01*
X225458Y318073D01*
X222281Y319907D01*
X222280Y319907D02*
X222217Y319945D01*
X222155Y319987D01*
X222096Y320032D01*
X222039Y320080D01*
X221985Y320131D01*
X221933Y320185D01*
X221884Y320241D01*
X221838Y320299D01*
X221795Y320360D01*
X221755Y320423D01*
X221719Y320487D01*
X221685Y320554D01*
X221655Y320622D01*
X221629Y320691D01*
X221606Y320762D01*
X221587Y320834D01*
X221571Y320907D01*
X221559Y320980D01*
X221551Y321054D01*
X221547Y321128D01*
X221546Y321203D01*
X221549Y321277D01*
X221556Y321351D01*
X221567Y321425D01*
X221581Y321498D01*
X221599Y321570D01*
X221621Y321641D01*
X221646Y321711D01*
X221675Y321780D01*
X221707Y321847D01*
X221743Y321912D01*
X221744Y321912D02*
X222844Y323818D01*
X224424Y326554D02*
X230143Y323252D01*
X231977Y326429D02*
X224424Y326554D01*
X226258Y329731D02*
X231977Y326429D01*
X233557Y329165D02*
X227837Y332467D01*
X228754Y334055D01*
X228755Y334055D02*
X228799Y334127D01*
X228846Y334198D01*
X228897Y334266D01*
X228950Y334331D01*
X229007Y334394D01*
X229066Y334455D01*
X229128Y334512D01*
X229193Y334567D01*
X229260Y334618D01*
X229330Y334667D01*
X229402Y334712D01*
X229475Y334754D01*
X229551Y334792D01*
X229628Y334827D01*
X229707Y334858D01*
X229787Y334886D01*
X229868Y334910D01*
X229951Y334930D01*
X230034Y334946D01*
X230118Y334958D01*
X230202Y334967D01*
X230287Y334971D01*
X230371Y334972D01*
X230456Y334969D01*
X230540Y334961D01*
X230624Y334950D01*
X230708Y334935D01*
X230790Y334917D01*
X230872Y334894D01*
X230953Y334868D01*
X231032Y334838D01*
X231110Y334804D01*
X231186Y334767D01*
X231260Y334726D01*
X231260Y334727D02*
X233802Y333259D01*
X233802Y333258D02*
X233874Y333214D01*
X233945Y333167D01*
X234013Y333116D01*
X234078Y333063D01*
X234141Y333006D01*
X234202Y332947D01*
X234259Y332885D01*
X234314Y332820D01*
X234365Y332753D01*
X234414Y332683D01*
X234459Y332611D01*
X234501Y332538D01*
X234539Y332462D01*
X234574Y332385D01*
X234605Y332306D01*
X234633Y332226D01*
X234657Y332145D01*
X234677Y332062D01*
X234693Y331979D01*
X234705Y331895D01*
X234714Y331811D01*
X234718Y331727D01*
X234719Y331642D01*
X234716Y331557D01*
X234708Y331473D01*
X234697Y331389D01*
X234682Y331305D01*
X234664Y331223D01*
X234641Y331141D01*
X234615Y331060D01*
X234585Y330981D01*
X234551Y330903D01*
X234514Y330827D01*
X234473Y330753D01*
X234474Y330753D02*
X233557Y329165D01*
X280758Y290093D02*
X280208Y289140D01*
X280758Y290093D02*
X283935Y288258D01*
X282835Y286352D01*
X282797Y286289D01*
X282755Y286227D01*
X282710Y286168D01*
X282662Y286111D01*
X282611Y286057D01*
X282557Y286005D01*
X282501Y285956D01*
X282443Y285910D01*
X282382Y285867D01*
X282319Y285827D01*
X282255Y285791D01*
X282188Y285757D01*
X282120Y285727D01*
X282051Y285701D01*
X281980Y285678D01*
X281908Y285659D01*
X281835Y285643D01*
X281762Y285631D01*
X281688Y285623D01*
X281614Y285619D01*
X281539Y285618D01*
X281465Y285621D01*
X281391Y285628D01*
X281317Y285639D01*
X281244Y285653D01*
X281172Y285671D01*
X281101Y285693D01*
X281031Y285718D01*
X280962Y285747D01*
X280895Y285779D01*
X280830Y285815D01*
X277653Y287649D01*
X277652Y287649D02*
X277589Y287687D01*
X277527Y287729D01*
X277468Y287774D01*
X277411Y287822D01*
X277357Y287873D01*
X277305Y287927D01*
X277256Y287983D01*
X277210Y288041D01*
X277167Y288102D01*
X277127Y288165D01*
X277091Y288229D01*
X277057Y288296D01*
X277027Y288364D01*
X277001Y288433D01*
X276978Y288504D01*
X276959Y288576D01*
X276943Y288649D01*
X276931Y288722D01*
X276923Y288796D01*
X276919Y288870D01*
X276918Y288945D01*
X276921Y289019D01*
X276928Y289093D01*
X276939Y289167D01*
X276953Y289240D01*
X276971Y289312D01*
X276993Y289383D01*
X277018Y289453D01*
X277047Y289522D01*
X277079Y289589D01*
X277115Y289654D01*
X277116Y289654D02*
X278216Y291560D01*
X279796Y294296D02*
X285515Y290994D01*
X287349Y294171D02*
X279796Y294296D01*
X281630Y297473D02*
X287349Y294171D01*
X288929Y296907D02*
X283209Y300209D01*
X284126Y301797D01*
X284127Y301797D02*
X284171Y301869D01*
X284218Y301940D01*
X284269Y302008D01*
X284322Y302073D01*
X284379Y302136D01*
X284438Y302197D01*
X284500Y302254D01*
X284565Y302309D01*
X284632Y302360D01*
X284702Y302409D01*
X284774Y302454D01*
X284847Y302496D01*
X284923Y302534D01*
X285000Y302569D01*
X285079Y302600D01*
X285159Y302628D01*
X285240Y302652D01*
X285323Y302672D01*
X285406Y302688D01*
X285490Y302700D01*
X285574Y302709D01*
X285659Y302713D01*
X285743Y302714D01*
X285828Y302711D01*
X285912Y302703D01*
X285996Y302692D01*
X286080Y302677D01*
X286162Y302659D01*
X286244Y302636D01*
X286325Y302610D01*
X286404Y302580D01*
X286482Y302546D01*
X286558Y302509D01*
X286632Y302468D01*
X286632Y302469D02*
X289174Y301001D01*
X289174Y301000D02*
X289246Y300956D01*
X289317Y300909D01*
X289385Y300858D01*
X289450Y300805D01*
X289513Y300748D01*
X289574Y300689D01*
X289631Y300627D01*
X289686Y300562D01*
X289737Y300495D01*
X289786Y300425D01*
X289831Y300353D01*
X289873Y300280D01*
X289911Y300204D01*
X289946Y300127D01*
X289977Y300048D01*
X290005Y299968D01*
X290029Y299887D01*
X290049Y299804D01*
X290065Y299721D01*
X290077Y299637D01*
X290086Y299553D01*
X290090Y299469D01*
X290091Y299384D01*
X290088Y299299D01*
X290080Y299215D01*
X290069Y299131D01*
X290054Y299047D01*
X290036Y298965D01*
X290013Y298883D01*
X289987Y298802D01*
X289957Y298723D01*
X289923Y298645D01*
X289886Y298569D01*
X289845Y298495D01*
X289846Y298495D02*
X288929Y296907D01*
X301036Y453224D02*
X301586Y454177D01*
X304763Y452342D01*
X303663Y450436D01*
X303625Y450373D01*
X303583Y450311D01*
X303538Y450252D01*
X303490Y450195D01*
X303439Y450141D01*
X303385Y450089D01*
X303329Y450040D01*
X303271Y449994D01*
X303210Y449951D01*
X303147Y449911D01*
X303083Y449875D01*
X303016Y449841D01*
X302948Y449811D01*
X302879Y449785D01*
X302808Y449762D01*
X302736Y449743D01*
X302663Y449727D01*
X302590Y449715D01*
X302516Y449707D01*
X302442Y449703D01*
X302367Y449702D01*
X302293Y449705D01*
X302219Y449712D01*
X302145Y449723D01*
X302072Y449737D01*
X302000Y449755D01*
X301929Y449777D01*
X301859Y449802D01*
X301790Y449831D01*
X301723Y449863D01*
X301658Y449899D01*
X298481Y451733D01*
X298480Y451733D02*
X298417Y451771D01*
X298355Y451813D01*
X298296Y451858D01*
X298239Y451906D01*
X298185Y451957D01*
X298133Y452011D01*
X298084Y452067D01*
X298038Y452125D01*
X297995Y452186D01*
X297955Y452249D01*
X297919Y452313D01*
X297885Y452380D01*
X297855Y452448D01*
X297829Y452517D01*
X297806Y452588D01*
X297787Y452660D01*
X297771Y452733D01*
X297759Y452806D01*
X297751Y452880D01*
X297747Y452954D01*
X297746Y453029D01*
X297749Y453103D01*
X297756Y453177D01*
X297767Y453251D01*
X297781Y453324D01*
X297799Y453396D01*
X297821Y453467D01*
X297846Y453537D01*
X297875Y453606D01*
X297907Y453673D01*
X297943Y453738D01*
X297944Y453738D02*
X299044Y455644D01*
X300624Y458380D02*
X306343Y455078D01*
X308177Y458255D02*
X300624Y458380D01*
X302458Y461557D02*
X308177Y458255D01*
X309757Y460991D02*
X304037Y464293D01*
X304954Y465881D01*
X304955Y465881D02*
X304999Y465953D01*
X305046Y466024D01*
X305097Y466092D01*
X305150Y466157D01*
X305207Y466220D01*
X305266Y466281D01*
X305328Y466338D01*
X305393Y466393D01*
X305460Y466444D01*
X305530Y466493D01*
X305602Y466538D01*
X305675Y466580D01*
X305751Y466618D01*
X305828Y466653D01*
X305907Y466684D01*
X305987Y466712D01*
X306068Y466736D01*
X306151Y466756D01*
X306234Y466772D01*
X306318Y466784D01*
X306402Y466793D01*
X306487Y466797D01*
X306571Y466798D01*
X306656Y466795D01*
X306740Y466787D01*
X306824Y466776D01*
X306908Y466761D01*
X306990Y466743D01*
X307072Y466720D01*
X307153Y466694D01*
X307232Y466664D01*
X307310Y466630D01*
X307386Y466593D01*
X307460Y466552D01*
X307460Y466553D02*
X310002Y465085D01*
X310002Y465084D02*
X310074Y465040D01*
X310145Y464993D01*
X310213Y464942D01*
X310278Y464889D01*
X310341Y464832D01*
X310402Y464773D01*
X310459Y464711D01*
X310514Y464646D01*
X310565Y464579D01*
X310614Y464509D01*
X310659Y464437D01*
X310701Y464364D01*
X310739Y464288D01*
X310774Y464211D01*
X310805Y464132D01*
X310833Y464052D01*
X310857Y463971D01*
X310877Y463888D01*
X310893Y463805D01*
X310905Y463721D01*
X310914Y463637D01*
X310918Y463553D01*
X310919Y463468D01*
X310916Y463383D01*
X310908Y463299D01*
X310897Y463215D01*
X310882Y463131D01*
X310864Y463049D01*
X310841Y462967D01*
X310815Y462886D01*
X310785Y462807D01*
X310751Y462729D01*
X310714Y462653D01*
X310673Y462579D01*
X310674Y462579D02*
X309757Y460991D01*
X357212Y422935D02*
X356662Y421982D01*
X357212Y422935D02*
X360389Y421100D01*
X359289Y419194D01*
X359251Y419131D01*
X359209Y419069D01*
X359164Y419010D01*
X359116Y418953D01*
X359065Y418899D01*
X359011Y418847D01*
X358955Y418798D01*
X358897Y418752D01*
X358836Y418709D01*
X358773Y418669D01*
X358709Y418633D01*
X358642Y418599D01*
X358574Y418569D01*
X358505Y418543D01*
X358434Y418520D01*
X358362Y418501D01*
X358289Y418485D01*
X358216Y418473D01*
X358142Y418465D01*
X358068Y418461D01*
X357993Y418460D01*
X357919Y418463D01*
X357845Y418470D01*
X357771Y418481D01*
X357698Y418495D01*
X357626Y418513D01*
X357555Y418535D01*
X357485Y418560D01*
X357416Y418589D01*
X357349Y418621D01*
X357284Y418657D01*
X354107Y420491D01*
X354106Y420491D02*
X354043Y420529D01*
X353981Y420571D01*
X353922Y420616D01*
X353865Y420664D01*
X353811Y420715D01*
X353759Y420769D01*
X353710Y420825D01*
X353664Y420883D01*
X353621Y420944D01*
X353581Y421007D01*
X353545Y421071D01*
X353511Y421138D01*
X353481Y421206D01*
X353455Y421275D01*
X353432Y421346D01*
X353413Y421418D01*
X353397Y421491D01*
X353385Y421564D01*
X353377Y421638D01*
X353373Y421712D01*
X353372Y421787D01*
X353375Y421861D01*
X353382Y421935D01*
X353393Y422009D01*
X353407Y422082D01*
X353425Y422154D01*
X353447Y422225D01*
X353472Y422295D01*
X353501Y422364D01*
X353533Y422431D01*
X353569Y422496D01*
X353570Y422496D02*
X354670Y424402D01*
X356250Y427138D02*
X361969Y423836D01*
X363803Y427013D02*
X356250Y427138D01*
X358084Y430315D02*
X363803Y427013D01*
X365383Y429749D02*
X359663Y433051D01*
X360580Y434639D01*
X360581Y434639D02*
X360625Y434711D01*
X360672Y434782D01*
X360723Y434850D01*
X360776Y434915D01*
X360833Y434978D01*
X360892Y435039D01*
X360954Y435096D01*
X361019Y435151D01*
X361086Y435202D01*
X361156Y435251D01*
X361228Y435296D01*
X361301Y435338D01*
X361377Y435376D01*
X361454Y435411D01*
X361533Y435442D01*
X361613Y435470D01*
X361694Y435494D01*
X361777Y435514D01*
X361860Y435530D01*
X361944Y435542D01*
X362028Y435551D01*
X362113Y435555D01*
X362197Y435556D01*
X362282Y435553D01*
X362366Y435545D01*
X362450Y435534D01*
X362534Y435519D01*
X362616Y435501D01*
X362698Y435478D01*
X362779Y435452D01*
X362858Y435422D01*
X362936Y435388D01*
X363012Y435351D01*
X363086Y435310D01*
X363086Y435311D02*
X365628Y433843D01*
X365628Y433842D02*
X365700Y433798D01*
X365771Y433751D01*
X365839Y433700D01*
X365904Y433647D01*
X365967Y433590D01*
X366028Y433531D01*
X366085Y433469D01*
X366140Y433404D01*
X366191Y433337D01*
X366240Y433267D01*
X366285Y433195D01*
X366327Y433122D01*
X366365Y433046D01*
X366400Y432969D01*
X366431Y432890D01*
X366459Y432810D01*
X366483Y432729D01*
X366503Y432646D01*
X366519Y432563D01*
X366531Y432479D01*
X366540Y432395D01*
X366544Y432311D01*
X366545Y432226D01*
X366542Y432141D01*
X366534Y432057D01*
X366523Y431973D01*
X366508Y431889D01*
X366490Y431807D01*
X366467Y431725D01*
X366441Y431644D01*
X366411Y431565D01*
X366377Y431487D01*
X366340Y431411D01*
X366299Y431337D01*
X366300Y431337D02*
X365383Y429749D01*
X291584Y430243D02*
X284764Y431639D01*
X286965Y435452D02*
X291584Y430243D01*
X293974Y434383D02*
X288254Y437685D01*
X289171Y439273D01*
X289172Y439273D02*
X289216Y439345D01*
X289263Y439416D01*
X289314Y439484D01*
X289367Y439549D01*
X289424Y439612D01*
X289483Y439673D01*
X289545Y439730D01*
X289610Y439785D01*
X289677Y439836D01*
X289747Y439885D01*
X289819Y439930D01*
X289892Y439972D01*
X289968Y440010D01*
X290045Y440045D01*
X290124Y440076D01*
X290204Y440104D01*
X290285Y440128D01*
X290368Y440148D01*
X290451Y440164D01*
X290535Y440176D01*
X290619Y440185D01*
X290704Y440189D01*
X290788Y440190D01*
X290873Y440187D01*
X290957Y440179D01*
X291041Y440168D01*
X291125Y440153D01*
X291207Y440135D01*
X291289Y440112D01*
X291370Y440086D01*
X291449Y440056D01*
X291527Y440022D01*
X291603Y439985D01*
X291677Y439944D01*
X291677Y439945D02*
X294219Y438477D01*
X294291Y438433D01*
X294362Y438386D01*
X294430Y438335D01*
X294495Y438282D01*
X294558Y438225D01*
X294619Y438166D01*
X294676Y438104D01*
X294731Y438039D01*
X294782Y437972D01*
X294831Y437902D01*
X294876Y437830D01*
X294918Y437757D01*
X294956Y437681D01*
X294991Y437604D01*
X295022Y437525D01*
X295050Y437445D01*
X295074Y437364D01*
X295094Y437281D01*
X295110Y437198D01*
X295122Y437114D01*
X295131Y437030D01*
X295135Y436946D01*
X295136Y436861D01*
X295133Y436776D01*
X295125Y436692D01*
X295114Y436608D01*
X295099Y436524D01*
X295081Y436442D01*
X295058Y436360D01*
X295032Y436279D01*
X295002Y436200D01*
X294968Y436122D01*
X294931Y436046D01*
X294890Y435972D01*
X294891Y435971D02*
X293974Y434383D01*
X297387Y440295D02*
X291668Y443597D01*
X292585Y445186D01*
X292586Y445186D02*
X292630Y445258D01*
X292677Y445329D01*
X292728Y445397D01*
X292781Y445462D01*
X292838Y445525D01*
X292897Y445586D01*
X292959Y445643D01*
X293024Y445698D01*
X293091Y445749D01*
X293161Y445798D01*
X293233Y445843D01*
X293306Y445885D01*
X293382Y445923D01*
X293459Y445958D01*
X293538Y445989D01*
X293618Y446017D01*
X293699Y446041D01*
X293782Y446061D01*
X293865Y446077D01*
X293949Y446089D01*
X294033Y446098D01*
X294118Y446102D01*
X294202Y446103D01*
X294287Y446100D01*
X294371Y446092D01*
X294455Y446081D01*
X294539Y446066D01*
X294621Y446048D01*
X294703Y446025D01*
X294784Y445999D01*
X294863Y445969D01*
X294941Y445935D01*
X295017Y445898D01*
X295091Y445857D01*
X295091Y445858D02*
X297633Y444390D01*
X297633Y444389D02*
X297705Y444345D01*
X297776Y444298D01*
X297844Y444247D01*
X297909Y444194D01*
X297972Y444137D01*
X298033Y444078D01*
X298090Y444016D01*
X298145Y443951D01*
X298196Y443884D01*
X298245Y443814D01*
X298290Y443742D01*
X298332Y443669D01*
X298370Y443593D01*
X298405Y443516D01*
X298436Y443437D01*
X298464Y443357D01*
X298488Y443276D01*
X298508Y443193D01*
X298524Y443110D01*
X298536Y443026D01*
X298545Y442942D01*
X298549Y442858D01*
X298550Y442773D01*
X298547Y442688D01*
X298539Y442604D01*
X298528Y442520D01*
X298513Y442436D01*
X298495Y442354D01*
X298472Y442272D01*
X298446Y442191D01*
X298416Y442112D01*
X298382Y442034D01*
X298345Y441958D01*
X298304Y441884D01*
X297387Y440295D01*
X340136Y398873D02*
X346956Y397477D01*
X342337Y402686D01*
X343626Y404919D02*
X349346Y401617D01*
X343626Y404919D02*
X344543Y406507D01*
X344544Y406507D02*
X344588Y406579D01*
X344635Y406650D01*
X344686Y406718D01*
X344739Y406783D01*
X344796Y406846D01*
X344855Y406907D01*
X344917Y406964D01*
X344982Y407019D01*
X345049Y407070D01*
X345119Y407119D01*
X345191Y407164D01*
X345264Y407206D01*
X345340Y407244D01*
X345417Y407279D01*
X345496Y407310D01*
X345576Y407338D01*
X345657Y407362D01*
X345740Y407382D01*
X345823Y407398D01*
X345907Y407410D01*
X345991Y407419D01*
X346076Y407423D01*
X346160Y407424D01*
X346245Y407421D01*
X346329Y407413D01*
X346413Y407402D01*
X346497Y407387D01*
X346579Y407369D01*
X346661Y407346D01*
X346742Y407320D01*
X346821Y407290D01*
X346899Y407256D01*
X346975Y407219D01*
X347049Y407178D01*
X347049Y407179D02*
X349591Y405711D01*
X349663Y405667D01*
X349734Y405620D01*
X349802Y405569D01*
X349867Y405516D01*
X349930Y405459D01*
X349991Y405400D01*
X350048Y405338D01*
X350103Y405273D01*
X350154Y405206D01*
X350203Y405136D01*
X350248Y405064D01*
X350290Y404991D01*
X350328Y404915D01*
X350363Y404838D01*
X350394Y404759D01*
X350422Y404679D01*
X350446Y404598D01*
X350466Y404515D01*
X350482Y404432D01*
X350494Y404348D01*
X350503Y404264D01*
X350507Y404180D01*
X350508Y404095D01*
X350505Y404010D01*
X350497Y403926D01*
X350486Y403842D01*
X350471Y403758D01*
X350453Y403676D01*
X350430Y403594D01*
X350404Y403513D01*
X350374Y403434D01*
X350340Y403356D01*
X350303Y403280D01*
X350262Y403206D01*
X350263Y403205D02*
X349346Y401617D01*
X352759Y407529D02*
X347040Y410831D01*
X347957Y412420D01*
X347958Y412420D02*
X348002Y412492D01*
X348049Y412563D01*
X348100Y412631D01*
X348153Y412696D01*
X348210Y412759D01*
X348269Y412820D01*
X348331Y412877D01*
X348396Y412932D01*
X348463Y412983D01*
X348533Y413032D01*
X348605Y413077D01*
X348678Y413119D01*
X348754Y413157D01*
X348831Y413192D01*
X348910Y413223D01*
X348990Y413251D01*
X349071Y413275D01*
X349154Y413295D01*
X349237Y413311D01*
X349321Y413323D01*
X349405Y413332D01*
X349490Y413336D01*
X349574Y413337D01*
X349659Y413334D01*
X349743Y413326D01*
X349827Y413315D01*
X349911Y413300D01*
X349993Y413282D01*
X350075Y413259D01*
X350156Y413233D01*
X350235Y413203D01*
X350313Y413169D01*
X350389Y413132D01*
X350463Y413091D01*
X350463Y413092D02*
X353005Y411624D01*
X353005Y411623D02*
X353077Y411579D01*
X353148Y411532D01*
X353216Y411481D01*
X353281Y411428D01*
X353344Y411371D01*
X353405Y411312D01*
X353462Y411250D01*
X353517Y411185D01*
X353568Y411118D01*
X353617Y411048D01*
X353662Y410976D01*
X353704Y410903D01*
X353742Y410827D01*
X353777Y410750D01*
X353808Y410671D01*
X353836Y410591D01*
X353860Y410510D01*
X353880Y410427D01*
X353896Y410344D01*
X353908Y410260D01*
X353917Y410176D01*
X353921Y410092D01*
X353922Y410007D01*
X353919Y409922D01*
X353911Y409838D01*
X353900Y409754D01*
X353885Y409670D01*
X353867Y409588D01*
X353844Y409506D01*
X353818Y409425D01*
X353788Y409346D01*
X353754Y409268D01*
X353717Y409192D01*
X353676Y409118D01*
X352759Y407529D01*
X297172Y310863D02*
X290352Y312259D01*
X292553Y316072D02*
X297172Y310863D01*
X299562Y315003D02*
X293842Y318305D01*
X294759Y319893D01*
X294760Y319893D02*
X294804Y319965D01*
X294851Y320036D01*
X294902Y320104D01*
X294955Y320169D01*
X295012Y320232D01*
X295071Y320293D01*
X295133Y320350D01*
X295198Y320405D01*
X295265Y320456D01*
X295335Y320505D01*
X295407Y320550D01*
X295480Y320592D01*
X295556Y320630D01*
X295633Y320665D01*
X295712Y320696D01*
X295792Y320724D01*
X295873Y320748D01*
X295956Y320768D01*
X296039Y320784D01*
X296123Y320796D01*
X296207Y320805D01*
X296292Y320809D01*
X296376Y320810D01*
X296461Y320807D01*
X296545Y320799D01*
X296629Y320788D01*
X296713Y320773D01*
X296795Y320755D01*
X296877Y320732D01*
X296958Y320706D01*
X297037Y320676D01*
X297115Y320642D01*
X297191Y320605D01*
X297265Y320564D01*
X297265Y320565D02*
X299807Y319097D01*
X299879Y319053D01*
X299950Y319006D01*
X300018Y318955D01*
X300083Y318902D01*
X300146Y318845D01*
X300207Y318786D01*
X300264Y318724D01*
X300319Y318659D01*
X300370Y318592D01*
X300419Y318522D01*
X300464Y318450D01*
X300506Y318377D01*
X300544Y318301D01*
X300579Y318224D01*
X300610Y318145D01*
X300638Y318065D01*
X300662Y317984D01*
X300682Y317901D01*
X300698Y317818D01*
X300710Y317734D01*
X300719Y317650D01*
X300723Y317566D01*
X300724Y317481D01*
X300721Y317396D01*
X300713Y317312D01*
X300702Y317228D01*
X300687Y317144D01*
X300669Y317062D01*
X300646Y316980D01*
X300620Y316899D01*
X300590Y316820D01*
X300556Y316742D01*
X300519Y316666D01*
X300478Y316592D01*
X300479Y316591D02*
X299562Y315003D01*
X302975Y320915D02*
X297256Y324217D01*
X298173Y325806D01*
X298174Y325806D02*
X298218Y325878D01*
X298265Y325949D01*
X298316Y326017D01*
X298369Y326082D01*
X298426Y326145D01*
X298485Y326206D01*
X298547Y326263D01*
X298612Y326318D01*
X298679Y326369D01*
X298749Y326418D01*
X298821Y326463D01*
X298894Y326505D01*
X298970Y326543D01*
X299047Y326578D01*
X299126Y326609D01*
X299206Y326637D01*
X299287Y326661D01*
X299370Y326681D01*
X299453Y326697D01*
X299537Y326709D01*
X299621Y326718D01*
X299706Y326722D01*
X299790Y326723D01*
X299875Y326720D01*
X299959Y326712D01*
X300043Y326701D01*
X300127Y326686D01*
X300209Y326668D01*
X300291Y326645D01*
X300372Y326619D01*
X300451Y326589D01*
X300529Y326555D01*
X300605Y326518D01*
X300679Y326477D01*
X300679Y326478D02*
X303221Y325010D01*
X303221Y325009D02*
X303293Y324965D01*
X303364Y324918D01*
X303432Y324867D01*
X303497Y324814D01*
X303560Y324757D01*
X303621Y324698D01*
X303678Y324636D01*
X303733Y324571D01*
X303784Y324504D01*
X303833Y324434D01*
X303878Y324362D01*
X303920Y324289D01*
X303958Y324213D01*
X303993Y324136D01*
X304024Y324057D01*
X304052Y323977D01*
X304076Y323896D01*
X304096Y323813D01*
X304112Y323730D01*
X304124Y323646D01*
X304133Y323562D01*
X304137Y323478D01*
X304138Y323393D01*
X304135Y323308D01*
X304127Y323224D01*
X304116Y323140D01*
X304101Y323056D01*
X304083Y322974D01*
X304060Y322892D01*
X304034Y322811D01*
X304004Y322732D01*
X303970Y322654D01*
X303933Y322578D01*
X303892Y322504D01*
X302975Y320915D01*
X240530Y341597D02*
X233710Y342993D01*
X235911Y346806D02*
X240530Y341597D01*
X242920Y345737D02*
X237200Y349039D01*
X238117Y350627D01*
X238118Y350627D02*
X238162Y350699D01*
X238209Y350770D01*
X238260Y350838D01*
X238313Y350903D01*
X238370Y350966D01*
X238429Y351027D01*
X238491Y351084D01*
X238556Y351139D01*
X238623Y351190D01*
X238693Y351239D01*
X238765Y351284D01*
X238838Y351326D01*
X238914Y351364D01*
X238991Y351399D01*
X239070Y351430D01*
X239150Y351458D01*
X239231Y351482D01*
X239314Y351502D01*
X239397Y351518D01*
X239481Y351530D01*
X239565Y351539D01*
X239650Y351543D01*
X239734Y351544D01*
X239819Y351541D01*
X239903Y351533D01*
X239987Y351522D01*
X240071Y351507D01*
X240153Y351489D01*
X240235Y351466D01*
X240316Y351440D01*
X240395Y351410D01*
X240473Y351376D01*
X240549Y351339D01*
X240623Y351298D01*
X240623Y351299D02*
X243165Y349831D01*
X243237Y349787D01*
X243308Y349740D01*
X243376Y349689D01*
X243441Y349636D01*
X243504Y349579D01*
X243565Y349520D01*
X243622Y349458D01*
X243677Y349393D01*
X243728Y349326D01*
X243777Y349256D01*
X243822Y349184D01*
X243864Y349111D01*
X243902Y349035D01*
X243937Y348958D01*
X243968Y348879D01*
X243996Y348799D01*
X244020Y348718D01*
X244040Y348635D01*
X244056Y348552D01*
X244068Y348468D01*
X244077Y348384D01*
X244081Y348300D01*
X244082Y348215D01*
X244079Y348130D01*
X244071Y348046D01*
X244060Y347962D01*
X244045Y347878D01*
X244027Y347796D01*
X244004Y347714D01*
X243978Y347633D01*
X243948Y347554D01*
X243914Y347476D01*
X243877Y347400D01*
X243836Y347326D01*
X243837Y347325D02*
X242920Y345737D01*
X246333Y351649D02*
X240614Y354951D01*
X241531Y356540D01*
X241532Y356540D02*
X241576Y356612D01*
X241623Y356683D01*
X241674Y356751D01*
X241727Y356816D01*
X241784Y356879D01*
X241843Y356940D01*
X241905Y356997D01*
X241970Y357052D01*
X242037Y357103D01*
X242107Y357152D01*
X242179Y357197D01*
X242252Y357239D01*
X242328Y357277D01*
X242405Y357312D01*
X242484Y357343D01*
X242564Y357371D01*
X242645Y357395D01*
X242728Y357415D01*
X242811Y357431D01*
X242895Y357443D01*
X242979Y357452D01*
X243064Y357456D01*
X243148Y357457D01*
X243233Y357454D01*
X243317Y357446D01*
X243401Y357435D01*
X243485Y357420D01*
X243567Y357402D01*
X243649Y357379D01*
X243730Y357353D01*
X243809Y357323D01*
X243887Y357289D01*
X243963Y357252D01*
X244037Y357211D01*
X244037Y357212D02*
X246579Y355744D01*
X246579Y355743D02*
X246651Y355699D01*
X246722Y355652D01*
X246790Y355601D01*
X246855Y355548D01*
X246918Y355491D01*
X246979Y355432D01*
X247036Y355370D01*
X247091Y355305D01*
X247142Y355238D01*
X247191Y355168D01*
X247236Y355096D01*
X247278Y355023D01*
X247316Y354947D01*
X247351Y354870D01*
X247382Y354791D01*
X247410Y354711D01*
X247434Y354630D01*
X247454Y354547D01*
X247470Y354464D01*
X247482Y354380D01*
X247491Y354296D01*
X247495Y354212D01*
X247496Y354127D01*
X247493Y354042D01*
X247485Y353958D01*
X247474Y353874D01*
X247459Y353790D01*
X247441Y353708D01*
X247418Y353626D01*
X247392Y353545D01*
X247362Y353466D01*
X247328Y353388D01*
X247291Y353312D01*
X247250Y353238D01*
X246333Y351649D01*
X253399Y363059D02*
X247680Y366361D01*
X248597Y367950D01*
X248598Y367949D02*
X248642Y368021D01*
X248689Y368092D01*
X248740Y368160D01*
X248793Y368225D01*
X248850Y368288D01*
X248909Y368349D01*
X248971Y368406D01*
X249036Y368461D01*
X249103Y368512D01*
X249173Y368561D01*
X249245Y368606D01*
X249318Y368648D01*
X249394Y368686D01*
X249471Y368721D01*
X249550Y368752D01*
X249630Y368780D01*
X249711Y368804D01*
X249794Y368824D01*
X249877Y368840D01*
X249961Y368852D01*
X250045Y368861D01*
X250130Y368865D01*
X250214Y368866D01*
X250299Y368863D01*
X250383Y368855D01*
X250467Y368844D01*
X250551Y368829D01*
X250633Y368811D01*
X250715Y368788D01*
X250796Y368762D01*
X250875Y368732D01*
X250953Y368698D01*
X251029Y368661D01*
X251103Y368620D01*
X251175Y368576D01*
X251246Y368529D01*
X251314Y368478D01*
X251379Y368425D01*
X251442Y368368D01*
X251503Y368309D01*
X251560Y368247D01*
X251615Y368182D01*
X251666Y368115D01*
X251715Y368045D01*
X251760Y367973D01*
X251802Y367900D01*
X251840Y367824D01*
X251875Y367747D01*
X251906Y367668D01*
X251934Y367588D01*
X251958Y367507D01*
X251978Y367424D01*
X251994Y367341D01*
X252006Y367257D01*
X252015Y367173D01*
X252019Y367088D01*
X252020Y367004D01*
X252017Y366919D01*
X252009Y366835D01*
X251998Y366751D01*
X251983Y366667D01*
X251965Y366585D01*
X251942Y366503D01*
X251916Y366422D01*
X251886Y366343D01*
X251852Y366265D01*
X251815Y366189D01*
X251774Y366115D01*
X250857Y364527D01*
X255177Y369073D02*
X251462Y372913D01*
X255177Y369073D02*
X257011Y372251D01*
X255190Y372031D02*
X257732Y370564D01*
X259755Y374068D02*
X254036Y377370D01*
X254953Y378958D01*
X254954Y378958D02*
X254998Y379030D01*
X255045Y379101D01*
X255096Y379169D01*
X255149Y379234D01*
X255206Y379297D01*
X255265Y379358D01*
X255327Y379415D01*
X255392Y379470D01*
X255459Y379521D01*
X255529Y379570D01*
X255601Y379615D01*
X255674Y379657D01*
X255750Y379695D01*
X255827Y379730D01*
X255906Y379761D01*
X255986Y379789D01*
X256067Y379813D01*
X256150Y379833D01*
X256233Y379849D01*
X256317Y379861D01*
X256401Y379870D01*
X256486Y379874D01*
X256570Y379875D01*
X256655Y379872D01*
X256739Y379864D01*
X256823Y379853D01*
X256907Y379838D01*
X256989Y379820D01*
X257071Y379797D01*
X257152Y379771D01*
X257231Y379741D01*
X257309Y379707D01*
X257385Y379670D01*
X257459Y379629D01*
X257459Y379630D02*
X260001Y378162D01*
X260000Y378161D02*
X260072Y378117D01*
X260143Y378070D01*
X260211Y378019D01*
X260276Y377966D01*
X260339Y377909D01*
X260400Y377850D01*
X260457Y377788D01*
X260512Y377723D01*
X260563Y377656D01*
X260612Y377586D01*
X260657Y377514D01*
X260699Y377441D01*
X260737Y377365D01*
X260772Y377288D01*
X260803Y377209D01*
X260831Y377129D01*
X260855Y377048D01*
X260875Y376965D01*
X260891Y376882D01*
X260903Y376798D01*
X260912Y376714D01*
X260916Y376630D01*
X260917Y376545D01*
X260914Y376460D01*
X260906Y376376D01*
X260895Y376292D01*
X260880Y376208D01*
X260862Y376126D01*
X260839Y376044D01*
X260813Y375963D01*
X260783Y375884D01*
X260749Y375806D01*
X260712Y375730D01*
X260671Y375656D01*
X260672Y375656D02*
X259755Y374068D01*
X266099Y385157D02*
X260380Y388459D01*
X261297Y390048D01*
X261298Y390047D02*
X261342Y390119D01*
X261389Y390190D01*
X261440Y390258D01*
X261493Y390323D01*
X261550Y390386D01*
X261609Y390447D01*
X261671Y390504D01*
X261736Y390559D01*
X261803Y390610D01*
X261873Y390659D01*
X261945Y390704D01*
X262018Y390746D01*
X262094Y390784D01*
X262171Y390819D01*
X262250Y390850D01*
X262330Y390878D01*
X262411Y390902D01*
X262494Y390922D01*
X262577Y390938D01*
X262661Y390950D01*
X262745Y390959D01*
X262830Y390963D01*
X262914Y390964D01*
X262999Y390961D01*
X263083Y390953D01*
X263167Y390942D01*
X263251Y390927D01*
X263333Y390909D01*
X263415Y390886D01*
X263496Y390860D01*
X263575Y390830D01*
X263653Y390796D01*
X263729Y390759D01*
X263803Y390718D01*
X263875Y390674D01*
X263946Y390627D01*
X264014Y390576D01*
X264079Y390523D01*
X264142Y390466D01*
X264203Y390407D01*
X264260Y390345D01*
X264315Y390280D01*
X264366Y390213D01*
X264415Y390143D01*
X264460Y390071D01*
X264502Y389998D01*
X264540Y389922D01*
X264575Y389845D01*
X264606Y389766D01*
X264634Y389686D01*
X264658Y389605D01*
X264678Y389522D01*
X264694Y389439D01*
X264706Y389355D01*
X264715Y389271D01*
X264719Y389186D01*
X264720Y389102D01*
X264717Y389017D01*
X264709Y388933D01*
X264698Y388849D01*
X264683Y388765D01*
X264665Y388683D01*
X264642Y388601D01*
X264616Y388520D01*
X264586Y388441D01*
X264552Y388363D01*
X264515Y388287D01*
X264474Y388213D01*
X263557Y386625D01*
X269148Y390438D02*
X270248Y392344D01*
X270249Y392344D02*
X270285Y392409D01*
X270317Y392476D01*
X270346Y392545D01*
X270371Y392615D01*
X270393Y392686D01*
X270411Y392758D01*
X270425Y392831D01*
X270436Y392905D01*
X270443Y392979D01*
X270446Y393053D01*
X270445Y393128D01*
X270441Y393202D01*
X270433Y393276D01*
X270421Y393349D01*
X270405Y393422D01*
X270386Y393494D01*
X270363Y393565D01*
X270337Y393634D01*
X270307Y393702D01*
X270273Y393769D01*
X270237Y393833D01*
X270197Y393896D01*
X270154Y393957D01*
X270108Y394015D01*
X270059Y394071D01*
X270007Y394125D01*
X269953Y394176D01*
X269896Y394224D01*
X269837Y394269D01*
X269775Y394311D01*
X269712Y394349D01*
X269711Y394349D02*
X269076Y394716D01*
X269011Y394752D01*
X268944Y394784D01*
X268875Y394813D01*
X268805Y394838D01*
X268734Y394860D01*
X268662Y394878D01*
X268589Y394892D01*
X268515Y394903D01*
X268441Y394910D01*
X268367Y394913D01*
X268292Y394912D01*
X268218Y394908D01*
X268144Y394900D01*
X268071Y394888D01*
X267998Y394872D01*
X267926Y394853D01*
X267855Y394830D01*
X267786Y394804D01*
X267718Y394774D01*
X267651Y394740D01*
X267587Y394704D01*
X267524Y394664D01*
X267463Y394621D01*
X267405Y394575D01*
X267349Y394526D01*
X267295Y394474D01*
X267244Y394420D01*
X267197Y394363D01*
X267151Y394304D01*
X267110Y394242D01*
X267071Y394179D01*
X267071Y394178D02*
X265970Y392272D01*
X263429Y393740D01*
X265263Y396917D01*
X266736Y399468D02*
X272455Y396166D01*
X266736Y399468D02*
X267653Y401056D01*
X267654Y401056D02*
X267698Y401128D01*
X267745Y401199D01*
X267796Y401267D01*
X267849Y401332D01*
X267906Y401395D01*
X267965Y401456D01*
X268027Y401513D01*
X268092Y401568D01*
X268159Y401619D01*
X268229Y401668D01*
X268301Y401713D01*
X268374Y401755D01*
X268450Y401793D01*
X268527Y401828D01*
X268606Y401859D01*
X268686Y401887D01*
X268767Y401911D01*
X268850Y401931D01*
X268933Y401947D01*
X269017Y401959D01*
X269101Y401968D01*
X269186Y401972D01*
X269270Y401973D01*
X269355Y401970D01*
X269439Y401962D01*
X269523Y401951D01*
X269607Y401936D01*
X269689Y401918D01*
X269771Y401895D01*
X269852Y401869D01*
X269931Y401839D01*
X270009Y401805D01*
X270085Y401768D01*
X270159Y401727D01*
X270159Y401728D02*
X272701Y400260D01*
X272700Y400259D02*
X272772Y400215D01*
X272843Y400168D01*
X272911Y400117D01*
X272976Y400064D01*
X273039Y400007D01*
X273100Y399948D01*
X273157Y399886D01*
X273212Y399821D01*
X273263Y399754D01*
X273312Y399684D01*
X273357Y399612D01*
X273399Y399539D01*
X273437Y399463D01*
X273472Y399386D01*
X273503Y399307D01*
X273531Y399227D01*
X273555Y399146D01*
X273575Y399063D01*
X273591Y398980D01*
X273603Y398896D01*
X273612Y398812D01*
X273616Y398728D01*
X273617Y398643D01*
X273614Y398558D01*
X273606Y398474D01*
X273595Y398390D01*
X273580Y398306D01*
X273562Y398224D01*
X273539Y398142D01*
X273513Y398061D01*
X273483Y397982D01*
X273449Y397904D01*
X273412Y397828D01*
X273371Y397754D01*
X273372Y397754D02*
X272455Y396166D01*
X278545Y406747D02*
X272826Y410049D01*
X273743Y411638D01*
X273744Y411637D02*
X273788Y411709D01*
X273835Y411780D01*
X273886Y411848D01*
X273939Y411913D01*
X273996Y411976D01*
X274055Y412037D01*
X274117Y412094D01*
X274182Y412149D01*
X274249Y412200D01*
X274319Y412249D01*
X274391Y412294D01*
X274464Y412336D01*
X274540Y412374D01*
X274617Y412409D01*
X274696Y412440D01*
X274776Y412468D01*
X274857Y412492D01*
X274940Y412512D01*
X275023Y412528D01*
X275107Y412540D01*
X275191Y412549D01*
X275276Y412553D01*
X275360Y412554D01*
X275445Y412551D01*
X275529Y412543D01*
X275613Y412532D01*
X275697Y412517D01*
X275779Y412499D01*
X275861Y412476D01*
X275942Y412450D01*
X276021Y412420D01*
X276099Y412386D01*
X276175Y412349D01*
X276249Y412308D01*
X276321Y412264D01*
X276392Y412217D01*
X276460Y412166D01*
X276525Y412113D01*
X276588Y412056D01*
X276649Y411997D01*
X276706Y411935D01*
X276761Y411870D01*
X276812Y411803D01*
X276861Y411733D01*
X276906Y411661D01*
X276948Y411588D01*
X276986Y411512D01*
X277021Y411435D01*
X277052Y411356D01*
X277080Y411276D01*
X277104Y411195D01*
X277124Y411112D01*
X277140Y411029D01*
X277152Y410945D01*
X277161Y410861D01*
X277165Y410776D01*
X277166Y410692D01*
X277163Y410607D01*
X277155Y410523D01*
X277144Y410439D01*
X277129Y410355D01*
X277111Y410273D01*
X277088Y410191D01*
X277062Y410110D01*
X277032Y410031D01*
X276998Y409953D01*
X276961Y409877D01*
X276920Y409803D01*
X276003Y408215D01*
X278416Y413862D02*
X279517Y415768D01*
X279517Y415769D02*
X279555Y415832D01*
X279597Y415894D01*
X279642Y415953D01*
X279690Y416010D01*
X279741Y416064D01*
X279795Y416116D01*
X279851Y416165D01*
X279909Y416211D01*
X279970Y416254D01*
X280033Y416294D01*
X280097Y416330D01*
X280164Y416364D01*
X280232Y416394D01*
X280302Y416420D01*
X280372Y416443D01*
X280444Y416462D01*
X280517Y416478D01*
X280590Y416490D01*
X280664Y416498D01*
X280738Y416502D01*
X280813Y416503D01*
X280887Y416500D01*
X280961Y416493D01*
X281035Y416482D01*
X281108Y416468D01*
X281180Y416450D01*
X281251Y416428D01*
X281321Y416403D01*
X281390Y416374D01*
X281457Y416342D01*
X281522Y416306D01*
X281840Y416122D01*
X281839Y416122D02*
X281911Y416078D01*
X281982Y416031D01*
X282050Y415980D01*
X282115Y415927D01*
X282178Y415870D01*
X282239Y415811D01*
X282296Y415749D01*
X282351Y415684D01*
X282402Y415617D01*
X282451Y415547D01*
X282496Y415475D01*
X282538Y415402D01*
X282576Y415326D01*
X282611Y415249D01*
X282642Y415170D01*
X282670Y415090D01*
X282694Y415009D01*
X282714Y414926D01*
X282730Y414843D01*
X282742Y414759D01*
X282751Y414675D01*
X282755Y414590D01*
X282756Y414506D01*
X282753Y414421D01*
X282745Y414337D01*
X282734Y414253D01*
X282719Y414169D01*
X282701Y414087D01*
X282678Y414005D01*
X282652Y413924D01*
X282622Y413845D01*
X282588Y413767D01*
X282551Y413691D01*
X282510Y413617D01*
X282466Y413545D01*
X282419Y413474D01*
X282368Y413406D01*
X282315Y413341D01*
X282258Y413278D01*
X282199Y413217D01*
X282137Y413160D01*
X282072Y413105D01*
X282005Y413054D01*
X281935Y413005D01*
X281863Y412960D01*
X281790Y412918D01*
X281714Y412880D01*
X281637Y412845D01*
X281558Y412814D01*
X281478Y412786D01*
X281397Y412762D01*
X281314Y412742D01*
X281231Y412726D01*
X281147Y412714D01*
X281063Y412705D01*
X280978Y412701D01*
X280894Y412700D01*
X280809Y412703D01*
X280725Y412711D01*
X280641Y412722D01*
X280557Y412737D01*
X280475Y412755D01*
X280393Y412778D01*
X280312Y412804D01*
X280233Y412834D01*
X280155Y412868D01*
X280079Y412905D01*
X280005Y412946D01*
X280005Y412945D02*
X278416Y413862D01*
X278325Y413918D01*
X278235Y413976D01*
X278147Y414038D01*
X278062Y414103D01*
X277979Y414171D01*
X277899Y414242D01*
X277821Y414316D01*
X277746Y414393D01*
X277674Y414472D01*
X277605Y414554D01*
X277539Y414639D01*
X277476Y414725D01*
X277417Y414814D01*
X277360Y414906D01*
X277307Y414999D01*
X277258Y415094D01*
X277212Y415191D01*
X277169Y415289D01*
X277130Y415389D01*
X277095Y415490D01*
X277063Y415593D01*
X277036Y415696D01*
X277012Y415801D01*
X276992Y415906D01*
X276975Y416012D01*
X276963Y416119D01*
X276954Y416225D01*
X276950Y416333D01*
X276949Y416440D01*
X276952Y416547D01*
X276960Y416654D01*
X276971Y416760D01*
X276986Y416867D01*
X277005Y416972D01*
X277027Y417077D01*
X277054Y417181D01*
X277084Y417284D01*
X277118Y417385D01*
X277156Y417486D01*
X277197Y417585D01*
X277242Y417682D01*
X277290Y417778D01*
X277342Y417871D01*
X279182Y421058D02*
X284901Y417756D01*
X279182Y421058D02*
X280099Y422646D01*
X280100Y422646D02*
X280144Y422718D01*
X280191Y422789D01*
X280242Y422857D01*
X280295Y422922D01*
X280352Y422985D01*
X280411Y423046D01*
X280473Y423103D01*
X280538Y423158D01*
X280605Y423209D01*
X280675Y423258D01*
X280747Y423303D01*
X280820Y423345D01*
X280896Y423383D01*
X280973Y423418D01*
X281052Y423449D01*
X281132Y423477D01*
X281213Y423501D01*
X281296Y423521D01*
X281379Y423537D01*
X281463Y423549D01*
X281547Y423558D01*
X281632Y423562D01*
X281716Y423563D01*
X281801Y423560D01*
X281885Y423552D01*
X281969Y423541D01*
X282053Y423526D01*
X282135Y423508D01*
X282217Y423485D01*
X282298Y423459D01*
X282377Y423429D01*
X282455Y423395D01*
X282531Y423358D01*
X282605Y423317D01*
X282605Y423318D02*
X285147Y421850D01*
X285146Y421849D02*
X285218Y421805D01*
X285289Y421758D01*
X285357Y421707D01*
X285422Y421654D01*
X285485Y421597D01*
X285546Y421538D01*
X285603Y421476D01*
X285658Y421411D01*
X285709Y421344D01*
X285758Y421274D01*
X285803Y421202D01*
X285845Y421129D01*
X285883Y421053D01*
X285918Y420976D01*
X285949Y420897D01*
X285977Y420817D01*
X286001Y420736D01*
X286021Y420653D01*
X286037Y420570D01*
X286049Y420486D01*
X286058Y420402D01*
X286062Y420318D01*
X286063Y420233D01*
X286060Y420148D01*
X286052Y420064D01*
X286041Y419980D01*
X286026Y419896D01*
X286008Y419814D01*
X285985Y419732D01*
X285959Y419651D01*
X285929Y419572D01*
X285895Y419494D01*
X285858Y419418D01*
X285817Y419344D01*
X285818Y419344D02*
X284901Y417756D01*
X328452Y377791D02*
X334171Y374489D01*
X328452Y377791D02*
X329369Y379380D01*
X329370Y379379D02*
X329414Y379451D01*
X329461Y379522D01*
X329512Y379590D01*
X329565Y379655D01*
X329622Y379718D01*
X329681Y379779D01*
X329743Y379836D01*
X329808Y379891D01*
X329875Y379942D01*
X329945Y379991D01*
X330017Y380036D01*
X330090Y380078D01*
X330166Y380116D01*
X330243Y380151D01*
X330322Y380182D01*
X330402Y380210D01*
X330483Y380234D01*
X330566Y380254D01*
X330649Y380270D01*
X330733Y380282D01*
X330817Y380291D01*
X330902Y380295D01*
X330986Y380296D01*
X331071Y380293D01*
X331155Y380285D01*
X331239Y380274D01*
X331323Y380259D01*
X331405Y380241D01*
X331487Y380218D01*
X331568Y380192D01*
X331647Y380162D01*
X331725Y380128D01*
X331801Y380091D01*
X331875Y380050D01*
X331947Y380006D01*
X332018Y379959D01*
X332086Y379908D01*
X332151Y379855D01*
X332214Y379798D01*
X332275Y379739D01*
X332332Y379677D01*
X332387Y379612D01*
X332438Y379545D01*
X332487Y379475D01*
X332532Y379403D01*
X332574Y379330D01*
X332612Y379254D01*
X332647Y379177D01*
X332678Y379098D01*
X332706Y379018D01*
X332730Y378937D01*
X332750Y378854D01*
X332766Y378771D01*
X332778Y378687D01*
X332787Y378603D01*
X332791Y378518D01*
X332792Y378434D01*
X332789Y378349D01*
X332781Y378265D01*
X332770Y378181D01*
X332755Y378097D01*
X332737Y378015D01*
X332714Y377933D01*
X332688Y377852D01*
X332658Y377773D01*
X332624Y377695D01*
X332587Y377619D01*
X332546Y377545D01*
X331629Y375957D01*
X334042Y381604D02*
X335143Y383510D01*
X335143Y383511D02*
X335181Y383574D01*
X335223Y383636D01*
X335268Y383695D01*
X335316Y383752D01*
X335367Y383806D01*
X335421Y383858D01*
X335477Y383907D01*
X335535Y383953D01*
X335596Y383996D01*
X335659Y384036D01*
X335723Y384072D01*
X335790Y384106D01*
X335858Y384136D01*
X335928Y384162D01*
X335998Y384185D01*
X336070Y384204D01*
X336143Y384220D01*
X336216Y384232D01*
X336290Y384240D01*
X336364Y384244D01*
X336439Y384245D01*
X336513Y384242D01*
X336587Y384235D01*
X336661Y384224D01*
X336734Y384210D01*
X336806Y384192D01*
X336877Y384170D01*
X336947Y384145D01*
X337016Y384116D01*
X337083Y384084D01*
X337148Y384048D01*
X337466Y383864D01*
X337465Y383864D02*
X337537Y383820D01*
X337608Y383773D01*
X337676Y383722D01*
X337741Y383669D01*
X337804Y383612D01*
X337865Y383553D01*
X337922Y383491D01*
X337977Y383426D01*
X338028Y383359D01*
X338077Y383289D01*
X338122Y383217D01*
X338164Y383144D01*
X338202Y383068D01*
X338237Y382991D01*
X338268Y382912D01*
X338296Y382832D01*
X338320Y382751D01*
X338340Y382668D01*
X338356Y382585D01*
X338368Y382501D01*
X338377Y382417D01*
X338381Y382332D01*
X338382Y382248D01*
X338379Y382163D01*
X338371Y382079D01*
X338360Y381995D01*
X338345Y381911D01*
X338327Y381829D01*
X338304Y381747D01*
X338278Y381666D01*
X338248Y381587D01*
X338214Y381509D01*
X338177Y381433D01*
X338136Y381359D01*
X338092Y381287D01*
X338045Y381216D01*
X337994Y381148D01*
X337941Y381083D01*
X337884Y381020D01*
X337825Y380959D01*
X337763Y380902D01*
X337698Y380847D01*
X337631Y380796D01*
X337561Y380747D01*
X337489Y380702D01*
X337416Y380660D01*
X337340Y380622D01*
X337263Y380587D01*
X337184Y380556D01*
X337104Y380528D01*
X337023Y380504D01*
X336940Y380484D01*
X336857Y380468D01*
X336773Y380456D01*
X336689Y380447D01*
X336604Y380443D01*
X336520Y380442D01*
X336435Y380445D01*
X336351Y380453D01*
X336267Y380464D01*
X336183Y380479D01*
X336101Y380497D01*
X336019Y380520D01*
X335938Y380546D01*
X335859Y380576D01*
X335781Y380610D01*
X335705Y380647D01*
X335631Y380688D01*
X335631Y380687D02*
X334042Y381604D01*
X333951Y381660D01*
X333861Y381718D01*
X333773Y381780D01*
X333688Y381845D01*
X333605Y381913D01*
X333525Y381984D01*
X333447Y382058D01*
X333372Y382135D01*
X333300Y382214D01*
X333231Y382296D01*
X333165Y382381D01*
X333102Y382467D01*
X333043Y382556D01*
X332986Y382648D01*
X332933Y382741D01*
X332884Y382836D01*
X332838Y382933D01*
X332795Y383031D01*
X332756Y383131D01*
X332721Y383232D01*
X332689Y383335D01*
X332662Y383438D01*
X332638Y383543D01*
X332618Y383648D01*
X332601Y383754D01*
X332589Y383861D01*
X332580Y383967D01*
X332576Y384075D01*
X332575Y384182D01*
X332578Y384289D01*
X332586Y384396D01*
X332597Y384502D01*
X332612Y384609D01*
X332631Y384714D01*
X332653Y384819D01*
X332680Y384923D01*
X332710Y385026D01*
X332744Y385127D01*
X332782Y385228D01*
X332823Y385327D01*
X332868Y385424D01*
X332916Y385520D01*
X332968Y385613D01*
X334808Y388800D02*
X338938Y386415D01*
X338938Y386416D02*
X339012Y386375D01*
X339088Y386338D01*
X339166Y386304D01*
X339245Y386274D01*
X339326Y386248D01*
X339408Y386225D01*
X339490Y386207D01*
X339574Y386192D01*
X339658Y386181D01*
X339742Y386173D01*
X339827Y386170D01*
X339911Y386171D01*
X339996Y386175D01*
X340080Y386184D01*
X340164Y386196D01*
X340247Y386212D01*
X340330Y386232D01*
X340411Y386256D01*
X340491Y386284D01*
X340570Y386315D01*
X340647Y386350D01*
X340723Y386388D01*
X340796Y386430D01*
X340868Y386475D01*
X340938Y386524D01*
X341005Y386575D01*
X341070Y386630D01*
X341132Y386687D01*
X341191Y386748D01*
X341248Y386811D01*
X341301Y386876D01*
X341352Y386944D01*
X341399Y387015D01*
X341443Y387087D01*
X341484Y387161D01*
X341521Y387237D01*
X341555Y387315D01*
X341585Y387394D01*
X341611Y387475D01*
X341634Y387557D01*
X341652Y387639D01*
X341667Y387723D01*
X341678Y387807D01*
X341686Y387891D01*
X341689Y387976D01*
X341688Y388060D01*
X341684Y388145D01*
X341675Y388229D01*
X341663Y388313D01*
X341647Y388396D01*
X341627Y388479D01*
X341603Y388560D01*
X341575Y388640D01*
X341544Y388719D01*
X341509Y388796D01*
X341471Y388872D01*
X341429Y388945D01*
X341384Y389017D01*
X341335Y389087D01*
X341284Y389154D01*
X341229Y389219D01*
X341172Y389281D01*
X341111Y389340D01*
X341048Y389397D01*
X340983Y389450D01*
X340915Y389501D01*
X340844Y389548D01*
X340772Y389592D01*
X340773Y389592D02*
X336642Y391977D01*
X314990Y355439D02*
X320709Y352137D01*
X314990Y355439D02*
X315907Y357028D01*
X315908Y357027D02*
X315952Y357099D01*
X315999Y357170D01*
X316050Y357238D01*
X316103Y357303D01*
X316160Y357366D01*
X316219Y357427D01*
X316281Y357484D01*
X316346Y357539D01*
X316413Y357590D01*
X316483Y357639D01*
X316555Y357684D01*
X316628Y357726D01*
X316704Y357764D01*
X316781Y357799D01*
X316860Y357830D01*
X316940Y357858D01*
X317021Y357882D01*
X317104Y357902D01*
X317187Y357918D01*
X317271Y357930D01*
X317355Y357939D01*
X317440Y357943D01*
X317524Y357944D01*
X317609Y357941D01*
X317693Y357933D01*
X317777Y357922D01*
X317861Y357907D01*
X317943Y357889D01*
X318025Y357866D01*
X318106Y357840D01*
X318185Y357810D01*
X318263Y357776D01*
X318339Y357739D01*
X318413Y357698D01*
X318485Y357654D01*
X318556Y357607D01*
X318624Y357556D01*
X318689Y357503D01*
X318752Y357446D01*
X318813Y357387D01*
X318870Y357325D01*
X318925Y357260D01*
X318976Y357193D01*
X319025Y357123D01*
X319070Y357051D01*
X319112Y356978D01*
X319150Y356902D01*
X319185Y356825D01*
X319216Y356746D01*
X319244Y356666D01*
X319268Y356585D01*
X319288Y356502D01*
X319304Y356419D01*
X319316Y356335D01*
X319325Y356251D01*
X319329Y356166D01*
X319330Y356082D01*
X319327Y355997D01*
X319319Y355913D01*
X319308Y355829D01*
X319293Y355745D01*
X319275Y355663D01*
X319252Y355581D01*
X319226Y355500D01*
X319196Y355421D01*
X319162Y355343D01*
X319125Y355267D01*
X319084Y355193D01*
X318167Y353605D01*
X323758Y357418D02*
X324858Y359324D01*
X324859Y359324D02*
X324895Y359389D01*
X324927Y359456D01*
X324956Y359525D01*
X324981Y359595D01*
X325003Y359666D01*
X325021Y359738D01*
X325035Y359811D01*
X325046Y359885D01*
X325053Y359959D01*
X325056Y360033D01*
X325055Y360108D01*
X325051Y360182D01*
X325043Y360256D01*
X325031Y360329D01*
X325015Y360402D01*
X324996Y360474D01*
X324973Y360545D01*
X324947Y360614D01*
X324917Y360682D01*
X324883Y360749D01*
X324847Y360813D01*
X324807Y360876D01*
X324764Y360937D01*
X324718Y360995D01*
X324669Y361051D01*
X324617Y361105D01*
X324563Y361156D01*
X324506Y361204D01*
X324447Y361249D01*
X324385Y361291D01*
X324322Y361329D01*
X324321Y361329D02*
X323686Y361696D01*
X323621Y361732D01*
X323554Y361764D01*
X323485Y361793D01*
X323415Y361818D01*
X323344Y361840D01*
X323272Y361858D01*
X323199Y361872D01*
X323125Y361883D01*
X323051Y361890D01*
X322977Y361893D01*
X322902Y361892D01*
X322828Y361888D01*
X322754Y361880D01*
X322681Y361868D01*
X322608Y361852D01*
X322536Y361833D01*
X322465Y361810D01*
X322396Y361784D01*
X322328Y361754D01*
X322261Y361720D01*
X322197Y361684D01*
X322134Y361644D01*
X322073Y361601D01*
X322015Y361555D01*
X321959Y361506D01*
X321905Y361454D01*
X321854Y361400D01*
X321807Y361343D01*
X321761Y361284D01*
X321720Y361222D01*
X321681Y361159D01*
X321681Y361158D02*
X320580Y359252D01*
X318039Y360720D01*
X319873Y363897D01*
X321346Y366448D02*
X325476Y364063D01*
X325476Y364064D02*
X325550Y364023D01*
X325626Y363986D01*
X325704Y363952D01*
X325783Y363922D01*
X325864Y363896D01*
X325946Y363873D01*
X326028Y363855D01*
X326112Y363840D01*
X326196Y363829D01*
X326280Y363821D01*
X326365Y363818D01*
X326449Y363819D01*
X326534Y363823D01*
X326618Y363832D01*
X326702Y363844D01*
X326785Y363860D01*
X326868Y363880D01*
X326949Y363904D01*
X327029Y363932D01*
X327108Y363963D01*
X327185Y363998D01*
X327261Y364036D01*
X327334Y364078D01*
X327406Y364123D01*
X327476Y364172D01*
X327543Y364223D01*
X327608Y364278D01*
X327670Y364335D01*
X327729Y364396D01*
X327786Y364459D01*
X327839Y364524D01*
X327890Y364592D01*
X327937Y364663D01*
X327981Y364735D01*
X328022Y364809D01*
X328059Y364885D01*
X328093Y364963D01*
X328123Y365042D01*
X328149Y365123D01*
X328172Y365205D01*
X328190Y365287D01*
X328205Y365371D01*
X328216Y365455D01*
X328224Y365539D01*
X328227Y365624D01*
X328226Y365708D01*
X328222Y365793D01*
X328213Y365877D01*
X328201Y365961D01*
X328185Y366044D01*
X328165Y366127D01*
X328141Y366208D01*
X328113Y366288D01*
X328082Y366367D01*
X328047Y366444D01*
X328009Y366520D01*
X327967Y366593D01*
X327922Y366665D01*
X327873Y366735D01*
X327822Y366802D01*
X327767Y366867D01*
X327710Y366929D01*
X327649Y366988D01*
X327586Y367045D01*
X327521Y367098D01*
X327453Y367149D01*
X327382Y367196D01*
X327310Y367240D01*
X327311Y367240D02*
X323180Y369625D01*
X302290Y333595D02*
X308009Y330293D01*
X302290Y333595D02*
X303207Y335184D01*
X303208Y335183D02*
X303252Y335255D01*
X303299Y335326D01*
X303350Y335394D01*
X303403Y335459D01*
X303460Y335522D01*
X303519Y335583D01*
X303581Y335640D01*
X303646Y335695D01*
X303713Y335746D01*
X303783Y335795D01*
X303855Y335840D01*
X303928Y335882D01*
X304004Y335920D01*
X304081Y335955D01*
X304160Y335986D01*
X304240Y336014D01*
X304321Y336038D01*
X304404Y336058D01*
X304487Y336074D01*
X304571Y336086D01*
X304655Y336095D01*
X304740Y336099D01*
X304824Y336100D01*
X304909Y336097D01*
X304993Y336089D01*
X305077Y336078D01*
X305161Y336063D01*
X305243Y336045D01*
X305325Y336022D01*
X305406Y335996D01*
X305485Y335966D01*
X305563Y335932D01*
X305639Y335895D01*
X305713Y335854D01*
X305785Y335810D01*
X305856Y335763D01*
X305924Y335712D01*
X305989Y335659D01*
X306052Y335602D01*
X306113Y335543D01*
X306170Y335481D01*
X306225Y335416D01*
X306276Y335349D01*
X306325Y335279D01*
X306370Y335207D01*
X306412Y335134D01*
X306450Y335058D01*
X306485Y334981D01*
X306516Y334902D01*
X306544Y334822D01*
X306568Y334741D01*
X306588Y334658D01*
X306604Y334575D01*
X306616Y334491D01*
X306625Y334407D01*
X306629Y334322D01*
X306630Y334238D01*
X306627Y334153D01*
X306619Y334069D01*
X306608Y333985D01*
X306593Y333901D01*
X306575Y333819D01*
X306552Y333737D01*
X306526Y333656D01*
X306496Y333577D01*
X306462Y333499D01*
X306425Y333423D01*
X306384Y333349D01*
X305467Y331761D01*
X309787Y336307D02*
X306072Y340147D01*
X309787Y336307D02*
X311621Y339485D01*
X309800Y339265D02*
X312342Y337798D01*
X312776Y342219D02*
X308646Y344604D01*
X312776Y342220D02*
X312850Y342179D01*
X312926Y342142D01*
X313004Y342108D01*
X313083Y342078D01*
X313164Y342052D01*
X313246Y342029D01*
X313328Y342011D01*
X313412Y341996D01*
X313496Y341985D01*
X313580Y341977D01*
X313665Y341974D01*
X313749Y341975D01*
X313834Y341979D01*
X313918Y341988D01*
X314002Y342000D01*
X314085Y342016D01*
X314168Y342036D01*
X314249Y342060D01*
X314329Y342088D01*
X314408Y342119D01*
X314485Y342154D01*
X314561Y342192D01*
X314634Y342234D01*
X314706Y342279D01*
X314776Y342328D01*
X314843Y342379D01*
X314908Y342434D01*
X314970Y342491D01*
X315029Y342552D01*
X315086Y342615D01*
X315139Y342680D01*
X315190Y342748D01*
X315237Y342819D01*
X315281Y342891D01*
X315322Y342965D01*
X315359Y343041D01*
X315393Y343119D01*
X315423Y343198D01*
X315449Y343279D01*
X315472Y343361D01*
X315490Y343443D01*
X315505Y343527D01*
X315516Y343611D01*
X315524Y343695D01*
X315527Y343780D01*
X315526Y343864D01*
X315522Y343949D01*
X315513Y344033D01*
X315501Y344117D01*
X315485Y344200D01*
X315465Y344283D01*
X315441Y344364D01*
X315413Y344444D01*
X315382Y344523D01*
X315347Y344600D01*
X315309Y344676D01*
X315267Y344749D01*
X315222Y344821D01*
X315173Y344891D01*
X315122Y344958D01*
X315067Y345023D01*
X315010Y345085D01*
X314949Y345144D01*
X314886Y345201D01*
X314821Y345254D01*
X314753Y345305D01*
X314682Y345352D01*
X314610Y345396D01*
X314611Y345396D02*
X310480Y347781D01*
X336384Y256819D02*
X335834Y255866D01*
X336384Y256819D02*
X339561Y254984D01*
X338461Y253078D01*
X338423Y253015D01*
X338381Y252953D01*
X338336Y252894D01*
X338288Y252837D01*
X338237Y252783D01*
X338183Y252731D01*
X338127Y252682D01*
X338069Y252636D01*
X338008Y252593D01*
X337945Y252553D01*
X337881Y252517D01*
X337814Y252483D01*
X337746Y252453D01*
X337677Y252427D01*
X337606Y252404D01*
X337534Y252385D01*
X337461Y252369D01*
X337388Y252357D01*
X337314Y252349D01*
X337240Y252345D01*
X337165Y252344D01*
X337091Y252347D01*
X337017Y252354D01*
X336943Y252365D01*
X336870Y252379D01*
X336798Y252397D01*
X336727Y252419D01*
X336657Y252444D01*
X336588Y252473D01*
X336521Y252505D01*
X336456Y252541D01*
X333279Y254375D01*
X333278Y254375D02*
X333215Y254413D01*
X333153Y254455D01*
X333094Y254500D01*
X333037Y254548D01*
X332983Y254599D01*
X332931Y254653D01*
X332882Y254709D01*
X332836Y254767D01*
X332793Y254828D01*
X332753Y254891D01*
X332717Y254955D01*
X332683Y255022D01*
X332653Y255090D01*
X332627Y255159D01*
X332604Y255230D01*
X332585Y255302D01*
X332569Y255375D01*
X332557Y255448D01*
X332549Y255522D01*
X332545Y255596D01*
X332544Y255671D01*
X332547Y255745D01*
X332554Y255819D01*
X332565Y255893D01*
X332579Y255966D01*
X332597Y256038D01*
X332619Y256109D01*
X332644Y256179D01*
X332673Y256248D01*
X332705Y256315D01*
X332741Y256380D01*
X332742Y256380D02*
X333842Y258286D01*
X335422Y261022D02*
X341141Y257720D01*
X342975Y260897D02*
X335422Y261022D01*
X337256Y264199D02*
X342975Y260897D01*
X344555Y263633D02*
X338835Y266935D01*
X339752Y268523D01*
X339753Y268523D02*
X339797Y268595D01*
X339844Y268666D01*
X339895Y268734D01*
X339948Y268799D01*
X340005Y268862D01*
X340064Y268923D01*
X340126Y268980D01*
X340191Y269035D01*
X340258Y269086D01*
X340328Y269135D01*
X340400Y269180D01*
X340473Y269222D01*
X340549Y269260D01*
X340626Y269295D01*
X340705Y269326D01*
X340785Y269354D01*
X340866Y269378D01*
X340949Y269398D01*
X341032Y269414D01*
X341116Y269426D01*
X341200Y269435D01*
X341285Y269439D01*
X341369Y269440D01*
X341454Y269437D01*
X341538Y269429D01*
X341622Y269418D01*
X341706Y269403D01*
X341788Y269385D01*
X341870Y269362D01*
X341951Y269336D01*
X342030Y269306D01*
X342108Y269272D01*
X342184Y269235D01*
X342258Y269194D01*
X342258Y269195D02*
X344800Y267727D01*
X344800Y267726D02*
X344872Y267682D01*
X344943Y267635D01*
X345011Y267584D01*
X345076Y267531D01*
X345139Y267474D01*
X345200Y267415D01*
X345257Y267353D01*
X345312Y267288D01*
X345363Y267221D01*
X345412Y267151D01*
X345457Y267079D01*
X345499Y267006D01*
X345537Y266930D01*
X345572Y266853D01*
X345603Y266774D01*
X345631Y266694D01*
X345655Y266613D01*
X345675Y266530D01*
X345691Y266447D01*
X345703Y266363D01*
X345712Y266279D01*
X345716Y266195D01*
X345717Y266110D01*
X345714Y266025D01*
X345706Y265941D01*
X345695Y265857D01*
X345680Y265773D01*
X345662Y265691D01*
X345639Y265609D01*
X345613Y265528D01*
X345583Y265449D01*
X345549Y265371D01*
X345512Y265295D01*
X345471Y265221D01*
X345472Y265221D02*
X344555Y263633D01*
X390486Y224815D02*
X389936Y223862D01*
X390486Y224815D02*
X393663Y222980D01*
X392563Y221074D01*
X392525Y221011D01*
X392483Y220949D01*
X392438Y220890D01*
X392390Y220833D01*
X392339Y220779D01*
X392285Y220727D01*
X392229Y220678D01*
X392171Y220632D01*
X392110Y220589D01*
X392047Y220549D01*
X391983Y220513D01*
X391916Y220479D01*
X391848Y220449D01*
X391779Y220423D01*
X391708Y220400D01*
X391636Y220381D01*
X391563Y220365D01*
X391490Y220353D01*
X391416Y220345D01*
X391342Y220341D01*
X391267Y220340D01*
X391193Y220343D01*
X391119Y220350D01*
X391045Y220361D01*
X390972Y220375D01*
X390900Y220393D01*
X390829Y220415D01*
X390759Y220440D01*
X390690Y220469D01*
X390623Y220501D01*
X390558Y220537D01*
X387381Y222371D01*
X387380Y222371D02*
X387317Y222409D01*
X387255Y222451D01*
X387196Y222496D01*
X387139Y222544D01*
X387085Y222595D01*
X387033Y222649D01*
X386984Y222705D01*
X386938Y222763D01*
X386895Y222824D01*
X386855Y222887D01*
X386819Y222951D01*
X386785Y223018D01*
X386755Y223086D01*
X386729Y223155D01*
X386706Y223226D01*
X386687Y223298D01*
X386671Y223371D01*
X386659Y223444D01*
X386651Y223518D01*
X386647Y223592D01*
X386646Y223667D01*
X386649Y223741D01*
X386656Y223815D01*
X386667Y223889D01*
X386681Y223962D01*
X386699Y224034D01*
X386721Y224105D01*
X386746Y224175D01*
X386775Y224244D01*
X386807Y224311D01*
X386843Y224376D01*
X386844Y224376D02*
X387944Y226282D01*
X389524Y229018D02*
X395243Y225716D01*
X397077Y228893D02*
X389524Y229018D01*
X391358Y232195D02*
X397077Y228893D01*
X398657Y231629D02*
X392937Y234931D01*
X393854Y236519D01*
X393855Y236519D02*
X393899Y236591D01*
X393946Y236662D01*
X393997Y236730D01*
X394050Y236795D01*
X394107Y236858D01*
X394166Y236919D01*
X394228Y236976D01*
X394293Y237031D01*
X394360Y237082D01*
X394430Y237131D01*
X394502Y237176D01*
X394575Y237218D01*
X394651Y237256D01*
X394728Y237291D01*
X394807Y237322D01*
X394887Y237350D01*
X394968Y237374D01*
X395051Y237394D01*
X395134Y237410D01*
X395218Y237422D01*
X395302Y237431D01*
X395387Y237435D01*
X395471Y237436D01*
X395556Y237433D01*
X395640Y237425D01*
X395724Y237414D01*
X395808Y237399D01*
X395890Y237381D01*
X395972Y237358D01*
X396053Y237332D01*
X396132Y237302D01*
X396210Y237268D01*
X396286Y237231D01*
X396360Y237190D01*
X396360Y237191D02*
X398902Y235723D01*
X398902Y235722D02*
X398974Y235678D01*
X399045Y235631D01*
X399113Y235580D01*
X399178Y235527D01*
X399241Y235470D01*
X399302Y235411D01*
X399359Y235349D01*
X399414Y235284D01*
X399465Y235217D01*
X399514Y235147D01*
X399559Y235075D01*
X399601Y235002D01*
X399639Y234926D01*
X399674Y234849D01*
X399705Y234770D01*
X399733Y234690D01*
X399757Y234609D01*
X399777Y234526D01*
X399793Y234443D01*
X399805Y234359D01*
X399814Y234275D01*
X399818Y234191D01*
X399819Y234106D01*
X399816Y234021D01*
X399808Y233937D01*
X399797Y233853D01*
X399782Y233769D01*
X399764Y233687D01*
X399741Y233605D01*
X399715Y233524D01*
X399685Y233445D01*
X399651Y233367D01*
X399614Y233291D01*
X399573Y233217D01*
X399574Y233217D02*
X398657Y231629D01*
X411780Y388708D02*
X412330Y389661D01*
X415507Y387826D01*
X414407Y385920D01*
X414369Y385857D01*
X414327Y385795D01*
X414282Y385736D01*
X414234Y385679D01*
X414183Y385625D01*
X414129Y385573D01*
X414073Y385524D01*
X414015Y385478D01*
X413954Y385435D01*
X413891Y385395D01*
X413827Y385359D01*
X413760Y385325D01*
X413692Y385295D01*
X413623Y385269D01*
X413552Y385246D01*
X413480Y385227D01*
X413407Y385211D01*
X413334Y385199D01*
X413260Y385191D01*
X413186Y385187D01*
X413111Y385186D01*
X413037Y385189D01*
X412963Y385196D01*
X412889Y385207D01*
X412816Y385221D01*
X412744Y385239D01*
X412673Y385261D01*
X412603Y385286D01*
X412534Y385315D01*
X412467Y385347D01*
X412402Y385383D01*
X409225Y387217D01*
X409224Y387217D02*
X409161Y387255D01*
X409099Y387297D01*
X409040Y387342D01*
X408983Y387390D01*
X408929Y387441D01*
X408877Y387495D01*
X408828Y387551D01*
X408782Y387609D01*
X408739Y387670D01*
X408699Y387733D01*
X408663Y387797D01*
X408629Y387864D01*
X408599Y387932D01*
X408573Y388001D01*
X408550Y388072D01*
X408531Y388144D01*
X408515Y388217D01*
X408503Y388290D01*
X408495Y388364D01*
X408491Y388438D01*
X408490Y388513D01*
X408493Y388587D01*
X408500Y388661D01*
X408511Y388735D01*
X408525Y388808D01*
X408543Y388880D01*
X408565Y388951D01*
X408590Y389021D01*
X408619Y389090D01*
X408651Y389157D01*
X408687Y389222D01*
X408688Y389222D02*
X409788Y391128D01*
X411368Y393864D02*
X417087Y390562D01*
X418921Y393739D02*
X411368Y393864D01*
X413202Y397041D02*
X418921Y393739D01*
X420501Y396475D02*
X414781Y399777D01*
X415698Y401365D01*
X415699Y401365D02*
X415743Y401437D01*
X415790Y401508D01*
X415841Y401576D01*
X415894Y401641D01*
X415951Y401704D01*
X416010Y401765D01*
X416072Y401822D01*
X416137Y401877D01*
X416204Y401928D01*
X416274Y401977D01*
X416346Y402022D01*
X416419Y402064D01*
X416495Y402102D01*
X416572Y402137D01*
X416651Y402168D01*
X416731Y402196D01*
X416812Y402220D01*
X416895Y402240D01*
X416978Y402256D01*
X417062Y402268D01*
X417146Y402277D01*
X417231Y402281D01*
X417315Y402282D01*
X417400Y402279D01*
X417484Y402271D01*
X417568Y402260D01*
X417652Y402245D01*
X417734Y402227D01*
X417816Y402204D01*
X417897Y402178D01*
X417976Y402148D01*
X418054Y402114D01*
X418130Y402077D01*
X418204Y402036D01*
X418204Y402037D02*
X420746Y400569D01*
X420746Y400568D02*
X420818Y400524D01*
X420889Y400477D01*
X420957Y400426D01*
X421022Y400373D01*
X421085Y400316D01*
X421146Y400257D01*
X421203Y400195D01*
X421258Y400130D01*
X421309Y400063D01*
X421358Y399993D01*
X421403Y399921D01*
X421445Y399848D01*
X421483Y399772D01*
X421518Y399695D01*
X421549Y399616D01*
X421577Y399536D01*
X421601Y399455D01*
X421621Y399372D01*
X421637Y399289D01*
X421649Y399205D01*
X421658Y399121D01*
X421662Y399037D01*
X421663Y398952D01*
X421660Y398867D01*
X421652Y398783D01*
X421641Y398699D01*
X421626Y398615D01*
X421608Y398533D01*
X421585Y398451D01*
X421559Y398370D01*
X421529Y398291D01*
X421495Y398213D01*
X421458Y398137D01*
X421417Y398063D01*
X421418Y398063D02*
X420501Y396475D01*
X467194Y357911D02*
X466644Y356958D01*
X467194Y357911D02*
X470371Y356076D01*
X469271Y354170D01*
X469233Y354107D01*
X469191Y354045D01*
X469146Y353986D01*
X469098Y353929D01*
X469047Y353875D01*
X468993Y353823D01*
X468937Y353774D01*
X468879Y353728D01*
X468818Y353685D01*
X468755Y353645D01*
X468691Y353609D01*
X468624Y353575D01*
X468556Y353545D01*
X468487Y353519D01*
X468416Y353496D01*
X468344Y353477D01*
X468271Y353461D01*
X468198Y353449D01*
X468124Y353441D01*
X468050Y353437D01*
X467975Y353436D01*
X467901Y353439D01*
X467827Y353446D01*
X467753Y353457D01*
X467680Y353471D01*
X467608Y353489D01*
X467537Y353511D01*
X467467Y353536D01*
X467398Y353565D01*
X467331Y353597D01*
X467266Y353633D01*
X464089Y355467D01*
X464088Y355467D02*
X464025Y355505D01*
X463963Y355547D01*
X463904Y355592D01*
X463847Y355640D01*
X463793Y355691D01*
X463741Y355745D01*
X463692Y355801D01*
X463646Y355859D01*
X463603Y355920D01*
X463563Y355983D01*
X463527Y356047D01*
X463493Y356114D01*
X463463Y356182D01*
X463437Y356251D01*
X463414Y356322D01*
X463395Y356394D01*
X463379Y356467D01*
X463367Y356540D01*
X463359Y356614D01*
X463355Y356688D01*
X463354Y356763D01*
X463357Y356837D01*
X463364Y356911D01*
X463375Y356985D01*
X463389Y357058D01*
X463407Y357130D01*
X463429Y357201D01*
X463454Y357271D01*
X463483Y357340D01*
X463515Y357407D01*
X463551Y357472D01*
X463552Y357472D02*
X464652Y359378D01*
X466232Y362114D02*
X471951Y358812D01*
X473785Y361989D02*
X466232Y362114D01*
X468066Y365291D02*
X473785Y361989D01*
X475365Y364725D02*
X469645Y368027D01*
X470562Y369615D01*
X470563Y369615D02*
X470607Y369687D01*
X470654Y369758D01*
X470705Y369826D01*
X470758Y369891D01*
X470815Y369954D01*
X470874Y370015D01*
X470936Y370072D01*
X471001Y370127D01*
X471068Y370178D01*
X471138Y370227D01*
X471210Y370272D01*
X471283Y370314D01*
X471359Y370352D01*
X471436Y370387D01*
X471515Y370418D01*
X471595Y370446D01*
X471676Y370470D01*
X471759Y370490D01*
X471842Y370506D01*
X471926Y370518D01*
X472010Y370527D01*
X472095Y370531D01*
X472179Y370532D01*
X472264Y370529D01*
X472348Y370521D01*
X472432Y370510D01*
X472516Y370495D01*
X472598Y370477D01*
X472680Y370454D01*
X472761Y370428D01*
X472840Y370398D01*
X472918Y370364D01*
X472994Y370327D01*
X473068Y370286D01*
X473068Y370287D02*
X475610Y368819D01*
X475610Y368818D02*
X475682Y368774D01*
X475753Y368727D01*
X475821Y368676D01*
X475886Y368623D01*
X475949Y368566D01*
X476010Y368507D01*
X476067Y368445D01*
X476122Y368380D01*
X476173Y368313D01*
X476222Y368243D01*
X476267Y368171D01*
X476309Y368098D01*
X476347Y368022D01*
X476382Y367945D01*
X476413Y367866D01*
X476441Y367786D01*
X476465Y367705D01*
X476485Y367622D01*
X476501Y367539D01*
X476513Y367455D01*
X476522Y367371D01*
X476526Y367287D01*
X476527Y367202D01*
X476524Y367117D01*
X476516Y367033D01*
X476505Y366949D01*
X476490Y366865D01*
X476472Y366783D01*
X476449Y366701D01*
X476423Y366620D01*
X476393Y366541D01*
X476359Y366463D01*
X476322Y366387D01*
X476281Y366313D01*
X476282Y366313D02*
X475365Y364725D01*
X402328Y364965D02*
X395508Y366361D01*
X397709Y370174D02*
X402328Y364965D01*
X404718Y369105D02*
X398998Y372407D01*
X399915Y373995D01*
X399916Y373995D02*
X399960Y374067D01*
X400007Y374138D01*
X400058Y374206D01*
X400111Y374271D01*
X400168Y374334D01*
X400227Y374395D01*
X400289Y374452D01*
X400354Y374507D01*
X400421Y374558D01*
X400491Y374607D01*
X400563Y374652D01*
X400636Y374694D01*
X400712Y374732D01*
X400789Y374767D01*
X400868Y374798D01*
X400948Y374826D01*
X401029Y374850D01*
X401112Y374870D01*
X401195Y374886D01*
X401279Y374898D01*
X401363Y374907D01*
X401448Y374911D01*
X401532Y374912D01*
X401617Y374909D01*
X401701Y374901D01*
X401785Y374890D01*
X401869Y374875D01*
X401951Y374857D01*
X402033Y374834D01*
X402114Y374808D01*
X402193Y374778D01*
X402271Y374744D01*
X402347Y374707D01*
X402421Y374666D01*
X402421Y374667D02*
X404963Y373199D01*
X405035Y373155D01*
X405106Y373108D01*
X405174Y373057D01*
X405239Y373004D01*
X405302Y372947D01*
X405363Y372888D01*
X405420Y372826D01*
X405475Y372761D01*
X405526Y372694D01*
X405575Y372624D01*
X405620Y372552D01*
X405662Y372479D01*
X405700Y372403D01*
X405735Y372326D01*
X405766Y372247D01*
X405794Y372167D01*
X405818Y372086D01*
X405838Y372003D01*
X405854Y371920D01*
X405866Y371836D01*
X405875Y371752D01*
X405879Y371668D01*
X405880Y371583D01*
X405877Y371498D01*
X405869Y371414D01*
X405858Y371330D01*
X405843Y371246D01*
X405825Y371164D01*
X405802Y371082D01*
X405776Y371001D01*
X405746Y370922D01*
X405712Y370844D01*
X405675Y370768D01*
X405634Y370694D01*
X405635Y370693D02*
X404718Y369105D01*
X408131Y375017D02*
X402412Y378319D01*
X403329Y379908D01*
X403330Y379908D02*
X403374Y379980D01*
X403421Y380051D01*
X403472Y380119D01*
X403525Y380184D01*
X403582Y380247D01*
X403641Y380308D01*
X403703Y380365D01*
X403768Y380420D01*
X403835Y380471D01*
X403905Y380520D01*
X403977Y380565D01*
X404050Y380607D01*
X404126Y380645D01*
X404203Y380680D01*
X404282Y380711D01*
X404362Y380739D01*
X404443Y380763D01*
X404526Y380783D01*
X404609Y380799D01*
X404693Y380811D01*
X404777Y380820D01*
X404862Y380824D01*
X404946Y380825D01*
X405031Y380822D01*
X405115Y380814D01*
X405199Y380803D01*
X405283Y380788D01*
X405365Y380770D01*
X405447Y380747D01*
X405528Y380721D01*
X405607Y380691D01*
X405685Y380657D01*
X405761Y380620D01*
X405835Y380579D01*
X405835Y380580D02*
X408377Y379112D01*
X408377Y379111D02*
X408449Y379067D01*
X408520Y379020D01*
X408588Y378969D01*
X408653Y378916D01*
X408716Y378859D01*
X408777Y378800D01*
X408834Y378738D01*
X408889Y378673D01*
X408940Y378606D01*
X408989Y378536D01*
X409034Y378464D01*
X409076Y378391D01*
X409114Y378315D01*
X409149Y378238D01*
X409180Y378159D01*
X409208Y378079D01*
X409232Y377998D01*
X409252Y377915D01*
X409268Y377832D01*
X409280Y377748D01*
X409289Y377664D01*
X409293Y377580D01*
X409294Y377495D01*
X409291Y377410D01*
X409283Y377326D01*
X409272Y377242D01*
X409257Y377158D01*
X409239Y377076D01*
X409216Y376994D01*
X409190Y376913D01*
X409160Y376834D01*
X409126Y376756D01*
X409089Y376680D01*
X409048Y376606D01*
X408131Y375017D01*
X450626Y334357D02*
X457446Y332961D01*
X452827Y338170D01*
X454116Y340403D02*
X459836Y337101D01*
X454116Y340403D02*
X455033Y341991D01*
X455034Y341991D02*
X455078Y342063D01*
X455125Y342134D01*
X455176Y342202D01*
X455229Y342267D01*
X455286Y342330D01*
X455345Y342391D01*
X455407Y342448D01*
X455472Y342503D01*
X455539Y342554D01*
X455609Y342603D01*
X455681Y342648D01*
X455754Y342690D01*
X455830Y342728D01*
X455907Y342763D01*
X455986Y342794D01*
X456066Y342822D01*
X456147Y342846D01*
X456230Y342866D01*
X456313Y342882D01*
X456397Y342894D01*
X456481Y342903D01*
X456566Y342907D01*
X456650Y342908D01*
X456735Y342905D01*
X456819Y342897D01*
X456903Y342886D01*
X456987Y342871D01*
X457069Y342853D01*
X457151Y342830D01*
X457232Y342804D01*
X457311Y342774D01*
X457389Y342740D01*
X457465Y342703D01*
X457539Y342662D01*
X457539Y342663D02*
X460081Y341195D01*
X460153Y341151D01*
X460224Y341104D01*
X460292Y341053D01*
X460357Y341000D01*
X460420Y340943D01*
X460481Y340884D01*
X460538Y340822D01*
X460593Y340757D01*
X460644Y340690D01*
X460693Y340620D01*
X460738Y340548D01*
X460780Y340475D01*
X460818Y340399D01*
X460853Y340322D01*
X460884Y340243D01*
X460912Y340163D01*
X460936Y340082D01*
X460956Y339999D01*
X460972Y339916D01*
X460984Y339832D01*
X460993Y339748D01*
X460997Y339664D01*
X460998Y339579D01*
X460995Y339494D01*
X460987Y339410D01*
X460976Y339326D01*
X460961Y339242D01*
X460943Y339160D01*
X460920Y339078D01*
X460894Y338997D01*
X460864Y338918D01*
X460830Y338840D01*
X460793Y338764D01*
X460752Y338690D01*
X460753Y338689D02*
X459836Y337101D01*
X463249Y343013D02*
X457530Y346315D01*
X458447Y347904D01*
X458448Y347904D02*
X458492Y347976D01*
X458539Y348047D01*
X458590Y348115D01*
X458643Y348180D01*
X458700Y348243D01*
X458759Y348304D01*
X458821Y348361D01*
X458886Y348416D01*
X458953Y348467D01*
X459023Y348516D01*
X459095Y348561D01*
X459168Y348603D01*
X459244Y348641D01*
X459321Y348676D01*
X459400Y348707D01*
X459480Y348735D01*
X459561Y348759D01*
X459644Y348779D01*
X459727Y348795D01*
X459811Y348807D01*
X459895Y348816D01*
X459980Y348820D01*
X460064Y348821D01*
X460149Y348818D01*
X460233Y348810D01*
X460317Y348799D01*
X460401Y348784D01*
X460483Y348766D01*
X460565Y348743D01*
X460646Y348717D01*
X460725Y348687D01*
X460803Y348653D01*
X460879Y348616D01*
X460953Y348575D01*
X460953Y348576D02*
X463495Y347108D01*
X463495Y347107D02*
X463567Y347063D01*
X463638Y347016D01*
X463706Y346965D01*
X463771Y346912D01*
X463834Y346855D01*
X463895Y346796D01*
X463952Y346734D01*
X464007Y346669D01*
X464058Y346602D01*
X464107Y346532D01*
X464152Y346460D01*
X464194Y346387D01*
X464232Y346311D01*
X464267Y346234D01*
X464298Y346155D01*
X464326Y346075D01*
X464350Y345994D01*
X464370Y345911D01*
X464386Y345828D01*
X464398Y345744D01*
X464407Y345660D01*
X464411Y345576D01*
X464412Y345491D01*
X464409Y345406D01*
X464401Y345322D01*
X464390Y345238D01*
X464375Y345154D01*
X464357Y345072D01*
X464334Y344990D01*
X464308Y344909D01*
X464278Y344830D01*
X464244Y344752D01*
X464207Y344676D01*
X464166Y344602D01*
X463249Y343013D01*
X351528Y277081D02*
X344708Y278477D01*
X346909Y282290D02*
X351528Y277081D01*
X353918Y281221D02*
X348198Y284523D01*
X349115Y286111D01*
X349116Y286111D02*
X349160Y286183D01*
X349207Y286254D01*
X349258Y286322D01*
X349311Y286387D01*
X349368Y286450D01*
X349427Y286511D01*
X349489Y286568D01*
X349554Y286623D01*
X349621Y286674D01*
X349691Y286723D01*
X349763Y286768D01*
X349836Y286810D01*
X349912Y286848D01*
X349989Y286883D01*
X350068Y286914D01*
X350148Y286942D01*
X350229Y286966D01*
X350312Y286986D01*
X350395Y287002D01*
X350479Y287014D01*
X350563Y287023D01*
X350648Y287027D01*
X350732Y287028D01*
X350817Y287025D01*
X350901Y287017D01*
X350985Y287006D01*
X351069Y286991D01*
X351151Y286973D01*
X351233Y286950D01*
X351314Y286924D01*
X351393Y286894D01*
X351471Y286860D01*
X351547Y286823D01*
X351621Y286782D01*
X351621Y286783D02*
X354163Y285315D01*
X354235Y285271D01*
X354306Y285224D01*
X354374Y285173D01*
X354439Y285120D01*
X354502Y285063D01*
X354563Y285004D01*
X354620Y284942D01*
X354675Y284877D01*
X354726Y284810D01*
X354775Y284740D01*
X354820Y284668D01*
X354862Y284595D01*
X354900Y284519D01*
X354935Y284442D01*
X354966Y284363D01*
X354994Y284283D01*
X355018Y284202D01*
X355038Y284119D01*
X355054Y284036D01*
X355066Y283952D01*
X355075Y283868D01*
X355079Y283784D01*
X355080Y283699D01*
X355077Y283614D01*
X355069Y283530D01*
X355058Y283446D01*
X355043Y283362D01*
X355025Y283280D01*
X355002Y283198D01*
X354976Y283117D01*
X354946Y283038D01*
X354912Y282960D01*
X354875Y282884D01*
X354834Y282810D01*
X354835Y282809D02*
X353918Y281221D01*
X357331Y287133D02*
X351612Y290435D01*
X352529Y292024D01*
X352530Y292024D02*
X352574Y292096D01*
X352621Y292167D01*
X352672Y292235D01*
X352725Y292300D01*
X352782Y292363D01*
X352841Y292424D01*
X352903Y292481D01*
X352968Y292536D01*
X353035Y292587D01*
X353105Y292636D01*
X353177Y292681D01*
X353250Y292723D01*
X353326Y292761D01*
X353403Y292796D01*
X353482Y292827D01*
X353562Y292855D01*
X353643Y292879D01*
X353726Y292899D01*
X353809Y292915D01*
X353893Y292927D01*
X353977Y292936D01*
X354062Y292940D01*
X354146Y292941D01*
X354231Y292938D01*
X354315Y292930D01*
X354399Y292919D01*
X354483Y292904D01*
X354565Y292886D01*
X354647Y292863D01*
X354728Y292837D01*
X354807Y292807D01*
X354885Y292773D01*
X354961Y292736D01*
X355035Y292695D01*
X355035Y292696D02*
X357577Y291228D01*
X357577Y291227D02*
X357649Y291183D01*
X357720Y291136D01*
X357788Y291085D01*
X357853Y291032D01*
X357916Y290975D01*
X357977Y290916D01*
X358034Y290854D01*
X358089Y290789D01*
X358140Y290722D01*
X358189Y290652D01*
X358234Y290580D01*
X358276Y290507D01*
X358314Y290431D01*
X358349Y290354D01*
X358380Y290275D01*
X358408Y290195D01*
X358432Y290114D01*
X358452Y290031D01*
X358468Y289948D01*
X358480Y289864D01*
X358489Y289780D01*
X358493Y289696D01*
X358494Y289611D01*
X358491Y289526D01*
X358483Y289442D01*
X358472Y289358D01*
X358457Y289274D01*
X358439Y289192D01*
X358416Y289110D01*
X358390Y289029D01*
X358360Y288950D01*
X358326Y288872D01*
X358289Y288796D01*
X358248Y288722D01*
X357331Y287133D01*
X400080Y245965D02*
X406900Y244569D01*
X402281Y249778D01*
X403570Y252011D02*
X409290Y248709D01*
X403570Y252011D02*
X404487Y253599D01*
X404488Y253599D02*
X404532Y253671D01*
X404579Y253742D01*
X404630Y253810D01*
X404683Y253875D01*
X404740Y253938D01*
X404799Y253999D01*
X404861Y254056D01*
X404926Y254111D01*
X404993Y254162D01*
X405063Y254211D01*
X405135Y254256D01*
X405208Y254298D01*
X405284Y254336D01*
X405361Y254371D01*
X405440Y254402D01*
X405520Y254430D01*
X405601Y254454D01*
X405684Y254474D01*
X405767Y254490D01*
X405851Y254502D01*
X405935Y254511D01*
X406020Y254515D01*
X406104Y254516D01*
X406189Y254513D01*
X406273Y254505D01*
X406357Y254494D01*
X406441Y254479D01*
X406523Y254461D01*
X406605Y254438D01*
X406686Y254412D01*
X406765Y254382D01*
X406843Y254348D01*
X406919Y254311D01*
X406993Y254270D01*
X406993Y254271D02*
X409535Y252803D01*
X409607Y252759D01*
X409678Y252712D01*
X409746Y252661D01*
X409811Y252608D01*
X409874Y252551D01*
X409935Y252492D01*
X409992Y252430D01*
X410047Y252365D01*
X410098Y252298D01*
X410147Y252228D01*
X410192Y252156D01*
X410234Y252083D01*
X410272Y252007D01*
X410307Y251930D01*
X410338Y251851D01*
X410366Y251771D01*
X410390Y251690D01*
X410410Y251607D01*
X410426Y251524D01*
X410438Y251440D01*
X410447Y251356D01*
X410451Y251272D01*
X410452Y251187D01*
X410449Y251102D01*
X410441Y251018D01*
X410430Y250934D01*
X410415Y250850D01*
X410397Y250768D01*
X410374Y250686D01*
X410348Y250605D01*
X410318Y250526D01*
X410284Y250448D01*
X410247Y250372D01*
X410206Y250298D01*
X410207Y250297D02*
X409290Y248709D01*
X412703Y254621D02*
X406984Y257923D01*
X407901Y259512D01*
X407902Y259512D02*
X407946Y259584D01*
X407993Y259655D01*
X408044Y259723D01*
X408097Y259788D01*
X408154Y259851D01*
X408213Y259912D01*
X408275Y259969D01*
X408340Y260024D01*
X408407Y260075D01*
X408477Y260124D01*
X408549Y260169D01*
X408622Y260211D01*
X408698Y260249D01*
X408775Y260284D01*
X408854Y260315D01*
X408934Y260343D01*
X409015Y260367D01*
X409098Y260387D01*
X409181Y260403D01*
X409265Y260415D01*
X409349Y260424D01*
X409434Y260428D01*
X409518Y260429D01*
X409603Y260426D01*
X409687Y260418D01*
X409771Y260407D01*
X409855Y260392D01*
X409937Y260374D01*
X410019Y260351D01*
X410100Y260325D01*
X410179Y260295D01*
X410257Y260261D01*
X410333Y260224D01*
X410407Y260183D01*
X410407Y260184D02*
X412949Y258716D01*
X412949Y258715D02*
X413021Y258671D01*
X413092Y258624D01*
X413160Y258573D01*
X413225Y258520D01*
X413288Y258463D01*
X413349Y258404D01*
X413406Y258342D01*
X413461Y258277D01*
X413512Y258210D01*
X413561Y258140D01*
X413606Y258068D01*
X413648Y257995D01*
X413686Y257919D01*
X413721Y257842D01*
X413752Y257763D01*
X413780Y257683D01*
X413804Y257602D01*
X413824Y257519D01*
X413840Y257436D01*
X413852Y257352D01*
X413861Y257268D01*
X413865Y257184D01*
X413866Y257099D01*
X413863Y257014D01*
X413855Y256930D01*
X413844Y256846D01*
X413829Y256762D01*
X413811Y256680D01*
X413788Y256598D01*
X413762Y256517D01*
X413732Y256438D01*
X413698Y256360D01*
X413661Y256284D01*
X413620Y256210D01*
X412703Y254621D01*
X419007Y265523D02*
X413288Y268825D01*
X414205Y270414D01*
X414206Y270413D02*
X414250Y270485D01*
X414297Y270556D01*
X414348Y270624D01*
X414401Y270689D01*
X414458Y270752D01*
X414517Y270813D01*
X414579Y270870D01*
X414644Y270925D01*
X414711Y270976D01*
X414781Y271025D01*
X414853Y271070D01*
X414926Y271112D01*
X415002Y271150D01*
X415079Y271185D01*
X415158Y271216D01*
X415238Y271244D01*
X415319Y271268D01*
X415402Y271288D01*
X415485Y271304D01*
X415569Y271316D01*
X415653Y271325D01*
X415738Y271329D01*
X415822Y271330D01*
X415907Y271327D01*
X415991Y271319D01*
X416075Y271308D01*
X416159Y271293D01*
X416241Y271275D01*
X416323Y271252D01*
X416404Y271226D01*
X416483Y271196D01*
X416561Y271162D01*
X416637Y271125D01*
X416711Y271084D01*
X416783Y271040D01*
X416854Y270993D01*
X416922Y270942D01*
X416987Y270889D01*
X417050Y270832D01*
X417111Y270773D01*
X417168Y270711D01*
X417223Y270646D01*
X417274Y270579D01*
X417323Y270509D01*
X417368Y270437D01*
X417410Y270364D01*
X417448Y270288D01*
X417483Y270211D01*
X417514Y270132D01*
X417542Y270052D01*
X417566Y269971D01*
X417586Y269888D01*
X417602Y269805D01*
X417614Y269721D01*
X417623Y269637D01*
X417627Y269552D01*
X417628Y269468D01*
X417625Y269383D01*
X417617Y269299D01*
X417606Y269215D01*
X417591Y269131D01*
X417573Y269049D01*
X417550Y268967D01*
X417524Y268886D01*
X417494Y268807D01*
X417460Y268729D01*
X417423Y268653D01*
X417382Y268579D01*
X416465Y266991D01*
X422056Y270804D02*
X422973Y272392D01*
X422972Y272393D02*
X423013Y272467D01*
X423050Y272543D01*
X423084Y272621D01*
X423114Y272700D01*
X423140Y272781D01*
X423163Y272863D01*
X423181Y272945D01*
X423196Y273029D01*
X423207Y273113D01*
X423215Y273197D01*
X423218Y273282D01*
X423217Y273366D01*
X423213Y273451D01*
X423204Y273535D01*
X423192Y273619D01*
X423176Y273702D01*
X423156Y273785D01*
X423132Y273866D01*
X423104Y273946D01*
X423073Y274025D01*
X423038Y274102D01*
X423000Y274178D01*
X422958Y274251D01*
X422913Y274323D01*
X422864Y274393D01*
X422813Y274460D01*
X422758Y274525D01*
X422701Y274587D01*
X422640Y274646D01*
X422577Y274703D01*
X422512Y274756D01*
X422444Y274807D01*
X422373Y274854D01*
X422301Y274898D01*
X422227Y274939D01*
X422151Y274976D01*
X422073Y275010D01*
X421994Y275040D01*
X421913Y275066D01*
X421831Y275089D01*
X421749Y275107D01*
X421665Y275122D01*
X421581Y275133D01*
X421497Y275141D01*
X421412Y275144D01*
X421328Y275143D01*
X421243Y275139D01*
X421159Y275130D01*
X421075Y275118D01*
X420992Y275102D01*
X420909Y275082D01*
X420828Y275058D01*
X420748Y275030D01*
X420669Y274999D01*
X420592Y274964D01*
X420516Y274926D01*
X420443Y274884D01*
X420371Y274839D01*
X420301Y274790D01*
X420234Y274739D01*
X420169Y274684D01*
X420107Y274627D01*
X420048Y274566D01*
X419991Y274503D01*
X419938Y274438D01*
X419887Y274370D01*
X419840Y274299D01*
X419796Y274227D01*
X417437Y276012D02*
X416337Y274106D01*
X417437Y276012D02*
X417476Y276076D01*
X417519Y276139D01*
X417565Y276199D01*
X417614Y276257D01*
X417666Y276312D01*
X417720Y276364D01*
X417777Y276413D01*
X417837Y276460D01*
X417899Y276503D01*
X417963Y276543D01*
X418029Y276580D01*
X418097Y276613D01*
X418167Y276643D01*
X418238Y276669D01*
X418310Y276691D01*
X418383Y276710D01*
X418457Y276724D01*
X418532Y276735D01*
X418607Y276743D01*
X418683Y276746D01*
X418758Y276745D01*
X418834Y276741D01*
X418909Y276732D01*
X418984Y276720D01*
X419057Y276704D01*
X419130Y276684D01*
X419202Y276660D01*
X419273Y276633D01*
X419342Y276602D01*
X419409Y276568D01*
X419474Y276530D01*
X419538Y276489D01*
X419599Y276445D01*
X419658Y276397D01*
X419714Y276347D01*
X419768Y276294D01*
X419819Y276238D01*
X419867Y276179D01*
X419912Y276118D01*
X419953Y276055D01*
X419992Y275990D01*
X420027Y275923D01*
X420058Y275854D01*
X420086Y275784D01*
X420110Y275712D01*
X420131Y275640D01*
X420147Y275566D01*
X420160Y275491D01*
X420169Y275416D01*
X420175Y275341D01*
X420176Y275265D01*
X420173Y275190D01*
X420167Y275115D01*
X420157Y275040D01*
X420142Y274965D01*
X420124Y274892D01*
X420103Y274820D01*
X420077Y274748D01*
X420048Y274679D01*
X420015Y274610D01*
X419979Y274544D01*
X419245Y273274D01*
X419644Y279834D02*
X425363Y276532D01*
X419644Y279834D02*
X420561Y281422D01*
X420562Y281422D02*
X420606Y281494D01*
X420653Y281565D01*
X420704Y281633D01*
X420757Y281698D01*
X420814Y281761D01*
X420873Y281822D01*
X420935Y281879D01*
X421000Y281934D01*
X421067Y281985D01*
X421137Y282034D01*
X421209Y282079D01*
X421282Y282121D01*
X421358Y282159D01*
X421435Y282194D01*
X421514Y282225D01*
X421594Y282253D01*
X421675Y282277D01*
X421758Y282297D01*
X421841Y282313D01*
X421925Y282325D01*
X422009Y282334D01*
X422094Y282338D01*
X422178Y282339D01*
X422263Y282336D01*
X422347Y282328D01*
X422431Y282317D01*
X422515Y282302D01*
X422597Y282284D01*
X422679Y282261D01*
X422760Y282235D01*
X422839Y282205D01*
X422917Y282171D01*
X422993Y282134D01*
X423067Y282093D01*
X423067Y282094D02*
X425609Y280626D01*
X425608Y280625D02*
X425680Y280581D01*
X425751Y280534D01*
X425819Y280483D01*
X425884Y280430D01*
X425947Y280373D01*
X426008Y280314D01*
X426065Y280252D01*
X426120Y280187D01*
X426171Y280120D01*
X426220Y280050D01*
X426265Y279978D01*
X426307Y279905D01*
X426345Y279829D01*
X426380Y279752D01*
X426411Y279673D01*
X426439Y279593D01*
X426463Y279512D01*
X426483Y279429D01*
X426499Y279346D01*
X426511Y279262D01*
X426520Y279178D01*
X426524Y279094D01*
X426525Y279009D01*
X426522Y278924D01*
X426514Y278840D01*
X426503Y278756D01*
X426488Y278672D01*
X426470Y278590D01*
X426447Y278508D01*
X426421Y278427D01*
X426391Y278348D01*
X426357Y278270D01*
X426320Y278194D01*
X426279Y278120D01*
X426280Y278120D02*
X425363Y276532D01*
X431199Y286859D02*
X425480Y290161D01*
X426397Y291750D01*
X426398Y291749D02*
X426442Y291821D01*
X426489Y291892D01*
X426540Y291960D01*
X426593Y292025D01*
X426650Y292088D01*
X426709Y292149D01*
X426771Y292206D01*
X426836Y292261D01*
X426903Y292312D01*
X426973Y292361D01*
X427045Y292406D01*
X427118Y292448D01*
X427194Y292486D01*
X427271Y292521D01*
X427350Y292552D01*
X427430Y292580D01*
X427511Y292604D01*
X427594Y292624D01*
X427677Y292640D01*
X427761Y292652D01*
X427845Y292661D01*
X427930Y292665D01*
X428014Y292666D01*
X428099Y292663D01*
X428183Y292655D01*
X428267Y292644D01*
X428351Y292629D01*
X428433Y292611D01*
X428515Y292588D01*
X428596Y292562D01*
X428675Y292532D01*
X428753Y292498D01*
X428829Y292461D01*
X428903Y292420D01*
X428975Y292376D01*
X429046Y292329D01*
X429114Y292278D01*
X429179Y292225D01*
X429242Y292168D01*
X429303Y292109D01*
X429360Y292047D01*
X429415Y291982D01*
X429466Y291915D01*
X429515Y291845D01*
X429560Y291773D01*
X429602Y291700D01*
X429640Y291624D01*
X429675Y291547D01*
X429706Y291468D01*
X429734Y291388D01*
X429758Y291307D01*
X429778Y291224D01*
X429794Y291141D01*
X429806Y291057D01*
X429815Y290973D01*
X429819Y290888D01*
X429820Y290804D01*
X429817Y290719D01*
X429809Y290635D01*
X429798Y290551D01*
X429783Y290467D01*
X429765Y290385D01*
X429742Y290303D01*
X429716Y290222D01*
X429686Y290143D01*
X429652Y290065D01*
X429615Y289989D01*
X429574Y289915D01*
X428657Y288327D01*
X429537Y297190D02*
X429579Y297259D01*
X429625Y297326D01*
X429674Y297390D01*
X429726Y297453D01*
X429781Y297512D01*
X429838Y297569D01*
X429899Y297623D01*
X429962Y297674D01*
X430027Y297722D01*
X430095Y297766D01*
X430165Y297807D01*
X430237Y297845D01*
X430310Y297879D01*
X430385Y297909D01*
X430462Y297936D01*
X430540Y297959D01*
X430618Y297978D01*
X430698Y297993D01*
X430778Y298004D01*
X430859Y298011D01*
X430940Y298015D01*
X431021Y298014D01*
X431102Y298009D01*
X431182Y298001D01*
X431263Y297988D01*
X431342Y297972D01*
X431420Y297952D01*
X431498Y297927D01*
X431574Y297899D01*
X431648Y297868D01*
X431721Y297833D01*
X431792Y297794D01*
X429537Y297190D02*
X429494Y297112D01*
X429455Y297032D01*
X429419Y296951D01*
X429386Y296868D01*
X429357Y296784D01*
X429331Y296699D01*
X429309Y296613D01*
X429290Y296526D01*
X429276Y296438D01*
X429265Y296350D01*
X429257Y296261D01*
X429253Y296173D01*
X429253Y296084D01*
X429257Y295995D01*
X429265Y295906D01*
X429276Y295818D01*
X429291Y295730D01*
X429309Y295643D01*
X429331Y295557D01*
X429357Y295472D01*
X429387Y295388D01*
X429419Y295306D01*
X429456Y295224D01*
X429495Y295145D01*
X429538Y295067D01*
X429584Y294991D01*
X429633Y294917D01*
X429686Y294845D01*
X429741Y294775D01*
X429799Y294708D01*
X432629Y296675D02*
X432609Y296752D01*
X432585Y296828D01*
X432557Y296903D01*
X432527Y296977D01*
X432493Y297049D01*
X432456Y297119D01*
X432415Y297188D01*
X432372Y297255D01*
X432326Y297320D01*
X432276Y297383D01*
X432224Y297443D01*
X432170Y297501D01*
X432113Y297557D01*
X432053Y297610D01*
X431991Y297660D01*
X431927Y297708D01*
X431861Y297752D01*
X431793Y297793D01*
X432630Y296675D02*
X434248Y292140D01*
X436082Y295317D01*
X437555Y297868D02*
X431836Y301170D01*
X432753Y302758D01*
X432754Y302758D02*
X432798Y302830D01*
X432845Y302901D01*
X432896Y302969D01*
X432949Y303034D01*
X433006Y303097D01*
X433065Y303158D01*
X433127Y303215D01*
X433192Y303270D01*
X433259Y303321D01*
X433329Y303370D01*
X433401Y303415D01*
X433474Y303457D01*
X433550Y303495D01*
X433627Y303530D01*
X433706Y303561D01*
X433786Y303589D01*
X433867Y303613D01*
X433950Y303633D01*
X434033Y303649D01*
X434117Y303661D01*
X434201Y303670D01*
X434286Y303674D01*
X434370Y303675D01*
X434455Y303672D01*
X434539Y303664D01*
X434623Y303653D01*
X434707Y303638D01*
X434789Y303620D01*
X434871Y303597D01*
X434952Y303571D01*
X435031Y303541D01*
X435109Y303507D01*
X435185Y303470D01*
X435259Y303429D01*
X435259Y303430D02*
X437801Y301962D01*
X437800Y301961D02*
X437872Y301917D01*
X437943Y301870D01*
X438011Y301819D01*
X438076Y301766D01*
X438139Y301709D01*
X438200Y301650D01*
X438257Y301588D01*
X438312Y301523D01*
X438363Y301456D01*
X438412Y301386D01*
X438457Y301314D01*
X438499Y301241D01*
X438537Y301165D01*
X438572Y301088D01*
X438603Y301009D01*
X438631Y300929D01*
X438655Y300848D01*
X438675Y300765D01*
X438691Y300682D01*
X438703Y300598D01*
X438712Y300514D01*
X438716Y300430D01*
X438717Y300345D01*
X438714Y300260D01*
X438706Y300176D01*
X438695Y300092D01*
X438680Y300008D01*
X438662Y299926D01*
X438639Y299844D01*
X438613Y299763D01*
X438583Y299684D01*
X438549Y299606D01*
X438512Y299530D01*
X438471Y299456D01*
X438472Y299456D02*
X437555Y297868D01*
X443899Y308957D02*
X438180Y312259D01*
X439097Y313848D01*
X439098Y313847D02*
X439142Y313919D01*
X439189Y313990D01*
X439240Y314058D01*
X439293Y314123D01*
X439350Y314186D01*
X439409Y314247D01*
X439471Y314304D01*
X439536Y314359D01*
X439603Y314410D01*
X439673Y314459D01*
X439745Y314504D01*
X439818Y314546D01*
X439894Y314584D01*
X439971Y314619D01*
X440050Y314650D01*
X440130Y314678D01*
X440211Y314702D01*
X440294Y314722D01*
X440377Y314738D01*
X440461Y314750D01*
X440545Y314759D01*
X440630Y314763D01*
X440714Y314764D01*
X440799Y314761D01*
X440883Y314753D01*
X440967Y314742D01*
X441051Y314727D01*
X441133Y314709D01*
X441215Y314686D01*
X441296Y314660D01*
X441375Y314630D01*
X441453Y314596D01*
X441529Y314559D01*
X441603Y314518D01*
X441675Y314474D01*
X441746Y314427D01*
X441814Y314376D01*
X441879Y314323D01*
X441942Y314266D01*
X442003Y314207D01*
X442060Y314145D01*
X442115Y314080D01*
X442166Y314013D01*
X442215Y313943D01*
X442260Y313871D01*
X442302Y313798D01*
X442340Y313722D01*
X442375Y313645D01*
X442406Y313566D01*
X442434Y313486D01*
X442458Y313405D01*
X442478Y313322D01*
X442494Y313239D01*
X442506Y313155D01*
X442515Y313071D01*
X442519Y312986D01*
X442520Y312902D01*
X442517Y312817D01*
X442509Y312733D01*
X442498Y312649D01*
X442483Y312565D01*
X442465Y312483D01*
X442442Y312401D01*
X442416Y312320D01*
X442386Y312241D01*
X442352Y312163D01*
X442315Y312087D01*
X442274Y312013D01*
X441357Y310425D01*
X442500Y316806D02*
X442146Y319128D01*
X447865Y315826D01*
X446948Y314238D02*
X448782Y317415D01*
X450255Y319966D02*
X444536Y323268D01*
X445453Y324856D01*
X445454Y324856D02*
X445498Y324928D01*
X445545Y324999D01*
X445596Y325067D01*
X445649Y325132D01*
X445706Y325195D01*
X445765Y325256D01*
X445827Y325313D01*
X445892Y325368D01*
X445959Y325419D01*
X446029Y325468D01*
X446101Y325513D01*
X446174Y325555D01*
X446250Y325593D01*
X446327Y325628D01*
X446406Y325659D01*
X446486Y325687D01*
X446567Y325711D01*
X446650Y325731D01*
X446733Y325747D01*
X446817Y325759D01*
X446901Y325768D01*
X446986Y325772D01*
X447070Y325773D01*
X447155Y325770D01*
X447239Y325762D01*
X447323Y325751D01*
X447407Y325736D01*
X447489Y325718D01*
X447571Y325695D01*
X447652Y325669D01*
X447731Y325639D01*
X447809Y325605D01*
X447885Y325568D01*
X447959Y325527D01*
X447959Y325528D02*
X450501Y324060D01*
X450500Y324059D02*
X450572Y324015D01*
X450643Y323968D01*
X450711Y323917D01*
X450776Y323864D01*
X450839Y323807D01*
X450900Y323748D01*
X450957Y323686D01*
X451012Y323621D01*
X451063Y323554D01*
X451112Y323484D01*
X451157Y323412D01*
X451199Y323339D01*
X451237Y323263D01*
X451272Y323186D01*
X451303Y323107D01*
X451331Y323027D01*
X451355Y322946D01*
X451375Y322863D01*
X451391Y322780D01*
X451403Y322696D01*
X451412Y322612D01*
X451416Y322528D01*
X451417Y322443D01*
X451414Y322358D01*
X451406Y322274D01*
X451395Y322190D01*
X451380Y322106D01*
X451362Y322024D01*
X451339Y321942D01*
X451313Y321861D01*
X451283Y321782D01*
X451249Y321704D01*
X451212Y321628D01*
X451171Y321554D01*
X451172Y321554D02*
X450255Y319966D01*
X388781Y342231D02*
X383062Y345533D01*
X383979Y347122D01*
X383980Y347121D02*
X384024Y347193D01*
X384071Y347264D01*
X384122Y347332D01*
X384175Y347397D01*
X384232Y347460D01*
X384291Y347521D01*
X384353Y347578D01*
X384418Y347633D01*
X384485Y347684D01*
X384555Y347733D01*
X384627Y347778D01*
X384700Y347820D01*
X384776Y347858D01*
X384853Y347893D01*
X384932Y347924D01*
X385012Y347952D01*
X385093Y347976D01*
X385176Y347996D01*
X385259Y348012D01*
X385343Y348024D01*
X385427Y348033D01*
X385512Y348037D01*
X385596Y348038D01*
X385681Y348035D01*
X385765Y348027D01*
X385849Y348016D01*
X385933Y348001D01*
X386015Y347983D01*
X386097Y347960D01*
X386178Y347934D01*
X386257Y347904D01*
X386335Y347870D01*
X386411Y347833D01*
X386485Y347792D01*
X386557Y347748D01*
X386628Y347701D01*
X386696Y347650D01*
X386761Y347597D01*
X386824Y347540D01*
X386885Y347481D01*
X386942Y347419D01*
X386997Y347354D01*
X387048Y347287D01*
X387097Y347217D01*
X387142Y347145D01*
X387184Y347072D01*
X387222Y346996D01*
X387257Y346919D01*
X387288Y346840D01*
X387316Y346760D01*
X387340Y346679D01*
X387360Y346596D01*
X387376Y346513D01*
X387388Y346429D01*
X387397Y346345D01*
X387401Y346260D01*
X387402Y346176D01*
X387399Y346091D01*
X387391Y346007D01*
X387380Y345923D01*
X387365Y345839D01*
X387347Y345757D01*
X387324Y345675D01*
X387298Y345594D01*
X387268Y345515D01*
X387234Y345437D01*
X387197Y345361D01*
X387156Y345287D01*
X386239Y343699D01*
X387382Y350080D02*
X387028Y352402D01*
X392747Y349100D01*
X391830Y347512D02*
X393664Y350689D01*
X393548Y354157D02*
X389418Y356542D01*
X393548Y354158D02*
X393622Y354117D01*
X393698Y354080D01*
X393776Y354046D01*
X393855Y354016D01*
X393936Y353990D01*
X394018Y353967D01*
X394100Y353949D01*
X394184Y353934D01*
X394268Y353923D01*
X394352Y353915D01*
X394437Y353912D01*
X394521Y353913D01*
X394606Y353917D01*
X394690Y353926D01*
X394774Y353938D01*
X394857Y353954D01*
X394940Y353974D01*
X395021Y353998D01*
X395101Y354026D01*
X395180Y354057D01*
X395257Y354092D01*
X395333Y354130D01*
X395406Y354172D01*
X395478Y354217D01*
X395548Y354266D01*
X395615Y354317D01*
X395680Y354372D01*
X395742Y354429D01*
X395801Y354490D01*
X395858Y354553D01*
X395911Y354618D01*
X395962Y354686D01*
X396009Y354757D01*
X396053Y354829D01*
X396094Y354903D01*
X396131Y354979D01*
X396165Y355057D01*
X396195Y355136D01*
X396221Y355217D01*
X396244Y355299D01*
X396262Y355381D01*
X396277Y355465D01*
X396288Y355549D01*
X396296Y355633D01*
X396299Y355718D01*
X396298Y355802D01*
X396294Y355887D01*
X396285Y355971D01*
X396273Y356055D01*
X396257Y356138D01*
X396237Y356221D01*
X396213Y356302D01*
X396185Y356382D01*
X396154Y356461D01*
X396119Y356538D01*
X396081Y356614D01*
X396039Y356687D01*
X395994Y356759D01*
X395945Y356829D01*
X395894Y356896D01*
X395839Y356961D01*
X395782Y357023D01*
X395721Y357082D01*
X395658Y357139D01*
X395593Y357192D01*
X395525Y357243D01*
X395454Y357290D01*
X395382Y357334D01*
X395383Y357334D02*
X391252Y359719D01*
X369854Y321657D02*
X375573Y318355D01*
X369854Y321657D02*
X370771Y323246D01*
X370772Y323245D02*
X370816Y323317D01*
X370863Y323388D01*
X370914Y323456D01*
X370967Y323521D01*
X371024Y323584D01*
X371083Y323645D01*
X371145Y323702D01*
X371210Y323757D01*
X371277Y323808D01*
X371347Y323857D01*
X371419Y323902D01*
X371492Y323944D01*
X371568Y323982D01*
X371645Y324017D01*
X371724Y324048D01*
X371804Y324076D01*
X371885Y324100D01*
X371968Y324120D01*
X372051Y324136D01*
X372135Y324148D01*
X372219Y324157D01*
X372304Y324161D01*
X372388Y324162D01*
X372473Y324159D01*
X372557Y324151D01*
X372641Y324140D01*
X372725Y324125D01*
X372807Y324107D01*
X372889Y324084D01*
X372970Y324058D01*
X373049Y324028D01*
X373127Y323994D01*
X373203Y323957D01*
X373277Y323916D01*
X373349Y323872D01*
X373420Y323825D01*
X373488Y323774D01*
X373553Y323721D01*
X373616Y323664D01*
X373677Y323605D01*
X373734Y323543D01*
X373789Y323478D01*
X373840Y323411D01*
X373889Y323341D01*
X373934Y323269D01*
X373976Y323196D01*
X374014Y323120D01*
X374049Y323043D01*
X374080Y322964D01*
X374108Y322884D01*
X374132Y322803D01*
X374152Y322720D01*
X374168Y322637D01*
X374180Y322553D01*
X374189Y322469D01*
X374193Y322384D01*
X374194Y322300D01*
X374191Y322215D01*
X374183Y322131D01*
X374172Y322047D01*
X374157Y321963D01*
X374139Y321881D01*
X374116Y321799D01*
X374090Y321718D01*
X374060Y321639D01*
X374026Y321561D01*
X373989Y321485D01*
X373948Y321411D01*
X373031Y319823D01*
X373911Y328686D02*
X373953Y328755D01*
X373999Y328822D01*
X374048Y328886D01*
X374100Y328949D01*
X374155Y329008D01*
X374212Y329065D01*
X374273Y329119D01*
X374336Y329170D01*
X374401Y329218D01*
X374469Y329262D01*
X374539Y329303D01*
X374611Y329341D01*
X374684Y329375D01*
X374759Y329405D01*
X374836Y329432D01*
X374914Y329455D01*
X374992Y329474D01*
X375072Y329489D01*
X375152Y329500D01*
X375233Y329507D01*
X375314Y329511D01*
X375395Y329510D01*
X375476Y329505D01*
X375556Y329497D01*
X375637Y329484D01*
X375716Y329468D01*
X375794Y329448D01*
X375872Y329423D01*
X375948Y329395D01*
X376022Y329364D01*
X376095Y329329D01*
X376166Y329290D01*
X373911Y328686D02*
X373868Y328608D01*
X373829Y328528D01*
X373793Y328447D01*
X373760Y328364D01*
X373731Y328280D01*
X373705Y328195D01*
X373683Y328109D01*
X373664Y328022D01*
X373650Y327934D01*
X373639Y327846D01*
X373631Y327757D01*
X373627Y327669D01*
X373627Y327580D01*
X373631Y327491D01*
X373639Y327402D01*
X373650Y327314D01*
X373665Y327226D01*
X373683Y327139D01*
X373705Y327053D01*
X373731Y326968D01*
X373761Y326884D01*
X373793Y326802D01*
X373830Y326720D01*
X373869Y326641D01*
X373912Y326563D01*
X373958Y326487D01*
X374007Y326413D01*
X374060Y326341D01*
X374115Y326271D01*
X374173Y326204D01*
X377003Y328171D02*
X376983Y328248D01*
X376959Y328324D01*
X376931Y328399D01*
X376901Y328473D01*
X376867Y328545D01*
X376830Y328615D01*
X376789Y328684D01*
X376746Y328751D01*
X376700Y328816D01*
X376650Y328879D01*
X376598Y328939D01*
X376544Y328997D01*
X376487Y329053D01*
X376427Y329106D01*
X376365Y329156D01*
X376301Y329204D01*
X376235Y329248D01*
X376167Y329289D01*
X377004Y328171D02*
X378622Y323636D01*
X380456Y326813D01*
X380340Y330281D02*
X376210Y332666D01*
X380340Y330282D02*
X380414Y330241D01*
X380490Y330204D01*
X380568Y330170D01*
X380647Y330140D01*
X380728Y330114D01*
X380810Y330091D01*
X380892Y330073D01*
X380976Y330058D01*
X381060Y330047D01*
X381144Y330039D01*
X381229Y330036D01*
X381313Y330037D01*
X381398Y330041D01*
X381482Y330050D01*
X381566Y330062D01*
X381649Y330078D01*
X381732Y330098D01*
X381813Y330122D01*
X381893Y330150D01*
X381972Y330181D01*
X382049Y330216D01*
X382125Y330254D01*
X382198Y330296D01*
X382270Y330341D01*
X382340Y330390D01*
X382407Y330441D01*
X382472Y330496D01*
X382534Y330553D01*
X382593Y330614D01*
X382650Y330677D01*
X382703Y330742D01*
X382754Y330810D01*
X382801Y330881D01*
X382845Y330953D01*
X382886Y331027D01*
X382923Y331103D01*
X382957Y331181D01*
X382987Y331260D01*
X383013Y331341D01*
X383036Y331423D01*
X383054Y331505D01*
X383069Y331589D01*
X383080Y331673D01*
X383088Y331757D01*
X383091Y331842D01*
X383090Y331926D01*
X383086Y332011D01*
X383077Y332095D01*
X383065Y332179D01*
X383049Y332262D01*
X383029Y332345D01*
X383005Y332426D01*
X382977Y332506D01*
X382946Y332585D01*
X382911Y332662D01*
X382873Y332738D01*
X382831Y332811D01*
X382786Y332883D01*
X382737Y332953D01*
X382686Y333020D01*
X382631Y333085D01*
X382574Y333147D01*
X382513Y333206D01*
X382450Y333263D01*
X382385Y333316D01*
X382317Y333367D01*
X382246Y333414D01*
X382174Y333458D01*
X382175Y333458D02*
X378044Y335843D01*
X357154Y300067D02*
X362873Y296765D01*
X357154Y300067D02*
X358071Y301656D01*
X358072Y301655D02*
X358116Y301727D01*
X358163Y301798D01*
X358214Y301866D01*
X358267Y301931D01*
X358324Y301994D01*
X358383Y302055D01*
X358445Y302112D01*
X358510Y302167D01*
X358577Y302218D01*
X358647Y302267D01*
X358719Y302312D01*
X358792Y302354D01*
X358868Y302392D01*
X358945Y302427D01*
X359024Y302458D01*
X359104Y302486D01*
X359185Y302510D01*
X359268Y302530D01*
X359351Y302546D01*
X359435Y302558D01*
X359519Y302567D01*
X359604Y302571D01*
X359688Y302572D01*
X359773Y302569D01*
X359857Y302561D01*
X359941Y302550D01*
X360025Y302535D01*
X360107Y302517D01*
X360189Y302494D01*
X360270Y302468D01*
X360349Y302438D01*
X360427Y302404D01*
X360503Y302367D01*
X360577Y302326D01*
X360649Y302282D01*
X360720Y302235D01*
X360788Y302184D01*
X360853Y302131D01*
X360916Y302074D01*
X360977Y302015D01*
X361034Y301953D01*
X361089Y301888D01*
X361140Y301821D01*
X361189Y301751D01*
X361234Y301679D01*
X361276Y301606D01*
X361314Y301530D01*
X361349Y301453D01*
X361380Y301374D01*
X361408Y301294D01*
X361432Y301213D01*
X361452Y301130D01*
X361468Y301047D01*
X361480Y300963D01*
X361489Y300879D01*
X361493Y300794D01*
X361494Y300710D01*
X361491Y300625D01*
X361483Y300541D01*
X361472Y300457D01*
X361457Y300373D01*
X361439Y300291D01*
X361416Y300209D01*
X361390Y300128D01*
X361360Y300049D01*
X361326Y299971D01*
X361289Y299895D01*
X361248Y299821D01*
X360331Y298233D01*
X365922Y302046D02*
X366839Y303634D01*
X366838Y303635D02*
X366879Y303709D01*
X366916Y303785D01*
X366950Y303863D01*
X366980Y303942D01*
X367006Y304023D01*
X367029Y304105D01*
X367047Y304187D01*
X367062Y304271D01*
X367073Y304355D01*
X367081Y304439D01*
X367084Y304524D01*
X367083Y304608D01*
X367079Y304693D01*
X367070Y304777D01*
X367058Y304861D01*
X367042Y304944D01*
X367022Y305027D01*
X366998Y305108D01*
X366970Y305188D01*
X366939Y305267D01*
X366904Y305344D01*
X366866Y305420D01*
X366824Y305493D01*
X366779Y305565D01*
X366730Y305635D01*
X366679Y305702D01*
X366624Y305767D01*
X366567Y305829D01*
X366506Y305888D01*
X366443Y305945D01*
X366378Y305998D01*
X366310Y306049D01*
X366239Y306096D01*
X366167Y306140D01*
X366093Y306181D01*
X366017Y306218D01*
X365939Y306252D01*
X365860Y306282D01*
X365779Y306308D01*
X365697Y306331D01*
X365615Y306349D01*
X365531Y306364D01*
X365447Y306375D01*
X365363Y306383D01*
X365278Y306386D01*
X365194Y306385D01*
X365109Y306381D01*
X365025Y306372D01*
X364941Y306360D01*
X364858Y306344D01*
X364775Y306324D01*
X364694Y306300D01*
X364614Y306272D01*
X364535Y306241D01*
X364458Y306206D01*
X364382Y306168D01*
X364309Y306126D01*
X364237Y306081D01*
X364167Y306032D01*
X364100Y305981D01*
X364035Y305926D01*
X363973Y305869D01*
X363914Y305808D01*
X363857Y305745D01*
X363804Y305680D01*
X363753Y305612D01*
X363706Y305541D01*
X363662Y305469D01*
X361303Y307254D02*
X360203Y305348D01*
X361303Y307254D02*
X361342Y307318D01*
X361385Y307381D01*
X361431Y307441D01*
X361480Y307499D01*
X361532Y307554D01*
X361586Y307606D01*
X361643Y307655D01*
X361703Y307702D01*
X361765Y307745D01*
X361829Y307785D01*
X361895Y307822D01*
X361963Y307855D01*
X362033Y307885D01*
X362104Y307911D01*
X362176Y307933D01*
X362249Y307952D01*
X362323Y307966D01*
X362398Y307977D01*
X362473Y307985D01*
X362549Y307988D01*
X362624Y307987D01*
X362700Y307983D01*
X362775Y307974D01*
X362850Y307962D01*
X362923Y307946D01*
X362996Y307926D01*
X363068Y307902D01*
X363139Y307875D01*
X363208Y307844D01*
X363275Y307810D01*
X363340Y307772D01*
X363404Y307731D01*
X363465Y307687D01*
X363524Y307639D01*
X363580Y307589D01*
X363634Y307536D01*
X363685Y307480D01*
X363733Y307421D01*
X363778Y307360D01*
X363819Y307297D01*
X363858Y307232D01*
X363893Y307165D01*
X363924Y307096D01*
X363952Y307026D01*
X363976Y306954D01*
X363997Y306882D01*
X364013Y306808D01*
X364026Y306733D01*
X364035Y306658D01*
X364041Y306583D01*
X364042Y306507D01*
X364039Y306432D01*
X364033Y306357D01*
X364023Y306282D01*
X364008Y306207D01*
X363990Y306134D01*
X363969Y306062D01*
X363943Y305990D01*
X363914Y305921D01*
X363881Y305852D01*
X363845Y305786D01*
X363111Y304516D01*
X367640Y308691D02*
X363510Y311076D01*
X367640Y308692D02*
X367714Y308651D01*
X367790Y308614D01*
X367868Y308580D01*
X367947Y308550D01*
X368028Y308524D01*
X368110Y308501D01*
X368192Y308483D01*
X368276Y308468D01*
X368360Y308457D01*
X368444Y308449D01*
X368529Y308446D01*
X368613Y308447D01*
X368698Y308451D01*
X368782Y308460D01*
X368866Y308472D01*
X368949Y308488D01*
X369032Y308508D01*
X369113Y308532D01*
X369193Y308560D01*
X369272Y308591D01*
X369349Y308626D01*
X369425Y308664D01*
X369498Y308706D01*
X369570Y308751D01*
X369640Y308800D01*
X369707Y308851D01*
X369772Y308906D01*
X369834Y308963D01*
X369893Y309024D01*
X369950Y309087D01*
X370003Y309152D01*
X370054Y309220D01*
X370101Y309291D01*
X370145Y309363D01*
X370186Y309437D01*
X370223Y309513D01*
X370257Y309591D01*
X370287Y309670D01*
X370313Y309751D01*
X370336Y309833D01*
X370354Y309915D01*
X370369Y309999D01*
X370380Y310083D01*
X370388Y310167D01*
X370391Y310252D01*
X370390Y310336D01*
X370386Y310421D01*
X370377Y310505D01*
X370365Y310589D01*
X370349Y310672D01*
X370329Y310755D01*
X370305Y310836D01*
X370277Y310916D01*
X370246Y310995D01*
X370211Y311072D01*
X370173Y311148D01*
X370131Y311221D01*
X370086Y311293D01*
X370037Y311363D01*
X369986Y311430D01*
X369931Y311495D01*
X369874Y311557D01*
X369813Y311616D01*
X369750Y311673D01*
X369685Y311726D01*
X369617Y311777D01*
X369546Y311824D01*
X369474Y311868D01*
X369475Y311868D02*
X365344Y314253D01*
D11*
X348208Y264628D02*
X341858Y253630D01*
X348208Y264628D02*
X356882Y266952D01*
X354558Y275627D01*
X360908Y286625D01*
X369582Y288949D01*
X341858Y253630D02*
X344182Y244955D01*
X369582Y288949D02*
X367258Y297624D01*
X373608Y308622D01*
X382282Y310946D01*
X379958Y319621D02*
X386308Y330619D01*
X394982Y332944D01*
X392658Y341618D01*
X399008Y352616D01*
X407682Y354941D01*
X379958Y319621D02*
X382282Y310946D01*
X407682Y354941D02*
X405358Y363615D01*
X411708Y374613D01*
X420382Y376938D01*
X389878Y247902D02*
X392202Y239228D01*
X404902Y261225D02*
X402578Y269899D01*
X404902Y261225D02*
X398552Y250227D01*
X389878Y247902D01*
X377178Y225905D02*
X344182Y244955D01*
X377178Y225905D02*
X385852Y228230D01*
X392202Y239228D01*
X417602Y283222D02*
X415278Y291896D01*
X417602Y283222D02*
X411252Y272224D01*
X402578Y269899D01*
X430302Y305219D02*
X427978Y313894D01*
X443002Y327216D02*
X440678Y335891D01*
X443002Y327216D02*
X436652Y316218D01*
X427978Y313894D01*
X423952Y294221D02*
X415278Y291896D01*
X423952Y294221D02*
X430302Y305219D01*
X455702Y349213D02*
X453378Y357888D01*
X455702Y349213D02*
X449352Y338215D01*
X440678Y335891D01*
X466078Y379885D02*
X433082Y398935D01*
X424408Y396610D01*
X418058Y385612D01*
X420382Y376938D01*
X453378Y357888D02*
X462052Y360212D01*
X468402Y371210D01*
X466078Y379885D01*
D123*
X447107Y396557D02*
X447055Y396472D01*
X447000Y396388D01*
X446942Y396307D01*
X446881Y396229D01*
X446817Y396152D01*
X446749Y396079D01*
X446679Y396008D01*
X446607Y395939D01*
X446531Y395874D01*
X446453Y395812D01*
X446373Y395753D01*
X446290Y395697D01*
X446206Y395644D01*
X446119Y395595D01*
X446030Y395549D01*
X445940Y395507D01*
X445848Y395468D01*
X445755Y395433D01*
X445660Y395401D01*
X445564Y395374D01*
X445468Y395350D01*
X445370Y395330D01*
X445271Y395313D01*
X445173Y395301D01*
X445073Y395292D01*
X444973Y395288D01*
X444874Y395287D01*
X444774Y395290D01*
X444675Y395298D01*
X444575Y395309D01*
X444477Y395324D01*
X444379Y395343D01*
X444282Y395365D01*
X444186Y395392D01*
X444091Y395422D01*
X443997Y395456D01*
X443904Y395493D01*
X443813Y395534D01*
X443724Y395579D01*
X443637Y395627D01*
X443516Y395699D01*
X443396Y395775D01*
X443279Y395853D01*
X443163Y395935D01*
X443050Y396019D01*
X442940Y396107D01*
X442831Y396197D01*
X442725Y396290D01*
X442621Y396386D01*
X442520Y396485D01*
X442422Y396586D01*
X442326Y396690D01*
X442233Y396796D01*
X442143Y396905D01*
X442056Y397016D01*
X441972Y397130D01*
X441891Y397245D01*
X441812Y397363D01*
X441737Y397482D01*
X441665Y397604D01*
X441597Y397727D01*
X441531Y397853D01*
X441469Y397979D01*
X441411Y398108D01*
X441355Y398238D01*
X441303Y398369D01*
X441255Y398502D01*
X441210Y398636D01*
X441169Y398771D01*
X441131Y398907D01*
X445058Y405072D02*
X445110Y405157D01*
X445165Y405241D01*
X445223Y405322D01*
X445284Y405401D01*
X445348Y405477D01*
X445416Y405550D01*
X445486Y405621D01*
X445558Y405690D01*
X445634Y405755D01*
X445712Y405817D01*
X445792Y405876D01*
X445875Y405932D01*
X445959Y405985D01*
X446046Y406034D01*
X446135Y406080D01*
X446225Y406122D01*
X446317Y406161D01*
X446410Y406196D01*
X446505Y406228D01*
X446601Y406255D01*
X446697Y406279D01*
X446795Y406299D01*
X446894Y406316D01*
X446992Y406328D01*
X447092Y406337D01*
X447192Y406341D01*
X447291Y406342D01*
X447391Y406339D01*
X447490Y406331D01*
X447590Y406320D01*
X447688Y406305D01*
X447786Y406286D01*
X447883Y406264D01*
X447979Y406237D01*
X448074Y406207D01*
X448168Y406173D01*
X448261Y406136D01*
X448351Y406095D01*
X448441Y406050D01*
X448528Y406002D01*
X448527Y406002D02*
X448641Y405934D01*
X448754Y405862D01*
X448864Y405788D01*
X448973Y405710D01*
X449079Y405630D01*
X449183Y405546D01*
X449284Y405460D01*
X449383Y405371D01*
X449479Y405279D01*
X449573Y405184D01*
X449664Y405087D01*
X449753Y404987D01*
X449838Y404885D01*
X449921Y404781D01*
X450001Y404674D01*
X450078Y404565D01*
X450151Y404454D01*
X450222Y404341D01*
X450289Y404226D01*
X450353Y404109D01*
X450414Y403990D01*
X450471Y403870D01*
X450525Y403748D01*
X445046Y402512D02*
X444999Y402599D01*
X444955Y402688D01*
X444915Y402779D01*
X444878Y402871D01*
X444845Y402965D01*
X444815Y403059D01*
X444789Y403155D01*
X444767Y403252D01*
X444749Y403349D01*
X444734Y403447D01*
X444723Y403546D01*
X444716Y403645D01*
X444712Y403744D01*
X444713Y403843D01*
X444717Y403942D01*
X444725Y404041D01*
X444737Y404140D01*
X444753Y404238D01*
X444772Y404335D01*
X444795Y404431D01*
X444822Y404527D01*
X444852Y404621D01*
X444886Y404714D01*
X444924Y404806D01*
X444965Y404897D01*
X445010Y404985D01*
X445058Y405072D01*
X447119Y399116D02*
X447166Y399029D01*
X447210Y398940D01*
X447250Y398849D01*
X447287Y398757D01*
X447320Y398663D01*
X447350Y398569D01*
X447376Y398473D01*
X447398Y398376D01*
X447416Y398279D01*
X447431Y398181D01*
X447442Y398082D01*
X447449Y397983D01*
X447453Y397884D01*
X447452Y397785D01*
X447448Y397686D01*
X447440Y397587D01*
X447428Y397488D01*
X447412Y397390D01*
X447393Y397293D01*
X447370Y397197D01*
X447343Y397101D01*
X447313Y397007D01*
X447279Y396914D01*
X447241Y396822D01*
X447200Y396732D01*
X447155Y396643D01*
X447107Y396556D01*
X447119Y399116D02*
X445046Y402512D01*
X455072Y402224D02*
X452656Y390420D01*
X461671Y398414D01*
X464250Y393991D02*
X468270Y394604D01*
X462555Y384705D01*
X465304Y383117D02*
X459805Y386292D01*
D11*
X357912Y437250D02*
X351562Y426252D01*
X342888Y423928D01*
X345212Y415253D01*
X338862Y404255D01*
X330188Y401931D01*
X357912Y437250D02*
X355588Y445925D01*
X330188Y401931D02*
X332512Y393256D01*
X326162Y382258D01*
X317488Y379934D01*
X319812Y371259D02*
X313462Y360261D01*
X304788Y357936D01*
X307112Y349262D01*
X300762Y338264D01*
X292088Y335939D01*
X319812Y371259D02*
X317488Y379934D01*
X292088Y335939D02*
X294412Y327265D01*
X288062Y316267D01*
X279388Y313942D01*
X309892Y442978D02*
X307568Y451652D01*
X294868Y429655D02*
X297192Y420981D01*
X294868Y429655D02*
X301218Y440653D01*
X309892Y442978D01*
X322592Y464975D02*
X355588Y445925D01*
X322592Y464975D02*
X313918Y462650D01*
X307568Y451652D01*
X282168Y407658D02*
X284492Y398984D01*
X282168Y407658D02*
X288518Y418656D01*
X297192Y420981D01*
X269468Y385661D02*
X271792Y376986D01*
X256768Y363664D02*
X259092Y354989D01*
X256768Y363664D02*
X263118Y374662D01*
X271792Y376986D01*
X275818Y396659D02*
X284492Y398984D01*
X275818Y396659D02*
X269468Y385661D01*
X244068Y341667D02*
X246392Y332992D01*
X244068Y341667D02*
X250418Y352665D01*
X259092Y354989D01*
X233692Y310995D02*
X266688Y291945D01*
X275362Y294270D01*
X281712Y305268D01*
X279388Y313942D01*
X246392Y332992D02*
X237718Y330668D01*
X231368Y319670D01*
X233692Y310995D01*
D123*
X235520Y296889D02*
X235468Y296804D01*
X235413Y296720D01*
X235355Y296639D01*
X235294Y296561D01*
X235230Y296484D01*
X235162Y296411D01*
X235092Y296340D01*
X235020Y296271D01*
X234944Y296206D01*
X234866Y296144D01*
X234786Y296085D01*
X234703Y296029D01*
X234619Y295976D01*
X234532Y295927D01*
X234443Y295881D01*
X234353Y295839D01*
X234261Y295800D01*
X234168Y295765D01*
X234073Y295733D01*
X233977Y295706D01*
X233881Y295682D01*
X233783Y295662D01*
X233684Y295645D01*
X233586Y295633D01*
X233486Y295624D01*
X233386Y295620D01*
X233287Y295619D01*
X233187Y295622D01*
X233088Y295630D01*
X232988Y295641D01*
X232890Y295656D01*
X232792Y295675D01*
X232695Y295697D01*
X232599Y295724D01*
X232504Y295754D01*
X232410Y295788D01*
X232317Y295825D01*
X232226Y295866D01*
X232137Y295911D01*
X232050Y295959D01*
X231929Y296031D01*
X231809Y296107D01*
X231692Y296185D01*
X231576Y296267D01*
X231463Y296351D01*
X231353Y296439D01*
X231244Y296529D01*
X231138Y296622D01*
X231034Y296718D01*
X230933Y296817D01*
X230835Y296918D01*
X230739Y297022D01*
X230646Y297128D01*
X230556Y297237D01*
X230469Y297348D01*
X230385Y297462D01*
X230304Y297577D01*
X230225Y297695D01*
X230150Y297814D01*
X230078Y297936D01*
X230010Y298059D01*
X229944Y298185D01*
X229882Y298311D01*
X229824Y298440D01*
X229768Y298570D01*
X229716Y298701D01*
X229668Y298834D01*
X229623Y298968D01*
X229582Y299103D01*
X229544Y299239D01*
X233470Y305404D02*
X233522Y305489D01*
X233577Y305573D01*
X233635Y305654D01*
X233696Y305733D01*
X233760Y305809D01*
X233828Y305882D01*
X233898Y305953D01*
X233970Y306022D01*
X234046Y306087D01*
X234124Y306149D01*
X234204Y306208D01*
X234287Y306264D01*
X234371Y306317D01*
X234458Y306366D01*
X234547Y306412D01*
X234637Y306454D01*
X234729Y306493D01*
X234822Y306528D01*
X234917Y306560D01*
X235013Y306587D01*
X235109Y306611D01*
X235207Y306631D01*
X235306Y306648D01*
X235404Y306660D01*
X235504Y306669D01*
X235604Y306673D01*
X235703Y306674D01*
X235803Y306671D01*
X235902Y306663D01*
X236002Y306652D01*
X236100Y306637D01*
X236198Y306618D01*
X236295Y306596D01*
X236391Y306569D01*
X236486Y306539D01*
X236580Y306505D01*
X236673Y306468D01*
X236763Y306427D01*
X236853Y306382D01*
X236940Y306334D01*
X237054Y306266D01*
X237167Y306194D01*
X237277Y306120D01*
X237386Y306042D01*
X237492Y305962D01*
X237596Y305878D01*
X237697Y305792D01*
X237796Y305703D01*
X237892Y305611D01*
X237986Y305516D01*
X238077Y305419D01*
X238166Y305319D01*
X238251Y305217D01*
X238334Y305113D01*
X238414Y305006D01*
X238491Y304897D01*
X238564Y304786D01*
X238635Y304673D01*
X238702Y304558D01*
X238766Y304441D01*
X238827Y304322D01*
X238884Y304202D01*
X238938Y304080D01*
X233458Y302844D02*
X233411Y302931D01*
X233367Y303020D01*
X233327Y303111D01*
X233290Y303203D01*
X233257Y303297D01*
X233227Y303391D01*
X233201Y303487D01*
X233179Y303584D01*
X233161Y303681D01*
X233146Y303779D01*
X233135Y303878D01*
X233128Y303977D01*
X233124Y304076D01*
X233125Y304175D01*
X233129Y304274D01*
X233137Y304373D01*
X233149Y304472D01*
X233165Y304570D01*
X233184Y304667D01*
X233207Y304763D01*
X233234Y304859D01*
X233264Y304953D01*
X233298Y305046D01*
X233336Y305138D01*
X233377Y305229D01*
X233422Y305317D01*
X233470Y305404D01*
X235532Y299448D02*
X235579Y299361D01*
X235623Y299272D01*
X235663Y299181D01*
X235700Y299089D01*
X235733Y298995D01*
X235763Y298901D01*
X235789Y298805D01*
X235811Y298708D01*
X235829Y298611D01*
X235844Y298513D01*
X235855Y298414D01*
X235862Y298315D01*
X235866Y298216D01*
X235865Y298117D01*
X235861Y298018D01*
X235853Y297919D01*
X235841Y297820D01*
X235825Y297722D01*
X235806Y297625D01*
X235783Y297529D01*
X235756Y297433D01*
X235726Y297339D01*
X235692Y297246D01*
X235654Y297154D01*
X235613Y297064D01*
X235568Y296975D01*
X235520Y296888D01*
X235531Y299448D02*
X233459Y302844D01*
X243484Y302556D02*
X241069Y290752D01*
X250083Y298746D01*
X256957Y294776D02*
X257047Y294722D01*
X257134Y294665D01*
X257220Y294605D01*
X257303Y294542D01*
X257383Y294476D01*
X257461Y294406D01*
X257537Y294334D01*
X257610Y294260D01*
X257680Y294183D01*
X257747Y294103D01*
X257811Y294020D01*
X257873Y293936D01*
X257931Y293849D01*
X257986Y293761D01*
X258037Y293670D01*
X258086Y293577D01*
X258130Y293483D01*
X258172Y293387D01*
X258210Y293290D01*
X258244Y293192D01*
X258275Y293092D01*
X258302Y292991D01*
X258325Y292889D01*
X258345Y292787D01*
X258360Y292684D01*
X258372Y292580D01*
X258381Y292476D01*
X258385Y292372D01*
X258386Y292267D01*
X258383Y292163D01*
X258376Y292059D01*
X258365Y291955D01*
X258350Y291852D01*
X258332Y291749D01*
X258310Y291647D01*
X258284Y291546D01*
X258255Y291446D01*
X258222Y291347D01*
X258185Y291249D01*
X258145Y291153D01*
X258101Y291058D01*
X258054Y290965D01*
X258003Y290874D01*
X256957Y294777D02*
X256854Y294835D01*
X256749Y294889D01*
X256642Y294940D01*
X256533Y294987D01*
X256423Y295031D01*
X256312Y295071D01*
X256199Y295107D01*
X256086Y295140D01*
X255971Y295169D01*
X255855Y295195D01*
X255739Y295217D01*
X255622Y295235D01*
X255505Y295249D01*
X255387Y295259D01*
X255268Y295266D01*
X255150Y295269D01*
X255032Y295268D01*
X254913Y295263D01*
X254795Y295254D01*
X254678Y295242D01*
X254560Y295226D01*
X254444Y295206D01*
X254328Y295182D01*
X254213Y295155D01*
X254099Y295123D01*
X253985Y295089D01*
X253873Y295050D01*
X253763Y295008D01*
X253654Y294963D01*
X253546Y294913D01*
X253440Y294861D01*
X253335Y294805D01*
X253233Y294746D01*
X253132Y294683D01*
X253034Y294617D01*
X252938Y294549D01*
X252844Y294477D01*
X252752Y294402D01*
X252663Y294324D01*
X256067Y289425D02*
X256171Y289452D01*
X256275Y289483D01*
X256377Y289518D01*
X256478Y289556D01*
X256578Y289598D01*
X256676Y289643D01*
X256773Y289691D01*
X256867Y289743D01*
X256960Y289799D01*
X257051Y289857D01*
X257140Y289919D01*
X257226Y289983D01*
X257311Y290051D01*
X257392Y290122D01*
X257472Y290195D01*
X257548Y290271D01*
X257622Y290350D01*
X257693Y290432D01*
X257761Y290516D01*
X257826Y290602D01*
X257888Y290690D01*
X257947Y290781D01*
X258003Y290873D01*
X256067Y289425D02*
X248218Y286624D01*
X253717Y283449D01*
M02*
